<?xml version="1.0" standalone="no"?>
<!DOCTYPE svg PUBLIC "-//W3C//DTD SVG 1.1//EN" "http://www.w3.org/Graphics/SVG/1.1/DTD/svg11.dtd" >
<svg xmlns="http://www.w3.org/2000/svg">
<metadata></metadata>
<defs>
<font id="knileregular" horiz-adv-x="729" >
<font-face units-per-em="2048" ascent="1536" descent="-512" />
<missing-glyph horiz-adv-x="593" />
<glyph unicode=" "  horiz-adv-x="593" />
<glyph unicode="&#x09;" horiz-adv-x="593" />
<glyph unicode="&#xa0;" horiz-adv-x="593" />
<glyph unicode="!" horiz-adv-x="598" d="M184 88q0 46 34 79.5t81 33.5t81 -33.5t34 -79.5q0 -47 -34 -81t-81 -34t-81 34t-34 81zM207 1481h184l-20 -1100h-144z" />
<glyph unicode="&#x22;" horiz-adv-x="610" d="M92 1481h156l-17 -416h-118zM362 1481h156l-16 -416h-123z" />
<glyph unicode="#" horiz-adv-x="1312" d="M49 393v133h264l80 379h-235v133h264l82 396h145l-80 -396h295l82 396h146l-80 -396h239v-133h-268l-78 -379h242v-133h-270l-82 -393h-146l80 393h-297l-82 -393h-145l82 393h-238zM461 526h297l80 379h-297z" />
<glyph unicode="$" horiz-adv-x="1091" d="M123 0v416h131q28 -130 114.5 -206.5t204.5 -76.5q106 0 170 59.5t64 163.5q0 51 -22.5 94.5t-61 76t-88.5 62t-105 57.5t-110 57.5t-105 66.5t-88.5 79.5t-61 101.5t-22.5 128q0 148 92.5 247t245.5 106v182h140v-199q102 -34 172 -119v125h147v-397h-131 q-25 121 -103.5 192.5t-187.5 71.5q-101 0 -157 -53t-56 -139q0 -62 37 -112.5t96.5 -87.5t131 -72.5t143 -76t131 -88t96.5 -118.5t37 -158q0 -163 -95.5 -271.5t-256.5 -121.5v-195h-140v203q-134 26 -215 137v-135h-147z" />
<glyph unicode="%" horiz-adv-x="1527" d="M123 1141q0 146 74.5 232.5t212.5 86.5t212 -86.5t74 -232.5q0 -151 -73.5 -239.5t-212.5 -88.5t-213 89t-74 239zM172 0l1012 1434h164l-1012 -1434h-164zM258 1141q0 -99 37.5 -156t114.5 -57t114 56.5t37 156.5q0 202 -151 202q-77 0 -114.5 -53t-37.5 -149zM831 301 q0 146 74.5 233t212.5 87t212.5 -87t74.5 -233q0 -150 -74 -239t-213 -89t-213 89t-74 239zM967 301q0 -100 37 -156.5t114 -56.5t114.5 57t37.5 156q0 96 -37.5 149.5t-114.5 53.5t-114 -53.5t-37 -149.5z" />
<glyph unicode="&#x26;" horiz-adv-x="1417" d="M104 399q0 128 82 233t205 165q-172 172 -172 336q0 139 98.5 233t251.5 94q152 0 244 -135v109h148v-381h-132q-48 264 -239 264q-88 0 -143.5 -51t-55.5 -127q0 -48 25.5 -101t53.5 -86.5t75 -83.5l454 -483q78 146 78 320h279v-136h-139q-27 -157 -113 -295l131 -139 h141v-135h-235l-140 150q-180 -177 -409 -177q-224 0 -356 123t-132 303zM281 406q0 -118 88.5 -201.5t222.5 -83.5q178 0 311 133l-411 436q-97 -44 -154 -118t-57 -166z" />
<glyph unicode="'" horiz-adv-x="313" d="M41 1380q0 51 33.5 85t83.5 34q53 0 88 -41t35 -102q0 -86 -46 -167.5t-120 -144.5l-62 60q80 80 94 162h-6q-42 0 -71 35.5t-29 78.5z" />
<glyph unicode="(" horiz-adv-x="659" d="M152 635q0 248 94.5 481.5t275.5 433.5l96 -75q-142 -200 -218 -414t-76 -426t76 -426t218 -414l-96 -76q-181 200 -275.5 434t-94.5 482z" />
<glyph unicode=")" horiz-adv-x="659" d="M41 -205q295 416 295 840t-295 840l96 75q181 -200 276 -433.5t95 -481.5t-95 -482t-276 -434z" />
<glyph unicode="*" horiz-adv-x="833" d="M82 1006l213 122l-213 125l63 105l207 -123v246h127v-248l209 125l62 -103l-213 -125l215 -122l-64 -105l-209 123v-244h-127v244l-207 -123z" />
<glyph unicode="+" horiz-adv-x="1208" d="M123 569v138h407v436h148v-436h407v-138h-407v-438h-148v438h-407z" />
<glyph unicode="," horiz-adv-x="452" d="M106 104q0 51 33.5 85t83.5 34q53 0 88 -41t35 -102q0 -86 -46 -167t-120 -144l-61 59q80 80 94 162h-6q-43 0 -72 35.5t-29 78.5z" />
<glyph unicode="-" horiz-adv-x="727" d="M102 541v151h523v-151h-523z" />
<glyph unicode="." horiz-adv-x="462" d="M106 98q0 51 38 88t89 37t87 -37t36 -88t-36 -88t-87 -37t-89 37t-38 88z" />
<glyph unicode="/" horiz-adv-x="819" d="M49 -221l621 1757h149l-620 -1757h-150z" />
<glyph unicode="0" horiz-adv-x="1251" d="M139 723q0 365 114 547t374 182t372.5 -182t112.5 -547q0 -181 -26 -315.5t-82 -233.5t-150.5 -149t-226.5 -50t-227 50t-151.5 149t-83 233.5t-26.5 315.5zM311 723q0 -110 7 -191.5t27 -161t54 -129t91.5 -80t136.5 -30.5t136 30.5t91 80.5t53.5 129.5t26 160.5 t6.5 191q0 109 -6.5 188.5t-26 156t-53.5 124t-91 76t-136 28.5t-136.5 -28.5t-91.5 -76.5t-54 -124t-27 -156t-7 -188z" />
<glyph unicode="1" horiz-adv-x="790" d="M45 1163l305 271h170v-1299h185v-135h-558v135h209v1116l-211 -192z" />
<glyph unicode="2" horiz-adv-x="1038" d="M82 0v61q0 92 37 181.5t96 163t130 144.5t142 136.5t130 127t96 127t37 126.5q0 103 -65.5 168t-178.5 65q-99 0 -173.5 -68t-111.5 -167l-139 65q49 142 161.5 234t268.5 92q182 0 296 -108t114 -271q0 -81 -34.5 -161.5t-90 -148.5t-123.5 -133.5t-137 -127.5 t-127.5 -120.5t-99.5 -122.5t-48 -124h531v234h151v-373h-862z" />
<glyph unicode="3" horiz-adv-x="1093" d="M88 285l148 51q29 -94 107 -151.5t189 -57.5q125 0 208 81t83 206q0 126 -88 203t-248 77h-108l-31 97l420 507h-473v-186h-152v322h799v-140l-383 -458h8q179 0 305.5 -116.5t126.5 -301.5q0 -190 -135 -318.5t-329 -128.5q-173 0 -290 83.5t-157 230.5z" />
<glyph unicode="4" horiz-adv-x="1189" d="M74 399v117l653 918h172v-899h188v-136h-188v-264h188v-135h-573v135h225v264h-665zM256 535h483v694z" />
<glyph unicode="5" horiz-adv-x="1122" d="M98 285l146 59q37 -98 118 -157.5t199 -59.5q129 0 210 91.5t81 232.5q0 138 -81.5 226.5t-221.5 88.5q-154 0 -248 -94l-129 47l45 715h731v-306h-151v166h-439l-32 -448q108 76 247 76q198 0 326.5 -131t128.5 -332q0 -208 -133 -348t-336 -140q-175 0 -290 82.5 t-171 231.5z" />
<glyph unicode="6" horiz-adv-x="1204" d="M152 678v20q0 129 19 241.5t60 209t102.5 165t151 107.5t199.5 39q182 0 332 -98l-72 -133q-120 76 -266 76q-173 0 -260.5 -146t-87.5 -407q48 78 127.5 128t189.5 50q199 0 318.5 -130t119.5 -333q0 -226 -123.5 -361t-332.5 -135q-244 0 -360.5 171.5t-116.5 535.5z M328 471q0 -87 34 -164.5t104.5 -128.5t162.5 -51q141 0 210.5 92.5t69.5 243.5q0 140 -70.5 227.5t-211.5 87.5q-142 0 -220.5 -84.5t-78.5 -222.5z" />
<glyph unicode="7" horiz-adv-x="1034" d="M82 1092v342h903v-119l-549 -1315h-184l553 1294h-572v-202h-151z" />
<glyph unicode="8" horiz-adv-x="1218" d="M139 410q0 141 75.5 239t176.5 131q-84 36 -144.5 116t-60.5 189q0 166 119.5 268.5t302.5 102.5t303.5 -102.5t120.5 -268.5q0 -109 -60.5 -189t-144.5 -116q101 -33 176.5 -131t75.5 -239q0 -195 -129.5 -317t-341.5 -122t-340.5 122t-128.5 317zM311 410 q0 -123 79 -206t218 -83q140 0 219.5 83t79.5 206q0 135 -82.5 210.5t-216.5 75.5t-215.5 -75.5t-81.5 -210.5zM354 1083q0 -99 71 -167t183 -68t184 68t72 167q0 101 -67.5 163.5t-188.5 62.5t-187.5 -62.5t-66.5 -163.5z" />
<glyph unicode="9" horiz-adv-x="1185" d="M119 983q0 213 124 343t330 130q230 0 345.5 -157t115.5 -484v-18q0 -150 -17 -273.5t-55.5 -227.5t-97 -175t-145.5 -110.5t-197 -39.5q-200 0 -344 99l72 133q117 -76 274 -76q168 0 251 149.5t83 421.5q-40 -74 -120.5 -122t-180.5 -48q-199 0 -318.5 127.5 t-119.5 327.5zM291 989q0 -138 73.5 -223.5t210.5 -85.5q131 0 205 84t74 223q0 131 -76.5 222t-199.5 91q-133 0 -210 -87t-77 -224z" />
<glyph unicode=":" horiz-adv-x="462" d="M106 98q0 51 38 88t89 37t87 -37t36 -88t-36 -88t-87 -37t-89 37t-38 88zM106 897q0 51 38 88t89 37t87 -37t36 -88t-36 -88t-87 -37t-89 37t-38 88z" />
<glyph unicode=";" horiz-adv-x="462" d="M106 897q0 51 38 88t89 37t87 -37t36 -88t-36 -88t-87 -37t-89 37t-38 88zM113 104q0 51 33 85t83 34q53 0 88 -41t35 -102q0 -86 -46 -167t-120 -144l-61 59q80 80 94 162h-6q-42 0 -71 35.5t-29 78.5z" />
<glyph unicode="&#x3c;" horiz-adv-x="1159" d="M143 575v132l832 378v-151l-662 -291l662 -295v-151z" />
<glyph unicode="=" horiz-adv-x="1249" d="M143 377v137h963v-137h-963zM143 743v138h963v-138h-963z" />
<glyph unicode="&#x3e;" horiz-adv-x="1159" d="M184 197v151l662 291l-662 295v151l832 -378v-132z" />
<glyph unicode="?" horiz-adv-x="921" d="M33 1239q16 45 44.5 87.5t74 83.5t114 66t150.5 25q188 0 299.5 -107.5t111.5 -275.5q0 -68 -20 -127.5t-52.5 -103.5t-71.5 -83.5t-78 -75.5t-71.5 -71t-52.5 -77t-20 -88v-111h-160v117q0 56 19.5 107t51 90.5t69.5 76.5l76 74t69.5 75.5t51 87.5t19.5 103 q0 106 -65.5 173t-179.5 67q-171 0 -250 -172zM270 88q0 47 34 81t81 34t81 -34t34 -81t-34 -81t-81 -34t-81 34t-34 81z" />
<glyph unicode="@" horiz-adv-x="1941" d="M143 543q0 177 63 333t173 267.5t267 176t337 64.5q186 0 341 -60.5t258 -164.5t159.5 -242.5t56.5 -295.5q0 -231 -92 -362.5t-240 -131.5q-87 0 -143.5 43t-77.5 113q-37 -66 -112.5 -111t-174.5 -45q-166 0 -277.5 112.5t-111.5 292.5q0 178 111 290t274 112 q91 0 161 -38t104 -85v111h133v-535q0 -61 30 -99t86 -38q82 0 136.5 91t54.5 265q0 142 -47.5 262.5t-133.5 207.5t-214 136.5t-283 49.5q-153 0 -283.5 -56.5t-219 -153.5t-138 -228.5t-49.5 -278.5q0 -152 49.5 -284.5t137.5 -228t215 -150t276 -54.5q209 0 381 96 l63 -102q-179 -119 -444 -119q-169 0 -321.5 63.5t-263.5 174t-176 267.5t-65 335zM717 532q0 -124 72.5 -203t181.5 -79q107 0 180.5 75.5t73.5 209.5q0 128 -69.5 202t-186.5 74q-107 0 -179.5 -77t-72.5 -202z" />
<glyph unicode="A" horiz-adv-x="1462" d="M20 0v135h138l481 1303h188l476 -1303h139v-135h-504v135h182l-125 350h-540l-125 -350h182v-135h-492zM504 616h442l-221 644z" />
<glyph unicode="B" horiz-adv-x="1273" d="M102 0v135h177v1163h-177v136h578q176 0 291.5 -98.5t115.5 -258.5q0 -103 -54.5 -182t-145.5 -127q112 -34 188 -127t76 -221q0 -193 -123.5 -306.5t-314.5 -113.5h-611zM451 131h229q129 0 210 75.5t81 207.5q0 129 -84 202.5t-211 73.5h-225v-559zM451 821h217 q110 0 178.5 68.5t68.5 185.5q0 105 -71.5 166.5t-186.5 61.5h-206v-482z" />
<glyph unicode="C" horiz-adv-x="1447" d="M123 727q0 204 87 373t241.5 267.5t343.5 98.5q121 0 223 -50t174 -140v158h147v-428h-127q-36 140 -145 222.5t-246 82.5q-224 0 -369 -162.5t-145 -411.5q0 -169 61.5 -307.5t181.5 -222.5t277 -84q131 0 237.5 65t170.5 179l131 -76q-75 -146 -218.5 -235t-316.5 -89 q-162 0 -296 58t-223.5 159.5t-139 241t-49.5 301.5z" />
<glyph unicode="D" horiz-adv-x="1484" d="M102 0v135h177v1163h-177v136h547q327 0 520 -192t193 -521q0 -332 -186 -526.5t-514 -194.5h-560zM451 135h182q263 0 404 151.5t141 440.5q0 272 -150 421.5t-410 149.5h-167v-1163z" />
<glyph unicode="E" horiz-adv-x="1179" d="M102 0v135h177v1163h-177v136h942v-342h-155v206h-438v-479h436v-143h-436v-541h442v236h156v-371h-947z" />
<glyph unicode="F" horiz-adv-x="1132" d="M102 0v135h177v1163h-177v136h961v-342h-156v206h-456v-512h448v-143h-448v-508h215v-135h-564z" />
<glyph unicode="G" horiz-adv-x="1579" d="M123 737q0 158 52.5 294.5t143 231.5t215 149t265.5 54q137 0 252.5 -54.5t193.5 -151.5v174h152v-406h-127q-51 130 -174 206.5t-285 76.5q-102 0 -194.5 -41t-161.5 -114t-109.5 -182t-40.5 -237q0 -171 65 -311.5t179.5 -221.5t253.5 -81q186 0 314 115.5t151 320.5 h-322v143h473v-702h-147v240q-77 -129 -204 -201t-282 -72q-188 0 -340.5 102.5t-237.5 278.5t-85 389z" />
<glyph unicode="H" horiz-adv-x="1646" d="M102 0v135h177v1163h-177v136h525v-136h-176v-495h745v495h-176v136h524v-136h-176v-1163h176v-135h-524v135h176v524h-745v-524h176v-135h-525z" />
<glyph unicode="I" d="M102 0v135h177v1163h-177v136h525v-136h-176v-1163h176v-135h-525z" />
<glyph unicode="J" horiz-adv-x="712" d="M-33 -242l19 154q67 -18 141 -18q81 0 127.5 50t46.5 144v1210h-207v136h545v-136h-166v-1224q0 -157 -92.5 -246.5t-241.5 -89.5q-97 0 -172 20z" />
<glyph unicode="K" horiz-adv-x="1374" d="M102 0v135h177v1163h-177v136h490v-136h-141v-540l522 549h-152v127h496v-136h-168l-520 -546l563 -617h166v-135h-524v131h147l-530 584v-580h149v-135h-498z" />
<glyph unicode="L" horiz-adv-x="1128" d="M102 0v135h177v1163h-177v136h533v-136h-184v-1163h444v266h156v-401h-949z" />
<glyph unicode="M" horiz-adv-x="2011" d="M102 0v135h177v1163h-177v136h410l498 -1084l483 1084h416v-136h-176v-1163h176v-135h-516v135h172v1098l-486 -1090h-159l-486 1090v-1098h172v-135h-504z" />
<glyph unicode="N" horiz-adv-x="1683" d="M102 0v135h177v1163h-177v136h355l792 -1174v1038h-176v136h508v-136h-176v-1298h-182l-789 1178v-1043h176v-135h-508z" />
<glyph unicode="O" horiz-adv-x="1650" d="M123 729q0 206 86.5 373t248 265.5t367.5 98.5t368 -98.5t248.5 -266t86.5 -372.5q0 -212 -85 -384.5t-246.5 -275t-371.5 -102.5t-371.5 102.5t-246 275t-84.5 384.5zM307 729q0 -265 142 -435.5t376 -170.5t376 170.5t142 435.5q0 258 -141.5 420t-376.5 162 t-376.5 -162t-141.5 -420z" />
<glyph unicode="P" horiz-adv-x="1191" d="M102 0v135h177v1163h-177v136h574q189 0 315.5 -113t126.5 -299q0 -133 -60.5 -233.5t-160.5 -151.5t-223 -51h-223v-451h211v-135h-560zM451 721h213q123 0 198.5 80t75.5 223q0 131 -75.5 205t-200.5 74h-211v-582z" />
<glyph unicode="Q" horiz-adv-x="1671" d="M123 729q0 153 52.5 288.5t145 234.5t226.5 156.5t289 57.5t288.5 -57.5t226 -156.5t145 -234.5t52.5 -288.5q0 -151 -47.5 -284.5t-136.5 -237.5l164 -162l-105 -108l-170 165q-185 -135 -417 -135q-154 0 -288 59.5t-226.5 162t-145.5 243t-53 297.5zM307 729 q0 -264 147 -435t382 -171q175 0 303 92l-160 158l104 108l164 -159q117 160 117 407q0 257 -146 419.5t-382 162.5t-382.5 -162.5t-146.5 -419.5z" />
<glyph unicode="R" horiz-adv-x="1312" d="M102 0v135h177v1163h-177v136h572q179 0 304.5 -113.5t125.5 -278.5q0 -131 -81 -238t-212 -157l299 -512h182v-135h-303l-344 610h-194v-475h163v-135h-512zM451 741h182q130 0 210.5 81t80.5 218q0 119 -75 191t-192 72h-206v-562z" />
<glyph unicode="S" horiz-adv-x="1114" d="M123 0v420h127q32 -136 119 -219.5t213 -83.5q110 0 179.5 65t69.5 170q0 66 -38.5 120t-100.5 93t-136.5 76.5t-149 79t-136.5 90t-100.5 120.5t-38.5 161q0 160 103.5 267t269.5 107q182 0 297 -155v123h147v-402h-127q-24 131 -103 211t-196 80q-101 0 -161 -61.5 t-60 -151.5q0 -61 39 -111.5t101 -88t136.5 -73.5t149.5 -77.5t137 -90.5t101 -122.5t39 -163.5q0 -177 -110.5 -294.5t-297.5 -117.5q-206 0 -326 166v-137h-147z" />
<glyph unicode="T" horiz-adv-x="1249" d="M66 1032v402h1118v-402h-156v266h-317v-1163h188v-135h-549v135h189v1163h-318v-266h-155z" />
<glyph unicode="U" horiz-adv-x="1544" d="M74 1298v136h528v-136h-184v-790q0 -177 95 -280t259 -103t259 103t95 280v790h-184v136h528v-136h-172v-782q0 -252 -139 -399.5t-387 -147.5t-387 147.5t-139 399.5v782h-172z" />
<glyph unicode="V" horiz-adv-x="1476" d="M20 1298v136h553v-136h-206l378 -1091l375 1091h-207v136h543v-136h-164l-461 -1306h-186l-461 1306h-164z" />
<glyph unicode="W" horiz-adv-x="2183" d="M20 1298v136h566v-136h-224l297 -1114l340 1250h205l336 -1244l293 1108h-225v136h555v-136h-164l-365 -1306h-207l-333 1206l-340 -1206h-207l-363 1306h-164z" />
<glyph unicode="X" horiz-adv-x="1357" d="M20 0v135h158l402 606l-375 557h-152v136h502v-131h-164l295 -441l289 441h-164v131h481v-136h-149l-375 -559l406 -604h163v-135h-522v131h172l-325 485l-316 -485h172v-131h-498z" />
<glyph unicode="Y" horiz-adv-x="1335" d="M20 1298v136h506v-131h-159l317 -529l309 529h-157v131h479v-136h-158l-397 -682v-481h190v-135h-553v135h191v477l-410 686h-158z" />
<glyph unicode="Z" horiz-adv-x="1218" d="M90 0v121l799 1165h-604v-242h-156v390h979v-121l-799 -1166h656v273h155v-420h-1030z" />
<glyph unicode="[" horiz-adv-x="598" d="M205 -293v1856h332v-136h-170v-1585h170v-135h-332z" />
<glyph unicode="\" horiz-adv-x="819" d="M0 1536h150l620 -1757h-149z" />
<glyph unicode="]" horiz-adv-x="598" d="M61 -158h170v1585h-170v136h332v-1856h-332v135z" />
<glyph unicode="^" horiz-adv-x="999" d="M61 651l373 783h129l375 -783h-156l-286 619l-287 -619h-148z" />
<glyph unicode="_" horiz-adv-x="1253" d="M74 -63h1106v-132h-1106v132z" />
<glyph unicode="`" horiz-adv-x="573" d="M123 1501h180l148 -291h-148z" />
<glyph unicode="a" horiz-adv-x="1239" d="M115 326q0 155 120.5 250.5t305.5 95.5q183 0 301 -97v127q0 112 -75.5 179t-195.5 67q-87 0 -173.5 -30.5t-155.5 -77.5l-70 118q210 134 430 134q186 0 295 -105t109 -266v-586h155v-135h-295l-18 115q-50 -67 -137.5 -102.5t-194.5 -35.5q-180 0 -290.5 96.5 t-110.5 252.5zM289 330q0 -94 76.5 -155.5t199.5 -61.5t203 62t80 157q0 93 -81 152t-202 59t-198.5 -60t-77.5 -153z" />
<glyph unicode="b" horiz-adv-x="1380" d="M82 1346v135h319v-598q56 94 154.5 154.5t230.5 60.5q145 0 258.5 -72t175.5 -198.5t62 -284.5q0 -253 -145 -413.5t-373 -160.5q-119 0 -214 55t-149 148v-172h-317v135h156l-2 1211h-156zM391 537q0 -187 101 -304.5t260 -117.5q155 0 254.5 116.5t99.5 305.5 q0 185 -98 300t-256 115q-154 0 -257.5 -117.5t-103.5 -297.5z" />
<glyph unicode="c" horiz-adv-x="1148" d="M90 549q0 150 66 276t181.5 199.5t254.5 73.5q179 0 297 -144v111h151v-350h-122q-28 109 -107.5 173t-185.5 64q-157 0 -257 -112t-100 -291q0 -183 102 -307.5t257 -124.5q96 0 183.5 45.5t145.5 122.5l111 -80q-67 -111 -187 -173.5t-262 -62.5q-234 0 -381 164.5 t-147 415.5z" />
<glyph unicode="d" horiz-adv-x="1378" d="M98 543q0 122 40.5 227t109.5 176.5t162.5 111.5t197.5 40q121 0 219 -59t150 -156v463h-156v135h320v-1346h155v-135h-319v174q-57 -94 -157.5 -149.5t-227.5 -55.5q-217 0 -355.5 158t-138.5 416zM276 545q0 -188 98 -309t253 -121q157 0 258.5 120.5t101.5 307.5 q0 173 -102 290t-252 117q-156 0 -256.5 -113.5t-100.5 -291.5z" />
<glyph unicode="e" horiz-adv-x="1200" d="M90 547q0 151 67 276.5t190 200t278 74.5q147 0 259 -70.5t169 -187t57 -260.5v-66h-850q11 -182 112 -289.5t267 -107.5q98 0 186 44.5t146 119.5l106 -78q-72 -115 -187.5 -174.5t-258.5 -59.5q-243 0 -392 163t-149 415zM268 645h668q0 135 -88.5 224t-231.5 89 q-133 0 -228.5 -81.5t-119.5 -231.5z" />
<glyph unicode="f" horiz-adv-x="700" d="M90 0v135h156v795h-156v135h156v119q0 136 88.5 220.5t232.5 84.5q57 0 109 -6v-135q-43 6 -88 6q-80 0 -129 -50.5t-49 -127.5v-111h227v-135h-227v-795h184v-135h-504z" />
<glyph unicode="g" horiz-adv-x="1366" d="M98 547q0 122 40.5 226.5t110 175t162.5 110t197 39.5q121 0 219 -59t150 -156v182h319v-135h-155v-850q0 -238 -145 -355.5t-398 -117.5q-228 0 -395 100l61 131q66 -40 157.5 -64t186.5 -24q172 0 270.5 78t98.5 223v123q-56 -92 -156.5 -144.5t-228.5 -52.5 q-218 0 -356 156t-138 414zM276 549q0 -188 98 -307t253 -119q157 0 258.5 118.5t101.5 305.5q0 172 -102 287.5t-252 115.5q-156 0 -256.5 -111.5t-100.5 -289.5z" />
<glyph unicode="h" horiz-adv-x="1372" d="M82 0v135h156v1211h-156v135h317v-598q50 92 141 150.5t203 58.5q176 0 286 -108t110 -284v-565h155v-135h-467v135h148v547q0 116 -76 186t-199 70q-124 0 -211.5 -83t-87.5 -206v-514h148v-135h-467z" />
<glyph unicode="i" horiz-adv-x="647" d="M90 0v135h156v795h-156v135h320v-930h155v-135h-475zM201 1366q0 48 32.5 81.5t79.5 33.5q49 0 83 -33.5t34 -81.5q0 -49 -33.5 -82t-83.5 -33q-47 0 -79.5 33t-32.5 82z" />
<glyph unicode="j" horiz-adv-x="593" d="M0 -246q18 -2 68 -2q78 0 121.5 54t43.5 141v983h-155v135h319v-1124q0 -149 -84.5 -240.5t-226.5 -91.5q-36 0 -86 4v141zM184 1366q0 47 33 81t80 34q49 0 83 -33.5t34 -81.5q0 -49 -33.5 -82t-83.5 -33q-48 0 -80.5 33t-32.5 82z" />
<glyph unicode="k" horiz-adv-x="1140" d="M82 0v135h156v1211h-156v135h319v-889l365 346h-152v127h494v-135h-166l-360 -336l411 -459h148v-135h-254l-486 559v-424h148v-135h-467z" />
<glyph unicode="l" horiz-adv-x="641" d="M82 0v135h156v1211h-156v135h321v-1346h156v-135h-477z" />
<glyph unicode="m" horiz-adv-x="1970" d="M90 0v135h156v795h-156v135h318v-174q41 90 124.5 145.5t190.5 55.5q112 0 195.5 -56t117.5 -149q48 89 142 147t211 58q152 0 250 -103t98 -274v-580h155v-135h-462v135h143v557q0 111 -61.5 180.5t-165.5 69.5q-115 0 -194 -80t-79 -200v-527h144v-135h-451v135h143 v555q0 111 -61.5 181.5t-165.5 70.5q-113 0 -192.5 -90t-79.5 -221v-496h143v-135h-463z" />
<glyph unicode="n" horiz-adv-x="1380" d="M90 0v135h156v795h-156v135h318v-170q48 91 138.5 144t205.5 53q176 0 285.5 -108t109.5 -284v-565h156v-135h-467v135h147v547q0 116 -76 186t-198 70q-124 0 -211.5 -83.5t-87.5 -205.5v-514h147v-135h-467z" />
<glyph unicode="o" horiz-adv-x="1294" d="M90 545q0 158 71 284t198.5 197.5t287.5 71.5q158 0 285 -71t199.5 -198t72.5 -284q0 -253 -156 -414.5t-401 -161.5t-401 161.5t-156 414.5zM266 545q0 -191 106 -309.5t275 -118.5t275 118.5t106 309.5q0 180 -106 292.5t-275 112.5t-275 -112.5t-106 -292.5z" />
<glyph unicode="p" horiz-adv-x="1374" d="M74 -248h155v1178h-155v135h319v-182q56 94 154.5 154.5t230.5 60.5q145 0 259 -72t176.5 -198.5t62.5 -284.5q0 -253 -146 -413.5t-374 -160.5q-119 0 -214 55t-149 148v-420h185v-135h-504v135zM383 537q0 -187 100.5 -304.5t259.5 -117.5q155 0 255 116.5t100 305.5 q0 185 -98.5 300t-256.5 115q-153 0 -256.5 -118.5t-103.5 -296.5z" />
<glyph unicode="q" horiz-adv-x="1370" d="M98 543q0 122 40.5 227t109.5 176.5t162.5 111.5t197.5 40q121 0 219 -59t150 -156v182h319v-135h-155v-1178h155v-135h-503v135h184v422q-57 -94 -157.5 -149.5t-227.5 -55.5q-217 0 -355.5 158t-138.5 416zM276 545q0 -188 98 -309t253 -121q157 0 258.5 120.5 t101.5 307.5q0 171 -102.5 289t-251.5 118q-156 0 -256.5 -113.5t-100.5 -291.5z" />
<glyph unicode="r" horiz-adv-x="847" d="M90 0v135h156v795h-156v135h318v-219q39 105 121.5 176.5t187.5 71.5q32 0 102 -9v-184q-74 12 -119 12q-130 0 -210 -96t-80 -244v-438h184v-135h-504z" />
<glyph unicode="s" horiz-adv-x="1030" d="M123 0v324h127q29 -99 110.5 -154t192.5 -55q92 0 149.5 46t57.5 118q0 55 -35 93.5t-90.5 60t-123 39.5t-134.5 41t-123 55t-90 91q-34 57 -33 135q1 134 91 216t229 82q164 0 270 -129v102h151v-311h-127q-28 95 -102.5 152t-169.5 57q-82 0 -133 -42t-51 -110 q0 -47 27 -81t71.5 -52.5t101 -36.5t116 -31.5t116 -38.5t101 -57t71.5 -87.5t27 -129.5q0 -145 -99.5 -234.5t-257.5 -89.5q-178 0 -289 133v-106h-151z" />
<glyph unicode="t" horiz-adv-x="708" d="M57 930v135h156v223h164v-223h233v-135h-233v-617q0 -76 37.5 -125t103.5 -49q47 0 109 15v-146q-67 -18 -133 -18q-136 0 -208.5 91t-72.5 238v611h-156z" />
<glyph unicode="u" horiz-adv-x="1323" d="M57 930v135h320v-674q0 -121 67.5 -194.5t182.5 -73.5q124 0 209.5 84.5t85.5 206.5v516h-156v135h319v-930h156v-135h-319v172q-44 -92 -135.5 -145.5t-206.5 -53.5q-174 0 -270.5 109t-96.5 287v561h-156z" />
<glyph unicode="v" horiz-adv-x="1185" d="M0 930v135h479v-135h-162l283 -764l285 764h-162v135h463v-135h-139l-361 -938h-184l-361 938h-141z" />
<glyph unicode="w" horiz-adv-x="1832" d="M0 930v135h502v-135h-183l230 -740l280 875h187l284 -875l230 740h-180v135h483v-135h-143l-308 -930h-174l-293 854l-290 -854h-170l-308 930h-147z" />
<glyph unicode="x" horiz-adv-x="1163" d="M41 0v135h133l307 410l-288 385h-144v135h438v-131h-108l217 -291l215 291h-117v131h420v-135h-141l-295 -395l299 -400h145v-135h-454v131h123l-228 305l-227 -305h127v-131h-422z" />
<glyph unicode="y" horiz-adv-x="1189" d="M0 930v135h481v-135h-164l287 -766l283 766h-164v135h467v-135h-141l-390 -1008q-57 -148 -160.5 -230.5t-228.5 -82.5q-77 0 -118 8v154q57 -11 112 -11q81 0 147.5 54t104.5 151l4 10l-379 955h-141z" />
<glyph unicode="z" horiz-adv-x="1095" d="M123 0v115l612 811h-430v-164h-151v303h796v-115l-610 -811h473v185h152v-324h-842z" />
<glyph unicode="{" horiz-adv-x="665" d="M123 565v140q149 0 149 215v313q0 330 332 330v-142q-170 0 -170 -180v-338q0 -108 -43.5 -177.5t-114.5 -90.5q71 -21 114.5 -90.5t43.5 -177.5v-338q0 -181 170 -181v-141q-332 0 -332 330v313q0 215 -149 215z" />
<glyph unicode="|" horiz-adv-x="647" d="M246 -422v2026h155v-2026h-155z" />
<glyph unicode="}" horiz-adv-x="665" d="M61 -152q170 0 170 181v338q0 108 43.5 177.5t114.5 90.5q-71 21 -114.5 90.5t-43.5 177.5v338q0 180 -170 180v142q332 0 332 -330v-313q0 -215 150 -215v-140q-150 0 -150 -215v-313q0 -330 -332 -330v141z" />
<glyph unicode="~" horiz-adv-x="1118" d="M102 485q5 122 77 204.5t194 82.5q52 0 109 -23.5t97.5 -52t89 -52t87.5 -23.5q58 0 91.5 42.5t35.5 100.5h133q-5 -122 -75.5 -204.5t-192.5 -82.5q-43 0 -88 15.5t-82.5 38t-73 45t-73 38t-69.5 15.5q-58 0 -92 -42.5t-37 -101.5h-131z" />
<glyph unicode="&#xa1;" horiz-adv-x="598" d="M184 1010q0 47 34 80.5t81 33.5t81 -33.5t34 -80.5q0 -46 -34 -79.5t-81 -33.5t-81 33.5t-34 79.5zM207 -383l20 1100h144l20 -1100h-184z" />
<glyph unicode="&#xa2;" horiz-adv-x="1142" d="M123 715q0 215 110.5 363.5t294.5 176.5v179h140v-179q129 -21 213 -125v97h151v-350h-123q-64 235 -291 235q-149 0 -235 -110t-86 -287q0 -186 88 -306t242 -120q93 0 171 42t126 115l108 -88q-54 -94 -148.5 -151t-211.5 -68v-172h-140v176q-195 32 -302 186t-107 386 z" />
<glyph unicode="&#xa3;" horiz-adv-x="1148" d="M111 676v135h168q-4 18 -17 68.5t-18.5 74.5t-11 62.5t-5.5 70.5q0 164 99.5 268.5t265.5 104.5q81 0 153.5 -40t126.5 -111v125h146v-381h-127q-24 119 -103.5 187.5t-185.5 68.5q-96 0 -153.5 -61.5t-57.5 -155.5q0 -25 2.5 -51t9 -58.5t11 -53t14.5 -61.5t14 -57h303 v-135h-276q4 -50 4 -74q0 -126 -36 -247.5t-99 -219.5h545v238h151v-373h-893v123q78 94 125 217.5t47 245.5q0 46 -6 90h-196z" />
<glyph unicode="&#xa5;" horiz-adv-x="1265" d="M29 1298v136h485v-136h-156l283 -540l281 540h-144v136h459v-136h-156l-299 -553h291v-118h-362v-140h362v-118h-362v-234h198v-135h-553v135h199v234h-362v118h362v140h-362v118h290l-299 553h-155z" />
<glyph unicode="&#xa7;" horiz-adv-x="1085" d="M123 598q0 102 51.5 183.5t134.5 131.5q-121 106 -121 261q0 136 90 231.5t226 95.5q81 0 149 -36.5t107 -96.5v109h143v-349h-129q-20 109 -86 170.5t-158 61.5q-87 0 -137.5 -48t-50.5 -126q0 -45 21 -84.5t57 -69t83 -56.5t98.5 -53t102.5 -53t98 -60t83 -71.5 t57 -91.5t21 -115q0 -206 -181 -323q123 -108 123 -254q0 -150 -90.5 -249t-232.5 -99q-90 0 -160.5 40t-106.5 105v-119h-143v369h129q21 -112 88.5 -182t161.5 -70q87 0 144 49.5t57 134.5q0 50 -27 94t-71.5 75t-101 63.5t-115 60.5t-115 65.5t-101 78t-71.5 99.5 t-27 128zM279 625q0 -48 22 -88.5t67.5 -75t86.5 -58.5t110 -59.5t107 -58.5q62 35 97.5 91t35.5 126q0 41 -17.5 77t-42.5 62t-67.5 54t-78.5 46.5t-90.5 46.5t-88.5 48q-65 -34 -103 -91t-38 -120z" />
<glyph unicode="&#xa8;" horiz-adv-x="860" d="M143 1356q0 43 30.5 73.5t74.5 30.5q45 0 74.5 -30.5t29.5 -73.5q0 -45 -29.5 -75t-74.5 -30q-44 0 -74.5 30.5t-30.5 74.5zM508 1356q0 43 29.5 73.5t74.5 30.5q44 0 74.5 -30.5t30.5 -73.5q0 -44 -30.5 -74.5t-74.5 -30.5q-45 0 -74.5 30t-29.5 75z" />
<glyph unicode="&#xa9;" horiz-adv-x="1716" d="M123 723q0 153 55 289.5t151 236.5t233.5 158.5t295.5 58.5t295.5 -58.5t233.5 -158.5t151 -236.5t55 -289.5q0 -157 -55 -296t-151 -240.5t-233.5 -160.5t-295.5 -59t-295.5 59t-233.5 160.5t-151 240.5t-55 296zM256 723q0 -178 76 -323t214 -229.5t312 -84.5t312 84.5 t214 229.5t76 323q0 174 -76 316.5t-214.5 225.5t-311.5 83t-311.5 -83t-214.5 -225.5t-76 -316.5zM481 725q0 160 104 271.5t255 111.5q132 0 207 -100v82h106v-246h-86q-20 69 -79 109t-132 40q-104 0 -173 -75.5t-69 -192.5q0 -120 70.5 -198t179.5 -78q66 0 123 32 t92 84l92 -71q-43 -78 -127 -124t-182 -46q-167 0 -274 113.5t-107 287.5z" />
<glyph unicode="&#xaa;" horiz-adv-x="942" d="M94 895q0 112 90 183t222 71q125 0 215 -66v82q1 77 -53 124.5t-138 47.5q-61 0 -127 -21t-117 -52l-49 100q157 94 309 94q138 0 221 -78.5t83 -197.5v-426h110v-101h-225l-12 76q-36 -45 -99.5 -70.5t-136.5 -25.5q-132 0 -212.5 71.5t-80.5 188.5zM244 897 q0 -61 49 -102t133 -41q77 0 137 42.5t60 100.5q0 65 -55 104t-142 39q-84 0 -133 -39.5t-49 -103.5z" />
<glyph unicode="&#xab;" horiz-adv-x="870" d="M86 590l254 377h158l-254 -377l254 -375h-158zM414 590l254 377h157l-254 -377l254 -375h-157z" />
<glyph unicode="&#xad;" horiz-adv-x="727" d="M102 541v151h523v-151h-523z" />
<glyph unicode="&#xae;" horiz-adv-x="1032" d="M94 1104q0 175 116.5 295.5t305.5 120.5t305.5 -120.5t116.5 -295.5t-116.5 -296.5t-305.5 -121.5t-305.5 121.5t-116.5 296.5zM188 1104q0 -143 89 -237.5t239 -94.5q151 0 239.5 94t88.5 238t-88 238t-240 94q-148 0 -238 -94.5t-90 -237.5zM352 1268v61h178 q59 0 99.5 -34t40.5 -87q0 -41 -24 -71.5t-64 -44.5l73 -127h54v-62h-111l-98 180h-31v-118h35v-62h-150v62h39v303h-41zM469 1141h37q31 0 54.5 17t23.5 46t-20 46.5t-48 17.5h-47v-127z" />
<glyph unicode="&#xaf;" horiz-adv-x="909" d="M143 1257v132h623v-132h-623z" />
<glyph unicode="&#xb0;" horiz-adv-x="749" d="M86 1163q0 124 82 210.5t207 86.5q126 0 207.5 -85.5t81.5 -209.5q0 -126 -81 -211.5t-208 -85.5q-128 0 -208.5 85t-80.5 210zM213 1163q0 -75 44.5 -124.5t117.5 -49.5q74 0 118 49.5t44 126.5q0 75 -44.5 124.5t-117.5 49.5q-72 0 -117 -50.5t-45 -125.5z" />
<glyph unicode="&#xb2;" d="M98 1264q28 84 93 137t161 53q106 0 174 -63.5t68 -157.5q0 -63 -34 -120t-83.5 -100t-99.5 -84.5t-89 -92t-46 -103.5h254v117h110v-223h-495v45q0 62 19.5 118t50.5 97.5t69 79t76 69t69 61.5t50.5 64t19.5 68q0 51 -32.5 81.5t-86.5 30.5q-53 0 -91.5 -35t-55.5 -83z " />
<glyph unicode="&#xb3;" d="M78 795l104 45q16 -47 61.5 -82t104.5 -35q63 0 108.5 39.5t45.5 105.5q0 64 -47 102t-119 38h-66l-22 77l225 246h-254v-96h-106v199h487v-99l-213 -233h6q98 0 168 -63.5t70 -168.5q0 -116 -82 -188t-201 -72q-99 0 -169.5 52.5t-100.5 132.5z" />
<glyph unicode="&#xb4;" horiz-adv-x="573" d="M123 1210l147 291h181l-181 -291h-147z" />
<glyph unicode="&#xb6;" horiz-adv-x="1230" d="M123 1055q0 158 110.5 268.5t268.5 110.5h626v-136h-186v-1390h-139v1390h-156v-1390h-139v766q-162 1 -273.5 111.5t-111.5 269.5z" />
<glyph unicode="&#xb7;" horiz-adv-x="540" d="M145 641q0 51 38 88t89 37t87 -37t36 -88t-36 -88t-87 -37t-89 37t-38 88z" />
<glyph unicode="&#xb8;" horiz-adv-x="634" d="M143 -434l27 102q28 -12 66 -12q48 0 80 20t32 64q0 40 -30.5 62t-81.5 22q-23 0 -39 -4l43 200h90l-21 -108h8q67 0 110.5 -50.5t43.5 -121.5q0 -93 -65 -143t-164 -50q-52 0 -99 19z" />
<glyph unicode="&#xb9;" horiz-adv-x="622" d="M74 1290l205 144h114v-703h123v-104h-379v104h135v572l-137 -97z" />
<glyph unicode="&#xba;" horiz-adv-x="976" d="M94 1049q0 174 111 287.5t282 113.5q170 0 283 -114t113 -287q0 -183 -111.5 -300.5t-284.5 -117.5t-283 117.5t-110 300.5zM242 1047q0 -129 68 -208t177 -79q111 0 179.5 79t68.5 208q0 122 -69 198t-179 76q-109 0 -177 -76t-68 -198z" />
<glyph unicode="&#xbb;" horiz-adv-x="870" d="M45 215l254 377l-254 375h158l254 -375l-254 -377h-158zM373 215l254 377l-254 375h157l254 -375l-254 -377h-157z" />
<glyph unicode="&#xbc;" horiz-adv-x="1622" d="M74 1290l205 144h114v-703h123v-104h-379v104h135v572l-137 -97zM303 -84l797 1602h149l-796 -1602h-150zM885 217v84l387 510h110v-494h117v-100h-117v-117h117v-100h-373v100h142v117h-383zM1016 317h252v332z" />
<glyph unicode="&#xbd;" horiz-adv-x="1622" d="M74 1290l205 144h114v-703h123v-104h-379v104h135v572l-137 -97zM303 -84l797 1602h149l-796 -1602h-150zM991 637q28 84 93 137t161 53q106 0 174 -63.5t68 -157.5q0 -63 -34 -120t-83.5 -100t-99.5 -84.5t-89 -92t-46 -103.5h254v117h110v-223h-495v45q0 62 19.5 118 t50.5 97.5t69 79t76 69t69 61.5t50.5 64t19.5 68q0 51 -32.5 82t-86.5 31q-53 0 -91.5 -35.5t-55.5 -83.5z" />
<glyph unicode="&#xbe;" horiz-adv-x="1724" d="M98 795l105 45q16 -47 61.5 -82t104.5 -35q63 0 108 39.5t45 105.5q0 64 -47 102t-119 38h-65l-23 77l226 246h-254v-96h-107v199h488v-99l-213 -233h6q98 0 167.5 -63.5t69.5 -168.5q0 -116 -81.5 -188t-200.5 -72q-99 0 -170 52.5t-101 132.5zM395 -84l797 1602h149 l-796 -1602h-150zM987 217v84l387 510h111v-494h117v-100h-117v-117h117v-100h-373v100h141v117h-383zM1118 317h252v332z" />
<glyph unicode="&#xbf;" horiz-adv-x="921" d="M94 -4q0 68 20 127.5t52.5 103.5t72 84t78.5 75.5t71.5 70.5t52.5 77.5t20 88.5v110h160v-117q0 -56 -19.5 -107t-51 -90.5t-70 -76.5t-76.5 -74t-69.5 -75.5t-51 -87.5t-19.5 -103q0 -106 66 -173t180 -67q171 0 250 172l129 -59q-16 -45 -44.5 -87.5t-74 -83.5 t-114 -66t-150.5 -25q-188 0 -300 107.5t-112 275.5zM422 1026q0 47 34 81t81 34t80.5 -34t33.5 -81t-33.5 -81t-80.5 -34t-81 34t-34 81z" />
<glyph unicode="&#xc0;" horiz-adv-x="1462" d="M20 0v135h138l481 1303h188l476 -1303h139v-135h-504v135h182l-125 350h-540l-125 -350h182v-135h-492zM504 616h442l-221 644zM510 1849h180l148 -290h-148z" />
<glyph unicode="&#xc1;" horiz-adv-x="1462" d="M20 0v135h138l481 1303h188l476 -1303h139v-135h-504v135h182l-125 350h-540l-125 -350h182v-135h-492zM504 616h442l-221 644zM606 1559l148 290h180l-180 -290h-148z" />
<glyph unicode="&#xc2;" horiz-adv-x="1462" d="M20 0v135h138l481 1303h188l476 -1303h139v-135h-504v135h182l-125 350h-540l-125 -350h182v-135h-492zM457 1559l196 266h168l197 -266h-156l-129 170l-129 -170h-147zM504 616h442l-221 644z" />
<glyph unicode="&#xc3;" horiz-adv-x="1462" d="M20 0v135h138l481 1303h188l476 -1303h139v-135h-504v135h182l-125 350h-540l-125 -350h182v-135h-492zM408 1585q3 94 56 155.5t136 61.5q48 0 102 -24t100.5 -48t78.5 -24q30 0 49 24t22 62h113q-3 -95 -54 -156t-134 -61q-49 0 -102.5 24t-101 48t-81.5 24 q-30 0 -49.5 -24t-22.5 -62h-112zM504 616h442l-221 644z" />
<glyph unicode="&#xc4;" horiz-adv-x="1462" d="M20 0v135h138l481 1303h188l476 -1303h139v-135h-504v135h182l-125 350h-540l-125 -350h182v-135h-492zM451 1704q0 43 30 73.5t74 30.5q45 0 74.5 -30.5t29.5 -73.5q0 -45 -29.5 -75t-74.5 -30q-44 0 -74 30.5t-30 74.5zM504 616h442l-221 644zM815 1704q0 43 30 73.5 t75 30.5q44 0 74 -30.5t30 -73.5q0 -44 -30 -74.5t-74 -30.5q-45 0 -75 30t-30 75z" />
<glyph unicode="&#xc5;" horiz-adv-x="1462" d="M20 0v135h138l481 1303h188l476 -1303h139v-135h-504v135h182l-125 350h-540l-125 -350h182v-135h-492zM504 616h442l-221 644zM557 1706q0 77 52 128.5t128 51.5t128.5 -51.5t52.5 -128.5q0 -78 -53 -131t-128 -53t-127.5 53t-52.5 131zM653 1704q0 -42 23 -68t61 -26 t61 26t23 68t-23 68t-61 26t-61 -26t-23 -68z" />
<glyph unicode="&#xc6;" horiz-adv-x="1882" d="M0 0v135h141l736 1299h864v-355h-156v219h-432v-499h440v-140h-440v-524h442v225h156v-360h-954l-2 135h186v524h-377l-295 -524h178v-135h-487zM672 782h309v549z" />
<glyph unicode="&#xc7;" horiz-adv-x="1447" d="M123 727q0 204 87 373t241.5 267.5t343.5 98.5q121 0 223 -50t174 -140v158h147v-428h-127q-36 140 -145 222.5t-246 82.5q-224 0 -369 -162.5t-145 -411.5q0 -169 61.5 -307.5t181.5 -222.5t277 -84q131 0 237.5 65t170.5 179l131 -76q-75 -146 -218.5 -235t-316.5 -89 h-24l-10 -55h8q67 0 110 -50.5t43 -121.5q0 -93 -65 -143t-164 -50q-51 0 -98 19l26 102q28 -12 66 -12q48 0 80.5 20t32.5 64q0 40 -31 62t-82 22q-23 0 -39 -4l33 155q-182 25 -317.5 129t-206 265t-70.5 358z" />
<glyph unicode="&#xc8;" horiz-adv-x="1179" d="M102 0v135h177v1163h-177v136h942v-342h-155v206h-438v-479h436v-143h-436v-541h442v236h156v-371h-947zM389 1849h180l148 -290h-148z" />
<glyph unicode="&#xc9;" horiz-adv-x="1179" d="M102 0v135h177v1163h-177v136h942v-342h-155v206h-438v-479h436v-143h-436v-541h442v236h156v-371h-947zM485 1559l148 290h180l-180 -290h-148z" />
<glyph unicode="&#xca;" horiz-adv-x="1179" d="M102 0v135h177v1163h-177v136h942v-342h-155v206h-438v-479h436v-143h-436v-541h442v236h156v-371h-947zM336 1559l196 266h168l197 -266h-156l-129 170l-129 -170h-147z" />
<glyph unicode="&#xcb;" horiz-adv-x="1179" d="M102 0v135h177v1163h-177v136h942v-342h-155v206h-438v-479h436v-143h-436v-541h442v236h156v-371h-947zM330 1704q0 43 30 73.5t74 30.5q45 0 75 -30.5t30 -73.5q0 -45 -30 -75t-75 -30q-44 0 -74 30.5t-30 74.5zM694 1704q0 43 30 73.5t75 30.5q44 0 74 -30.5t30 -73.5 q0 -44 -30 -74.5t-74 -30.5q-45 0 -75 30t-30 75z" />
<glyph unicode="&#xcc;" d="M102 0v135h177v1163h-177v136h525v-136h-176v-1163h176v-135h-525zM137 1849h180l148 -290h-148z" />
<glyph unicode="&#xcd;" d="M102 0v135h177v1163h-177v136h525v-136h-176v-1163h176v-135h-525zM233 1559l148 290h180l-180 -290h-148z" />
<glyph unicode="&#xce;" d="M84 1559l197 266h168l196 -266h-156l-129 170l-129 -170h-147zM102 0v135h177v1163h-177v136h525v-136h-176v-1163h176v-135h-525z" />
<glyph unicode="&#xcf;" d="M78 1704q0 43 30 73.5t74 30.5q45 0 75 -30.5t30 -73.5q0 -45 -30 -75t-75 -30q-44 0 -74 30.5t-30 74.5zM102 0v135h177v1163h-177v136h525v-136h-176v-1163h176v-135h-525zM442 1704q0 43 30 73.5t75 30.5q44 0 74 -30.5t30 -73.5q0 -44 -30 -74.5t-74 -30.5 q-45 0 -75 30t-30 75z" />
<glyph unicode="&#xd0;" horiz-adv-x="1505" d="M102 680v135h197v483h-176v136h547q326 0 519 -192t193 -521q0 -332 -186 -526.5t-514 -194.5h-559v135h176v545h-197zM471 135h182q263 0 404 151.5t141 440.5q0 272 -149.5 421.5t-409.5 149.5h-168v-483h334v-135h-334v-545z" />
<glyph unicode="&#xd1;" horiz-adv-x="1683" d="M102 0v135h177v1163h-177v136h355l792 -1174v1038h-176v136h508v-136h-176v-1298h-182l-789 1178v-1043h176v-135h-508zM502 1585q3 94 56 155.5t136 61.5q48 0 102 -24t100.5 -48t78.5 -24q30 0 49.5 24t22.5 62h112q-3 -95 -54 -156t-134 -61q-49 0 -102.5 24t-101 48 t-81.5 24q-30 0 -49.5 -24t-22.5 -62h-112z" />
<glyph unicode="&#xd2;" horiz-adv-x="1650" d="M123 729q0 206 86.5 373t248 265.5t367.5 98.5t368 -98.5t248.5 -266t86.5 -372.5q0 -212 -85 -384.5t-246.5 -275t-371.5 -102.5t-371.5 102.5t-246 275t-84.5 384.5zM307 729q0 -265 142 -435.5t376 -170.5t376 170.5t142 435.5q0 258 -141.5 420t-376.5 162 t-376.5 -162t-141.5 -420zM598 1849h180l148 -290h-148z" />
<glyph unicode="&#xd3;" horiz-adv-x="1650" d="M123 729q0 206 86.5 373t248 265.5t367.5 98.5t368 -98.5t248.5 -266t86.5 -372.5q0 -212 -85 -384.5t-246.5 -275t-371.5 -102.5t-371.5 102.5t-246 275t-84.5 384.5zM307 729q0 -265 142 -435.5t376 -170.5t376 170.5t142 435.5q0 258 -141.5 420t-376.5 162 t-376.5 -162t-141.5 -420zM694 1559l148 290h180l-180 -290h-148z" />
<glyph unicode="&#xd4;" horiz-adv-x="1650" d="M123 729q0 206 86.5 373t248 265.5t367.5 98.5t368 -98.5t248.5 -266t86.5 -372.5q0 -212 -85 -384.5t-246.5 -275t-371.5 -102.5t-371.5 102.5t-246 275t-84.5 384.5zM307 729q0 -265 142 -435.5t376 -170.5t376 170.5t142 435.5q0 258 -141.5 420t-376.5 162 t-376.5 -162t-141.5 -420zM545 1559l196 266h168l197 -266h-156l-129 170l-129 -170h-147z" />
<glyph unicode="&#xd5;" horiz-adv-x="1650" d="M123 729q0 206 86.5 373t248 265.5t367.5 98.5t368 -98.5t248.5 -266t86.5 -372.5q0 -212 -85 -384.5t-246.5 -275t-371.5 -102.5t-371.5 102.5t-246 275t-84.5 384.5zM307 729q0 -265 142 -435.5t376 -170.5t376 170.5t142 435.5q0 258 -141.5 420t-376.5 162 t-376.5 -162t-141.5 -420zM496 1585q3 94 56 155.5t136 61.5q48 0 102 -24t100.5 -48t78.5 -24q30 0 49 24t22 62h113q-3 -95 -54 -156t-134 -61q-49 0 -102.5 24t-101 48t-81.5 24q-30 0 -49.5 -24t-22.5 -62h-112z" />
<glyph unicode="&#xd6;" horiz-adv-x="1650" d="M123 729q0 206 86.5 373t248 265.5t367.5 98.5t368 -98.5t248.5 -266t86.5 -372.5q0 -212 -85 -384.5t-246.5 -275t-371.5 -102.5t-371.5 102.5t-246 275t-84.5 384.5zM307 729q0 -265 142 -435.5t376 -170.5t376 170.5t142 435.5q0 258 -141.5 420t-376.5 162 t-376.5 -162t-141.5 -420zM539 1704q0 43 30 73.5t74 30.5q45 0 75 -30.5t30 -73.5q0 -45 -30 -75t-75 -30q-44 0 -74 30.5t-30 74.5zM903 1704q0 43 30 73.5t75 30.5q44 0 74 -30.5t30 -73.5q0 -44 -30 -74.5t-74 -30.5q-45 0 -75 30t-30 75z" />
<glyph unicode="&#xd7;" horiz-adv-x="1196" d="M143 258l355 381l-355 379l107 100l348 -373l348 373l107 -100l-355 -379l355 -381l-107 -100l-348 372l-348 -372z" />
<glyph unicode="&#xd8;" horiz-adv-x="1650" d="M123 729q0 206 86.5 373t248 265.5t367.5 98.5q227 0 402 -120l104 127l107 -91l-105 -127q93 -101 144 -236.5t51 -289.5q0 -212 -85 -384.5t-246.5 -275t-371.5 -102.5q-251 0 -434 146l-123 -150l-106 90l131 160q-170 211 -170 516zM307 729q0 -223 101 -379l716 871 q-129 90 -299 90q-235 0 -376.5 -162t-141.5 -420zM498 242q135 -119 327 -119q234 0 376 170.5t142 435.5q0 239 -120 393z" />
<glyph unicode="&#xd9;" horiz-adv-x="1544" d="M74 1298v136h528v-136h-184v-790q0 -177 95 -280t259 -103t259 103t95 280v790h-184v136h528v-136h-172v-782q0 -252 -139 -399.5t-387 -147.5t-387 147.5t-139 399.5v782h-172zM551 1849h180l148 -290h-148z" />
<glyph unicode="&#xda;" horiz-adv-x="1544" d="M74 1298v136h528v-136h-184v-790q0 -177 95 -280t259 -103t259 103t95 280v790h-184v136h528v-136h-172v-782q0 -252 -139 -399.5t-387 -147.5t-387 147.5t-139 399.5v782h-172zM647 1559l148 290h180l-180 -290h-148z" />
<glyph unicode="&#xdb;" horiz-adv-x="1544" d="M74 1298v136h528v-136h-184v-790q0 -177 95 -280t259 -103t259 103t95 280v790h-184v136h528v-136h-172v-782q0 -252 -139 -399.5t-387 -147.5t-387 147.5t-139 399.5v782h-172zM498 1559l196 266h168l197 -266h-156l-129 170l-129 -170h-147z" />
<glyph unicode="&#xdc;" horiz-adv-x="1544" d="M74 1298v136h528v-136h-184v-790q0 -177 95 -280t259 -103t259 103t95 280v790h-184v136h528v-136h-172v-782q0 -252 -139 -399.5t-387 -147.5t-387 147.5t-139 399.5v782h-172zM492 1704q0 43 30 73.5t74 30.5q45 0 74.5 -30.5t29.5 -73.5q0 -45 -29.5 -75t-74.5 -30 q-44 0 -74 30.5t-30 74.5zM856 1704q0 43 30 73.5t75 30.5q44 0 74 -30.5t30 -73.5q0 -44 -30 -74.5t-74 -30.5q-45 0 -75 30t-30 75z" />
<glyph unicode="&#xdd;" horiz-adv-x="1335" d="M20 1298v136h506v-131h-159l317 -529l309 529h-157v131h479v-136h-158l-397 -682v-481h190v-135h-553v135h191v477l-410 686h-158zM569 1559l148 290h180l-180 -290h-148z" />
<glyph unicode="&#xde;" horiz-adv-x="1198" d="M102 0v135h183v1163h-183v136h562v-136h-207v-180h227q196 0 318 -97t122 -282q0 -128 -60 -219t-157 -133.5t-221 -42.5h-229v-209h215v-135h-570zM457 483h213q119 0 197.5 69.5t78.5 186.5q0 115 -77.5 177.5t-200.5 62.5h-211v-496z" />
<glyph unicode="&#xdf;" horiz-adv-x="1261" d="M68 0v135h155v977q0 172 107.5 274.5t277.5 102.5q165 0 269 -89t104 -216q0 -96 -57 -173.5t-140 -113.5q160 -36 263.5 -150.5t103.5 -271.5q0 -203 -140.5 -339t-346.5 -136h-46v137q161 0 259 90.5t98 237.5q0 145 -111.5 241.5t-281.5 110.5v129q98 0 164.5 59.5 t66.5 155.5q0 82 -59.5 133.5t-151.5 51.5q-100 0 -155.5 -66t-55.5 -174v-971h105v-135h-428z" />
<glyph unicode="&#xe0;" horiz-adv-x="1239" d="M115 326q0 155 120.5 250.5t305.5 95.5q183 0 301 -97v127q0 112 -75.5 179t-195.5 67q-87 0 -173.5 -30.5t-155.5 -77.5l-70 118q210 134 430 134q186 0 295 -105t109 -266v-586h155v-135h-295l-18 115q-50 -67 -137.5 -102.5t-194.5 -35.5q-180 0 -290.5 96.5 t-110.5 252.5zM289 330q0 -94 76.5 -155.5t199.5 -61.5t203 62t80 157q0 93 -81 152t-202 59t-198.5 -60t-77.5 -153zM387 1501h180l148 -291h-148z" />
<glyph unicode="&#xe1;" horiz-adv-x="1239" d="M115 326q0 155 120.5 250.5t305.5 95.5q183 0 301 -97v127q0 112 -75.5 179t-195.5 67q-87 0 -173.5 -30.5t-155.5 -77.5l-70 118q210 134 430 134q186 0 295 -105t109 -266v-586h155v-135h-295l-18 115q-50 -67 -137.5 -102.5t-194.5 -35.5q-180 0 -290.5 96.5 t-110.5 252.5zM289 330q0 -94 76.5 -155.5t199.5 -61.5t203 62t80 157q0 93 -81 152t-202 59t-198.5 -60t-77.5 -153zM483 1210l148 291h180l-180 -291h-148z" />
<glyph unicode="&#xe2;" horiz-adv-x="1239" d="M115 326q0 155 120.5 250.5t305.5 95.5q183 0 301 -97v127q0 112 -75.5 179t-195.5 67q-87 0 -173.5 -30.5t-155.5 -77.5l-70 118q210 134 430 134q186 0 295 -105t109 -266v-586h155v-135h-295l-18 115q-50 -67 -137.5 -102.5t-194.5 -35.5q-180 0 -290.5 96.5 t-110.5 252.5zM289 330q0 -94 76.5 -155.5t199.5 -61.5t203 62t80 157q0 93 -81 152t-202 59t-198.5 -60t-77.5 -153zM334 1210l196 267h168l197 -267h-156l-129 170l-129 -170h-147z" />
<glyph unicode="&#xe3;" horiz-adv-x="1239" d="M115 326q0 155 120.5 250.5t305.5 95.5q183 0 301 -97v127q0 112 -75.5 179t-195.5 67q-87 0 -173.5 -30.5t-155.5 -77.5l-70 118q210 134 430 134q186 0 295 -105t109 -266v-586h155v-135h-295l-18 115q-50 -67 -137.5 -102.5t-194.5 -35.5q-180 0 -290.5 96.5 t-110.5 252.5zM285 1237q3 94 56 155.5t136 61.5q48 0 102 -24t100.5 -48t78.5 -24q30 0 49 24t22 62h113q-3 -95 -54 -156t-134 -61q-49 0 -102.5 24t-101 48t-81.5 24q-30 0 -49.5 -24t-22.5 -62h-112zM289 330q0 -94 76.5 -155.5t199.5 -61.5t203 62t80 157q0 93 -81 152 t-202 59t-198.5 -60t-77.5 -153z" />
<glyph unicode="&#xe4;" horiz-adv-x="1239" d="M115 326q0 155 120.5 250.5t305.5 95.5q183 0 301 -97v127q0 112 -75.5 179t-195.5 67q-87 0 -173.5 -30.5t-155.5 -77.5l-70 118q210 134 430 134q186 0 295 -105t109 -266v-586h155v-135h-295l-18 115q-50 -67 -137.5 -102.5t-194.5 -35.5q-180 0 -290.5 96.5 t-110.5 252.5zM289 330q0 -94 76.5 -155.5t199.5 -61.5t203 62t80 157q0 93 -81 152t-202 59t-198.5 -60t-77.5 -153zM328 1356q0 43 30 73.5t74 30.5q45 0 75 -30.5t30 -73.5q0 -45 -30 -75t-75 -30q-44 0 -74 30.5t-30 74.5zM692 1356q0 43 30 73.5t75 30.5q44 0 74 -30.5 t30 -73.5q0 -44 -30 -74.5t-74 -30.5q-45 0 -75 30t-30 75z" />
<glyph unicode="&#xe5;" horiz-adv-x="1239" d="M115 326q0 155 120.5 250.5t305.5 95.5q183 0 301 -97v127q0 112 -75.5 179t-195.5 67q-87 0 -173.5 -30.5t-155.5 -77.5l-70 118q210 134 430 134q186 0 295 -105t109 -266v-586h155v-135h-295l-18 115q-50 -67 -137.5 -102.5t-194.5 -35.5q-180 0 -290.5 96.5 t-110.5 252.5zM289 330q0 -94 76.5 -155.5t199.5 -61.5t203 62t80 157q0 93 -81 152t-202 59t-198.5 -60t-77.5 -153zM434 1358q0 77 52 128.5t128 51.5t128.5 -51.5t52.5 -128.5q0 -78 -53 -131t-128 -53t-127.5 53t-52.5 131zM530 1356q0 -42 23 -68t61 -26t61 26t23 68 t-23 68t-61 26t-61 -26t-23 -68z" />
<glyph unicode="&#xe6;" horiz-adv-x="1927" d="M115 326q0 155 119.5 250.5t304.5 95.5q88 0 167.5 -25.5t135.5 -71.5v127q0 111 -75.5 178.5t-195.5 67.5q-87 0 -173.5 -30.5t-155.5 -77.5l-70 118q203 134 426 134q124 0 214 -60.5t136 -157.5q73 102 179 163t233 61q144 0 254 -73.5t166.5 -193.5t56.5 -266v-61 l-831 -4q11 -183 107.5 -286t260.5 -103q95 0 179 43.5t145 121.5l106 -77q-158 -232 -438 -232q-134 0 -242 56.5t-178 156.5q-59 -98 -164 -152.5t-243 -54.5q-190 0 -307 98t-117 255zM289 330q0 -94 77 -157.5t199 -63.5q120 0 202.5 65.5t82.5 159.5q0 92 -81.5 150.5 t-203.5 58.5q-121 0 -198.5 -60t-77.5 -153zM1010 625h655q0 143 -87 238t-226 95q-133 0 -227 -88t-115 -245z" />
<glyph unicode="&#xe7;" horiz-adv-x="1148" d="M90 549q0 150 66 276t181.5 199.5t254.5 73.5q179 0 297 -144v111h151v-350h-122q-28 109 -107.5 173t-185.5 64q-157 0 -257 -112t-100 -291q0 -183 102 -307.5t257 -124.5q96 0 183.5 45.5t145.5 122.5l111 -80q-66 -110 -183 -172t-257 -64l-11 -57h9q67 0 110 -50.5 t43 -121.5q0 -93 -65 -143t-164 -50q-51 0 -98 19l26 102q28 -12 66 -12q48 0 80 20t32 64q0 40 -30.5 62t-81.5 22q-23 0 -39 -4l33 155q-202 29 -324.5 187.5t-122.5 386.5z" />
<glyph unicode="&#xe8;" horiz-adv-x="1200" d="M90 547q0 151 67 276.5t190 200t278 74.5q147 0 259 -70.5t169 -187t57 -260.5v-66h-850q11 -182 112 -289.5t267 -107.5q98 0 186 44.5t146 119.5l106 -78q-72 -115 -187.5 -174.5t-258.5 -59.5q-243 0 -392 163t-149 415zM268 645h668q0 135 -88.5 224t-231.5 89 q-133 0 -228.5 -81.5t-119.5 -231.5zM395 1501h180l148 -291h-148z" />
<glyph unicode="&#xe9;" horiz-adv-x="1200" d="M90 547q0 151 67 276.5t190 200t278 74.5q147 0 259 -70.5t169 -187t57 -260.5v-66h-850q11 -182 112 -289.5t267 -107.5q98 0 186 44.5t146 119.5l106 -78q-72 -115 -187.5 -174.5t-258.5 -59.5q-243 0 -392 163t-149 415zM268 645h668q0 135 -88.5 224t-231.5 89 q-133 0 -228.5 -81.5t-119.5 -231.5zM492 1210l147 291h180l-180 -291h-147z" />
<glyph unicode="&#xea;" horiz-adv-x="1200" d="M90 547q0 151 67 276.5t190 200t278 74.5q147 0 259 -70.5t169 -187t57 -260.5v-66h-850q11 -182 112 -289.5t267 -107.5q98 0 186 44.5t146 119.5l106 -78q-72 -115 -187.5 -174.5t-258.5 -59.5q-243 0 -392 163t-149 415zM268 645h668q0 135 -88.5 224t-231.5 89 q-133 0 -228.5 -81.5t-119.5 -231.5zM342 1210l197 267h168l196 -267h-155l-130 170l-129 -170h-147z" />
<glyph unicode="&#xeb;" horiz-adv-x="1200" d="M90 547q0 151 67 276.5t190 200t278 74.5q147 0 259 -70.5t169 -187t57 -260.5v-66h-850q11 -182 112 -289.5t267 -107.5q98 0 186 44.5t146 119.5l106 -78q-72 -115 -187.5 -174.5t-258.5 -59.5q-243 0 -392 163t-149 415zM268 645h668q0 135 -88.5 224t-231.5 89 q-133 0 -228.5 -81.5t-119.5 -231.5zM336 1356q0 43 30 73.5t74 30.5q45 0 75 -30.5t30 -73.5q0 -45 -30 -75t-75 -30q-44 0 -74 30.5t-30 74.5zM700 1356q0 43 30 73.5t75 30.5q44 0 74 -30.5t30 -73.5q0 -44 -30 -74.5t-74 -30.5q-45 0 -75 30t-30 75z" />
<glyph unicode="&#xec;" horiz-adv-x="647" d="M88 1501h180l148 -291h-148zM90 0v135h156v795h-156v135h320v-930h155v-135h-475z" />
<glyph unicode="&#xed;" horiz-adv-x="647" d="M90 0v135h156v795h-156v135h320v-930h155v-135h-475zM184 1210l148 291h180l-180 -291h-148z" />
<glyph unicode="&#xee;" horiz-adv-x="647" d="M35 1210l196 267h168l197 -267h-156l-129 170l-129 -170h-147zM90 0v135h156v795h-156v135h320v-930h155v-135h-475z" />
<glyph unicode="&#xef;" horiz-adv-x="663" d="M66 1354q0 43 29 72.5t73 29.5t73 -29.5t29 -72.5q0 -44 -29 -73.5t-73 -29.5t-73 29.5t-29 73.5zM104 0v135h156v795h-156v135h320v-930h156v-135h-476zM393 1356q0 42 29 71t74 29q44 0 73 -29t29 -71q0 -46 -29 -75.5t-73 -29.5q-46 0 -74.5 29.5t-28.5 75.5z" />
<glyph unicode="&#xf0;" horiz-adv-x="1263" d="M102 506q0 220 142.5 364t363.5 144q84 0 167 -37.5t145 -99.5q-83 203 -279 346l-319 -146l-48 107l250 114q-95 56 -219 101l53 108q177 -59 314 -141l301 137l47 -106l-236 -109q361 -275 361 -753q0 -247 -142 -406.5t-376 -159.5t-379.5 150.5t-145.5 386.5z M274 504q0 -168 99.5 -279.5t249.5 -111.5q149 0 249.5 113t100.5 280q0 166 -97 267t-253 101q-148 0 -248.5 -105.5t-100.5 -264.5z" />
<glyph unicode="&#xf1;" horiz-adv-x="1380" d="M90 0v135h156v795h-156v135h318v-170q48 91 138.5 144t205.5 53q176 0 285.5 -108t109.5 -284v-565h156v-135h-467v135h147v547q0 116 -76 186t-198 70q-124 0 -211.5 -83.5t-87.5 -205.5v-514h147v-135h-467zM397 1237q3 94 56.5 155.5t136.5 61.5q48 0 101.5 -24 t100 -48t78.5 -24q30 0 49.5 24t22.5 62h113q-3 -94 -54.5 -155.5t-134.5 -61.5q-49 0 -102 24t-100.5 48t-81.5 24q-30 0 -49.5 -24t-22.5 -62h-113z" />
<glyph unicode="&#xf2;" horiz-adv-x="1294" d="M90 545q0 158 71 284t198.5 197.5t287.5 71.5q158 0 285 -71t199.5 -198t72.5 -284q0 -253 -156 -414.5t-401 -161.5t-401 161.5t-156 414.5zM266 545q0 -191 106 -309.5t275 -118.5t275 118.5t106 309.5q0 180 -106 292.5t-275 112.5t-275 -112.5t-106 -292.5zM420 1501 h180l148 -291h-148z" />
<glyph unicode="&#xf3;" horiz-adv-x="1294" d="M90 545q0 158 71 284t198.5 197.5t287.5 71.5q158 0 285 -71t199.5 -198t72.5 -284q0 -253 -156 -414.5t-401 -161.5t-401 161.5t-156 414.5zM266 545q0 -191 106 -309.5t275 -118.5t275 118.5t106 309.5q0 180 -106 292.5t-275 112.5t-275 -112.5t-106 -292.5zM516 1210 l148 291h180l-180 -291h-148z" />
<glyph unicode="&#xf4;" horiz-adv-x="1294" d="M90 545q0 158 71 284t198.5 197.5t287.5 71.5q158 0 285 -71t199.5 -198t72.5 -284q0 -253 -156 -414.5t-401 -161.5t-401 161.5t-156 414.5zM266 545q0 -191 106 -309.5t275 -118.5t275 118.5t106 309.5q0 180 -106 292.5t-275 112.5t-275 -112.5t-106 -292.5zM367 1210 l196 267h168l197 -267h-156l-129 170l-129 -170h-147z" />
<glyph unicode="&#xf5;" horiz-adv-x="1294" d="M90 545q0 158 71 284t198.5 197.5t287.5 71.5q158 0 285 -71t199.5 -198t72.5 -284q0 -253 -156 -414.5t-401 -161.5t-401 161.5t-156 414.5zM266 545q0 -191 106 -309.5t275 -118.5t275 118.5t106 309.5q0 180 -106 292.5t-275 112.5t-275 -112.5t-106 -292.5zM317 1237 q3 94 56.5 155.5t136.5 61.5q48 0 102 -24t100.5 -48t78.5 -24q30 0 49 24t22 62h113q-3 -94 -54.5 -155.5t-134.5 -61.5q-49 0 -102 24t-100.5 48t-81.5 24q-30 0 -49.5 -24t-22.5 -62h-113z" />
<glyph unicode="&#xf6;" horiz-adv-x="1294" d="M90 545q0 158 71 284t198.5 197.5t287.5 71.5q158 0 285 -71t199.5 -198t72.5 -284q0 -253 -156 -414.5t-401 -161.5t-401 161.5t-156 414.5zM266 545q0 -191 106 -309.5t275 -118.5t275 118.5t106 309.5q0 180 -106 292.5t-275 112.5t-275 -112.5t-106 -292.5zM360 1356 q0 43 30.5 73.5t74.5 30.5q45 0 74.5 -30.5t29.5 -73.5q0 -45 -29.5 -75t-74.5 -30q-44 0 -74.5 30.5t-30.5 74.5zM725 1356q0 43 29.5 73.5t74.5 30.5q44 0 74.5 -30.5t30.5 -73.5q0 -44 -30.5 -74.5t-74.5 -30.5q-45 0 -74.5 30t-29.5 75z" />
<glyph unicode="&#xf7;" horiz-adv-x="1208" d="M123 569v138h962v-138h-962zM489 281q0 47 34 81.5t81 34.5t81 -34.5t34 -81.5q0 -46 -34 -79.5t-81 -33.5t-81 33.5t-34 79.5zM489 993q0 47 34 82t81 35t81 -35t34 -82t-33.5 -79.5t-81.5 -32.5t-81.5 32.5t-33.5 79.5z" />
<glyph unicode="&#xf8;" horiz-adv-x="1294" d="M90 545q0 158 71 284t198.5 197.5t287.5 71.5q177 0 316 -90l77 94l95 -78l-78 -94q147 -157 147 -385q0 -253 -156 -414.5t-401 -161.5q-178 0 -311 88l-78 -94l-94 78l78 94q-152 161 -152 410zM266 545q0 -165 82 -281l516 623q-94 63 -217 63q-169 0 -275 -112.5 t-106 -292.5zM436 178q92 -61 211 -61q169 0 275 118.5t106 309.5q0 147 -78 258z" />
<glyph unicode="&#xf9;" horiz-adv-x="1323" d="M57 930v135h320v-674q0 -121 67.5 -194.5t182.5 -73.5q124 0 209.5 84.5t85.5 206.5v516h-156v135h319v-930h156v-135h-319v172q-44 -92 -135.5 -145.5t-206.5 -53.5q-174 0 -270.5 109t-96.5 287v561h-156zM393 1501h180l148 -291h-148z" />
<glyph unicode="&#xfa;" horiz-adv-x="1323" d="M57 930v135h320v-674q0 -121 67.5 -194.5t182.5 -73.5q124 0 209.5 84.5t85.5 206.5v516h-156v135h319v-930h156v-135h-319v172q-44 -92 -135.5 -145.5t-206.5 -53.5q-174 0 -270.5 109t-96.5 287v561h-156zM489 1210l148 291h180l-180 -291h-148z" />
<glyph unicode="&#xfb;" horiz-adv-x="1323" d="M57 930v135h320v-674q0 -121 67.5 -194.5t182.5 -73.5q124 0 209.5 84.5t85.5 206.5v516h-156v135h319v-930h156v-135h-319v172q-44 -92 -135.5 -145.5t-206.5 -53.5q-174 0 -270.5 109t-96.5 287v561h-156zM340 1210l197 267h168l196 -267h-156l-129 170l-129 -170h-147 z" />
<glyph unicode="&#xfc;" horiz-adv-x="1323" d="M57 930v135h320v-674q0 -121 67.5 -194.5t182.5 -73.5q124 0 209.5 84.5t85.5 206.5v516h-156v135h319v-930h156v-135h-319v172q-44 -92 -135.5 -145.5t-206.5 -53.5q-174 0 -270.5 109t-96.5 287v561h-156zM334 1356q0 43 30 73.5t74 30.5q45 0 75 -30.5t30 -73.5 q0 -45 -30 -75t-75 -30q-44 0 -74 30.5t-30 74.5zM698 1356q0 43 30 73.5t75 30.5q44 0 74 -30.5t30 -73.5q0 -44 -30 -74.5t-74 -30.5q-45 0 -75 30t-30 75z" />
<glyph unicode="&#xfd;" horiz-adv-x="1189" d="M0 930v135h481v-135h-164l287 -766l283 766h-164v135h467v-135h-141l-390 -1008q-57 -148 -160.5 -230.5t-228.5 -82.5q-77 0 -118 8v154q57 -11 112 -11q81 0 147.5 54t104.5 151l4 10l-379 955h-141zM487 1210l148 291h180l-180 -291h-148z" />
<glyph unicode="&#xfe;" horiz-adv-x="1384" d="M82 1346v135h321v-598q56 92 154.5 150.5t230.5 58.5q145 0 259 -72t176.5 -198t62.5 -283q0 -251 -146 -410.5t-374 -159.5q-119 0 -213 55t-150 148v-420h185v-135h-504v135h156v1594h-158zM393 532q0 -185 101 -301t260 -116q155 0 254.5 115t99.5 302 q0 183 -98 298.5t-256 115.5q-153 0 -257 -117.5t-104 -296.5z" />
<glyph unicode="&#xff;" horiz-adv-x="1189" d="M0 930v135h481v-135h-164l287 -766l283 766h-164v135h467v-135h-141l-390 -1008q-57 -148 -160.5 -230.5t-228.5 -82.5q-77 0 -118 8v154q57 -11 112 -11q81 0 147.5 54t104.5 151l4 10l-379 955h-141zM332 1356q0 43 30 73.5t74 30.5q45 0 75 -30.5t30 -73.5 q0 -45 -30 -75t-75 -30q-44 0 -74 30.5t-30 74.5zM696 1356q0 43 30 73.5t75 30.5q44 0 74 -30.5t30 -73.5q0 -44 -30 -74.5t-74 -30.5q-45 0 -75 30t-30 75z" />
<glyph unicode="&#x100;" horiz-adv-x="1462" d="M20 0v135h138l481 1303h188l476 -1303h139v-135h-504v135h182l-125 350h-540l-125 -350h182v-135h-492zM426 1606v131h623v-131h-623zM504 616h442l-221 644z" />
<glyph unicode="&#x101;" horiz-adv-x="1239" d="M115 326q0 155 120.5 250.5t305.5 95.5q183 0 301 -97v127q0 112 -75.5 179t-195.5 67q-87 0 -173.5 -30.5t-155.5 -77.5l-70 118q210 134 430 134q186 0 295 -105t109 -266v-586h155v-135h-295l-18 115q-50 -67 -137.5 -102.5t-194.5 -35.5q-180 0 -290.5 96.5 t-110.5 252.5zM289 330q0 -94 76.5 -155.5t199.5 -61.5t203 62t80 157q0 93 -81 152t-202 59t-198.5 -60t-77.5 -153zM303 1257v132h623v-132h-623z" />
<glyph unicode="&#x102;" horiz-adv-x="1462" d="M20 0v135h138l481 1303h188l476 -1303h139v-135h-504v135h182l-125 350h-540l-125 -350h182v-135h-492zM477 1804h129q0 -65 31.5 -105t99.5 -40q67 0 99 40t32 105h129q0 -112 -68 -185t-192 -73t-192 73t-68 185zM504 616h442l-221 644z" />
<glyph unicode="&#x103;" horiz-adv-x="1239" d="M115 326q0 155 120.5 250.5t305.5 95.5q183 0 301 -97v127q0 112 -75.5 179t-195.5 67q-87 0 -173.5 -30.5t-155.5 -77.5l-70 118q210 134 430 134q186 0 295 -105t109 -266v-586h155v-135h-295l-18 115q-50 -67 -137.5 -102.5t-194.5 -35.5q-180 0 -290.5 96.5 t-110.5 252.5zM289 330q0 -94 76.5 -155.5t199.5 -61.5t203 62t80 157q0 93 -81 152t-202 59t-198.5 -60t-77.5 -153zM354 1456h129q0 -65 31.5 -105t99.5 -40q67 0 99 40t32 105h129q0 -112 -68 -185t-192 -73t-192 73t-68 185z" />
<glyph unicode="&#x104;" horiz-adv-x="1462" d="M20 0v135h138l481 1303h188l476 -1303h139v-135h-84q-70 -20 -116 -70.5t-46 -107.5q0 -39 24.5 -65.5t63.5 -26.5q44 0 90 26l49 -104q-66 -51 -166 -51q-92 0 -152.5 53.5t-60.5 142.5q0 59 34.5 112t92.5 91h-233v135h182l-125 350h-540l-125 -350h182v-135h-492z M504 616h442l-221 644z" />
<glyph unicode="&#x105;" horiz-adv-x="1239" d="M115 326q0 155 120.5 250.5t305.5 95.5q183 0 301 -97v127q0 112 -75.5 179t-195.5 67q-87 0 -173.5 -30.5t-155.5 -77.5l-70 118q210 134 430 134q186 0 295 -105t109 -266v-586h155v-135h-119q-70 -20 -115.5 -70.5t-45.5 -107.5q0 -39 24.5 -65.5t63.5 -26.5 q44 0 90 26l49 -104q-66 -51 -166 -51q-92 0 -152.5 53.5t-60.5 142.5q0 61 36.5 116t98.5 93l-16 109q-50 -67 -137.5 -102.5t-194.5 -35.5q-180 0 -290.5 96.5t-110.5 252.5zM289 330q0 -94 76.5 -155.5t199.5 -61.5t203 62t80 157q0 93 -81 152t-202 59t-198.5 -60 t-77.5 -153z" />
<glyph unicode="&#x106;" horiz-adv-x="1447" d="M123 727q0 204 87 373t241.5 267.5t343.5 98.5q121 0 223 -50t174 -140v158h147v-428h-127q-36 140 -145 222.5t-246 82.5q-224 0 -369 -162.5t-145 -411.5q0 -169 61.5 -307.5t181.5 -222.5t277 -84q131 0 237.5 65t170.5 179l131 -76q-75 -146 -218.5 -235t-316.5 -89 q-162 0 -296 58t-223.5 159.5t-139 241t-49.5 301.5zM651 1559l148 290h180l-180 -290h-148z" />
<glyph unicode="&#x107;" horiz-adv-x="1148" d="M90 549q0 150 66 276t181.5 199.5t254.5 73.5q179 0 297 -144v111h151v-350h-122q-28 109 -107.5 173t-185.5 64q-157 0 -257 -112t-100 -291q0 -183 102 -307.5t257 -124.5q96 0 183.5 45.5t145.5 122.5l111 -80q-67 -111 -187 -173.5t-262 -62.5q-234 0 -381 164.5 t-147 415.5zM461 1210l147 291h180l-180 -291h-147z" />
<glyph unicode="&#x108;" horiz-adv-x="1447" d="M123 727q0 204 87 373t241.5 267.5t343.5 98.5q121 0 223 -50t174 -140v158h147v-428h-127q-36 140 -145 222.5t-246 82.5q-224 0 -369 -162.5t-145 -411.5q0 -169 61.5 -307.5t181.5 -222.5t277 -84q131 0 237.5 65t170.5 179l131 -76q-75 -146 -218.5 -235t-316.5 -89 q-162 0 -296 58t-223.5 159.5t-139 241t-49.5 301.5zM502 1559l196 266h168l197 -266h-156l-129 170l-129 -170h-147z" />
<glyph unicode="&#x109;" horiz-adv-x="1148" d="M90 549q0 150 66 276t181.5 199.5t254.5 73.5q179 0 297 -144v111h151v-350h-122q-28 109 -107.5 173t-185.5 64q-157 0 -257 -112t-100 -291q0 -183 102 -307.5t257 -124.5q96 0 183.5 45.5t145.5 122.5l111 -80q-67 -111 -187 -173.5t-262 -62.5q-234 0 -381 164.5 t-147 415.5zM311 1210l197 267h168l196 -267h-155l-129 170l-129 -170h-148z" />
<glyph unicode="&#x10a;" horiz-adv-x="1447" d="M123 727q0 204 87 373t241.5 267.5t343.5 98.5q121 0 223 -50t174 -140v158h147v-428h-127q-36 140 -145 222.5t-246 82.5q-224 0 -369 -162.5t-145 -411.5q0 -169 61.5 -307.5t181.5 -222.5t277 -84q131 0 237.5 65t170.5 179l131 -76q-75 -146 -218.5 -235t-316.5 -89 q-162 0 -296 58t-223.5 159.5t-139 241t-49.5 301.5zM668 1714q0 48 32.5 81.5t79.5 33.5q49 0 83 -33.5t34 -81.5q0 -49 -33.5 -82t-83.5 -33q-47 0 -79.5 33t-32.5 82z" />
<glyph unicode="&#x10b;" horiz-adv-x="1148" d="M90 549q0 150 66 276t181.5 199.5t254.5 73.5q179 0 297 -144v111h151v-350h-122q-28 109 -107.5 173t-185.5 64q-157 0 -257 -112t-100 -291q0 -183 102 -307.5t257 -124.5q96 0 183.5 45.5t145.5 122.5l111 -80q-67 -111 -187 -173.5t-262 -62.5q-234 0 -381 164.5 t-147 415.5zM477 1366q0 47 33 81t80 34q49 0 83 -33.5t34 -81.5q0 -49 -33.5 -82t-83.5 -33q-48 0 -80.5 33t-32.5 82z" />
<glyph unicode="&#x10c;" horiz-adv-x="1447" d="M123 727q0 204 87 373t241.5 267.5t343.5 98.5q121 0 223 -50t174 -140v158h147v-428h-127q-36 140 -145 222.5t-246 82.5q-224 0 -369 -162.5t-145 -411.5q0 -169 61.5 -307.5t181.5 -222.5t277 -84q131 0 237.5 65t170.5 179l131 -76q-75 -146 -218.5 -235t-316.5 -89 q-162 0 -296 58t-223.5 159.5t-139 241t-49.5 301.5zM518 1825h156l129 -170l129 170h147l-196 -266h-168z" />
<glyph unicode="&#x10d;" horiz-adv-x="1148" d="M90 549q0 150 66 276t181.5 199.5t254.5 73.5q179 0 297 -144v111h151v-350h-122q-28 109 -107.5 173t-185.5 64q-157 0 -257 -112t-100 -291q0 -183 102 -307.5t257 -124.5q96 0 183.5 45.5t145.5 122.5l111 -80q-67 -111 -187 -173.5t-262 -62.5q-234 0 -381 164.5 t-147 415.5zM328 1477h155l129 -170l129 170h148l-197 -267h-168z" />
<glyph unicode="&#x10e;" horiz-adv-x="1484" d="M102 0v135h177v1163h-177v136h547q327 0 520 -192t193 -521q0 -332 -186 -526.5t-514 -194.5h-560zM449 1825h155l129 -170l129 170h148l-197 -266h-168zM451 135h182q263 0 404 151.5t141 440.5q0 272 -150 421.5t-410 149.5h-167v-1163z" />
<glyph unicode="&#x10f;" horiz-adv-x="1425" d="M98 543q0 122 40.5 227t109.5 176.5t162.5 111.5t197.5 40q121 0 219 -59t150 -156v463h-156v135h320v-1346h155v-135h-319v174q-57 -94 -157.5 -149.5t-227.5 -55.5q-217 0 -355.5 158t-138.5 416zM276 545q0 -188 98 -309t253 -121q157 0 258.5 120.5t101.5 307.5 q0 173 -102 290t-252 117q-156 0 -256.5 -113.5t-100.5 -291.5zM1280 1133l29 348h161l-71 -348h-119z" />
<glyph unicode="&#x110;" horiz-adv-x="1505" d="M102 680v135h197v483h-176v136h547q326 0 519 -192t193 -521q0 -332 -186 -526.5t-514 -194.5h-559v135h176v545h-197zM471 135h182q263 0 404 151.5t141 440.5q0 272 -149.5 421.5t-409.5 149.5h-168v-483h334v-135h-334v-545z" />
<glyph unicode="&#x111;" horiz-adv-x="1378" d="M98 537q0 122 41 225t110.5 173t163 109t197.5 39q120 0 216.5 -55.5t150.5 -148.5v284h-293v103h293v92h-156v123h320v-215h155v-103h-155v-1028h155v-135h-319v174q-57 -94 -157.5 -149.5t-227.5 -55.5q-217 0 -355.5 156t-138.5 412zM276 539q0 -186 98 -305t253 -119 q157 0 258.5 118.5t101.5 303.5q0 170 -102.5 286.5t-251.5 116.5q-156 0 -256.5 -112.5t-100.5 -288.5z" />
<glyph unicode="&#x112;" horiz-adv-x="1179" d="M102 0v135h177v1163h-177v136h942v-342h-155v206h-438v-479h436v-143h-436v-541h442v236h156v-371h-947zM305 1606v131h623v-131h-623z" />
<glyph unicode="&#x113;" horiz-adv-x="1200" d="M90 547q0 151 67 276.5t190 200t278 74.5q147 0 259 -70.5t169 -187t57 -260.5v-66h-850q11 -182 112 -289.5t267 -107.5q98 0 186 44.5t146 119.5l106 -78q-72 -115 -187.5 -174.5t-258.5 -59.5q-243 0 -392 163t-149 415zM268 645h668q0 135 -88.5 224t-231.5 89 q-133 0 -228.5 -81.5t-119.5 -231.5zM311 1257v132h623v-132h-623z" />
<glyph unicode="&#x114;" horiz-adv-x="1179" d="M102 0v135h177v1163h-177v136h942v-342h-155v206h-438v-479h436v-143h-436v-541h442v236h156v-371h-947zM356 1804h129q0 -65 31.5 -105t99.5 -40q67 0 99.5 40t32.5 105h129q0 -112 -68.5 -185t-192.5 -73t-192 73t-68 185z" />
<glyph unicode="&#x115;" horiz-adv-x="1200" d="M90 547q0 151 67 276.5t190 200t278 74.5q147 0 259 -70.5t169 -187t57 -260.5v-66h-850q11 -182 112 -289.5t267 -107.5q98 0 186 44.5t146 119.5l106 -78q-72 -115 -187.5 -174.5t-258.5 -59.5q-243 0 -392 163t-149 415zM268 645h668q0 135 -88.5 224t-231.5 89 q-133 0 -228.5 -81.5t-119.5 -231.5zM362 1456h130q0 -65 31.5 -105t99.5 -40q67 0 99 40t32 105h129q0 -112 -68 -185t-192 -73t-192.5 73t-68.5 185z" />
<glyph unicode="&#x116;" horiz-adv-x="1179" d="M102 0v135h177v1163h-177v136h942v-342h-155v206h-438v-479h436v-143h-436v-541h442v236h156v-371h-947zM502 1714q0 48 32.5 81.5t79.5 33.5q49 0 83 -33.5t34 -81.5q0 -49 -33.5 -82t-83.5 -33q-47 0 -79.5 33t-32.5 82z" />
<glyph unicode="&#x117;" horiz-adv-x="1200" d="M90 547q0 151 67 276.5t190 200t278 74.5q147 0 259 -70.5t169 -187t57 -260.5v-66h-850q11 -182 112 -289.5t267 -107.5q98 0 186 44.5t146 119.5l106 -78q-72 -115 -187.5 -174.5t-258.5 -59.5q-243 0 -392 163t-149 415zM268 645h668q0 135 -88.5 224t-231.5 89 q-133 0 -228.5 -81.5t-119.5 -231.5zM508 1366q0 47 33 81t80 34q49 0 82.5 -33.5t33.5 -81.5q0 -49 -33 -82t-83 -33q-48 0 -80.5 33t-32.5 82z" />
<glyph unicode="&#x118;" horiz-adv-x="1179" d="M102 0v135h177v1163h-177v136h942v-342h-155v206h-438v-479h436v-143h-436v-541h442v236h156v-371h-54q-70 -20 -115.5 -70.5t-45.5 -107.5q0 -39 24.5 -65.5t63.5 -26.5q44 0 90 26l49 -104q-66 -51 -166 -51q-92 0 -152.5 53.5t-60.5 142.5q0 59 34.5 112t92.5 91h-707 z" />
<glyph unicode="&#x119;" horiz-adv-x="1200" d="M90 547q0 151 67 276.5t190 200t278 74.5q147 0 259 -70.5t169 -187t57 -260.5v-66h-850q11 -182 112 -289.5t267 -107.5q98 0 186 44.5t146 119.5l106 -78q-39 -61 -86 -105q-190 -161 -190 -276q0 -39 26.5 -65.5t65.5 -26.5q40 0 90 28l51 -106q-30 -23 -77.5 -37 t-90.5 -14q-89 0 -151 53.5t-62 138.5q0 94 90 187q-68 -11 -112 -11q-243 0 -392 163t-149 415zM268 645h668q0 135 -88.5 224t-231.5 89q-133 0 -228.5 -81.5t-119.5 -231.5z" />
<glyph unicode="&#x11a;" horiz-adv-x="1179" d="M102 0v135h177v1163h-177v136h942v-342h-155v206h-438v-479h436v-143h-436v-541h442v236h156v-371h-947zM352 1825h156l129 -170l129 170h147l-196 -266h-168z" />
<glyph unicode="&#x11b;" horiz-adv-x="1200" d="M90 547q0 151 67 276.5t190 200t278 74.5q147 0 259 -70.5t169 -187t57 -260.5v-66h-850q11 -182 112 -289.5t267 -107.5q98 0 186 44.5t146 119.5l106 -78q-72 -115 -187.5 -174.5t-258.5 -59.5q-243 0 -392 163t-149 415zM268 645h668q0 135 -88.5 224t-231.5 89 q-133 0 -228.5 -81.5t-119.5 -231.5zM358 1477h156l129 -170l129 170h148l-197 -267h-168z" />
<glyph unicode="&#x11c;" horiz-adv-x="1579" d="M123 737q0 158 52.5 294.5t143 231.5t215 149t265.5 54q137 0 252.5 -54.5t193.5 -151.5v174h152v-406h-127q-51 130 -174 206.5t-285 76.5q-102 0 -194.5 -41t-161.5 -114t-109.5 -182t-40.5 -237q0 -171 65 -311.5t179.5 -221.5t253.5 -81q186 0 314 115.5t151 320.5 h-322v143h473v-702h-147v240q-77 -129 -204 -201t-282 -72q-188 0 -340.5 102.5t-237.5 278.5t-85 389zM520 1559l197 266h168l196 -266h-155l-129 170l-129 -170h-148z" />
<glyph unicode="&#x11d;" horiz-adv-x="1366" d="M98 547q0 122 40.5 226.5t110 175t162.5 110t197 39.5q121 0 219 -59t150 -156v182h319v-135h-155v-850q0 -238 -145 -355.5t-398 -117.5q-228 0 -395 100l61 131q66 -40 157.5 -64t186.5 -24q172 0 270.5 78t98.5 223v123q-56 -92 -156.5 -144.5t-228.5 -52.5 q-218 0 -356 156t-138 414zM276 549q0 -188 98 -307t253 -119q157 0 258.5 118.5t101.5 305.5q0 172 -102 287.5t-252 115.5q-156 0 -256.5 -111.5t-100.5 -289.5zM346 1210l197 267h168l196 -267h-155l-129 170l-129 -170h-148z" />
<glyph unicode="&#x11e;" horiz-adv-x="1579" d="M123 737q0 158 52.5 294.5t143 231.5t215 149t265.5 54q137 0 252.5 -54.5t193.5 -151.5v174h152v-406h-127q-51 130 -174 206.5t-285 76.5q-102 0 -194.5 -41t-161.5 -114t-109.5 -182t-40.5 -237q0 -171 65 -311.5t179.5 -221.5t253.5 -81q186 0 314 115.5t151 320.5 h-322v143h473v-702h-147v240q-77 -129 -204 -201t-282 -72q-188 0 -340.5 102.5t-237.5 278.5t-85 389zM541 1804h129q0 -65 31.5 -105t99.5 -40q67 0 99 40t32 105h129q0 -112 -68 -185t-192 -73t-192 73t-68 185z" />
<glyph unicode="&#x11f;" horiz-adv-x="1366" d="M98 547q0 122 40.5 226.5t110 175t162.5 110t197 39.5q121 0 219 -59t150 -156v182h319v-135h-155v-850q0 -238 -145 -355.5t-398 -117.5q-228 0 -395 100l61 131q66 -40 157.5 -64t186.5 -24q172 0 270.5 78t98.5 223v123q-56 -92 -156.5 -144.5t-228.5 -52.5 q-218 0 -356 156t-138 414zM276 549q0 -188 98 -307t253 -119q157 0 258.5 118.5t101.5 305.5q0 172 -102 287.5t-252 115.5q-156 0 -256.5 -111.5t-100.5 -289.5zM367 1456h129q0 -65 31.5 -105t99.5 -40q67 0 99 40t32 105h129q0 -112 -68 -185t-192 -73t-192 73t-68 185z " />
<glyph unicode="&#x120;" horiz-adv-x="1579" d="M123 737q0 158 52.5 294.5t143 231.5t215 149t265.5 54q137 0 252.5 -54.5t193.5 -151.5v174h152v-406h-127q-51 130 -174 206.5t-285 76.5q-102 0 -194.5 -41t-161.5 -114t-109.5 -182t-40.5 -237q0 -171 65 -311.5t179.5 -221.5t253.5 -81q186 0 314 115.5t151 320.5 h-322v143h473v-702h-147v240q-77 -129 -204 -201t-282 -72q-188 0 -340.5 102.5t-237.5 278.5t-85 389zM686 1714q0 47 33 81t80 34q49 0 82.5 -33.5t33.5 -81.5q0 -49 -33 -82t-83 -33q-48 0 -80.5 33t-32.5 82z" />
<glyph unicode="&#x121;" horiz-adv-x="1366" d="M98 547q0 122 40.5 226.5t110 175t162.5 110t197 39.5q121 0 219 -59t150 -156v182h319v-135h-155v-850q0 -238 -145 -355.5t-398 -117.5q-228 0 -395 100l61 131q66 -40 157.5 -64t186.5 -24q172 0 270.5 78t98.5 223v123q-56 -92 -156.5 -144.5t-228.5 -52.5 q-218 0 -356 156t-138 414zM276 549q0 -188 98 -307t253 -119q157 0 258.5 118.5t101.5 305.5q0 172 -102 287.5t-252 115.5q-156 0 -256.5 -111.5t-100.5 -289.5zM512 1366q0 47 33 81t80 34q49 0 82.5 -33.5t33.5 -81.5q0 -49 -33 -82t-83 -33q-48 0 -80.5 33t-32.5 82z " />
<glyph unicode="&#x122;" horiz-adv-x="1579" d="M123 737q0 158 52.5 294.5t143 231.5t215 149t265.5 54q137 0 252.5 -54.5t193.5 -151.5v174h152v-406h-127q-51 130 -174 206.5t-285 76.5q-102 0 -194.5 -41t-161.5 -114t-109.5 -182t-40.5 -237q0 -171 65 -311.5t179.5 -221.5t253.5 -81q186 0 314 115.5t151 320.5 h-322v143h473v-702h-147v240q-77 -129 -204 -201t-282 -72q-188 0 -340.5 102.5t-237.5 278.5t-85 389zM705 -184q0 43 29.5 72.5t70.5 29.5q44 0 74 -35.5t30 -87.5q0 -73 -39 -142t-102 -122l-53 51q68 64 82 137h-6q-37 0 -61.5 30t-24.5 67z" />
<glyph unicode="&#x123;" horiz-adv-x="1366" d="M98 547q0 122 40.5 226.5t110 175t162.5 110t197 39.5q121 0 219 -59t150 -156v182h319v-135h-155v-850q0 -238 -145 -355.5t-398 -117.5q-228 0 -395 100l61 131q66 -40 157.5 -64t186.5 -24q172 0 270.5 78t98.5 223v123q-56 -92 -156.5 -144.5t-228.5 -52.5 q-218 0 -356 156t-138 414zM276 549q0 -188 98 -307t253 -119q157 0 258.5 118.5t101.5 305.5q0 172 -102 287.5t-252 115.5q-156 0 -256.5 -111.5t-100.5 -289.5zM518 1270q0 73 39 142t102 122l54 -51q-68 -64 -82 -137h6q37 0 61.5 -30t24.5 -67q0 -43 -29.5 -72.5 t-70.5 -29.5q-44 0 -74.5 35.5t-30.5 87.5z" />
<glyph unicode="&#x124;" horiz-adv-x="1646" d="M102 0v135h177v1163h-177v136h525v-136h-176v-495h745v495h-176v136h524v-136h-176v-1163h176v-135h-524v135h176v524h-745v-524h176v-135h-525zM543 1579l196 266h168l197 -266h-156l-129 170l-129 -170h-147z" />
<glyph unicode="&#x125;" horiz-adv-x="1372" d="M82 0v135h156v1211h-156v135h317v-598q50 92 141 150.5t203 58.5q176 0 286 -108t110 -284v-565h155v-135h-467v135h148v547q0 116 -76 186t-199 70q-124 0 -211.5 -83t-87.5 -206v-514h148v-135h-467zM426 1546l197 266h168l196 -266h-156l-129 170l-129 -170h-147z" />
<glyph unicode="&#x126;" horiz-adv-x="1646" d="M102 0v135h177v856h-177v115h177v192h-177v136h525v-136h-176v-192h745v192h-176v136h524v-136h-176v-192h176v-115h-176v-856h176v-135h-524v135h176v524h-745v-524h176v-135h-525zM451 803h745v188h-745v-188z" />
<glyph unicode="&#x127;" horiz-adv-x="1374" d="M82 1163v103h158v92h-156v123h317v-215h275v-107l-275 2v-278q49 90 141 147t203 57q176 0 286 -105.5t110 -281.5v-565h155v-135h-467v135h148v547q0 115 -76 183.5t-199 68.5q-125 0 -212 -81t-87 -204v-514h148v-135h-467v135h156v1026z" />
<glyph unicode="&#x128;" d="M35 1585q3 94 56 155.5t136 61.5q48 0 102 -24t100.5 -48t78.5 -24q30 0 49.5 24t22.5 62h112q-3 -95 -54 -156t-134 -61q-49 0 -102.5 24t-101 48t-81.5 24q-30 0 -49.5 -24t-22.5 -62h-112zM102 0v135h177v1163h-177v136h525v-136h-176v-1163h176v-135h-525z" />
<glyph unicode="&#x129;" horiz-adv-x="647" d="M-14 1237q3 94 56 155.5t136 61.5q48 0 102 -24t100.5 -48t78.5 -24q30 0 49 24t22 62h113q-3 -95 -54 -156t-134 -61q-49 0 -102.5 24t-101 48t-81.5 24q-30 0 -49.5 -24t-22.5 -62h-112zM90 0v135h156v795h-156v135h320v-930h155v-135h-475z" />
<glyph unicode="&#x12a;" d="M53 1606v131h623v-131h-623zM102 0v135h177v1163h-177v136h525v-136h-176v-1163h176v-135h-525z" />
<glyph unicode="&#x12b;" horiz-adv-x="647" d="M4 1257v132h623v-132h-623zM90 0v135h156v795h-156v135h320v-930h155v-135h-475z" />
<glyph unicode="&#x12c;" d="M102 0v135h177v1163h-177v136h525v-136h-176v-1163h176v-135h-525zM104 1804h129q0 -65 32 -105t100 -40q67 0 99 40t32 105h129q0 -112 -68 -185t-192 -73t-192.5 73t-68.5 185z" />
<glyph unicode="&#x12d;" horiz-adv-x="647" d="M55 1456h129q0 -65 31.5 -105t99.5 -40q67 0 99 40t32 105h129q0 -112 -68 -185t-192 -73t-192 73t-68 185zM90 0v135h156v795h-156v135h320v-930h155v-135h-475z" />
<glyph unicode="&#x12e;" d="M102 0v135h177v1163h-177v136h525v-136h-176v-1163h176v-135h-121q-70 -20 -116 -70.5t-46 -107.5q0 -39 24.5 -65.5t63.5 -26.5q44 0 90 26l49 -104q-66 -51 -165 -51q-92 0 -152.5 53.5t-60.5 142.5q0 59 34 112t92 91h-217z" />
<glyph unicode="&#x12f;" horiz-adv-x="647" d="M90 0v135h156v795h-156v135h320v-930h155v-135h-63q-70 -20 -116 -70.5t-46 -107.5q0 -39 24.5 -65.5t63.5 -26.5q44 0 90 26l49 -104q-66 -51 -166 -51q-92 0 -152.5 53.5t-60.5 142.5q0 59 34.5 112t92.5 91h-225zM201 1366q0 48 32.5 81.5t79.5 33.5q49 0 83 -33.5 t34 -81.5q0 -49 -33.5 -82t-83.5 -33q-47 0 -79.5 33t-32.5 82z" />
<glyph unicode="&#x130;" d="M102 0v135h177v1163h-177v136h525v-136h-176v-1163h176v-135h-525zM250 1714q0 48 32.5 81.5t79.5 33.5q49 0 83 -33.5t34 -81.5q0 -49 -33.5 -82t-83.5 -33q-47 0 -79.5 33t-32.5 82z" />
<glyph unicode="&#x131;" horiz-adv-x="647" d="M90 0v135h156v795h-156v135h320v-930h155v-135h-475z" />
<glyph unicode="&#x132;" horiz-adv-x="1441" d="M102 0v135h177v1163h-177v136h525v-136h-176v-1163h176v-135h-525zM696 -242l19 154q67 -18 141 -18q81 0 127.5 50t46.5 144v1210h-207v136h545v-136h-166v-1224q0 -157 -92.5 -246.5t-241.5 -89.5q-97 0 -172 20z" />
<glyph unicode="&#x133;" horiz-adv-x="1241" d="M90 0v135h156v795h-156v135h320v-930h155v-135h-475zM201 1366q0 48 32.5 81.5t79.5 33.5q49 0 83 -33.5t34 -81.5q0 -49 -33.5 -82t-83.5 -33q-47 0 -79.5 33t-32.5 82zM647 -246q18 -2 68 -2q78 0 122 54t44 141v983h-156v135h319v-1124q0 -149 -84.5 -240.5 t-226.5 -91.5q-36 0 -86 4v141zM831 1366q0 47 33 81t80 34q49 0 83 -33.5t34 -81.5q0 -49 -33.5 -82t-83.5 -33q-48 0 -80.5 33t-32.5 82z" />
<glyph unicode="&#x134;" horiz-adv-x="712" d="M-33 -242l19 154q67 -18 141 -18q81 0 127.5 50t46.5 144v1210h-207v136h545v-136h-166v-1224q0 -157 -92.5 -246.5t-241.5 -89.5q-97 0 -172 20zM84 1579l197 266h168l196 -266h-156l-129 170l-129 -170h-147z" />
<glyph unicode="&#x135;" horiz-adv-x="569" d="M0 -246q18 -2 68 -2q73 0 115 54t42 141v983h-155v135h319v-1124q0 -149 -82.5 -240.5t-220.5 -91.5q-36 0 -86 4v141zM8 1210l197 267h168l196 -267h-155l-129 170l-129 -170h-148z" />
<glyph unicode="&#x136;" horiz-adv-x="1374" d="M102 0v135h177v1163h-177v136h490v-136h-141v-540l522 549h-152v127h496v-136h-168l-520 -546l563 -617h166v-135h-524v131h147l-530 584v-580h149v-135h-498zM610 -184q0 42 30 72t71 30q44 0 74 -35.5t30 -87.5q0 -73 -39 -142t-102 -122l-53 51q67 63 81 137h-6 q-37 0 -61.5 30t-24.5 67z" />
<glyph unicode="&#x137;" horiz-adv-x="1140" d="M82 0v135h156v1211h-156v135h319v-889l365 346h-152v127h494v-135h-166l-360 -336l411 -459h148v-135h-254l-486 559v-424h148v-135h-467zM530 -184q0 42 30 72t71 30q44 0 74 -35.5t30 -87.5q0 -73 -39 -142t-102 -122l-53 51q68 64 82 137h-7q-37 0 -61.5 30t-24.5 67z " />
<glyph unicode="&#x138;" horiz-adv-x="1148" d="M90 0v135h156v795h-156v135h320v-473l364 346h-147v127h485v-135h-162l-360 -336l411 -459h148v-135h-254l-485 559v-424h147v-135h-467z" />
<glyph unicode="&#x139;" horiz-adv-x="1128" d="M102 0v135h177v1163h-177v136h533v-136h-184v-1163h444v266h156v-401h-949zM266 1579l148 291h180l-180 -291h-148z" />
<glyph unicode="&#x13a;" horiz-adv-x="641" d="M82 0v135h156v1211h-156v135h321v-1346h156v-135h-477zM190 1606l148 290h180l-180 -290h-148z" />
<glyph unicode="&#x13b;" horiz-adv-x="1128" d="M102 0v135h177v1163h-177v136h533v-136h-184v-1163h444v266h156v-401h-949zM535 -184q0 43 29.5 72.5t70.5 29.5q44 0 74 -35.5t30 -87.5q0 -73 -39 -142t-102 -122l-53 51q68 64 82 137h-6q-37 0 -61.5 30t-24.5 67z" />
<glyph unicode="&#x13c;" horiz-adv-x="641" d="M82 0v135h156v1211h-156v135h321v-1346h156v-135h-477zM221 -184q0 42 29.5 72t71.5 30q44 0 74 -35.5t30 -87.5q0 -73 -39 -142t-102 -122l-54 51q68 64 82 137h-6q-37 0 -61.5 30t-24.5 67z" />
<glyph unicode="&#x13d;" horiz-adv-x="1128" d="M102 0v135h177v1163h-177v136h533v-136h-184v-1163h444v266h156v-401h-949zM786 1133l29 348h162l-72 -348h-119z" />
<glyph unicode="&#x13e;" horiz-adv-x="688" d="M82 0v135h156v1211h-156v135h321v-1346h156v-135h-477zM543 1133l28 348h162l-71 -348h-119z" />
<glyph unicode="&#x13f;" horiz-adv-x="1181" d="M102 0v135h177v1163h-177v136h533v-136h-184v-1163h444v266h156v-401h-949zM844 764q0 51 38 88t89 37t87 -37t36 -88t-36 -88t-87 -37t-89 37t-38 88z" />
<glyph unicode="&#x140;" horiz-adv-x="929" d="M82 0v135h156v1211h-156v135h321v-1346h156v-135h-477zM657 764q0 51 38 88t89 37t87 -37t36 -88t-36 -88t-87 -37t-89 37t-38 88z" />
<glyph unicode="&#x141;" horiz-adv-x="1148" d="M102 541v145l197 88v524h-176v136h532v-136h-184v-448l324 143v-145l-324 -143v-570h444v266h156v-401h-948v135h176v494z" />
<glyph unicode="&#x142;" horiz-adv-x="710" d="M61 584v135l226 112v515h-156v135h322v-566l217 109v-135l-217 -109v-645h155v-135h-477v135h156v561z" />
<glyph unicode="&#x143;" horiz-adv-x="1683" d="M102 0v135h177v1163h-177v136h355l792 -1174v1038h-176v136h508v-136h-176v-1298h-182l-789 1178v-1043h176v-135h-508zM700 1559l148 290h180l-180 -290h-148z" />
<glyph unicode="&#x144;" horiz-adv-x="1380" d="M90 0v135h156v795h-156v135h318v-170q48 91 138.5 144t205.5 53q176 0 285.5 -108t109.5 -284v-565h156v-135h-467v135h147v547q0 116 -76 186t-198 70q-124 0 -211.5 -83.5t-87.5 -205.5v-514h147v-135h-467zM596 1210l147 291h181l-181 -291h-147z" />
<glyph unicode="&#x145;" horiz-adv-x="1683" d="M102 0v135h177v1163h-177v136h355l792 -1174v1038h-176v136h508v-136h-176v-1298h-182l-789 1178v-1043h176v-135h-508zM770 -184q0 43 29.5 72.5t70.5 29.5q44 0 74.5 -35.5t30.5 -87.5q0 -73 -39 -142t-102 -122l-54 51q68 64 82 137h-6q-37 0 -61.5 30t-24.5 67z" />
<glyph unicode="&#x146;" horiz-adv-x="1380" d="M90 0v135h156v795h-156v135h318v-170q48 91 138.5 144t205.5 53q176 0 285.5 -108t109.5 -284v-565h156v-135h-467v135h147v547q0 116 -76 186t-198 70q-124 0 -211.5 -83.5t-87.5 -205.5v-514h147v-135h-467zM602 -184q0 43 29.5 72.5t70.5 29.5q44 0 74.5 -35.5 t30.5 -87.5q0 -73 -39 -142t-102 -122l-54 51q68 64 82 137h-6q-37 0 -61.5 30t-24.5 67z" />
<glyph unicode="&#x147;" horiz-adv-x="1683" d="M102 0v135h177v1163h-177v136h355l792 -1174v1038h-176v136h508v-136h-176v-1298h-182l-789 1178v-1043h176v-135h-508zM567 1825h156l129 -170l129 170h147l-196 -266h-168z" />
<glyph unicode="&#x148;" horiz-adv-x="1380" d="M90 0v135h156v795h-156v135h318v-170q48 91 138.5 144t205.5 53q176 0 285.5 -108t109.5 -284v-565h156v-135h-467v135h147v547q0 116 -76 186t-198 70q-124 0 -211.5 -83.5t-87.5 -205.5v-514h147v-135h-467zM463 1477h155l130 -170l129 170h147l-197 -267h-168z" />
<glyph unicode="&#x149;" horiz-adv-x="1380" d="M-164 1380q0 51 33.5 85t83.5 34q53 0 88 -41t35 -102q0 -86 -46 -167.5t-120 -144.5l-62 60q81 81 95 162h-6q-43 0 -72 35.5t-29 78.5zM90 0v135h156v795h-156v135h318v-170q48 91 138.5 144t205.5 53q176 0 285.5 -108t109.5 -284v-565h156v-135h-467v135h147v547 q0 116 -76 186t-198 70q-124 0 -211.5 -83.5t-87.5 -205.5v-514h147v-135h-467z" />
<glyph unicode="&#x14a;" horiz-adv-x="1681" d="M102 0v135h181v1163h-181v136h355l794 -1162v1026h-176v136h504v-136h-176v-1357q0 -149 -82.5 -240.5t-220.5 -91.5q-36 0 -86 4v141q18 -2 67 -2q74 0 118 54.5t44 140.5v47l-809 1180v-1039h176v-135h-508z" />
<glyph unicode="&#x14b;" horiz-adv-x="1327" d="M90 0v135h156v795h-156v135h318v-170q48 91 138.5 144t205.5 53q176 0 285.5 -108t109.5 -284v-759q0 -149 -82.5 -240.5t-220.5 -91.5q-36 0 -86 4v141q18 -2 67 -2q74 0 116 54t42 141v735q0 116 -76 186t-198 70q-124 0 -211.5 -83.5t-87.5 -205.5v-514h147v-135h-467 z" />
<glyph unicode="&#x14c;" horiz-adv-x="1650" d="M123 729q0 206 86.5 373t248 265.5t367.5 98.5t368 -98.5t248.5 -266t86.5 -372.5q0 -212 -85 -384.5t-246.5 -275t-371.5 -102.5t-371.5 102.5t-246 275t-84.5 384.5zM307 729q0 -265 142 -435.5t376 -170.5t376 170.5t142 435.5q0 258 -141.5 420t-376.5 162 t-376.5 -162t-141.5 -420zM514 1606v131h623v-131h-623z" />
<glyph unicode="&#x14d;" horiz-adv-x="1294" d="M90 545q0 158 71 284t198.5 197.5t287.5 71.5q158 0 285 -71t199.5 -198t72.5 -284q0 -253 -156 -414.5t-401 -161.5t-401 161.5t-156 414.5zM266 545q0 -191 106 -309.5t275 -118.5t275 118.5t106 309.5q0 180 -106 292.5t-275 112.5t-275 -112.5t-106 -292.5zM336 1257 v132h622v-132h-622z" />
<glyph unicode="&#x14e;" horiz-adv-x="1650" d="M123 729q0 206 86.5 373t248 265.5t367.5 98.5t368 -98.5t248.5 -266t86.5 -372.5q0 -212 -85 -384.5t-246.5 -275t-371.5 -102.5t-371.5 102.5t-246 275t-84.5 384.5zM307 729q0 -265 142 -435.5t376 -170.5t376 170.5t142 435.5q0 258 -141.5 420t-376.5 162 t-376.5 -162t-141.5 -420zM565 1804h129q0 -65 31.5 -105t99.5 -40q67 0 99 40t32 105h129q0 -112 -68 -185t-192 -73t-192 73t-68 185z" />
<glyph unicode="&#x14f;" horiz-adv-x="1294" d="M90 545q0 158 71 284t198.5 197.5t287.5 71.5q158 0 285 -71t199.5 -198t72.5 -284q0 -253 -156 -414.5t-401 -161.5t-401 161.5t-156 414.5zM266 545q0 -191 106 -309.5t275 -118.5t275 118.5t106 309.5q0 180 -106 292.5t-275 112.5t-275 -112.5t-106 -292.5zM387 1456 h129q0 -65 31.5 -105t99.5 -40q67 0 99 40t32 105h129q0 -112 -68 -185t-192 -73t-192 73t-68 185z" />
<glyph unicode="&#x150;" horiz-adv-x="1650" d="M123 729q0 206 86.5 373t248 265.5t367.5 98.5t368 -98.5t248.5 -266t86.5 -372.5q0 -212 -85 -384.5t-246.5 -275t-371.5 -102.5t-371.5 102.5t-246 275t-84.5 384.5zM307 729q0 -265 142 -435.5t376 -170.5t376 170.5t142 435.5q0 258 -141.5 420t-376.5 162 t-376.5 -162t-141.5 -420zM586 1559l141 290h170l-178 -290h-133zM874 1559l142 290h170l-178 -290h-134z" />
<glyph unicode="&#x151;" horiz-adv-x="1294" d="M90 545q0 158 71 284t198.5 197.5t287.5 71.5q158 0 285 -71t199.5 -198t72.5 -284q0 -253 -156 -414.5t-401 -161.5t-401 161.5t-156 414.5zM266 545q0 -191 106 -309.5t275 -118.5t275 118.5t106 309.5q0 180 -106 292.5t-275 112.5t-275 -112.5t-106 -292.5zM408 1210 l141 291h170l-178 -291h-133zM696 1210l142 291h170l-179 -291h-133z" />
<glyph unicode="&#x152;" horiz-adv-x="2226" d="M123 729q0 153 50.5 288.5t140 234.5t219.5 156.5t282 57.5q107 0 213 -32h1057v-342h-156v202h-665q93 -89 150.5 -210.5t72.5 -260.5h450v-151h-448q-9 -158 -68 -297t-161 -236h679v232h156v-371h-1069q-109 -33 -213 -33q-152 0 -282 59.5t-219 162t-139 242.5 t-50 298zM307 729q0 -170 61 -305.5t177.5 -214t269.5 -78.5q154 0 268 79t172 213.5t58 305.5q0 167 -58 296t-172 203.5t-268 74.5q-231 0 -369.5 -160.5t-138.5 -413.5z" />
<glyph unicode="&#x153;" horiz-adv-x="2076" d="M90 541q0 155 69.5 283t192 201t271.5 73q147 0 264 -69t184 -189q67 118 181 188t257 70q144 0 254.5 -74.5t167 -196.5t56.5 -270v-57l-832 -4q10 -181 108 -283t261 -102q96 0 181.5 44t141.5 121l107 -77q-74 -113 -188.5 -172.5t-249.5 -59.5q-150 0 -265.5 69 t-181.5 189q-67 -121 -182.5 -188.5t-263.5 -67.5q-232 0 -382.5 162.5t-150.5 409.5zM262 541q0 -186 102.5 -306t262.5 -120t261 119t101 307q0 179 -101.5 295t-260.5 116t-262 -116.5t-103 -294.5zM1157 618h655q0 143 -86.5 241.5t-224.5 98.5q-134 0 -229 -90 t-115 -250z" />
<glyph unicode="&#x154;" horiz-adv-x="1312" d="M102 0v135h177v1163h-177v136h572q179 0 304.5 -113.5t125.5 -278.5q0 -131 -81 -238t-212 -157l299 -512h182v-135h-303l-344 610h-194v-475h163v-135h-512zM451 741h182q130 0 210.5 81t80.5 218q0 119 -75 191t-192 72h-206v-562zM532 1559l148 290h180l-180 -290 h-148z" />
<glyph unicode="&#x155;" horiz-adv-x="847" d="M90 0v135h156v795h-156v135h318v-219q39 105 121.5 176.5t187.5 71.5q32 0 102 -9v-184q-74 12 -119 12q-130 0 -210 -96t-80 -244v-438h184v-135h-504zM393 1210l148 291h180l-180 -291h-148z" />
<glyph unicode="&#x156;" horiz-adv-x="1312" d="M102 0v135h177v1163h-177v136h572q179 0 304.5 -113.5t125.5 -278.5q0 -131 -81 -238t-212 -157l299 -512h182v-135h-303l-344 610h-194v-475h163v-135h-512zM451 741h182q130 0 210.5 81t80.5 218q0 119 -75 191t-192 72h-206v-562zM614 -184q0 42 30 72t71 30 q44 0 74 -35.5t30 -87.5q0 -73 -39 -142t-102 -122l-53 51q68 64 82 137h-7q-37 0 -61.5 30t-24.5 67z" />
<glyph unicode="&#x157;" horiz-adv-x="847" d="M90 0v135h156v795h-156v135h318v-219q39 105 121.5 176.5t187.5 71.5q32 0 102 -9v-184q-74 12 -119 12q-130 0 -210 -96t-80 -244v-438h184v-135h-504zM248 -184q0 43 29.5 72.5t70.5 29.5q44 0 74.5 -35.5t30.5 -87.5q0 -73 -39.5 -142t-102.5 -122l-53 51 q68 64 82 137h-6q-37 0 -61.5 30t-24.5 67z" />
<glyph unicode="&#x158;" horiz-adv-x="1312" d="M102 0v135h177v1163h-177v136h572q179 0 304.5 -113.5t125.5 -278.5q0 -131 -81 -238t-212 -157l299 -512h182v-135h-303l-344 610h-194v-475h163v-135h-512zM399 1825h156l129 -170l129 170h148l-197 -266h-168zM451 741h182q130 0 210.5 81t80.5 218q0 119 -75 191 t-192 72h-206v-562z" />
<glyph unicode="&#x159;" horiz-adv-x="847" d="M90 0v135h156v795h-156v135h318v-219q39 105 121.5 176.5t187.5 71.5q32 0 102 -9v-184q-74 12 -119 12q-130 0 -210 -96t-80 -244v-438h184v-135h-504zM260 1477h156l129 -170l129 170h147l-196 -267h-168z" />
<glyph unicode="&#x15a;" horiz-adv-x="1114" d="M123 0v420h127q32 -136 119 -219.5t213 -83.5q110 0 179.5 65t69.5 170q0 66 -38.5 120t-100.5 93t-136.5 76.5t-149 79t-136.5 90t-100.5 120.5t-38.5 161q0 160 103.5 267t269.5 107q182 0 297 -155v123h147v-402h-127q-24 131 -103 211t-196 80q-101 0 -161 -61.5 t-60 -151.5q0 -61 39 -111.5t101 -88t136.5 -73.5t149.5 -77.5t137 -90.5t101 -122.5t39 -163.5q0 -177 -110.5 -294.5t-297.5 -117.5q-206 0 -326 166v-137h-147zM410 1559l147 290h180l-180 -290h-147z" />
<glyph unicode="&#x15b;" horiz-adv-x="1030" d="M123 0v324h127q29 -99 110.5 -154t192.5 -55q92 0 149.5 46t57.5 118q0 55 -35 93.5t-90.5 60t-123 39.5t-134.5 41t-122.5 55t-90 91t-33.5 140q1 130 90.5 211.5t229.5 81.5q164 0 270 -129v102h151v-311h-127q-28 95 -102.5 152t-169.5 57q-82 0 -133 -42t-51 -110 q0 -47 27 -81t71.5 -52.5t101 -36.5t116 -31.5t116 -38.5t101 -57t71.5 -87.5t27 -129.5q0 -145 -99.5 -234.5t-257.5 -89.5q-178 0 -289 133v-106h-151zM371 1210l147 291h180l-180 -291h-147z" />
<glyph unicode="&#x15c;" horiz-adv-x="1114" d="M123 0v420h127q32 -136 119 -219.5t213 -83.5q110 0 179.5 65t69.5 170q0 66 -38.5 120t-100.5 93t-136.5 76.5t-149 79t-136.5 90t-100.5 120.5t-38.5 161q0 160 103.5 267t269.5 107q182 0 297 -155v123h147v-402h-127q-24 131 -103 211t-196 80q-101 0 -161 -61.5 t-60 -151.5q0 -61 39 -111.5t101 -88t136.5 -73.5t149.5 -77.5t137 -90.5t101 -122.5t39 -163.5q0 -177 -110.5 -294.5t-297.5 -117.5q-206 0 -326 166v-137h-147zM260 1559l197 266h168l196 -266h-155l-129 170l-129 -170h-148z" />
<glyph unicode="&#x15d;" horiz-adv-x="1030" d="M123 0v324h127q29 -99 110.5 -154t192.5 -55q92 0 149.5 46t57.5 118q0 55 -35 93.5t-90.5 60t-123 39.5t-134.5 41t-122.5 55t-90 91t-33.5 140q1 130 90.5 211.5t229.5 81.5q164 0 270 -129v102h151v-311h-127q-28 95 -102.5 152t-169.5 57q-82 0 -133 -42t-51 -110 q0 -47 27 -81t71.5 -52.5t101 -36.5t116 -31.5t116 -38.5t101 -57t71.5 -87.5t27 -129.5q0 -145 -99.5 -234.5t-257.5 -89.5q-178 0 -289 133v-106h-151zM221 1210l197 267h168l196 -267h-155l-129 170l-129 -170h-148z" />
<glyph unicode="&#x15e;" horiz-adv-x="1114" d="M123 0v420h127q32 -136 119 -219.5t213 -83.5q110 0 179.5 65t69.5 170q0 66 -38.5 120t-100.5 93t-136.5 76.5t-149 79t-136.5 90t-100.5 120.5t-38.5 161q0 160 103.5 267t269.5 107q182 0 297 -155v123h147v-402h-127q-24 131 -103 211t-196 80q-101 0 -161 -61.5 t-60 -151.5q0 -61 39 -111.5t101 -88t136.5 -73.5t149.5 -77.5t137 -90.5t101 -122.5t39 -163.5q0 -169 -101 -284.5t-274 -127.5l-13 -59h9q67 0 110 -50.5t43 -121.5q0 -93 -65 -143t-164 -50q-51 0 -98 19l26 102q28 -12 66 -12q48 0 80 20t32 64q0 40 -30.5 62t-81.5 22 q-23 0 -39 -4l33 155q-166 21 -267 162v-137h-147z" />
<glyph unicode="&#x15f;" horiz-adv-x="1030" d="M123 0v324h127q29 -99 110.5 -154t192.5 -55q92 0 149.5 46t57.5 118q0 55 -35 93.5t-90.5 60t-123 39.5t-134.5 41t-122.5 55t-90 91t-33.5 140q1 130 90.5 211.5t229.5 81.5q164 0 270 -129v102h151v-311h-127q-28 95 -102.5 152t-169.5 57q-82 0 -133 -42t-51 -110 q0 -47 27 -81t71.5 -52.5t101 -36.5t116 -31.5t116 -38.5t101 -57t71.5 -87.5t27 -129.5q0 -140 -92.5 -229t-241.5 -95l-13 -61h9q67 0 110 -50.5t43 -121.5q0 -93 -65 -143t-164 -50q-50 0 -98 19l26 102q28 -12 66 -12q48 0 80 20t32 64q0 40 -30.5 62t-81.5 22 q-23 0 -39 -4l35 160q-137 21 -222 126v-106h-151z" />
<glyph unicode="&#x160;" horiz-adv-x="1114" d="M123 0v420h127q32 -136 119 -219.5t213 -83.5q110 0 179.5 65t69.5 170q0 66 -38.5 120t-100.5 93t-136.5 76.5t-149 79t-136.5 90t-100.5 120.5t-38.5 161q0 160 103.5 267t269.5 107q182 0 297 -155v123h147v-402h-127q-24 131 -103 211t-196 80q-101 0 -161 -61.5 t-60 -151.5q0 -61 39 -111.5t101 -88t136.5 -73.5t149.5 -77.5t137 -90.5t101 -122.5t39 -163.5q0 -177 -110.5 -294.5t-297.5 -117.5q-206 0 -326 166v-137h-147zM276 1825h156l129 -170l129 170h148l-197 -266h-168z" />
<glyph unicode="&#x161;" horiz-adv-x="1030" d="M123 0v324h127q29 -99 110.5 -154t192.5 -55q92 0 149.5 46t57.5 118q0 55 -35 93.5t-90.5 60t-123 39.5t-134.5 41t-122.5 55t-90 91t-33.5 140q1 130 90.5 211.5t229.5 81.5q164 0 270 -129v102h151v-311h-127q-28 95 -102.5 152t-169.5 57q-82 0 -133 -42t-51 -110 q0 -47 27 -81t71.5 -52.5t101 -36.5t116 -31.5t116 -38.5t101 -57t71.5 -87.5t27 -129.5q0 -145 -99.5 -234.5t-257.5 -89.5q-178 0 -289 133v-106h-151zM238 1477h155l129 -170l129 170h148l-197 -267h-168z" />
<glyph unicode="&#x162;" horiz-adv-x="1249" d="M66 1032v402h1118v-402h-156v266h-317v-1163h188v-135h-215l-16 -88h8q67 0 110 -50.5t43 -121.5q0 -93 -65 -143t-164 -50q-50 0 -98 19l26 102q28 -12 66 -12q48 0 80.5 20t32.5 64q0 40 -31 62t-82 22q-23 0 -39 -4l39 180h-244v135h189v1163h-318v-266h-155z" />
<glyph unicode="&#x163;" horiz-adv-x="708" d="M57 930v135h156v223h164v-223h233v-135h-233v-617q0 -76 37.5 -125t103.5 -49q47 0 109 15v-146q-67 -18 -133 -18q-23 0 -35 2l-15 -80h9q67 0 110 -50.5t43 -121.5q0 -93 -65 -143t-164 -50q-50 0 -98 19l26 102q28 -12 66 -12q48 0 80 20t32 64q0 40 -30.5 62 t-81.5 22q-23 0 -39 -4l41 194q-78 35 -119 115t-41 190v611h-156z" />
<glyph unicode="&#x164;" horiz-adv-x="1249" d="M66 1032v402h1118v-402h-156v266h-317v-1163h188v-135h-549v135h189v1163h-318v-266h-155zM360 1825h156l129 -170l129 170h148l-197 -266h-168z" />
<glyph unicode="&#x165;" horiz-adv-x="741" d="M57 930v135h156v223h164v-223h233v-135h-233v-617q0 -76 37.5 -125t103.5 -49q47 0 109 15v-146q-67 -18 -133 -18q-136 0 -208.5 91t-72.5 238v611h-156zM539 1174l28 327h162l-72 -327h-118z" />
<glyph unicode="&#x166;" horiz-adv-x="1249" d="M66 1032v402h1118v-402h-156v266h-317v-510h252v-118h-252v-535h188v-135h-549v135h189v535h-252v118h252v510h-318v-266h-155z" />
<glyph unicode="&#x167;" horiz-adv-x="708" d="M57 567v119h156v244h-156v135h156v223h164v-223h233v-135h-233v-244h233v-119h-233v-254q0 -76 37.5 -125t103.5 -49q47 0 109 15v-146q-67 -18 -133 -18q-136 0 -208.5 91t-72.5 238v248h-156z" />
<glyph unicode="&#x168;" horiz-adv-x="1544" d="M74 1298v136h528v-136h-184v-790q0 -177 95 -280t259 -103t259 103t95 280v790h-184v136h528v-136h-172v-782q0 -252 -139 -399.5t-387 -147.5t-387 147.5t-139 399.5v782h-172zM449 1585q3 94 56 155.5t136 61.5q48 0 102 -24t100.5 -48t78.5 -24q30 0 49 24t22 62h113 q-3 -95 -54 -156t-134 -61q-49 0 -102.5 24t-101 48t-81.5 24q-30 0 -49.5 -24t-22.5 -62h-112z" />
<glyph unicode="&#x169;" horiz-adv-x="1323" d="M57 930v135h320v-674q0 -121 67.5 -194.5t182.5 -73.5q124 0 209.5 84.5t85.5 206.5v516h-156v135h319v-930h156v-135h-319v172q-44 -92 -135.5 -145.5t-206.5 -53.5q-174 0 -270.5 109t-96.5 287v561h-156zM291 1237q3 94 56 155.5t136 61.5q48 0 102 -24t100.5 -48 t78.5 -24q30 0 49.5 24t22.5 62h112q-3 -95 -54 -156t-134 -61q-49 0 -102.5 24t-101 48t-81.5 24q-30 0 -49.5 -24t-22.5 -62h-112z" />
<glyph unicode="&#x16a;" horiz-adv-x="1544" d="M74 1298v136h528v-136h-184v-790q0 -177 95 -280t259 -103t259 103t95 280v790h-184v136h528v-136h-172v-782q0 -252 -139 -399.5t-387 -147.5t-387 147.5t-139 399.5v782h-172zM467 1606v131h623v-131h-623z" />
<glyph unicode="&#x16b;" horiz-adv-x="1323" d="M57 930v135h320v-674q0 -121 67.5 -194.5t182.5 -73.5q124 0 209.5 84.5t85.5 206.5v516h-156v135h319v-930h156v-135h-319v172q-44 -92 -135.5 -145.5t-206.5 -53.5q-174 0 -270.5 109t-96.5 287v561h-156zM309 1257v132h623v-132h-623z" />
<glyph unicode="&#x16c;" horiz-adv-x="1544" d="M74 1298v136h528v-136h-184v-790q0 -177 95 -280t259 -103t259 103t95 280v790h-184v136h528v-136h-172v-782q0 -252 -139 -399.5t-387 -147.5t-387 147.5t-139 399.5v782h-172zM518 1804h129q0 -65 31.5 -105t99.5 -40q67 0 99 40t32 105h129q0 -112 -68 -185t-192 -73 t-192 73t-68 185z" />
<glyph unicode="&#x16d;" horiz-adv-x="1323" d="M57 930v135h320v-674q0 -121 67.5 -194.5t182.5 -73.5q124 0 209.5 84.5t85.5 206.5v516h-156v135h319v-930h156v-135h-319v172q-44 -92 -135.5 -145.5t-206.5 -53.5q-174 0 -270.5 109t-96.5 287v561h-156zM360 1456h129q0 -65 32 -105t100 -40q67 0 99 40t32 105h129 q0 -112 -68 -185t-192 -73t-192.5 73t-68.5 185z" />
<glyph unicode="&#x16e;" horiz-adv-x="1544" d="M74 1298v136h528v-136h-184v-790q0 -177 95 -280t259 -103t259 103t95 280v790h-184v136h528v-136h-172v-782q0 -252 -139 -399.5t-387 -147.5t-387 147.5t-139 399.5v782h-172zM598 1706q0 77 52 128.5t128 51.5t128 -51.5t52 -128.5q0 -78 -52.5 -131t-127.5 -53 t-127.5 53t-52.5 131zM694 1704q0 -42 23 -68t61 -26t61 26t23 68t-23 68t-61 26t-61 -26t-23 -68z" />
<glyph unicode="&#x16f;" horiz-adv-x="1323" d="M57 930v135h320v-674q0 -121 67.5 -194.5t182.5 -73.5q124 0 209.5 84.5t85.5 206.5v516h-156v135h319v-930h156v-135h-319v172q-44 -92 -135.5 -145.5t-206.5 -53.5q-174 0 -270.5 109t-96.5 287v561h-156zM440 1358q0 77 52.5 128.5t128.5 51.5t128 -51.5t52 -128.5 q0 -78 -52.5 -131t-127.5 -53t-128 53t-53 131zM537 1356q0 -42 23 -68t61 -26t61 26t23 68t-23 68t-61 26t-61 -26t-23 -68z" />
<glyph unicode="&#x170;" horiz-adv-x="1544" d="M74 1298v136h528v-136h-184v-790q0 -177 95 -280t259 -103t259 103t95 280v790h-184v136h528v-136h-172v-782q0 -252 -139 -399.5t-387 -147.5t-387 147.5t-139 399.5v782h-172zM539 1559l141 290h170l-178 -290h-133zM827 1559l142 290h170l-178 -290h-134z" />
<glyph unicode="&#x171;" horiz-adv-x="1323" d="M57 930v135h320v-674q0 -121 67.5 -194.5t182.5 -73.5q124 0 209.5 84.5t85.5 206.5v516h-156v135h319v-930h156v-135h-319v172q-44 -92 -135.5 -145.5t-206.5 -53.5q-174 0 -270.5 109t-96.5 287v561h-156zM381 1210l141 291h170l-178 -291h-133zM670 1210l141 291h170 l-178 -291h-133z" />
<glyph unicode="&#x172;" horiz-adv-x="1544" d="M74 1298v136h528v-136h-184v-790q0 -177 95 -280t259 -103t259 103t95 280v790h-184v136h528v-136h-172v-782q0 -194 -84 -328t-239 -188q-70 -20 -116 -70.5t-46 -107.5q0 -39 24.5 -65.5t63.5 -26.5q44 0 90 26l49 -104q-66 -51 -166 -51q-91 0 -151.5 53.5 t-60.5 142.5q0 96 86 172q-237 7 -369.5 154.5t-132.5 392.5v782h-172z" />
<glyph unicode="&#x173;" horiz-adv-x="1323" d="M57 930v135h320v-674q0 -121 67.5 -194.5t182.5 -73.5q124 0 209.5 84.5t85.5 206.5v516h-156v135h319v-930h156v-135h-108q-70 -20 -116 -70.5t-46 -107.5q0 -39 24.5 -65.5t63.5 -26.5q44 0 90 26l49 -104q-66 -51 -166 -51q-92 0 -152.5 53.5t-60.5 142.5 q0 59 34.5 112t92.5 91h-4l-20 172q-44 -92 -135.5 -145.5t-206.5 -53.5q-174 0 -270.5 109t-96.5 287v561h-156z" />
<glyph unicode="&#x174;" horiz-adv-x="2183" d="M20 1298v136h566v-136h-224l297 -1114l340 1250h205l336 -1244l293 1108h-225v136h555v-136h-164l-365 -1306h-207l-333 1206l-340 -1206h-207l-363 1306h-164zM825 1559l197 266h168l196 -266h-155l-129 170l-129 -170h-148z" />
<glyph unicode="&#x175;" horiz-adv-x="1832" d="M0 930v135h502v-135h-183l230 -740l280 875h187l284 -875l230 740h-180v135h483v-135h-143l-308 -930h-174l-293 854l-290 -854h-170l-308 930h-147zM651 1210l197 267h168l196 -267h-155l-129 170l-129 -170h-148z" />
<glyph unicode="&#x176;" horiz-adv-x="1335" d="M20 1298v136h506v-131h-159l317 -529l309 529h-157v131h479v-136h-158l-397 -682v-481h190v-135h-553v135h191v477l-410 686h-158zM420 1559l196 266h168l197 -266h-156l-129 170l-129 -170h-147z" />
<glyph unicode="&#x177;" horiz-adv-x="1189" d="M0 930v135h481v-135h-164l287 -766l283 766h-164v135h467v-135h-141l-390 -1008q-57 -148 -160.5 -230.5t-228.5 -82.5q-77 0 -118 8v154q57 -11 112 -11q81 0 147.5 54t104.5 151l4 10l-379 955h-141zM338 1210l197 267h167l197 -267h-156l-129 170l-129 -170h-147z" />
<glyph unicode="&#x178;" horiz-adv-x="1335" d="M20 1298v136h506v-131h-159l317 -529l309 529h-157v131h479v-136h-158l-397 -682v-481h190v-135h-553v135h191v477l-410 686h-158zM414 1704q0 43 30 73.5t74 30.5q45 0 75 -30.5t30 -73.5q0 -45 -30 -75t-75 -30q-44 0 -74 30.5t-30 74.5zM778 1704q0 43 30 73.5 t75 30.5q44 0 74 -30.5t30 -73.5q0 -44 -30 -74.5t-74 -30.5q-45 0 -75 30t-30 75z" />
<glyph unicode="&#x179;" horiz-adv-x="1218" d="M90 0v121l799 1165h-604v-242h-156v390h979v-121l-799 -1166h656v273h155v-420h-1030zM485 1559l148 290h180l-180 -290h-148z" />
<glyph unicode="&#x17a;" horiz-adv-x="1095" d="M123 0v115l612 811h-430v-164h-151v303h796v-115l-610 -811h473v185h152v-324h-842zM416 1210l147 291h180l-180 -291h-147z" />
<glyph unicode="&#x17b;" horiz-adv-x="1218" d="M90 0v121l799 1165h-604v-242h-156v390h979v-121l-799 -1166h656v273h155v-420h-1030zM502 1714q0 48 32.5 81.5t79.5 33.5q49 0 83 -33.5t34 -81.5q0 -49 -33.5 -82t-83.5 -33q-47 0 -79.5 33t-32.5 82z" />
<glyph unicode="&#x17c;" horiz-adv-x="1095" d="M123 0v115l612 811h-430v-164h-151v303h796v-115l-610 -811h473v185h152v-324h-842zM432 1366q0 47 33 81t80 34q49 0 83 -33.5t34 -81.5q0 -49 -33.5 -82t-83.5 -33q-48 0 -80.5 33t-32.5 82z" />
<glyph unicode="&#x17d;" horiz-adv-x="1218" d="M90 0v121l799 1165h-604v-242h-156v390h979v-121l-799 -1166h656v273h155v-420h-1030zM352 1825h156l129 -170l129 170h147l-196 -266h-168z" />
<glyph unicode="&#x17e;" horiz-adv-x="1095" d="M123 0v115l612 811h-430v-164h-151v303h796v-115l-610 -811h473v185h152v-324h-842zM283 1477h155l129 -170l129 170h148l-197 -267h-168z" />
<glyph unicode="&#x192;" horiz-adv-x="925" d="M-82 -381l21 139q42 -10 94 -10q92 0 142.5 65t70.5 207l96 701h-168v135h186l37 272q22 155 124 242.5t233 87.5q70 0 123 -12l-19 -139q-45 10 -96 10q-87 0 -140.5 -61t-68.5 -179l-29 -221h213v-135h-231l-113 -797q-25 -154 -125 -235.5t-229 -81.5q-63 0 -121 12z " />
<glyph unicode="&#x1fa;" horiz-adv-x="1462" d="M20 0v135h138l463 1249q-74 51 -74 136q0 72 53 117.5t131 45.5t131 -45.5t53 -117.5q0 -84 -69 -134l457 -1251h139v-135h-504v135h182l-125 350h-540l-125 -350h182v-135h-492zM504 616h442l-221 644zM633 1741l158 205h206l-215 -205h-149zM643 1518q0 -37 24.5 -57.5 t63.5 -20.5t63.5 20.5t24.5 57.5t-24 57t-64 20t-64 -20t-24 -57z" />
<glyph unicode="&#x1fb;" horiz-adv-x="1239" d="M115 326q0 155 120.5 250.5t305.5 95.5q183 0 301 -97v127q0 112 -75.5 179t-195.5 67q-87 0 -173.5 -30.5t-155.5 -77.5l-70 118q210 134 430 134q186 0 295 -105t109 -266v-586h155v-135h-295l-18 115q-50 -67 -137.5 -102.5t-194.5 -35.5q-180 0 -290.5 96.5 t-110.5 252.5zM289 330q0 -94 76.5 -155.5t199.5 -61.5t203 62t80 157q0 93 -81 152t-202 59t-198.5 -60t-77.5 -153zM453 1321q0 70 46.5 116t114.5 46t115 -46t47 -116t-47 -118t-115 -48t-114.5 48t-46.5 118zM496 1524l133 262h162l-162 -262h-133zM539 1319 q0 -38 20.5 -62t54.5 -24q35 0 55.5 23.5t20.5 62.5q0 37 -20.5 60.5t-55.5 23.5q-34 0 -54.5 -23.5t-20.5 -60.5z" />
<glyph unicode="&#x1fc;" horiz-adv-x="1882" d="M0 0v135h141l736 1299h864v-355h-156v219h-432v-499h440v-140h-440v-524h442v225h156v-360h-954l-2 135h186v524h-377l-295 -524h178v-135h-487zM672 782h309v549zM1067 1559l147 290h181l-181 -290h-147z" />
<glyph unicode="&#x1fd;" horiz-adv-x="1927" d="M115 326q0 155 119.5 250.5t304.5 95.5q88 0 167.5 -25.5t135.5 -71.5v127q0 111 -75.5 178.5t-195.5 67.5q-87 0 -173.5 -30.5t-155.5 -77.5l-70 118q203 134 426 134q124 0 214 -60.5t136 -157.5q73 102 179 163t233 61q144 0 254 -73.5t166.5 -193.5t56.5 -266v-61 l-831 -4q11 -183 107.5 -286t260.5 -103q95 0 179 43.5t145 121.5l106 -77q-158 -232 -438 -232q-134 0 -242 56.5t-178 156.5q-59 -98 -164 -152.5t-243 -54.5q-190 0 -307 98t-117 255zM289 330q0 -94 77 -157.5t199 -63.5q120 0 202.5 65.5t82.5 159.5q0 92 -81.5 150.5 t-203.5 58.5q-121 0 -198.5 -60t-77.5 -153zM840 1210l147 291h180l-180 -291h-147zM1010 625h655q0 143 -87 238t-226 95q-133 0 -227 -88t-115 -245z" />
<glyph unicode="&#x1fe;" horiz-adv-x="1650" d="M123 729q0 206 86.5 373t248 265.5t367.5 98.5q227 0 402 -120l104 127l107 -91l-105 -127q93 -101 144 -236.5t51 -289.5q0 -212 -85 -384.5t-246.5 -275t-371.5 -102.5q-251 0 -434 146l-123 -150l-106 90l131 160q-170 211 -170 516zM307 729q0 -223 101 -379l716 871 q-129 90 -299 90q-235 0 -376.5 -162t-141.5 -420zM498 242q135 -119 327 -119q234 0 376 170.5t142 435.5q0 239 -120 393zM674 1559l147 290h180l-180 -290h-147z" />
<glyph unicode="&#x1ff;" horiz-adv-x="1294" d="M90 545q0 158 71 284t198.5 197.5t287.5 71.5q177 0 316 -90l77 94l95 -78l-78 -94q147 -157 147 -385q0 -253 -156 -414.5t-401 -161.5q-178 0 -311 88l-78 -94l-94 78l78 94q-152 161 -152 410zM266 545q0 -165 82 -281l516 623q-94 63 -217 63q-169 0 -275 -112.5 t-106 -292.5zM436 178q92 -61 211 -61q169 0 275 118.5t106 309.5q0 147 -78 258zM520 1210l148 291h180l-180 -291h-148z" />
<glyph unicode="&#x218;" horiz-adv-x="1114" d="M123 0v420h127q32 -136 119 -219.5t213 -83.5q110 0 179.5 65t69.5 170q0 66 -38.5 120t-100.5 93t-136.5 76.5t-149 79t-136.5 90t-100.5 120.5t-38.5 161q0 160 103.5 267t269.5 107q182 0 297 -155v123h147v-402h-127q-24 131 -103 211t-196 80q-101 0 -161 -61.5 t-60 -151.5q0 -61 39 -111.5t101 -88t136.5 -73.5t149.5 -77.5t137 -90.5t101 -122.5t39 -163.5q0 -177 -110.5 -294.5t-297.5 -117.5q-206 0 -326 166v-137h-147zM477 -184q0 42 29.5 72t71.5 30q44 0 74 -35.5t30 -87.5q0 -73 -39 -142t-102 -122l-54 51q68 64 82 137h-6 q-37 0 -61.5 30t-24.5 67z" />
<glyph unicode="&#x219;" horiz-adv-x="1030" d="M123 0v324h127q29 -99 110.5 -154t192.5 -55q92 0 149.5 46t57.5 118q0 55 -35 93.5t-90.5 60t-123 39.5t-134.5 41t-122.5 55t-90 91t-33.5 140q1 130 90.5 211.5t229.5 81.5q164 0 270 -129v102h151v-311h-127q-28 95 -102.5 152t-169.5 57q-82 0 -133 -42t-51 -110 q0 -47 27 -81t71.5 -52.5t101 -36.5t116 -31.5t116 -38.5t101 -57t71.5 -87.5t27 -129.5q0 -145 -99.5 -234.5t-257.5 -89.5q-178 0 -289 133v-106h-151zM434 -184q0 42 30 72t71 30q44 0 74 -35.5t30 -87.5q0 -73 -39 -142t-102 -122l-54 51q68 64 82 137h-6 q-37 0 -61.5 30t-24.5 67z" />
<glyph unicode="&#x21a;" horiz-adv-x="1249" d="M66 1032v402h1118v-402h-156v266h-317v-1163h188v-135h-549v135h189v1163h-318v-266h-155zM528 -184q0 42 30 72t71 30q44 0 74 -35.5t30 -87.5q0 -73 -39 -142t-102 -122l-53 51q68 64 82 137h-7q-37 0 -61.5 30t-24.5 67z" />
<glyph unicode="&#x21b;" horiz-adv-x="708" d="M57 930v135h156v223h164v-223h233v-135h-233v-617q0 -76 37.5 -125t103.5 -49q47 0 109 15v-146q-67 -18 -133 -18q-136 0 -208.5 91t-72.5 238v611h-156zM305 -184q0 42 29.5 72t71.5 30q44 0 74 -35.5t30 -87.5q0 -73 -39 -142t-102 -122l-54 51q68 64 82 137h-6 q-37 0 -61.5 30t-24.5 67z" />
<glyph unicode="&#x237;" horiz-adv-x="569" d="M0 -246q18 -2 68 -2q73 0 115 54t42 141v983h-155v135h319v-1124q0 -149 -82.5 -240.5t-220.5 -91.5q-36 0 -86 4v141z" />
<glyph unicode="&#x2c6;" horiz-adv-x="765" d="M102 1210l197 267h168l197 -267h-156l-129 170l-129 -170h-148z" />
<glyph unicode="&#x2c7;" horiz-adv-x="765" d="M102 1477h156l129 -170l129 170h148l-197 -267h-168z" />
<glyph unicode="&#x2d8;" horiz-adv-x="806" d="M143 1456h129q0 -65 31.5 -105t99.5 -40q67 0 99.5 40t32.5 105h129q0 -112 -68.5 -185t-192.5 -73t-192 73t-68 185z" />
<glyph unicode="&#x2d9;" horiz-adv-x="516" d="M143 1366q0 47 33 81t80 34q49 0 83 -33.5t34 -81.5q0 -49 -33.5 -82t-83.5 -33q-48 0 -80.5 33t-32.5 82z" />
<glyph unicode="&#x2da;" horiz-adv-x="647" d="M143 1358q0 77 52.5 128.5t128.5 51.5t128 -51.5t52 -128.5q0 -78 -52.5 -131t-127.5 -53t-128 53t-53 131zM240 1356q0 -42 23 -68t61 -26t61 26t23 68t-23 68t-61 26t-61 -26t-23 -68z" />
<glyph unicode="&#x2db;" horiz-adv-x="686" d="M164 -203q0 75 54.5 140t141.5 100l117 -37q-70 -20 -116 -70.5t-46 -107.5q0 -39 24.5 -65.5t63.5 -26.5q45 0 91 26l49 -104q-66 -51 -166 -51q-92 0 -152.5 53.5t-60.5 142.5z" />
<glyph unicode="&#x2dc;" horiz-adv-x="944" d="M143 1237q3 94 56.5 155.5t136.5 61.5q48 0 101.5 -24t100 -48t78.5 -24q30 0 49.5 24t22.5 62h113q-3 -94 -54.5 -155.5t-134.5 -61.5q-49 0 -102 24t-100.5 48t-81.5 24q-30 0 -49.5 -24t-22.5 -62h-113z" />
<glyph unicode="&#x2dd;" horiz-adv-x="845" d="M123 1210l141 291h170l-178 -291h-133zM412 1210l141 291h170l-178 -291h-133z" />
<glyph unicode="&#x1e80;" horiz-adv-x="2183" d="M20 1298v136h566v-136h-224l297 -1114l340 1250h205l336 -1244l293 1108h-225v136h555v-136h-164l-365 -1306h-207l-333 1206l-340 -1206h-207l-363 1306h-164zM879 1849h180l147 -290h-147z" />
<glyph unicode="&#x1e81;" horiz-adv-x="1832" d="M0 930v135h502v-135h-183l230 -740l280 875h187l284 -875l230 740h-180v135h483v-135h-143l-308 -930h-174l-293 854l-290 -854h-170l-308 930h-147zM705 1501h180l147 -291h-147z" />
<glyph unicode="&#x1e82;" horiz-adv-x="2183" d="M20 1298v136h566v-136h-224l297 -1114l340 1250h205l336 -1244l293 1108h-225v136h555v-136h-164l-365 -1306h-207l-333 1206l-340 -1206h-207l-363 1306h-164zM975 1559l147 290h181l-181 -290h-147z" />
<glyph unicode="&#x1e83;" horiz-adv-x="1832" d="M0 930v135h502v-135h-183l230 -740l280 875h187l284 -875l230 740h-180v135h483v-135h-143l-308 -930h-174l-293 854l-290 -854h-170l-308 930h-147zM801 1210l147 291h180l-180 -291h-147z" />
<glyph unicode="&#x1e84;" horiz-adv-x="2183" d="M20 1298v136h566v-136h-224l297 -1114l340 1250h205l336 -1244l293 1108h-225v136h555v-136h-164l-365 -1306h-207l-333 1206l-340 -1206h-207l-363 1306h-164zM819 1704q0 43 30.5 73.5t74.5 30.5q45 0 74.5 -30.5t29.5 -73.5q0 -45 -29.5 -75t-74.5 -30 q-44 0 -74.5 30.5t-30.5 74.5zM1184 1704q0 43 29.5 73.5t74.5 30.5q44 0 74.5 -30.5t30.5 -73.5q0 -44 -30.5 -74.5t-74.5 -30.5q-45 0 -74.5 30t-29.5 75z" />
<glyph unicode="&#x1e85;" horiz-adv-x="1832" d="M0 930v135h502v-135h-183l230 -740l280 875h187l284 -875l230 740h-180v135h483v-135h-143l-308 -930h-174l-293 854l-290 -854h-170l-308 930h-147zM645 1356q0 43 30.5 73.5t74.5 30.5q45 0 74.5 -30.5t29.5 -73.5q0 -45 -29.5 -75t-74.5 -30q-44 0 -74.5 30.5 t-30.5 74.5zM1010 1356q0 43 29.5 73.5t74.5 30.5q44 0 74.5 -30.5t30.5 -73.5q0 -44 -30.5 -74.5t-74.5 -30.5q-45 0 -74.5 30t-29.5 75z" />
<glyph unicode="&#x1ef2;" horiz-adv-x="1335" d="M20 1298v136h506v-131h-159l317 -529l309 529h-157v131h479v-136h-158l-397 -682v-481h190v-135h-553v135h191v477l-410 686h-158zM473 1849h180l148 -290h-148z" />
<glyph unicode="&#x1ef3;" horiz-adv-x="1189" d="M0 930v135h481v-135h-164l287 -766l283 766h-164v135h467v-135h-141l-390 -1008q-57 -148 -160.5 -230.5t-228.5 -82.5q-77 0 -118 8v154q57 -11 112 -11q81 0 147.5 54t104.5 151l4 10l-379 955h-141zM391 1501h180l148 -291h-148z" />
<glyph unicode="&#x2000;" horiz-adv-x="973" />
<glyph unicode="&#x2001;" horiz-adv-x="1946" />
<glyph unicode="&#x2002;" horiz-adv-x="973" />
<glyph unicode="&#x2003;" horiz-adv-x="1946" />
<glyph unicode="&#x2004;" horiz-adv-x="648" />
<glyph unicode="&#x2005;" horiz-adv-x="486" />
<glyph unicode="&#x2006;" horiz-adv-x="324" />
<glyph unicode="&#x2007;" horiz-adv-x="324" />
<glyph unicode="&#x2008;" horiz-adv-x="243" />
<glyph unicode="&#x2009;" horiz-adv-x="389" />
<glyph unicode="&#x200a;" horiz-adv-x="108" />
<glyph unicode="&#x2010;" horiz-adv-x="727" d="M102 541v151h523v-151h-523z" />
<glyph unicode="&#x2011;" horiz-adv-x="727" d="M102 541v151h523v-151h-523z" />
<glyph unicode="&#x2012;" horiz-adv-x="727" d="M102 541v151h523v-151h-523z" />
<glyph unicode="&#x2013;" horiz-adv-x="1265" d="M102 547v139h1061v-139h-1061z" />
<glyph unicode="&#x2014;" horiz-adv-x="1808" d="M102 547v139h1604v-139h-1604z" />
<glyph unicode="&#x2018;" horiz-adv-x="403" d="M82 1190q0 86 46 167t120 144l61 -59q-80 -80 -94 -162h6q42 0 71.5 -36t29.5 -79q0 -51 -33.5 -84.5t-83.5 -33.5q-53 0 -88 41t-35 102z" />
<glyph unicode="&#x2019;" horiz-adv-x="403" d="M82 1380q0 51 33.5 85t83.5 34q53 0 88 -41t35 -102q0 -86 -46 -167.5t-120 -144.5l-62 60q80 80 94 162h-6q-42 0 -71 35.5t-29 78.5z" />
<glyph unicode="&#x201a;" horiz-adv-x="452" d="M106 104q0 51 33.5 85t83.5 34q53 0 88 -41t35 -102q0 -86 -46 -167t-120 -144l-61 59q80 80 94 162h-6q-43 0 -72 35.5t-29 78.5z" />
<glyph unicode="&#x201c;" horiz-adv-x="718" d="M82 1188q0 86 46 167t120 144l61 -59q-80 -80 -94 -162h6q42 0 71.5 -36t29.5 -79q0 -51 -33.5 -85t-83.5 -34q-53 0 -88 41.5t-35 102.5zM397 1188q0 86 46 167t120 144l62 -59q-81 -81 -95 -162h7q42 0 71 -35.5t29 -79.5q0 -51 -33.5 -85t-83.5 -34q-53 0 -88 41.5 t-35 102.5z" />
<glyph unicode="&#x201d;" horiz-adv-x="718" d="M82 1380q0 51 33.5 85t83.5 34q53 0 88 -41t35 -102q0 -86 -46 -167.5t-120 -144.5l-62 60q80 80 94 162h-6q-42 0 -71 35.5t-29 78.5zM397 1380q0 51 33.5 85t83.5 34q53 0 88 -41t35 -102q0 -86 -46 -167.5t-120 -144.5l-61 60q80 80 94 162h-6q-43 0 -72 35.5 t-29 78.5z" />
<glyph unicode="&#x201e;" horiz-adv-x="768" d="M106 106q0 51 33.5 85t83.5 34q53 0 88 -41t35 -102q0 -86 -46 -167t-120 -144l-61 59q80 80 94 162h-6q-43 0 -72 35.5t-29 78.5zM422 106q0 51 33.5 85t83.5 34q53 0 88 -41t35 -102q0 -86 -46 -167t-120 -144l-62 59q80 80 94 162h-6q-42 0 -71 35.5t-29 78.5z" />
<glyph unicode="&#x2020;" horiz-adv-x="868" d="M123 922v143l246 -21l-15 390h160l-14 -390l245 21v-143l-245 20l14 -1034h-160l15 1034z" />
<glyph unicode="&#x2021;" horiz-adv-x="864" d="M123 383v141l246 -20v440l-246 -20v141l246 -21l-15 390h156l-14 -390l245 21v-141l-245 20v-440l245 20v-141l-245 20l14 -495h-156l15 495z" />
<glyph unicode="&#x2022;" horiz-adv-x="1118" d="M211 690q0 142 106 246t248 104t243 -103.5t101 -246.5q0 -142 -101 -245t-243 -103t-248 104t-106 244z" />
<glyph unicode="&#x2026;" horiz-adv-x="1568" d="M106 98q0 51 38 88t89 37t87 -37t36 -88t-36 -88t-87 -37t-89 37t-38 88zM659 98q0 51 38 88t89 37t87 -37t36 -88t-36 -88t-87 -37t-89 37t-38 88zM1212 98q0 51 38 88t89 37t87 -37t36 -88t-36 -88t-87 -37t-89 37t-38 88z" />
<glyph unicode="&#x202f;" horiz-adv-x="389" />
<glyph unicode="&#x2030;" horiz-adv-x="2181" d="M123 1141q0 146 74.5 232.5t212.5 86.5t212 -86.5t74 -232.5q0 -151 -73.5 -239.5t-212.5 -88.5t-213 89t-74 239zM172 0l1012 1434h164l-1012 -1434h-164zM258 1141q0 -99 37.5 -156t114.5 -57t114 56.5t37 156.5q0 202 -151 202q-77 0 -114.5 -53t-37.5 -149zM831 301 q0 146 74.5 233t212.5 87t212.5 -87t74.5 -233q0 -150 -74 -239t-213 -89t-213 89t-74 239zM967 301q0 -100 37 -156.5t114 -56.5t114.5 57t37.5 156q0 96 -37.5 149.5t-114.5 53.5t-114 -53.5t-37 -149.5zM1485 301q0 146 74.5 233t212.5 87t212 -87t74 -233 q0 -151 -73.5 -239.5t-212.5 -88.5t-213 89t-74 239zM1620 301q0 -99 37.5 -156t114.5 -57t114 56.5t37 156.5q0 96 -37 149.5t-114 53.5t-114.5 -53.5t-37.5 -149.5z" />
<glyph unicode="&#x2039;" horiz-adv-x="542" d="M86 598l254 377h158l-254 -377l254 -375h-158z" />
<glyph unicode="&#x203a;" horiz-adv-x="542" d="M45 223l254 377l-254 375h158l254 -375l-254 -377h-158z" />
<glyph unicode="&#x2044;" horiz-adv-x="860" d="M-43 -84l797 1602h149l-797 -1602h-149z" />
<glyph unicode="&#x205f;" horiz-adv-x="486" />
<glyph unicode="&#x2074;" horiz-adv-x="778" d="M57 844v84l387 510h111v-494h117v-100h-117v-117h117v-100h-373v100h141v117h-383zM188 944h252v332z" />
<glyph unicode="&#x20ac;" horiz-adv-x="1392" d="M57 532l21 119h178q-2 25 -2 76q0 34 4 100h-201l21 119h196q44 238 182 379t349 141q208 0 336 -147v115h147v-342h-127q-35 104 -129 163.5t-219 59.5q-146 0 -241 -98t-130 -271h602l-20 -119h-598q-4 -58 -4 -90q0 -57 2 -86h567l-20 -119h-531q35 -189 135.5 -299 t260.5 -110q113 0 206 62t142 161l123 -80q-69 -138 -192.5 -218.5t-276.5 -80.5q-239 0 -384.5 153t-185.5 412h-211z" />
<glyph unicode="&#x2116;" horiz-adv-x="2451" d="M102 0v135h177v1163h-177v136h355l792 -1174v1038h-176v136h508v-136h-176v-1298h-182l-789 1178v-1043h176v-135h-508zM1634 1081q0 159 100.5 258t254.5 99q153 0 254.5 -99t101.5 -258q0 -168 -100 -268t-256 -100t-255.5 100t-99.5 268zM1653 463v135h674v-135h-674z M1776 1079q0 -109 57.5 -175t155.5 -66q99 0 157 66t58 175q0 103 -58.5 168.5t-156.5 65.5q-97 0 -155 -65.5t-58 -168.5z" />
<glyph unicode="&#x2122;" horiz-adv-x="1853" d="M98 1264v217h607v-217h-103v114h-141v-516h104v-98h-327v98h104v516h-141v-114h-103zM776 764v102h98v512h-98v103h260l226 -477l217 477h260v-103h-99v-512h99v-102h-307v102h100v492l-232 -500h-92l-229 500v-492h100v-102h-303z" />
<glyph unicode="&#x2212;" horiz-adv-x="1208" d="M123 569v138h962v-138h-962z" />
<glyph unicode="&#x25fc;" horiz-adv-x="1064" d="M0 0v1065h1065v-1065h-1065z" />
<glyph unicode="&#xf6c3;" horiz-adv-x="0" d="M-348 -184q0 43 29.5 72.5t70.5 29.5q44 0 74.5 -35.5t30.5 -87.5q0 -73 -39.5 -142t-102.5 -122l-53 51q68 64 82 137h-6q-37 0 -61.5 30t-24.5 67z" />
<glyph horiz-adv-x="727" d="M102 651v152h523v-152h-523z" />
<glyph horiz-adv-x="1265" d="M102 666v139h1061v-139h-1061z" />
<glyph horiz-adv-x="1808" d="M102 666v139h1604v-139h-1604z" />
<glyph horiz-adv-x="870" d="M86 719l254 377h158l-254 -377l254 -375h-158zM414 719l254 377h157l-254 -377l254 -375h-157z" />
<glyph horiz-adv-x="870" d="M45 344l254 377l-254 375h158l254 -375l-254 -377h-158zM373 344l254 377l-254 375h157l254 -375l-254 -377h-157z" />
<glyph horiz-adv-x="542" d="M86 733l254 377h158l-254 -377l254 -375h-158z" />
<glyph horiz-adv-x="542" d="M45 358l254 375l-254 377h158l254 -377l-254 -375h-158z" />
<glyph horiz-adv-x="659" d="M152 713q0 248 94.5 481.5t275.5 433.5l96 -76q-294 -414 -294 -839q0 -212 76 -426t218 -414l-96 -76q-181 200 -275.5 434t-94.5 482z" />
<glyph horiz-adv-x="659" d="M41 -127q295 416 295 840q0 423 -295 839l96 76q181 -200 276 -433.5t95 -481.5t-95 -482t-276 -434z" />
<glyph horiz-adv-x="598" d="M205 -215v1855h332v-135h-170v-1585h170v-135h-332z" />
<glyph horiz-adv-x="598" d="M61 -80h170v1585h-170v135h332v-1855h-332v135z" />
<glyph horiz-adv-x="665" d="M123 643v139q149 0 149 215v314q0 329 332 329v-141q-170 0 -170 -180v-338q0 -108 -43.5 -177.5t-114.5 -90.5q71 -21 114.5 -91t43.5 -178v-338q0 -180 170 -180v-141q-332 0 -332 330v313q0 215 -149 215z" />
<glyph horiz-adv-x="647" d="M246 -336v2026h155v-2026h-155z" />
<glyph horiz-adv-x="665" d="M61 -74q170 0 170 180v338q0 108 43.5 178t114.5 91q-71 21 -114.5 90.5t-43.5 177.5v338q0 180 -170 180v141q332 0 332 -329v-314q0 -215 150 -215v-139q-150 0 -150 -215v-313q0 -330 -332 -330v141z" />
<glyph horiz-adv-x="819" d="M49 -164l621 1757h149l-620 -1757h-150z" />
<glyph horiz-adv-x="819" d="M0 1593h150l620 -1757h-149z" />
<glyph horiz-adv-x="598" d="M184 1393q0 47 34 80.5t81 33.5t81 -33.5t34 -80.5q0 -46 -34 -79.5t-81 -33.5t-81 33.5t-34 79.5zM207 0l20 1100h144l20 -1100h-184z" />
<glyph horiz-adv-x="921" d="M94 350q0 68 20 127.5t52.5 103.5t72 84t78.5 75.5t71.5 70.5t52.5 77.5t20 88.5v110h160v-116q0 -56 -19.5 -107t-51 -90.5t-70 -77t-76.5 -74.5t-69.5 -75.5t-51 -87.5t-19.5 -103q0 -105 66 -172t180 -67q171 0 250 172l129 -60q-16 -45 -44.5 -87.5t-74 -83.5 t-114 -66t-150.5 -25q-188 0 -300 107.5t-112 275.5zM422 1380q0 47 34 81t81 34t80.5 -34t33.5 -81t-33.5 -80.5t-80.5 -33.5t-81 33.5t-34 80.5z" />
<glyph horiz-adv-x="540" d="M145 731q0 51 38 88t89 37t87 -37t36 -88t-36 -88t-87 -37t-89 37t-38 88z" />
<glyph horiz-adv-x="1118" d="M211 723q0 142 106 246t248 104t243 -103.5t101 -246.5q0 -142 -101 -245t-243 -103t-248 104t-106 244z" />
<glyph horiz-adv-x="1153" d="M123 723q0 179 23.5 310t75.5 227t141 144t215 48t214.5 -48t140 -144t74.5 -226.5t23 -310.5q0 -143 -14 -256t-46.5 -207t-84.5 -155.5t-129 -95.5t-178 -34q-126 0 -215 51t-141 150.5t-75.5 233t-23.5 313.5zM291 723q0 -111 6 -193t24.5 -161.5t49.5 -130t83 -81 t124 -30.5q60 0 106 20t77 60.5t51.5 91t31 121.5t14.5 141.5t4 161.5q0 110 -6 190t-23.5 157t-48 124.5t-82.5 76.5t-124 29t-124 -29t-83.5 -77t-49.5 -125t-24 -157t-6 -189z" />
<glyph horiz-adv-x="1153" d="M123 1135l473 307l143 -25v-1278h351v-139h-889v139h374v1110l-372 -241z" />
<glyph horiz-adv-x="1153" d="M127 0v61q0 92 37 181.5t96 163t130 144.5t142 136.5t130 127t96 127t37 126.5q0 103 -65.5 168t-178.5 65q-99 0 -173.5 -68t-111.5 -167l-139 65q49 142 161.5 234t268.5 92q182 0 296 -108t114 -271q0 -81 -34.5 -161.5t-90 -148.5t-123.5 -133.5t-137 -127.5 t-127.5 -120.5t-99.5 -122.5t-48 -124h531v234h151v-373h-862z" />
<glyph horiz-adv-x="1153" d="M106 285l148 51q29 -94 107.5 -151.5t189.5 -57.5q125 0 208 81t83 206q0 126 -88 203t-248 77h-109l-30 97l419 507h-473v-186h-151v322h799v-140l-383 -458h8q179 0 305.5 -116.5t126.5 -301.5q0 -189 -135 -318t-330 -129q-173 0 -290 83.5t-157 230.5z" />
<glyph horiz-adv-x="1153" d="M74 401v115l635 918h165v-897h185v-136h-185v-266h185v-135h-561v135h223v266h-647zM252 537h469v690z" />
<glyph horiz-adv-x="1153" d="M119 285l145 59q37 -98 118.5 -157.5t199.5 -59.5q129 0 209.5 91.5t80.5 232.5q0 138 -81.5 226.5t-221.5 88.5q-153 0 -247 -94l-129 47l45 715h731v-306h-152v166h-438l-33 -448q108 76 248 76q198 0 326.5 -131t128.5 -332q0 -208 -133 -348t-336 -140 q-175 0 -290 82.5t-171 231.5z" />
<glyph horiz-adv-x="1153" d="M135 672v10q0 132 17 245.5t56 213t97.5 169.5t146.5 110t199 40q173 0 322 -100l-68 -131q-118 78 -260 78q-172 0 -255 -143.5t-83 -407.5q44 77 121.5 125.5t187.5 48.5q192 0 308 -131.5t116 -331.5q0 -225 -119.5 -360.5t-326.5 -135.5q-237 0 -348 171.5 t-111 529.5zM307 471q0 -88 31 -164.5t99 -128t161 -51.5q140 0 205 91.5t65 244.5q0 142 -66 228.5t-206 86.5q-137 0 -213 -84.5t-76 -222.5z" />
<glyph horiz-adv-x="1153" d="M106 1065v369h961v-123l-551 -1311h-182l555 1286h-627v-221h-156z" />
<glyph horiz-adv-x="1153" d="M123 406q0 133 71.5 230t170.5 130q-82 37 -139.5 120.5t-57.5 194.5q0 167 114.5 271t292.5 104q179 0 294.5 -104t115.5 -271q0 -111 -57.5 -194.5t-139.5 -120.5q99 -33 170.5 -130t71.5 -230q0 -192 -123.5 -313.5t-331.5 -121.5q-207 0 -329.5 121.5t-122.5 313.5z M293 406q0 -124 72 -205.5t210 -81.5q139 0 212 81.5t73 205.5q0 125 -77.5 200.5t-207.5 75.5t-206 -75.5t-76 -200.5zM334 1079q0 -102 65.5 -172.5t175.5 -70.5t177 70.5t67 172.5q0 104 -63 168t-181 64q-117 0 -179 -64t-62 -168z" />
<glyph horiz-adv-x="1153" d="M109 985q0 210 123.5 340.5t326.5 130.5q229 0 343 -159.5t114 -485.5v-23q0 -817 -504 -817q-106 0 -199 30t-155 83l82 129q50 -39 121 -63.5t147 -24.5q165 0 251.5 149t86.5 422q-40 -74 -120 -121t-181 -47q-204 0 -320 127t-116 330zM276 989q0 -138 74 -223.5 t209 -85.5q131 0 206 85t75 224q0 132 -77 221.5t-200 89.5q-138 0 -212.5 -86t-74.5 -225z" />
</font>
</defs>
</svg>
