<?xml version="1.0" encoding="UTF-8" standalone="no"?>
<!-- Generator: Adobe Illustrator 9.0, SVG Export Plug-In  -->
<svg
   xmlns:dc="http://purl.org/dc/elements/1.1/"
   xmlns:cc="http://creativecommons.org/ns#"
   xmlns:rdf="http://www.w3.org/1999/02/22-rdf-syntax-ns#"
   xmlns:svg="http://www.w3.org/2000/svg"
   xmlns="http://www.w3.org/2000/svg"
   xmlns:sodipodi="http://sodipodi.sourceforge.net/DTD/sodipodi-0.dtd"
   xmlns:inkscape="http://www.inkscape.org/namespaces/inkscape"
   width="47.000000mm"
   height="56.000000mm"
   viewBox="0 0 432.071 445.383"
   xml:space="preserve"
   id="svg1358"
   sodipodi:version="0.32"
   inkscape:version="0.46"
   sodipodi:docname="pgfr_logo_texte.svg"
   sodipodi:docbase="/opt/diskD/PGFr/Graphiques"
   inkscape:export-filename="/opt/diskD/Perso/pgfr/Graphiques/pgfr_logo_page.jpg"
   inkscape:export-xdpi="600"
   inkscape:export-ydpi="600"
   version="1.0"
   x="0.0000000"
   y="0.0000000"
   inkscape:output_extension="org.inkscape.output.svg.inkscape"><metadata
   id="metadata1389"><rdf:RDF><cc:Work
       rdf:about=""><dc:format>image/svg+xml</dc:format><dc:type
         rdf:resource="http://purl.org/dc/dcmitype/StillImage" /></cc:Work></rdf:RDF></metadata><defs
   id="defs1387"><inkscape:perspective
   sodipodi:type="inkscape:persp3d"
   inkscape:vp_x="0 : 99.212601 : 1"
   inkscape:vp_y="0 : 1000 : 0"
   inkscape:vp_z="166.53543 : 99.212601 : 1"
   inkscape:persp3d-origin="83.267715 : 66.141734 : 1"
   id="perspective58" /><marker
   inkscape:stockid="Arrow1Lstart"
   orient="auto"
   refY="0.0"
   refX="0.0"
   id="Arrow1Lstart"
   style="overflow:visible"><path
     id="path2388"
     d="M 0.0,0.0 L 5.0,-5.0 L -12.5,0.0 L 5.0,5.0 L 0.0,0.0 z "
     style="fill-rule:evenodd;stroke:#000000;stroke-width:1.0pt;marker-start:none"
     transform="scale(0.8)" /></marker><marker
   inkscape:stockid="Tail"
   orient="auto"
   refY="0.0"
   refX="0.0"
   id="Tail"
   style="overflow:visible"><g
     id="g2340"
     transform="scale(-1.2)"><path
       id="path2342"
       d="M -3.8048674,-3.9585227 L 0.54352094,-0.00068114835"
       style="fill:none;fill-rule:evenodd;stroke:#000000;stroke-width:0.8;marker-start:none;marker-end:none;stroke-linecap:round" /><path
       id="path2344"
       d="M -1.2866832,-3.9585227 L 3.0617053,-0.00068114835"
       style="fill:none;fill-rule:evenodd;stroke:#000000;stroke-width:0.8;marker-start:none;marker-end:none;stroke-linecap:round" /><path
       id="path2346"
       d="M 1.3053582,-3.9585227 L 5.6537466,-0.00068114835"
       style="fill:none;fill-rule:evenodd;stroke:#000000;stroke-width:0.8;marker-start:none;marker-end:none;stroke-linecap:round" /><path
       id="path2348"
       d="M -3.8048674,4.1775838 L 0.54352094,0.21974226"
       style="fill:none;fill-rule:evenodd;stroke:#000000;stroke-width:0.8;marker-start:none;marker-end:none;stroke-linecap:round" /><path
       id="path2350"
       d="M -1.2866832,4.1775838 L 3.0617053,0.21974226"
       style="fill:none;fill-rule:evenodd;stroke:#000000;stroke-width:0.8;marker-start:none;marker-end:none;stroke-linecap:round" /><path
       id="path2352"
       d="M 1.3053582,4.1775838 L 5.6537466,0.21974226"
       style="fill:none;fill-rule:evenodd;stroke:#000000;stroke-width:0.8;marker-start:none;marker-end:none;stroke-linecap:round" /></g></marker><marker
   inkscape:stockid="Torso"
   orient="auto"
   refY="0.0"
   refX="0.0"
   id="Torso"
   style="overflow:visible"><g
     id="g2221"
     transform="scale(0.7)"><path
       id="path2223"
       d="M -4.7792281,-3.2395420 C -2.4288541,-2.8736027 0.52103922,-1.3019943 0.25792722,0.38794346 C -0.0051877922,2.0778819 -2.2126741,2.6176539 -4.5630471,2.2517169 C -6.9134221,1.8857769 -8.5210350,0.75201414 -8.2579220,-0.93792336 C -7.9948090,-2.6278615 -7.1296041,-3.6054813 -4.7792281,-3.2395420 z "
       style="fill:none;fill-opacity:0.75000000;fill-rule:evenodd;stroke:#000000;stroke-width:1.2500000;marker-start:none;marker-mid:none;marker-end:none" /><path
       id="path2225"
       d="M 4.4598789,0.088665736 C -2.5564571,-4.3783320 5.2248769,-3.9061806 -0.84829578,-8.7197331"
       style="fill:none;fill-opacity:0.75000000;fill-rule:evenodd;stroke:#000000;stroke-width:1.0000000pt;marker-end:none" /><path
       id="path2227"
       d="M 4.9298719,0.057520736 C -1.3872731,1.7494689 1.8027579,5.4782079 -4.9448731,7.5462725"
       style="fill:none;fill-opacity:0.75000000;fill-rule:evenodd;stroke:#000000;stroke-width:1.0000000pt;marker-start:none;marker-end:none" /><rect
       id="rect2229"
       transform="matrix(0.527536,-0.849533,0.887668,0.460484,0.000000,0.000000)"
       y="-1.7408575"
       x="-10.391706"
       height="2.7608147"
       width="2.6366582"
       style="fill-rule:evenodd;stroke-width:1.0000000pt;marker-end:none" /><rect
       id="rect2231"
       transform="matrix(0.671205,-0.741272,0.790802,0.612072,0.000000,0.000000)"
       y="-7.9629307"
       x="4.9587269"
       height="2.8614161"
       width="2.7327356"
       style="fill-rule:evenodd;stroke-width:1.0000000pt;marker-end:none" /><path
       id="path2233"
       transform="matrix(6.793608e-17,-1.109517,1.109517,6.793608e-17,25.96648,19.71619)"
       d="M 16.779951 -28.685045 A 0.60731727 0.60731727 0 1 0 15.565317,-28.685045 A 0.60731727 0.60731727 0 1 0 16.779951 -28.685045 z"
       sodipodi:ry="0.60731727"
       sodipodi:rx="0.60731727"
       sodipodi:cy="-28.685045"
       sodipodi:cx="16.172634"
       style="fill:#ff0000;fill-opacity:0.75000000;fill-rule:evenodd;stroke:#000000;stroke-width:1.0000000pt;marker-start:none;marker-end:none"
       sodipodi:type="arc" /><path
       id="path2235"
       transform="matrix(6.793608e-17,-1.109517,1.109517,6.793608e-17,26.82450,16.99126)"
       d="M 16.779951 -28.685045 A 0.60731727 0.60731727 0 1 0 15.565317,-28.685045 A 0.60731727 0.60731727 0 1 0 16.779951 -28.685045 z"
       sodipodi:ry="0.60731727"
       sodipodi:rx="0.60731727"
       sodipodi:cy="-28.685045"
       sodipodi:cx="16.172634"
       style="fill:#ff0000;fill-opacity:0.75000000;fill-rule:evenodd;stroke:#000000;stroke-width:1.0000000pt;marker-start:none;marker-end:none"
       sodipodi:type="arc" /></g></marker>
		
		
		
		
		
		
		
		
		
		
		
		
	

	

		
		
		
		
		
		
		
		
		
		
		
		
	


	









</defs><sodipodi:namedview
   inkscape:window-height="717"
   inkscape:window-width="876"
   inkscape:pageshadow="2"
   inkscape:pageopacity="0.0"
   borderopacity="1.0"
   bordercolor="#666666"
   pagecolor="#ffffff"
   id="base"
   inkscape:zoom="2.0000000"
   inkscape:cx="177.31034"
   inkscape:cy="59.053721"
   inkscape:window-x="109"
   inkscape:window-y="0"
   inkscape:current-layer="svg1358"
   inkscape:document-units="cm"
   showgrid="false" />
	
	
<g
   inkscape:groupmode="layer"
   id="layer1"
   inkscape:label="francophonie" /><g
   id="orginal"
   style="fill-rule:nonzero;stroke:#000000;stroke-miterlimit:4.0000000"
   transform="matrix(0.100000,0.000000,0.000000,0.100000,194.4320,200.7485)">
	</g><path
   d=""
   id="path28"
   style="fill:none;fill-rule:nonzero;stroke:#ffffff;stroke-width:0.22770230;stroke-linecap:round;stroke-linejoin:round;stroke-miterlimit:4.0000000" /><g
   id="g1734"
   inkscape:label="calc1"
   transform="matrix(0.100000,0.000000,0.000000,0.100000,245.4492,201.0562)" /><g
   id="g1736"
   style="fill-rule:nonzero;stroke:#000000;stroke-miterlimit:4.0000000"
   transform="matrix(0.100000,0.000000,0.000000,0.100000,245.4492,201.0562)">
	</g><path
   sodipodi:type="arc"
   style="fill:#ff0000;fill-opacity:0.75000000;fill-rule:evenodd;stroke:#000000;stroke-width:1.0000000px;stroke-linecap:butt;stroke-linejoin:miter;stroke-opacity:1.0000000"
   id="path1526"
   sodipodi:cx="200.06509"
   sodipodi:cy="398.93933"
   sodipodi:rx="0.0000000"
   sodipodi:ry="0.0000000"
   d="M 200.06509,398.93933 A 0.0000000,0.0000000 0 0 0 200.06509,398.93933 L 200.06509,398.93933 z"
   sodipodi:start="0.0000000"
   sodipodi:end="-1.0000000"
   transform="matrix(0.100000,0.000000,0.000000,0.100000,245.4492,201.0562)" /><path
   d=""
   id="path1897"
   style="fill:none;fill-rule:nonzero;stroke:#ffffff;stroke-width:0.22770230;stroke-linecap:round;stroke-linejoin:round;stroke-miterlimit:4.0000000" /><path
   sodipodi:type="arc"
   style="fill:#ff0000;fill-opacity:0.75000000;fill-rule:evenodd;stroke:#000000;stroke-width:1.0000000px;stroke-linecap:butt;stroke-linejoin:miter;stroke-opacity:1.0000000"
   id="path1905"
   sodipodi:cx="200.06509"
   sodipodi:cy="398.93933"
   sodipodi:rx="0.0000000"
   sodipodi:ry="0.0000000"
   d="M 200.06509,398.93933 A 0.0000000,0.0000000 0 0 0 200.06509,398.93933 L 200.06509,398.93933 z"
   sodipodi:start="0.0000000"
   sodipodi:end="-1.0000000"
   transform="matrix(0.100000,0.000000,0.000000,0.100000,295.4616,200.1772)" /><g
   id="g2214"
   transform="matrix(8.210430e-2,0.000000,0.000000,8.654980e-2,243.5427,203.2265)"
   inkscape:export-filename="D:\Documentation\Images\francophant3.png"
   inkscape:export-xdpi="84"
   inkscape:export-ydpi="84" />





<path
   sodipodi:type="arc"
   style="fill:#ff0000;fill-opacity:0.75000000;fill-rule:evenodd;stroke:#000000;stroke-width:1.0000000px;stroke-linecap:butt;stroke-linejoin:miter;stroke-opacity:1.0000000"
   id="path2247"
   sodipodi:cx="200.06509"
   sodipodi:cy="398.93933"
   sodipodi:rx="0.0000000"
   sodipodi:ry="0.0000000"
   d="M 200.06509,398.93933 A 0.0000000,0.0000000 0 0 0 200.06509,398.93933 L 200.06509,398.93933 z"
   sodipodi:start="0.0000000"
   sodipodi:end="-1.0000000"
   transform="matrix(0.100000,0.000000,0.000000,0.100000,242.0534,199.1274)" /><g
   id="g2167"
   transform="translate(0.7647555,-4.3626584)"
   inkscape:export-filename="/opt/home/sas/pgfr/svn/materials/advocacy/trunk/logos/logo_pgfr_txt_300.png"
   inkscape:export-xdpi="300"
   inkscape:export-ydpi="300"><path
     inkscape:export-ydpi="203.61424"
     inkscape:export-xdpi="203.61424"
     inkscape:export-filename="/opt/diskD/Perso/pgfr/Graphiques/logo_pgfr_big.png"
     sodipodi:open="true"
     inkscape:label="#path1347"
     sodipodi:end="1.5030004"
     sodipodi:start="0.20711023"
     transform="matrix(2.647417,-0.730865,0.662731,2.664274,610.0412,19.21318)"
     d="M -91.316922,24.679295 A 60.998566,60.998566 0 0 1 -146.87961,72.994428"
     sodipodi:ry="60.998566"
     sodipodi:rx="60.998566"
     sodipodi:cy="12.135992"
     sodipodi:cx="-151.0119"
     id="path2400"
     style="fill:none;fill-opacity:1;fill-rule:evenodd;stroke:#9e0075;stroke-width:7.40240002;stroke-linecap:butt;stroke-linejoin:miter;stroke-miterlimit:4;stroke-dasharray:none;stroke-dashoffset:0;stroke-opacity:1"
     sodipodi:type="arc" /><path
     inkscape:export-ydpi="203.61424"
     inkscape:export-xdpi="203.61424"
     inkscape:export-filename="/opt/diskD/Perso/pgfr/Graphiques/logo_pgfr_big.png"
     sodipodi:open="true"
     inkscape:label="#path1347"
     sodipodi:end="1.5030004"
     sodipodi:start="0.20711023"
     transform="matrix(1.600607,2.231824,-2.271185,1.542493,491.7421,500.2313)"
     d="M -91.316922,24.679295 A 60.998566,60.998566 0 0 1 -146.87961,72.994428"
     sodipodi:ry="60.998566"
     sodipodi:rx="60.998566"
     sodipodi:cy="12.135992"
     sodipodi:cx="-151.0119"
     id="path2402"
     style="fill:none;fill-opacity:1;fill-rule:evenodd;stroke:#ff0000;stroke-width:7.40240002;stroke-linecap:butt;stroke-linejoin:miter;stroke-miterlimit:4;stroke-dasharray:none;stroke-dashoffset:0;stroke-opacity:1"
     sodipodi:type="arc" /><path
     inkscape:export-ydpi="203.61424"
     inkscape:export-xdpi="203.61424"
     inkscape:export-filename="/opt/diskD/Perso/pgfr/Graphiques/logo_pgfr_big.png"
     sodipodi:open="true"
     inkscape:label="#path1347"
     sodipodi:end="1.5030004"
     sodipodi:start="0.20711023"
     transform="matrix(-2.575043,-0.955057,1.020186,-2.54888,-208.2616,77.8631)"
     d="M -91.316922,24.679295 A 60.998566,60.998566 0 0 1 -146.87961,72.994428"
     sodipodi:ry="60.998566"
     sodipodi:rx="60.998566"
     sodipodi:cy="12.135992"
     sodipodi:cx="-151.0119"
     id="path2406"
     style="fill:none;fill-opacity:1;fill-rule:evenodd;stroke:#ffcc00;stroke-width:7.40240002;stroke-linecap:butt;stroke-linejoin:miter;stroke-miterlimit:4;stroke-dasharray:none;stroke-dashoffset:0;stroke-opacity:1"
     sodipodi:type="arc" /><path
     inkscape:export-ydpi="203.61424"
     inkscape:export-xdpi="203.61424"
     inkscape:export-filename="/opt/diskD/Perso/pgfr/Graphiques/logo_pgfr_big.png"
     sodipodi:open="true"
     inkscape:label="#path1347"
     sodipodi:end="1.5030004"
     sodipodi:start="0.20711023"
     transform="matrix(5.564834e-2,-2.745886,2.742582,0.12576,172.4211,-246.4873)"
     d="M -91.316922,24.679295 A 60.998566,60.998566 0 0 1 -146.87961,72.994428"
     sodipodi:ry="60.998566"
     sodipodi:rx="60.998566"
     sodipodi:cy="12.135992"
     sodipodi:cx="-151.0119"
     id="path2410"
     style="fill:none;fill-opacity:1;fill-rule:evenodd;stroke:#009920;stroke-width:7.40240002;stroke-linecap:butt;stroke-linejoin:miter;stroke-miterlimit:4;stroke-dasharray:none;stroke-dashoffset:0;stroke-opacity:1"
     sodipodi:type="arc" /><path
     inkscape:export-ydpi="203.61424"
     inkscape:export-xdpi="203.61424"
     inkscape:export-filename="/opt/diskD/Perso/pgfr/Graphiques/logo_pgfr_big.png"
     sodipodi:open="true"
     inkscape:label="#path1347"
     sodipodi:end="1.5030004"
     sodipodi:start="0.20711023"
     transform="matrix(-1.843516,-2.035787,-1.987295,1.894261,-42.5869,-129.274)"
     d="M -91.316922,24.679295 A 60.998566,60.998566 0 0 1 -146.87961,72.994428"
     sodipodi:ry="60.998566"
     sodipodi:rx="60.998566"
     sodipodi:cy="12.135992"
     sodipodi:cx="-151.0119"
     id="path2404"
     style="fill:none;fill-opacity:1;fill-rule:evenodd;stroke:#0099cc;stroke-width:7.40240002;stroke-linecap:butt;stroke-linejoin:miter;stroke-miterlimit:4;stroke-dasharray:none;stroke-dashoffset:0;stroke-opacity:1"
     sodipodi:type="arc" /><g
     inkscape:export-ydpi="203.61424"
     inkscape:export-xdpi="203.61424"
     inkscape:export-filename="/opt/diskD/Perso/pgfr/Graphiques/logo_pgfr_big.png"
     transform="matrix(0.647432,0,0,0.684238,67.0054,45.45835)"
     style="fill:none;fill-rule:nonzero;stroke:#ffffff;stroke-width:12.46510029;stroke-linecap:round;stroke-linejoin:round;stroke-miterlimit:4"
     id="g2226">
		<path
   id="path6"
   d="M 323.205,324.227 C 326.038,300.626 325.189,297.165 342.768,300.988 L 347.231,301.38 C 360.748,301.995 378.43,299.206 388.818,294.38 C 411.18,284.004 424.44,266.68 402.39,271.232 C 352.093,281.608 348.635,264.577 348.635,264.577 C 401.746,185.774 423.948,85.741 404.784,61.255 C 352.514,-5.534 262.036,26.049 260.522,26.869 L 260.04,26.958 C 250.102,24.896 238.98,23.664 226.486,23.462 C 203.725,23.088 186.454,29.429 173.353,39.366 C 173.353,39.366 11.945,-27.132 19.454,122.994 C 21.051,154.93 65.231,364.649 117.924,301.304 C 137.183,278.141 155.795,258.556 155.795,258.556 C 165.037,264.696 176.102,267.828 187.707,266.703 L 188.604,265.938 C 188.323,268.814 188.447,271.627 188.963,274.957 C 175.391,290.124 179.379,292.787 152.24,298.373 C 124.783,304.032 140.914,314.107 151.443,316.74 C 164.211,319.933 193.748,324.456 213.711,296.516 L 212.916,299.704 C 218.241,303.964 217.881,330.323 218.636,349.156 C 219.392,367.99 220.653,385.565 224.492,395.927 C 228.331,406.287 232.861,432.977 268.528,425.333 C 298.337,418.945 321.128,409.751 323.205,324.226"
   style="fill:#000000;stroke:#000000;stroke-width:37.39530182;stroke-linecap:butt;stroke-linejoin:miter" />
		<path
   id="path8"
   d="M 402.395,271.23 C 352.093,281.606 348.635,264.575 348.635,264.575 C 401.746,185.767 423.948,85.732 404.788,61.249 C 352.518,-5.536 262.036,26.049 260.526,26.869 L 260.04,26.956 C 250.102,24.893 238.98,23.664 226.48,23.46 C 203.719,23.087 186.454,29.427 173.353,39.362 C 173.353,39.362 11.942,-27.133 19.449,122.992 C 21.046,154.93 65.225,364.649 117.92,301.304 C 137.18,278.141 155.789,258.556 155.789,258.556 C 165.032,264.696 176.097,267.828 187.697,266.703 L 188.598,265.938 C 188.318,268.814 188.446,271.627 188.959,274.957 C 175.384,290.124 179.373,292.787 152.236,298.373 C 124.777,304.032 140.908,314.107 151.44,316.74 C 164.208,319.933 193.747,324.456 213.706,296.516 L 212.91,299.704 C 218.229,303.964 221.964,327.415 221.338,348.673 C 220.712,369.932 220.294,384.527 224.485,395.927 C 228.676,407.327 232.853,432.977 268.527,425.333 C 298.336,418.945 313.783,402.391 315.932,374.778 C 317.457,355.147 320.908,358.049 321.126,340.498 L 323.894,332.189 C 327.086,305.578 324.401,296.993 342.766,300.986 L 347.229,301.378 C 360.746,301.993 378.437,299.204 388.82,294.378 C 411.178,284.002 424.438,266.678 402.393,271.23 L 402.395,271.23 z"
   style="fill:#336791;stroke:none" />
		<path
   id="path10"
   d="M 215.866,286.484 C 214.481,336 216.214,385.861 221.059,397.979 C 225.907,410.097 236.282,433.667 271.959,426.024 C 301.765,419.634 312.61,407.268 317.316,379.973 C 320.782,359.891 327.464,304.119 328.321,292.692" />
		<path
   id="path12"
   d="M 173.104,38.256 C 173.104,38.256 11.583,-27.76 19.092,122.365 C 20.689,154.303 64.871,364.029 117.565,300.681 C 136.821,277.515 154.236,259.346 154.236,259.346" />
		<path
   id="path14"
   d="M 260.349,26.207 C 254.758,27.96 350.197,-8.682 404.436,60.624 C 423.595,85.108 401.393,185.143 348.283,263.953" />
		<path
   id="path16"
   d="M 348.282,263.953 C 348.282,263.953 351.743,280.989 402.046,270.606 C 424.086,266.054 410.822,283.38 388.469,293.761 C 370.124,302.275 328.995,304.457 328.323,292.692 C 326.594,262.337 349.97,271.559 348.283,263.953 C 346.758,257.103 336.304,250.38 329.389,233.615 C 323.352,218.982 246.593,106.766 350.676,123.432 C 354.489,122.643 323.53,24.43 226.123,22.833 C 128.738,21.236 131.933,142.595 131.933,142.595"
   style="stroke-linejoin:bevel" />
		<path
   id="path18"
   d="M 188.604,274.334 C 175.027,289.5 179.02,292.163 151.881,297.751 C 124.422,303.411 140.555,313.484 151.084,316.116 C 163.852,319.311 193.391,323.834 213.35,295.887 C 219.428,287.378 213.314,273.801 204.965,270.34 C 200.931,268.669 195.537,266.575 188.604,274.334 L 188.604,274.334 z" />
		<path
   id="path20"
   d="M 187.715,274.069 C 186.347,265.152 190.645,254.541 195.251,242.127 C 202.173,223.501 218.144,204.872 205.368,145.788 C 195.845,101.759 131.972,136.625 131.932,142.595 C 131.893,148.563 134.821,172.855 130.865,201.143 C 125.703,238.056 154.353,269.275 187.344,266.081" />
		<path
   id="path22"
   d="M 172.517,141.7 C 172.229,143.739 176.25,149.18 181.493,149.907 C 186.727,150.637 191.207,146.385 191.491,144.348 C 191.775,142.309 187.759,140.063 182.514,139.333 C 177.277,138.602 172.795,139.666 172.518,141.7 L 172.517,141.7 z"
   style="fill:#ffffff;stroke-width:4.15500021;stroke-linecap:butt;stroke-linejoin:miter" />
		<path
   id="path24"
   d="M 331.941,137.543 C 332.225,139.582 328.209,145.023 322.965,145.75 C 317.727,146.48 313.247,142.228 312.96,140.191 C 312.683,138.152 316.7,135.906 321.939,135.176 C 327.178,134.446 331.657,135.509 331.941,137.544 L 331.941,137.543 z"
   style="fill:#ffffff;stroke-width:2.0775001;stroke-linecap:butt;stroke-linejoin:miter" />
		<path
   id="path26"
   d="M 350.676,123.432 C 351.539,139.426 347.231,150.32 346.688,167.346 C 345.884,192.094 358.487,220.42 339.497,248.781" />
		<path
   d=""
   id="path2239"
   style="stroke-width:3" />
	</g></g><text
   inkscape:export-ydpi="300"
   inkscape:export-xdpi="300"
   inkscape:export-filename="/opt/home/sas/pgfr/svn/materials/advocacy/trunk/logos/logo_pgfr_txt_300.png"
   sodipodi:linespacing="50%"
   id="text1365"
   style="font-size:50.2774086px;font-style:normal;font-variant:normal;font-weight:bold;font-stretch:normal;text-align:center;line-height:50%;writing-mode:lr-tb;text-anchor:middle;fill:#336791;fill-opacity:1;stroke:none;stroke-width:1px;stroke-linecap:butt;stroke-linejoin:miter;stroke-opacity:1;font-family:Bitstream Vera Sans"
   xml:space="preserve"
   y="376.72525"
   x="230.33229"
   transform="scale(0.9290182,1.0764052)"><tspan
     sodipodi:role="line"
     id="tspan3746"
     x="230.33229"
     y="376.72525">PostgreSQLFr</tspan></text>

<text
   xml:space="preserve"
   style="font-size:12px;font-style:normal;font-weight:normal;line-height:125%;fill:#336791;fill-opacity:1;stroke:none;stroke-width:1px;stroke-linecap:butt;stroke-linejoin:miter;stroke-opacity:1;font-family:Bitstream Vera Sans"
   x="62.670448"
   y="445.21036"
   id="text3748"
   sodipodi:linespacing="125%"
   inkscape:export-filename="/opt/home/sas/pgfr/svn/materials/advocacy/trunk/logos/logo_pgfr_txt_300.png"
   inkscape:export-xdpi="300"
   inkscape:export-ydpi="300"><tspan
     sodipodi:role="line"
     id="tspan3750"
     x="62.670448"
     y="445.21036"
     style="font-size:25.13939667px;font-style:oblique;font-variant:normal;font-weight:normal;font-stretch:normal;text-align:start;line-height:523.73743057%;writing-mode:lr-tb;text-anchor:start;fill:#336791;fill-opacity:1;font-family:Bitstream Vera Sans">http://www.postgresql.fr</tspan></text>

</svg>