<?xml version="1.0" encoding="UTF-8" standalone="no"?>
<!-- Created with Inkscape (http://www.inkscape.org/) -->

<svg
   xmlns:dc="http://purl.org/dc/elements/1.1/"
   xmlns:cc="http://creativecommons.org/ns#"
   xmlns:rdf="http://www.w3.org/1999/02/22-rdf-syntax-ns#"
   xmlns:svg="http://www.w3.org/2000/svg"
   xmlns="http://www.w3.org/2000/svg"
   xmlns:sodipodi="http://sodipodi.sourceforge.net/DTD/sodipodi-0.dtd"
   xmlns:inkscape="http://www.inkscape.org/namespaces/inkscape"
   width="1510mm"
   height="297mm"
   id="svg4872"
   sodipodi:version="0.32"
   inkscape:version="0.91 r13725"
   sodipodi:docname="srtylo.monochrome.white.svg"
   inkscape:output_extension="org.inkscape.output.svg.inkscape"
   version="1.1">
  <defs
     id="defs4874">
    <inkscape:perspective
       sodipodi:type="inkscape:persp3d"
       inkscape:vp_x="0 : 526.18109 : 1"
       inkscape:vp_y="0 : 1000 : 0"
       inkscape:vp_z="744.09448 : 526.18109 : 1"
       inkscape:persp3d-origin="372.04724 : 350.78739 : 1"
       id="perspective4880" />
  </defs>
  <sodipodi:namedview
     id="base"
     pagecolor="#ffffff"
     bordercolor="#666666"
     borderopacity="1.0"
     inkscape:pageopacity="0"
     inkscape:pageshadow="2"
     inkscape:zoom="0.2"
     inkscape:cx="2590.6952"
     inkscape:cy="687.12847"
     inkscape:document-units="px"
     inkscape:current-layer="layer1"
     showgrid="false"
     inkscape:window-width="1366"
     inkscape:window-height="707"
     inkscape:window-x="0"
     inkscape:window-y="0"
     inkscape:snap-text-baseline="true"
     inkscape:window-maximized="1" />
  <metadata
     id="metadata4877">
    <rdf:RDF>
      <cc:Work
         rdf:about="">
        <dc:format>image/svg+xml</dc:format>
        <dc:type
           rdf:resource="http://purl.org/dc/dcmitype/StillImage" />
        <dc:title></dc:title>
      </cc:Work>
    </rdf:RDF>
  </metadata>
  <g
     inkscape:label="Calque 1"
     inkscape:groupmode="layer"
     id="layer1">
    <rect
       style="display:inline;overflow:visible;visibility:visible;opacity:1;fill:#008bb9;fill-opacity:1;fill-rule:nonzero;stroke:#000000;stroke-width:2.47400904;stroke-linecap:butt;stroke-linejoin:miter;stroke-miterlimit:4;stroke-dasharray:none;stroke-dashoffset:0;stroke-opacity:1;marker:none;marker-start:none;marker-mid:none;marker-end:none;enable-background:accumulate"
       id="rect4892"
       width="5445.6685"
       height="1149.9546"
       x="-79.97728"
       y="-72.615097" />
    <g
       id="g4861"
       transform="matrix(0.3418919,0,0,0.3418919,-164.84246,-587.78011)">
      <path
         d="m 1517.0576,3418.3751 c -8.2147,293.6901 2.0641,589.4265 30.8008,661.301 28.7545,71.8745 90.2909,211.6733 301.8989,166.341 176.7859,-37.9005 241.1099,-111.2459 269.0223,-273.1385 20.5576,-119.1107 60.1899,-449.9065 65.273,-517.6825"
         id="path2493"
         style="fill:none;fill-rule:nonzero;stroke:#ffffff;stroke-width:73.93321228;stroke-linecap:round;stroke-linejoin:round;stroke-miterlimit:4"
         inkscape:connector-curvature="0" />
      <path
         d="m 1263.4269,1946.0809 c 0,0 -958.01605,-391.5552 -913.47855,498.8688 9.4721,189.4312 271.5252,1433.3616 584.0647,1057.6309 114.21145,-137.4026 217.50365,-245.1669 217.50365,-245.1669"
         id="path2495"
         style="fill:none;fill-rule:nonzero;stroke:#ffffff;stroke-width:73.93299866;stroke-linecap:round;stroke-linejoin:round;stroke-miterlimit:4;stroke-dasharray:none"
         inkscape:connector-curvature="0" />
      <path
         d="m 1780.8959,1874.6157 c -33.1614,10.3974 532.908,-206.9342 854.6113,204.1347 113.6362,145.2199 -18.0487,738.5492 -333.0556,1205.9884"
         id="path2497"
         style="fill:none;fill-rule:nonzero;stroke:#ffffff;stroke-width:73.93321228;stroke-linecap:round;stroke-linejoin:round;stroke-miterlimit:4"
         inkscape:connector-curvature="0" />
      <path
         style="fill:none;fill-opacity:1;fill-rule:nonzero;stroke:#ffffff;stroke-width:73.93299866;stroke-linecap:round;stroke-linejoin:bevel;stroke-miterlimit:4;stroke-dasharray:none"
         d="m 2302.4456,3284.7388 c 0,0 20.528,101.0442 318.886,39.4604 130.724,-26.9989 52.0523,75.7654 -80.5282,137.3373 -108.8081,50.4984 -352.7532,63.4403 -356.7389,-6.3404 -10.2551,-180.0421 128.393,-125.3444 118.3871,-170.4573 -9.0452,-40.6288 -71.0501,-80.5044 -112.0645,-179.9412 -35.8067,-86.7915 -491.081,-752.369 126.2579,-653.5193 22.6157,-4.6798 -161.0089,-587.2024 -738.7509,-596.6745 -577.6116,-9.4722 -558.6613,710.3344 -558.6613,710.3344"
         id="path2499"
         inkscape:connector-curvature="0" />
      <path
         d="m 1355.3608,3346.3108 c -80.5282,89.9528 -56.8448,105.7477 -217.8121,138.8913 -162.86525,33.5707 -67.177,93.3158 -4.7272,108.9268 75.7298,18.9502 250.932,45.7771 369.3131,-119.9826 36.05,-50.4687 -0.2135,-130.9969 -49.7332,-151.5248 -23.9265,-9.9111 -55.9195,-22.331 -97.0406,23.6893 l 0,0 z"
         id="path2501"
         style="fill:none;fill-rule:nonzero;stroke:#ffffff;stroke-width:73.93321228;stroke-linecap:round;stroke-linejoin:round;stroke-miterlimit:4"
         inkscape:connector-curvature="0" />
      <path
         d="m 1350.0879,3344.739 c -8.1139,-52.8887 17.3785,-115.8248 44.6977,-189.4549 41.0558,-110.4749 135.7833,-220.9675 60.0061,-571.4075 -56.483,-261.1456 -435.3276,-54.3478 -435.5649,-18.9384 -0.2313,35.3975 17.1353,179.4786 -6.3286,347.2609 -30.61685,218.939 139.3124,404.1057 334.9892,385.1614"
         id="path2503"
         style="fill:none;fill-rule:nonzero;stroke:#ffffff;stroke-width:73.93321228;stroke-linecap:round;stroke-linejoin:round;stroke-miterlimit:4;stroke-opacity:1"
         inkscape:connector-curvature="0" />
      <path
         style="fill:#ffffff;fill-rule:nonzero;stroke:#ffffff;stroke-width:24.644207;stroke-linecap:butt;stroke-linejoin:miter;stroke-miterlimit:4"
         d="m 1259.9453,2559.6297 c -1.7082,12.0938 22.1412,44.3656 53.2386,48.6775 31.044,4.3298 57.6158,-20.8897 59.3003,-32.9716 1.6844,-12.0937 -22.1353,-25.4153 -53.2446,-29.745 -31.0617,-4.3358 -57.6455,1.9751 -59.2884,14.0391 l -0.01,0 z"
         id="path2505"
         inkscape:connector-curvature="0" />
      <path
         style="fill:#ffffff;fill-rule:nonzero;stroke:#ffffff;stroke-width:12.3221035;stroke-linecap:butt;stroke-linejoin:miter;stroke-miterlimit:4"
         d="m 2205.5236,2534.9737 c 1.6845,12.0937 -22.1353,44.3655 -53.2386,48.6775 -31.0677,4.3298 -57.6396,-20.8898 -59.3418,-32.9717 -1.643,-12.0937 22.1827,-25.4152 53.2564,-29.745 31.0736,-4.3298 57.6395,1.9751 59.324,14.0451 l 0,-0.01 z"
         id="path2507"
         inkscape:connector-curvature="0" />
      <path
         d="m 2316.645,2451.2783 c 5.1186,94.8639 -20.4331,159.4785 -23.6537,260.4634 -4.7687,146.7858 69.9824,314.7935 -42.6514,483.0087"
         id="path2509"
         style="fill:none;fill-rule:nonzero;stroke:#ffffff;stroke-width:73.93321228;stroke-linecap:round;stroke-linejoin:round;stroke-miterlimit:4"
         inkscape:connector-curvature="0" />
    </g>
    <flowRoot
       xml:space="preserve"
       id="flowRoot3709"
       style="font-style:normal;font-variant:normal;font-weight:normal;font-stretch:normal;font-size:550px;line-height:125%;font-family:'DejaVu Sans Mono';-inkscape-font-specification:'DejaVu Sans Mono';letter-spacing:0px;word-spacing:0px;fill:#000000;fill-opacity:1;stroke:none;stroke-width:1px;stroke-linecap:butt;stroke-linejoin:miter;stroke-opacity:1"
       transform="matrix(0.89147132,0,0,1.0653061,126.37617,-254.70452)"><flowRegion
         id="flowRegion3711"><rect
           id="rect3713"
           width="4826.4282"
           height="944.18439"
           x="857.14288"
           y="98.076469"
           style="font-style:normal;font-variant:normal;font-weight:normal;font-stretch:normal;font-size:550px;font-family:'DejaVu Sans Mono';-inkscape-font-specification:'DejaVu Sans Mono'" /></flowRegion><flowPara
         id="flowPara3715"
         style="font-style:normal;font-variant:normal;font-weight:normal;font-stretch:normal;font-size:800px;font-family:'DejaVu Sans Mono';-inkscape-font-specification:'DejaVu Sans Mono';fill:#ffffff">PostgreSQL</flowPara></flowRoot>  </g>
</svg>
