<?xml version="1.0" standalone="no"?>
<!DOCTYPE svg PUBLIC "-//W3C//DTD SVG 1.1//EN" "http://www.w3.org/Graphics/SVG/1.1/DTD/svg11.dtd" >
<svg xmlns="http://www.w3.org/2000/svg">
<metadata></metadata>
<defs>
<font id="knileitalic" horiz-adv-x="1247" >
<font-face units-per-em="2048" ascent="1536" descent="-512" />
<missing-glyph horiz-adv-x="532" />
<glyph unicode=" "  horiz-adv-x="532" />
<glyph unicode="&#x09;" horiz-adv-x="532" />
<glyph unicode="&#xa0;" horiz-adv-x="532" />
<glyph unicode="!" horiz-adv-x="559" d="M88 88q0 46 34 79.5t81 33.5t80.5 -33.5t33.5 -79.5q0 -47 -33.5 -81t-80.5 -34t-81 34t-34 81zM182 381l164 1100h182l-211 -1100h-135z" />
<glyph unicode="&#x22;" horiz-adv-x="638" d="M219 1065l53 416h156l-90 -416h-119zM498 1065l53 416h156l-91 -416h-118z" />
<glyph unicode="#" horiz-adv-x="1273" d="M39 393v123h272l154 399h-225v123h274l152 396h141l-150 -396h279l151 396h142l-152 -396h226v-123h-275l-154 -399h226v-123h-273l-151 -393h-141l151 393h-280l-152 -393h-141l151 393h-225zM453 516h280l154 399h-281z" />
<glyph unicode="$" horiz-adv-x="1056" d="M49 53l66 375h143l-45 -254q131 -57 266 -57q117 0 197 82t80 202q0 60 -29 110t-75 87t-101.5 72t-111.5 72t-102 79t-75 101.5t-29 130.5q0 167 117.5 285t286.5 124l33 178h131l-33 -186q142 -20 276 -82l-57 -325h-143l39 221q-107 57 -238 57q-104 0 -176 -72 t-72 -178q0 -54 29 -99.5t75.5 -79.5t102.5 -67t111.5 -70.5t102 -81t75.5 -106.5t29 -139q0 -188 -117.5 -316.5t-298.5 -138.5l-35 -202h-131l37 205q-166 14 -328 73z" />
<glyph unicode="%" horiz-adv-x="1449" d="M41 0l1257 1434h172l-1257 -1434h-172zM190 1069q0 167 89.5 279t240.5 112q105 0 172.5 -70.5t67.5 -177.5q0 -170 -89 -284.5t-241 -114.5q-106 0 -173 72.5t-67 183.5zM326 1075q0 -69 29 -110t87 -41t101 44t62.5 106.5t19.5 131.5q0 64 -29.5 103t-87.5 39 q-86 0 -134 -83t-48 -190zM760 227q0 167 89.5 279t240.5 112q105 0 172 -70t67 -177q0 -111 -38 -201t-114.5 -144.5t-177.5 -54.5q-106 0 -172.5 72.5t-66.5 183.5zM895 233q0 -69 29.5 -110t87.5 -41t101 44.5t62 107t19 131.5q0 64 -29.5 102.5t-87.5 38.5 q-86 0 -134 -83t-48 -190z" />
<glyph unicode="&#x26;" horiz-adv-x="1390" d="M76 365q0 147 100 264.5t268 185.5q-47 70 -77.5 150.5t-30.5 146.5q0 151 107 249.5t282 98.5q180 0 346 -100l-53 -301h-144l35 203q-85 59 -190 59q-92 0 -155.5 -61t-63.5 -146q0 -65 30 -129t84 -141l318 -441q76 134 94 302h307l-22 -130h-156q-46 -165 -133 -296 l106 -150h205l-22 -129h-279l-112 156q-186 -183 -435 -183q-177 0 -293 114t-116 278zM244 379q0 -112 71 -185t189 -73q90 0 176 40t156 111l-316 437q-129 -56 -202.5 -142.5t-73.5 -187.5z" />
<glyph unicode="'" horiz-adv-x="366" d="M158 1087q110 107 110 234q0 51 -24 111l170 73q32 -70 32 -131q0 -98 -64.5 -186t-164.5 -158z" />
<glyph unicode="(" horiz-adv-x="577" d="M104 432q0 309 143.5 598t405.5 529l88 -82q-220 -233 -343.5 -500t-123.5 -541q0 -319 170 -635l-102 -71q-112 157 -175 337.5t-63 364.5z" />
<glyph unicode=")" horiz-adv-x="577" d="M-123 -201q220 233 343.5 500t123.5 541q0 319 -170 635l102 71q112 -157 175 -337.5t63 -364.5q0 -309 -143.5 -598t-405.5 -529z" />
<glyph unicode="*" horiz-adv-x="811" d="M156 1014l258 121l-209 125l76 98l192 -152l37 275h125l-62 -273l240 150l55 -111l-258 -123l209 -123l-76 -98l-192 152l-37 -273h-125l62 269l-240 -148z" />
<glyph unicode="+" horiz-adv-x="1183" d="M131 569v138h408v436h147v-436h408v-138h-408v-438h-147v438h-408z" />
<glyph unicode="," horiz-adv-x="473" d="M-23 -188q111 108 111 233q0 49 -25 111l170 73q33 -72 33 -131q0 -98 -64.5 -186t-164.5 -158z" />
<glyph unicode="-" horiz-adv-x="688" d="M86 541l29 151h522l-29 -151h-522z" />
<glyph unicode="." horiz-adv-x="505" d="M53 98q0 51 38 88t89 37t87 -37t36 -88t-36 -88t-87 -37t-89 37t-38 88z" />
<glyph unicode="/" horiz-adv-x="778" d="M-135 -221l932 1757h159l-931 -1757h-160z" />
<glyph unicode="0" horiz-adv-x="1232" d="M147 432q0 149 20 290t67 275.5t116 234t174.5 160t235.5 60.5q180 0 286.5 -128.5t106.5 -336.5q0 -123 -14.5 -241.5t-44.5 -233.5t-80 -211t-116 -169.5t-158 -115t-201 -41.5q-178 0 -285 125.5t-107 331.5zM317 440q0 -148 62 -230.5t176 -82.5q104 0 187.5 75.5 t134.5 200.5t77.5 275t26.5 309q0 147 -62.5 230t-175.5 83q-104 0 -187.5 -75.5t-134.5 -200.5t-77.5 -275t-26.5 -309z" />
<glyph unicode="1" horiz-adv-x="774" d="M39 0l22 129h218l198 1122l-260 -209l-86 109l373 283h164l-230 -1305h201l-23 -129h-577z" />
<glyph unicode="2" horiz-adv-x="1034" d="M-6 0l14 84q18 108 74.5 206t131 172t161 142.5t169 129t150 119t109 125t41.5 134.5q0 82 -55.5 137.5t-151.5 55.5q-55 0 -105.5 -22.5t-90 -61.5t-69.5 -83t-53 -94l-145 74q72 154 196 246t281 92q161 0 265 -96t104 -234q0 -88 -41 -170t-108 -149t-148.5 -131 t-166.5 -126.5t-158.5 -124t-128.5 -136t-72 -150.5h532l41 234h143l-65 -373h-854z" />
<glyph unicode="3" horiz-adv-x="1005" d="M-25 289l148 59q24 -97 96.5 -161t171.5 -64q136 0 233 94t97 244q0 109 -77.5 179.5t-207.5 70.5h-61l24 141q93 5 181 42t148 103.5t60 145.5q0 74 -54 123t-130 49q-94 0 -168 -47.5t-119 -122.5l-133 72q68 111 181 178t247 67q144 0 244 -86t100 -229 q0 -80 -34 -147t-90 -110t-123 -68.5t-138 -30.5q147 -9 236.5 -99t89.5 -227q0 -141 -69.5 -255t-186.5 -176.5t-256 -62.5q-154 0 -261 84.5t-149 233.5z" />
<glyph unicode="4" horiz-adv-x="1091" d="M16 434l21 111l782 889h170l-153 -871h176l-23 -129h-176l-53 -305h176l-23 -129h-542l22 129h207l53 305h-637zM227 563h449l115 645z" />
<glyph unicode="5" horiz-adv-x="1073" d="M35 281l143 65q26 -96 98 -159.5t170 -63.5q149 0 249 109t100 262q0 121 -67 194.5t-179 73.5q-72 0 -137 -26.5t-109 -67.5l-119 45l172 721h697l-54 -301h-147l29 161h-402l-119 -454q107 73 236 73q104 0 190 -55.5t135.5 -151t49.5 -208.5q0 -145 -67 -265.5 t-188.5 -191t-271.5 -70.5q-157 0 -263.5 84t-145.5 226z" />
<glyph unicode="6" horiz-adv-x="1140" d="M143 436q0 127 18.5 250t54 237.5t93 211t130.5 168.5t170.5 112.5t209.5 40.5q90 0 171.5 -26.5t139.5 -69.5l-83 -133q-106 78 -250 78q-159 0 -278.5 -149t-172.5 -402q56 77 144.5 125.5t195.5 48.5q153 0 257 -113t104 -274q0 -159 -65 -288.5t-185.5 -205.5 t-274.5 -76q-180 0 -279.5 120.5t-99.5 344.5zM303 420q0 -117 62 -207t161 -90q103 0 182.5 57t120.5 148.5t41 201.5q0 106 -62 178t-161 72q-152 0 -248 -104t-96 -256z" />
<glyph unicode="7" horiz-adv-x="960" d="M137 1092l62 342h893l-23 -138q-585 -610 -713 -1296h-174q160 754 699 1296h-555l-37 -204h-152z" />
<glyph unicode="8" horiz-adv-x="1185" d="M96 338q0 153 95 271t243 167q-67 33 -117.5 106.5t-50.5 151.5q0 120 64 219.5t172.5 155t236.5 55.5q152 0 256.5 -97t104.5 -239q0 -118 -76.5 -213t-196.5 -147q87 -30 153.5 -110.5t66.5 -180.5q0 -144 -71 -261.5t-196 -185t-278 -67.5q-181 0 -293.5 107 t-112.5 268zM268 350q0 -106 64 -172.5t184 -66.5q154 0 256 107.5t102 252.5q0 102 -70 159.5t-192 57.5q-150 0 -247 -100t-97 -238zM434 1040q0 -86 55 -143t154 -57q117 0 203 85t86 199q0 86 -54.5 141.5t-152.5 55.5q-124 0 -207.5 -82.5t-83.5 -198.5z" />
<glyph unicode="9" horiz-adv-x="1120" d="M76 72l84 137q99 -82 250 -82q153 0 273.5 161t160.5 412q-55 -77 -140.5 -124.5t-181.5 -47.5q-153 0 -255.5 112.5t-102.5 270.5q0 150 65.5 274t185.5 197.5t269 73.5q168 0 267.5 -114t99.5 -308q0 -126 -17.5 -251t-52 -244t-89 -221t-124.5 -178.5t-164 -120.5 t-201 -44q-96 0 -182 26.5t-145 70.5zM340 922q0 -103 58.5 -172.5t160.5 -69.5q146 0 239 107t93 253q0 113 -64 189t-159 76q-141 0 -234.5 -114t-93.5 -269z" />
<glyph unicode=":" horiz-adv-x="526" d="M53 98q0 51 38 88t89 37t87 -37t36 -88t-36 -88t-87 -37t-89 37t-38 88zM213 897q0 51 38 88t89 37t87 -37t36 -88t-36 -88t-87 -37t-89 37t-38 88z" />
<glyph unicode=";" horiz-adv-x="483" d="M-18 -188q110 107 110 233q0 51 -24 111l170 73q32 -70 32 -131q0 -98 -64.5 -186t-164.5 -158zM170 897q0 51 38 88t89 37t87 -37t36 -88t-36 -88t-87 -37t-89 37t-38 88z" />
<glyph unicode="&#x3c;" horiz-adv-x="1093" d="M127 575v132l831 378v-151l-661 -291l661 -295v-151z" />
<glyph unicode="=" horiz-adv-x="1273" d="M174 377v137h963v-137h-963zM174 743v138h963v-138h-963z" />
<glyph unicode="&#x3e;" horiz-adv-x="1091" d="M176 197v151l662 291l-662 295v151l832 -378v-132z" />
<glyph unicode="?" horiz-adv-x="829" d="M111 1241q61 117 166 188.5t255 71.5q155 0 256 -96t101 -238q0 -71 -24.5 -135.5t-65 -113.5t-89.5 -94.5t-99.5 -87t-94 -81.5t-74.5 -87.5t-39 -96.5l-14 -90h-156l21 117q11 62 42.5 119t73.5 100.5t90 85.5t94 82t83.5 81t60.5 91.5t23 105.5q0 84 -60.5 138.5 t-150.5 54.5q-89 0 -162 -53.5t-115 -128.5zM176 88q0 47 34 81t81 34t81 -34t34 -81t-34 -81t-81 -34t-81 34t-34 81z" />
<glyph unicode="@" horiz-adv-x="1869" d="M127 389q0 199 73.5 382t200 318t305 215t377.5 80q156 0 285 -51t214.5 -138.5t132 -203.5t46.5 -248q0 -109 -29.5 -217.5t-82 -198t-132 -145t-171.5 -55.5q-89 0 -141.5 43.5t-61.5 112.5q-47 -69 -120 -112.5t-167 -43.5q-129 0 -215 94t-86 234q0 200 121 339.5 t297 139.5q80 0 141.5 -42.5t93.5 -105.5l21 125h127l-92 -524q-4 -24 -4 -39q0 -44 25 -72t75 -28q59 0 110.5 47.5t83.5 121t50 158.5t18 164q0 234 -147 378.5t-402 144.5q-165 0 -315 -71.5t-256.5 -190t-169 -276t-62.5 -325.5q0 -252 148 -411.5t395 -159.5 q183 0 379 111l61 -109q-93 -60 -210.5 -93.5t-241.5 -33.5q-144 0 -269 51t-214 141t-140 218t-51 276zM698 469q0 -100 50 -159.5t139 -59.5q124 0 206.5 104.5t82.5 245.5q0 99 -54.5 155t-148.5 56q-114 0 -194.5 -104.5t-80.5 -237.5z" />
<glyph unicode="A" horiz-adv-x="1335" d="M-100 0l22 131h131l686 1307h172l224 -1307h131l-23 -131h-479l22 131h181l-64 354h-504l-188 -354h178l-22 -131h-467zM467 616h414l-95 639z" />
<glyph unicode="B" horiz-adv-x="1282" d="M23 0l22 131h170l209 1172h-172l22 131h551q146 0 244 -83t98 -214q0 -119 -71 -216.5t-191 -154.5q95 -28 161.5 -105.5t66.5 -179.5q0 -208 -146.5 -344.5t-365.5 -136.5h-598zM383 127h223q143 0 246.5 100.5t103.5 239.5q0 106 -70 165.5t-181 59.5h-224zM504 819 h211q120 0 200 90t80 211q0 84 -58 135.5t-149 51.5h-198z" />
<glyph unicode="C" horiz-adv-x="1382" d="M152 575q0 180 64 346t169.5 284.5t246.5 189.5t290 71q262 0 477 -127l-64 -362h-143l45 260q-138 82 -324 82q-152 0 -287.5 -103.5t-214.5 -270.5t-79 -349q0 -138 41.5 -244t130 -169.5t213.5 -63.5q122 0 234 72t186 190l123 -86q-91 -152 -240 -240t-315 -88 t-293.5 82.5t-193.5 220t-66 305.5z" />
<glyph unicode="D" horiz-adv-x="1466" d="M23 0l22 131h170l207 1172h-170l22 131h551q247 0 403 -154.5t156 -402.5q0 -251 -97.5 -449.5t-281.5 -313t-425 -114.5h-557zM385 131h184q134 0 252.5 59t202 158.5t132 235t48.5 284.5q0 198 -119.5 316.5t-310.5 118.5h-184z" />
<glyph unicode="E" horiz-adv-x="1169" d="M23 0l22 131h170l209 1172h-170l22 131h926l-61 -342h-152l39 211h-436l-86 -484h434l-25 -143h-434l-96 -545h440l43 240h152l-66 -371h-931z" />
<glyph unicode="F" horiz-adv-x="1124" d="M23 0l22 131h168l209 1172h-170l22 131h940l-61 -342h-152l39 211h-450l-92 -517h442l-25 -143h-442l-92 -512h205l-23 -131h-540z" />
<glyph unicode="G" horiz-adv-x="1507" d="M154 590q0 182 65.5 345.5t175 279t257 183.5t306.5 68q258 0 510 -127l-57 -331h-143l39 225q-172 86 -357 86q-124 0 -238.5 -58.5t-197 -155.5t-131.5 -228t-49 -271q0 -213 100.5 -350t261.5 -137q120 0 228 52.5t185.5 154t104.5 235.5h-309l25 144h456l-124 -705 h-142l39 213q-88 -118 -210.5 -182t-260.5 -64q-153 0 -276 83t-190.5 225t-67.5 315z" />
<glyph unicode="H" horiz-adv-x="1611" d="M23 0l22 131h170l209 1172h-170l22 131h508l-22 -131h-170l-88 -500h704l88 500h-170l23 131h508l-23 -131h-170l-209 -1172h170l-22 -131h-508l23 131h169l95 528h-705l-94 -528h170l-23 -131h-507z" />
<glyph unicode="I" horiz-adv-x="739" d="M23 0l22 131h170l209 1172h-170l22 131h508l-22 -131h-170l-209 -1172h170l-23 -131h-507z" />
<glyph unicode="J" horiz-adv-x="688" d="M-164 -223l35 139q60 -27 125 -27q80 0 137 53t74 146l215 1215h-199l23 131h524l-22 -131h-158l-217 -1221q-28 -162 -132.5 -251t-246.5 -89q-78 0 -158 35z" />
<glyph unicode="K" horiz-adv-x="1370" d="M23 0l22 131h170l209 1172h-172l22 131h476l-23 -131h-135l-96 -545l620 553h-145l22 123h492l-23 -131h-147l-639 -564l459 -608h165l-22 -131h-512l22 127h144l-445 592l-104 -588h143l-22 -131h-481z" />
<glyph unicode="L" horiz-adv-x="1114" d="M23 0l22 131h168l209 1172h-170l22 131h514l-22 -131h-176l-207 -1172h444l50 270h151l-72 -401h-933z" />
<glyph unicode="M" horiz-adv-x="1943" d="M23 0l22 131h170l209 1172h-172l22 131h394l270 -1092l647 1092h404l-23 -131h-170l-209 -1172h170l-22 -131h-498l23 131h163l197 1104l-649 -1088h-146l-264 1088l-196 -1104h163l-22 -131h-483z" />
<glyph unicode="N" horiz-adv-x="1587" d="M23 0l22 131h170l209 1172h-172l22 131h336l527 -1180l186 1049h-170l23 131h489l-23 -131h-169l-232 -1303h-170l-520 1184l-186 -1053h167l-22 -131h-487z" />
<glyph unicode="O" horiz-adv-x="1593" d="M152 571q0 177 62 341.5t167 286t251.5 194.5t307.5 73q168 0 299.5 -77t202.5 -210.5t71 -299.5q0 -176 -62 -343t-167 -292t-252 -201t-307 -76q-168 0 -299.5 79.5t-202.5 217t-71 307.5zM332 592q0 -210 108 -341.5t295 -131.5q99 0 191.5 41.5t165 113.5t127.5 165 t84.5 201.5t29.5 217.5q0 207 -108 332t-297 125q-164 0 -302.5 -104t-216 -270t-77.5 -349z" />
<glyph unicode="P" horiz-adv-x="1185" d="M23 0l22 131h170l209 1172h-172l22 131h555q163 0 267 -91t104 -241q0 -225 -148.5 -369.5t-373.5 -144.5h-217l-82 -457h205l-23 -131h-538zM483 719h207q139 0 236.5 112.5t97.5 258.5q0 101 -64 159t-167 58h-205z" />
<glyph unicode="Q" horiz-adv-x="1585" d="M152 571q0 177 62 341.5t167 286t251.5 194.5t307.5 73q168 0 299.5 -77t202.5 -210.5t71 -299.5q0 -171 -58.5 -334t-158 -286.5t-239 -202.5t-293.5 -87l-90 -123q116 -51 229 -51q205 0 369 174l90 -116q-87 -99 -204 -153t-243 -54q-177 0 -313 104q-51 -61 -106 -61 q-40 0 -70.5 30.5t-30.5 75.5q0 46 34.5 78.5t78.5 32.5q27 0 47 -10l63 79q-211 37 -338.5 201.5t-127.5 394.5zM332 592q0 -210 108 -341.5t295 -131.5q99 0 191.5 41.5t165 113.5t127.5 165t84.5 201.5t29.5 217.5q0 207 -108 332t-297 125q-164 0 -302.5 -104t-216 -270 t-77.5 -349z" />
<glyph unicode="R" horiz-adv-x="1286" d="M23 0l22 131h170l207 1172h-170l22 131h568q152 0 253 -90t101 -234q0 -161 -105 -286.5t-268 -178.5l215 -514h179l-23 -131h-295l-233 612h-199l-84 -481h158l-23 -131h-495zM489 739h191q141 0 240.5 106t99.5 249q0 97 -61 155t-156 58h-213z" />
<glyph unicode="S" horiz-adv-x="1062" d="M37 53l65 375h144l-43 -250q129 -63 276 -63q125 0 206 85.5t81 211.5q0 61 -30 111t-78 86t-106.5 69.5t-116.5 69.5t-106 77t-78 101.5t-30 134.5q0 176 127.5 290.5t310.5 114.5q191 0 400 -88l-60 -331h-143l39 221q-118 59 -246 59q-110 0 -186 -69.5t-76 -170.5 q0 -54 30 -99t78.5 -78.5t107 -66t116.5 -69.5t106.5 -81t78.5 -109t30 -144q0 -204 -132 -336.5t-333 -132.5q-197 0 -432 82z" />
<glyph unicode="T" horiz-adv-x="1177" d="M123 1032l70 402h1112l-70 -402h-152l47 271h-321l-207 -1172h180l-22 -131h-529l23 131h180l207 1172h-319l-48 -271h-151z" />
<glyph unicode="U" horiz-adv-x="1497" d="M207 1303l22 131h512l-22 -131h-178l-140 -799q-10 -58 -10 -96q0 -126 79.5 -206.5t217.5 -80.5q146 0 255.5 100.5t137.5 253.5l150 828h-176l22 131h510l-22 -131h-166l-148 -832q-39 -227 -189.5 -364.5t-381.5 -137.5q-204 0 -332.5 119t-128.5 297q0 65 12 127 l142 791h-166z" />
<glyph unicode="V" horiz-adv-x="1368" d="M129 1303l23 131h528l-23 -131h-200l170 -1106l557 1106h-201l23 131h522l-23 -131h-157l-674 -1307h-178l-211 1307h-156z" />
<glyph unicode="W" horiz-adv-x="2045" d="M129 1303l23 131h540l-22 -131h-217l90 -1131l549 1262h190l104 -1256l480 1125h-217l22 131h535l-23 -131h-160l-583 -1311h-193l-108 1208l-541 -1208h-192l-119 1311h-158z" />
<glyph unicode="X" d="M-100 0l22 131h146l497 608l-260 564h-141l22 131h476l-23 -127h-156l205 -443l356 443h-159l22 127h465l-22 -131h-140l-465 -564l281 -608h152l-23 -131h-493l22 127h166l-225 485l-389 -485h167l-22 -127h-481z" />
<glyph unicode="Y" horiz-adv-x="1251" d="M129 1303l23 131h485l-23 -127h-157l209 -543l407 543h-158l23 127h473l-27 -131h-141l-522 -685l-88 -487h180l-22 -131h-529l23 131h180l88 492l-270 680h-154z" />
<glyph unicode="Z" horiz-adv-x="1171" d="M6 0l21 117l960 1181h-565l-45 -254h-152l70 390h926l-21 -117l-956 -1182h610l49 285h152l-74 -420h-975z" />
<glyph unicode="[" horiz-adv-x="587" d="M55 -287l324 1843h332l-23 -129h-174l-278 -1585h174l-23 -129h-332z" />
<glyph unicode="\" horiz-adv-x="770" d="M190 1536h148l313 -1757h-147z" />
<glyph unicode="]" horiz-adv-x="587" d="M-84 -287l23 129h174l278 1585h-174l23 129h331l-323 -1843h-332z" />
<glyph unicode="^" horiz-adv-x="991" d="M80 651l512 783h129l235 -783h-145l-176 619l-397 -619h-158z" />
<glyph unicode="_" horiz-adv-x="1204" d="M-70 -195l23 129h1089l-22 -129h-1090z" />
<glyph unicode="`" horiz-adv-x="536" d="M276 1505h170l97 -295h-137z" />
<glyph unicode="a" horiz-adv-x="1275" d="M100 412q0 184 72.5 336.5t199.5 240.5t281 88q107 0 188.5 -58t114.5 -149l31 174h156l-162 -915h168l-23 -129h-323l33 178q-62 -94 -159 -151.5t-216 -57.5q-157 0 -259 124.5t-102 318.5zM268 432q0 -148 63 -233.5t177 -85.5q112 0 206.5 73t147.5 191t53 250 q0 145 -69.5 226t-192.5 81q-100 0 -189.5 -71.5t-142.5 -187.5t-53 -243z" />
<glyph unicode="b" horiz-adv-x="1271" d="M117 0l239 1352h-168l23 129h324l-109 -613q143 209 373 209q161 0 266.5 -128.5t105.5 -315.5q0 -181 -73.5 -333t-204 -241.5t-289.5 -89.5q-107 0 -184.5 58t-114.5 155l-33 -182h-155zM346 424q0 -142 69.5 -226.5t188.5 -84.5q108 0 201.5 74t146 192t52.5 246 q0 143 -67.5 226t-186.5 83q-112 0 -206 -73.5t-146 -190.5t-52 -246z" />
<glyph unicode="c" horiz-adv-x="1077" d="M100 424q0 176 76.5 326.5t206 238.5t279.5 88q196 0 362 -100l-49 -285h-135l32 187q-93 55 -217 55q-102 0 -192 -68.5t-142.5 -183.5t-52.5 -246q0 -145 67.5 -234t176.5 -89q89 0 174 52.5t145 135.5l103 -86q-72 -117 -186.5 -181.5t-249.5 -64.5q-176 0 -287 128.5 t-111 326.5z" />
<glyph unicode="d" horiz-adv-x="1288" d="M100 412q0 184 74.5 336.5t203.5 240.5t284 88q109 0 189 -55.5t118 -147.5l84 478h-168l22 129h324l-238 -1352h168l-22 -129h-324l33 178q-62 -94 -160.5 -151.5t-218.5 -57.5q-160 0 -264.5 124.5t-104.5 318.5zM268 432q0 -148 65 -233.5t183 -85.5q113 0 209 73 t149.5 191t53.5 250q0 144 -70.5 225.5t-195.5 81.5q-102 0 -193.5 -71t-146 -187.5t-54.5 -243.5z" />
<glyph unicode="e" horiz-adv-x="1153" d="M102 442q0 131 47.5 249.5t126.5 202.5t184 133.5t216 49.5q176 0 279.5 -113t103.5 -276q0 -85 -25 -180h-764q-2 -18 -2 -57q0 -144 73 -239t194 -95q94 0 186 46t158 122l94 -90q-77 -102 -199.5 -162t-257.5 -60q-191 0 -302.5 128.5t-111.5 340.5zM299 635h588 q4 28 4 61q0 104 -63 173t-166 69q-113 0 -214.5 -84.5t-148.5 -218.5z" />
<glyph unicode="f" horiz-adv-x="718" d="M-162 -369l31 127q31 -14 76 -14q76 0 131.5 55.5t70.5 143.5l172 972h-176l23 129h176l23 127q26 148 125.5 233t244.5 85q86 0 162 -31l-29 -131q-64 27 -129 27q-82 0 -143.5 -52.5t-75.5 -130.5l-22 -127h252l-23 -129h-252l-174 -983q-28 -153 -119 -238t-235 -85 q-56 0 -109 22z" />
<glyph unicode="g" horiz-adv-x="1218" d="M59 -258l86 106q47 -47 121.5 -76.5t161.5 -29.5q142 0 252.5 79.5t134.5 221.5l27 156q-62 -94 -160.5 -151.5t-218.5 -57.5q-158 0 -260.5 121t-102.5 311q0 179 73 329.5t200 238t280 87.5q109 0 189.5 -56t118.5 -147l30 170h156l-176 -995q-20 -115 -73 -201.5 t-130.5 -138t-170 -77t-198.5 -25.5q-99 0 -189 37t-151 98zM268 442q0 -143 64 -226t178 -83q113 0 208.5 70t148.5 183.5t53 240.5q0 144 -71 225.5t-196 81.5q-100 0 -189.5 -71t-142.5 -185t-53 -236z" />
<glyph unicode="h" horiz-adv-x="1269" d="M121 0l237 1352h-170l23 129h326l-107 -609q57 89 152 144t202 55q131 0 217 -86.5t86 -216.5q0 -30 -8 -80l-98 -559h168l-23 -129h-323l119 676q6 27 6 57q0 88 -58 141.5t-153 53.5q-112 0 -210 -91.5t-120 -213.5l-111 -623h-155z" />
<glyph unicode="i" horiz-adv-x="606" d="M127 915l23 129h323l-162 -915h168l-22 -129h-324l162 915h-168zM317 1374q0 47 33 81t80 34q49 0 83 -33.5t34 -81.5q0 -49 -33.5 -81.5t-83.5 -32.5q-48 0 -80.5 32.5t-32.5 81.5z" />
<glyph unicode="j" horiz-adv-x="557" d="M-162 -379l23 129q32 -8 67 -8q71 0 123.5 55t67.5 142l172 976h-168l22 129h324l-195 -1107q-27 -153 -115.5 -240.5t-228.5 -87.5q-46 0 -92 12zM311 1374q0 47 33 81t80 34q49 0 83 -33.5t34 -81.5q0 -49 -33.5 -81.5t-83.5 -32.5q-48 0 -80.5 32.5t-32.5 81.5z" />
<glyph unicode="k" horiz-adv-x="1069" d="M117 0l239 1352h-168l23 129h324l-146 -824q163 54 283 154.5t168 232.5h200q-62 -164 -196 -280t-312 -180l308 -455h159l-22 -129h-242l-364 559l-99 -559h-155z" />
<glyph unicode="l" horiz-adv-x="589" d="M117 0l239 1352h-168l23 129h324l-240 -1352h168l-23 -129h-323z" />
<glyph unicode="m" horiz-adv-x="1841" d="M127 915l23 129h321l-33 -186q53 90 144.5 151.5t187.5 61.5q99 0 165.5 -58.5t84.5 -150.5q65 96 160.5 152.5t212.5 56.5q119 0 193.5 -81.5t74.5 -205.5q0 -42 -6 -82l-103 -573h168l-22 -129h-324l121 690q6 24 6 62q0 80 -46.5 128t-127.5 48q-109 0 -194.5 -79 t-108.5 -204l-115 -645h-155l120 688q7 32 7 62q0 83 -44.5 130.5t-129.5 47.5q-106 0 -197.5 -92t-114.5 -224l-108 -612h-156l162 915h-166z" />
<glyph unicode="n" horiz-adv-x="1282" d="M127 915l23 129h323l-31 -172q57 89 152.5 144t202.5 55q131 0 217 -86.5t86 -216.5q0 -30 -8 -80l-99 -559h168l-22 -129h-324l119 676q6 27 6 57q0 88 -58 141.5t-153 53.5q-112 0 -211 -91.5t-119 -213.5l-110 -623h-156l162 915h-168z" />
<glyph unicode="o" horiz-adv-x="1226" d="M102 428q0 177 73.5 326t207.5 238t299 89q199 0 321.5 -125.5t122.5 -326.5q0 -177 -73.5 -329t-207.5 -243.5t-300 -91.5q-201 0 -322 127.5t-121 335.5zM270 436q0 -146 75 -236.5t200 -90.5q115 0 211.5 73.5t149 190t52.5 245.5q0 145 -76 232.5t-202 87.5 q-115 0 -210.5 -72t-147.5 -186.5t-52 -243.5z" />
<glyph unicode="p" horiz-adv-x="1290" d="M68 -383l229 1298h-170l23 129h325l-31 -176q143 209 373 209q161 0 267 -128.5t106 -315.5q0 -181 -73.5 -333t-204 -241.5t-289.5 -89.5q-107 0 -184.5 58t-114.5 155l-101 -565h-155zM365 424q0 -142 69.5 -226.5t188.5 -84.5q108 0 201 74t145.5 192t52.5 246 q0 143 -67.5 226t-186.5 83q-84 0 -160 -43.5t-128.5 -114.5t-83.5 -163.5t-31 -188.5z" />
<glyph unicode="q" horiz-adv-x="1226" d="M100 412q0 184 74.5 336.5t203.5 240.5t284 88q109 0 190 -56t119 -147l28 170h156l-252 -1427h-155l100 561q-62 -94 -160.5 -151.5t-218.5 -57.5q-160 0 -264.5 124.5t-104.5 318.5zM268 432q0 -148 65 -233.5t183 -85.5q113 0 209 73t149.5 191t53.5 250 q0 144 -70.5 225.5t-195.5 81.5q-102 0 -193.5 -71t-146 -187.5t-54.5 -243.5z" />
<glyph unicode="r" horiz-adv-x="894" d="M127 915l23 129h323l-41 -227q61 111 152 183.5t192 72.5q103 0 174 -51l-100 -154q-57 33 -121 33q-126 0 -219.5 -95t-120.5 -241l-100 -565h-156l162 915h-168z" />
<glyph unicode="s" horiz-adv-x="942" d="M43 55l45 258h135l-26 -153q104 -51 223 -51q94 0 154.5 52t60.5 132q0 41 -25.5 74.5t-66.5 57.5t-91 47.5t-99.5 51t-90.5 60t-66.5 82.5t-25.5 112q0 127 101.5 210t244.5 83q178 0 350 -88l-39 -235h-135l25 147q-91 51 -203 51q-81 0 -135.5 -43t-54.5 -110 q0 -40 26 -72.5t67 -56t91 -46.5t100.5 -51t91.5 -61t67 -85t26 -116q0 -146 -109 -239t-268 -93q-183 0 -373 82z" />
<glyph unicode="t" horiz-adv-x="684" d="M121 915l22 129h168l45 244h156l-43 -244h227l-22 -129h-228l-108 -610q-4 -32 -4 -49q0 -52 31 -86.5t81 -34.5q35 0 97 17l24 -127q-73 -29 -151 -29q-102 0 -172 65.5t-70 159.5q0 37 6 78l109 616h-168z" />
<glyph unicode="u" d="M121 915l22 129h324l-119 -669q-6 -34 -6 -68q0 -85 45.5 -137.5t126.5 -52.5q111 0 211 94.5t121 210.5l110 622h156l-162 -915h170l-22 -129h-326l31 172q-138 -199 -342 -199q-126 0 -203.5 85t-77.5 210q0 46 10 94l99 553h-168z" />
<glyph unicode="v" horiz-adv-x="1095" d="M20 915l23 129h307l84 -897q92 78 168 159t140.5 174t100.5 194.5t36 199.5q0 27 -2 41h-197l22 129h308q16 -82 16 -159q0 -234 -153.5 -463t-421.5 -430h-158l-90 923h-183z" />
<glyph unicode="w" horiz-adv-x="1671" d="M29 915l22 129h297l82 -897q161 194 277 410.5t116 357.5q0 5 -1 17t-1 14l-10 98h158l92 -897q183 175 293 355.5t110 347.5q0 42 -2 65h-184l22 129h293q17 -100 17 -182q0 -219 -140.5 -442.5t-398.5 -427.5h-139l-70 614q-120 -287 -420 -614h-149l-90 923h-174z" />
<glyph unicode="x" horiz-adv-x="1054" d="M-18 0l20 113l436 432l-174 370h-141l22 129h232l190 -405l297 289h-168l23 116h340l-21 -112l-420 -404l187 -399h151l-22 -129h-244l-201 432l-315 -315h160l-23 -117h-329z" />
<glyph unicode="y" horiz-adv-x="1089" d="M-147 -373l34 131q30 -10 72 -10q87 0 204 66.5t208 167.5l-168 933h-183l23 129h299l164 -933q159 192 257.5 389.5t98.5 359.5q0 37 -2 55h-198l20 129h319q19 -97 19 -170q0 -120 -50.5 -265t-133 -283t-193 -269.5t-226 -229.5t-237 -158t-221.5 -60q-59 0 -106 18z " />
<glyph unicode="z" horiz-adv-x="995" d="M10 0l19 104l712 816h-413l-29 -172h-135l51 296h754l-19 -104l-706 -815h448l33 192h135l-55 -317h-795z" />
<glyph unicode="{" horiz-adv-x="606" d="M84 602l25 131q72 0 120.5 54.5t67.5 158.5l57 336q25 149 121 211.5t256 62.5l-24 -135q-77 0 -131 -41.5t-66 -111.5l-59 -342q-21 -117 -76 -186t-129 -83q52 -21 84 -73.5t32 -124.5q0 -36 -6 -66l-65 -368q-4 -32 -4 -52q0 -131 141 -131l-22 -129q-125 0 -202 66.5 t-77 169.5q0 30 8 88l62 344q8 50 8 78q0 70 -31 106.5t-90 36.5z" />
<glyph unicode="|" horiz-adv-x="659" d="M285 -422v2026h151v-2026h-151z" />
<glyph unicode="}" horiz-adv-x="604" d="M-86 -287l25 135q77 0 130.5 42t65.5 112l60 342q21 117 75.5 185.5t128.5 82.5q-52 21 -84 74t-32 125q0 36 6 66l65 368q4 32 4 51q0 131 -141 131l23 129q125 0 201.5 -66t76.5 -169q0 -30 -8 -88l-61 -344q-9 -56 -9 -78q0 -70 31 -106.5t90 -36.5l-24 -131 q-72 0 -121 -54.5t-68 -158.5l-57 -336q-25 -149 -121 -212t-256 -63z" />
<glyph unicode="~" horiz-adv-x="999" d="M76 485q16 126 90.5 206.5t193.5 80.5q49 0 99.5 -22.5t85 -49t77 -49t78.5 -22.5q53 0 89.5 39t44.5 96h127q-16 -126 -90.5 -206.5t-192.5 -80.5q-49 0 -100 22.5t-85.5 49.5t-77.5 49.5t-79 22.5q-53 0 -88 -39t-45 -97h-127z" />
<glyph unicode="&#xa1;" horiz-adv-x="561" d="M41 -383l211 1100h135l-164 -1100h-182zM252 1010q0 47 34 80.5t81 33.5t80.5 -33.5t33.5 -80.5q0 -46 -33.5 -79.5t-80.5 -33.5t-81 33.5t-34 79.5z" />
<glyph unicode="&#xa2;" horiz-adv-x="1093" d="M139 600q0 164 67 307.5t182 234t253 107.5l37 205h135l-37 -205q159 -17 287 -96l-49 -285h-135l32 187q-93 55 -217 55q-102 0 -192 -68.5t-142.5 -183.5t-52.5 -246q0 -145 67.5 -234t176.5 -89q89 0 174 52.5t145 135.5l103 -86q-66 -106 -167 -170t-222 -74 l-37 -200h-135l39 209q-141 31 -226.5 152t-85.5 292z" />
<glyph unicode="&#xa3;" horiz-adv-x="1132" d="M66 0l20 117q114 118 186.5 267t79.5 296h-196l22 129h168q-2 20 -6.5 62t-7 72t-2.5 56q0 203 117 331t305 128q191 0 387 -94l-56 -311h-143l37 202q-114 60 -227 60q-118 0 -188 -88t-70 -226q0 -27 2 -59t5.5 -72t4.5 -61h284l-22 -129h-258q-7 -154 -66.5 -294.5 t-156.5 -254.5h520l43 242h143l-65 -373h-860z" />
<glyph unicode="&#xa5;" horiz-adv-x="1249" d="M154 1303l22 131h471l-22 -127h-158l197 -553l401 553h-156l23 127h461l-27 -131h-135l-420 -568h264l-20 -110h-338l-25 -146h338l-20 -110h-338l-41 -238h178l-23 -131h-516l23 131h178l41 238h-338l21 110h337l25 146h-338l21 110h274l-213 568h-147z" />
<glyph unicode="&#xa7;" horiz-adv-x="1161" d="M178 598q0 102 51.5 183t135.5 132q-121 106 -121 261q0 136 89.5 231.5t225.5 95.5q81 0 149 -36.5t107 -96.5v109h143v-349h-129q-20 109 -85.5 170.5t-157.5 61.5q-87 0 -138 -48t-51 -126q0 -45 21 -84.5t57 -69t83 -56.5t98.5 -53t102.5 -53t98 -60t83 -71.5 t57 -91.5t21 -115q0 -207 -180 -323q123 -108 123 -254q0 -150 -91 -249t-233 -99q-89 0 -159 40t-107 105v-119h-144v369h129q21 -112 88.5 -182t161.5 -70q87 0 144 49.5t57 134.5q0 50 -27 94t-71.5 75t-101 63.5t-115 60.5t-115 65.5t-101 78t-71.5 99.5t-27 128z M334 625q0 -48 22 -88.5t67.5 -75t86.5 -58.5t110 -59.5t107 -58.5q62 35 97.5 91t35.5 126q0 41 -17.5 77t-42.5 62t-67.5 54t-78.5 46.5t-90.5 46.5t-88.5 48q-65 -34 -103 -91t-38 -120z" />
<glyph unicode="&#xa8;" horiz-adv-x="847" d="M285 1356q0 43 30 73.5t74 30.5q45 0 75 -30.5t30 -73.5q0 -45 -30 -75t-75 -30q-44 0 -74 30.5t-30 74.5zM649 1356q0 43 30 73.5t75 30.5q44 0 74 -30.5t30 -73.5q0 -44 -30 -74.5t-74 -30.5q-45 0 -75 30t-30 75z" />
<glyph unicode="&#xa9;" horiz-adv-x="1699" d="M150 723q0 153 55 289.5t151 236.5t233.5 158.5t295.5 58.5t295.5 -58.5t233.5 -158.5t151 -236.5t55 -289.5q0 -157 -55 -296t-151 -240.5t-233.5 -160.5t-295.5 -59t-295.5 59t-233.5 160.5t-151 240.5t-55 296zM283 723q0 -178 76 -323t214 -229.5t312 -84.5t312 84.5 t214 229.5t76 323q0 174 -76 316.5t-214.5 225.5t-311.5 83t-311.5 -83t-214.5 -225.5t-76 -316.5zM508 725q0 160 104 271.5t254 111.5q132 0 207 -100v82h107v-246h-86q-20 69 -79 109t-132 40q-104 0 -173 -75.5t-69 -192.5q0 -120 70.5 -198t179.5 -78q66 0 123 32 t92 84l92 -71q-43 -78 -127 -124t-182 -46q-167 0 -274 113.5t-107 287.5z" />
<glyph unicode="&#xaa;" horiz-adv-x="954" d="M166 975q0 129 55 240.5t150.5 177t206.5 65.5q160 0 221 -149l20 125h131l-119 -674h123l-16 -103h-256l23 127q-103 -149 -261 -149q-123 0 -200.5 92.5t-77.5 247.5zM309 977q0 -100 45.5 -158.5t128.5 -58.5q77 0 143 52.5t103 135t37 172.5q0 100 -46 156.5 t-128 56.5q-117 0 -200 -107t-83 -249z" />
<glyph unicode="&#xab;" horiz-adv-x="903" d="M76 606l305 361h172l-320 -377l189 -375h-152zM432 575l332 392h172l-346 -408l172 -344h-152z" />
<glyph unicode="&#xad;" horiz-adv-x="688" d="M86 541l29 151h522l-29 -151h-522z" />
<glyph unicode="&#xae;" horiz-adv-x="1030" d="M197 1104q0 175 116 295.5t305 120.5t305.5 -120.5t116.5 -295.5t-116.5 -296.5t-305.5 -121.5q-188 0 -304.5 121t-116.5 297zM291 1104q0 -144 88.5 -238t238.5 -94q151 0 239.5 94t88.5 238t-88 238t-240 94q-148 0 -237.5 -94.5t-89.5 -237.5zM455 1268v65h176 q59 0 100 -35t41 -88q0 -41 -25 -72.5t-65 -45.5l72 -123h57v-66h-109l-98 176h-33v-110h35v-66h-149v66h39v299h-41zM571 1141h37q32 0 55 16.5t23 48.5q0 29 -21.5 45.5t-48.5 16.5h-45v-127z" />
<glyph unicode="&#xaf;" horiz-adv-x="854" d="M268 1262l21 127h583l-22 -127h-582z" />
<glyph unicode="&#xb0;" horiz-adv-x="710" d="M178 1165q0 123 82.5 209t208.5 86t208.5 -86t82.5 -209q0 -126 -82 -211.5t-209 -85.5t-209 85.5t-82 211.5zM303 1165q0 -76 46 -126t120 -50t118 49.5t44 126.5q0 75 -44.5 124.5t-117.5 49.5q-74 0 -120 -49.5t-46 -124.5z" />
<glyph unicode="&#xb2;" horiz-adv-x="694" d="M109 627l8 49q12 69 42 129.5t69 103.5t83 80.5t86 68t76 59t55 59.5t21 63q0 43 -25.5 72.5t-70.5 29.5q-48 0 -88 -36.5t-66 -87.5l-94 49q39 82 106.5 133t153.5 51q96 0 153.5 -63t57.5 -144q0 -62 -38.5 -117.5t-95.5 -100t-116 -87t-108.5 -96.5t-63.5 -111h252 l20 119h107l-39 -223h-485z" />
<glyph unicode="&#xb3;" horiz-adv-x="675" d="M84 795l100 47q15 -51 55.5 -89t92.5 -38q71 0 118.5 41t47.5 104q0 62 -40 100.5t-98 38.5h-47l21 109q88 10 147.5 45t59.5 96q0 40 -30 67t-71 25q-87 -2 -151 -94l-84 56q41 67 105 107t141 40q84 0 146 -56.5t62 -142.5q0 -90 -62 -139t-151 -57q83 -6 131 -58.5 t48 -136.5q0 -109 -86.5 -181.5t-210.5 -72.5q-88 0 -153.5 51.5t-90.5 137.5z" />
<glyph unicode="&#xb4;" horiz-adv-x="579" d="M236 1212l206 283h207l-258 -283h-155z" />
<glyph unicode="&#xb6;" horiz-adv-x="1241" d="M154 1055q0 158 110 268.5t268 110.5h627v-136h-186v-1390h-139v1390h-156v-1390h-139v766q-162 1 -273.5 111.5t-111.5 269.5z" />
<glyph unicode="&#xb7;" horiz-adv-x="481" d="M133 621q0 51 38 87.5t89 36.5t87 -36.5t36 -87.5t-36 -88t-87 -37t-89 37t-38 88z" />
<glyph unicode="&#xb8;" horiz-adv-x="557" d="M-31 -422l37 100q32 -16 70 -16q46 0 80 23.5t34 62.5q0 37 -26 56.5t-66 19.5q-21 0 -41 -4l74 200h90l-41 -110q56 -8 93.5 -51.5t37.5 -106.5q0 -91 -69.5 -143.5t-167.5 -52.5q-59 0 -105 22z" />
<glyph unicode="&#xb9;" horiz-adv-x="606" d="M135 627l19 102h135l100 574l-153 -101l-56 88l240 144h112l-124 -705h124l-18 -102h-379z" />
<glyph unicode="&#xba;" horiz-adv-x="921" d="M166 977q0 200 124 337.5t308 137.5q146 0 244 -98t98 -244q0 -127 -55 -236.5t-156.5 -177t-224.5 -67.5q-147 0 -242.5 98.5t-95.5 249.5zM309 975q0 -97 53.5 -158t143.5 -61q84 0 152 52t103.5 132.5t35.5 169.5q0 94 -55 154.5t-146 60.5q-125 0 -206 -103.5 t-81 -246.5z" />
<glyph unicode="&#xbb;" horiz-adv-x="919" d="M8 215l346 408l-172 344h152l178 -361l-332 -391h-172zM391 215l320 377l-189 375h152l194 -392l-305 -360h-172z" />
<glyph unicode="&#xbc;" horiz-adv-x="1683" d="M147 627l19 102h135l100 574l-153 -101l-55 88l239 144h113l-125 -705h125l-19 -102h-379zM244 -84l1054 1602h156l-1055 -1602h-155zM885 217l14 84l469 510h109l-86 -496h116l-18 -98h-117l-20 -117h116l-16 -100h-367l19 100h137l21 117h-377zM1028 315h250l59 334z " />
<glyph unicode="&#xbd;" horiz-adv-x="1683" d="M147 627l19 102h135l100 574l-153 -101l-55 88l239 144h113l-125 -705h125l-19 -102h-379zM236 -84l1054 1602h156l-1055 -1602h-155zM967 0l8 49q12 69 42 129.5t69 103.5t83 80.5t86 68t76 59t55 59.5t21 63q0 44 -25.5 73.5t-70.5 29.5q-48 0 -88 -37t-66 -88l-94 49 q39 82 106.5 133t153.5 51q96 0 153.5 -63t57.5 -144q0 -62 -38.5 -117.5t-95.5 -100t-116 -87t-108.5 -96.5t-63.5 -111h252l20 119h107l-39 -223h-485z" />
<glyph unicode="&#xbe;" horiz-adv-x="1742" d="M125 795l100 47q15 -51 55.5 -89t92.5 -38q71 0 118.5 41t47.5 104q0 62 -40 100.5t-98 38.5h-47l21 109q88 10 147.5 45t59.5 96q0 40 -30 67t-71 25q-87 -2 -151 -94l-84 56q41 67 105 107t141 40q84 0 146 -56.5t62 -142.5q0 -90 -62 -139t-151 -57q83 -6 131 -58.5 t48 -136.5q0 -109 -86.5 -181.5t-210.5 -72.5q-88 0 -153.5 51.5t-90.5 137.5zM291 -84l1055 1602h155l-1055 -1602h-155zM944 217l14 84l469 510h109l-86 -496h117l-19 -98h-116l-21 -117h117l-17 -100h-366l18 100h137l21 117h-377zM1087 315h250l60 334z" />
<glyph unicode="&#xbf;" horiz-adv-x="829" d="M-47 -53q0 71 24.5 135.5t65 113.5t89 94.5t99 87t94 81.5t74.5 87.5t39 96.5l15 90h155l-20 -117q-11 -62 -42.5 -119t-73.5 -100.5t-90 -85.5t-94 -82t-83.5 -81t-60.5 -91.5t-23 -105.5q0 -84 60.5 -138.5t150.5 -54.5q89 0 161.5 54t114.5 129l123 -68 q-61 -117 -166.5 -188.5t-255.5 -71.5q-155 0 -255.5 96t-100.5 238zM436 1026q0 47 34 81t81 34t81 -34t34 -81t-34 -81t-81 -34t-81 34t-34 81z" />
<glyph unicode="&#xc0;" horiz-adv-x="1335" d="M-100 0l22 131h131l686 1307h172l224 -1307h131l-23 -131h-479l22 131h181l-64 354h-504l-188 -354h178l-22 -131h-467zM467 616h414l-95 639zM670 1874h170l96 -295h-137z" />
<glyph unicode="&#xc1;" horiz-adv-x="1335" d="M-100 0l22 131h131l686 1307h172l224 -1307h131l-23 -131h-479l22 131h181l-64 354h-504l-188 -354h178l-22 -131h-467zM467 616h414l-95 639zM735 1581l207 283h207l-258 -283h-156z" />
<glyph unicode="&#xc2;" horiz-adv-x="1335" d="M-100 0l22 131h131l686 1307h172l224 -1307h131l-23 -131h-479l22 131h181l-64 354h-504l-188 -354h178l-22 -131h-467zM467 616h414l-95 639zM565 1579l260 266h162l158 -266h-146l-100 170l-162 -170h-172z" />
<glyph unicode="&#xc3;" horiz-adv-x="1335" d="M-100 0l22 131h131l686 1307h172l224 -1307h131l-23 -131h-479l22 131h181l-64 354h-504l-188 -354h178l-22 -131h-467zM467 616h414l-95 639zM526 1606q17 94 79 155.5t143 61.5q46 0 93.5 -23.5t88 -47t71.5 -23.5q29 0 52 23t32 60h107q-18 -94 -77.5 -155.5 t-139.5 -61.5q-37 0 -75.5 15t-64.5 32.5t-58.5 32.5t-59.5 15q-29 0 -52 -23.5t-32 -60.5h-107z" />
<glyph unicode="&#xc4;" horiz-adv-x="1335" d="M-100 0l22 131h131l686 1307h172l224 -1307h131l-23 -131h-479l22 131h181l-64 354h-504l-188 -354h178l-22 -131h-467zM467 616h414l-95 639zM582 1724q0 43 30 74t74 31q45 0 75 -31t30 -74q0 -44 -29.5 -74t-75.5 -30q-44 0 -74 30t-30 74zM946 1724q0 43 30 74t75 31 q44 0 74 -31t30 -74q0 -44 -30 -74t-74 -30q-45 0 -75 30t-30 74z" />
<glyph unicode="&#xc5;" horiz-adv-x="1335" d="M-100 0l22 131h131l686 1307h172l224 -1307h131l-23 -131h-479l22 131h181l-64 354h-504l-188 -354h178l-22 -131h-467zM467 616h414l-95 639zM692 1704q0 88 59.5 144.5t141.5 56.5q62 0 108 -44t46 -106q0 -87 -60.5 -145t-142.5 -58q-62 0 -107 44.5t-45 107.5z M786 1708q0 -31 18 -50.5t48 -19.5q42 0 70 31t28 80q0 31 -17.5 50.5t-47.5 19.5q-42 0 -70.5 -31t-28.5 -80z" />
<glyph unicode="&#xc6;" horiz-adv-x="1835" d="M-104 0l22 131h148l950 1303h842l-62 -351h-151l38 220h-409l-88 -504h420l-25 -140h-420l-94 -528h424l39 219h151l-61 -350h-915l22 131h174l94 528h-370l-377 -528h153l-22 -131h-483zM711 778h305l100 568z" />
<glyph unicode="&#xc7;" horiz-adv-x="1382" d="M152 575q0 180 64 346t169.5 284.5t246.5 189.5t290 71q262 0 477 -127l-64 -362h-143l45 260q-138 82 -324 82q-152 0 -287.5 -103.5t-214.5 -270.5t-79 -349q0 -138 41.5 -244t130 -169.5t213.5 -63.5q122 0 234 72t186 190l123 -86q-91 -152 -240 -240t-315 -88h-31 l-21 -57q56 -8 93.5 -51.5t37.5 -106.5q0 -91 -69.5 -143.5t-167.5 -52.5q-59 0 -105 22l37 100q32 -16 70 -16q46 0 80.5 23.5t34.5 62.5q0 37 -26.5 56.5t-66.5 19.5q-21 0 -41 -4l58 157q-201 41 -318.5 207t-117.5 391z" />
<glyph unicode="&#xc8;" horiz-adv-x="1169" d="M23 0l22 131h170l209 1172h-170l22 131h926l-61 -342h-152l39 211h-436l-86 -484h434l-25 -143h-434l-96 -545h440l43 240h152l-66 -371h-931zM612 1874h170l97 -295h-138z" />
<glyph unicode="&#xc9;" horiz-adv-x="1169" d="M23 0l22 131h170l209 1172h-170l22 131h926l-61 -342h-152l39 211h-436l-86 -484h434l-25 -143h-434l-96 -545h440l43 240h152l-66 -371h-931zM678 1581l207 283h207l-258 -283h-156z" />
<glyph unicode="&#xca;" horiz-adv-x="1169" d="M23 0l22 131h170l209 1172h-170l22 131h926l-61 -342h-152l39 211h-436l-86 -484h434l-25 -143h-434l-96 -545h440l43 240h152l-66 -371h-931zM508 1579l260 266h162l157 -266h-145l-100 170l-162 -170h-172z" />
<glyph unicode="&#xcb;" horiz-adv-x="1169" d="M23 0l22 131h170l209 1172h-170l22 131h926l-61 -342h-152l39 211h-436l-86 -484h434l-25 -143h-434l-96 -545h440l43 240h152l-66 -371h-931zM524 1724q0 43 30.5 74t74.5 31q45 0 74.5 -30.5t29.5 -74.5q0 -45 -29.5 -74.5t-74.5 -29.5q-44 0 -74.5 30t-30.5 74z M889 1724q0 44 29.5 74.5t74.5 30.5q44 0 74.5 -31t30.5 -74q0 -44 -30.5 -74t-74.5 -30q-45 0 -74.5 29.5t-29.5 74.5z" />
<glyph unicode="&#xcc;" horiz-adv-x="739" d="M23 0l22 131h170l209 1172h-170l22 131h508l-22 -131h-170l-209 -1172h170l-23 -131h-507zM354 1874h170l97 -295h-138z" />
<glyph unicode="&#xcd;" horiz-adv-x="739" d="M23 0l22 131h170l209 1172h-170l22 131h508l-22 -131h-170l-209 -1172h170l-23 -131h-507zM420 1581l207 283h207l-259 -283h-155z" />
<glyph unicode="&#xce;" horiz-adv-x="739" d="M23 0l22 131h170l209 1172h-170l22 131h508l-22 -131h-170l-209 -1172h170l-23 -131h-507zM250 1579l260 266h162l157 -266h-145l-100 170l-162 -170h-172z" />
<glyph unicode="&#xcf;" horiz-adv-x="739" d="M23 0l22 131h170l209 1172h-170l22 131h508l-22 -131h-170l-209 -1172h170l-23 -131h-507zM266 1724q0 43 30.5 74t74.5 31q45 0 74.5 -30.5t29.5 -74.5q0 -45 -29.5 -74.5t-74.5 -29.5q-44 0 -74.5 30t-30.5 74zM631 1724q0 44 29.5 74.5t74.5 30.5q44 0 74.5 -31 t30.5 -74q0 -44 -30.5 -74t-74.5 -30q-45 0 -74.5 29.5t-29.5 74.5z" />
<glyph unicode="&#xd0;" horiz-adv-x="1531" d="M88 0l23 131h170l96 549h-234l23 129h233l88 494h-170l23 131h551q247 0 403 -154.5t156 -402.5q0 -187 -57 -348.5t-160.5 -278.5t-255 -183.5t-332.5 -66.5h-557zM451 131h184q134 0 252.5 59t202 158.5t132 235t48.5 284.5q0 198 -119.5 316.5t-310.5 118.5h-185 l-86 -494h291l-22 -129h-291z" />
<glyph unicode="&#xd1;" horiz-adv-x="1587" d="M23 0l22 131h170l209 1172h-172l22 131h336l527 -1180l186 1049h-170l23 131h489l-23 -131h-169l-232 -1303h-170l-520 1184l-186 -1053h167l-22 -131h-487zM635 1606q18 94 79 155.5t142 61.5q46 0 93.5 -23.5t88.5 -47t72 -23.5q29 0 52 23t32 60h106 q-18 -94 -77.5 -155.5t-139.5 -61.5q-37 0 -75.5 15t-64.5 32.5t-58.5 32.5t-59.5 15q-29 0 -52 -23.5t-32 -60.5h-106z" />
<glyph unicode="&#xd2;" horiz-adv-x="1593" d="M152 571q0 177 62 341.5t167 286t251.5 194.5t307.5 73q168 0 299.5 -77t202.5 -210.5t71 -299.5q0 -176 -62 -343t-167 -292t-252 -201t-307 -76q-168 0 -299.5 79.5t-202.5 217t-71 307.5zM332 592q0 -210 108 -341.5t295 -131.5q99 0 191.5 41.5t165 113.5t127.5 165 t84.5 201.5t29.5 217.5q0 207 -108 332t-297 125q-164 0 -302.5 -104t-216 -270t-77.5 -349zM801 1874h170l96 -295h-137z" />
<glyph unicode="&#xd3;" horiz-adv-x="1593" d="M152 571q0 177 62 341.5t167 286t251.5 194.5t307.5 73q168 0 299.5 -77t202.5 -210.5t71 -299.5q0 -176 -62 -343t-167 -292t-252 -201t-307 -76q-168 0 -299.5 79.5t-202.5 217t-71 307.5zM332 592q0 -210 108 -341.5t295 -131.5q99 0 191.5 41.5t165 113.5t127.5 165 t84.5 201.5t29.5 217.5q0 207 -108 332t-297 125q-164 0 -302.5 -104t-216 -270t-77.5 -349zM866 1581l207 283h207l-258 -283h-156z" />
<glyph unicode="&#xd4;" horiz-adv-x="1593" d="M152 571q0 177 62 341.5t167 286t251.5 194.5t307.5 73q168 0 299.5 -77t202.5 -210.5t71 -299.5q0 -176 -62 -343t-167 -292t-252 -201t-307 -76q-168 0 -299.5 79.5t-202.5 217t-71 307.5zM332 592q0 -210 108 -341.5t295 -131.5q99 0 191.5 41.5t165 113.5t127.5 165 t84.5 201.5t29.5 217.5q0 207 -108 332t-297 125q-164 0 -302.5 -104t-216 -270t-77.5 -349zM696 1579l260 266h162l158 -266h-146l-100 170l-162 -170h-172z" />
<glyph unicode="&#xd5;" horiz-adv-x="1593" d="M152 571q0 177 62 341.5t167 286t251.5 194.5t307.5 73q168 0 299.5 -77t202.5 -210.5t71 -299.5q0 -176 -62 -343t-167 -292t-252 -201t-307 -76q-168 0 -299.5 79.5t-202.5 217t-71 307.5zM332 592q0 -210 108 -341.5t295 -131.5q99 0 191.5 41.5t165 113.5t127.5 165 t84.5 201.5t29.5 217.5q0 207 -108 332t-297 125q-164 0 -302.5 -104t-216 -270t-77.5 -349zM657 1606q17 94 79 155.5t143 61.5q46 0 93.5 -23.5t88.5 -47t72 -23.5q29 0 52 23t32 60h106q-18 -94 -77.5 -155.5t-139.5 -61.5q-37 0 -75.5 15t-64.5 32.5t-58.5 32.5 t-59.5 15q-29 0 -52 -23.5t-32 -60.5h-107z" />
<glyph unicode="&#xd6;" horiz-adv-x="1593" d="M152 571q0 177 62 341.5t167 286t251.5 194.5t307.5 73q168 0 299.5 -77t202.5 -210.5t71 -299.5q0 -176 -62 -343t-167 -292t-252 -201t-307 -76q-168 0 -299.5 79.5t-202.5 217t-71 307.5zM332 592q0 -210 108 -341.5t295 -131.5q99 0 191.5 41.5t165 113.5t127.5 165 t84.5 201.5t29.5 217.5q0 207 -108 332t-297 125q-164 0 -302.5 -104t-216 -270t-77.5 -349zM713 1724q0 43 30 74t74 31q45 0 75 -31t30 -74q0 -44 -30 -74t-75 -30q-44 0 -74 30t-30 74zM1077 1724q0 43 30 74t75 31q44 0 74 -31t30 -74q0 -44 -30 -74t-74 -30 q-46 0 -75.5 30t-29.5 74z" />
<glyph unicode="&#xd7;" horiz-adv-x="1265" d="M199 258l354 381l-354 379l106 100l348 -373l348 373l107 -100l-354 -379l354 -381l-107 -100l-348 372l-348 -372z" />
<glyph unicode="&#xd8;" horiz-adv-x="1593" d="M53 68l180 180q-81 141 -81 323q0 177 62 341.5t167 286t251.5 194.5t307.5 73q225 0 377 -133l137 137l100 -100l-143 -143q102 -148 102 -348q0 -176 -62 -343t-167 -292t-252 -201t-307 -76q-248 0 -408 166l-163 -166zM332 592q0 -115 35 -211l833 836 q-106 98 -272 98q-164 0 -302.5 -104t-216 -270t-77.5 -349zM438 252q111 -133 297 -133q99 0 191.5 41.5t165 113.5t127.5 165t84.5 201.5t29.5 217.5q0 141 -49 242z" />
<glyph unicode="&#xd9;" horiz-adv-x="1497" d="M207 1303l22 131h512l-22 -131h-178l-140 -799q-10 -58 -10 -96q0 -126 79.5 -206.5t217.5 -80.5q146 0 255.5 100.5t137.5 253.5l150 828h-176l22 131h510l-22 -131h-166l-148 -832q-39 -227 -189.5 -364.5t-381.5 -137.5q-204 0 -332.5 119t-128.5 297q0 65 12 127 l142 791h-166zM760 1874h170l96 -295h-137z" />
<glyph unicode="&#xda;" horiz-adv-x="1497" d="M207 1303l22 131h512l-22 -131h-178l-140 -799q-10 -58 -10 -96q0 -126 79.5 -206.5t217.5 -80.5q146 0 255.5 100.5t137.5 253.5l150 828h-176l22 131h510l-22 -131h-166l-148 -832q-39 -227 -189.5 -364.5t-381.5 -137.5q-204 0 -332.5 119t-128.5 297q0 65 12 127 l142 791h-166zM752 1561l206 282h207l-258 -282h-155z" />
<glyph unicode="&#xdb;" horiz-adv-x="1497" d="M207 1303l22 131h512l-22 -131h-178l-140 -799q-10 -58 -10 -96q0 -126 79.5 -206.5t217.5 -80.5q146 0 255.5 100.5t137.5 253.5l150 828h-176l22 131h510l-22 -131h-166l-148 -832q-39 -227 -189.5 -364.5t-381.5 -137.5q-204 0 -332.5 119t-128.5 297q0 65 12 127 l142 791h-166zM655 1579l260 266h162l158 -266h-145l-101 170l-162 -170h-172z" />
<glyph unicode="&#xdc;" horiz-adv-x="1497" d="M207 1303l22 131h512l-22 -131h-178l-140 -799q-10 -58 -10 -96q0 -126 79.5 -206.5t217.5 -80.5q146 0 255.5 100.5t137.5 253.5l150 828h-176l22 131h510l-22 -131h-166l-148 -832q-39 -227 -189.5 -364.5t-381.5 -137.5q-204 0 -332.5 119t-128.5 297q0 65 12 127 l142 791h-166zM672 1724q0 43 30 74t74 31q45 0 75 -31t30 -74q0 -44 -29.5 -74t-75.5 -30q-44 0 -74 30t-30 74zM1036 1724q0 43 30 74t75 31q44 0 74 -31t30 -74q0 -44 -30 -74t-74 -30q-45 0 -75 30t-30 74z" />
<glyph unicode="&#xdd;" horiz-adv-x="1251" d="M129 1303l23 131h485l-23 -127h-157l209 -543l407 543h-158l23 127h473l-27 -131h-141l-522 -685l-88 -487h180l-22 -131h-529l23 131h180l88 492l-270 680h-154zM688 1581l207 283h207l-258 -283h-156z" />
<glyph unicode="&#xde;" horiz-adv-x="1191" d="M23 0l22 131h170l209 1172h-170l22 131h508l-22 -131h-170l-37 -207h236q160 0 261 -86t101 -230q0 -124 -67 -219.5t-183 -147t-262 -51.5h-217l-41 -231h170l-23 -131h-507zM449 494h204q136 0 230 82.5t94 191.5q0 93 -62 147t-161 54h-222z" />
<glyph unicode="&#xdf;" d="M-162 -369l31 127q31 -14 76 -14q76 0 131.5 55.5t70.5 143.5l172 972h-167l22 129h168l16 89q30 173 138.5 264.5t275.5 91.5q133 0 227.5 -84t94.5 -195q0 -109 -70 -188t-174 -125q126 -31 205.5 -134t79.5 -235q0 -148 -83.5 -270.5t-220.5 -190t-294 -67.5h-41 l24 137q114 0 217 51t166.5 139.5t63.5 190.5q0 124 -89.5 206.5t-232.5 94.5l21 125q110 0 187 74.5t77 171.5q0 70 -49 114t-125 44q-100 0 -162.5 -57.5t-81.5 -164.5l-211 -1194q-28 -153 -119 -238t-235 -85q-56 0 -109 22z" />
<glyph unicode="&#xe0;" horiz-adv-x="1275" d="M100 412q0 184 72.5 336.5t199.5 240.5t281 88q107 0 188.5 -58t114.5 -149l31 174h156l-162 -915h168l-23 -129h-323l33 178q-62 -94 -159 -151.5t-216 -57.5q-157 0 -259 124.5t-102 318.5zM268 432q0 -148 63 -233.5t177 -85.5q112 0 206.5 73t147.5 191t53 250 q0 145 -69.5 226t-192.5 81q-100 0 -189.5 -71.5t-142.5 -187.5t-53 -243zM547 1505h170l96 -295h-137z" />
<glyph unicode="&#xe1;" horiz-adv-x="1275" d="M100 412q0 184 72.5 336.5t199.5 240.5t281 88q107 0 188.5 -58t114.5 -149l31 174h156l-162 -915h168l-23 -129h-323l33 178q-62 -94 -159 -151.5t-216 -57.5q-157 0 -259 124.5t-102 318.5zM268 432q0 -148 63 -233.5t177 -85.5q112 0 206.5 73t147.5 191t53 250 q0 145 -69.5 226t-192.5 81q-100 0 -189.5 -71.5t-142.5 -187.5t-53 -243zM612 1212l207 283h207l-258 -283h-156z" />
<glyph unicode="&#xe2;" horiz-adv-x="1275" d="M100 412q0 184 72.5 336.5t199.5 240.5t281 88q107 0 188.5 -58t114.5 -149l31 174h156l-162 -915h168l-23 -129h-323l33 178q-62 -94 -159 -151.5t-216 -57.5q-157 0 -259 124.5t-102 318.5zM268 432q0 -148 63 -233.5t177 -85.5q112 0 206.5 73t147.5 191t53 250 q0 145 -69.5 226t-192.5 81q-100 0 -189.5 -71.5t-142.5 -187.5t-53 -243zM442 1210l260 267h162l158 -267h-145l-101 170l-162 -170h-172z" />
<glyph unicode="&#xe3;" horiz-adv-x="1275" d="M100 412q0 184 72.5 336.5t199.5 240.5t281 88q107 0 188.5 -58t114.5 -149l31 174h156l-162 -915h168l-23 -129h-323l33 178q-62 -94 -159 -151.5t-216 -57.5q-157 0 -259 124.5t-102 318.5zM268 432q0 -148 63 -233.5t177 -85.5q112 0 206.5 73t147.5 191t53 250 q0 145 -69.5 226t-192.5 81q-100 0 -189.5 -71.5t-142.5 -187.5t-53 -243zM403 1237q17 94 79 155.5t143 61.5q46 0 93.5 -23.5t88.5 -47t72 -23.5q29 0 52 23.5t32 60.5h106q-18 -94 -77.5 -155.5t-139.5 -61.5q-47 0 -94 23.5t-89 47t-75 23.5q-29 0 -52 -23.5t-32 -60.5 h-107z" />
<glyph unicode="&#xe4;" horiz-adv-x="1275" d="M100 412q0 184 72.5 336.5t199.5 240.5t281 88q107 0 188.5 -58t114.5 -149l31 174h156l-162 -915h168l-23 -129h-323l33 178q-62 -94 -159 -151.5t-216 -57.5q-157 0 -259 124.5t-102 318.5zM268 432q0 -148 63 -233.5t177 -85.5q112 0 206.5 73t147.5 191t53 250 q0 145 -69.5 226t-192.5 81q-100 0 -189.5 -71.5t-142.5 -187.5t-53 -243zM459 1356q0 43 30 73.5t74 30.5q45 0 75 -30.5t30 -73.5q0 -45 -30 -75t-75 -30q-44 0 -74 30.5t-30 74.5zM823 1356q0 43 30 73.5t75 30.5q44 0 74 -30.5t30 -73.5q0 -44 -30 -74.5t-74 -30.5 q-45 0 -75 30t-30 75z" />
<glyph unicode="&#xe5;" horiz-adv-x="1275" d="M100 412q0 184 72.5 336.5t199.5 240.5t281 88q107 0 188.5 -58t114.5 -149l31 174h156l-162 -915h168l-23 -129h-323l33 178q-62 -94 -159 -151.5t-216 -57.5q-157 0 -259 124.5t-102 318.5zM268 432q0 -148 63 -233.5t177 -85.5q112 0 206.5 73t147.5 191t53 250 q0 145 -69.5 226t-192.5 81q-100 0 -189.5 -71.5t-142.5 -187.5t-53 -243zM569 1335q0 88 59.5 144.5t141.5 56.5q62 0 108 -44t46 -106q0 -87 -60.5 -144.5t-142.5 -57.5q-62 0 -107 44t-45 107zM664 1339q0 -31 17.5 -50t47.5 -19q42 0 70 30.5t28 79.5q0 31 -17.5 50.5 t-47.5 19.5q-42 0 -70 -31t-28 -80z" />
<glyph unicode="&#xe6;" horiz-adv-x="1970" d="M98 408q0 182 74.5 336t203.5 243.5t283 89.5q120 0 230 -51.5t196 -138.5q80 90 186.5 140t221.5 50q176 0 279.5 -113t103.5 -276q0 -85 -25 -180h-764q-2 -18 -2 -57q0 -144 73 -239t194 -95q94 0 186 46t158 122l94 -90q-77 -102 -199.5 -162t-257.5 -60 q-160 0 -265 92t-136 250q-186 -346 -469 -346q-161 0 -263 122t-102 317zM266 424q0 -139 57.5 -225t161.5 -86q250 0 461 567l31 90q-56 72 -139 118t-174 46q-102 0 -194.5 -72t-148 -190t-55.5 -248zM1116 635h588q4 28 4 61q0 104 -63 173t-166 69q-113 0 -214.5 -84.5 t-148.5 -218.5z" />
<glyph unicode="&#xe7;" horiz-adv-x="1077" d="M100 424q0 176 76.5 326.5t206 238.5t279.5 88q196 0 362 -100l-49 -285h-135l32 187q-93 55 -217 55q-102 0 -192 -68.5t-142.5 -183.5t-52.5 -246q0 -145 67.5 -234t176.5 -89q89 0 174 52.5t145 135.5l103 -86q-69 -113 -178 -177.5t-238 -68.5l-22 -59 q56 -8 93.5 -51.5t37.5 -106.5q0 -91 -70 -143.5t-168 -52.5q-58 0 -104 22l37 100q32 -16 69 -16q46 0 80.5 23.5t34.5 62.5q0 37 -26 56.5t-66 19.5q-21 0 -41 -4l57 155q-149 25 -239.5 148.5t-90.5 300.5z" />
<glyph unicode="&#xe8;" horiz-adv-x="1153" d="M102 442q0 131 47.5 249.5t126.5 202.5t184 133.5t216 49.5q176 0 279.5 -113t103.5 -276q0 -85 -25 -180h-764q-2 -18 -2 -57q0 -144 73 -239t194 -95q94 0 186 46t158 122l94 -90q-77 -102 -199.5 -162t-257.5 -60q-191 0 -302.5 128.5t-111.5 340.5zM299 635h588 q4 28 4 61q0 104 -63 173t-166 69q-113 0 -214.5 -84.5t-148.5 -218.5zM526 1505h170l97 -295h-138z" />
<glyph unicode="&#xe9;" horiz-adv-x="1153" d="M102 442q0 131 47.5 249.5t126.5 202.5t184 133.5t216 49.5q176 0 279.5 -113t103.5 -276q0 -85 -25 -180h-764q-2 -18 -2 -57q0 -144 73 -239t194 -95q94 0 186 46t158 122l94 -90q-77 -102 -199.5 -162t-257.5 -60q-191 0 -302.5 128.5t-111.5 340.5zM299 635h588 q4 28 4 61q0 104 -63 173t-166 69q-113 0 -214.5 -84.5t-148.5 -218.5zM592 1212l207 283h207l-258 -283h-156z" />
<glyph unicode="&#xea;" horiz-adv-x="1153" d="M102 442q0 131 47.5 249.5t126.5 202.5t184 133.5t216 49.5q176 0 279.5 -113t103.5 -276q0 -85 -25 -180h-764q-2 -18 -2 -57q0 -144 73 -239t194 -95q94 0 186 46t158 122l94 -90q-77 -102 -199.5 -162t-257.5 -60q-191 0 -302.5 128.5t-111.5 340.5zM299 635h588 q4 28 4 61q0 104 -63 173t-166 69q-113 0 -214.5 -84.5t-148.5 -218.5zM422 1210l260 267h162l157 -267h-145l-100 170l-162 -170h-172z" />
<glyph unicode="&#xeb;" horiz-adv-x="1153" d="M102 442q0 131 47.5 249.5t126.5 202.5t184 133.5t216 49.5q176 0 279.5 -113t103.5 -276q0 -85 -25 -180h-764q-2 -18 -2 -57q0 -144 73 -239t194 -95q94 0 186 46t158 122l94 -90q-77 -102 -199.5 -162t-257.5 -60q-191 0 -302.5 128.5t-111.5 340.5zM299 635h588 q4 28 4 61q0 104 -63 173t-166 69q-113 0 -214.5 -84.5t-148.5 -218.5zM438 1356q0 43 30.5 73.5t74.5 30.5q45 0 74.5 -30.5t29.5 -73.5q0 -45 -29.5 -75t-74.5 -30q-44 0 -74.5 30.5t-30.5 74.5zM803 1356q0 43 29.5 73.5t74.5 30.5q44 0 74.5 -30.5t30.5 -73.5 q0 -44 -30.5 -74.5t-74.5 -30.5q-45 0 -74.5 30t-29.5 75z" />
<glyph unicode="&#xec;" horiz-adv-x="606" d="M127 915l23 129h323l-162 -915h168l-22 -129h-324l162 915h-168zM211 1505h170l96 -295h-137z" />
<glyph unicode="&#xed;" horiz-adv-x="606" d="M127 915l23 129h323l-162 -915h168l-22 -129h-324l162 915h-168zM276 1212l207 283h207l-258 -283h-156z" />
<glyph unicode="&#xee;" horiz-adv-x="606" d="M106 1210l261 267h161l158 -267h-145l-101 170l-161 -170h-173zM127 915l23 129h323l-162 -915h168l-22 -129h-324l162 915h-168z" />
<glyph unicode="&#xef;" horiz-adv-x="612" d="M133 915l23 129h323l-162 -915h168l-22 -129h-324l162 915h-168zM139 1348q0 43 29.5 72.5t73.5 29.5t73 -29.5t29 -72.5q0 -44 -29 -73.5t-73 -29.5t-73.5 29.5t-29.5 73.5zM471 1350q0 42 28.5 71t73.5 29q44 0 73.5 -29t29.5 -71q0 -46 -29.5 -75.5t-73.5 -29.5 q-45 0 -73.5 29.5t-28.5 75.5z" />
<glyph unicode="&#xf0;" horiz-adv-x="1200" d="M96 410q0 167 74 306t202 218.5t281 79.5q88 0 166 -46t121 -124q-38 231 -211 385l-295 -131l-43 100l238 107q-73 48 -183 92l80 104q150 -62 250 -133l297 133l43 -100l-246 -109q234 -217 234 -565q0 -211 -69 -381.5t-205.5 -273.5t-317.5 -103q-188 0 -302 124 t-114 317zM262 418q0 -137 69.5 -221t188.5 -84q107 0 202 72t149.5 183t54.5 226q0 128 -74.5 204t-198.5 76q-106 0 -196.5 -63.5t-142.5 -168.5t-52 -224z" />
<glyph unicode="&#xf1;" horiz-adv-x="1282" d="M127 915l23 129h323l-31 -172q57 89 152.5 144t202.5 55q131 0 217 -86.5t86 -216.5q0 -30 -8 -80l-99 -559h168l-22 -129h-324l119 676q6 27 6 57q0 88 -58 141.5t-153 53.5q-112 0 -211 -91.5t-119 -213.5l-110 -623h-156l162 915h-168zM455 1237q18 94 79 155.5 t142 61.5q46 0 93.5 -23.5t88.5 -47t72 -23.5q29 0 52 23.5t32 60.5h106q-18 -94 -77.5 -155.5t-139.5 -61.5q-47 0 -94 23.5t-89 47t-75 23.5q-29 0 -52 -23.5t-32 -60.5h-106z" />
<glyph unicode="&#xf2;" horiz-adv-x="1226" d="M102 428q0 177 73.5 326t207.5 238t299 89q199 0 321.5 -125.5t122.5 -326.5q0 -177 -73.5 -329t-207.5 -243.5t-300 -91.5q-201 0 -322 127.5t-121 335.5zM270 436q0 -146 75 -236.5t200 -90.5q115 0 211.5 73.5t149 190t52.5 245.5q0 145 -76 232.5t-202 87.5 q-115 0 -210.5 -72t-147.5 -186.5t-52 -243.5zM557 1505h170l96 -295h-137z" />
<glyph unicode="&#xf3;" horiz-adv-x="1226" d="M102 428q0 177 73.5 326t207.5 238t299 89q199 0 321.5 -125.5t122.5 -326.5q0 -177 -73.5 -329t-207.5 -243.5t-300 -91.5q-201 0 -322 127.5t-121 335.5zM270 436q0 -146 75 -236.5t200 -90.5q115 0 211.5 73.5t149 190t52.5 245.5q0 145 -76 232.5t-202 87.5 q-115 0 -210.5 -72t-147.5 -186.5t-52 -243.5zM623 1212l206 283h207l-258 -283h-155z" />
<glyph unicode="&#xf4;" horiz-adv-x="1226" d="M102 428q0 177 73.5 326t207.5 238t299 89q199 0 321.5 -125.5t122.5 -326.5q0 -177 -73.5 -329t-207.5 -243.5t-300 -91.5q-201 0 -322 127.5t-121 335.5zM270 436q0 -146 75 -236.5t200 -90.5q115 0 211.5 73.5t149 190t52.5 245.5q0 145 -76 232.5t-202 87.5 q-115 0 -210.5 -72t-147.5 -186.5t-52 -243.5zM453 1210l260 267h161l158 -267h-145l-101 170l-161 -170h-172z" />
<glyph unicode="&#xf5;" horiz-adv-x="1226" d="M102 428q0 177 73.5 326t207.5 238t299 89q199 0 321.5 -125.5t122.5 -326.5q0 -177 -73.5 -329t-207.5 -243.5t-300 -91.5q-201 0 -322 127.5t-121 335.5zM270 436q0 -146 75 -236.5t200 -90.5q115 0 211.5 73.5t149 190t52.5 245.5q0 145 -76 232.5t-202 87.5 q-115 0 -210.5 -72t-147.5 -186.5t-52 -243.5zM414 1237q18 94 79 155.5t142 61.5q46 0 93.5 -23.5t88.5 -47t72 -23.5q29 0 52 23.5t32 60.5h106q-18 -94 -77.5 -155.5t-139.5 -61.5q-47 0 -94 23.5t-89 47t-75 23.5q-29 0 -52 -23.5t-32 -60.5h-106z" />
<glyph unicode="&#xf6;" horiz-adv-x="1226" d="M102 428q0 177 73.5 326t207.5 238t299 89q199 0 321.5 -125.5t122.5 -326.5q0 -177 -73.5 -329t-207.5 -243.5t-300 -91.5q-201 0 -322 127.5t-121 335.5zM270 436q0 -146 75 -236.5t200 -90.5q115 0 211.5 73.5t149 190t52.5 245.5q0 145 -76 232.5t-202 87.5 q-115 0 -210.5 -72t-147.5 -186.5t-52 -243.5zM469 1356q0 43 30 73.5t74 30.5q45 0 75 -30.5t30 -73.5q0 -45 -30 -75t-75 -30q-44 0 -74 30.5t-30 74.5zM834 1356q0 43 29.5 73.5t74.5 30.5q44 0 74 -30.5t30 -73.5q0 -44 -30 -74.5t-74 -30.5q-45 0 -74.5 30t-29.5 75z " />
<glyph unicode="&#xf7;" horiz-adv-x="1183" d="M131 569v138h963v-138h-963zM489 281q0 47 34 81.5t81 34.5t81 -34.5t34 -81.5q0 -46 -34 -79.5t-81 -33.5t-81 33.5t-34 79.5zM489 993q0 47 34 82t81 35t81 -35t34 -82t-33.5 -79.5t-81.5 -32.5t-81.5 32.5t-33.5 79.5z" />
<glyph unicode="&#xf8;" horiz-adv-x="1226" d="M31 45l131 131q-60 108 -60 252q0 177 73.5 326t207.5 238t299 89q168 0 289 -94l116 117l89 -84l-123 -123q73 -115 73 -268q0 -177 -73.5 -329t-207.5 -243.5t-300 -91.5q-190 0 -309 113l-117 -117zM270 436q0 -69 19 -131l569 569q-73 64 -178 64q-115 0 -210.5 -72 t-147.5 -186.5t-52 -243.5zM350 193q74 -84 195 -84q115 0 211.5 73.5t149 190t52.5 245.5q0 86 -28 156z" />
<glyph unicode="&#xf9;" d="M121 915l22 129h324l-119 -669q-6 -34 -6 -68q0 -85 45.5 -137.5t126.5 -52.5q111 0 211 94.5t121 210.5l110 622h156l-162 -915h170l-22 -129h-326l31 172q-138 -199 -342 -199q-126 0 -203.5 85t-77.5 210q0 46 10 94l99 553h-168zM547 1505h170l96 -295h-137z" />
<glyph unicode="&#xfa;" d="M121 915l22 129h324l-119 -669q-6 -34 -6 -68q0 -85 45.5 -137.5t126.5 -52.5q111 0 211 94.5t121 210.5l110 622h156l-162 -915h170l-22 -129h-326l31 172q-138 -199 -342 -199q-126 0 -203.5 85t-77.5 210q0 46 10 94l99 553h-168zM612 1212l207 283h207l-258 -283 h-156z" />
<glyph unicode="&#xfb;" d="M121 915l22 129h324l-119 -669q-6 -34 -6 -68q0 -85 45.5 -137.5t126.5 -52.5q111 0 211 94.5t121 210.5l110 622h156l-162 -915h170l-22 -129h-326l31 172q-138 -199 -342 -199q-126 0 -203.5 85t-77.5 210q0 46 10 94l99 553h-168zM442 1210l260 267h162l158 -267h-145 l-101 170l-162 -170h-172z" />
<glyph unicode="&#xfc;" d="M121 915l22 129h324l-119 -669q-6 -34 -6 -68q0 -85 45.5 -137.5t126.5 -52.5q111 0 211 94.5t121 210.5l110 622h156l-162 -915h170l-22 -129h-326l31 172q-138 -199 -342 -199q-126 0 -203.5 85t-77.5 210q0 46 10 94l99 553h-168zM459 1356q0 43 30 73.5t74 30.5 q45 0 75 -30.5t30 -73.5q0 -45 -30 -75t-75 -30q-44 0 -74 30.5t-30 74.5zM823 1356q0 43 30 73.5t75 30.5q44 0 74 -30.5t30 -73.5q0 -44 -30 -74.5t-74 -30.5q-45 0 -75 30t-30 75z" />
<glyph unicode="&#xfd;" horiz-adv-x="1089" d="M-147 -373l34 131q30 -10 72 -10q87 0 204 66.5t208 167.5l-168 933h-183l23 129h299l164 -933q159 192 257.5 389.5t98.5 359.5q0 37 -2 55h-198l20 129h319q19 -97 19 -170q0 -120 -50.5 -265t-133 -283t-193 -269.5t-226 -229.5t-237 -158t-221.5 -60q-59 0 -106 18z M442 1212l207 283h207l-258 -283h-156z" />
<glyph unicode="&#xfe;" horiz-adv-x="1257" d="M49 -383l299 1688h-170l23 129h325l-100 -566q144 209 369 209q157 0 260.5 -127.5t103.5 -312.5q0 -182 -74 -335.5t-203 -243t-284 -89.5q-107 0 -185 60t-108 157l-100 -569h-156zM346 424q0 -143 67 -227t185 -84q106 0 197.5 74t143.5 192t52 246q0 143 -65.5 226 t-180.5 83q-83 0 -158.5 -43.5t-127.5 -114.5t-82.5 -163.5t-30.5 -188.5z" />
<glyph unicode="&#xff;" horiz-adv-x="1089" d="M-147 -373l34 131q30 -10 72 -10q87 0 204 66.5t208 167.5l-168 933h-183l23 129h299l164 -933q159 192 257.5 389.5t98.5 359.5q0 37 -2 55h-198l20 129h319q19 -97 19 -170q0 -120 -50.5 -265t-133 -283t-193 -269.5t-226 -229.5t-237 -158t-221.5 -60q-59 0 -106 18z M289 1356q0 43 30 73.5t74 30.5q45 0 75 -30.5t30 -73.5q0 -45 -30 -75t-75 -30q-44 0 -74 30.5t-30 74.5zM653 1356q0 43 30 73.5t75 30.5q44 0 74 -30.5t30 -73.5q0 -44 -30 -74.5t-74 -30.5q-45 0 -75 30t-30 75z" />
<glyph unicode="&#x100;" horiz-adv-x="1335" d="M-100 0l22 131h131l686 1307h172l224 -1307h131l-23 -131h-479l22 131h181l-64 354h-504l-188 -354h178l-22 -131h-467zM467 616h414l-95 639zM584 1630l20 127h584l-23 -127h-581z" />
<glyph unicode="&#x101;" horiz-adv-x="1275" d="M100 412q0 184 72.5 336.5t199.5 240.5t281 88q107 0 188.5 -58t114.5 -149l31 174h156l-162 -915h168l-23 -129h-323l33 178q-62 -94 -159 -151.5t-216 -57.5q-157 0 -259 124.5t-102 318.5zM268 432q0 -148 63 -233.5t177 -85.5q112 0 206.5 73t147.5 191t53 250 q0 145 -69.5 226t-192.5 81q-100 0 -189.5 -71.5t-142.5 -187.5t-53 -243zM461 1262l20 127h584l-23 -127h-581z" />
<glyph unicode="&#x102;" horiz-adv-x="1335" d="M-100 0l22 131h131l686 1307h172l224 -1307h131l-23 -131h-479l22 131h181l-64 354h-504l-188 -354h178l-22 -131h-467zM467 616h414l-95 639zM637 1769q0 29 6 56h127q-4 -14 -4 -39q0 -48 25 -77.5t79 -29.5q61 0 101 42t51 104h125q-18 -116 -90.5 -187t-190.5 -71 q-106 0 -167.5 57.5t-61.5 144.5z" />
<glyph unicode="&#x103;" horiz-adv-x="1275" d="M100 412q0 184 72.5 336.5t199.5 240.5t281 88q107 0 188.5 -58t114.5 -149l31 174h156l-162 -915h168l-23 -129h-323l33 178q-62 -94 -159 -151.5t-216 -57.5q-157 0 -259 124.5t-102 318.5zM268 432q0 -148 63 -233.5t177 -85.5q112 0 206.5 73t147.5 191t53 250 q0 145 -69.5 226t-192.5 81q-100 0 -189.5 -71.5t-142.5 -187.5t-53 -243zM514 1401q0 28 6 55h127q-4 -14 -4 -39q0 -48 25.5 -77t79.5 -29q61 0 100.5 41.5t50.5 103.5h125q-18 -116 -90.5 -187t-190.5 -71q-106 0 -167.5 57.5t-61.5 145.5z" />
<glyph unicode="&#x104;" horiz-adv-x="1335" d="M-100 0l22 131h131l686 1307h172l224 -1307h131l-23 -131h-86q-85 -30 -145 -82t-60 -106q0 -37 25 -60.5t59 -23.5q49 0 94 30l41 -102q-73 -49 -176 -49q-77 0 -129.5 52t-52.5 128q0 59 44 115.5t118 97.5h-211l22 131h181l-64 354h-504l-188 -354h178l-22 -131h-467z M467 616h414l-95 639z" />
<glyph unicode="&#x105;" horiz-adv-x="1275" d="M100 412q0 184 72.5 336.5t199.5 240.5t281 88q107 0 188.5 -58t114.5 -149l31 174h156l-162 -915h168l-23 -129h-161q-85 -30 -145 -82t-60 -106q0 -37 25 -60.5t59 -23.5q49 0 94 30l41 -102q-73 -49 -176 -49q-77 0 -129.5 52t-52.5 128q0 66 56.5 129t147.5 104 l11 158q-62 -94 -159 -151.5t-216 -57.5q-157 0 -259 124.5t-102 318.5zM268 432q0 -148 63 -233.5t177 -85.5q112 0 206.5 73t147.5 191t53 250q0 145 -69.5 226t-192.5 81q-100 0 -189.5 -71.5t-142.5 -187.5t-53 -243z" />
<glyph unicode="&#x106;" horiz-adv-x="1382" d="M152 575q0 180 64 346t169.5 284.5t246.5 189.5t290 71q262 0 477 -127l-64 -362h-143l45 260q-138 82 -324 82q-152 0 -287.5 -103.5t-214.5 -270.5t-79 -349q0 -138 41.5 -244t130 -169.5t213.5 -63.5q122 0 234 72t186 190l123 -86q-91 -152 -240 -240t-315 -88 t-293.5 82.5t-193.5 220t-66 305.5zM799 1581l207 283h206l-258 -283h-155z" />
<glyph unicode="&#x107;" horiz-adv-x="1077" d="M100 424q0 176 76.5 326.5t206 238.5t279.5 88q196 0 362 -100l-49 -285h-135l32 187q-93 55 -217 55q-102 0 -192 -68.5t-142.5 -183.5t-52.5 -246q0 -145 67.5 -234t176.5 -89q89 0 174 52.5t145 135.5l103 -86q-72 -117 -186.5 -181.5t-249.5 -64.5q-176 0 -287 128.5 t-111 326.5zM563 1212l207 283h207l-258 -283h-156z" />
<glyph unicode="&#x108;" horiz-adv-x="1382" d="M152 575q0 180 64 346t169.5 284.5t246.5 189.5t290 71q262 0 477 -127l-64 -362h-143l45 260q-138 82 -324 82q-152 0 -287.5 -103.5t-214.5 -270.5t-79 -349q0 -138 41.5 -244t130 -169.5t213.5 -63.5q122 0 234 72t186 190l123 -86q-91 -152 -240 -240t-315 -88 t-293.5 82.5t-193.5 220t-66 305.5zM629 1579l260 266h162l157 -266h-145l-100 170l-162 -170h-172z" />
<glyph unicode="&#x109;" horiz-adv-x="1077" d="M100 424q0 176 76.5 326.5t206 238.5t279.5 88q196 0 362 -100l-49 -285h-135l32 187q-93 55 -217 55q-102 0 -192 -68.5t-142.5 -183.5t-52.5 -246q0 -145 67.5 -234t176.5 -89q89 0 174 52.5t145 135.5l103 -86q-72 -117 -186.5 -181.5t-249.5 -64.5q-176 0 -287 128.5 t-111 326.5zM393 1210l260 267h162l158 -267h-146l-100 170l-162 -170h-172z" />
<glyph unicode="&#x10a;" horiz-adv-x="1382" d="M152 575q0 180 64 346t169.5 284.5t246.5 189.5t290 71q262 0 477 -127l-64 -362h-143l45 260q-138 82 -324 82q-152 0 -287.5 -103.5t-214.5 -270.5t-79 -349q0 -138 41.5 -244t130 -169.5t213.5 -63.5q122 0 234 72t186 190l123 -86q-91 -152 -240 -240t-315 -88 t-293.5 82.5t-193.5 220t-66 305.5zM850 1735q0 47 33 80.5t80 33.5q49 0 82.5 -33t33.5 -81q0 -49 -33 -82t-83 -33q-48 0 -80.5 33t-32.5 82z" />
<glyph unicode="&#x10b;" horiz-adv-x="1077" d="M100 424q0 176 76.5 326.5t206 238.5t279.5 88q196 0 362 -100l-49 -285h-135l32 187q-93 55 -217 55q-102 0 -192 -68.5t-142.5 -183.5t-52.5 -246q0 -145 67.5 -234t176.5 -89q89 0 174 52.5t145 135.5l103 -86q-72 -117 -186.5 -181.5t-249.5 -64.5q-176 0 -287 128.5 t-111 326.5zM614 1366q0 47 33 81t80 34q49 0 83 -33.5t34 -81.5q0 -49 -33.5 -82t-83.5 -33q-48 0 -80.5 33t-32.5 82z" />
<glyph unicode="&#x10c;" horiz-adv-x="1382" d="M152 575q0 180 64 346t169.5 284.5t246.5 189.5t290 71q262 0 477 -127l-64 -362h-143l45 260q-138 82 -324 82q-152 0 -287.5 -103.5t-214.5 -270.5t-79 -349q0 -138 41.5 -244t130 -169.5t213.5 -63.5q122 0 234 72t186 190l123 -86q-91 -152 -240 -240t-315 -88 t-293.5 82.5t-193.5 220t-66 305.5zM684 1845h145l101 -170l162 170h172l-260 -266h-162z" />
<glyph unicode="&#x10d;" horiz-adv-x="1077" d="M100 424q0 176 76.5 326.5t206 238.5t279.5 88q196 0 362 -100l-49 -285h-135l32 187q-93 55 -217 55q-102 0 -192 -68.5t-142.5 -183.5t-52.5 -246q0 -145 67.5 -234t176.5 -89q89 0 174 52.5t145 135.5l103 -86q-72 -117 -186.5 -181.5t-249.5 -64.5q-176 0 -287 128.5 t-111 326.5zM449 1477h145l100 -170l162 170h172l-260 -267h-162z" />
<glyph unicode="&#x10e;" horiz-adv-x="1466" d="M23 0l22 131h170l207 1172h-170l22 131h551q247 0 403 -154.5t156 -402.5q0 -251 -97.5 -449.5t-281.5 -313t-425 -114.5h-557zM385 131h184q134 0 252.5 59t202 158.5t132 235t48.5 284.5q0 198 -119.5 316.5t-310.5 118.5h-184zM645 1845h146l100 -170l162 170h172 l-260 -266h-162z" />
<glyph unicode="&#x10f;" horiz-adv-x="1372" d="M100 412q0 184 74.5 336.5t203.5 240.5t284 88q109 0 189 -55.5t118 -147.5l84 478h-168l22 129h324l-238 -1352h168l-22 -129h-324l33 178q-62 -94 -160.5 -151.5t-218.5 -57.5q-160 0 -264.5 124.5t-104.5 318.5zM268 432q0 -148 65 -233.5t183 -85.5q113 0 209 73 t149.5 191t53.5 250q0 144 -70.5 225.5t-195.5 81.5q-102 0 -193.5 -71t-146 -187.5t-54.5 -243.5zM1278 1133l90 348h162l-133 -348h-119z" />
<glyph unicode="&#x110;" horiz-adv-x="1531" d="M88 0l23 131h170l96 549h-234l23 129h233l88 494h-170l23 131h551q247 0 403 -154.5t156 -402.5q0 -187 -57 -348.5t-160.5 -278.5t-255 -183.5t-332.5 -66.5h-557zM451 131h184q134 0 252.5 59t202 158.5t132 235t48.5 284.5q0 198 -119.5 316.5t-310.5 118.5h-185 l-86 -494h291l-22 -129h-291z" />
<glyph unicode="&#x111;" horiz-adv-x="1275" d="M100 412q0 184 72.5 336.5t199.5 240.5t281 88q107 0 188.5 -58t114.5 -149l50 283h-291l18 107h291l16 96h-168l23 125h324l-39 -221h168l-21 -107h-166l-180 -1024h168l-23 -129h-323l33 178q-62 -94 -159 -151.5t-216 -57.5q-157 0 -259 124.5t-102 318.5zM268 432 q0 -148 63 -233.5t177 -85.5q112 0 206.5 73t147.5 191t53 250q0 145 -69.5 226t-192.5 81q-100 0 -189.5 -71.5t-142.5 -187.5t-53 -243z" />
<glyph unicode="&#x112;" horiz-adv-x="1169" d="M23 0l22 131h170l209 1172h-170l22 131h926l-61 -342h-152l39 211h-436l-86 -484h434l-25 -143h-434l-96 -545h440l43 240h152l-66 -371h-931zM526 1630l21 127h583l-22 -127h-582z" />
<glyph unicode="&#x113;" horiz-adv-x="1153" d="M102 442q0 131 47.5 249.5t126.5 202.5t184 133.5t216 49.5q176 0 279.5 -113t103.5 -276q0 -85 -25 -180h-764q-2 -18 -2 -57q0 -144 73 -239t194 -95q94 0 186 46t158 122l94 -90q-77 -102 -199.5 -162t-257.5 -60q-191 0 -302.5 128.5t-111.5 340.5zM299 635h588 q4 28 4 61q0 104 -63 173t-166 69q-113 0 -214.5 -84.5t-148.5 -218.5zM440 1262l21 127h583l-22 -127h-582z" />
<glyph unicode="&#x114;" horiz-adv-x="1169" d="M23 0l22 131h170l209 1172h-170l22 131h926l-61 -342h-152l39 211h-436l-86 -484h434l-25 -143h-434l-96 -545h440l43 240h152l-66 -371h-931zM580 1769q0 29 6 56h127q-4 -14 -4 -39q0 -48 25 -77.5t79 -29.5q61 0 101 42t51 104h125q-18 -116 -90.5 -187t-190.5 -71 q-106 0 -167.5 57.5t-61.5 144.5z" />
<glyph unicode="&#x115;" horiz-adv-x="1153" d="M102 442q0 131 47.5 249.5t126.5 202.5t184 133.5t216 49.5q176 0 279.5 -113t103.5 -276q0 -85 -25 -180h-764q-2 -18 -2 -57q0 -144 73 -239t194 -95q94 0 186 46t158 122l94 -90q-77 -102 -199.5 -162t-257.5 -60q-191 0 -302.5 128.5t-111.5 340.5zM299 635h588 q4 28 4 61q0 104 -63 173t-166 69q-113 0 -214.5 -84.5t-148.5 -218.5zM494 1401q0 28 6 55h127q-4 -14 -4 -39q0 -48 25 -77t79 -29q61 0 101 42t51 103h125q-18 -116 -90.5 -187t-190.5 -71q-106 0 -167.5 57.5t-61.5 145.5z" />
<glyph unicode="&#x116;" horiz-adv-x="1169" d="M23 0l22 131h170l209 1172h-170l22 131h926l-61 -342h-152l39 211h-436l-86 -484h434l-25 -143h-434l-96 -545h440l43 240h152l-66 -371h-931zM729 1735q0 47 33 80.5t80 33.5q49 0 82.5 -33t33.5 -81q0 -49 -33 -82t-83 -33q-48 0 -80.5 33t-32.5 82z" />
<glyph unicode="&#x117;" horiz-adv-x="1153" d="M102 442q0 131 47.5 249.5t126.5 202.5t184 133.5t216 49.5q176 0 279.5 -113t103.5 -276q0 -85 -25 -180h-764q-2 -18 -2 -57q0 -144 73 -239t194 -95q94 0 186 46t158 122l94 -90q-77 -102 -199.5 -162t-257.5 -60q-191 0 -302.5 128.5t-111.5 340.5zM299 635h588 q4 28 4 61q0 104 -63 173t-166 69q-113 0 -214.5 -84.5t-148.5 -218.5zM643 1366q0 47 33 81t80 34q49 0 82.5 -33.5t33.5 -81.5q0 -49 -33 -82t-83 -33q-48 0 -80.5 33t-32.5 82z" />
<glyph unicode="&#x118;" horiz-adv-x="1169" d="M23 0l22 131h170l209 1172h-170l22 131h926l-61 -342h-152l39 211h-436l-86 -484h434l-25 -143h-434l-96 -545h440l43 240h152l-66 -371h-43q-84 -29 -144 -81.5t-60 -106.5q0 -37 25 -60.5t59 -23.5q49 0 94 30l41 -102q-73 -49 -176 -49q-77 0 -130 52t-53 128 q0 59 44 115.5t118 97.5h-706z" />
<glyph unicode="&#x119;" horiz-adv-x="1153" d="M102 442q0 131 47.5 249.5t126.5 202.5t184 133.5t216 49.5q176 0 279.5 -113t103.5 -276q0 -85 -25 -180h-764q-2 -18 -2 -57q0 -144 73 -239t194 -95q94 0 186 46t158 122l94 -90q-70 -94 -180 -152q-68 -59 -113 -122.5t-45 -108.5q0 -37 25 -60.5t59 -23.5 q43 0 94 30l39 -102q-74 -49 -174 -49q-77 0 -129.5 47.5t-52.5 118.5q0 91 133 211q-68 -11 -113 -11q-191 0 -302.5 128.5t-111.5 340.5zM299 635h588q4 28 4 61q0 104 -63 173t-166 69q-113 0 -214.5 -84.5t-148.5 -218.5z" />
<glyph unicode="&#x11a;" horiz-adv-x="1169" d="M23 0l22 131h170l209 1172h-170l22 131h926l-61 -342h-152l39 211h-436l-86 -484h434l-25 -143h-434l-96 -545h440l43 240h152l-66 -371h-931zM563 1845h146l100 -170l162 170h172l-260 -266h-162z" />
<glyph unicode="&#x11b;" horiz-adv-x="1153" d="M102 442q0 131 47.5 249.5t126.5 202.5t184 133.5t216 49.5q176 0 279.5 -113t103.5 -276q0 -85 -25 -180h-764q-2 -18 -2 -57q0 -144 73 -239t194 -95q94 0 186 46t158 122l94 -90q-77 -102 -199.5 -162t-257.5 -60q-191 0 -302.5 128.5t-111.5 340.5zM299 635h588 q4 28 4 61q0 104 -63 173t-166 69q-113 0 -214.5 -84.5t-148.5 -218.5zM477 1477h146l100 -170l162 170h172l-260 -267h-162z" />
<glyph unicode="&#x11c;" horiz-adv-x="1507" d="M154 590q0 182 65.5 345.5t175 279t257 183.5t306.5 68q258 0 510 -127l-57 -331h-143l39 225q-172 86 -357 86q-124 0 -238.5 -58.5t-197 -155.5t-131.5 -228t-49 -271q0 -213 100.5 -350t261.5 -137q120 0 228 52.5t185.5 154t104.5 235.5h-309l25 144h456l-124 -705 h-142l39 213q-88 -118 -210.5 -182t-260.5 -64q-153 0 -276 83t-190.5 225t-67.5 315zM651 1579l260 266h162l158 -266h-146l-100 170l-162 -170h-172z" />
<glyph unicode="&#x11d;" horiz-adv-x="1218" d="M59 -258l86 106q47 -47 121.5 -76.5t161.5 -29.5q142 0 252.5 79.5t134.5 221.5l27 156q-62 -94 -160.5 -151.5t-218.5 -57.5q-158 0 -260.5 121t-102.5 311q0 179 73 329.5t200 238t280 87.5q109 0 189.5 -56t118.5 -147l30 170h156l-176 -995q-20 -115 -73 -201.5 t-130.5 -138t-170 -77t-198.5 -25.5q-99 0 -189 37t-151 98zM268 442q0 -143 64 -226t178 -83q113 0 208.5 70t148.5 183.5t53 240.5q0 144 -71 225.5t-196 81.5q-100 0 -189.5 -71t-142.5 -185t-53 -236zM367 1210l260 267h161l158 -267h-145l-101 170l-161 -170h-172z" />
<glyph unicode="&#x11e;" horiz-adv-x="1507" d="M154 590q0 182 65.5 345.5t175 279t257 183.5t306.5 68q258 0 510 -127l-57 -331h-143l39 225q-172 86 -357 86q-124 0 -238.5 -58.5t-197 -155.5t-131.5 -228t-49 -271q0 -213 100.5 -350t261.5 -137q120 0 228 52.5t185.5 154t104.5 235.5h-309l25 144h456l-124 -705 h-142l39 213q-88 -118 -210.5 -182t-260.5 -64q-153 0 -276 83t-190.5 225t-67.5 315zM723 1769q0 29 6 56h127q-4 -14 -4 -39q0 -48 25 -77.5t79 -29.5q61 0 101 42t51 104h125q-18 -116 -90.5 -187t-190.5 -71q-106 0 -167.5 57.5t-61.5 144.5z" />
<glyph unicode="&#x11f;" horiz-adv-x="1218" d="M59 -258l86 106q47 -47 121.5 -76.5t161.5 -29.5q142 0 252.5 79.5t134.5 221.5l27 156q-62 -94 -160.5 -151.5t-218.5 -57.5q-158 0 -260.5 121t-102.5 311q0 179 73 329.5t200 238t280 87.5q109 0 189.5 -56t118.5 -147l30 170h156l-176 -995q-20 -115 -73 -201.5 t-130.5 -138t-170 -77t-198.5 -25.5q-99 0 -189 37t-151 98zM268 442q0 -143 64 -226t178 -83q113 0 208.5 70t148.5 183.5t53 240.5q0 144 -71 225.5t-196 81.5q-100 0 -189.5 -71t-142.5 -185t-53 -236zM438 1401q0 28 6 55h127q-4 -14 -4 -39q0 -48 25.5 -77t79.5 -29 q61 0 100.5 41.5t50.5 103.5h125q-18 -116 -90 -187t-190 -71q-106 0 -168 58t-62 145z" />
<glyph unicode="&#x120;" horiz-adv-x="1507" d="M154 590q0 182 65.5 345.5t175 279t257 183.5t306.5 68q258 0 510 -127l-57 -331h-143l39 225q-172 86 -357 86q-124 0 -238.5 -58.5t-197 -155.5t-131.5 -228t-49 -271q0 -213 100.5 -350t261.5 -137q120 0 228 52.5t185.5 154t104.5 235.5h-309l25 144h456l-124 -705 h-142l39 213q-88 -118 -210.5 -182t-260.5 -64q-153 0 -276 83t-190.5 225t-67.5 315zM872 1735q0 47 33 80.5t80 33.5q49 0 83 -33.5t34 -80.5q0 -49 -33.5 -82t-83.5 -33q-48 0 -80.5 33t-32.5 82z" />
<glyph unicode="&#x121;" horiz-adv-x="1218" d="M59 -258l86 106q47 -47 121.5 -76.5t161.5 -29.5q142 0 252.5 79.5t134.5 221.5l27 156q-62 -94 -160.5 -151.5t-218.5 -57.5q-158 0 -260.5 121t-102.5 311q0 179 73 329.5t200 238t280 87.5q109 0 189.5 -56t118.5 -147l30 170h156l-176 -995q-20 -115 -73 -201.5 t-130.5 -138t-170 -77t-198.5 -25.5q-99 0 -189 37t-151 98zM268 442q0 -143 64 -226t178 -83q113 0 208.5 70t148.5 183.5t53 240.5q0 144 -71 225.5t-196 81.5q-100 0 -189.5 -71t-142.5 -185t-53 -236zM588 1366q0 48 32.5 81.5t79.5 33.5q49 0 83 -33.5t34 -81.5 q0 -49 -33.5 -82t-83.5 -33q-47 0 -79.5 33t-32.5 82z" />
<glyph unicode="&#x122;" horiz-adv-x="1507" d="M154 590q0 182 65.5 345.5t175 279t257 183.5t306.5 68q258 0 510 -127l-57 -331h-143l39 225q-172 86 -357 86q-124 0 -238.5 -58.5t-197 -155.5t-131.5 -228t-49 -271q0 -213 100.5 -350t261.5 -137q120 0 228 52.5t185.5 154t104.5 235.5h-309l25 144h456l-124 -705 h-142l39 213q-88 -118 -210.5 -182t-260.5 -64q-153 0 -276 83t-190.5 225t-67.5 315zM512 -446q94 91 94 194q0 46 -20 94l141 62q29 -60 29 -111q0 -151 -193 -289z" />
<glyph unicode="&#x123;" horiz-adv-x="1218" d="M59 -258l86 106q47 -47 121.5 -76.5t161.5 -29.5q142 0 252.5 79.5t134.5 221.5l27 156q-62 -94 -160.5 -151.5t-218.5 -57.5q-158 0 -260.5 121t-102.5 311q0 179 73 329.5t200 238t280 87.5q109 0 189.5 -56t118.5 -147l30 170h156l-176 -995q-20 -115 -73 -201.5 t-130.5 -138t-170 -77t-198.5 -25.5q-99 0 -189 37t-151 98zM268 442q0 -143 64 -226t178 -83q113 0 208.5 70t148.5 183.5t53 240.5q0 144 -71 225.5t-196 81.5q-100 0 -189.5 -71t-142.5 -185t-53 -236zM578 1313q0 152 192 289l51 -50q-94 -91 -94 -194q0 -43 21 -94 l-142 -62q-28 58 -28 111z" />
<glyph unicode="&#x124;" horiz-adv-x="1611" d="M23 0l22 131h170l209 1172h-170l22 131h508l-22 -131h-170l-88 -500h704l88 500h-170l23 131h508l-23 -131h-170l-209 -1172h170l-22 -131h-508l23 131h169l95 528h-705l-94 -528h170l-23 -131h-507zM682 1599l260 267h162l158 -267h-146l-100 170l-162 -170h-172z" />
<glyph unicode="&#x125;" horiz-adv-x="1269" d="M121 0l237 1352h-170l23 129h326l-107 -609q57 89 152 144t202 55q131 0 217 -86.5t86 -216.5q0 -30 -8 -80l-98 -559h168l-23 -129h-323l119 676q6 27 6 57q0 88 -58 141.5t-153 53.5q-112 0 -210 -91.5t-120 -213.5l-111 -623h-155zM539 1579l260 266h162l157 -266 h-145l-101 170l-161 -170h-172z" />
<glyph unicode="&#x126;" horiz-adv-x="1624" d="M23 0l22 131h170l154 860h-150l19 115h151l35 197h-170l22 131h508l-22 -131h-170l-35 -197h705l34 197h-170l23 131h508l-23 -131h-170l-34 -197h182l-21 -115h-182l-154 -860h170l-22 -131h-508l23 131h169l95 528h-705l-94 -528h170l-23 -131h-507zM504 803h704 l33 188h-704z" />
<glyph unicode="&#x127;" horiz-adv-x="1269" d="M121 0l203 1155l-170 2l18 103h170l16 96h-170l23 125h326l-39 -221h268l-21 -107l-266 2l-49 -283q57 89 152 144t202 55q131 0 217 -86.5t86 -216.5q0 -30 -8 -80l-98 -559h168l-23 -129h-323l119 676q6 27 6 57q0 88 -58 141.5t-153 53.5q-112 0 -210 -91.5 t-120 -213.5l-111 -623h-155z" />
<glyph unicode="&#x128;" horiz-adv-x="739" d="M23 0l22 131h170l209 1172h-170l22 131h508l-22 -131h-170l-209 -1172h170l-23 -131h-507zM211 1606q18 94 79 155.5t142 61.5q46 0 93.5 -23.5t88.5 -47t72 -23.5q29 0 52 23t32 60h107q-18 -94 -78 -155.5t-140 -61.5q-37 0 -75.5 15t-64.5 32.5t-58.5 32.5t-59.5 15 q-29 0 -52 -23.5t-32 -60.5h-106z" />
<glyph unicode="&#x129;" horiz-adv-x="606" d="M68 1237q18 94 79 155.5t142 61.5q46 0 93.5 -23.5t88.5 -47t72 -23.5q29 0 52 23.5t32 60.5h106q-18 -94 -77.5 -155.5t-139.5 -61.5q-47 0 -94 23.5t-89 47t-75 23.5q-29 0 -52 -23.5t-32 -60.5h-106zM127 915l23 129h323l-162 -915h168l-22 -129h-324l162 915h-168z " />
<glyph unicode="&#x12a;" horiz-adv-x="739" d="M23 0l22 131h170l209 1172h-170l22 131h508l-22 -131h-170l-209 -1172h170l-23 -131h-507zM268 1630l21 127h583l-22 -127h-582z" />
<glyph unicode="&#x12b;" horiz-adv-x="606" d="M125 1262l20 127h584l-22 -127h-582zM127 915l23 129h323l-162 -915h168l-22 -129h-324l162 915h-168z" />
<glyph unicode="&#x12c;" horiz-adv-x="739" d="M23 0l22 131h170l209 1172h-170l22 131h508l-22 -131h-170l-209 -1172h170l-23 -131h-507zM322 1769q0 29 6 56h127q-4 -14 -4 -39q0 -48 25 -77.5t79 -29.5q61 0 101 42t51 104h124q-18 -116 -90 -187t-190 -71q-106 0 -167.5 57.5t-61.5 144.5z" />
<glyph unicode="&#x12d;" horiz-adv-x="606" d="M127 915l23 129h323l-162 -915h168l-22 -129h-324l162 915h-168zM178 1401q0 28 6 55h127q-4 -14 -4 -39q0 -48 25.5 -77t79.5 -29q61 0 100.5 41.5t50.5 103.5h125q-18 -116 -90 -187t-190 -71q-106 0 -168 58t-62 145z" />
<glyph unicode="&#x12e;" horiz-adv-x="739" d="M23 0l22 131h170l209 1172h-170l22 131h508l-22 -131h-170l-209 -1172h170l-23 -131h-90q-84 -29 -144 -81.5t-60 -106.5q0 -37 24.5 -60.5t58.5 -23.5q50 0 95 30l41 -102q-73 -49 -176 -49q-77 0 -130 52t-53 128q0 59 44 115.5t118 97.5h-235z" />
<glyph unicode="&#x12f;" horiz-adv-x="647" d="M78 -213q0 59 44 115.5t118 97.5h-107l162 915h-168l23 129h323l-162 -915h168l-22 -129h-35q-85 -30 -145 -82t-60 -106q0 -37 25 -60.5t59 -23.5q49 0 94 30l41 -102q-73 -49 -176 -49q-77 0 -129.5 52t-52.5 128zM317 1374q0 47 33 81t80 34q49 0 83 -33.5t34 -81.5 q0 -49 -33.5 -81.5t-83.5 -32.5q-48 0 -80.5 32.5t-32.5 81.5z" />
<glyph unicode="&#x130;" horiz-adv-x="739" d="M23 0l22 131h170l209 1172h-170l22 131h508l-22 -131h-170l-209 -1172h170l-23 -131h-507zM471 1735q0 47 33 80.5t80 33.5q49 0 82.5 -33t33.5 -81q0 -49 -33 -82t-83 -33q-48 0 -80.5 33t-32.5 82z" />
<glyph unicode="&#x131;" horiz-adv-x="606" d="M127 915l23 129h323l-162 -915h168l-22 -129h-324l162 915h-168z" />
<glyph unicode="&#x132;" horiz-adv-x="1427" d="M23 0l22 131h170l209 1172h-170l22 131h508l-22 -131h-170l-209 -1172h170l-23 -131h-507zM575 -223l35 139q60 -27 125 -27q80 0 137 53t74 146l215 1215h-198l22 131h524l-22 -131h-158l-217 -1221q-28 -162 -132.5 -251t-246.5 -89q-78 0 -158 35z" />
<glyph unicode="&#x133;" horiz-adv-x="1163" d="M127 915l23 129h323l-162 -915h168l-22 -129h-324l162 915h-168zM317 1374q0 47 33 81t80 34q49 0 83 -33.5t34 -81.5q0 -49 -33.5 -81.5t-83.5 -32.5q-48 0 -80.5 32.5t-32.5 81.5zM444 -379l23 129q32 -8 68 -8q71 0 123 55t67 142l172 976h-168l23 129h323l-194 -1107 q-27 -153 -115.5 -240.5t-228.5 -87.5q-47 0 -93 12zM918 1374q0 48 32.5 81.5t79.5 33.5q49 0 83 -33.5t34 -81.5q0 -49 -33.5 -81.5t-83.5 -32.5q-48 0 -80 32.5t-32 81.5z" />
<glyph unicode="&#x134;" horiz-adv-x="688" d="M-164 -223l35 139q60 -27 125 -27q80 0 137 53t74 146l215 1215h-199l23 131h524l-22 -131h-158l-217 -1221q-28 -162 -132.5 -251t-246.5 -89q-78 0 -158 35zM231 1599l261 267h161l158 -267h-145l-101 170l-162 -170h-172z" />
<glyph unicode="&#x135;" horiz-adv-x="540" d="M-162 -379l23 129q32 -8 67 -8q71 0 123.5 55t67.5 142l172 976h-168l22 129h324l-195 -1107q-27 -153 -115.5 -240.5t-228.5 -87.5q-46 0 -92 12zM94 1210l260 267h162l158 -267h-146l-100 170l-162 -170h-172z" />
<glyph unicode="&#x136;" horiz-adv-x="1370" d="M23 0l22 131h170l209 1172h-172l22 131h476l-23 -131h-135l-96 -545l620 553h-145l22 123h492l-23 -131h-147l-639 -564l459 -608h165l-22 -131h-512l22 127h144l-445 592l-104 -588h143l-22 -131h-481zM449 -446q94 91 94 194q0 43 -21 94l142 62q28 -58 28 -111 q0 -152 -192 -289z" />
<glyph unicode="&#x137;" horiz-adv-x="1069" d="M117 0l239 1352h-168l23 129h324l-146 -824q163 54 283 154.5t168 232.5h200q-62 -164 -196 -280t-312 -180l308 -455h159l-22 -129h-242l-364 559l-99 -559h-155zM326 -446q94 91 94 194q0 43 -21 94l142 62q28 -58 28 -111q0 -152 -192 -289z" />
<glyph unicode="&#x138;" horiz-adv-x="1085" d="M127 915l23 129h323l-72 -407q163 58 284 163.5t169 243.5h203q-62 -174 -198.5 -296.5t-313.5 -184.5l307 -434h164l-23 -129h-241l-369 539l-94 -539h-156l162 915h-168z" />
<glyph unicode="&#x139;" horiz-adv-x="1114" d="M23 0l22 131h168l209 1172h-170l22 131h514l-22 -131h-176l-207 -1172h444l50 270h151l-72 -401h-933zM453 1602l206 282h207l-258 -282h-155z" />
<glyph unicode="&#x13a;" horiz-adv-x="589" d="M117 0l239 1352h-168l23 129h324l-240 -1352h168l-23 -129h-323zM346 1628l207 283h207l-258 -283h-156z" />
<glyph unicode="&#x13b;" horiz-adv-x="1114" d="M23 0l22 131h168l209 1172h-170l22 131h514l-22 -131h-176l-207 -1172h444l50 270h151l-72 -401h-933zM395 -446q94 91 94 194q0 46 -20 94l141 62q29 -60 29 -111q0 -151 -193 -289z" />
<glyph unicode="&#x13c;" horiz-adv-x="589" d="M25 -446q94 91 94 194q0 43 -21 94l142 62q28 -58 28 -111q0 -152 -192 -289zM117 0l239 1352h-168l23 129h324l-240 -1352h168l-23 -129h-323z" />
<glyph unicode="&#x13d;" horiz-adv-x="1114" d="M23 0l22 131h168l209 1172h-170l22 131h514l-22 -131h-176l-207 -1172h444l50 270h151l-72 -401h-933zM864 1133l90 348h162l-133 -348h-119z" />
<glyph unicode="&#x13e;" horiz-adv-x="696" d="M117 0l239 1352h-168l23 129h324l-240 -1352h168l-23 -129h-323zM602 1133l90 348h162l-133 -348h-119z" />
<glyph unicode="&#x13f;" horiz-adv-x="1171" d="M23 0l22 131h168l209 1172h-170l22 131h514l-22 -131h-176l-207 -1172h444l50 270h151l-72 -401h-933zM840 743q0 51 38 88t89 37t87 -37t36 -88t-36 -88t-87 -37t-89 37t-38 88z" />
<glyph unicode="&#x140;" horiz-adv-x="884" d="M117 0l239 1352h-168l23 129h324l-240 -1352h168l-23 -129h-323zM631 743q0 51 38 88t89 37t87 -37t36 -88t-36 -88t-87 -37t-89 37t-38 88z" />
<glyph unicode="&#x141;" horiz-adv-x="1189" d="M98 0l23 131h168l92 518l-262 -108l24 145l265 109l90 508h-170l22 131h514l-22 -131h-176l-76 -435l301 125l-27 -145l-301 -125l-104 -592h444l49 270h152l-72 -401h-934z" />
<glyph unicode="&#x142;" horiz-adv-x="684" d="M47 575l25 136l235 108l94 533h-168l23 129h324l-105 -584l258 119l-24 -135l-256 -119l-113 -633h168l-23 -129h-323l121 684z" />
<glyph unicode="&#x143;" horiz-adv-x="1587" d="M23 0l22 131h170l209 1172h-172l22 131h336l527 -1180l186 1049h-170l23 131h489l-23 -131h-169l-232 -1303h-170l-520 1184l-186 -1053h167l-22 -131h-487zM844 1581l207 283h206l-258 -283h-155z" />
<glyph unicode="&#x144;" horiz-adv-x="1282" d="M127 915l23 129h323l-31 -172q57 89 152.5 144t202.5 55q131 0 217 -86.5t86 -216.5q0 -30 -8 -80l-99 -559h168l-22 -129h-324l119 676q6 27 6 57q0 88 -58 141.5t-153 53.5q-112 0 -211 -91.5t-119 -213.5l-110 -623h-156l162 915h-168zM664 1212l206 283h207 l-258 -283h-155z" />
<glyph unicode="&#x145;" horiz-adv-x="1587" d="M23 0l22 131h170l209 1172h-172l22 131h336l527 -1180l186 1049h-170l23 131h489l-23 -131h-169l-232 -1303h-170l-520 1184l-186 -1053h167l-22 -131h-487zM573 -446q95 92 95 194q0 43 -21 94l141 62q29 -60 29 -111q0 -152 -192 -289z" />
<glyph unicode="&#x146;" horiz-adv-x="1282" d="M127 915l23 129h323l-31 -172q57 89 152.5 144t202.5 55q131 0 217 -86.5t86 -216.5q0 -30 -8 -80l-99 -559h168l-22 -129h-324l119 676q6 27 6 57q0 88 -58 141.5t-153 53.5q-112 0 -211 -91.5t-119 -213.5l-110 -623h-156l162 915h-168zM399 -446q95 92 95 194 q0 43 -21 94l141 62q29 -60 29 -111q0 -152 -192 -289z" />
<glyph unicode="&#x147;" horiz-adv-x="1587" d="M23 0l22 131h170l209 1172h-172l22 131h336l527 -1180l186 1049h-170l23 131h489l-23 -131h-169l-232 -1303h-170l-520 1184l-186 -1053h167l-22 -131h-487zM686 1804h145l101 -170l162 170h172l-260 -266h-162z" />
<glyph unicode="&#x148;" horiz-adv-x="1282" d="M127 915l23 129h323l-31 -172q57 89 152.5 144t202.5 55q131 0 217 -86.5t86 -216.5q0 -30 -8 -80l-99 -559h168l-22 -129h-324l119 676q6 27 6 57q0 88 -58 141.5t-153 53.5q-112 0 -211 -91.5t-119 -213.5l-110 -623h-156l162 915h-168zM549 1477h145l101 -170l161 170 h172l-260 -267h-161z" />
<glyph unicode="&#x149;" horiz-adv-x="1468" d="M121 1096q110 107 110 233q0 51 -24 111l170 73q33 -72 33 -131q0 -98 -65 -186t-165 -158zM313 915l23 129h323l-30 -172q57 89 152 144t202 55q131 0 217 -86.5t86 -216.5q0 -30 -8 -80l-98 -559h168l-23 -129h-324l119 676q6 27 6 57q0 88 -58 141.5t-153 53.5 q-112 0 -210.5 -91.5t-118.5 -213.5l-111 -623h-156l162 915h-168z" />
<glyph unicode="&#x14a;" horiz-adv-x="1562" d="M23 0l22 131h170l209 1172h-172l22 131h330l506 -1186l188 1055h-170l23 131h489l-22 -131h-170l-242 -1366q-26 -158 -114.5 -243t-229.5 -85q-46 0 -92 12l23 129q32 -8 67 -8q75 0 127.5 52t67.5 145l8 49l-512 1188l-186 -1045h167l-22 -131h-487z" />
<glyph unicode="&#x14b;" horiz-adv-x="1226" d="M127 915l23 129h323l-31 -172q57 89 152.5 144t202.5 55q131 0 217 -86.5t86 -216.5q0 -30 -8 -80l-131 -751q-27 -153 -116 -240.5t-229 -87.5q-46 0 -92 12l23 129q32 -8 67 -8q71 0 123.5 55t67.5 142l129 737q6 27 6 57q0 88 -58 141.5t-153 53.5q-112 0 -211 -91.5 t-119 -213.5l-110 -623h-156l162 915h-168z" />
<glyph unicode="&#x14c;" horiz-adv-x="1593" d="M152 571q0 177 62 341.5t167 286t251.5 194.5t307.5 73q168 0 299.5 -77t202.5 -210.5t71 -299.5q0 -176 -62 -343t-167 -292t-252 -201t-307 -76q-168 0 -299.5 79.5t-202.5 217t-71 307.5zM332 592q0 -210 108 -341.5t295 -131.5q99 0 191.5 41.5t165 113.5t127.5 165 t84.5 201.5t29.5 217.5q0 207 -108 332t-297 125q-164 0 -302.5 -104t-216 -270t-77.5 -349zM715 1630l20 127h584l-23 -127h-581z" />
<glyph unicode="&#x14d;" horiz-adv-x="1226" d="M102 428q0 177 73.5 326t207.5 238t299 89q199 0 321.5 -125.5t122.5 -326.5q0 -177 -73.5 -329t-207.5 -243.5t-300 -91.5q-201 0 -322 127.5t-121 335.5zM270 436q0 -146 75 -236.5t200 -90.5q115 0 211.5 73.5t149 190t52.5 245.5q0 145 -76 232.5t-202 87.5 q-115 0 -210.5 -72t-147.5 -186.5t-52 -243.5zM471 1262l21 127h583l-22 -127h-582z" />
<glyph unicode="&#x14e;" horiz-adv-x="1593" d="M152 571q0 177 62 341.5t167 286t251.5 194.5t307.5 73q168 0 299.5 -77t202.5 -210.5t71 -299.5q0 -176 -62 -343t-167 -292t-252 -201t-307 -76q-168 0 -299.5 79.5t-202.5 217t-71 307.5zM332 592q0 -210 108 -341.5t295 -131.5q99 0 191.5 41.5t165 113.5t127.5 165 t84.5 201.5t29.5 217.5q0 207 -108 332t-297 125q-164 0 -302.5 -104t-216 -270t-77.5 -349zM768 1769q0 29 6 56h127q-4 -14 -4 -39q0 -48 25 -77.5t79 -29.5q61 0 101 42t51 104h125q-18 -116 -90.5 -187t-190.5 -71q-106 0 -167.5 57.5t-61.5 144.5z" />
<glyph unicode="&#x14f;" horiz-adv-x="1226" d="M102 428q0 177 73.5 326t207.5 238t299 89q199 0 321.5 -125.5t122.5 -326.5q0 -177 -73.5 -329t-207.5 -243.5t-300 -91.5q-201 0 -322 127.5t-121 335.5zM270 436q0 -146 75 -236.5t200 -90.5q115 0 211.5 73.5t149 190t52.5 245.5q0 145 -76 232.5t-202 87.5 q-115 0 -210.5 -72t-147.5 -186.5t-52 -243.5zM524 1401q0 28 6 55h127q-4 -14 -4 -39q0 -48 25.5 -77t79.5 -29q61 0 100.5 41.5t50.5 103.5h125q-18 -116 -90 -187t-190 -71q-106 0 -168 58t-62 145z" />
<glyph unicode="&#x150;" horiz-adv-x="1593" d="M152 571q0 177 62 341.5t167 286t251.5 194.5t307.5 73q168 0 299.5 -77t202.5 -210.5t71 -299.5q0 -176 -62 -343t-167 -292t-252 -201t-307 -76q-168 0 -299.5 79.5t-202.5 217t-71 307.5zM332 592q0 -210 108 -341.5t295 -131.5q99 0 191.5 41.5t165 113.5t127.5 165 t84.5 201.5t29.5 217.5q0 207 -108 332t-297 125q-164 0 -302.5 -104t-216 -270t-77.5 -349zM766 1587l168 283h168l-211 -283h-125zM1042 1587l168 283h168l-211 -283h-125z" />
<glyph unicode="&#x151;" horiz-adv-x="1226" d="M102 428q0 177 73.5 326t207.5 238t299 89q199 0 321.5 -125.5t122.5 -326.5q0 -177 -73.5 -329t-207.5 -243.5t-300 -91.5q-201 0 -322 127.5t-121 335.5zM270 436q0 -146 75 -236.5t200 -90.5q115 0 211.5 73.5t149 190t52.5 245.5q0 145 -76 232.5t-202 87.5 q-115 0 -210.5 -72t-147.5 -186.5t-52 -243.5zM522 1219l168 282h168l-211 -282h-125zM799 1219l168 282h168l-211 -282h-125z" />
<glyph unicode="&#x152;" horiz-adv-x="2136" d="M152 571q0 176 61.5 340t166.5 286t253 195.5t311 73.5q105 0 203 -32h1022l-62 -342h-151l39 211h-645q74 -78 113.5 -187t39.5 -235q0 -42 -2 -62h406l-25 -143h-399q-34 -163 -116.5 -305t-201.5 -240h627l43 240h152l-66 -371h-993q-109 -33 -207 -33 q-167 0 -297.5 79.5t-201 217t-70.5 307.5zM332 592q0 -209 108 -341t291 -132q124 0 237.5 65t191.5 169.5t124.5 237.5t46.5 267q0 207 -106.5 332t-292.5 125q-124 0 -236.5 -61.5t-191.5 -162t-125.5 -232t-46.5 -267.5z" />
<glyph unicode="&#x153;" horiz-adv-x="1988" d="M102 428q0 177 72 326t205 238t299 89q132 0 234 -70t153 -184q81 116 198 183t246 67q118 0 206.5 -55t132.5 -142t44 -190q0 -91 -24 -182h-764q-4 -40 -4 -62q0 -151 72.5 -242t195.5 -91q91 0 182.5 49.5t153.5 126.5l98 -84q-72 -106 -194.5 -171t-251.5 -65 q-128 0 -225.5 69.5t-147.5 182.5q-78 -118 -194.5 -187t-256.5 -69q-197 0 -313.5 127.5t-116.5 335.5zM270 436q0 -146 71 -236.5t191 -90.5q114 0 209.5 73.5t148 190t52.5 245.5q0 147 -72 233.5t-194 86.5q-114 0 -208.5 -72t-146 -186.5t-51.5 -243.5zM1133 635h587 q4 28 4 59q0 104 -62.5 174t-162.5 70q-116 0 -217.5 -84t-148.5 -219z" />
<glyph unicode="&#x154;" horiz-adv-x="1286" d="M23 0l22 131h170l207 1172h-170l22 131h568q152 0 253 -90t101 -234q0 -161 -105 -286.5t-268 -178.5l215 -514h179l-23 -131h-295l-233 612h-199l-84 -481h158l-23 -131h-495zM489 739h191q141 0 240.5 106t99.5 249q0 97 -61 155t-156 58h-213zM711 1581l207 283h206 l-258 -283h-155z" />
<glyph unicode="&#x155;" horiz-adv-x="894" d="M127 915l23 129h323l-41 -227q61 111 152 183.5t192 72.5q103 0 174 -51l-100 -154q-57 33 -121 33q-126 0 -219.5 -95t-120.5 -241l-100 -565h-156l162 915h-168zM492 1212l206 283h207l-258 -283h-155z" />
<glyph unicode="&#x156;" horiz-adv-x="1286" d="M23 0l22 131h170l207 1172h-170l22 131h568q152 0 253 -90t101 -234q0 -161 -105 -286.5t-268 -178.5l215 -514h179l-23 -131h-295l-233 612h-199l-84 -481h158l-23 -131h-495zM461 -446q94 91 94 194q0 46 -20 94l141 62q29 -60 29 -111q0 -151 -193 -289zM489 739h191 q141 0 240.5 106t99.5 249q0 97 -61 155t-156 58h-213z" />
<glyph unicode="&#x157;" horiz-adv-x="894" d="M31 -446q94 91 94 194q0 43 -21 94l142 62q28 -58 28 -111q0 -152 -192 -289zM127 915l23 129h323l-41 -227q61 111 152 183.5t192 72.5q103 0 174 -51l-100 -154q-57 33 -121 33q-126 0 -219.5 -95t-120.5 -241l-100 -565h-156l162 915h-168z" />
<glyph unicode="&#x158;" horiz-adv-x="1286" d="M23 0l22 131h170l207 1172h-170l22 131h568q152 0 253 -90t101 -234q0 -161 -105 -286.5t-268 -178.5l215 -514h179l-23 -131h-295l-233 612h-199l-84 -481h158l-23 -131h-495zM489 739h191q141 0 240.5 106t99.5 249q0 97 -61 155t-156 58h-213zM596 1845h145l101 -170 l162 170h172l-261 -266h-161z" />
<glyph unicode="&#x159;" horiz-adv-x="894" d="M127 915l23 129h323l-41 -227q61 111 152 183.5t192 72.5q103 0 174 -51l-100 -154q-57 33 -121 33q-126 0 -219.5 -95t-120.5 -241l-100 -565h-156l162 915h-168zM377 1477h145l101 -170l161 170h172l-260 -267h-161z" />
<glyph unicode="&#x15a;" horiz-adv-x="1062" d="M37 53l65 375h144l-43 -250q129 -63 276 -63q125 0 206 85.5t81 211.5q0 61 -30 111t-78 86t-106.5 69.5t-116.5 69.5t-106 77t-78 101.5t-30 134.5q0 176 127.5 290.5t310.5 114.5q191 0 400 -88l-60 -331h-143l39 221q-118 59 -246 59q-110 0 -186 -69.5t-76 -170.5 q0 -54 30 -99t78.5 -78.5t107 -66t116.5 -69.5t106.5 -81t78.5 -109t30 -144q0 -204 -132 -336.5t-333 -132.5q-197 0 -432 82zM557 1581l207 283h207l-258 -283h-156z" />
<glyph unicode="&#x15b;" horiz-adv-x="942" d="M43 55l45 258h135l-26 -153q104 -51 223 -51q94 0 154.5 52t60.5 132q0 41 -25.5 74.5t-66.5 57.5t-91 47.5t-99.5 51t-90.5 60t-66.5 82.5t-25.5 112q0 127 101.5 210t244.5 83q178 0 350 -88l-39 -235h-135l25 147q-91 51 -203 51q-81 0 -135.5 -43t-54.5 -110 q0 -40 26 -72.5t67 -56t91 -46.5t100.5 -51t91.5 -61t67 -85t26 -116q0 -146 -109 -239t-268 -93q-183 0 -373 82zM449 1212l206 283h207l-258 -283h-155z" />
<glyph unicode="&#x15c;" horiz-adv-x="1062" d="M37 53l65 375h144l-43 -250q129 -63 276 -63q125 0 206 85.5t81 211.5q0 61 -30 111t-78 86t-106.5 69.5t-116.5 69.5t-106 77t-78 101.5t-30 134.5q0 176 127.5 290.5t310.5 114.5q191 0 400 -88l-60 -331h-143l39 221q-118 59 -246 59q-110 0 -186 -69.5t-76 -170.5 q0 -54 30 -99t78.5 -78.5t107 -66t116.5 -69.5t106.5 -81t78.5 -109t30 -144q0 -204 -132 -336.5t-333 -132.5q-197 0 -432 82zM387 1579l260 266h162l158 -266h-146l-100 170l-162 -170h-172z" />
<glyph unicode="&#x15d;" horiz-adv-x="942" d="M43 55l45 258h135l-26 -153q104 -51 223 -51q94 0 154.5 52t60.5 132q0 41 -25.5 74.5t-66.5 57.5t-91 47.5t-99.5 51t-90.5 60t-66.5 82.5t-25.5 112q0 127 101.5 210t244.5 83q178 0 350 -88l-39 -235h-135l25 147q-91 51 -203 51q-81 0 -135.5 -43t-54.5 -110 q0 -40 26 -72.5t67 -56t91 -46.5t100.5 -51t91.5 -61t67 -85t26 -116q0 -146 -109 -239t-268 -93q-183 0 -373 82zM279 1210l260 267h161l158 -267h-145l-101 170l-161 -170h-172z" />
<glyph unicode="&#x15e;" horiz-adv-x="1062" d="M37 53l65 375h144l-43 -250q129 -63 276 -63q125 0 206 85.5t81 211.5q0 61 -30 111t-78 86t-106.5 69.5t-116.5 69.5t-106 77t-78 101.5t-30 134.5q0 176 127.5 290.5t310.5 114.5q191 0 400 -88l-60 -331h-143l39 221q-118 59 -246 59q-110 0 -186 -69.5t-76 -170.5 q0 -54 30 -99t78.5 -78.5t107 -66t116.5 -69.5t106.5 -81t78.5 -109t30 -144q0 -195 -122 -325.5t-310 -141.5l-23 -63q56 -8 93.5 -51.5t37.5 -106.5q0 -91 -69.5 -143.5t-167.5 -52.5q-59 0 -105 22l37 100q32 -16 70 -16q46 0 80 23.5t34 62.5q0 37 -26 56.5t-66 19.5 q-21 0 -41 -4l56 153q-165 7 -375 80z" />
<glyph unicode="&#x15f;" horiz-adv-x="942" d="M43 55l45 258h135l-26 -153q104 -51 223 -51q94 0 154.5 52t60.5 132q0 41 -25.5 74.5t-66.5 57.5t-91 47.5t-99.5 51t-90.5 60t-66.5 82.5t-25.5 112q0 127 101.5 210t244.5 83q178 0 350 -88l-39 -235h-135l25 147q-91 51 -203 51q-81 0 -135.5 -43t-54.5 -110 q0 -40 26 -72.5t67 -56t91 -46.5t100.5 -51t91.5 -61t67 -85t26 -116q0 -139 -100.5 -231t-250.5 -101l-24 -63q56 -8 93.5 -51.5t37.5 -106.5q0 -91 -70 -143.5t-168 -52.5q-58 0 -104 22l37 100q32 -16 69 -16q46 0 80.5 23.5t34.5 62.5q0 37 -26 56.5t-66 19.5 q-21 0 -41 -4l57 155q-144 10 -309 80z" />
<glyph unicode="&#x160;" horiz-adv-x="1062" d="M37 53l65 375h144l-43 -250q129 -63 276 -63q125 0 206 85.5t81 211.5q0 61 -30 111t-78 86t-106.5 69.5t-116.5 69.5t-106 77t-78 101.5t-30 134.5q0 176 127.5 290.5t310.5 114.5q191 0 400 -88l-60 -331h-143l39 221q-118 59 -246 59q-110 0 -186 -69.5t-76 -170.5 q0 -54 30 -99t78.5 -78.5t107 -66t116.5 -69.5t106.5 -81t78.5 -109t30 -144q0 -204 -132 -336.5t-333 -132.5q-197 0 -432 82zM442 1845h146l100 -170l162 170h172l-260 -266h-162z" />
<glyph unicode="&#x161;" horiz-adv-x="942" d="M43 55l45 258h135l-26 -153q104 -51 223 -51q94 0 154.5 52t60.5 132q0 41 -25.5 74.5t-66.5 57.5t-91 47.5t-99.5 51t-90.5 60t-66.5 82.5t-25.5 112q0 127 101.5 210t244.5 83q178 0 350 -88l-39 -235h-135l25 147q-91 51 -203 51q-81 0 -135.5 -43t-54.5 -110 q0 -40 26 -72.5t67 -56t91 -46.5t100.5 -51t91.5 -61t67 -85t26 -116q0 -146 -109 -239t-268 -93q-183 0 -373 82zM334 1477h145l101 -170l161 170h172l-260 -267h-161z" />
<glyph unicode="&#x162;" horiz-adv-x="1177" d="M123 1032l70 402h1112l-70 -402h-152l47 271h-321l-207 -1172h180l-22 -131h-203l-33 -90q56 -8 93.5 -51.5t37.5 -106.5q0 -91 -69.5 -143.5t-167.5 -52.5q-59 0 -105 22l37 100q32 -16 70 -16q46 0 80.5 23.5t34.5 62.5q0 37 -26.5 56.5t-66.5 19.5q-21 0 -41 -4 l66 180h-236l23 131h180l207 1172h-319l-48 -271h-151z" />
<glyph unicode="&#x163;" horiz-adv-x="684" d="M121 915l22 129h168l45 244h156l-43 -244h227l-22 -129h-228l-108 -610q-4 -32 -4 -49q0 -52 31 -86.5t81 -34.5q35 0 97 17l24 -127q-73 -29 -151 -29q-17 0 -25 2l-33 -88q56 -8 93.5 -51.5t37.5 -106.5q0 -91 -69.5 -143.5t-167.5 -52.5q-59 0 -105 22l37 100 q32 -16 70 -16q46 0 80.5 23.5t34.5 62.5q0 37 -26.5 56.5t-66.5 19.5q-20 0 -40 -4l73 198q-62 28 -98.5 82t-36.5 121q0 37 6 78l109 616h-168z" />
<glyph unicode="&#x164;" horiz-adv-x="1177" d="M123 1032l70 402h1112l-70 -402h-152l47 271h-321l-207 -1172h180l-22 -131h-529l23 131h180l207 1172h-319l-48 -271h-151zM518 1845h146l100 -170l162 170h172l-260 -266h-162z" />
<glyph unicode="&#x165;" horiz-adv-x="684" d="M121 915l22 129h168l45 244h156l-43 -244h227l-22 -129h-228l-108 -610q-4 -32 -4 -49q0 -52 31 -86.5t81 -34.5q35 0 97 17l24 -127q-73 -29 -151 -29q-102 0 -172 65.5t-70 159.5q0 37 6 78l109 616h-168zM592 1174l86 327h162l-129 -327h-119z" />
<glyph unicode="&#x166;" horiz-adv-x="1177" d="M123 1032l70 402h1112l-70 -402h-152l47 271h-321l-90 -515h254l-21 -114h-254l-96 -543h180l-22 -131h-529l23 131h180l96 543h-254l21 114h254l90 515h-319l-48 -271h-151z" />
<glyph unicode="&#x167;" horiz-adv-x="692" d="M61 567l19 115h176l41 233h-168l23 129h167l46 244h155l-43 -244h228l-23 -129h-227l-41 -233h217l-19 -115h-219l-47 -262q-4 -32 -4 -49q0 -52 31.5 -86.5t81.5 -34.5q34 0 96 17l24 -127q-73 -29 -151 -29q-102 0 -172 65.5t-70 159.5q0 37 6 78l48 268h-175z" />
<glyph unicode="&#x168;" horiz-adv-x="1497" d="M207 1303l22 131h512l-22 -131h-178l-140 -799q-10 -58 -10 -96q0 -126 79.5 -206.5t217.5 -80.5q146 0 255.5 100.5t137.5 253.5l150 828h-176l22 131h510l-22 -131h-166l-148 -832q-39 -227 -189.5 -364.5t-381.5 -137.5q-204 0 -332.5 119t-128.5 297q0 65 12 127 l142 791h-166zM616 1606q17 94 79 155.5t143 61.5q46 0 93.5 -23.5t88.5 -47t72 -23.5q29 0 52 23t32 60h106q-18 -94 -77.5 -155.5t-139.5 -61.5q-37 0 -75.5 15t-64.5 32.5t-58.5 32.5t-59.5 15q-29 0 -52 -23.5t-32 -60.5h-107z" />
<glyph unicode="&#x169;" d="M121 915l22 129h324l-119 -669q-6 -34 -6 -68q0 -85 45.5 -137.5t126.5 -52.5q111 0 211 94.5t121 210.5l110 622h156l-162 -915h170l-22 -129h-326l31 172q-138 -199 -342 -199q-126 0 -203.5 85t-77.5 210q0 46 10 94l99 553h-168zM403 1237q17 94 79 155.5t143 61.5 q46 0 93.5 -23.5t88.5 -47t72 -23.5q29 0 52 23.5t32 60.5h106q-18 -94 -77.5 -155.5t-139.5 -61.5q-47 0 -94 23.5t-89 47t-75 23.5q-29 0 -52 -23.5t-32 -60.5h-107z" />
<glyph unicode="&#x16a;" horiz-adv-x="1497" d="M207 1303l22 131h512l-22 -131h-178l-140 -799q-10 -58 -10 -96q0 -126 79.5 -206.5t217.5 -80.5q146 0 255.5 100.5t137.5 253.5l150 828h-176l22 131h510l-22 -131h-166l-148 -832q-39 -227 -189.5 -364.5t-381.5 -137.5q-204 0 -332.5 119t-128.5 297q0 65 12 127 l142 791h-166zM674 1630l20 127h584l-23 -127h-581z" />
<glyph unicode="&#x16b;" d="M121 915l22 129h324l-119 -669q-6 -34 -6 -68q0 -85 45.5 -137.5t126.5 -52.5q111 0 211 94.5t121 210.5l110 622h156l-162 -915h170l-22 -129h-326l31 172q-138 -199 -342 -199q-126 0 -203.5 85t-77.5 210q0 46 10 94l99 553h-168zM461 1262l20 127h584l-23 -127h-581z " />
<glyph unicode="&#x16c;" horiz-adv-x="1497" d="M207 1303l22 131h512l-22 -131h-178l-140 -799q-10 -58 -10 -96q0 -126 79.5 -206.5t217.5 -80.5q146 0 255.5 100.5t137.5 253.5l150 828h-176l22 131h510l-22 -131h-166l-148 -832q-39 -227 -189.5 -364.5t-381.5 -137.5q-204 0 -332.5 119t-128.5 297q0 65 12 127 l142 791h-166zM727 1769q0 29 6 56h127q-4 -14 -4 -39q0 -48 25.5 -77.5t79.5 -29.5q61 0 100.5 42t50.5 104h125q-18 -116 -90.5 -187t-190.5 -71q-106 0 -167.5 57.5t-61.5 144.5z" />
<glyph unicode="&#x16d;" d="M121 915l22 129h324l-119 -669q-6 -34 -6 -68q0 -85 45.5 -137.5t126.5 -52.5q111 0 211 94.5t121 210.5l110 622h156l-162 -915h170l-22 -129h-326l31 172q-138 -199 -342 -199q-126 0 -203.5 85t-77.5 210q0 46 10 94l99 553h-168zM514 1401q0 28 6 55h127 q-4 -14 -4 -39q0 -48 25.5 -77t79.5 -29q61 0 100.5 41.5t50.5 103.5h125q-18 -116 -90.5 -187t-190.5 -71q-106 0 -167.5 57.5t-61.5 145.5z" />
<glyph unicode="&#x16e;" horiz-adv-x="1497" d="M207 1303l22 131h512l-22 -131h-178l-140 -799q-10 -58 -10 -96q0 -126 79.5 -206.5t217.5 -80.5q146 0 255.5 100.5t137.5 253.5l150 828h-176l22 131h510l-22 -131h-166l-148 -832q-39 -227 -189.5 -364.5t-381.5 -137.5q-204 0 -332.5 119t-128.5 297q0 65 12 127 l142 791h-166zM782 1704q0 88 59.5 144.5t141.5 56.5q62 0 108 -44t46 -106q0 -87 -60.5 -145t-142.5 -58q-62 0 -107 44.5t-45 107.5zM877 1708q0 -31 17.5 -50.5t47.5 -19.5q42 0 70 31t28 80q0 31 -17.5 50.5t-47.5 19.5q-42 0 -70 -31t-28 -80z" />
<glyph unicode="&#x16f;" d="M121 915l22 129h324l-119 -669q-6 -34 -6 -68q0 -85 45.5 -137.5t126.5 -52.5q111 0 211 94.5t121 210.5l110 622h156l-162 -915h170l-22 -129h-326l31 172q-138 -199 -342 -199q-126 0 -203.5 85t-77.5 210q0 46 10 94l99 553h-168zM569 1335q0 88 59.5 144.5 t141.5 56.5q62 0 108 -44t46 -106q0 -87 -60.5 -144.5t-142.5 -57.5q-62 0 -107 44t-45 107zM664 1339q0 -31 17.5 -50t47.5 -19q42 0 70 30.5t28 79.5q0 31 -17.5 50.5t-47.5 19.5q-42 0 -70 -31t-28 -80z" />
<glyph unicode="&#x170;" horiz-adv-x="1497" d="M207 1303l22 131h512l-22 -131h-178l-140 -799q-10 -58 -10 -96q0 -126 79.5 -206.5t217.5 -80.5q146 0 255.5 100.5t137.5 253.5l150 828h-176l22 131h510l-22 -131h-166l-148 -832q-39 -227 -189.5 -364.5t-381.5 -137.5q-204 0 -332.5 119t-128.5 297q0 65 12 127 l142 791h-166zM725 1587l168 283h168l-211 -283h-125zM1001 1587l168 283h168l-211 -283h-125z" />
<glyph unicode="&#x171;" d="M121 915l22 129h324l-119 -669q-6 -34 -6 -68q0 -85 45.5 -137.5t126.5 -52.5q111 0 211 94.5t121 210.5l110 622h156l-162 -915h170l-22 -129h-326l31 172q-138 -199 -342 -199q-126 0 -203.5 85t-77.5 210q0 46 10 94l99 553h-168zM512 1219l168 282h168l-211 -282 h-125zM788 1219l168 282h168l-211 -282h-125z" />
<glyph unicode="&#x172;" horiz-adv-x="1497" d="M207 1303l22 131h512l-22 -131h-178l-140 -799q-10 -58 -10 -96q0 -126 79.5 -206.5t217.5 -80.5q146 0 255.5 100.5t137.5 253.5l150 828h-176l22 131h510l-22 -131h-166l-148 -832q-33 -191 -146 -320t-290 -167q-70 -33 -116 -79t-46 -93q0 -37 25 -60.5t59 -23.5 q49 0 94 30l41 -102q-73 -49 -176 -49q-77 0 -129.5 52t-52.5 128q0 49 31 97t86 87q-185 15 -298.5 131.5t-113.5 282.5q0 65 12 127l142 791h-166z" />
<glyph unicode="&#x173;" d="M121 915l22 129h324l-119 -669q-6 -34 -6 -68q0 -85 45.5 -137.5t126.5 -52.5q106 0 210.5 105t125.5 222l106 600h156l-162 -915h170l-22 -129h-168q-85 -30 -145 -82t-60 -106q0 -37 25 -60.5t59 -23.5q49 0 94 30l41 -102q-73 -49 -176 -49q-77 0 -129.5 52t-52.5 128 q0 68 58.5 132.5t150.5 103.5l12 170q-62 -98 -153 -159t-193 -61q-126 0 -203.5 85t-77.5 210q0 46 10 94l99 553h-168z" />
<glyph unicode="&#x174;" horiz-adv-x="2045" d="M129 1303l23 131h540l-22 -131h-217l90 -1131l549 1262h190l104 -1256l480 1125h-217l22 131h535l-23 -131h-160l-583 -1311h-193l-108 1208l-541 -1208h-192l-119 1311h-158zM905 1579l260 266h162l158 -266h-146l-100 170l-162 -170h-172z" />
<glyph unicode="&#x175;" horiz-adv-x="1671" d="M29 915l22 129h297l82 -897q161 194 277 410.5t116 357.5q0 5 -1 17t-1 14l-10 98h158l92 -897q183 175 293 355.5t110 347.5q0 42 -2 65h-184l22 129h293q17 -100 17 -182q0 -219 -140.5 -442.5t-398.5 -427.5h-139l-70 614q-120 -287 -420 -614h-149l-90 923h-174z M635 1210l260 267h162l157 -267h-145l-100 170l-162 -170h-172z" />
<glyph unicode="&#x176;" horiz-adv-x="1251" d="M129 1303l23 131h485l-23 -127h-157l209 -543l407 543h-158l23 127h473l-27 -131h-141l-522 -685l-88 -487h180l-22 -131h-529l23 131h180l88 492l-270 680h-154zM518 1579l260 266h162l158 -266h-146l-100 170l-162 -170h-172z" />
<glyph unicode="&#x177;" horiz-adv-x="1089" d="M-147 -373l34 131q30 -10 72 -10q87 0 204 66.5t208 167.5l-168 933h-183l23 129h299l164 -933q159 192 257.5 389.5t98.5 359.5q0 37 -2 55h-198l20 129h319q19 -97 19 -170q0 -120 -50.5 -265t-133 -283t-193 -269.5t-226 -229.5t-237 -158t-221.5 -60q-59 0 -106 18z M272 1210l260 267h162l158 -267h-145l-101 170l-162 -170h-172z" />
<glyph unicode="&#x178;" horiz-adv-x="1251" d="M129 1303l23 131h485l-23 -127h-157l209 -543l407 543h-158l23 127h473l-27 -131h-141l-522 -685l-88 -487h180l-22 -131h-529l23 131h180l88 492l-270 680h-154zM535 1724q0 43 30 74t74 31q45 0 74.5 -30.5t29.5 -74.5q0 -45 -29.5 -74.5t-74.5 -29.5q-44 0 -74 30 t-30 74zM899 1724q0 43 30 74t75 31q44 0 74 -31t30 -74q0 -44 -30 -74t-74 -30q-46 0 -75.5 30t-29.5 74z" />
<glyph unicode="&#x179;" horiz-adv-x="1171" d="M6 0l21 117l960 1181h-565l-45 -254h-152l70 390h926l-21 -117l-956 -1182h610l49 285h152l-74 -420h-975zM633 1581l207 283h207l-259 -283h-155z" />
<glyph unicode="&#x17a;" horiz-adv-x="995" d="M10 0l19 104l712 816h-413l-29 -172h-135l51 296h754l-19 -104l-706 -815h448l33 192h135l-55 -317h-795zM481 1212l207 283h207l-258 -283h-156z" />
<glyph unicode="&#x17b;" horiz-adv-x="1171" d="M6 0l21 117l960 1181h-565l-45 -254h-152l70 390h926l-21 -117l-956 -1182h610l49 285h152l-74 -420h-975zM684 1735q0 47 33 80.5t80 33.5q49 0 82.5 -33t33.5 -81q0 -49 -33 -82t-83 -33q-48 0 -80.5 33t-32.5 82z" />
<glyph unicode="&#x17c;" horiz-adv-x="995" d="M10 0l19 104l712 816h-413l-29 -172h-135l51 296h754l-19 -104l-706 -815h448l33 192h135l-55 -317h-795zM532 1366q0 47 33 81t80 34q49 0 83 -33.5t34 -81.5q0 -49 -33.5 -82t-83.5 -33q-48 0 -80.5 33t-32.5 82z" />
<glyph unicode="&#x17d;" horiz-adv-x="1171" d="M6 0l21 117l960 1181h-565l-45 -254h-152l70 390h926l-21 -117l-956 -1182h610l49 285h152l-74 -420h-975zM518 1845h146l100 -170l162 170h172l-260 -266h-162z" />
<glyph unicode="&#x17e;" horiz-adv-x="995" d="M10 0l19 104l712 816h-413l-29 -172h-135l51 296h754l-19 -104l-706 -815h448l33 192h135l-55 -317h-795zM367 1477h145l100 -170l162 170h172l-260 -267h-162z" />
<glyph unicode="&#x192;" horiz-adv-x="808" d="M-129 -377l25 135q42 -10 94 -10q91 0 139.5 64t73.5 208l123 705h-187l23 129h186l49 274q28 156 129 243t232 87q75 0 131 -16l-25 -135q-45 10 -104 10q-173 0 -217 -240l-39 -223h235l-22 -129h-236l-141 -801q-27 -155 -123 -236t-225 -81q-44 0 -121 16z" />
<glyph unicode="&#x1fa;" horiz-adv-x="1335" d="M-100 0l22 131h131l664 1264q-49 43 -49 104q0 81 59 135t141 54q62 0 108 -44.5t46 -105.5q0 -50 -27 -91t-73 -67l213 -1249h131l-23 -131h-479l22 131h181l-64 354h-504l-188 -354h178l-22 -131h-467zM467 616h414l-95 639zM760 1503q0 -29 18 -47t49 -18 q42 0 71.5 26.5t29.5 67.5q0 31 -18.5 50.5t-49.5 19.5q-42 0 -71 -28.5t-29 -70.5zM768 1735l193 209h188l-242 -209h-139z" />
<glyph unicode="&#x1fb;" horiz-adv-x="1275" d="M100 412q0 184 72.5 336.5t199.5 240.5t281 88q107 0 188.5 -58t114.5 -149l31 174h156l-162 -915h168l-23 -129h-323l33 178q-62 -94 -159 -151.5t-216 -57.5q-157 0 -259 124.5t-102 318.5zM268 432q0 -148 63 -233.5t177 -85.5q112 0 206.5 73t147.5 191t53 250 q0 145 -69.5 226t-192.5 81q-100 0 -189.5 -71.5t-142.5 -187.5t-53 -243zM541 1278q0 83 55.5 135.5t132.5 52.5q58 0 100.5 -41t42.5 -100q0 -81 -56.5 -135.5t-133.5 -54.5q-58 0 -99.5 41.5t-41.5 101.5zM629 1282q0 -30 16 -47.5t45 -17.5q39 0 65.5 29t26.5 75 q0 29 -16 47t-45 18q-39 0 -65.5 -29.5t-26.5 -74.5zM633 1524l186 254h187l-232 -254h-141z" />
<glyph unicode="&#x1fc;" horiz-adv-x="1835" d="M-104 0l22 131h148l950 1303h842l-62 -351h-151l38 220h-409l-88 -504h420l-25 -140h-420l-94 -528h424l39 219h151l-61 -350h-915l22 131h174l94 528h-370l-377 -528h153l-22 -131h-483zM711 778h305l100 568zM1202 1581l207 283h207l-258 -283h-156z" />
<glyph unicode="&#x1fd;" horiz-adv-x="1970" d="M98 408q0 182 74.5 336t203.5 243.5t283 89.5q120 0 230 -51.5t196 -138.5q80 90 186.5 140t221.5 50q176 0 279.5 -113t103.5 -276q0 -85 -25 -180h-764q-2 -18 -2 -57q0 -144 73 -239t194 -95q94 0 186 46t158 122l94 -90q-77 -102 -199.5 -162t-257.5 -60 q-160 0 -265 92t-136 250q-186 -346 -469 -346q-161 0 -263 122t-102 317zM266 424q0 -139 57.5 -225t161.5 -86q250 0 461 567l31 90q-56 72 -139 118t-174 46q-102 0 -194.5 -72t-148 -190t-55.5 -248zM991 1212l207 283h207l-258 -283h-156zM1116 635h588q4 28 4 61 q0 104 -63 173t-166 69q-113 0 -214.5 -84.5t-148.5 -218.5z" />
<glyph unicode="&#x1fe;" horiz-adv-x="1593" d="M53 68l180 180q-81 141 -81 323q0 177 62 341.5t167 286t251.5 194.5t307.5 73q225 0 377 -133l137 137l100 -100l-143 -143q102 -148 102 -348q0 -176 -62 -343t-167 -292t-252 -201t-307 -76q-248 0 -408 166l-163 -166zM332 592q0 -115 35 -211l833 836 q-106 98 -272 98q-164 0 -302.5 -104t-216 -270t-77.5 -349zM438 252q111 -133 297 -133q99 0 191.5 41.5t165 113.5t127.5 165t84.5 201.5t29.5 217.5q0 141 -49 242zM811 1581l207 283h207l-258 -283h-156z" />
<glyph unicode="&#x1ff;" horiz-adv-x="1226" d="M31 45l131 131q-60 108 -60 252q0 177 73.5 326t207.5 238t299 89q168 0 289 -94l116 117l89 -84l-123 -123q73 -115 73 -268q0 -177 -73.5 -329t-207.5 -243.5t-300 -91.5q-190 0 -309 113l-117 -117zM270 436q0 -69 19 -131l569 569q-73 64 -178 64q-115 0 -210.5 -72 t-147.5 -186.5t-52 -243.5zM350 193q74 -84 195 -84q115 0 211.5 73.5t149 190t52.5 245.5q0 86 -28 156zM553 1212l207 283h207l-258 -283h-156z" />
<glyph unicode="&#x218;" horiz-adv-x="1062" d="M37 53l65 375h144l-43 -250q129 -63 276 -63q125 0 206 85.5t81 211.5q0 61 -30 111t-78 86t-106.5 69.5t-116.5 69.5t-106 77t-78 101.5t-30 134.5q0 176 127.5 290.5t310.5 114.5q191 0 400 -88l-60 -331h-143l39 221q-118 59 -246 59q-110 0 -186 -69.5t-76 -170.5 q0 -54 30 -99t78.5 -78.5t107 -66t116.5 -69.5t106.5 -81t78.5 -109t30 -144q0 -204 -132 -336.5t-333 -132.5q-197 0 -432 82zM287 -446q94 91 94 194q0 43 -21 94l142 62q28 -58 28 -111q0 -152 -192 -289z" />
<glyph unicode="&#x219;" horiz-adv-x="942" d="M43 55l45 258h135l-26 -153q104 -51 223 -51q94 0 154.5 52t60.5 132q0 41 -25.5 74.5t-66.5 57.5t-91 47.5t-99.5 51t-90.5 60t-66.5 82.5t-25.5 112q0 127 101.5 210t244.5 83q178 0 350 -88l-39 -235h-135l25 147q-91 51 -203 51q-81 0 -135.5 -43t-54.5 -110 q0 -40 26 -72.5t67 -56t91 -46.5t100.5 -51t91.5 -61t67 -85t26 -116q0 -146 -109 -239t-268 -93q-183 0 -373 82zM225 -446q94 91 94 194q0 46 -20 94l141 62q29 -60 29 -111q0 -151 -193 -289z" />
<glyph unicode="&#x21a;" horiz-adv-x="1177" d="M123 1032l70 402h1112l-70 -402h-152l47 271h-321l-207 -1172h180l-22 -131h-529l23 131h180l207 1172h-319l-48 -271h-151zM332 -446q94 91 94 194q0 46 -20 94l141 62q28 -58 28 -111q0 -152 -192 -289z" />
<glyph unicode="&#x21b;" horiz-adv-x="684" d="M121 915l22 129h168l45 244h156l-43 -244h227l-22 -129h-228l-108 -610q-4 -32 -4 -49q0 -52 31 -86.5t81 -34.5q35 0 97 17l24 -127q-73 -29 -151 -29q-102 0 -172 65.5t-70 159.5q0 37 6 78l109 616h-168zM166 -446q94 91 94 194q0 46 -20 94l141 62q29 -60 29 -111 q0 -151 -193 -289z" />
<glyph unicode="&#x237;" horiz-adv-x="540" d="M-162 -379l23 129q32 -8 67 -8q71 0 123.5 55t67.5 142l172 976h-168l22 129h324l-195 -1107q-27 -153 -115.5 -240.5t-228.5 -87.5q-46 0 -92 12z" />
<glyph unicode="&#x2c6;" horiz-adv-x="808" d="M236 1210l260 267h161l158 -267h-145l-101 170l-161 -170h-172z" />
<glyph unicode="&#x2c7;" horiz-adv-x="808" d="M283 1477h145l100 -170l162 170h172l-260 -267h-162z" />
<glyph unicode="&#x2d8;" horiz-adv-x="776" d="M295 1401q0 28 6 55h127q-4 -14 -4 -39q0 -48 25 -77t79 -29q61 0 101 42t51 103h125q-18 -116 -90.5 -187t-190.5 -71q-106 0 -167.5 57.5t-61.5 145.5z" />
<glyph unicode="&#x2d9;" horiz-adv-x="503" d="M287 1366q0 48 32.5 81.5t79.5 33.5q49 0 83 -33.5t34 -81.5q0 -49 -33.5 -82t-83.5 -33q-47 0 -79.5 33t-32.5 82z" />
<glyph unicode="&#x2da;" horiz-adv-x="622" d="M283 1335q0 88 59 144.5t141 56.5q62 0 108 -44t46 -106q0 -87 -60.5 -144.5t-142.5 -57.5q-62 0 -106.5 44t-44.5 107zM377 1339q0 -31 17.5 -50t47.5 -19q42 0 70.5 30.5t28.5 79.5q0 31 -18 50.5t-48 19.5q-42 0 -70 -31t-28 -80z" />
<glyph unicode="&#x2db;" horiz-adv-x="626" d="M-20 -213q0 74 68.5 143.5t174.5 106.5l101 -37q-85 -30 -145 -82t-60 -106q0 -37 25 -60.5t59 -23.5q49 0 94 30l41 -102q-73 -49 -176 -49q-77 0 -129.5 52t-52.5 128z" />
<glyph unicode="&#x2dc;" horiz-adv-x="901" d="M262 1237q18 94 79 155.5t142 61.5q46 0 93.5 -23.5t88.5 -47t72 -23.5q29 0 52 23.5t32 60.5h107q-18 -94 -77.5 -155.5t-139.5 -61.5q-47 0 -94 23.5t-89 47t-75 23.5q-29 0 -52 -23.5t-32 -60.5h-107z" />
<glyph unicode="&#x2dd;" horiz-adv-x="780" d="M238 1219l168 282h167l-211 -282h-124zM514 1219l168 282h168l-211 -282h-125z" />
<glyph unicode="&#x1e80;" horiz-adv-x="2045" d="M129 1303l23 131h540l-22 -131h-217l90 -1131l549 1262h190l104 -1256l480 1125h-217l22 131h535l-23 -131h-160l-583 -1311h-193l-108 1208l-541 -1208h-192l-119 1311h-158zM1010 1874h170l96 -295h-137z" />
<glyph unicode="&#x1e81;" horiz-adv-x="1671" d="M29 915l22 129h297l82 -897q161 194 277 410.5t116 357.5q0 5 -1 17t-1 14l-10 98h158l92 -897q183 175 293 355.5t110 347.5q0 42 -2 65h-184l22 129h293q17 -100 17 -182q0 -219 -140.5 -442.5t-398.5 -427.5h-139l-70 614q-120 -287 -420 -614h-149l-90 923h-174z M739 1505h170l97 -295h-138z" />
<glyph unicode="&#x1e82;" horiz-adv-x="2045" d="M129 1303l23 131h540l-22 -131h-217l90 -1131l549 1262h190l104 -1256l480 1125h-217l22 131h535l-23 -131h-160l-583 -1311h-193l-108 1208l-541 -1208h-192l-119 1311h-158zM1075 1581l207 283h207l-258 -283h-156z" />
<glyph unicode="&#x1e83;" horiz-adv-x="1671" d="M29 915l22 129h297l82 -897q161 194 277 410.5t116 357.5q0 5 -1 17t-1 14l-10 98h158l92 -897q183 175 293 355.5t110 347.5q0 42 -2 65h-184l22 129h293q17 -100 17 -182q0 -219 -140.5 -442.5t-398.5 -427.5h-139l-70 614q-120 -287 -420 -614h-149l-90 923h-174z M805 1212l207 283h207l-258 -283h-156z" />
<glyph unicode="&#x1e84;" horiz-adv-x="2045" d="M129 1303l23 131h540l-22 -131h-217l90 -1131l549 1262h190l104 -1256l480 1125h-217l22 131h535l-23 -131h-160l-583 -1311h-193l-108 1208l-541 -1208h-192l-119 1311h-158zM922 1724q0 43 30 74t74 31q45 0 74.5 -30.5t29.5 -74.5q0 -45 -29.5 -74.5t-74.5 -29.5 q-44 0 -74 30t-30 74zM1286 1724q0 43 30 74t75 31q44 0 74 -31t30 -74q0 -44 -30 -74t-74 -30q-45 0 -75 30t-30 74z" />
<glyph unicode="&#x1e85;" horiz-adv-x="1671" d="M29 915l22 129h297l82 -897q161 194 277 410.5t116 357.5q0 5 -1 17t-1 14l-10 98h158l92 -897q183 175 293 355.5t110 347.5q0 42 -2 65h-184l22 129h293q17 -100 17 -182q0 -219 -140.5 -442.5t-398.5 -427.5h-139l-70 614q-120 -287 -420 -614h-149l-90 923h-174z M651 1356q0 43 30.5 73.5t74.5 30.5q45 0 74.5 -30.5t29.5 -73.5q0 -45 -29.5 -75t-74.5 -30q-44 0 -74.5 30.5t-30.5 74.5zM1016 1356q0 43 29.5 73.5t74.5 30.5q44 0 74.5 -30.5t30.5 -73.5q0 -44 -30.5 -74.5t-74.5 -30.5q-45 0 -74.5 30t-29.5 75z" />
<glyph unicode="&#x1ef2;" horiz-adv-x="1251" d="M129 1303l23 131h485l-23 -127h-157l209 -543l407 543h-158l23 127h473l-27 -131h-141l-522 -685l-88 -487h180l-22 -131h-529l23 131h180l88 492l-270 680h-154zM623 1874h170l96 -295h-137z" />
<glyph unicode="&#x1ef3;" horiz-adv-x="1089" d="M-147 -373l34 131q30 -10 72 -10q87 0 204 66.5t208 167.5l-168 933h-183l23 129h299l164 -933q159 192 257.5 389.5t98.5 359.5q0 37 -2 55h-198l20 129h319q19 -97 19 -170q0 -120 -50.5 -265t-133 -283t-193 -269.5t-226 -229.5t-237 -158t-221.5 -60q-59 0 -106 18z M377 1505h170l96 -295h-137z" />
<glyph unicode="&#x2000;" horiz-adv-x="972" />
<glyph unicode="&#x2001;" horiz-adv-x="1944" />
<glyph unicode="&#x2002;" horiz-adv-x="972" />
<glyph unicode="&#x2003;" horiz-adv-x="1944" />
<glyph unicode="&#x2004;" horiz-adv-x="648" />
<glyph unicode="&#x2005;" horiz-adv-x="486" />
<glyph unicode="&#x2006;" horiz-adv-x="324" />
<glyph unicode="&#x2007;" horiz-adv-x="324" />
<glyph unicode="&#x2008;" horiz-adv-x="243" />
<glyph unicode="&#x2009;" horiz-adv-x="388" />
<glyph unicode="&#x200a;" horiz-adv-x="108" />
<glyph unicode="&#x2010;" horiz-adv-x="688" d="M86 541l29 151h522l-29 -151h-522z" />
<glyph unicode="&#x2011;" horiz-adv-x="688" d="M86 541l29 151h522l-29 -151h-522z" />
<glyph unicode="&#x2012;" horiz-adv-x="688" d="M86 541l29 151h522l-29 -151h-522z" />
<glyph unicode="&#x2013;" horiz-adv-x="1208" d="M86 547l25 139h1044l-25 -139h-1044z" />
<glyph unicode="&#x2014;" horiz-adv-x="1742" d="M86 547l25 139h1579l-25 -139h-1579z" />
<glyph unicode="&#x2018;" horiz-adv-x="430" d="M225 1171q0 98 65 186.5t165 158.5l59 -58q-111 -108 -111 -233q0 -49 25 -111l-170 -74q-33 72 -33 131z" />
<glyph unicode="&#x2019;" horiz-adv-x="432" d="M182 1087q111 108 111 234q0 49 -25 111l170 73q33 -72 33 -131q0 -98 -64.5 -186t-164.5 -158z" />
<glyph unicode="&#x201a;" horiz-adv-x="473" d="M-23 -188q111 108 111 233q0 49 -25 111l170 73q33 -72 33 -131q0 -98 -64.5 -186t-164.5 -158z" />
<glyph unicode="&#x201c;" horiz-adv-x="786" d="M225 1169q0 98 65 186t165 158l59 -57q-111 -108 -111 -233q0 -49 25 -111l-170 -74q-33 72 -33 131zM580 1169q0 98 64.5 186t164.5 158l59 -57q-110 -107 -110 -233q0 -51 24 -111l-170 -74q-32 70 -32 131z" />
<glyph unicode="&#x201d;" horiz-adv-x="786" d="M182 1087q111 108 111 234q0 49 -25 111l170 73q33 -72 33 -131q0 -98 -64.5 -186t-164.5 -158zM537 1087q110 107 110 234q0 51 -24 111l170 73q32 -70 32 -131q0 -98 -64.5 -186t-164.5 -158z" />
<glyph unicode="&#x201e;" horiz-adv-x="825" d="M-23 -186q111 108 111 233q0 49 -25 111l170 73q33 -72 33 -131q0 -98 -64.5 -186t-164.5 -158zM332 -186q110 107 110 233q0 51 -24 111l170 73q33 -72 33 -131q0 -98 -65 -186t-165 -158z" />
<glyph unicode="&#x2020;" horiz-adv-x="780" d="M141 922v143l246 -21l-14 390h159l-14 -390l246 21v-143l-246 20l14 -1034h-159l14 1034z" />
<glyph unicode="&#x2021;" horiz-adv-x="870" d="M141 383v141l246 -20v440l-246 -20v141l246 -21l-14 390h155l-14 -390l246 21v-141l-246 20v-440l246 20v-141l-246 20l14 -495h-155l14 495z" />
<glyph unicode="&#x2022;" horiz-adv-x="1087" d="M213 633q0 142 106.5 246t249.5 104q141 0 242.5 -103.5t101.5 -246.5q0 -141 -101.5 -244.5t-242.5 -103.5q-143 0 -249.5 103.5t-106.5 244.5z" />
<glyph unicode="&#x2026;" horiz-adv-x="1587" d="M53 98q0 51 38 88t89 37t87 -37t36 -88t-36 -88t-87 -37t-89 37t-38 88zM594 98q0 51 38 88t89 37t87 -37t36 -88t-36 -88t-87 -37t-89 37t-38 88zM1135 98q0 51 38 88t89 37t86.5 -37t35.5 -88t-35.5 -88t-86.5 -37t-89 37t-38 88z" />
<glyph unicode="&#x202f;" horiz-adv-x="388" />
<glyph unicode="&#x2030;" horiz-adv-x="2148" d="M41 0l1257 1434h172l-1257 -1434h-172zM190 1069q0 167 89.5 279t240.5 112q105 0 172.5 -70.5t67.5 -177.5q0 -170 -89 -284.5t-241 -114.5q-106 0 -173 72.5t-67 183.5zM326 1075q0 -69 29 -110t87 -41t101 44t62.5 106.5t19.5 131.5q0 64 -29.5 103t-87.5 39 q-86 0 -134 -83t-48 -190zM760 227q0 167 89.5 279t240.5 112q105 0 172 -70t67 -177q0 -111 -38 -201t-114.5 -144.5t-177.5 -54.5q-106 0 -172.5 72.5t-66.5 183.5zM895 233q0 -69 29.5 -110t87.5 -41t101 44.5t62 107t19 131.5q0 64 -29.5 102.5t-87.5 38.5 q-86 0 -134 -83t-48 -190zM1458 227q0 167 89.5 279t240.5 112q105 0 172.5 -70.5t67.5 -176.5q0 -111 -38 -201t-114.5 -144.5t-177.5 -54.5q-106 0 -173 72.5t-67 183.5zM1593 233q0 -69 29.5 -110t87.5 -41t101 44.5t62 107t19 131.5q0 64 -29 102.5t-87 38.5 q-86 0 -134.5 -83t-48.5 -190z" />
<glyph unicode="&#x2039;" horiz-adv-x="522" d="M78 614l305 361h172l-319 -377l188 -375h-152z" />
<glyph unicode="&#x203a;" horiz-adv-x="538" d="M10 223l320 377l-189 375h152l194 -391l-305 -361h-172z" />
<glyph unicode="&#x2044;" horiz-adv-x="927" d="M-106 -84l1054 1602h156l-1055 -1602h-155z" />
<glyph unicode="&#x205f;" horiz-adv-x="486" />
<glyph unicode="&#x2074;" horiz-adv-x="761" d="M102 844l15 84l469 510h108l-86 -496h117l-18 -98h-117l-21 -117h117l-16 -100h-367l19 100h137l20 117h-377zM246 942h250l59 334z" />
<glyph unicode="&#x20ac;" horiz-adv-x="1323" d="M57 532l41 115h166q8 89 31 184h-186l41 115h178q80 234 239 377t373 143q229 0 426 -112l-51 -281h-144l33 180q-126 66 -280 66q-142 0 -250.5 -101.5t-173.5 -271.5h559l-41 -115h-553q-26 -110 -31 -184h522l-41 -115h-487q0 -196 73 -304.5t226 -108.5 q105 0 204.5 64.5t166.5 168.5l110 -88q-85 -143 -216 -220t-281 -77q-109 0 -195.5 44t-142 121t-84.5 179t-29 221h-203z" />
<glyph unicode="&#x2116;" horiz-adv-x="2355" d="M23 0l22 131h170l209 1172h-172l22 131h336l527 -1180l186 1049h-170l23 131h489l-23 -131h-169l-232 -1303h-170l-520 1184l-186 -1053h167l-22 -131h-487zM1599 463l25 129h666l-25 -129h-666zM1671 1018q0 179 114.5 299.5t285.5 120.5q128 0 211 -87t83 -214 q0 -180 -115 -302t-286 -122q-128 0 -210.5 87t-82.5 218zM1810 1020q0 -85 45 -133.5t123 -48.5q108 0 178 93.5t70 205.5q0 79 -45.5 127.5t-124.5 48.5q-102 0 -174 -87.5t-72 -205.5z" />
<glyph unicode="&#x2122;" horiz-adv-x="1849" d="M203 1264v217h606v-217h-102v114h-142v-516h105v-98h-328v98h104v516h-141v-114h-102zM881 764v102h98v512h-98v103h256l225 -477l217 477h264v-103h-98v-512h98v-102h-311v102h100v492l-231 -500h-92l-230 500v-492h101v-102h-299z" />
<glyph unicode="&#x2212;" horiz-adv-x="1183" d="M131 569v138h963v-138h-963z" />
<glyph unicode="&#x25fc;" horiz-adv-x="1044" d="M0 0v1044h1044v-1044h-1044z" />
<glyph unicode="&#xf6c3;" horiz-adv-x="0" d="M-510 -446q94 91 94 194q0 46 -20 94l141 62q29 -60 29 -111q0 -151 -193 -289z" />
<glyph horiz-adv-x="688" d="M104 651l29 152h522l-28 -152h-523z" />
<glyph horiz-adv-x="1208" d="M106 666l25 139h1045l-25 -139h-1045z" />
<glyph horiz-adv-x="1742" d="M106 666l25 139h1579l-24 -139h-1580z" />
<glyph horiz-adv-x="903" d="M98 735l305 361h172l-319 -377l188 -375h-151zM455 705l331 391h172l-346 -408l172 -344h-151z" />
<glyph horiz-adv-x="903" d="M14 344l346 408l-172 344h152l178 -361l-332 -391h-172zM397 344l320 377l-189 375h152l194 -391l-305 -361h-172z" />
<glyph horiz-adv-x="520" d="M98 735l305 361h172l-319 -377l188 -375h-151z" />
<glyph horiz-adv-x="520" d="M14 344l320 377l-189 375h152l195 -391l-306 -361h-172z" />
<glyph horiz-adv-x="577" d="M119 510q0 309 143 597.5t406 528.5l88 -82q-220 -233 -343.5 -499.5t-123.5 -540.5q0 -319 170 -635l-103 -72q-112 156 -174.5 337t-62.5 366z" />
<glyph horiz-adv-x="575" d="M-111 -123q220 233 343.5 500t123.5 541q0 318 -170 634l103 72q112 -157 174.5 -337.5t62.5 -364.5q0 -309 -143.5 -598t-405.5 -529z" />
<glyph horiz-adv-x="587" d="M70 -209l323 1843h332l-23 -129h-174l-278 -1585h174l-23 -129h-331z" />
<glyph horiz-adv-x="587" d="M-70 -209l23 129h174l279 1585h-175l23 129h332l-324 -1843h-332z" />
<glyph horiz-adv-x="606" d="M98 680l25 131q72 0 120.5 54.5t67.5 158.5l58 336q25 149 120.5 211.5t255.5 62.5l-24 -135q-77 0 -131 -41.5t-66 -111.5l-59 -342q-21 -117 -76 -186t-129 -83q52 -21 84.5 -73.5t32.5 -124.5q0 -36 -6 -66l-66 -369q-4 -32 -4 -51q0 -131 141 -131l-22 -129 q-125 0 -202 66.5t-77 169.5q0 23 9 88l61 344q8 50 8 78q0 70 -31 106.5t-90 36.5z" />
<glyph horiz-adv-x="659" d="M303 -315v2025h152v-2025h-152z" />
<glyph horiz-adv-x="604" d="M-72 -205l25 135q77 0 131 42t66 112l59 342q21 117 76 185.5t129 82.5q-52 21 -84.5 74t-32.5 125q0 35 6 65l66 369q4 32 4 51q0 131 -142 131l23 129q125 0 201.5 -66t76.5 -169q0 -30 -8 -88l-61 -344q-8 -50 -8 -78q0 -143 120 -143l-24 -132q-73 0 -121.5 -54.5 t-67.5 -157.5l-57 -336q-25 -149 -121 -212t-256 -63z" />
<glyph horiz-adv-x="778" d="M-125 -164l932 1757h160l-932 -1757h-160z" />
<glyph horiz-adv-x="765" d="M188 1593h148l313 -1757h-147z" />
<glyph horiz-adv-x="561" d="M109 0l210 1100h136l-164 -1100h-182zM319 1393q0 47 34 80.5t81 33.5t81 -33.5t34 -80.5q0 -46 -34 -79.5t-81 -33.5t-81 33.5t-34 79.5z" />
<glyph horiz-adv-x="829" d="M18 313q0 71 24.5 135.5t65 113.5t89.5 94.5t99.5 87.5t94 82t74.5 87.5t39 96.5l14 90h156l-21 -117q-11 -62 -42.5 -119t-73.5 -100.5t-90 -86t-94 -82.5t-83.5 -81t-60.5 -91.5t-23 -105.5q0 -84 60.5 -138t150.5 -54q89 0 162 53.5t115 128.5l123 -67 q-61 -117 -166.5 -188.5t-255.5 -71.5q-155 0 -256 95.5t-101 237.5zM502 1393q0 47 33.5 80.5t80.5 33.5t81 -33.5t34 -80.5t-34 -81t-81 -34t-80.5 34t-33.5 81z" />
<glyph horiz-adv-x="483" d="M154 731q0 51 38 88t89 37t86.5 -37t35.5 -88t-35.5 -88t-86.5 -37t-89 37t-38 88z" />
<glyph horiz-adv-x="1087" d="M229 723q0 142 107 246t250 104q141 0 242.5 -103.5t101.5 -246.5q0 -141 -101.5 -244.5t-242.5 -103.5q-143 0 -250 103.5t-107 244.5z" />
<glyph horiz-adv-x="1093" d="M106 428q0 123 14 242t42.5 235t76 214t110.5 173t150.5 117.5t190.5 42.5q170 0 267.5 -127.5t97.5 -333.5q0 -105 -10 -207t-32 -203t-54.5 -190t-80.5 -166t-106.5 -132t-136 -86.5t-166.5 -31.5q-168 0 -265.5 124t-97.5 329zM276 436q0 -147 52.5 -228t152.5 -81 q79 0 146 50.5t113.5 135.5t79 197t48 234t15.5 247q0 145 -52.5 227t-152.5 82q-79 0 -146 -50.5t-113.5 -135.5t-79 -197t-48 -234t-15.5 -247z" />
<glyph horiz-adv-x="1093" d="M88 0l23 133h350l196 1120l-387 -213l-65 129l508 277l131 -33l-226 -1280h340l-22 -133h-848z" />
<glyph horiz-adv-x="1093" d="M16 0l15 84q18 108 74 206t131 172t161 142.5t168.5 129t150 119t109 125t41.5 134.5q0 82 -55.5 137.5t-151.5 55.5q-55 0 -105 -22.5t-89.5 -61.5t-69.5 -83t-53 -94l-145 74q72 154 196 246t281 92q161 0 264.5 -96t103.5 -234q0 -88 -41 -170t-108 -149t-148.5 -131 t-166.5 -126.5t-158.5 -124t-128.5 -136t-72 -150.5h533l41 234h143l-66 -373h-854z" />
<glyph horiz-adv-x="1093" d="M23 289l147 59q24 -97 96.5 -161t171.5 -64q136 0 233 94t97 244q0 109 -77.5 179.5t-207.5 70.5h-61l24 141q93 5 181.5 42t148.5 103.5t60 145.5q0 74 -54.5 123t-130.5 49q-94 0 -167.5 -47.5t-118.5 -122.5l-134 72q68 111 181 178t247 67q144 0 244.5 -86 t100.5 -229q0 -80 -34 -147t-90.5 -110t-123.5 -68.5t-138 -30.5q147 -9 236.5 -99t89.5 -227q0 -141 -69.5 -255t-186.5 -176.5t-256 -62.5q-154 0 -260.5 84.5t-148.5 233.5z" />
<glyph horiz-adv-x="1093" d="M47 436l21 107l786 891h158l-152 -871h176l-22 -127h-176l-56 -307h176l-22 -129h-526l22 129h195l55 307h-635zM254 563h451l114 647z" />
<glyph horiz-adv-x="1093" d="M55 281l144 65q26 -96 98 -159.5t170 -63.5q149 0 248.5 109t99.5 262q0 121 -67 194.5t-179 73.5q-72 0 -136 -26.5t-109 -67.5l-119 45l172 721h696l-53 -301h-148l29 161h-401l-119 -454q107 73 235 73q104 0 190 -55.5t135.5 -151t49.5 -208.5q0 -145 -67 -265.5 t-188 -191t-271 -70.5q-157 0 -264 84t-146 226z" />
<glyph horiz-adv-x="1093" d="M129 420q0 129 18 253.5t53 241t91.5 214.5t128.5 171t168 114.5t207 41.5q183 0 307 -92l-84 -133q-100 74 -246 74q-155 0 -270.5 -148.5t-169.5 -402.5q56 77 142.5 125.5t191.5 48.5q148 0 248 -113t100 -274q0 -159 -62 -288.5t-178.5 -205.5t-265.5 -76 q-179 0 -279 116t-100 333zM289 418q0 -75 26 -141.5t78 -110t119 -43.5q146 0 236 119t90 288q0 106 -58.5 178t-152.5 72q-150 0 -244 -104t-94 -258z" />
<glyph horiz-adv-x="1093" d="M168 1079l63 355h955l-23 -144q-633 -647 -753 -1290h-174q78 368 270 699.5t469 594.5h-617l-39 -215h-151z" />
<glyph horiz-adv-x="1093" d="M80 332q0 153 91 274t230 170q-65 32 -116.5 107.5t-51.5 150.5q0 122 61.5 221t167 154t232.5 55q148 0 248 -94t100 -233q0 -118 -77 -217.5t-195 -151.5q82 -30 146.5 -112.5t64.5 -180.5q0 -143 -70 -261t-189 -184.5t-261 -66.5q-168 0 -274.5 105.5t-106.5 263.5z M252 344q0 -102 58.5 -167.5t164.5 -65.5q144 0 239 106.5t95 251.5q0 101 -67.5 160t-174.5 59q-135 0 -225 -102t-90 -242zM401 1040q0 -84 53.5 -142t141.5 -58q109 0 193.5 88.5t84.5 204.5q0 83 -51 135.5t-143 52.5q-123 0 -201 -81t-78 -200z" />
<glyph horiz-adv-x="1093" d="M70 72l84 137q99 -82 249 -82q153 0 274 161t161 412q-55 -77 -140.5 -124.5t-181.5 -47.5q-153 0 -255.5 112.5t-102.5 270.5q0 150 65.5 274t185.5 197.5t269 73.5q168 0 267 -114t99 -308q0 -126 -17.5 -251t-51.5 -244t-89 -221t-124.5 -178.5t-163.5 -120.5 t-201 -44q-96 0 -182 26.5t-145 70.5zM334 922q0 -103 58.5 -172.5t160.5 -69.5q146 0 239 107t93 253q0 113 -64 189t-159 76q-141 0 -234.5 -114t-93.5 -269z" />
</font>
</defs>
</svg>
