<?xml version="1.0" encoding="utf-8"?>
<!-- Generator: Adobe Illustrator 15.0.0, SVG Export Plug-In . SVG Version: 6.00 Build 0)  -->
<!DOCTYPE svg PUBLIC "-//W3C//DTD SVG 1.1//EN" "http://www.w3.org/Graphics/SVG/1.1/DTD/svg11.dtd">
<svg version="1.1" id="Layer_1" xmlns="http://www.w3.org/2000/svg" xmlns:xlink="http://www.w3.org/1999/xlink" x="0px" y="0px"
	 width="300px" height="300px" viewBox="0 0 300 300" enable-background="new 0 0 300 300" xml:space="preserve">
<g>
	<g>
		<g>
			<path d="M132.723,119.475c0-5.801,2.801-8.961,8.801-12.242l2.361-1.28c2.76-1.52,4.081-3.36,4.081-5.96
				c0-2.921-2.08-4.921-5.521-4.921c-3.361,0-5.481,2.36-5.481,6.441c0,0.08,0,0.2,0,0.32h-3.641c0-0.16,0-0.32,0-0.479
				c0-6.001,3.641-9.602,9.281-9.602c5.521,0,9.161,3.32,9.161,8.281c0,3.841-1.92,6.681-6,8.761l-2.361,1.201
				c-3.68,1.88-5.96,3.64-6.681,6.28h15.042v3.441h-19.042C132.723,119.635,132.723,119.556,132.723,119.475z"/>
			<path d="M168.647,106.833c0-3.721-0.841-5.44-4.2-5.44c-3.881,0-6.201,2.28-6.201,6.4v11.922h-3.521V98.792h3.361v3.04
				c1.6-2.4,3.801-3.56,6.721-3.56c3.16,0,5.32,0.96,6.48,2.84c0.881,1.36,0.921,3,0.921,5.041c0,0.32,0,0.641,0,1v12.562h-3.561
				V106.833z"/>
			<path d="M195.769,119.715h-3.399v-2.641c-1.801,2.201-4.082,3.281-6.802,3.281c-5.48,0-9.161-4.201-9.161-11.042
				c0-6.961,3.721-11.202,9.161-11.202c2.92,0,5.161,1.081,6.802,3.241V90.952h3.399V119.715z M186.248,101.272
				c-3.881,0-6.201,2.88-6.201,8.281c0,4.8,2.4,7.682,6.241,7.682c3.88,0,6.2-2.841,6.2-8.121
				C192.488,103.913,190.367,101.272,186.248,101.272z"/>
			<path d="M146.966,154.473c-8.442,0-13.643-5.562-13.643-15.162c0-9.602,5.201-15.163,13.643-15.163
				c8.401,0,13.602,5.641,13.602,15.163c0,4.601-1.16,8.281-3.721,11.321l3.44,2.88l-1.92,2.441l-4.041-3.321
				C152.086,153.873,149.686,154.473,146.966,154.473z M148.006,147.511l1.92-2.439l3.841,3.16c1.76-1.92,2.761-5.001,2.761-8.921
				c0-7.481-3.641-11.762-9.562-11.762c-5.921,0-9.602,4.281-9.602,11.762s3.681,11.762,9.602,11.762c1.56,0,2.919-0.28,4.2-0.92
				L148.006,147.511z"/>
			<path d="M168.566,145.591c0,3.761,0.881,5.481,4.24,5.481c4.041,0,6.162-2.401,6.162-7.042V132.75h3.52v20.922h-3.36v-3.12
				c-1.44,2.4-3.761,3.642-6.921,3.642c-2.96,0-5.161-1.041-6.281-2.842c-0.879-1.359-0.92-3-0.92-5.041c0-0.32,0-0.64,0-1V132.75
				h3.561V145.591z"/>
			<path d="M193.367,154.312c-4.32,0-6.801-2.4-6.801-6.281c0-3.84,2.36-5.961,7.162-6.561c2.92-0.36,4.88-0.44,5.76-0.8
				c0.961-0.4,1-0.88,1-2.28c0-2.121-1.561-3.201-4.721-3.201c-3.279,0-4.92,1.361-4.92,3.881h-3.32c0-0.04,0-0.12,0-0.16
				c0-4.201,3.12-6.841,8.36-6.841c5.601,0,8.161,2.041,8.161,6.481v10.481c0,1.441,0.121,2.121,1.36,2.121
				c0.24,0,0.521-0.04,0.92-0.121v2.721c-0.76,0.201-1.399,0.32-2.04,0.32c-2.36,0-3.521-1.039-3.521-3.08c0-0.041,0-0.08,0-0.12
				C198.608,153.152,196.168,154.312,193.367,154.312z M193.808,144.471c-2.521,0.4-3.601,1.4-3.601,3.52
				c0,2.041,1.32,3.24,3.761,3.24c3.841,0,6.481-2.16,6.481-5.08v-3.12C198.568,144.03,196.288,144.071,193.808,144.471z"/>
			<path d="M227.852,153.672h-3.4v-2.641c-1.801,2.201-4.08,3.281-6.801,3.281c-5.481,0-9.161-4.201-9.161-11.042
				c0-6.961,3.72-11.202,9.161-11.202c2.92,0,5.16,1.08,6.801,3.241v-10.402h3.4V153.672z M218.33,135.229
				c-3.881,0-6.201,2.881-6.201,8.282c0,4.8,2.4,7.68,6.241,7.68c3.881,0,6.201-2.84,6.201-8.121
				C224.571,137.87,222.451,135.229,218.33,135.229z"/>
			<path d="M233.33,132.75h3.4v3.76c1.12-2.84,3.041-4.2,5.801-4.2c0.32,0,0.6,0,0.921,0.04v3.721c-0.28-0.04-0.562-0.04-0.84-0.04
				c-3.761,0-5.762,2.08-5.762,6v11.641h-3.521V132.75z"/>
			<path d="M252.132,154.312c-4.32,0-6.801-2.4-6.801-6.281c0-3.84,2.36-5.961,7.161-6.561c2.92-0.36,4.881-0.44,5.761-0.8
				c0.96-0.4,1-0.88,1-2.28c0-2.121-1.561-3.201-4.721-3.201c-3.28,0-4.921,1.361-4.921,3.881h-3.32c0-0.04,0-0.12,0-0.16
				c0-4.201,3.12-6.841,8.361-6.841c5.601,0,8.161,2.041,8.161,6.481v10.481c0,1.441,0.12,2.121,1.36,2.121
				c0.24,0,0.52-0.04,0.92-0.121v2.721c-0.76,0.201-1.4,0.32-2.041,0.32c-2.359,0-3.52-1.039-3.52-3.08c0-0.041,0-0.08,0-0.12
				C257.373,153.152,254.932,154.312,252.132,154.312z M252.572,144.471c-2.521,0.4-3.601,1.4-3.601,3.52
				c0,2.041,1.319,3.24,3.761,3.24c3.84,0,6.48-2.16,6.48-5.08v-3.12C257.332,144.03,255.053,144.071,252.572,144.471z"/>
			<path d="M282.255,140.79c0-3.721-0.841-5.44-4.2-5.44c-3.881,0-6.201,2.281-6.201,6.401v11.921h-3.521V132.75h3.361v3.041
				c1.6-2.4,3.801-3.561,6.721-3.561c3.16,0,5.32,0.959,6.48,2.84c0.881,1.36,0.921,3,0.921,5.041c0,0.32,0,0.64,0,1v12.561h-3.561
				V140.79z"/>
			<path d="M297.096,150.752c0.399,0,1-0.04,1.88-0.121v3.001c-1.08,0.199-2.04,0.32-2.801,0.32c-3.36,0-4.48-1.16-4.48-4.361
				V135.55h-3.12v-2.8h3.12v-5.841h3.521v5.841h3.761v2.8h-3.761v12.842C295.215,150.112,295.535,150.752,297.096,150.752z"/>
		</g>
	</g>
	<g>
		<path fill="#010101" d="M133.309,166.406h6.741c3.422,0,5.245,1.618,5.245,4.609c0,3.114-1.803,4.855-5.122,4.855H137.1v5.266
			h-3.791V166.406z M139.599,172.9c1.353,0,1.987-0.553,1.987-1.782c0-1.167-0.676-1.741-2.028-1.741H137.1v3.523H139.599z"/>
		<path fill="#010101" d="M150.416,170.258h3.421v1.906c0.758-1.496,1.843-2.152,3.585-2.172v3.523
			c-0.308-0.041-0.614-0.061-0.881-0.061c-1.086,0-1.782,0.307-2.213,1.003c-0.327,0.554-0.369,1.536-0.369,3.032v3.646h-3.543
			V170.258z"/>
		<path fill="#010101" d="M167.398,169.869c3.627,0,5.777,2.191,5.777,5.818s-2.15,5.818-5.777,5.818s-5.757-2.172-5.757-5.818
			S163.793,169.869,167.398,169.869z M167.398,178.781c1.332,0,2.131-1.086,2.131-3.094s-0.799-3.072-2.131-3.072
			s-2.11,1.064-2.11,3.072S166.066,178.781,167.398,178.781z"/>
		<path fill="#010101" d="M178.809,172.717h-1.557v-2.192h1.557c-0.021-0.245-0.021-0.491-0.021-0.718
			c0-2.539,1.065-3.523,3.791-3.523c0.388,0,0.921,0.021,1.557,0.062v2.376c-0.185-0.021-0.368-0.021-0.513-0.021
			c-1.024,0-1.249,0.369-1.249,1.516c0,0.103,0,0.205,0,0.308h1.762v2.192h-1.762v8.42h-3.565V172.717z"/>
		<path fill="#010101" d="M198.988,177.715c-0.635,2.377-2.581,3.75-5.368,3.75c-3.359,0-5.47-2.172-5.47-5.717
			c0-3.646,2.151-5.859,5.47-5.859c3.422,0,5.553,2.234,5.553,6.023c0,0.205,0,0.432-0.021,0.636h-7.355
			c0,1.536,0.677,2.356,1.946,2.356c0.964,0,1.578-0.41,1.824-1.189H198.988z M195.751,174.54c-0.02-1.413-0.798-2.233-2.027-2.233
			c-1.147,0-1.886,0.779-2.028,2.233H195.751z"/>
		<path fill="#010101" d="M207.243,177.818c0.083,0.963,0.718,1.434,1.906,1.434c1.004,0,1.618-0.41,1.618-1.064
			c0-0.882-1.188-0.841-3.135-1.476c-2.438-0.8-3.544-1.558-3.544-3.299c0-2.172,1.741-3.544,4.732-3.544
			c3.155,0,4.876,1.085,5.081,3.217h-3.422c-0.144-0.738-0.655-1.086-1.577-1.086c-0.86,0-1.332,0.348-1.332,0.941
			c0,0.759,0.901,0.861,2.397,1.291c1.619,0.472,2.684,0.8,3.155,1.148c0.798,0.594,1.147,1.331,1.147,2.334
			c0,2.315-1.865,3.77-5.225,3.77c-3.277,0-5.184-1.372-5.368-3.666H207.243z"/>
		<path fill="#010101" d="M222.465,177.818c0.082,0.963,0.717,1.434,1.905,1.434c1.004,0,1.618-0.41,1.618-1.064
			c0-0.882-1.188-0.841-3.134-1.476c-2.438-0.8-3.544-1.558-3.544-3.299c0-2.172,1.74-3.544,4.731-3.544
			c3.155,0,4.877,1.085,5.081,3.217h-3.421c-0.144-0.738-0.655-1.086-1.578-1.086c-0.86,0-1.331,0.348-1.331,0.941
			c0,0.759,0.901,0.861,2.396,1.291c1.618,0.472,2.684,0.8,3.156,1.148c0.798,0.594,1.146,1.331,1.146,2.334
			c0,2.315-1.865,3.77-5.225,3.77c-3.278,0-5.184-1.372-5.367-3.666H222.465z"/>
		<path fill="#010101" d="M234.633,166.406h3.545v2.869h-3.545V166.406z M234.633,170.258h3.545v10.879h-3.545V170.258z"/>
		<path fill="#010101" d="M249.016,169.869c3.625,0,5.776,2.191,5.776,5.818s-2.151,5.818-5.776,5.818
			c-3.627,0-5.758-2.172-5.758-5.818S245.409,169.869,249.016,169.869z M249.016,178.781c1.332,0,2.13-1.086,2.13-3.094
			s-0.798-3.072-2.13-3.072s-2.111,1.064-2.111,3.072S247.684,178.781,249.016,178.781z"/>
		<path fill="#010101" d="M259.871,170.258h3.484v1.496c0.737-1.188,1.803-1.762,3.298-1.762c2.644,0,3.627,1.29,3.627,4.077v7.067
			h-3.565v-5.471c0-2.007-0.082-2.971-1.495-2.971c-1.291,0-1.804,0.841-1.804,2.623v5.818h-3.545V170.258z"/>
		<path fill="#010101" d="M282.346,181.137c-0.081-0.348-0.143-0.717-0.185-1.126c-1.003,1.003-2.11,1.474-3.462,1.474
			c-2.131,0-3.4-1.27-3.4-3.195c0-1.823,0.963-2.93,2.889-3.38c2.52-0.595,3.872-0.431,3.872-1.271v-0.267
			c0-0.636-0.492-0.962-1.414-0.962c-1.024,0-1.618,0.43-1.762,1.229h-3.278c0.349-2.479,2.029-3.646,5.122-3.646
			c1.905,0,3.237,0.45,3.995,1.413c0.676,0.882,0.717,1.987,0.717,3.483v4.117c0,0.963,0.164,1.537,0.533,1.722v0.409H282.346z
			 M279.847,176.671c-0.799,0.226-1.168,0.553-1.168,1.209c0,0.757,0.512,1.29,1.312,1.29c1.208,0,2.069-0.758,2.069-1.905v-1.249
			C281.444,176.404,280.646,176.445,279.847,176.671z"/>
		<path fill="#010101" d="M290.99,166.406h3.565v14.73h-3.565V166.406z"/>
		<path fill="#010101" d="M133.309,190.195h6.741c3.422,0,5.245,1.619,5.245,4.609c0,3.114-1.803,4.855-5.122,4.855H137.1v5.266
			h-3.791V190.195z M139.599,196.689c1.353,0,1.987-0.553,1.987-1.781c0-1.168-0.676-1.742-2.028-1.742H137.1v3.523H139.599z"/>
		<path fill="#010101" d="M155.558,193.658c3.626,0,5.777,2.191,5.777,5.818s-2.151,5.818-5.777,5.818s-5.757-2.172-5.757-5.818
			S151.951,193.658,155.558,193.658z M155.558,202.57c1.332,0,2.131-1.086,2.131-3.094s-0.799-3.074-2.131-3.074
			s-2.11,1.066-2.11,3.074S154.226,202.57,155.558,202.57z"/>
		<path fill="#010101" d="M169.467,201.607c0.082,0.963,0.718,1.434,1.906,1.434c1.004,0,1.618-0.41,1.618-1.064
			c0-0.882-1.188-0.841-3.134-1.476c-2.438-0.8-3.545-1.558-3.545-3.298c0-2.172,1.741-3.545,4.732-3.545
			c3.155,0,4.877,1.085,5.081,3.217h-3.421c-0.145-0.738-0.656-1.086-1.578-1.086c-0.86,0-1.332,0.348-1.332,0.941
			c0,0.759,0.901,0.861,2.396,1.291c1.619,0.472,2.685,0.8,3.156,1.148c0.799,0.594,1.146,1.331,1.146,2.335
			c0,2.315-1.864,3.771-5.225,3.771c-3.277,0-5.184-1.374-5.367-3.668H169.467z"/>
		<path fill="#010101" d="M180.529,194.047h1.455v-3.072h3.565v3.072h1.823v2.152h-1.823v4.712c0,1.312,0.204,1.782,1.331,1.782
			c0.123,0,0.287,0,0.451-0.021v2.275c-0.717,0.143-1.435,0.225-2.131,0.225c-2.827,0-3.217-1.372-3.217-4.752v-4.221h-1.455
			V194.047z"/>
		<path fill="#010101" d="M195.792,205.848c0.185,0.656,0.717,0.963,1.64,0.963c1.639,0,2.089-0.717,2.089-2.376v-1.147
			c-0.778,1.168-1.884,1.742-3.36,1.742c-2.602,0-4.547-2.193-4.547-5.572c0-3.443,1.904-5.697,4.589-5.697
			c1.495,0,2.561,0.533,3.441,1.742v-1.455h3.339v8.975c0,1.885-0.02,3.258-0.654,4.24c-0.84,1.311-2.479,2.049-4.795,2.049
			c-3.277,0-4.979-1.086-5.307-3.463H195.792z M197.35,202.223c1.331,0,2.131-1.005,2.131-2.787c0-1.926-0.718-2.91-2.07-2.91
			c-1.352,0-2.109,1.005-2.109,2.91C195.301,201.197,196.1,202.223,197.35,202.223z"/>
		<path fill="#010101" d="M208.656,194.047h3.422v1.906c0.758-1.496,1.844-2.152,3.585-2.172v3.523
			c-0.308-0.041-0.614-0.061-0.881-0.061c-1.085,0-1.782,0.307-2.213,1.003c-0.327,0.554-0.369,1.536-0.369,3.032v3.646h-3.544
			V194.047z"/>
		<path fill="#010101" d="M230.721,201.505c-0.635,2.377-2.581,3.749-5.368,3.749c-3.358,0-5.47-2.172-5.47-5.717
			c0-3.646,2.151-5.859,5.47-5.859c3.422,0,5.554,2.234,5.554,6.023c0,0.205,0,0.432-0.021,0.637h-7.355
			c0,1.536,0.676,2.355,1.946,2.355c0.963,0,1.577-0.41,1.823-1.188H230.721z M227.484,198.329c-0.021-1.413-0.8-2.233-2.028-2.233
			c-1.147,0-1.885,0.779-2.028,2.233H227.484z"/>
		<path fill="#010101" d="M239.037,200.029c0.042,1.68,0.983,2.541,2.787,2.541c1.576,0,2.418-0.553,2.418-1.455
			c0-0.491-0.227-0.86-0.574-1.045c-0.881-0.451-2.561-0.736-4.712-1.598c-2.131-0.84-3.237-2.254-3.237-4.077
			c0-2.766,2.191-4.609,5.88-4.609c3.585,0,5.778,1.926,5.778,4.855h-3.545c-0.164-1.372-0.963-2.008-2.479-2.008
			c-1.271,0-2.05,0.593-2.05,1.331c0,1.106,1.147,1.332,3.463,2.09c1.7,0.553,2.93,0.943,3.646,1.517
			c0.964,0.778,1.455,1.843,1.455,3.114c0,2.868-2.274,4.65-6.413,4.65c-3.831,0-5.818-1.741-6.043-5.307H239.037z"/>
		<path fill="#010101" d="M260.098,205.336c-4.548,0-7.417-2.971-7.417-7.765s2.848-7.765,7.376-7.765s7.417,2.971,7.417,7.744
			c0,2.232-0.574,4.016-1.701,5.307l1.599,1.68l-1.762,1.701l-1.742-1.804C262.74,205.049,261.491,205.336,260.098,205.336z
			 M259.954,200.357l1.782-1.7l1.434,1.517c0.309-0.76,0.451-1.619,0.451-2.582c0-3.053-1.29-4.672-3.564-4.672
			c-2.254,0-3.544,1.619-3.544,4.651s1.271,4.651,3.544,4.651c0.512,0,0.983-0.082,1.414-0.268L259.954,200.357z"/>
		<path fill="#010101" d="M273.023,190.195h3.791v11.535h7.13v3.195h-10.921V190.195z"/>
	</g>
	<path fill="none" stroke="#231F20" stroke-width="3.1905" stroke-linejoin="round" stroke-miterlimit="10" d="M1.348,151.795
		H119.09 M60.217,92.923v117.741"/>
	<polygon fill-rule="evenodd" clip-rule="evenodd" points="96.445,138.208 73.803,138.208 73.803,92.923 119.09,92.923 
		119.09,138.208 96.445,138.208 	"/>
</g>
</svg>
