<?xml version="1.0" encoding="UTF-8" standalone="no"?>
<!-- Generator: Adobe Illustrator 12.0.1, SVG Export Plug-In . SVG Version: 6.00 Build 51448)  -->

<svg
   xmlns:dc="http://purl.org/dc/elements/1.1/"
   xmlns:cc="http://creativecommons.org/ns#"
   xmlns:rdf="http://www.w3.org/1999/02/22-rdf-syntax-ns#"
   xmlns:svg="http://www.w3.org/2000/svg"
   xmlns="http://www.w3.org/2000/svg"
   xmlns:sodipodi="http://sodipodi.sourceforge.net/DTD/sodipodi-0.dtd"
   xmlns:inkscape="http://www.inkscape.org/namespaces/inkscape"
   version="1.1"
   id="Calque_1"
   width="1052.3622"
   height="744.09448"
   viewBox="0 0 1052.3621 744.0945"
   overflow="visible"
   enable-background="new 0 0 566.124 110.936"
   xml:space="preserve"
   inkscape:version="0.47 r22583"
   sodipodi:docname="loxodata.svg"
   style="overflow:visible"
   inkscape:export-filename="/home/sas/loxodata/identite_visuelle/loxodata_fd.png"
   inkscape:export-xdpi="129"
   inkscape:export-ydpi="129"><metadata
   id="metadata2861"><rdf:RDF><cc:Work
       rdf:about=""><dc:format>image/svg+xml</dc:format><dc:type
         rdf:resource="http://purl.org/dc/dcmitype/StillImage" /><dc:title></dc:title></cc:Work></rdf:RDF></metadata><defs
   id="defs2859"><inkscape:perspective
     sodipodi:type="inkscape:persp3d"
     inkscape:vp_x="0 : 55.467999 : 1"
     inkscape:vp_y="0 : 1000 : 0"
     inkscape:vp_z="566.12402 : 55.467999 : 1"
     inkscape:persp3d-origin="283.06201 : 36.978666 : 1"
     id="perspective2863" /></defs><sodipodi:namedview
   pagecolor="#ffffff"
   bordercolor="#666666"
   borderopacity="1"
   objecttolerance="10"
   gridtolerance="10"
   guidetolerance="10"
   inkscape:pageopacity="1"
   inkscape:pageshadow="2"
   inkscape:window-width="975"
   inkscape:window-height="535"
   id="namedview2857"
   showgrid="false"
   inkscape:zoom="0.9485554"
   inkscape:cx="348.42456"
   inkscape:cy="55.467999"
   inkscape:window-x="0"
   inkscape:window-y="26"
   inkscape:window-maximized="0"
   inkscape:current-layer="Calque_1" />
<rect
   style="fill:#ffffff;fill-opacity:1;stroke:none;stroke-width:1.01842356000000001;stroke-miterlimit:4;stroke-opacity:1;stroke-dasharray:6.11054132000000028, 6.11054132000000028;stroke-dashoffset:0"
   id="rect2886"
   width="573.48523"
   height="117.00163"
   x="1.0633926"
   y="629.19214" /><g
   id="g2817"
   transform="translate(0,633.15851)">
	<path
   d="m 92.078,86.856 c 1.48,-0.341 2.341,1.215 1.937,3.453 0,0 -0.673,3.253 -1.365,6.486 -0.693,3.236 -1.403,6.453 -1.403,6.453 -0.518,2.095 -2.165,4.161 -3.697,4.639 l -9.791,2.94 c -1.762,0.51 -2.746,-0.848 -2.176,-3.06 0,0 0.789,-3.412 1.56,-6.854 0.768,-3.44 1.509,-6.911 1.509,-6.911 0.456,-2.4 2.227,-4.667 3.941,-5.034 l 9.485,-2.112 z"
   id="path2819"
   style="fill:#7e6b60" />
	<path
   d="m 94.989,61.591 c 1.438,-0.127 2.456,1.707 2.279,4.093 0,0 -0.351,3.512 -0.731,7.013 -0.382,3.5 -0.795,6.984 -0.795,6.984 -0.331,2.299 -1.788,4.413 -3.261,4.733 l -9.454,2 c -1.709,0.352 -2.802,-1.364 -2.427,-3.846 0,0 0.483,-3.771 0.919,-7.568 0.435,-3.799 0.821,-7.621 0.821,-7.621 0.2,-2.6 1.732,-4.833 3.404,-4.976 l 9.245,-0.812 z"
   id="path2821"
   style="fill:#7e6b60" />
	<path
   d="m 77.56,63.091 c 1.823,-0.151 3.125,1.865 2.922,4.491 0,0 -0.392,3.858 -0.832,7.69 -0.441,3.835 -0.931,7.638 -0.931,7.638 -0.381,2.503 -2.18,4.812 -4.037,5.178 l -11.998,2.24 c -2.181,0.386 -3.635,-1.47 -3.222,-4.168 0,0 0.54,-4.112 1.024,-8.274 0.484,-4.163 0.905,-8.368 0.905,-8.368 0.227,-2.866 2.177,-5.335 4.337,-5.495 L 77.56,63.091 z"
   id="path2823"
   style="fill:#7e6b60" />
	<path
   d="m 55.327,32.889 c 0,0 -3.753,-0.206 -7.601,-0.414 -3.848,-0.205 -7.791,-0.414 -7.791,-0.414 -2.814,-0.137 -5.027,2.346 -4.913,5.562 0,0 0.075,4.816 0.075,9.639 0,4.823 -0.075,9.64 -0.075,9.64 -0.114,3.215 2.099,5.703 4.913,5.563 0,0 3.942,-0.206 7.791,-0.412 3.847,-0.209 7.601,-0.412 7.601,-0.412 2.365,-0.139 4.354,-2.629 4.467,-5.57 0,0 0.072,-4.399 0.072,-8.808 0,-4.406 -0.072,-8.808 -0.072,-8.808 -0.113,-2.942 -2.103,-5.431 -4.467,-5.566 z"
   id="path2825"
   style="fill:#00b0e6" />
	<path
   d="m 26.165,31.422 c 0,0 -4.801,-0.193 -9.758,-0.381 C 11.45,30.853 6.342,30.674 6.342,30.674 c -3.574,-0.114 -6.431,2.611 -6.34,6.104 0,0 0.064,5.237 0.064,10.483 0,5.249 -0.064,10.483 -0.064,10.483 -0.091,3.493 2.766,6.224 6.34,6.108 0,0 5.108,-0.181 10.065,-0.369 4.957,-0.187 9.758,-0.381 9.758,-0.381 3.07,-0.134 5.626,-2.866 5.74,-6.111 0,0 0.074,-4.862 0.074,-9.73 0,-4.87 -0.074,-9.729 -0.074,-9.729 -0.114,-3.245 -2.668,-5.974 -5.74,-6.11 z"
   id="path2827"
   style="fill:#009ee0" />
	<path
   d="M 77.726,34.287 65.904,33.52 c -2.156,-0.134 -3.83,2.11 -3.719,5.024 0,0 0.073,4.355 0.073,8.717 0,4.362 -0.073,8.718 -0.073,8.718 -0.111,2.914 1.563,5.16 3.719,5.026 l 11.822,-0.766 c 1.821,-0.124 3.372,-2.374 3.472,-5.032 0,0 0.056,-3.972 0.056,-7.946 0,-3.973 -0.056,-7.947 -0.056,-7.947 -0.1,-2.655 -1.651,-4.904 -3.472,-5.027 z"
   id="path2829"
   style="fill:#5ec5ed" />
	<path
   d="m 97.885,40.068 c -0.088,-2.409 -1.317,-4.441 -2.754,-4.549 l -9.229,-0.668 c -1.674,-0.117 -2.958,1.913 -2.857,4.545 0,0 0.056,3.931 0.056,7.866 0,3.936 -0.056,7.868 -0.056,7.868 -0.101,2.629 1.184,4.667 2.857,4.545 l 9.229,-0.669 c 1.437,-0.106 2.666,-2.14 2.754,-4.549 0,0 0.04,-3.596 0.04,-7.195 0,-3.599 -0.04,-7.194 -0.04,-7.194 z"
   id="path2831"
   style="fill:#a2daf4" />
	<path
   d="m 92.479,10.111 c 1.473,0.32 2.93,2.432 3.261,4.731 0,0 0.414,3.487 0.795,6.988 0.381,3.5 0.731,7.01 0.731,7.01 0.177,2.386 -0.841,4.221 -2.279,4.093 L 85.741,32.12 c -1.673,-0.142 -3.204,-2.376 -3.404,-4.974 0,0 -0.387,-3.825 -0.821,-7.622 C 81.08,15.725 80.597,11.958 80.597,11.958 80.22,9.474 81.314,7.763 83.024,8.111 l 9.455,2 z"
   id="path2833"
   style="fill:#7e6b60" />
	<path
   d="m 74.683,6.439 c 1.856,0.366 3.656,2.673 4.037,5.178 0,0 0.49,3.802 0.931,7.635 0.44,3.833 0.832,7.693 0.832,7.693 0.203,2.623 -1.1,4.638 -2.922,4.489 L 65.73,30.502 c -2.16,-0.16 -4.11,-2.628 -4.337,-5.494 0,0 -0.421,-4.207 -0.905,-8.368 C 60.005,12.478 59.464,8.368 59.464,8.368 59.051,5.666 60.506,3.814 62.686,4.2 l 11.997,2.239 z"
   id="path2835"
   style="fill:#7e6b60" />
	<path
   d="m 52.021,2.378 c 2.377,0.392 4.617,2.892 5.032,5.614 0,0 0.544,4.146 1.032,8.346 0.487,4.2 0.91,8.444 0.91,8.444 0.228,2.894 -1.486,5.118 -3.851,4.952 0,0 -3.753,-0.249 -7.602,-0.5 -3.848,-0.25 -7.789,-0.5 -7.789,-0.5 -2.813,-0.168 -5.306,-2.871 -5.536,-6.019 0,0 -0.422,-4.599 -0.906,-9.133 -0.483,-4.53 -1.021,-8.987 -1.021,-8.987 -0.406,-2.911 1.559,-4.932 4.352,-4.548 0,0 3.93,0.583 7.777,1.164 3.841,0.583 7.602,1.167 7.602,1.167 z"
   id="path2837"
   style="fill:#7e6b60" />
</g>
<g
   id="g2839"
   transform="translate(0,633.15851)">
	<path
   d="M 112.479,91.15 V 19.68 h 14.963 v 58.39 h 35.424 v 13.08 h -50.387 z"
   id="path2841"
   style="fill:#5e4f46" />
	<path
   d="m 195.249,93.662 c -11.066,0 -19.561,-3.231 -25.488,-9.696 -5.927,-6.465 -8.889,-15.766 -8.889,-27.906 0,-6.033 0.753,-11.455 2.263,-16.268 1.507,-4.812 3.734,-8.888 6.681,-12.229 2.946,-3.338 6.538,-5.889 10.778,-7.648 4.238,-1.759 9.124,-2.641 14.656,-2.641 5.459,0 10.327,0.881 14.603,2.641 4.274,1.759 7.848,4.328 10.722,7.703 2.875,3.376 5.065,7.488 6.574,12.336 1.508,4.85 2.263,10.325 2.263,16.431 0,12.354 -2.928,21.655 -8.783,27.904 -5.858,6.248 -14.317,9.373 -25.38,9.373 z m 0,-12.766 c 2.659,0 5.175,-0.483 7.547,-1.455 2.371,-0.97 4.438,-2.442 6.2,-4.418 1.761,-1.975 3.144,-4.508 4.151,-7.598 1.006,-3.09 1.509,-6.754 1.509,-10.995 0,-8.478 -1.655,-14.908 -4.961,-19.292 -3.306,-4.382 -8.123,-6.574 -14.447,-6.574 -6.326,0 -11.179,2.192 -14.557,6.574 -3.378,4.384 -5.067,10.814 -5.067,19.292 0,8.479 1.707,14.677 5.121,18.593 3.414,3.916 8.25,5.873 14.504,5.873 z"
   id="path2843"
   style="fill:#5e4f46" />
	<path
   d="M 268.833,91.15 255.158,66.609 240.729,91.15 h -17.444 l 23.15,-36.488 -21.856,-34.981 h 17.658 l 12.922,23.142 13.027,-23.142 h 17.336 l -21.75,34.335 23.258,37.134 h -18.197 z"
   id="path2845"
   style="fill:#5e4f46" />
	<path
   d="m 315.138,93.662 c -11.066,0 -19.562,-3.231 -25.488,-9.696 -5.926,-6.465 -8.89,-15.766 -8.89,-27.906 0,-6.033 0.754,-11.455 2.263,-16.268 1.508,-4.812 3.734,-8.888 6.681,-12.229 2.946,-3.338 6.538,-5.889 10.778,-7.648 4.237,-1.759 9.123,-2.641 14.656,-2.641 5.459,0 10.326,0.881 14.602,2.641 4.274,1.759 7.849,4.328 10.723,7.703 2.875,3.376 5.065,7.488 6.574,12.336 1.508,4.85 2.264,10.325 2.264,16.431 0,12.354 -2.929,21.655 -8.784,27.904 -5.857,6.248 -14.316,9.373 -25.379,9.373 z m 0,-12.766 c 2.658,0 5.175,-0.483 7.547,-1.455 2.371,-0.97 4.438,-2.442 6.2,-4.418 1.761,-1.975 3.144,-4.508 4.151,-7.598 1.005,-3.09 1.509,-6.754 1.509,-10.995 0,-8.478 -1.654,-14.908 -4.961,-19.292 -3.306,-4.382 -8.122,-6.574 -14.446,-6.574 -6.326,0 -11.179,2.192 -14.557,6.574 -3.378,4.384 -5.067,10.814 -5.067,19.292 0,8.479 1.707,14.677 5.121,18.593 3.414,3.916 8.249,5.873 14.503,5.873 z"
   id="path2847"
   style="fill:#5e4f46" />
	<path
   d="M 353.441,91.15 V 19.68 h 27.655 c 4.805,0 9.252,0.808 13.342,2.421 4.089,1.616 7.586,3.929 10.491,6.942 2.905,3.015 5.184,6.674 6.833,10.979 1.649,4.307 2.476,9.186 2.476,14.639 0,5.454 -0.736,10.423 -2.206,14.908 -1.472,4.484 -3.569,8.323 -6.295,11.517 -2.727,3.193 -5.99,5.669 -9.792,7.426 -3.803,1.76 -7.998,2.638 -12.589,2.638 h -29.915 z m 26.913,-12.138 c 6.523,0 11.257,-2.028 14.196,-6.089 2.939,-4.058 4.41,-10.146 4.41,-18.264 0,-4.022 -0.36,-7.47 -1.076,-10.345 -0.718,-2.875 -1.884,-5.227 -3.496,-7.059 -1.613,-1.831 -3.675,-3.16 -6.184,-3.988 -2.51,-0.826 -5.557,-1.239 -9.141,-1.239 h -11.077 v 46.983 h 12.368 z"
   id="path2849"
   style="fill:#5e4f46" />
	<path
   d="m 459.596,91.15 -4.522,-14.754 h -26.38 l -5.062,14.754 h -15.827 l 25.518,-71.47 h 17.336 l 25.197,71.47 h -16.26 z M 441.83,35.719 h -0.107 l -9.153,28.435 h 18.198 L 441.83,35.719 z"
   id="path2851"
   style="fill:#5e4f46" />
	<path
   d="M 479.651,91.15 V 32.133 H 458.115 V 19.681 h 58.143 V 32.133 H 494.615 V 91.15 h -14.964 z"
   id="path2853"
   style="fill:#5e4f46" />
	<path
   d="m 549.864,91.15 -4.522,-14.754 h -26.38 L 513.9,91.15 h -15.827 l 25.518,-71.47 h 17.336 l 25.197,71.47 h -16.26 z M 532.097,35.719 h -0.107 l -9.153,28.435 h 18.198 l -8.938,-28.435 z"
   id="path2855"
   style="fill:#5e4f46" />
</g>
</svg>