<?xml version="1.0" encoding="UTF-8" standalone="no"?>
<!-- Created with Inkscape (http://www.inkscape.org/) -->

<svg
   xmlns:dc="http://purl.org/dc/elements/1.1/"
   xmlns:cc="http://creativecommons.org/ns#"
   xmlns:rdf="http://www.w3.org/1999/02/22-rdf-syntax-ns#"
   xmlns:svg="http://www.w3.org/2000/svg"
   xmlns="http://www.w3.org/2000/svg"
   xmlns:xlink="http://www.w3.org/1999/xlink"
   xmlns:sodipodi="http://sodipodi.sourceforge.net/DTD/sodipodi-0.dtd"
   xmlns:inkscape="http://www.inkscape.org/namespaces/inkscape"
   width="2979.9211"
   height="4212.9922"
   id="svg2880"
   sodipodi:version="0.32"
   inkscape:version="0.91 r13725"
   version="1.0"
   sodipodi:docname="raisons.2015.svg"
   inkscape:output_extension="org.inkscape.output.svg.inkscape">
  <defs
     id="defs2882">
    <linearGradient
       id="linearGradient3227">
      <stop
         style="stop-color:#003deb;stop-opacity:1;"
         offset="0"
         id="stop3229" />
      <stop
         id="stop3237"
         offset="1"
         style="stop-color:#0977ea;stop-opacity:0.49803922;" />
      <stop
         style="stop-color:#000000;stop-opacity:0;"
         offset="1"
         id="stop3231" />
    </linearGradient>
    <linearGradient
       inkscape:collect="always"
       xlink:href="#linearGradient3227"
       id="linearGradient2442"
       gradientUnits="userSpaceOnUse"
       gradientTransform="matrix(4.2018291,0,0,4.6752125,-68.533962,-89.546284)"
       x1="42.857143"
       y1="110.93361"
       x2="705.71423"
       y2="110.93361" />
    <clipPath
       id="clip0">
      <rect
         width="900"
         height="928"
         id="rect2538" />
    </clipPath>
  </defs>
  <sodipodi:namedview
     id="base"
     pagecolor="#ffffff"
     bordercolor="#666666"
     borderopacity="1.0"
     inkscape:pageopacity="0"
     inkscape:pageshadow="2"
     inkscape:zoom="0.24748737"
     inkscape:cx="1330.2672"
     inkscape:cy="835.25604"
     inkscape:document-units="px"
     inkscape:current-layer="layer1"
     width="841.00002mm"
     height="1189mm"
     inkscape:window-width="1920"
     inkscape:window-height="1056"
     inkscape:window-x="0"
     inkscape:window-y="0"
     showgrid="false"
     inkscape:window-maximized="1" />
  <metadata
     id="metadata2885">
    <rdf:RDF>
      <cc:Work
         rdf:about="">
        <dc:format>image/svg+xml</dc:format>
        <dc:type
           rdf:resource="http://purl.org/dc/dcmitype/StillImage" />
        <dc:title></dc:title>
      </cc:Work>
    </rdf:RDF>
  </metadata>
  <g
     inkscape:label="Calque 1"
     inkscape:groupmode="layer"
     id="layer1">
    <text
       xml:space="preserve"
       style="font-style:oblique;font-variant:normal;font-weight:bold;font-stretch:normal;font-size:135.83616638px;line-height:100%;font-family:'Bitstream Vera Sans';text-align:start;writing-mode:lr-tb;text-anchor:start;fill:#333333;fill-opacity:1;stroke:none;stroke-width:1px;stroke-linecap:butt;stroke-linejoin:miter;stroke-opacity:1"
       x="482.647"
       y="4063.5305"
       id="text2759"
       sodipodi:linespacing="100%"><tspan
         sodipodi:role="line"
         id="tspan2761"
         x="482.647"
         y="4063.5305">http://www.postgresql.fr</tspan></text>
    <rect
       style="fill:url(#linearGradient2442);fill-opacity:1;fill-rule:nonzero;stroke:#155ada;stroke-width:0;stroke-miterlimit:4;stroke-dasharray:none;stroke-dashoffset:0;stroke-opacity:1"
       id="rect2255"
       width="2785.2124"
       height="627.81427"
       x="111.54443"
       y="115.18478"
       ry="173.65074" />
    <g
       id="g3187"
       transform="matrix(1.0732104,0,0,1.0732104,-105.97245,-132.6876)">
      <path
         id="path10"
         d="M 551.14596,606.25655 C 549.41471,668.15155 551.58096,730.4778 557.63721,745.6253 C 563.69721,760.7728 576.66596,790.2353 621.26221,780.68155 C 658.51971,772.69405 672.07596,757.23655 677.95846,723.1178 C 682.29096,698.0153 690.64346,628.3003 691.71471,614.01655"
         style="fill:none;fill-rule:nonzero;stroke:#ffffff;stroke-width:15.58137512;stroke-linecap:round;stroke-linejoin:round;stroke-miterlimit:4" />
      <path
         id="path12"
         d="M 497.69346,295.97155 C 497.69346,295.97155 295.79221,213.45155 305.17846,401.1078 C 307.17471,441.0303 362.40221,703.1878 428.26971,624.0028 C 452.33971,595.0453 474.10846,572.33405 474.10846,572.33405"
         style="fill:none;fill-rule:nonzero;stroke:#ffffff;stroke-width:15.58137512;stroke-linecap:round;stroke-linejoin:round;stroke-miterlimit:4" />
      <path
         id="path14"
         d="M 606.74971,280.9103 C 599.76096,283.10155 719.05971,237.29905 786.85846,323.93155 C 810.80721,354.53655 783.05471,479.5803 716.66721,578.0928"
         style="fill:none;fill-rule:nonzero;stroke:#ffffff;stroke-width:15.58137512;stroke-linecap:round;stroke-linejoin:round;stroke-miterlimit:4" />
      <path
         id="path16"
         d="M 716.66596,578.0928 C 716.66596,578.0928 720.99221,599.3878 783.87096,586.40905 C 811.42096,580.71905 794.84096,602.37655 766.89971,615.3528 C 743.96846,625.9953 692.55721,628.7228 691.71721,614.01655 C 689.55596,576.0728 718.77596,587.6003 716.66721,578.0928 C 714.76096,569.5303 701.69346,561.12655 693.04971,540.1703 C 685.50346,521.87905 589.55471,381.60905 719.65846,402.44155 C 724.42471,401.4553 685.72596,278.68905 563.96721,276.6928 C 442.23596,274.69655 446.22971,426.3953 446.22971,426.3953"
         style="fill:none;fill-rule:nonzero;stroke:#ffffff;stroke-width:15.58137512;stroke-linecap:round;stroke-linejoin:bevel;stroke-miterlimit:4" />
      <path
         id="path18"
         d="M 517.06846,591.06905 C 500.09721,610.02655 505.08846,613.3553 471.16471,620.3403 C 436.84096,627.4153 457.00721,640.00655 470.16846,643.29655 C 486.12846,647.2903 523.05221,652.94405 548.00096,618.0103 C 555.59846,607.37405 547.95596,590.4028 537.51971,586.07655 C 532.47721,583.9878 525.73471,581.3703 517.06846,591.06905 L 517.06846,591.06905 z "
         style="fill:none;fill-rule:nonzero;stroke:#ffffff;stroke-width:15.58137512;stroke-linecap:round;stroke-linejoin:round;stroke-miterlimit:4" />
      <path
         id="path20"
         d="M 515.95721,590.7378 C 514.24721,579.59155 519.61971,566.3278 525.37721,550.8103 C 534.02971,527.5278 553.99346,504.24155 538.02346,430.38655 C 526.11971,375.3503 446.27846,418.9328 446.22846,426.3953 C 446.17971,433.8553 449.83971,464.2203 444.89471,499.5803 C 438.44221,545.72155 474.25471,584.7453 515.49346,580.7528"
         style="fill:none;fill-rule:nonzero;stroke:#ffffff;stroke-width:15.58137512;stroke-linecap:round;stroke-linejoin:round;stroke-miterlimit:4" />
      <path
         id="path22"
         d="M 496.95971,425.27655 C 496.59971,427.8253 501.62596,434.62655 508.17971,435.5353 C 514.72221,436.4478 520.32221,431.1328 520.67721,428.58655 C 521.03221,426.0378 516.01221,423.2303 509.45596,422.3178 C 502.90971,421.40405 497.30721,422.73405 496.96096,425.27655 L 496.95971,425.27655 z "
         style="fill:#ffffff;fill-rule:nonzero;stroke:#ffffff;stroke-width:5.19375038;stroke-linecap:butt;stroke-linejoin:miter;stroke-miterlimit:4" />
      <path
         id="path24"
         d="M 696.23971,420.0803 C 696.59471,422.62905 691.57471,429.4303 685.01971,430.33905 C 678.47221,431.25155 672.87221,425.93655 672.51346,423.3903 C 672.16721,420.84155 677.18846,418.03405 683.73721,417.12155 C 690.28596,416.20905 695.88471,417.5378 696.23971,420.08155 L 696.23971,420.0803 z "
         style="fill:#ffffff;fill-rule:nonzero;stroke:#ffffff;stroke-width:2.59687519;stroke-linecap:butt;stroke-linejoin:miter;stroke-miterlimit:4" />
      <path
         id="path26"
         d="M 719.65846,402.44155 C 720.73721,422.43405 715.35221,436.05155 714.67346,457.33405 C 713.66846,488.26905 729.42221,523.67655 705.68471,559.1278"
         style="fill:none;fill-rule:nonzero;stroke:#ffffff;stroke-width:15.58137512;stroke-linecap:round;stroke-linejoin:round;stroke-miterlimit:4" />
    </g>
    <flowRoot
       xml:space="preserve"
       id="flowRoot3249"
       style="font-size:60px;font-style:normal;font-variant:normal;font-weight:normal;font-stretch:normal;text-align:start;line-height:100%;writing-mode:lr-tb;text-anchor:start;fill:#f2f2f2;font-family:Nimbus Sans L"
       transform="matrix(3.9951815,0,0,3.9951815,117.72404,126.43864)"><flowRegion
         id="flowRegion3251"><rect
           id="rect3253"
           width="408.57141"
           height="74.285713"
           x="251.42857"
           y="66.647896"
           style="font-size:60px;font-style:normal;font-variant:normal;font-weight:normal;font-stretch:normal;text-align:start;line-height:100%;writing-mode:lr-tb;text-anchor:start;fill:#f2f2f2;font-family:Nimbus Sans L" /></flowRegion><flowPara
         id="flowPara3255">PostgreSQL</flowPara></flowRoot>    <flowRoot
       xml:space="preserve"
       id="flowRoot3393"
       style="font-size:29.33086777px;font-style:normal;font-variant:normal;font-weight:normal;font-stretch:normal;text-align:start;line-height:100%;writing-mode:lr-tb;text-anchor:start;fill:#f2f2f2;font-family:Nimbus Sans L"
       transform="matrix(4.1795467,0,0,3.9951815,-122.29177,-59.767214)"><flowRegion
         id="flowRegion3395"><rect
           id="rect3397"
           width="503.01041"
           height="61.55722"
           x="218.96783"
           y="66.567261"
           style="font-size:29.33086777px;font-style:normal;font-variant:normal;font-weight:normal;font-stretch:normal;text-align:start;line-height:100%;writing-mode:lr-tb;text-anchor:start;fill:#f2f2f2;font-family:Nimbus Sans L" /></flowRegion><flowPara
         id="flowPara3399">10 raisons de confier vos données à</flowPara></flowRoot>    <g
       style="opacity:0.2"
       transform="matrix(2.752026,0,0,2.752026,1459.193,1240.1749)"
       id="surface0"
       clip-path="url(#clip0)">
      <path
         style="opacity:1;fill:none;stroke:#ffffff;stroke-width:0.1;stroke-linecap:butt;stroke-linejoin:miter;stroke-miterlimit:10"
         d="M 0,0 L 626.84763,0 C 623.59575,0.718781 620.27519,0.939285 616.96358,1.051361 C 592.08763,3.241348 567.34737,7.467514 543.32005,14.327866 C 541.10947,14.885254 538.86923,15.827118 536.5558,15.416855 C 515.53513,12.06134 494.28087,9.781204 472.98019,9.932755 C 434.88138,8.539383 396.0441,16.159027 362.30443,34.24588 C 359.18506,35.597778 356.10759,38.872391 352.48149,37.477127 C 303.65007,21.552994 252.47058,11.414413 200.96343,12.222549 C 193.30249,12.944138 185.58153,12.72583 177.95334,13.796463 C 140.44253,17.47879 103.05124,29.710968 73.14505,53.15361 C 54.798798,67.231888 39.774506,85.414139 28.643234,105.63773 C 11.047531,137.14504 3.102203,173.17506 0.672165,208.92935 C 0.486877,210.2363 0.262817,211.53943 0,212.83872 L 0,0 z "
         id="path2541" />
      <path
         style="opacity:1;fill:#ffffff;fill-rule:nonzero;stroke:none"
         d="M 0,0 L 626.84763,0 C 623.59575,0.718781 620.27519,0.939285 616.96358,1.051361 C 592.08763,3.241348 567.34737,7.467514 543.32005,14.327866 C 541.10947,14.885254 538.86923,15.827118 536.5558,15.416855 C 515.53513,12.06134 494.28087,9.781204 472.98019,9.932755 C 434.88138,8.539383 396.0441,16.159027 362.30443,34.24588 C 359.18506,35.597778 356.10759,38.872391 352.48149,37.477127 C 303.65007,21.552994 252.47058,11.414413 200.96343,12.222549 C 193.30249,12.944138 185.58153,12.72583 177.95334,13.796463 C 140.44253,17.47879 103.05124,29.710968 73.14505,53.15361 C 54.798798,67.231888 39.774506,85.414139 28.643234,105.63773 C 11.047531,137.14504 3.102203,173.17506 0.672165,208.92935 C 0.486877,210.2363 0.262817,211.53943 0,212.83872 L 0,0 z "
         id="path2543" />
      <path
         style="opacity:1;fill:none;stroke:#666666;stroke-width:0.1;stroke-linecap:butt;stroke-linejoin:miter;stroke-miterlimit:10"
         d="M 626.84763,0 L 670.16815,0 C 673.0771,0.63002 676.04538,0.921692 679.02571,1.038727 C 720.51619,4.609467 761.63882,16.206848 797.73315,37.234787 C 828.38036,54.996536 855.33043,79.12886 876.41092,107.58459 C 887.76613,124.25961 892.62395,144.41118 894.73494,164.2276 C 895.6167,176.88052 896.72697,189.60188 895.45793,202.27618 C 893.84666,238.87915 886.67403,275.02258 877.51723,310.42937 C 856.9428,387.14276 825.56595,460.87021 785.52371,529.42403 C 784.86433,530.60184 784.23819,531.79773 783.6416,533.01173 C 794.8591,532.29761 806.05911,531.11078 817.12946,529.11224 C 826.09875,527.69096 834.90526,525.10956 844.02164,524.71446 C 859.46684,523.14905 876.44119,526.97128 887.39981,538.59685 C 894.17362,544.9736 897.97409,553.78003 900,562.72243 L 900,577.28703 C 898.42602,582.9897 896.87086,588.77563 893.93263,593.96135 C 886.03256,608.502 873.27325,619.53625 860.06215,629.13098 C 840.67874,642.67822 819.22864,653.63097 796.13394,659.15878 C 774.84409,664.30513 752.93692,667.55704 730.99831,666.99898 C 725.05037,666.95579 719.08429,667.26756 713.16356,666.6134 C 711.59387,675.97848 711.04967,685.50996 711.02574,695.00207 C 711.20814,701.71634 709.9039,708.35658 709.99625,715.0743 C 707.61751,746.96332 703.88994,779.0014 694.85547,809.78108 C 687.838,833.93094 677.09612,857.43031 660.50473,876.55145 C 644.05003,895.73303 621.55476,909.03066 597.60303,916.61084 C 581.13931,921.83707 564.18553,925.39766 547.12643,928 L 521.80115,928 C 509.85899,926.09261 497.8818,923.46831 487.04102,917.91411 C 473.86661,911.20816 462.13789,901.55778 453.46399,889.55014 C 442.84853,875.3598 436.33173,858.65381 431.11928,841.85555 C 420.3297,813.00256 418.41673,781.88471 416.46195,751.44579 C 415.99971,747.63832 415.9449,743.80408 415.96445,739.9823 C 415.99509,733.3029 414.87282,726.68196 414.97931,720.00465 C 415.09709,710.68259 414.89517,701.35216 413.98657,692.07259 C 394.72368,700.04831 373.87479,704.41177 353.00178,704.01694 C 338.21529,704.38927 323.4782,702.15541 309.07459,698.96433 C 289.64853,694.66248 270.5881,685.85997 257.10738,670.8709 C 244.40453,681.16065 229.32492,689.02466 212.93308,691.00688 C 193.62279,693.78088 173.66489,688.21944 157.53244,677.5204 C 142.91771,668.09669 131.0018,655.13701 120.71733,641.24335 C 98.119995,610.21744 82.57074,574.7778 68.741364,539.16768 C 49.387772,487.96922 34.567307,435.15968 22.050293,381.91119 C 16.879898,359.68079 12.195923,337.33606 8.104385,314.88219 C 5.036423,297.71062 2.148041,280.4729 0.665024,263.08342 C 0.479507,261.75316 0.257828,260.4321 0,259.12022 L 0,212.83872 C 0.262817,211.53943 0.486877,210.2363 0.672165,208.92935 C 3.102203,173.17506 11.047531,137.14504 28.643234,105.63773 C 39.774506,85.414139 54.798798,67.231888 73.14505,53.15361 C 103.05124,29.710968 140.44253,17.47879 177.95334,13.796463 C 185.58153,12.72583 193.30249,12.944138 200.96343,12.222549 C 252.47058,11.414413 303.65007,21.552994 352.48149,37.477127 C 356.10759,38.872391 359.18506,35.597778 362.30443,34.24588 C 396.0441,16.159027 434.88138,8.539383 472.98019,9.932755 C 494.28087,9.781204 515.53513,12.06134 536.5558,15.416855 C 538.86923,15.827118 541.10947,14.885254 543.32005,14.327866 C 567.34737,7.467514 592.08763,3.241348 616.96358,1.051361 C 620.27519,0.939285 623.59575,0.718781 626.84763,0 z "
         id="path2545" />
      <path
         style="opacity:1;fill:#666666;fill-rule:nonzero;stroke:none"
         d="M 626.84763,0 L 670.16815,0 C 673.0771,0.63002 676.04538,0.921692 679.02571,1.038727 C 720.51619,4.609467 761.63882,16.206848 797.73315,37.234787 C 828.38036,54.996536 855.33043,79.12886 876.41092,107.58459 C 887.76613,124.25961 892.62395,144.41118 894.73494,164.2276 C 895.6167,176.88052 896.72697,189.60188 895.45793,202.27618 C 893.84666,238.87915 886.67403,275.02258 877.51723,310.42937 C 856.9428,387.14276 825.56595,460.87021 785.52371,529.42403 C 784.86433,530.60184 784.23819,531.79773 783.6416,533.01173 C 794.8591,532.29761 806.05911,531.11078 817.12946,529.11224 C 826.09875,527.69096 834.90526,525.10956 844.02164,524.71446 C 859.46684,523.14905 876.44119,526.97128 887.39981,538.59685 C 894.17362,544.9736 897.97409,553.78003 900,562.72243 L 900,577.28703 C 898.42602,582.9897 896.87086,588.77563 893.93263,593.96135 C 886.03256,608.502 873.27325,619.53625 860.06215,629.13098 C 840.67874,642.67822 819.22864,653.63097 796.13394,659.15878 C 774.84409,664.30513 752.93692,667.55704 730.99831,666.99898 C 725.05037,666.95579 719.08429,667.26756 713.16356,666.6134 C 711.59387,675.97848 711.04967,685.50996 711.02574,695.00207 C 711.20814,701.71634 709.9039,708.35658 709.99625,715.0743 C 707.61751,746.96332 703.88994,779.0014 694.85547,809.78108 C 687.838,833.93094 677.09612,857.43031 660.50473,876.55145 C 644.05003,895.73303 621.55476,909.03066 597.60303,916.61084 C 581.13931,921.83707 564.18553,925.39766 547.12643,928 L 521.80115,928 C 509.85899,926.09261 497.8818,923.46831 487.04102,917.91411 C 473.86661,911.20816 462.13789,901.55778 453.46399,889.55014 C 442.84853,875.3598 436.33173,858.65381 431.11928,841.85555 C 420.3297,813.00256 418.41673,781.88471 416.46195,751.44579 C 415.99971,747.63832 415.9449,743.80408 415.96445,739.9823 C 415.99509,733.3029 414.87282,726.68196 414.97931,720.00465 C 415.09709,710.68259 414.89517,701.35216 413.98657,692.07259 C 394.72368,700.04831 373.87479,704.41177 353.00178,704.01694 C 338.21529,704.38927 323.4782,702.15541 309.07459,698.96433 C 289.64853,694.66248 270.5881,685.85997 257.10738,670.8709 C 244.40453,681.16065 229.32492,689.02466 212.93308,691.00688 C 193.62279,693.78088 173.66489,688.21944 157.53244,677.5204 C 142.91771,668.09669 131.0018,655.13701 120.71733,641.24335 C 98.119995,610.21744 82.57074,574.7778 68.741364,539.16768 C 49.387772,487.96922 34.567307,435.15968 22.050293,381.91119 C 16.879898,359.68079 12.195923,337.33606 8.104385,314.88219 C 5.036423,297.71062 2.148041,280.4729 0.665024,263.08342 C 0.479507,261.75316 0.257828,260.4321 0,259.12022 L 0,212.83872 C 0.262817,211.53943 0.486877,210.2363 0.672165,208.92935 C 3.102203,173.17506 11.047531,137.14504 28.643234,105.63773 C 39.774506,85.414139 54.798798,67.231888 73.14505,53.15361 C 103.05124,29.710968 140.44253,17.47879 177.95334,13.796463 C 185.58153,12.72583 193.30249,12.944138 200.96343,12.222549 C 252.47058,11.414413 303.65007,21.552994 352.48149,37.477127 C 356.10759,38.872391 359.18506,35.597778 362.30443,34.24588 C 396.0441,16.159027 434.88138,8.539383 472.98019,9.932755 C 494.28087,9.781204 515.53513,12.06134 536.5558,15.416855 C 538.86923,15.827118 541.10947,14.885254 543.32005,14.327866 C 567.34737,7.467514 592.08763,3.241348 616.96358,1.051361 C 620.27519,0.939285 623.59575,0.718781 626.84763,0 z "
         id="path2547" />
      <path
         style="opacity:1;fill:none;stroke:#ffffff;stroke-width:0.1;stroke-linecap:butt;stroke-linejoin:miter;stroke-miterlimit:10"
         d="M 670.16815,0 L 900,0 L 900,562.72243 C 897.97409,553.78003 894.17362,544.9736 887.39981,538.59685 C 876.44119,526.97128 859.46684,523.14905 844.02164,524.71446 C 834.90526,525.10956 826.09875,527.69096 817.12946,529.11224 C 806.05911,531.11078 794.8591,532.29761 783.6416,533.01173 C 784.23819,531.79773 784.86433,530.60184 785.52371,529.42403 C 825.56595,460.87021 856.9428,387.14276 877.51723,310.42937 C 886.67403,275.02258 893.84666,238.87915 895.45793,202.27618 C 896.72697,189.60188 895.6167,176.88052 894.73494,164.2276 C 892.62395,144.41118 887.76613,124.25961 876.41092,107.58459 C 855.33043,79.12886 828.38036,54.996536 797.73315,37.234787 C 761.63882,16.206848 720.51619,4.609467 679.02571,1.038727 C 676.04538,0.921692 673.0771,0.63002 670.16815,0 z "
         id="path2549" />
      <path
         style="opacity:1;fill:#ffffff;fill-rule:nonzero;stroke:none"
         d="M 670.16815,0 L 900,0 L 900,562.72243 C 897.97409,553.78003 894.17362,544.9736 887.39981,538.59685 C 876.44119,526.97128 859.46684,523.14905 844.02164,524.71446 C 834.90526,525.10956 826.09875,527.69096 817.12946,529.11224 C 806.05911,531.11078 794.8591,532.29761 783.6416,533.01173 C 784.23819,531.79773 784.86433,530.60184 785.52371,529.42403 C 825.56595,460.87021 856.9428,387.14276 877.51723,310.42937 C 886.67403,275.02258 893.84666,238.87915 895.45793,202.27618 C 896.72697,189.60188 895.6167,176.88052 894.73494,164.2276 C 892.62395,144.41118 887.76613,124.25961 876.41092,107.58459 C 855.33043,79.12886 828.38036,54.996536 797.73315,37.234787 C 761.63882,16.206848 720.51619,4.609467 679.02571,1.038727 C 676.04538,0.921692 673.0771,0.63002 670.16815,0 z "
         id="path2551" />
      <path
         style="opacity:1;fill:none;stroke:#ffffff;stroke-width:0.1;stroke-linecap:butt;stroke-linejoin:miter;stroke-miterlimit:10"
         d="M 624.65529,25.642929 C 635.38266,24.382294 646.22305,25.264282 657.00157,25.000122 C 663.01793,24.732224 668.98891,25.474167 674.96944,25.999481 C 717.90172,29.352036 760.5071,42.460602 796.40805,66.574921 C 813.26369,77.993286 828.91521,91.339233 842.21217,106.78713 C 849.20851,114.68733 856.30235,122.88544 860.14819,132.86539 C 867.2813,149.96762 868.28535,168.71388 868.97852,186.98886 C 869.15971,194.37392 867.95224,201.69495 867.9446,209.07219 C 864.40324,252.13762 854.485,294.46683 841.63167,335.6525 C 819.06311,406.9138 787.46339,475.35661 747.5323,538.55888 C 745.26633,542.38423 742.43994,545.88246 740.56998,549.93501 C 749.46675,556.01012 760.5094,556.9816 770.92873,557.95877 C 791.09178,558.67572 811.16789,555.76674 830.92152,551.94875 C 839.4249,550.25749 848.24435,548.32188 856.89094,550.16055 C 861.93304,551.17506 867.01953,553.63751 869.9442,558.03314 C 874.49927,564.45801 873.78636,573.40242 870.0428,580.04021 C 864.3179,590.58847 854.80029,598.28087 845.38652,605.40076 C 830.16435,616.17293 813.53422,625.31038 795.54091,630.48219 C 774.58176,636.56236 752.76181,639.21925 731.00325,639.75406 C 718.54556,639.63527 705.98164,638.75076 693.94151,635.33777 C 693.76312,635.78481 693.40634,636.67888 693.22795,637.12592 C 689.02779,676.73694 683.94838,716.26681 678.60677,755.74902 C 674.61324,781.79155 672.24855,808.53708 662.1684,833.14543 C 656.78326,846.33563 648.87674,858.61473 638.38321,868.31964 C 624.5766,881.35258 606.92584,889.50821 588.91843,894.94714 C 568.90663,900.78809 547.93088,905.49689 526.99469,902.96581 C 508.82886,901.22884 490.89987,894.00722 477.59155,881.3401 C 464.98148,869.87982 456.26582,854.84642 449.81664,839.23053 C 442.42535,822.81447 441.41698,804.56778 439.26741,786.95374 C 439.06671,780.25389 437.81485,773.64064 437.93718,766.92899 C 436.66045,757.00594 437.18889,746.98549 436.07719,737.04709 C 436.31589,721.34625 434.80924,705.69936 434.99586,690.00053 C 434.99246,675.23256 435.01857,660.46565 434.99374,645.69983 C 421.81348,657.33231 406.30521,666.49048 389.34016,671.31177 C 371.58781,676.63571 352.77399,677.3506 334.44601,675.4736 C 315.50205,673.05019 295.59729,669.0298 280.51395,656.4993 C 274.9823,651.62784 270.48434,644.6037 271.00096,636.96471 C 271.09078,628.73065 277.01854,621.86289 283.78893,617.83699 C 295.7984,610.55589 309.98334,608.64076 323.43848,605.54387 C 332.76999,603.27818 342.2713,601.16908 350.93698,596.90018 C 359.99886,592.24939 365.32187,583.2068 371.67648,575.65906 C 373.51154,573.09055 376.08235,571.03534 377.33105,568.07814 C 375.21216,567.73964 373.09789,567.40906 370.96942,567.20468 C 354.97934,566.28279 339.4619,561.2442 325.26042,553.99008 C 302.01228,578.5807 279.6653,604.01343 257.86259,629.89963 C 252.03865,636.99976 246.11911,644.14072 238.80203,649.77606 C 227.73326,658.93614 213.48766,664.96165 198.93462,663.9722 C 182.65962,662.75888 167.8936,653.79131 156.74542,642.25281 C 144.50864,630.47523 135.01021,616.2175 126.43446,601.65074 C 115.1019,582.13594 105.84361,561.49692 97.399261,540.5947 C 76.227707,487.4261 60.641525,432.20584 47.457077,376.57245 C 39.246994,341.00912 31.754349,305.213 27.131927,268.9888 C 25.867371,260.70627 26.102325,252.32721 25.323807,244.00185 C 24.940109,219.92541 26.371292,195.74802 31.190308,172.11112 C 36.350647,147.03592 45.675705,122.52231 60.642624,101.61513 C 76.570114,79.242111 99.223145,61.88475 124.67841,51.686752 C 146.63972,42.575027 170.36084,38.515106 193.97669,37.010742 C 203.99196,36.89798 213.99863,36.923309 224.01506,37.006332 C 269.18999,39.548645 313.82777,49.486023 356.39464,64.724487 C 359.02489,66.004654 361.20955,63.556091 363.34412,62.391983 C 393.69453,42.954163 430.21304,34.480865 466.00305,34.815292 C 489.26257,34.563721 512.51018,37.410583 535.11865,42.879166 C 564.03484,33.328644 594.26439,27.601349 624.65529,25.642929 z "
         id="path2553" />
      <path
         style="opacity:1;fill:#ffffff;fill-rule:nonzero;stroke:none"
         d="M 624.65529,25.642929 C 635.38266,24.382294 646.22305,25.264282 657.00157,25.000122 C 663.01793,24.732224 668.98891,25.474167 674.96944,25.999481 C 717.90172,29.352036 760.5071,42.460602 796.40805,66.574921 C 813.26369,77.993286 828.91521,91.339233 842.21217,106.78713 C 849.20851,114.68733 856.30235,122.88544 860.14819,132.86539 C 867.2813,149.96762 868.28535,168.71388 868.97852,186.98886 C 869.15971,194.37392 867.95224,201.69495 867.9446,209.07219 C 864.40324,252.13762 854.485,294.46683 841.63167,335.6525 C 819.06311,406.9138 787.46339,475.35661 747.5323,538.55888 C 745.26633,542.38423 742.43994,545.88246 740.56998,549.93501 C 749.46675,556.01012 760.5094,556.9816 770.92873,557.95877 C 791.09178,558.67572 811.16789,555.76674 830.92152,551.94875 C 839.4249,550.25749 848.24435,548.32188 856.89094,550.16055 C 861.93304,551.17506 867.01953,553.63751 869.9442,558.03314 C 874.49927,564.45801 873.78636,573.40242 870.0428,580.04021 C 864.3179,590.58847 854.80029,598.28087 845.38652,605.40076 C 830.16435,616.17293 813.53422,625.31038 795.54091,630.48219 C 774.58176,636.56236 752.76181,639.21925 731.00325,639.75406 C 718.54556,639.63527 705.98164,638.75076 693.94151,635.33777 C 693.76312,635.78481 693.40634,636.67888 693.22795,637.12592 C 689.02779,676.73694 683.94838,716.26681 678.60677,755.74902 C 674.61324,781.79155 672.24855,808.53708 662.1684,833.14543 C 656.78326,846.33563 648.87674,858.61473 638.38321,868.31964 C 624.5766,881.35258 606.92584,889.50821 588.91843,894.94714 C 568.90663,900.78809 547.93088,905.49689 526.99469,902.96581 C 508.82886,901.22884 490.89987,894.00722 477.59155,881.3401 C 464.98148,869.87982 456.26582,854.84642 449.81664,839.23053 C 442.42535,822.81447 441.41698,804.56778 439.26741,786.95374 C 439.06671,780.25389 437.81485,773.64064 437.93718,766.92899 C 436.66045,757.00594 437.18889,746.98549 436.07719,737.04709 C 436.31589,721.34625 434.80924,705.69936 434.99586,690.00053 C 434.99246,675.23256 435.01857,660.46565 434.99374,645.69983 C 421.81348,657.33231 406.30521,666.49048 389.34016,671.31177 C 371.58781,676.63571 352.77399,677.3506 334.44601,675.4736 C 315.50205,673.05019 295.59729,669.0298 280.51395,656.4993 C 274.9823,651.62784 270.48434,644.6037 271.00096,636.96471 C 271.09078,628.73065 277.01854,621.86289 283.78893,617.83699 C 295.7984,610.55589 309.98334,608.64076 323.43848,605.54387 C 332.76999,603.27818 342.2713,601.16908 350.93698,596.90018 C 359.99886,592.24939 365.32187,583.2068 371.67648,575.65906 C 373.51154,573.09055 376.08235,571.03534 377.33105,568.07814 C 375.21216,567.73964 373.09789,567.40906 370.96942,567.20468 C 354.97934,566.28279 339.4619,561.2442 325.26042,553.99008 C 302.01228,578.5807 279.6653,604.01343 257.86259,629.89963 C 252.03865,636.99976 246.11911,644.14072 238.80203,649.77606 C 227.73326,658.93614 213.48766,664.96165 198.93462,663.9722 C 182.65962,662.75888 167.8936,653.79131 156.74542,642.25281 C 144.50864,630.47523 135.01021,616.2175 126.43446,601.65074 C 115.1019,582.13594 105.84361,561.49692 97.399261,540.5947 C 76.227707,487.4261 60.641525,432.20584 47.457077,376.57245 C 39.246994,341.00912 31.754349,305.213 27.131927,268.9888 C 25.867371,260.70627 26.102325,252.32721 25.323807,244.00185 C 24.940109,219.92541 26.371292,195.74802 31.190308,172.11112 C 36.350647,147.03592 45.675705,122.52231 60.642624,101.61513 C 76.570114,79.242111 99.223145,61.88475 124.67841,51.686752 C 146.63972,42.575027 170.36084,38.515106 193.97669,37.010742 C 203.99196,36.89798 213.99863,36.923309 224.01506,37.006332 C 269.18999,39.548645 313.82777,49.486023 356.39464,64.724487 C 359.02489,66.004654 361.20955,63.556091 363.34412,62.391983 C 393.69453,42.954163 430.21304,34.480865 466.00305,34.815292 C 489.26257,34.563721 512.51018,37.410583 535.11865,42.879166 C 564.03484,33.328644 594.26439,27.601349 624.65529,25.642929 z "
         id="path2555" />
      <path
         style="opacity:1;fill:none;stroke:#30668f;stroke-width:0.1;stroke-linecap:butt;stroke-linejoin:miter;stroke-miterlimit:10"
         d="M 580.21228,57.779785 C 597.21271,53.985931 614.60326,52.074448 631.97899,51.049469 C 649.04956,50.700607 666.19524,50.504959 683.15602,52.803497 C 721.9316,57.361542 760.01448,71.061874 791.26799,94.746429 C 806.20078,105.96341 819.54254,119.25146 831.11105,133.90152 C 836.24924,140.4252 838.56703,148.60771 840.23289,156.60883 C 844.53514,178.4749 843.02095,200.93329 840.56131,222.92313 C 834.85095,269.09056 822.35469,314.16953 806.81517,357.92926 C 785.68791,416.34186 758.67677,472.74211 725.25577,525.13325 C 723.82439,523.42076 722.43871,521.68166 721.1057,519.90717 C 731.49672,502.21947 738.30208,482.43457 740.37299,461.99412 C 744.38341,428.18057 736.42482,394.65474 734.52255,361.00449 C 733.18962,335.77255 739.22667,311.01471 741.93846,286.07877 C 742.98984,277.0714 742.99808,268.01263 743.12241,258.96252 C 744.10991,249.40123 740.76462,240.19623 737.80457,231.27805 C 725.90385,198.496 707.93076,168.06142 686.15916,140.88292 C 660.87494,109.56212 629.50311,82.913727 593.60173,64.531281 C 589.16893,62.21553 584.53278,60.301682 580.21228,57.779785 z "
         id="path2557" />
      <path
         style="opacity:1;fill:#30668f;fill-rule:nonzero;stroke:none"
         d="M 580.21228,57.779785 C 597.21271,53.985931 614.60326,52.074448 631.97899,51.049469 C 649.04956,50.700607 666.19524,50.504959 683.15602,52.803497 C 721.9316,57.361542 760.01448,71.061874 791.26799,94.746429 C 806.20078,105.96341 819.54254,119.25146 831.11105,133.90152 C 836.24924,140.4252 838.56703,148.60771 840.23289,156.60883 C 844.53514,178.4749 843.02095,200.93329 840.56131,222.92313 C 834.85095,269.09056 822.35469,314.16953 806.81517,357.92926 C 785.68791,416.34186 758.67677,472.74211 725.25577,525.13325 C 723.82439,523.42076 722.43871,521.68166 721.1057,519.90717 C 731.49672,502.21947 738.30208,482.43457 740.37299,461.99412 C 744.38341,428.18057 736.42482,394.65474 734.52255,361.00449 C 733.18962,335.77255 739.22667,311.01471 741.93846,286.07877 C 742.98984,277.0714 742.99808,268.01263 743.12241,258.96252 C 744.10991,249.40123 740.76462,240.19623 737.80457,231.27805 C 725.90385,198.496 707.93076,168.06142 686.15916,140.88292 C 660.87494,109.56212 629.50311,82.913727 593.60173,64.531281 C 589.16893,62.21553 584.53278,60.301682 580.21228,57.779785 z "
         id="path2559" />
      <path
         style="opacity:1;fill:none;stroke:#30668f;stroke-width:0.1;stroke-linecap:butt;stroke-linejoin:miter;stroke-miterlimit:10"
         d="M 378.54448,83.48822 C 400.51451,69.723999 426.21648,62.71521 451.96025,61.05455 C 497.11481,58.491058 543.20976,67.530182 583.3358,88.659119 C 617.20168,106.31485 646.34465,132.23486 669.71541,162.29524 C 688.23784,186.43434 703.63951,213.15745 713.86266,241.86859 C 691.11258,239.89667 667.36905,239.44794 645.70738,247.72855 C 630.55078,253.42935 617.26909,264.72665 610.51958,279.59197 C 602.9529,295.87653 602.65428,314.51085 605.12225,332.00189 C 608.65266,356.06316 617.05351,379.09316 626.6275,401.34132 C 634.94019,420.2188 644.37944,438.58127 654.22855,456.69836 C 660.7524,468.86127 668.08499,480.61111 673.86583,493.16077 C 680.40086,508.90079 689.93475,523.2048 700.7018,536.34995 C 703.37421,539.57648 705.94696,542.8875 708.39508,546.29562 C 703.33824,548.70128 697.74356,549.92525 693.03107,553.06949 C 681.82225,559.61246 674.57024,571.45966 671.87711,583.96341 C 669.53914,593.16301 670.14052,602.67355 669.86864,612.06093 C 666.15919,649.76448 661.44891,687.36435 656.63571,724.94206 C 653.83104,746.14006 651.03691,767.34637 647.5208,788.44183 C 644.73396,804.38684 640.87926,820.51889 632.56052,834.58099 C 626.76573,844.44273 618.3656,852.64914 608.55676,858.49748 C 594.79419,866.75725 579.19012,871.30405 563.62454,874.76007 C 548.16606,878.06731 531.7061,879.47241 516.42194,874.5761 C 504.11433,870.76028 493.3952,862.50922 486.05298,851.97813 C 479.25856,842.41878 474.18192,831.67328 470.49933,820.56737 C 465.8098,801.09679 464.82068,780.99069 463.31352,761.091 C 460.3127,706.46561 460.33696,651.69252 461.85605,597.02505 C 460.60857,583.04733 454.38243,569.45685 444.20509,559.73915 C 433.71446,550.40625 419.00667,544.84518 404.96147,547.77043 C 407.81432,536.2904 412.013,525.20203 416.14798,514.13763 C 422.67546,495.85538 432.22153,478.80319 438.30318,460.34547 C 445.99661,438.41978 449.47319,415.18732 449.97113,392.00844 C 450.33838,368.27725 447.7778,344.57867 443.67322,321.229 C 440.57892,304.81149 438.12933,287.56761 428.52614,273.42882 C 418.91884,258.43955 402.34056,248.83476 384.90807,246.19162 C 360.79575,242.37541 336.31392,248.23553 313.83195,256.79372 C 304.92061,260.14293 296.40866,264.42046 287.99774,268.85262 C 291.7693,226.79025 301.13562,184.54597 321.10097,147.03702 C 334.59199,121.58208 353.80775,98.6315 378.54448,83.48822 z "
         id="path2561" />
      <path
         style="opacity:1;fill:#30668f;fill-rule:nonzero;stroke:none"
         d="M 378.54448,83.48822 C 400.51451,69.723999 426.21648,62.71521 451.96025,61.05455 C 497.11481,58.491058 543.20976,67.530182 583.3358,88.659119 C 617.20168,106.31485 646.34465,132.23486 669.71541,162.29524 C 688.23784,186.43434 703.63951,213.15745 713.86266,241.86859 C 691.11258,239.89667 667.36905,239.44794 645.70738,247.72855 C 630.55078,253.42935 617.26909,264.72665 610.51958,279.59197 C 602.9529,295.87653 602.65428,314.51085 605.12225,332.00189 C 608.65266,356.06316 617.05351,379.09316 626.6275,401.34132 C 634.94019,420.2188 644.37944,438.58127 654.22855,456.69836 C 660.7524,468.86127 668.08499,480.61111 673.86583,493.16077 C 680.40086,508.90079 689.93475,523.2048 700.7018,536.34995 C 703.37421,539.57648 705.94696,542.8875 708.39508,546.29562 C 703.33824,548.70128 697.74356,549.92525 693.03107,553.06949 C 681.82225,559.61246 674.57024,571.45966 671.87711,583.96341 C 669.53914,593.16301 670.14052,602.67355 669.86864,612.06093 C 666.15919,649.76448 661.44891,687.36435 656.63571,724.94206 C 653.83104,746.14006 651.03691,767.34637 647.5208,788.44183 C 644.73396,804.38684 640.87926,820.51889 632.56052,834.58099 C 626.76573,844.44273 618.3656,852.64914 608.55676,858.49748 C 594.79419,866.75725 579.19012,871.30405 563.62454,874.76007 C 548.16606,878.06731 531.7061,879.47241 516.42194,874.5761 C 504.11433,870.76028 493.3952,862.50922 486.05298,851.97813 C 479.25856,842.41878 474.18192,831.67328 470.49933,820.56737 C 465.8098,801.09679 464.82068,780.99069 463.31352,761.091 C 460.3127,706.46561 460.33696,651.69252 461.85605,597.02505 C 460.60857,583.04733 454.38243,569.45685 444.20509,559.73915 C 433.71446,550.40625 419.00667,544.84518 404.96147,547.77043 C 407.81432,536.2904 412.013,525.20203 416.14798,514.13763 C 422.67546,495.85538 432.22153,478.80319 438.30318,460.34547 C 445.99661,438.41978 449.47319,415.18732 449.97113,392.00844 C 450.33838,368.27725 447.7778,344.57867 443.67322,321.229 C 440.57892,304.81149 438.12933,287.56761 428.52614,273.42882 C 418.91884,258.43955 402.34056,248.83476 384.90807,246.19162 C 360.79575,242.37541 336.31392,248.23553 313.83195,256.79372 C 304.92061,260.14293 296.40866,264.42046 287.99774,268.85262 C 291.7693,226.79025 301.13562,184.54597 321.10097,147.03702 C 334.59199,121.58208 353.80775,98.6315 378.54448,83.48822 z "
         id="path2563" />
      <path
         style="opacity:1;fill:none;stroke:#30668f;stroke-width:0.1;stroke-linecap:butt;stroke-linejoin:miter;stroke-miterlimit:10"
         d="M 186.47736,63.595337 C 229.85181,59.868286 273.424,67.215591 315.15897,78.74144 C 321.64627,80.640564 328.21697,82.314728 334.54134,84.728333 C 323.39331,96.382904 313.12772,108.95276 304.81668,122.80508 C 284.48717,156.08453 272.81073,193.96568 266.32317,232.2274 C 262.31247,256.90616 259.98431,281.97321 261.17873,306.98389 C 263.81972,343.29695 263.89551,379.92519 258.888,416.04823 C 254.91817,443.90742 258.86092,473.12946 271.73148,498.29193 C 279.30809,513.87878 290.30992,527.63231 303.25319,539.10092 C 300.36113,542.88216 296.96239,546.22682 293.71506,549.69664 C 272.99715,572.36691 252.71495,595.44119 233.08513,619.0645 C 226.14052,626.94943 218.10768,634.8257 207.62312,637.51582 C 198.91786,639.6964 190.06027,635.98184 183.12433,630.87767 C 169.41275,620.76737 159.69946,606.39087 150.89682,592.0482 C 130.38535,557.17285 116.00792,519.12074 103.2943,480.83375 C 86.334869,428.8183 72.843628,375.69458 62.169525,322.04587 C 58.188187,301.51195 54.380493,280.90865 52.158432,260.09956 C 50.208084,232.2814 51.094849,204.10094 56.681946,176.72342 C 62.623795,147.86992 75.207947,119.41362 97.222519,99.229858 C 121.25056,76.693039 154.21448,66.382294 186.47736,63.595337 z "
         id="path2565" />
      <path
         style="opacity:1;fill:#30668f;fill-rule:nonzero;stroke:none"
         d="M 186.47736,63.595337 C 229.85181,59.868286 273.424,67.215591 315.15897,78.74144 C 321.64627,80.640564 328.21697,82.314728 334.54134,84.728333 C 323.39331,96.382904 313.12772,108.95276 304.81668,122.80508 C 284.48717,156.08453 272.81073,193.96568 266.32317,232.2274 C 262.31247,256.90616 259.98431,281.97321 261.17873,306.98389 C 263.81972,343.29695 263.89551,379.92519 258.888,416.04823 C 254.91817,443.90742 258.86092,473.12946 271.73148,498.29193 C 279.30809,513.87878 290.30992,527.63231 303.25319,539.10092 C 300.36113,542.88216 296.96239,546.22682 293.71506,549.69664 C 272.99715,572.36691 252.71495,595.44119 233.08513,619.0645 C 226.14052,626.94943 218.10768,634.8257 207.62312,637.51582 C 198.91786,639.6964 190.06027,635.98184 183.12433,630.87767 C 169.41275,620.76737 159.69946,606.39087 150.89682,592.0482 C 130.38535,557.17285 116.00792,519.12074 103.2943,480.83375 C 86.334869,428.8183 72.843628,375.69458 62.169525,322.04587 C 58.188187,301.51195 54.380493,280.90865 52.158432,260.09956 C 50.208084,232.2814 51.094849,204.10094 56.681946,176.72342 C 62.623795,147.86992 75.207947,119.41362 97.222519,99.229858 C 121.25056,76.693039 154.21448,66.382294 186.47736,63.595337 z "
         id="path2567" />
      <path
         style="opacity:1;fill:none;stroke:#ffffff;stroke-width:0.1;stroke-linecap:butt;stroke-linejoin:miter;stroke-miterlimit:10"
         d="M 0,259.12022 C 0.257828,260.4321 0.479507,261.75316 0.665024,263.08342 C 2.148041,280.4729 5.036423,297.71062 8.104385,314.88219 C 12.195923,337.33606 16.879898,359.68079 22.050293,381.91119 C 34.567307,435.15968 49.387772,487.96922 68.741364,539.16768 C 82.57074,574.7778 98.119995,610.21744 120.71733,641.24335 C 131.0018,655.13701 142.91771,668.09669 157.53244,677.5204 C 173.66489,688.21944 193.62279,693.78088 212.93308,691.00688 C 229.32492,689.02466 244.40453,681.16065 257.10738,670.8709 C 270.5881,685.85997 289.64853,694.66248 309.07459,698.96433 C 323.4782,702.15541 338.21529,704.38927 353.00178,704.01694 C 373.87479,704.41177 394.72368,700.04831 413.98657,692.07259 C 414.89517,701.35216 415.09709,710.68259 414.97931,720.00465 C 414.87282,726.68196 415.99509,733.3029 415.96445,739.9823 C 415.9449,743.80408 415.99971,747.63832 416.46195,751.44579 C 418.41673,781.88471 420.3297,813.00256 431.11928,841.85555 C 436.33173,858.65381 442.84853,875.3598 453.46399,889.55014 C 462.13789,901.55778 473.86661,911.20816 487.04102,917.91411 C 497.8818,923.46831 509.85899,926.09261 521.80115,928 L 0,928 L 0,259.12022 z "
         id="path2569" />
      <path
         style="opacity:1;fill:#ffffff;fill-rule:nonzero;stroke:none"
         d="M 0,259.12022 C 0.257828,260.4321 0.479507,261.75316 0.665024,263.08342 C 2.148041,280.4729 5.036423,297.71062 8.104385,314.88219 C 12.195923,337.33606 16.879898,359.68079 22.050293,381.91119 C 34.567307,435.15968 49.387772,487.96922 68.741364,539.16768 C 82.57074,574.7778 98.119995,610.21744 120.71733,641.24335 C 131.0018,655.13701 142.91771,668.09669 157.53244,677.5204 C 173.66489,688.21944 193.62279,693.78088 212.93308,691.00688 C 229.32492,689.02466 244.40453,681.16065 257.10738,670.8709 C 270.5881,685.85997 289.64853,694.66248 309.07459,698.96433 C 323.4782,702.15541 338.21529,704.38927 353.00178,704.01694 C 373.87479,704.41177 394.72368,700.04831 413.98657,692.07259 C 414.89517,701.35216 415.09709,710.68259 414.97931,720.00465 C 414.87282,726.68196 415.99509,733.3029 415.96445,739.9823 C 415.9449,743.80408 415.99971,747.63832 416.46195,751.44579 C 418.41673,781.88471 420.3297,813.00256 431.11928,841.85555 C 436.33173,858.65381 442.84853,875.3598 453.46399,889.55014 C 462.13789,901.55778 473.86661,911.20816 487.04102,917.91411 C 497.8818,923.46831 509.85899,926.09261 521.80115,928 L 0,928 L 0,259.12022 z "
         id="path2571" />
      <path
         style="opacity:1;fill:none;stroke:#30668f;stroke-width:0.1;stroke-linecap:butt;stroke-linejoin:miter;stroke-miterlimit:10"
         d="M 641.97044,280.03233 C 651.79207,271.328 665.18675,268.39754 677.90247,267.18364 C 690.85863,266.42891 703.86192,266.90161 716.75372,268.3829 C 716.79474,289.7133 711.29038,310.55728 709.44525,331.74104 C 708.72995,341.45161 707.71233,351.21474 708.49518,360.95287 C 709.26219,386.44276 714.87581,411.53513 715.23991,437.04865 C 716.01022,456.88031 712.94473,477.06128 704.61679,495.19067 C 700.60425,491.17075 699.37659,485.21231 696.77988,480.2748 C 688.65675,463.71623 678.89746,448.02286 670.47456,431.61896 C 659.25104,410.44395 648.82604,388.76762 640.81392,366.15442 C 634.47583,347.79872 629.05144,328.5928 629.96907,308.98505 C 630.44641,298.38857 633.9079,287.31844 641.97044,280.03233 z "
         id="path2573" />
      <path
         style="opacity:1;fill:#30668f;fill-rule:nonzero;stroke:none"
         d="M 641.97044,280.03233 C 651.79207,271.328 665.18675,268.39754 677.90247,267.18364 C 690.85863,266.42891 703.86192,266.90161 716.75372,268.3829 C 716.79474,289.7133 711.29038,310.55728 709.44525,331.74104 C 708.72995,341.45161 707.71233,351.21474 708.49518,360.95287 C 709.26219,386.44276 714.87581,411.53513 715.23991,437.04865 C 716.01022,456.88031 712.94473,477.06128 704.61679,495.19067 C 700.60425,491.17075 699.37659,485.21231 696.77988,480.2748 C 688.65675,463.71623 678.89746,448.02286 670.47456,431.61896 C 659.25104,410.44395 648.82604,388.76762 640.81392,366.15442 C 634.47583,347.79872 629.05144,328.5928 629.96907,308.98505 C 630.44641,298.38857 633.9079,287.31844 641.97044,280.03233 z "
         id="path2575" />
      <path
         style="opacity:1;fill:none;stroke:#30668f;stroke-width:0.1;stroke-linecap:butt;stroke-linejoin:miter;stroke-miterlimit:10"
         d="M 352.74258,272.67889 C 366.33165,270.31093 381.09663,269.80882 393.74293,276.13536 C 404.51947,281.64958 411.03563,292.88019 413.62703,304.37761 C 418.86504,327.57144 422.48099,351.17529 423.66493,374.9386 C 424.77209,398.75565 422.60477,422.9135 415.58899,445.77091 C 409.96721,464.67361 400.3727,482.02537 393.39764,500.41 C 388.38606,514.08144 382.89809,527.64525 379.51482,541.84235 C 361.36764,541.96486 343.40843,535.82365 328.57371,525.48883 C 312.57172,514.39665 299.96851,498.58365 292.33238,480.70557 C 284.14703,461.85887 281.72205,440.74262 284.62599,420.45174 C 290.23326,380.91893 289.82243,340.81305 286.97932,301.07144 C 291.33785,297.25543 296.34831,294.28119 301.36981,291.43259 C 317.39764,282.63045 334.72649,275.9875 352.74258,272.67889 z "
         id="path2577" />
      <path
         style="opacity:1;fill:#30668f;fill-rule:nonzero;stroke:none"
         d="M 352.74258,272.67889 C 366.33165,270.31093 381.09663,269.80882 393.74293,276.13536 C 404.51947,281.64958 411.03563,292.88019 413.62703,304.37761 C 418.86504,327.57144 422.48099,351.17529 423.66493,374.9386 C 424.77209,398.75565 422.60477,422.9135 415.58899,445.77091 C 409.96721,464.67361 400.3727,482.02537 393.39764,500.41 C 388.38606,514.08144 382.89809,527.64525 379.51482,541.84235 C 361.36764,541.96486 343.40843,535.82365 328.57371,525.48883 C 312.57172,514.39665 299.96851,498.58365 292.33238,480.70557 C 284.14703,461.85887 281.72205,440.74262 284.62599,420.45174 C 290.23326,380.91893 289.82243,340.81305 286.97932,301.07144 C 291.33785,297.25543 296.34831,294.28119 301.36981,291.43259 C 317.39764,282.63045 334.72649,275.9875 352.74258,272.67889 z "
         id="path2579" />
      <path
         style="opacity:1;fill:none;stroke:#ffffff;stroke-width:0.1;stroke-linecap:butt;stroke-linejoin:miter;stroke-miterlimit:10"
         d="M 671.32202,279.23923 C 677.15828,278.6816 683.34711,278.73387 688.76561,281.25484 C 691.78365,282.63094 693.88095,286.17886 692.50276,289.43883 C 689.95605,296.28891 684.05519,301.635 677.42407,304.47894 C 669.13117,308.0184 659.20134,305.25075 652.97099,299.02274 C 651.07417,297.08186 649.10059,294.80252 648.96724,291.95969 C 648.67687,288.76875 651.41098,286.44331 653.73614,284.74144 C 658.98819,281.40742 665.22142,280.02501 671.32202,279.23923 z "
         id="path2581" />
      <path
         style="opacity:1;fill:#ffffff;fill-rule:nonzero;stroke:none"
         d="M 671.32202,279.23923 C 677.15828,278.6816 683.34711,278.73387 688.76561,281.25484 C 691.78365,282.63094 693.88095,286.17886 692.50276,289.43883 C 689.95605,296.28891 684.05519,301.635 677.42407,304.47894 C 669.13117,308.0184 659.20134,305.25075 652.97099,299.02274 C 651.07417,297.08186 649.10059,294.80252 648.96724,291.95969 C 648.67687,288.76875 651.41098,286.44331 653.73614,284.74144 C 658.98819,281.40742 665.22142,280.02501 671.32202,279.23923 z "
         id="path2583" />
      <path
         style="opacity:1;fill:none;stroke:#ffffff;stroke-width:0.1;stroke-linecap:butt;stroke-linejoin:miter;stroke-miterlimit:10"
         d="M 363.35214,286.43828 C 372.05167,284.57497 381.27762,285.42998 389.69148,288.2249 C 394.18811,289.93761 399.12698,292.09195 401.54361,296.52506 C 403.67175,300.63263 401.5412,305.48955 398.46207,308.46837 C 393.3231,314.115 385.63254,317.41234 377.98766,316.92647 C 369.73013,316.18756 362.26177,311.17892 357.47945,304.55058 C 355.30771,301.58514 353.57396,297.92944 354.06976,294.16879 C 354.9696,289.76993 359.356,287.44679 363.35214,286.43828 z "
         id="path2585" />
      <path
         style="opacity:1;fill:#ffffff;fill-rule:nonzero;stroke:none"
         d="M 363.35214,286.43828 C 372.05167,284.57497 381.27762,285.42998 389.69148,288.2249 C 394.18811,289.93761 399.12698,292.09195 401.54361,296.52506 C 403.67175,300.63263 401.5412,305.48955 398.46207,308.46837 C 393.3231,314.115 385.63254,317.41234 377.98766,316.92647 C 369.73013,316.18756 362.26177,311.17892 357.47945,304.55058 C 355.30771,301.58514 353.57396,297.92944 354.06976,294.16879 C 354.9696,289.76993 359.356,287.44679 363.35214,286.43828 z "
         id="path2587" />
      <path
         style="opacity:1;fill:none;stroke:#30668f;stroke-width:0.1;stroke-linecap:butt;stroke-linejoin:miter;stroke-miterlimit:10"
         d="M 700.87515,581.00581 C 705.54659,573.82286 714.46535,572.13562 722.12328,569.96892 C 723.49145,569.4157 724.6492,570.6909 725.78078,571.27406 C 738.49318,580.17413 754.35933,582.71449 769.52051,583.69499 C 792.92429,584.91934 816.1554,580.90401 839.12167,576.9429 C 829.90495,585.48035 819.07548,592.12756 807.94403,597.86275 C 794.03413,605.0871 778.57471,608.5959 763.20872,611.09515 C 748.69427,613.30037 733.95242,614.41946 719.28456,613.4445 C 711.38559,612.64403 702.9863,612.14856 696.03296,607.92323 C 695.79063,598.81906 695.99239,589.01494 700.87515,581.00581 z "
         id="path2589" />
      <path
         style="opacity:1;fill:#30668f;fill-rule:nonzero;stroke:none"
         d="M 700.87515,581.00581 C 705.54659,573.82286 714.46535,572.13562 722.12328,569.96892 C 723.49145,569.4157 724.6492,570.6909 725.78078,571.27406 C 738.49318,580.17413 754.35933,582.71449 769.52051,583.69499 C 792.92429,584.91934 816.1554,580.90401 839.12167,576.9429 C 829.90495,585.48035 819.07548,592.12756 807.94403,597.86275 C 794.03413,605.0871 778.57471,608.5959 763.20872,611.09515 C 748.69427,613.30037 733.95242,614.41946 719.28456,613.4445 C 711.38559,612.64403 702.9863,612.14856 696.03296,607.92323 C 695.79063,598.81906 695.99239,589.01494 700.87515,581.00581 z "
         id="path2591" />
      <path
         style="opacity:1;fill:none;stroke:#30668f;stroke-width:0.1;stroke-linecap:butt;stroke-linejoin:miter;stroke-miterlimit:10"
         d="M 398.2702,584.29149 C 402.32384,579.69395 406.48041,573.83266 413.01337,572.99953 C 424.48912,573.81512 432.91258,584.10669 435.08621,594.82362 C 436.15196,599.30718 435.84032,604.33334 433.29495,608.28543 C 423.0502,623.00458 409.16475,635.49364 392.57591,642.59497 C 373.61,650.87501 352.2187,652.23862 331.94293,649.01234 C 320.88383,647.10974 309.22611,645.16188 299.90701,638.47163 C 311.25952,633.7688 323.56987,632.40123 335.38742,629.32262 C 348.8885,625.9229 362.83221,621.86203 373.68935,612.73328 C 383.26863,604.52345 389.8736,593.59621 398.2702,584.29149 z "
         id="path2593" />
      <path
         style="opacity:1;fill:#30668f;fill-rule:nonzero;stroke:none"
         d="M 398.2702,584.29149 C 402.32384,579.69395 406.48041,573.83266 413.01337,572.99953 C 424.48912,573.81512 432.91258,584.10669 435.08621,594.82362 C 436.15196,599.30718 435.84032,604.33334 433.29495,608.28543 C 423.0502,623.00458 409.16475,635.49364 392.57591,642.59497 C 373.61,650.87501 352.2187,652.23862 331.94293,649.01234 C 320.88383,647.10974 309.22611,645.16188 299.90701,638.47163 C 311.25952,633.7688 323.56987,632.40123 335.38742,629.32262 C 348.8885,625.9229 362.83221,621.86203 373.68935,612.73328 C 383.26863,604.52345 389.8736,593.59621 398.2702,584.29149 z "
         id="path2595" />
      <path
         style="opacity:1;fill:none;stroke:#ffffff;stroke-width:0.1;stroke-linecap:butt;stroke-linejoin:miter;stroke-miterlimit:10"
         d="M 893.93263,593.96135 C 896.87086,588.77563 898.42602,582.9897 900,577.28703 L 900,928 L 547.12643,928 C 564.18553,925.39766 581.13931,921.83707 597.60303,916.61084 C 621.55476,909.03066 644.05003,895.73303 660.50473,876.55145 C 677.09612,857.43031 687.838,833.93094 694.85547,809.78108 C 703.88994,779.0014 707.61751,746.96332 709.99625,715.0743 C 709.9039,708.35658 711.20814,701.71634 711.02574,695.00207 C 711.04967,685.50996 711.59387,675.97848 713.16356,666.6134 C 719.08429,667.26756 725.05037,666.95579 730.99831,666.99898 C 752.93692,667.55704 774.84409,664.30513 796.13394,659.15878 C 819.22864,653.63097 840.67874,642.67822 860.06215,629.13098 C 873.27325,619.53625 886.03256,608.502 893.93263,593.96135 z "
         id="path2597" />
      <path
         style="opacity:1;fill:#ffffff;fill-rule:nonzero;stroke:none"
         d="M 893.93263,593.96135 C 896.87086,588.77563 898.42602,582.9897 900,577.28703 L 900,928 L 547.12643,928 C 564.18553,925.39766 581.13931,921.83707 597.60303,916.61084 C 621.55476,909.03066 644.05003,895.73303 660.50473,876.55145 C 677.09612,857.43031 687.838,833.93094 694.85547,809.78108 C 703.88994,779.0014 707.61751,746.96332 709.99625,715.0743 C 709.9039,708.35658 711.20814,701.71634 711.02574,695.00207 C 711.04967,685.50996 711.59387,675.97848 713.16356,666.6134 C 719.08429,667.26756 725.05037,666.95579 730.99831,666.99898 C 752.93692,667.55704 774.84409,664.30513 796.13394,659.15878 C 819.22864,653.63097 840.67874,642.67822 860.06215,629.13098 C 873.27325,619.53625 886.03256,608.502 893.93263,593.96135 z "
         id="path2599" />
    </g>
    <g
       id="g2722"
       transform="matrix(3.9951815,0,0,3.8830076,8.8111742,51.045734)">
      <flowRoot
         transform="translate(-4.3675136,-77.569411)"
         style="font-size:48px;font-style:normal;font-variant:normal;font-weight:normal;font-stretch:normal;text-align:start;line-height:100%;writing-mode:lr-tb;text-anchor:start;fill:#2048c8;font-family:Nimbus Sans L"
         id="flowRoot3257"
         xml:space="preserve"><flowRegion
           id="flowRegion3259"><rect
             style="font-size:48px;font-style:normal;font-variant:normal;font-weight:normal;font-stretch:normal;text-align:start;line-height:100%;writing-mode:lr-tb;text-anchor:start;fill:#2048c8;font-family:Nimbus Sans L"
             y="280.93362"
             x="40"
             height="64.238815"
             width="58.524521"
             id="rect3261" /></flowRegion><flowPara
           id="flowPara3263">1.</flowPara></flowRoot>      <flowRoot
         transform="matrix(1.1431315,0,0,1,-22.960398,-16.245047)"
         style="font-style:normal;font-variant:normal;font-weight:normal;font-stretch:normal;font-size:17.77074051px;line-height:120%;font-family:'Nimbus Sans L';text-align:start;writing-mode:lr-tb;text-anchor:start;"
         id="flowRoot3383"
         xml:space="preserve"><flowRegion
           id="flowRegion3385"><rect
             style="font-style:normal;font-variant:normal;font-weight:normal;font-stretch:normal;font-size:17.77074051px;line-height:120%;font-family:'Nimbus Sans L';text-align:start;writing-mode:lr-tb;text-anchor:start;"
             y="223.97787"
             x="100.25033"
             height="52.732033"
             width="552.26935"
             id="rect3387" /></flowRegion><flowPara
           id="flowPara3389"
           style="font-style:normal;font-variant:normal;font-weight:bold;font-stretch:normal;font-family:'Droid Sans';-inkscape-font-specification:'Droid Sans Bold';line-height:120%;"><flowSpan
             id="flowSpan4562"
             style="font-style:normal;font-variant:normal;font-weight:bold;font-stretch:normal;font-size:19px;line-height:120%;font-family:'Droid Sans';-inkscape-font-specification:'Droid Sans Bold';text-align:start;writing-mode:lr-tb;text-anchor:start;">L’intégrité de vos données</flowSpan><flowSpan
             id="flowSpan3391"
             style="font-style:normal;font-variant:normal;font-weight:bold;font-stretch:normal;font-size:17.77074051px;line-height:120%;font-family:'Droid Sans';-inkscape-font-specification:'Droid Sans Bold';text-align:start;writing-mode:lr-tb;text-anchor:start;">.</flowSpan><flowSpan
             style="font-style:normal;font-variant:normal;font-weight:normal;font-stretch:normal;font-family:'Droid Sans';-inkscape-font-specification:'Droid Sans';line-height:120%;"
             id="flowSpan3559"> PostgreSQL respecte les règles ACID et préserve l'intégrité référentielle.</flowSpan></flowPara></flowRoot>    </g>
    <g
       id="g2711"
       transform="matrix(3.9951815,0,0,3.8830076,8.8111742,52.828703)">
      <flowRoot
         transform="translate(-4.3675136,0.5966267)"
         style="font-size:48px;font-style:normal;font-variant:normal;font-weight:normal;font-stretch:normal;text-align:start;line-height:100%;writing-mode:lr-tb;text-anchor:start;fill:#2048c8;font-family:Nimbus Sans L"
         id="flowRoot3301"
         xml:space="preserve"><flowRegion
           id="flowRegion3303"><rect
             style="font-size:48px;font-style:normal;font-variant:normal;font-weight:normal;font-stretch:normal;text-align:start;line-height:100%;writing-mode:lr-tb;text-anchor:start;fill:#2048c8;font-family:Nimbus Sans L"
             y="280.93362"
             x="40"
             height="64.238815"
             width="58.524521"
             id="rect3305" /></flowRegion><flowPara
           id="flowPara3307">2.</flowPara></flowRoot>      <flowRoot
         transform="matrix(1.1431315,0,0,1,-22.960398,61.685666)"
         style="font-size:17.77074051px;font-style:normal;font-variant:normal;font-weight:normal;font-stretch:normal;text-align:start;line-height:100%;writing-mode:lr-tb;text-anchor:start;font-family:Nimbus Sans L"
         id="flowRoot2669"
         xml:space="preserve"><flowRegion
           id="flowRegion2671"><rect
             style="font-size:17.77074051px;font-style:normal;font-variant:normal;font-weight:normal;font-stretch:normal;text-align:start;line-height:100%;writing-mode:lr-tb;text-anchor:start;font-family:Nimbus Sans L"
             y="223.97787"
             x="100.25033"
             height="54.263138"
             width="562.9845"
             id="rect2673" /></flowRegion><flowPara
           id="flowPara2675"
           style="line-height:120%;-inkscape-font-specification:'Droid Sans Bold';font-family:'Droid Sans';font-weight:bold;font-style:normal;font-stretch:normal;font-variant:normal"><flowSpan
             id="flowSpan2566"
             style="font-size:19px;font-style:normal;font-variant:normal;font-weight:bold;font-stretch:normal;text-align:start;line-height:120%;writing-mode:lr-tb;text-anchor:start;font-family:'Droid Sans';-inkscape-font-specification:'Droid Sans Bold'">Une licence simple et non-ambigüe.</flowSpan><flowSpan
             style="-inkscape-font-specification:'Droid Sans';font-family:'Droid Sans';font-weight:normal;font-style:normal;font-stretch:normal;font-variant:normal"
             id="flowSpan3605"> Grâce à la licence BSD, il est possible d'utiliser, modifier et redistribuer librement PostgreSQL.</flowSpan></flowPara></flowRoot>    </g>
    <g
       id="g2896"
       transform="matrix(3.9951815,0,0,3.8830076,8.8111742,54.685464)">
      <flowRoot
         transform="translate(-4.3675136,232.45745)"
         style="font-size:48px;font-style:normal;font-variant:normal;font-weight:normal;font-stretch:normal;text-align:start;line-height:100%;writing-mode:lr-tb;text-anchor:start;fill:#2048c8;font-family:Nimbus Sans L"
         id="flowRoot3285"
         xml:space="preserve"><flowRegion
           id="flowRegion3287"><rect
             style="font-size:48px;font-style:normal;font-variant:normal;font-weight:normal;font-stretch:normal;text-align:start;line-height:100%;writing-mode:lr-tb;text-anchor:start;fill:#2048c8;font-family:Nimbus Sans L"
             y="280.93362"
             x="40"
             height="64.238815"
             width="58.524521"
             id="rect3289" /></flowRegion><flowPara
           id="flowPara3291">5.</flowPara></flowRoot>      <flowRoot
         transform="matrix(1.1431315,0,0,1,-22.960398,289.76458)"
         style="font-style:normal;font-variant:normal;font-weight:normal;font-stretch:normal;font-size:17.77074051px;line-height:100%;font-family:'Nimbus Sans L';text-align:start;writing-mode:lr-tb;text-anchor:start"
         id="flowRoot2679"
         xml:space="preserve"><flowRegion
           id="flowRegion2681"><rect
             style="font-style:normal;font-variant:normal;font-weight:normal;font-stretch:normal;font-size:17.77074051px;line-height:100%;font-family:'Nimbus Sans L';text-align:start;writing-mode:lr-tb;text-anchor:start"
             y="223.97787"
             x="100.25033"
             height="66.690636"
             width="550.48761"
             id="rect2683" /></flowRegion><flowPara
           id="flowPara2685"
           style="font-style:normal;font-variant:normal;font-weight:bold;font-stretch:normal;line-height:120.00000477%;font-family:'Droid Sans';-inkscape-font-specification:'Droid Sans Bold'"><flowSpan
             style="font-style:normal;font-variant:normal;font-weight:bold;font-stretch:normal;font-size:19px;line-height:120.00000477%;font-family:'Droid Sans';-inkscape-font-specification:'Droid Sans Bold';text-align:start;writing-mode:lr-tb;text-anchor:start"
             id="flowSpan2847">Un moteur performant.</flowSpan><flowSpan
             style="font-style:normal;font-variant:normal;font-weight:normal;font-stretch:normal;font-family:'Droid Sans';-inkscape-font-specification:'Droid Sans'"
             id="flowSpan3589"> De nombreuses études prouvent  que <flowSpan
   style="font-size:16.88024687px"
   id="flowSpan3826">PostgreSQL est capable de rivaliser avec les meilleurs SGBD du marché</flowSpan>.</flowSpan></flowPara></flowRoot>    </g>
    <g
       id="g2916"
       transform="matrix(3.9951815,0,0,3.8830076,8.8111742,50.194161)">
      <flowRoot
         transform="translate(-4.3675136,317.31431)"
         style="font-size:48px;font-style:normal;font-variant:normal;font-weight:normal;font-stretch:normal;text-align:start;line-height:100%;writing-mode:lr-tb;text-anchor:start;fill:#2048c8;font-family:Nimbus Sans L"
         id="flowRoot3277"
         xml:space="preserve"><flowRegion
           id="flowRegion3279"><rect
             style="font-size:48px;font-style:normal;font-variant:normal;font-weight:normal;font-stretch:normal;text-align:start;line-height:100%;writing-mode:lr-tb;text-anchor:start;fill:#2048c8;font-family:Nimbus Sans L"
             y="280.93362"
             x="40"
             height="64.238815"
             width="58.524521"
             id="rect3281" /></flowRegion><flowPara
           id="flowPara3283">6.</flowPara></flowRoot>      <flowRoot
         transform="matrix(1.1431315,0,0,1,-22.960398,370.47017)"
         style="font-style:normal;font-variant:normal;font-weight:normal;font-stretch:normal;font-size:17.77074051px;line-height:100%;font-family:'Nimbus Sans L';text-align:start;writing-mode:lr-tb;text-anchor:start"
         id="flowRoot2689"
         xml:space="preserve"><flowRegion
           id="flowRegion2691"><rect
             style="font-style:normal;font-variant:normal;font-weight:normal;font-stretch:normal;font-size:17.77074051px;line-height:100%;font-family:'Nimbus Sans L';text-align:start;writing-mode:lr-tb;text-anchor:start"
             y="223.97787"
             x="100.25033"
             height="69.202789"
             width="554.48114"
             id="rect2693" /></flowRegion><flowPara
           id="flowPara4564"
           style="font-style:normal;font-variant:normal;font-weight:bold;font-stretch:normal;line-height:120.00000477%;font-family:'Droid Sans';-inkscape-font-specification:'Droid Sans Bold'">Un SGBD prêt pour le Big Data. <flowSpan
   style="font-style:normal;font-variant:normal;font-weight:normal;font-stretch:normal;font-family:'Droid Sans';-inkscape-font-specification:'Droid Sans'"
   id="flowSpan3577">PostgreSQL peut stocker des dizaines de Tera-octets sans problèmes grace à ses fonctionnalités avancées : index BRIN, partitions, opérateurs OLAP, etc.</flowSpan></flowPara></flowRoot>    </g>
    <g
       id="g2980"
       transform="matrix(3.9951815,0,0,3.8830076,8.8111742,34.747431)">
      <flowRoot
         transform="translate(-4.3675136,398.54467)"
         style="font-size:48px;font-style:normal;font-variant:normal;font-weight:normal;font-stretch:normal;text-align:start;line-height:100%;writing-mode:lr-tb;text-anchor:start;fill:#2048c8;font-family:Nimbus Sans L"
         id="flowRoot3333"
         xml:space="preserve"><flowRegion
           id="flowRegion3335"><rect
             style="font-size:48px;font-style:normal;font-variant:normal;font-weight:normal;font-stretch:normal;text-align:start;line-height:100%;writing-mode:lr-tb;text-anchor:start;fill:#2048c8;font-family:Nimbus Sans L"
             y="280.93362"
             x="40"
             height="64.238815"
             width="58.524521"
             id="rect3337" /></flowRegion><flowPara
           id="flowPara3339">7.</flowPara></flowRoot>      <flowRoot
         transform="matrix(1.1431315,0,0,1,-22.960398,436.27034)"
         style="font-style:normal;font-variant:normal;font-weight:normal;font-stretch:normal;font-size:17.77074051px;line-height:120.00000477%;font-family:'Nimbus Sans L';text-align:start;writing-mode:lr-tb;text-anchor:start"
         id="flowRoot2699"
         xml:space="preserve"><flowRegion
           id="flowRegion2701"><rect
             style="font-style:normal;font-variant:normal;font-weight:normal;font-stretch:normal;font-size:17.77074051px;line-height:120.00000477%;font-family:'Nimbus Sans L';text-align:start;writing-mode:lr-tb;text-anchor:start"
             y="223.97787"
             x="100.25033"
             height="95.900749"
             width="550.92999"
             id="rect2703" /></flowRegion><flowPara
           id="flowPara2705" /><flowPara
           id="flowPara2618"
           style="-inkscape-font-specification:'Droid Sans';font-family:'Droid Sans';font-weight:normal;font-style:normal;font-stretch:normal;font-variant:normal"><flowSpan
   style="font-style:normal;font-variant:normal;font-weight:normal;font-stretch:normal;font-size:19px;line-height:120.00000477%;font-family:'Droid Sans';text-align:start;writing-mode:lr-tb;text-anchor:start;-inkscape-font-specification:'Droid Sans'"
   id="flowSpan2851"><flowSpan
   style="-inkscape-font-specification:'Droid Sans Bold';font-family:'Droid Sans';font-weight:bold;font-style:normal;font-stretch:normal;font-variant:normal"
   id="flowSpan3575">La réplication simple et efficace.</flowSpan> Le Hot Standby permet de créer</flowSpan> des serveurs secondaires synchrones accessibles en lecture pour garantir la haute-disponibilité des données.</flowPara></flowRoot>    </g>
    <g
       id="g4551"
       transform="matrix(3.9951815,0,0,3.9951815,8.8111742,28.214391)">
      <flowRoot
         transform="matrix(1,0,0,0.9719227,-4.3675136,467.04325)"
         style="font-size:48px;font-style:normal;font-variant:normal;font-weight:normal;font-stretch:normal;text-align:start;line-height:100%;writing-mode:lr-tb;text-anchor:start;fill:#2048c8;font-family:Nimbus Sans L"
         id="flowRoot3309"
         xml:space="preserve"><flowRegion
           id="flowRegion3311"><rect
             style="font-size:48px;font-style:normal;font-variant:normal;font-weight:normal;font-stretch:normal;text-align:start;line-height:100%;writing-mode:lr-tb;text-anchor:start;fill:#2048c8;font-family:Nimbus Sans L"
             y="280.93362"
             x="40"
             height="64.238815"
             width="58.524521"
             id="rect3313" /></flowRegion><flowPara
           id="flowPara3315">8.</flowPara></flowRoot>      <flowRoot
         transform="matrix(1.1431315,0,0,0.9719227,-22.960398,527.77451)"
         style="font-style:normal;font-variant:normal;font-weight:normal;font-stretch:normal;font-size:17.77074051px;line-height:120%;font-family:'Nimbus Sans L';text-align:start;writing-mode:lr-tb;text-anchor:start;"
         id="flowRoot2709"
         xml:space="preserve"><flowRegion
           id="flowRegion2711"><rect
             style="font-style:normal;font-variant:normal;font-weight:normal;font-stretch:normal;font-size:17.77074051px;line-height:120%;font-family:'Nimbus Sans L';text-align:start;writing-mode:lr-tb;text-anchor:start;"
             y="223.97787"
             x="100.25033"
             height="57.325348"
             width="553.6087"
             id="rect2713" /></flowRegion><flowPara
           id="flowPara2857"
           style="font-style:normal;font-variant:normal;font-weight:bold;font-stretch:normal;font-family:'Droid Sans';-inkscape-font-specification:'Droid Sans Bold';line-height:120%"><flowSpan
             style="font-style:normal;font-variant:normal;font-weight:bold;font-stretch:normal;font-size:19px;line-height:120%;font-family:'Droid Sans';-inkscape-font-specification:'Droid Sans Bold';text-align:start;writing-mode:lr-tb;text-anchor:start"
             id="flowSpan2853">Des outils pour le NoSQL : </flowSpan><flowSpan
             style="font-style:normal;font-variant:normal;font-weight:normal;font-stretch:normal;font-family:'Droid Sans';-inkscape-font-specification:'Droid Sans';line-height:120%"
             id="flowSpan3571">stockage clé-valeur avec hstore, format JSONB, procédures stockées en javascript (PL/V8), opérateurs JSON.</flowSpan></flowPara></flowRoot>    </g>
    <g
       id="g2634"
       transform="matrix(3.9951815,0,0,3.8830076,8.8111742,2.5365597)">
      <g
         id="g2755">
        <flowRoot
           xml:space="preserve"
           id="flowRoot3325"
           style="font-size:48px;font-style:normal;font-variant:normal;font-weight:normal;font-stretch:normal;text-align:start;line-height:100%;writing-mode:lr-tb;text-anchor:start;fill:#2048c8;font-family:Nimbus Sans L"
           transform="translate(-4.3675136,566.71144)"><flowRegion
             id="flowRegion3327"><rect
               id="rect3329"
               width="58.524521"
               height="64.238815"
               x="40"
               y="280.93362"
               style="font-size:48px;font-style:normal;font-variant:normal;font-weight:normal;font-stretch:normal;text-align:start;line-height:100%;writing-mode:lr-tb;text-anchor:start;fill:#2048c8;font-family:Nimbus Sans L" /></flowRegion><flowPara
             id="flowPara3331">9.</flowPara></flowRoot>        <flowRoot
           xml:space="preserve"
           id="flowRoot2719"
           style="font-style:normal;font-variant:normal;font-weight:normal;font-stretch:normal;font-size:17.77074051px;line-height:100%;font-family:'Nimbus Sans L';text-align:start;writing-mode:lr-tb;text-anchor:start"
           transform="matrix(1.1431315,0,0,1,-22.960398,602.03809)"><flowRegion
             id="flowRegion2721"><rect
               id="rect2723"
               width="554.77173"
               height="83.473114"
               x="100.25033"
               y="223.97787"
               style="font-style:normal;font-variant:normal;font-weight:normal;font-stretch:normal;font-size:17.77074051px;line-height:100%;font-family:'Nimbus Sans L';text-align:start;writing-mode:lr-tb;text-anchor:start" /></flowRegion><flowPara
             id="flowPara2725" /><flowPara
             id="flowPara2620"
             style="font-style:normal;font-variant:normal;font-weight:normal;font-stretch:normal;line-height:120.00000477%;font-family:'Droid Sans';-inkscape-font-specification:'Droid Sans';font-size:17.77074046px"><flowSpan
   style="-inkscape-font-specification:'Droid Sans Bold';font-family:'Droid Sans';font-weight:bold;font-style:normal;font-stretch:normal;font-variant:normal;font-size:17.77074046px"
   id="flowSpan3569">Un large choix d'extensions.</flowSpan> PostGIS pour les données spatiales, une centaine de Foreign Data Wrappers, des opérateurs et des types de données supplémentaires, etc.</flowPara><flowPara
             id="flowPara2622"
             style="font-style:normal;font-variant:normal;font-weight:normal;font-stretch:normal;font-size:17.77074046px;line-height:120.00000477%;font-family:'Droid Sans';-inkscape-font-specification:'Droid Sans';text-align:start;writing-mode:lr-tb;text-anchor:start" /></flowRoot>      </g>
    </g>
    <g
       id="g2957"
       transform="matrix(3.9951815,0,0,3.8830076,8.8111742,51.045694)">
      <flowRoot
         transform="translate(-31.086264,630.1071)"
         style="font-size:48px;font-style:normal;font-variant:normal;font-weight:normal;font-stretch:normal;text-align:start;line-height:100%;writing-mode:lr-tb;text-anchor:start;fill:#2048c8;font-family:Nimbus Sans L"
         id="flowRoot3317"
         xml:space="preserve"><flowRegion
           id="flowRegion3319"><rect
             style="font-size:48px;font-style:normal;font-variant:normal;font-weight:normal;font-stretch:normal;text-align:start;line-height:100%;writing-mode:lr-tb;text-anchor:start;fill:#2048c8;font-family:Nimbus Sans L"
             y="280.93362"
             x="40"
             height="67.756371"
             width="67.318413"
             id="rect3321" /></flowRegion><flowPara
           id="flowPara3323">10.</flowPara></flowRoot>      <flowRoot
         transform="matrix(1.1431315,0,0,1,-22.960398,686.38296)"
         style="font-size:17.77074051px;font-style:normal;font-variant:normal;font-weight:normal;font-stretch:normal;text-align:start;line-height:100%;writing-mode:lr-tb;text-anchor:start;font-family:Nimbus Sans L"
         id="flowRoot2729"
         xml:space="preserve"><flowRegion
           id="flowRegion2731"><rect
             style="font-style:normal;font-variant:normal;font-weight:normal;font-stretch:normal;font-size:17.77074051px;line-height:100%;font-family:'Nimbus Sans L';text-align:start;writing-mode:lr-tb;text-anchor:start"
             y="223.97787"
             x="100.25033"
             height="73.974754"
             width="554.94812"
             id="rect2733" /></flowRegion><flowPara
           id="flowPara2735"
           style="-inkscape-font-specification:'Droid Sans Bold';font-family:'Droid Sans';font-weight:bold;font-style:normal;font-stretch:normal;font-variant:normal;line-height:120%"><flowSpan
             style="font-size:19px;font-style:normal;font-variant:normal;font-weight:bold;font-stretch:normal;text-align:start;line-height:120%;writing-mode:lr-tb;text-anchor:start;font-family:'Droid Sans';-inkscape-font-specification:'Droid Sans Bold'"
             id="flowSpan2863">Une communauté internationale réactive.</flowSpan><flowSpan
             style="-inkscape-font-specification:'Droid Sans';font-family:'Droid Sans';font-weight:normal;font-style:normal;font-stretch:normal;font-variant:normal;line-height:120%"
             id="flowSpan3565"> PostgreSQL est un projet indépendant, soutenu par </flowSpan><flowSpan
             style="line-height:120%;-inkscape-font-specification:'Droid Sans';font-family:'Droid Sans';font-weight:normal;font-style:normal;font-stretch:normal;font-variant:normal"
             id="flowSpan3563">de</flowSpan><flowSpan
             style="-inkscape-font-specification:'Droid Sans';font-family:'Droid Sans';font-weight:normal;font-style:normal;font-stretch:normal;font-variant:normal;line-height:120%"
             id="flowSpan3567"> nombreux individus et de grandes entreprises.</flowSpan></flowPara></flowRoot>    </g>
    <g
       id="g2868"
       transform="matrix(3.9951815,0,0,3.9951815,8.8111742,28.126776)">
      <flowRoot
         transform="matrix(1,0,0,0.9719227,-4.3675136,161.59761)"
         style="font-size:48px;font-style:normal;font-variant:normal;font-weight:normal;font-stretch:normal;text-align:start;line-height:100%;writing-mode:lr-tb;text-anchor:start;fill:#2048c8;font-family:Nimbus Sans L"
         id="flowRoot3269"
         xml:space="preserve"><flowRegion
           id="flowRegion3271"><rect
             style="font-size:48px;font-style:normal;font-variant:normal;font-weight:normal;font-stretch:normal;text-align:start;line-height:100%;writing-mode:lr-tb;text-anchor:start;fill:#2048c8;font-family:Nimbus Sans L"
             y="280.93362"
             x="40"
             height="64.238815"
             width="58.524521"
             id="rect3273" /></flowRegion><flowPara
           id="flowPara3275">4.</flowPara></flowRoot>      <flowRoot
         transform="matrix(1.1431315,0,0,0.9719227,-22.960398,210.31415)"
         style="font-size:17.77074051px;font-style:normal;font-variant:normal;font-weight:normal;font-stretch:normal;text-align:start;line-height:120%;writing-mode:lr-tb;text-anchor:start;font-family:Nimbus Sans L;"
         id="flowRoot2739"
         xml:space="preserve"><flowRegion
           id="flowRegion2741"><rect
             style="font-style:normal;font-variant:normal;font-weight:normal;font-stretch:normal;font-size:17.77074051px;line-height:120.00000477%;font-family:'Nimbus Sans L';text-align:start;writing-mode:lr-tb;text-anchor:start"
             y="223.97787"
             x="100.25033"
             height="66.514183"
             width="557.60968"
             id="rect2743" /></flowRegion><flowPara
           id="flowPara2745"
           style="-inkscape-font-specification:'Droid Sans Bold';font-family:'Droid Sans';font-weight:bold;font-style:normal;font-stretch:normal;font-variant:normal"><flowSpan
             id="flowSpan3591"
             style="font-size:19px;font-style:normal;font-variant:normal;font-weight:bold;font-stretch:normal;text-align:start;line-height:120%;writing-mode:lr-tb;text-anchor:start;font-family:'Droid Sans';-inkscape-font-specification:'Droid Sans Bold'">Un code source clair et robuste</flowSpan><flowSpan
             id="flowSpan2614"
             style="font-size:17.77074051px;font-style:normal;font-variant:normal;font-weight:bold;font-stretch:normal;text-align:start;line-height:120%;writing-mode:lr-tb;text-anchor:start;font-family:'Droid Sans';-inkscape-font-specification:'Droid Sans Bold'">. </flowSpan><flowSpan
             style="-inkscape-font-specification:'Droid Sans';font-family:'Droid Sans';font-weight:normal;font-style:normal;font-stretch:normal;font-variant:normal"
             id="flowSpan3601">Les contributeurs de PostgreSQL sont particulièrement attentifs et rigoureux, afin de garantir la qualité de chaque version.</flowSpan></flowPara></flowRoot>    </g>
    <g
       id="g2993"
       transform="matrix(3.9951815,0,0,3.8830076,8.8111742,57.70738)">
      <flowRoot
         transform="translate(-4.3675136,79.294678)"
         style="font-size:48px;font-style:normal;font-variant:normal;font-weight:normal;font-stretch:normal;text-align:start;line-height:100%;writing-mode:lr-tb;text-anchor:start;fill:#2048c8;font-family:Nimbus Sans L"
         id="flowRoot3293"
         xml:space="preserve"><flowRegion
           id="flowRegion3295"><rect
             style="font-size:48px;font-style:normal;font-variant:normal;font-weight:normal;font-stretch:normal;text-align:start;line-height:100%;writing-mode:lr-tb;text-anchor:start;fill:#2048c8;font-family:Nimbus Sans L"
             y="280.93362"
             x="40"
             height="64.238815"
             width="58.524521"
             id="rect3297" /></flowRegion><flowPara
           id="flowPara3299">3.</flowPara></flowRoot>      <flowRoot
         inkscape:transform-center-y="26.525549"
         transform="matrix(1.1431315,0,0,1,-22.960398,140.23839)"
         style="font-size:17.77074051px;font-style:normal;font-variant:normal;font-weight:normal;font-stretch:normal;text-align:start;line-height:120%;writing-mode:lr-tb;text-anchor:start;font-family:Nimbus Sans L;"
         id="flowRoot2749"
         xml:space="preserve"><flowRegion
           id="flowRegion2751"><rect
             style="font-style:normal;font-variant:normal;font-weight:normal;font-stretch:normal;font-size:17.77074051px;line-height:120.00000477%;font-family:'Nimbus Sans L';text-align:start;writing-mode:lr-tb;text-anchor:start"
             y="223.97787"
             x="100.25033"
             height="44.155025"
             width="551.37231"
             id="rect2753" /></flowRegion><flowPara
           id="flowPara2608"
           style="-inkscape-font-specification:'Droid Sans Bold';font-family:'Droid Sans';font-weight:bold;font-style:normal;font-stretch:normal;font-variant:normal"><flowSpan
             id="flowSpan2612"
             style="font-size:19px;font-style:normal;font-variant:normal;font-weight:bold;font-stretch:normal;text-align:start;line-height:120%;writing-mode:lr-tb;text-anchor:start;font-family:'Droid Sans';-inkscape-font-specification:'Droid Sans Bold'">Le respect des standards.</flowSpan><flowSpan
             style="-inkscape-font-specification:'Droid Sans';font-family:'Droid Sans';font-weight:normal;font-style:normal;font-stretch:normal;font-variant:normal"
             id="flowSpan3603"><flowSpan
   style="font-size:17.05614853px;letter-spacing:-0.00712395px;word-spacing:-0.01662255px"
   id="flowSpan3607"> PostgreSQL est le SGBD le plus conforme</flowSpan> aux recommandations des normes SQL ANSI.</flowSpan></flowPara><flowPara
           id="flowPara2610"
           style="-inkscape-font-specification:'Droid Sans Bold';font-family:'Droid Sans';font-weight:bold;font-style:normal;font-stretch:normal;font-variant:normal" /></flowRoot>    </g>
    <text
       xml:space="preserve"
       style="font-style:normal;font-variant:normal;font-weight:500;font-stretch:normal;font-size:40px;line-height:125%;font-family:'Sans Guilt MB';-inkscape-font-specification:'Sans Guilt MB Medium';text-align:center;letter-spacing:0px;word-spacing:0px;writing-mode:lr-tb;text-anchor:middle;fill:#000000;fill-opacity:1;stroke:none;stroke-width:1px;stroke-linecap:butt;stroke-linejoin:miter;stroke-opacity:1"
       x="902.85712"
       y="3115.8494"
       id="text3533"
       sodipodi:linespacing="125%"><tspan
         sodipodi:role="line"
         id="tspan3535"
         x="906.60712"
         y="3115.8494"> </tspan></text>
    <text
       xml:space="preserve"
       style="font-style:normal;font-variant:normal;font-weight:500;font-stretch:normal;font-size:40px;line-height:125%;font-family:'Sans Guilt MB';-inkscape-font-specification:'Sans Guilt MB Medium';text-align:center;letter-spacing:0px;word-spacing:0px;writing-mode:lr-tb;text-anchor:middle;fill:#000000;fill-opacity:1;stroke:none;stroke-width:1px;stroke-linecap:butt;stroke-linejoin:miter;stroke-opacity:1"
       x="2548.5713"
       y="3127.2778"
       id="text3537"
       sodipodi:linespacing="125%"><tspan
         sodipodi:role="line"
         id="tspan3539"
         x="2548.5713"
         y="3127.2778"></tspan></text>
    <flowRoot
       xml:space="preserve"
       id="flowRoot3579"
       style="fill:black;stroke:none;stroke-opacity:1;stroke-width:1px;stroke-linejoin:miter;stroke-linecap:butt;fill-opacity:1;font-family:Sans Guilt MB;font-style:normal;font-weight:500;font-size:40px;line-height:125%;letter-spacing:0px;word-spacing:0px;text-anchor:middle;text-align:center;-inkscape-font-specification:Sans Guilt MB Medium;font-stretch:normal;font-variant:normal;writing-mode:lr"><flowRegion
         id="flowRegion3581"><rect
           id="rect3583"
           width="8.0812206"
           height="113.13708"
           x="1888.9852"
           y="2089.6516" /></flowRegion><flowPara
         id="flowPara3585"></flowPara></flowRoot>    <flowRoot
       xml:space="preserve"
       id="flowRoot3593"
       style="fill:black;stroke:none;stroke-opacity:1;stroke-width:1px;stroke-linejoin:miter;stroke-linecap:butt;fill-opacity:1;font-family:Sans Guilt MB;font-style:normal;font-weight:500;font-size:40px;line-height:125%;letter-spacing:0px;word-spacing:0px;text-anchor:middle;text-align:center;-inkscape-font-specification:Sans Guilt MB Medium;font-stretch:normal;font-variant:normal;writing-mode:lr"><flowRegion
         id="flowRegion3595"><rect
           id="rect3597"
           width="68.690376"
           height="72.73098"
           x="1725.3406"
           y="1778.5245" /></flowRegion><flowPara
         id="flowPara3599"></flowPara></flowRoot>  </g>
</svg>
