<?xml version="1.0" encoding="UTF-8" standalone="no"?>
<!-- Created with Inkscape (http://www.inkscape.org/) -->

<svg
   xmlns:dc="http://purl.org/dc/elements/1.1/"
   xmlns:cc="http://creativecommons.org/ns#"
   xmlns:rdf="http://www.w3.org/1999/02/22-rdf-syntax-ns#"
   xmlns:svg="http://www.w3.org/2000/svg"
   xmlns="http://www.w3.org/2000/svg"
   xmlns:sodipodi="http://sodipodi.sourceforge.net/DTD/sodipodi-0.dtd"
   xmlns:inkscape="http://www.inkscape.org/namespaces/inkscape"
   id="svg2457"
   sodipodi:version="0.32"
   inkscape:version="0.48.0 r9654"
   width="637"
   height="449"
   version="1.0"
   sodipodi:docname="pgconfeu_flyer.v1.en.svg"
   inkscape:output_extension="org.inkscape.output.svg.inkscape"
   inkscape:export-filename="/home/damien/dev/github/postgresqlfr/pgfr_materials/events/pgconf.eu_2011/v1-en/pgconfeu_flyer.v1.en.800px.draft1.png"
   inkscape:export-xdpi="113.05122"
   inkscape:export-ydpi="113.05122">
  <metadata
     id="metadata2462">
    <rdf:RDF>
      <cc:Work
         rdf:about="">
        <dc:format>image/svg+xml</dc:format>
        <dc:type
           rdf:resource="http://purl.org/dc/dcmitype/StillImage" />
        <dc:title></dc:title>
      </cc:Work>
    </rdf:RDF>
  </metadata>
  <defs
     id="defs2460">
    <inkscape:perspective
       sodipodi:type="inkscape:persp3d"
       inkscape:vp_x="0 : 526.18109 : 1"
       inkscape:vp_y="0 : 1000 : 0"
       inkscape:vp_z="744.09448 : 526.18109 : 1"
       inkscape:persp3d-origin="372.04724 : 350.78739 : 1"
       id="perspective2464" />
  </defs>
  <sodipodi:namedview
     inkscape:window-height="841"
     inkscape:window-width="1440"
     inkscape:pageshadow="2"
     inkscape:pageopacity="0.0"
     guidetolerance="10.0"
     gridtolerance="10.0"
     objecttolerance="10.0"
     borderopacity="1.0"
     bordercolor="#666666"
     pagecolor="#ffffff"
     id="base"
     showgrid="false"
     showguides="true"
     inkscape:guide-bbox="true"
     units="mm"
     inkscape:zoom="0.44270016"
     inkscape:cx="689.13619"
     inkscape:cy="43.702202"
     inkscape:window-x="0"
     inkscape:window-y="0"
     inkscape:current-layer="svg2457"
     inkscape:window-maximized="1">
    <sodipodi:guide
       orientation="1,0"
       position="20.329787,298.17021"
       id="guide2506" />
    <sodipodi:guide
       orientation="1,0"
       position="615.54078,387.39539"
       id="guide2508" />
    <sodipodi:guide
       orientation="0,1"
       position="-55.342199,428.05496"
       id="guide2510" />
    <sodipodi:guide
       orientation="0,1"
       position="-18.070922,20.329787"
       id="guide2514" />
    <sodipodi:guide
       orientation="1,0"
       position="36.141844,454.59663"
       id="guide3826" />
    <sodipodi:guide
       orientation="1,0"
       position="559.04063,164.51767"
       id="guide3828" />
  </sodipodi:namedview>
  <rect
     style="opacity:1;fill:#ffffff;fill-opacity:1;fill-rule:nonzero;stroke:#333333;stroke-width:7;stroke-linecap:butt;stroke-linejoin:round;marker:none;marker-start:none;marker-mid:none;marker-end:none;stroke-miterlimit:15;stroke-dasharray:none;stroke-dashoffset:0;stroke-opacity:1;visibility:visible;display:inline;overflow:visible;enable-background:accumulate"
     id="rect2516"
     width="595.211"
     height="407.72516"
     x="20.329786"
     y="20.94504" />
  <g
     id="g3030"
     transform="matrix(1.1550493,0,0,1.1550493,-74.98308,-53.151591)">
    <path
       style="fill:#cccccc"
       d="m 566.06941,342.056 c 8.38573,-0.78877 23.59374,-3.95838 27.89379,-5.81355 l 2.57177,-1.10953 0,-20.68333 c 0,-20.48921 0.0167,-20.69703 1.78045,-22.14343 1.53432,-1.25825 1.64371,-1.68453 0.79132,-3.08353 -0.54403,-0.89288 -0.98915,-1.9609 -0.98915,-2.37336 0,-0.41248 -2.65809,-4.90732 -5.90686,-9.98854 l -5.90687,-9.23858 1.57073,-3.07887 c 1.35518,-2.65637 1.9361,-3.07888 4.23323,-3.07888 1.95667,0 3.0013,-0.51707 3.94048,-1.95044 2.37387,-3.62298 1.69467,-4.72425 -8.53286,-13.83521 l -9.81083,-8.73977 -0.49909,-5.73966 c -0.2745,-3.15682 -0.69375,-7.71778 -0.93168,-10.13546 -0.40785,-4.14428 -0.31599,-4.44892 1.60548,-5.3244 1.12094,-0.51073 2.03807,-1.49934 2.03807,-2.1969 0,-1.73868 -10.21656,-25.42741 -11.35209,-26.32163 -0.50229,-0.39555 -3.94004,-2.05555 -7.63943,-3.68889 -3.69938,-1.63334 -7.13868,-3.37249 -7.64288,-3.86478 -0.6906,-0.6743 2.77393,-7.69025 14.04581,-28.44384 8.22939,-15.15182 14.96253,-28.20516 14.96253,-29.00743 0,-0.80226 -1.83372,-3.10734 -4.07495,-5.12239 -2.86296,-2.57405 -4.09857,-4.29096 -4.15439,-5.77264 -0.0601,-1.59666 -0.80604,-2.49132 -3.07083,-3.6833 l -2.99139,-1.5744 -1.61374,1.61374 c -0.88755,0.88755 -10.06662,17.24706 -20.39793,36.35446 l -18.78419,34.74072 -5.49362,0.44031 c -3.02148,0.24217 -5.61689,0.35629 -5.76756,0.25359 -0.15068,-0.1027 0.86262,-2.31915 2.25176,-4.92544 1.6737,-3.1402 2.29999,-5.12996 1.85658,-5.8985 -0.36803,-0.63787 -12.24209,-11.21436 -26.38682,-23.50331 -14.14472,-12.28894 -26.37453,-22.92076 -27.17736,-23.62626 -1.362,-1.19689 -1.57383,-1.14416 -3.16525,0.78802 -0.93807,1.13891 -2.70649,3.93428 -3.92984,6.21194 -1.22335,2.27765 -2.86741,4.30937 -3.65345,4.51493 -0.7956,0.20805 -1.87443,1.72285 -2.43353,3.41692 -0.89223,2.7035 -0.83774,3.26197 0.4882,5.0032 0.8209,1.07801 13.0655,12.01747 27.21022,24.30992 20.46815,17.7878 25.70759,22.72971 25.66823,24.21062 -0.31738,11.94073 -0.69539,13.07534 -3.80226,11.4126 -1.08701,-0.58175 -2.45793,-0.87293 -3.04649,-0.64709 -1.24123,0.47631 -37.81099,67.7647 -37.81099,69.57227 0,0.66453 2.17029,3.09589 4.82288,5.40304 4.18273,3.63803 4.7659,4.47965 4.39367,6.34084 -0.33125,1.65627 0.0836,2.63734 1.81788,4.29888 4.17539,4.00027 4.77915,3.36867 15.2796,-15.9843 5.25481,-9.68496 9.67074,-17.4925 9.81316,-17.35008 0.14243,0.14242 -0.63122,3.32945 -1.7192,7.08229 -1.60498,5.53611 -3.395,9.01737 -9.48863,18.45364 -4.13076,6.39668 -7.51047,11.9267 -7.51047,12.28896 0,0.36225 0.89023,1.24194 1.97828,1.95487 l 1.97828,1.29621 0,20.38625 c 0,16.39612 0.21435,20.56413 1.09516,21.29514 1.66857,1.38479 17.31101,4.77857 26.20515,5.68546 10.99301,1.12091 45.83691,1.49764 55.39192,0.5989 z"
       id="path3044"
       inkscape:connector-curvature="0" />
    <path
       style="fill:#acacac"
       d="m 564.88244,341.80067 c 8.85256,-1.03204 19.67268,-3.18384 26.90465,-5.35055 l 3.56091,-1.06684 0.21079,-21.15605 0.2108,-21.15605 1.96531,-0.89546 c 1.08093,-0.4925 1.96532,-1.1356 1.96532,-1.42911 0,-0.5976 -5.92032,-10.40232 -10.94652,-18.12868 -1.81341,-2.78762 -3.29126,-5.28025 -3.2841,-5.5392 0.007,-0.25894 0.82028,-1.89516 1.80693,-3.63605 1.59997,-2.82305 2.07581,-3.13671 4.40142,-2.90126 1.82408,0.18468 2.93787,-0.17194 3.70709,-1.18697 2.36441,-3.11994 1.44058,-4.59591 -8.148,-13.01786 -5.11386,-4.49166 -9.53163,-8.50086 -9.81727,-8.90933 -0.28563,-0.40847 -0.74538,-3.98046 -1.02165,-7.93777 -0.27627,-3.9573 -0.69599,-8.52427 -0.93271,-10.14884 -0.38,-2.60798 -0.19093,-3.06286 1.61514,-3.88576 1.12504,-0.5126 2.04553,-1.53856 2.04553,-2.27992 0,-1.44554 -9.80673,-24.36804 -10.84936,-25.35958 -0.34358,-0.32674 -4.00755,-2.09353 -8.14216,-3.92622 -4.13461,-1.83268 -7.82579,-3.61475 -8.20263,-3.96015 -0.37683,-0.3454 6.12183,-13.2343 14.44147,-28.642 8.31964,-15.4077 15.12662,-28.54511 15.12662,-29.19425 0,-0.64914 -1.88674,-2.80914 -4.19274,-4.8 -3.24225,-2.79916 -4.18405,-4.12077 -4.1544,-5.8298 0.0292,-1.6826 -0.58501,-2.5774 -2.57359,-3.7493 -2.54885,-1.50206 -2.63918,-1.50347 -3.73931,-0.0581 -0.62005,0.81461 -9.73887,17.38104 -20.26406,36.81429 l -19.1367,35.33318 -6.40258,0.32983 c -3.52142,0.1814 -6.50831,0.25918 -6.63753,0.17284 -0.12923,-0.0863 1.02807,-2.45476 2.57176,-5.26317 1.5437,-2.8084 2.80672,-5.30041 2.80672,-5.53779 0,-0.23738 -11.73471,-10.63111 -26.07713,-23.09718 -14.34243,-12.46607 -26.29249,-23.01402 -26.5557,-23.4399 -1.25563,-2.03167 -3.30057,-0.49756 -5.92435,4.44443 -1.57941,2.97489 -3.51843,5.51022 -4.51214,5.8998 -0.95841,0.37573 -2.30759,1.77579 -2.99818,3.11125 -1.03993,2.01101 -1.08042,2.67677 -0.23573,3.87578 0.56094,0.79623 12.4148,11.33852 26.34191,23.42731 13.92712,12.08879 25.93179,22.5561 26.67705,23.26068 1.17966,1.11526 1.2694,2.12556 0.69334,7.80584 -0.36394,3.58862 -1.10319,7.05673 -1.64279,7.70691 -0.86693,1.04458 -1.24404,1.02682 -3.24075,-0.15266 -1.24282,-0.73415 -2.38827,-1.17549 -2.54544,-0.98076 -0.6902,0.85514 -36.5832,67.64931 -36.79533,68.47333 -0.13,0.50497 1.96452,2.90979 4.65447,5.34405 4.35507,3.94112 4.84041,4.678 4.43062,6.72695 -0.35008,1.75039 -0.0315,2.70375 1.33138,3.9841 3.44697,3.23826 4.44782,2.42201 10.31494,-8.41249 12.76844,-23.57875 15.69554,-28.75666 16.05381,-28.3984 0.50589,0.5059 -3.64976,15.31479 -5.133,18.29173 -0.64403,1.29259 -4.14809,6.9194 -7.7868,12.50404 -3.63871,5.58464 -6.61584,10.45064 -6.61584,10.81333 0,0.36269 0.89023,1.24274 1.97828,1.95566 l 1.97829,1.29622 0,20.57286 0,20.57287 1.78045,0.74654 c 3.07905,1.29104 20.4799,4.87911 27.49813,5.67016 11.48549,1.29454 41.38529,1.46517 51.43536,0.29352 z m -97.04029,-69.32243 c -1.46584,-0.90594 -2.66517,-2.13079 -2.66517,-2.72189 0,-0.91868 34.29413,-64.94983 35.37957,-66.05781 0.21319,-0.21761 1.59671,0.9971 3.0745,2.69937 l 2.68689,3.09502 -1.80765,3.23548 c -0.99421,1.77952 -8.88059,16.32183 -17.52529,32.31624 -8.64469,15.99442 -15.88864,29.08076 -16.09766,29.08076 -0.20901,0 -1.57935,-0.74122 -3.04519,-1.64717 z m 87.31655,-31.16273 c -12.49605,-10.86427 -22.703,-20.30068 -22.68209,-20.9698 0.0547,-1.75143 2.62842,-6.77956 3.39143,-6.62568 1.54067,0.31071 51.17117,44.19015 51.17117,45.24157 0,0.64154 -0.91793,2.36991 -2.03985,3.84082 l -2.03985,2.67438 -2.54035,-2.20403 c -1.39719,-1.21221 -12.7644,-11.09298 -25.26046,-21.95726 z m -17.25664,-57.96607 c -1.26402,-0.74667 -2.29821,-1.93473 -2.29821,-2.64014 0,-1.23221 33.39583,-63.68158 34.85816,-65.18391 0.77979,-0.8011 3.54936,1.33864 4.83006,3.73165 0.61313,1.14564 -2.70052,7.8615 -16.49304,33.42691 -9.49318,17.59627 -17.56148,31.99994 -17.92955,32.00815 -0.36807,0.008 -1.70341,-0.59598 -2.96742,-1.34266 z m -48.2913,-26.8148 c -12.35052,-10.70737 -23.61779,-20.59982 -25.03837,-21.98322 l -2.58286,-2.51529 1.28642,-3.77546 c 0.77096,-2.26262 1.70054,-3.67975 2.31988,-3.53662 1.4911,0.3446 51.80782,44.22923 51.80782,45.18512 0,1.07036 -3.86389,6.09341 -4.68725,6.09341 -0.35758,0 -10.75511,-8.76057 -23.10564,-19.46794 z"
       id="path3042"
       inkscape:connector-curvature="0" />
    <path
       style="fill:#616161"
       d="m 562.30452,341.77667 c 9.77165,-1.24362 26.03532,-4.68417 30.07605,-6.36251 l 2.57177,-1.0682 0,-20.45625 c 0,-21.29413 0.16091,-22.35541 3.38946,-22.35541 0.81967,0 1.37161,-0.2917 1.22653,-0.64821 -0.91878,-2.2579 -14.64362,-23.02573 -15.23641,-23.05509 -0.40095,-0.0199 -1.30631,0.48635 -2.0119,1.12491 -1.15332,1.04374 -3.86298,-1.08335 -26.82891,-21.06088 -14.05031,-12.22204 -25.73396,-22.71165 -25.96367,-23.31024 -0.45155,-1.17673 4.61836,-11.5639 5.84361,-11.97232 0.66027,-0.22009 40.92645,34.24825 50.08553,42.8738 1.9585,1.84442 4.42829,3.81393 5.48841,4.37669 1.74246,0.92497 2.10329,0.81882 3.75874,-1.10575 1.00718,-1.17092 1.83124,-2.43386 1.83124,-2.80655 0,-0.37267 -4.00603,-4.13931 -8.90228,-8.37031 -4.89625,-4.23099 -9.49424,-8.35829 -10.21777,-9.17177 -1.127,-1.26712 -2.3233,-11.15872 -2.61878,-21.65337 -0.0123,-0.43522 0.77892,-1.14282 1.75817,-1.57244 0.97925,-0.42962 1.78045,-1.37599 1.78045,-2.10305 0,-0.72706 -2.25696,-6.59596 -5.01548,-13.04199 l -5.01548,-11.72007 -7.97988,-3.63583 c -4.38894,-1.99971 -8.56875,-4.12454 -9.28847,-4.72186 -1.51078,-1.25384 -1.62138,-1.13976 -4.79397,4.94489 -1.07791,2.0673 -2.2966,3.75873 -2.70818,3.75873 -1.47851,0 -9.11416,-6.90744 -9.01234,-8.15283 0.18527,-2.26611 34.41645,-64.99094 36.37655,-66.65598 2.45656,-2.08678 2.40142,-3.81169 -0.18694,-5.84769 -2.21157,-1.73962 -3.45419,-2.08257 -3.45419,-0.9533 0,0.37771 -8.84707,17.02496 -19.66015,36.99388 l -19.66015,36.30714 -5.26448,0.16906 c -2.89547,0.093 -5.88843,0.49912 -6.65102,0.90252 -0.88685,0.46914 -2.29954,0.40822 -3.92,-0.16906 -2.98893,-1.06477 -53.2541,-44.62555 -53.2541,-46.15104 0,-1.79857 -2.97623,-1.13759 -4.69045,1.0417 -0.90203,1.14675 -1.64006,2.30661 -1.64006,2.57748 0,0.27087 12.61927,11.45455 28.04281,24.85263 l 28.04282,24.36013 -0.42626,5.70404 c -0.23443,3.13723 -1.09674,7.11762 -1.91621,8.84532 l -1.48996,3.14127 2.36068,2.43559 c 1.29836,1.33958 2.36067,2.89107 2.36067,3.44776 0,1.069 -32.37684,61.50955 -34.87969,65.11282 -2.09629,3.01798 -2.25934,7.66425 -0.31874,9.08324 0.84535,0.61814 2.05373,1.02438 2.68529,0.90275 0.63155,-0.12162 6.02812,-9.24275 11.99239,-20.26918 5.96427,-11.02643 11.24091,-20.44483 11.72586,-20.92979 1.55984,-1.55984 1.02014,1.68044 -2.00918,12.06292 -2.64919,9.07965 -3.50683,10.86315 -10.25614,21.3282 l -7.36521,11.42001 1.94736,1.80475 1.94735,1.80474 0,20.58143 0,20.58142 3.09614,0.8337 c 22.49358,6.05689 53.72924,8.55893 74.24857,5.94745 z"
       id="path3040"
       inkscape:connector-curvature="0" />
    <path
       style="fill:#5c5c5c"
       d="m 554.59537,342.12792 c 11.2879,-1.30076 26.55036,-4.22168 35.41126,-6.77698 l 4.1544,-1.19804 0,-20.8858 c 0,-20.14714 0.0565,-20.91607 1.59898,-21.74155 0.87944,-0.47067 1.94771,-0.64022 2.37394,-0.3768 0.42623,0.26342 0.77496,-0.0762 0.77496,-0.75472 0,-0.67852 -0.2746,-1.23367 -0.61023,-1.23367 -0.33562,0 -3.43047,-4.36212 -6.87744,-9.69359 -3.44698,-5.33147 -6.38313,-9.84789 -6.52479,-10.03648 -0.14166,-0.1886 -0.67893,0.0785 -1.19394,0.59348 -0.51502,0.51501 -1.49188,0.93639 -2.1708,0.93639 -1.52214,0 -53.34956,-44.61761 -53.69142,-46.22231 -0.40073,-1.88098 6.14992,-13.12797 7.63726,-13.11264 0.7223,0.007 13.54067,10.69018 28.48527,23.7394 15.09772,13.18292 27.83766,23.72585 28.67002,23.72585 1.62227,0 3.04484,-3.62892 1.82634,-4.6589 -11.17209,-9.4436 -18.58148,-16.41943 -18.87029,-17.76611 -0.20171,-0.94052 -0.70938,-5.78675 -1.12815,-10.7694 -0.78135,-9.29672 -0.35923,-11.91044 1.92358,-11.91044 0.63752,0 1.15913,-0.37661 1.15913,-0.83693 0,-1.54184 -9.62751,-23.68153 -10.55675,-24.27659 -0.50451,-0.32307 -4.53724,-2.24867 -8.96163,-4.27911 l -8.04433,-3.69171 -2.63839,4.42517 c -1.45112,2.43385 -3.03586,4.55024 -3.52166,4.70313 -1.28409,0.40409 -10.59078,-7.60171 -10.59078,-9.11041 0,-2.11033 34.8473,-66.10736 36.99279,-67.93722 1.97309,-1.68282 1.97634,-1.7072 0.49901,-3.73387 -1.59179,-2.18369 -3.20156,-2.72932 -3.20156,-1.08517 0,0.5525 -8.81988,17.28877 -19.59973,37.19171 l -19.59973,36.18717 -4.80885,0 c -2.64487,0 -5.9312,0.40584 -7.30295,0.90187 -1.59708,0.57751 -3.24424,0.64866 -4.57986,0.19783 -2.10373,-0.71012 -52.00084,-43.634 -53.93867,-46.40064 -1.00077,-1.42879 -1.1316,-1.40082 -3.22092,0.6885 -1.76838,1.76838 -1.94863,2.26151 -0.95878,2.62314 1.00286,0.36639 48.22993,41.05804 54.20185,46.70125 1.6277,1.5381 1.74322,2.1813 1.3271,7.38868 -0.25069,3.13715 -1.02306,7.05035 -1.71638,8.69602 -1.25896,2.98823 -1.25735,2.99543 1.24466,5.57686 1.37789,1.42162 2.50525,3.00264 2.50525,3.51338 0,0.51073 -8.36813,16.38281 -18.59585,35.27128 -10.22773,18.88848 -18.59586,35.02968 -18.59586,35.86935 0,1.66138 1.40723,3.42658 2.73003,3.4245 0.45698,-7.2e-4 6.10559,-9.76819 12.55248,-21.7055 6.44688,-11.9373 12.20166,-22.1026 12.78839,-22.58954 2.30647,-1.9142 1.93883,1.12969 -1.59549,13.21011 -3.50697,11.98695 -3.93874,12.93113 -10.71261,23.42588 -3.8821,6.01453 -7.05836,11.24917 -7.05836,11.63255 0,0.38338 0.62316,1.04532 1.3848,1.471 1.24899,0.69805 1.4236,2.85099 1.78045,21.95293 l 0.39566,21.17897 9.592,2.12827 c 24.55448,5.44814 43.51556,7.19728 58.85659,5.42945 z"
       id="path3038"
       inkscape:connector-curvature="0" />
    <path
       style="fill:#464646"
       d="m 554.59537,342.12792 c 11.2879,-1.30076 26.55036,-4.22168 35.41126,-6.77698 l 4.1544,-1.19804 0,-20.8858 c 0,-20.14714 0.0565,-20.91607 1.59898,-21.74155 0.87944,-0.47067 1.94771,-0.64022 2.37394,-0.3768 0.42623,0.26342 0.77496,-0.0762 0.77496,-0.75472 0,-0.67852 -0.2746,-1.23367 -0.61023,-1.23367 -0.33562,0 -3.43047,-4.36212 -6.87744,-9.69359 -3.44698,-5.33147 -6.38313,-9.84789 -6.52479,-10.03648 -0.14166,-0.1886 -0.67893,0.0785 -1.19394,0.59348 -0.51502,0.51501 -1.49188,0.93639 -2.1708,0.93639 -1.52214,0 -53.34956,-44.61761 -53.69142,-46.22231 -0.40073,-1.88098 6.14992,-13.12797 7.63726,-13.11264 0.7223,0.007 13.54067,10.69018 28.48527,23.7394 15.09772,13.18292 27.83766,23.72585 28.67002,23.72585 1.62227,0 3.04484,-3.62892 1.82634,-4.6589 -11.17209,-9.4436 -18.58148,-16.41943 -18.87029,-17.76611 -0.20171,-0.94052 -0.70938,-5.78675 -1.12815,-10.7694 -0.78135,-9.29672 -0.35923,-11.91044 1.92358,-11.91044 0.63752,0 1.15913,-0.37661 1.15913,-0.83693 0,-1.54184 -9.62751,-23.68153 -10.55675,-24.27659 -0.50451,-0.32307 -4.53724,-2.24867 -8.96163,-4.27911 l -8.04433,-3.69171 -2.63839,4.42517 c -1.45112,2.43385 -3.03586,4.55024 -3.52166,4.70313 -1.28409,0.40409 -10.59078,-7.60171 -10.59078,-9.11041 0,-2.11033 34.8473,-66.10736 36.99279,-67.93722 1.97309,-1.68282 1.97634,-1.7072 0.49901,-3.73387 -1.59179,-2.18369 -3.20156,-2.72932 -3.20156,-1.08517 0,0.5525 -8.81988,17.28877 -19.59973,37.19171 l -19.59973,36.18717 -5.26069,0.0121 c -2.89338,0.007 -5.6849,0.28183 -6.20337,0.61147 -0.51882,0.32986 0.45504,0.59935 2.16583,0.59935 1.99548,0 3.60804,0.52458 4.50359,1.46506 1.34413,1.41155 1.31585,1.44653 -0.77437,0.95775 -2.83408,-0.66272 -7.23387,1.2042 -8.9267,3.78777 -3.45391,5.27135 -2.72859,12.3413 1.7082,16.65026 3.05424,2.96623 2.72855,4.09656 -0.67344,2.33731 -1.52791,-0.79011 -2.95376,-2.59505 -4.09777,-5.18725 l -1.75451,-3.97552 -1.4724,3.26522 -1.47242,3.26522 2.50525,2.58476 c 1.37789,1.42162 2.50525,3.00264 2.50525,3.51338 0,0.51073 -8.39293,16.42861 -18.65096,35.37305 -11.59164,21.40735 -18.55523,35.08796 -18.39803,36.14462 0.24288,1.63263 2.58192,3.782 3.28734,3.02078 0.1874,-0.20222 5.42319,-9.80408 11.63511,-21.33747 11.73943,-21.79608 13.11914,-24.02004 14.40764,-23.22369 0.95042,0.58739 2.1512,-1.17877 2.1676,-3.1882 0.0141,-1.73061 9.52295,-19.29906 10.69484,-19.75969 0.91221,-0.35856 10.50958,0.86632 11.47813,1.46492 0.35594,0.21998 0.25628,1.43554 -0.22146,2.70124 -0.83199,2.20418 -0.60856,2.57773 5.29527,8.85355 l 6.16391,6.55227 -0.48792,4.00188 c -0.50647,4.154 -2.14787,15.27121 -5.84836,39.61095 l -2.16553,14.24364 -5.52439,0.24947 c -7.22624,0.32633 -21.73709,-1.09261 -31.53701,-3.08385 -4.29683,-0.87306 -7.85774,-1.48272 -7.91314,-1.35478 -0.0554,0.12793 0.0773,9.82665 0.29494,21.55272 l 0.39566,21.32012 9.592,2.12827 c 24.55448,5.44814 43.51556,7.19728 58.85659,5.42945 z M 507.6675,324.99383 c -0.33021,-8.45522 -0.21548,-12.60364 0.35835,-12.95829 0.70452,-0.43542 9.89323,1.8279 10.54703,2.59789 0.11423,0.13453 -1.5753,5.3189 -3.75451,11.52082 -3.00752,8.5592 -4.28785,11.27621 -5.3137,11.27621 -1.1965,0 -1.40717,-1.42614 -1.83717,-12.43663 z m -31.94586,-43.87578 c 0.64645,-1.01701 9.2531,-16.80492 19.1259,-35.08426 9.87279,-18.27933 18.15329,-33.41319 18.40111,-33.6308 1.27032,-1.11545 -2.1476,5.51823 -18.14327,35.21343 -19.11557,35.48716 -19.58696,36.32288 -20.16344,35.74641 -0.21762,-0.21761 0.13325,-1.22777 0.7797,-2.24478 z m 39.29368,-83.3922 c -0.55073,-1.44853 -0.44519,-2.78522 0.37487,-4.74788 1.7487,-4.18526 3.11839,-3.51839 2.55439,1.24366 -0.69261,5.84801 -1.6175,6.95443 -2.92926,3.50422 z m 15.30628,-17.56887 c 0.1927,-0.32642 8.62072,-15.9054 18.72894,-34.61995 16.39871,-30.36087 20.69589,-37.9214 19.68955,-34.64212 -0.72638,2.36702 -37.55662,69.83145 -38.12865,69.84282 -0.3521,0.007 -0.48253,-0.25434 -0.28984,-0.58075 z m -18.88592,7.81966 c 0.25805,-0.81304 1.19477,-2.13492 2.0816,-2.93749 1.60455,-1.45208 1.5987,-1.46323 -1.19494,-2.28047 -1.9055,-0.55742 -10.96418,-7.92208 -28.19811,-22.9249 -13.9649,-12.157 -25.86015,-22.77383 -26.43387,-23.59294 -1.00077,-1.42879 -1.1316,-1.40082 -3.22092,0.6885 -1.77277,1.77276 -1.95027,2.26061 -0.95438,2.62314 2.02642,0.73768 55.05928,47.02338 55.59014,48.51763 0.64274,1.80919 1.74057,1.76516 2.33048,-0.0935 z"
       id="path3036"
       inkscape:connector-curvature="0" />
    <path
       style="fill:#464646"
       d="m 554.17234,342.37979 c 2.59628,-0.15983 5.08892,-0.58024 5.53919,-0.93423 0.45028,-0.354 3.13328,-0.89101 5.96222,-1.19335 5.6426,-0.60306 17.8155,-3.06302 24.33288,-4.91732 l 4.1544,-1.18199 0,-20.81675 c 0,-17.4592 0.18982,-20.9743 1.17689,-21.79349 0.64729,-0.5372 1.71556,-0.77002 2.37394,-0.51738 0.73365,0.28152 1.19705,0.009 1.19705,-0.70278 0,-0.63918 -0.36134,-1.16214 -0.80297,-1.16214 -0.44163,0 -3.69208,-4.46503 -7.22323,-9.92228 -5.92542,-9.15751 -6.52399,-9.82841 -7.76596,-8.70444 -0.74013,0.66981 -1.58991,1.21783 -1.8884,1.21783 -0.29849,0 -4.72159,-3.58334 -9.82911,-7.96299 -10.74292,-9.21195 -13.15286,-10.86541 -10.39024,-7.12876 l 1.81228,2.45124 -1.38823,10.07548 c -0.76352,5.54152 -1.94839,13.69679 -2.63305,18.12281 l -1.24483,8.04731 -6.42561,0.83024 c -19.85307,2.56518 -45.22227,1.17199 -63.20233,-3.47084 l -2.17611,-0.56192 0,20.96165 0,20.96163 3.54858,0.89355 c 1.95172,0.49144 6.13579,1.43311 9.29793,2.0926 3.16215,0.65948 6.4149,1.40538 7.22836,1.65756 1.41946,0.44005 1.45592,-0.0796 0.90563,-12.91085 -0.4639,-10.8168 -0.36857,-13.5392 0.49928,-14.25895 0.80298,-0.66596 2.56473,-0.53601 7.0075,0.51684 l 5.93485,1.40646 -0.25588,9.80185 c -0.33386,12.78901 -0.83151,15.14491 -3.33146,15.77102 -1.65215,0.41378 -1.34837,0.62182 1.97845,1.3549 2.16167,0.47633 4.26422,0.65968 4.67232,0.40747 0.4081,-0.25222 0.52038,-0.1 0.2495,0.3383 -0.89141,1.44233 16.15242,2.12646 30.68616,1.23172 z m 40.3821,-84.86487 c 0.53497,-1.68554 -0.0305,-3.17234 -1.20659,-3.17234 -0.39588,0 -0.52863,0.49812 -0.29501,1.10693 0.23362,0.60881 0.0444,1.342 -0.42049,1.62933 -1.21953,0.75371 -1.0392,2.01162 0.28838,2.01162 0.62351,0 1.35867,-0.70899 1.63371,-1.57554 z m -7.51523,-3.56799 c -1.02218,-1.08806 -2.03655,-1.97829 -2.25416,-1.97829 -0.21761,0 0.44067,0.89023 1.46285,1.97829 1.02217,1.08805 2.03654,1.97828 2.25415,1.97828 0.21761,0 -0.44067,-0.89023 -1.46284,-1.97828 z m 3.56091,-1.97829 c -0.78774,-0.87044 -1.6103,-1.58262 -1.82792,-1.58262 -0.21761,0 0.24886,0.71218 1.03661,1.58262 0.78774,0.87045 1.6103,1.58263 1.82791,1.58263 0.21761,0 -0.24886,-0.71218 -1.0366,-1.58263 z m -9.1001,-2.76959 c -1.02218,-1.08806 -2.03655,-1.97829 -2.25416,-1.97829 -0.21761,0 0.44067,0.89023 1.46284,1.97829 1.02218,1.08805 2.03655,1.97828 2.25416,1.97828 0.21761,0 -0.44067,-0.89023 -1.46284,-1.97828 z m 2.76959,-2.7696 c -0.78774,-0.87044 -1.6103,-1.58263 -1.82791,-1.58263 -0.21761,0 0.24886,0.71219 1.0366,1.58263 0.78774,0.87044 1.6103,1.58263 1.82791,1.58263 0.21761,0 -0.24886,-0.71219 -1.0366,-1.58263 z m -9.1001,-2.7696 c -1.02217,-1.08805 -2.03654,-1.97828 -2.25416,-1.97828 -0.21761,0 0.44067,0.89023 1.46285,1.97828 1.02217,1.08806 2.03654,1.97829 2.25416,1.97829 0.21761,0 -0.44067,-0.89023 -1.46285,-1.97829 z m 2.64446,-2.9268 c -2.67171,-3.09768 -3.39942,-7.03258 -3.70229,-20.01903 -0.11766,-5.04461 0.0292,-5.60659 1.65132,-6.32032 0.97925,-0.43085 1.78045,-1.05689 1.78045,-1.39119 0,-0.33431 -2.22557,-5.81502 -4.94571,-12.17938 l -4.9457,-11.57156 -7.26901,-3.38984 c -10.81972,-5.0457 -10.00406,-5.04587 -12.89258,0.002 -1.51936,2.65555 -3.04536,4.38176 -3.87358,4.38176 -0.75163,0 -3.39246,-1.80563 -5.86853,-4.01252 -3.26661,-2.91147 -4.92019,-3.87975 -6.02621,-3.52871 -0.83835,0.26608 -1.75331,0.11321 -2.03323,-0.33972 -0.27993,-0.45292 -2.00132,-0.8175 -3.82533,-0.81017 l -3.31638,0.0137 2.52422,1.6169 c 5.72562,3.66756 7.52735,13.53991 3.82646,20.96661 -2.28689,4.58919 -5.3348,6.66841 -9.77515,6.66841 -3.86714,0 -7.51101,-2.75048 -8.96279,-6.76532 -1.1744,-3.24772 -2.019,-3.44639 -3.05601,-0.71886 -0.66289,1.74352 -0.40015,2.37625 1.97149,4.74788 1.50496,1.50497 3.46034,2.7363 4.3453,2.7363 2.80475,0 1.88118,2.85643 -5.11716,15.82626 -6.5026,12.0511 -7.44052,14.24364 -6.09311,14.24364 1.13468,0 2.5322,-1.86498 2.5322,-3.3792 0,-1.62099 9.211,-18.79932 10.60787,-19.78348 0.47639,-0.33564 1.93444,-0.44349 3.24011,-0.23967 1.30567,0.20383 4.40703,0.60669 6.89192,0.89526 l 4.51799,0.52466 1.77049,-3.6442 c 2.05931,-4.23868 4.01182,-5.19052 6.46131,-3.14989 0.94806,0.78981 0.3884,0.006 -1.24368,-1.7425 -3.02497,-3.24016 -3.7523,-5.10475 -1.97828,-5.07157 0.54403,0.0102 7.75487,5.92578 16.02409,13.14579 22.60236,19.73454 29.60196,25.56005 26.77951,22.28759 z M 565.4239,225.74081 c -2.70994,-1.42019 -7.66328,-5.48103 -7.66328,-6.2825 0,-0.39865 2.53715,-0.72482 5.63811,-0.72482 l 5.6381,0 -0.49457,2.47286 c -0.27201,1.36006 -0.49457,3.14052 -0.49457,3.95656 0,1.73143 -0.29761,1.79697 -2.62379,0.5779 z m 3.81076,12.77551 c -0.78774,-0.87044 -1.6103,-1.58263 -1.82791,-1.58263 -0.21761,0 0.24886,0.71219 1.0366,1.58263 0.78774,0.87044 1.6103,1.58263 1.82791,1.58263 0.21761,0 -0.24886,-0.71219 -1.0366,-1.58263 z m -6.3305,-5.53919 c -0.78774,-0.87045 -1.61031,-1.58263 -1.82792,-1.58263 -0.21761,0 0.24886,0.71218 1.0366,1.58263 0.78775,0.87044 1.61031,1.58262 1.82792,1.58262 0.21761,0 -0.24886,-0.71218 -1.0366,-1.58262 z m -5.14354,-4.25534 c 0,-0.16431 -0.62316,-0.78747 -1.3848,-1.38479 -1.25506,-0.98429 -1.28305,-0.95631 -0.29876,0.29876 1.03375,1.31813 1.68356,1.73732 1.68356,1.08603 z m -7.51747,-6.82305 c -0.78774,-0.87044 -1.61031,-1.58262 -1.82792,-1.58262 -0.21761,0 0.24886,0.71218 1.0366,1.58262 0.78774,0.87045 1.61031,1.58263 1.82792,1.58263 0.21761,0 -0.24886,-0.71218 -1.0366,-1.58263 z m -5.5392,-4.74787 c -0.78774,-0.87045 -1.6103,-1.58263 -1.82791,-1.58263 -0.21761,0 0.24886,0.71218 1.0366,1.58263 0.78774,0.87044 1.6103,1.58262 1.82792,1.58262 0.21761,0 -0.24886,-0.71218 -1.03661,-1.58262 z M 525.426,203.83148 c 4.85378,-4.33686 3.54327,-14.60969 -2.13938,-16.77024 -2.75754,-1.04841 -3.73548,-0.97467 -5.5339,0.41732 -1.28352,0.99346 -1.3081,1.10953 -0.14947,0.70598 6.06411,-2.11212 10.00661,7.12786 5.78826,13.56587 -1.52468,2.32697 -5.4783,2.65456 -7.70601,0.63852 -0.79591,-0.72029 -1.4471,-0.92418 -1.4471,-0.45309 0,1.50324 4.09,4.13664 6.42473,4.13664 1.35759,0 3.25272,-0.8917 4.76287,-2.241 z m -13.75937,-18.04759 c 2.05549,-2.31198 2.15602,-2.65949 0.76935,-2.65949 -1.4318,0 -4.00827,3.21095 -3.21212,4.00312 0.36427,0.36245 1.46352,-0.24217 2.44277,-1.34363 z M 454.0986,138.41521 c 0,-0.65283 -0.13996,-1.18697 -0.311,-1.18697 -0.17105,0 -0.51596,0.53414 -0.76648,1.18697 -0.25051,0.65283 -0.11056,1.18697 0.31099,1.18697 0.42157,0 0.76649,-0.53414 0.76649,-1.18697 z M 568.98738,107.4091 c -0.57123,-0.22859 -1.25374,-0.20048 -1.51669,0.0625 -0.26294,0.26295 0.20443,0.44997 1.0386,0.41561 0.92184,-0.038 1.10934,-0.22547 0.47809,-0.47808 z"
       id="path3034"
       inkscape:connector-curvature="0" />
    <path
       style="fill:#353535"
       d="m 554.17234,342.37979 c 2.59628,-0.15983 5.08892,-0.58024 5.53919,-0.93423 0.45028,-0.354 3.13328,-0.89101 5.96222,-1.19335 5.6426,-0.60306 17.8155,-3.06302 24.33288,-4.91732 l 4.1544,-1.18199 0,-20.81675 c 0,-17.4592 0.18982,-20.9743 1.17689,-21.79349 0.64729,-0.5372 1.71556,-0.77002 2.37394,-0.51738 0.73365,0.28152 1.19705,0.009 1.19705,-0.70278 0,-0.63918 -0.36134,-1.16214 -0.80297,-1.16214 -0.44163,0 -3.69208,-4.46503 -7.22323,-9.92228 -5.92542,-9.15751 -6.52399,-9.82841 -7.76596,-8.70444 -0.74013,0.66981 -1.58991,1.21783 -1.8884,1.21783 -0.29849,0 -4.72159,-3.58334 -9.82911,-7.96299 -10.74292,-9.21195 -13.15286,-10.86541 -10.39024,-7.12876 l 1.81228,2.45124 -1.38823,10.07548 c -0.76352,5.54152 -1.94839,13.69679 -2.63305,18.12281 l -1.24483,8.04731 -6.42561,0.83024 c -19.85307,2.56518 -45.22227,1.17199 -63.20233,-3.47084 -1.69155,-0.4368 -2.17611,-0.28404 -2.17611,0.686 0,0.72782 0.44908,1.07559 1.07753,0.83443 0.59264,-0.22741 3.35235,0.11164 6.13268,0.75346 11.75914,2.71451 40.64336,6.00858 52.93924,6.0374 1.02549,0.002 0.80277,2.76324 -1.55744,19.30608 l -2.75404,19.30328 -3.49872,0.47955 c -5.36068,0.73476 -11.91488,0.5713 -13.61692,-0.3396 -1.42302,-0.76158 -1.53061,-1.78465 -1.53061,-14.55463 0,-15.42646 0.31366,-14.68172 -6.1974,-14.715 -2.0317,-0.0104 -4.99319,-0.32081 -6.58107,-0.68985 -1.58788,-0.36904 -3.25766,-0.44194 -3.7106,-0.162 -1.27659,0.78897 -1.4077,28.79972 -0.13679,29.22335 0.78036,0.26013 0.86804,-2.49611 0.41525,-13.05392 -0.46443,-10.82939 -0.36926,-13.55346 0.49867,-14.27328 0.80298,-0.66596 2.56473,-0.53601 7.0075,0.51684 l 5.93485,1.40646 -0.25588,9.80185 c -0.33386,12.78901 -0.83151,15.14491 -3.33146,15.77102 -1.65215,0.41378 -1.34837,0.62182 1.97845,1.3549 2.16167,0.47633 4.26422,0.65968 4.67232,0.40747 0.4081,-0.25222 0.52038,-0.1 0.2495,0.3383 -0.89141,1.44233 16.15242,2.12646 30.68616,1.23172 z m 40.3821,-84.86487 c 0.53497,-1.68554 -0.0305,-3.17234 -1.20659,-3.17234 -0.39588,0 -0.52863,0.49812 -0.29501,1.10693 0.23362,0.60881 0.0444,1.342 -0.42049,1.62933 -1.21953,0.75371 -1.0392,2.01162 0.28838,2.01162 0.62351,0 1.35867,-0.70899 1.63371,-1.57554 z m -7.51523,-3.56799 c -1.02218,-1.08806 -2.03655,-1.97829 -2.25416,-1.97829 -0.21761,0 0.44067,0.89023 1.46285,1.97829 1.02217,1.08805 2.03654,1.97828 2.25415,1.97828 0.21761,0 -0.44067,-0.89023 -1.46284,-1.97828 z m 3.56091,-1.97829 c -0.78774,-0.87044 -1.6103,-1.58262 -1.82792,-1.58262 -0.21761,0 0.24886,0.71218 1.03661,1.58262 0.78774,0.87045 1.6103,1.58263 1.82791,1.58263 0.21761,0 -0.24886,-0.71218 -1.0366,-1.58263 z m -9.1001,-2.76959 c -1.02218,-1.08806 -2.03655,-1.97829 -2.25416,-1.97829 -0.21761,0 0.44067,0.89023 1.46284,1.97829 1.02218,1.08805 2.03655,1.97828 2.25416,1.97828 0.21761,0 -0.44067,-0.89023 -1.46284,-1.97828 z m 2.76959,-2.7696 c -0.78774,-0.87044 -1.6103,-1.58263 -1.82791,-1.58263 -0.21761,0 0.24886,0.71219 1.0366,1.58263 0.78774,0.87044 1.6103,1.58263 1.82791,1.58263 0.21761,0 -0.24886,-0.71219 -1.0366,-1.58263 z m -9.1001,-2.7696 c -1.02217,-1.08805 -2.03654,-1.97828 -2.25416,-1.97828 -0.21761,0 0.44067,0.89023 1.46285,1.97828 1.02217,1.08806 2.03654,1.97829 2.25416,1.97829 0.21761,0 -0.44067,-0.89023 -1.46285,-1.97829 z m 2.64446,-2.9268 c -2.67171,-3.09768 -3.39942,-7.03258 -3.70229,-20.01903 -0.11766,-5.04461 0.0292,-5.60659 1.65132,-6.32032 0.97925,-0.43085 1.78045,-1.05689 1.78045,-1.39119 0,-0.33431 -2.22557,-5.81502 -4.94571,-12.17938 l -4.9457,-11.57156 -7.26901,-3.38984 c -10.81972,-5.0457 -10.00406,-5.04587 -12.89258,0.002 -2.65621,4.64257 -4.00285,5.24781 -6.68075,3.00262 -1.19384,-1.00093 -1.11885,-0.78393 0.27345,0.79131 2.83101,3.20297 4.19191,2.75395 6.61261,-2.18177 1.174,-2.39372 2.50633,-4.35222 2.96075,-4.35222 0.99915,0 7.70893,3.3932 9.76997,4.94077 1.37795,1.03465 0.86923,1.66011 -7.45292,9.16322 -4.9125,4.42939 -9.327,8.05314 -9.81001,8.05314 -0.48301,0 -2.10294,-0.83921 -3.59986,-1.86491 -2.52737,-1.73178 -2.7316,-2.18806 -2.86094,-6.39167 -0.0766,-2.48971 -0.75613,-6.14194 -1.51005,-8.11605 -1.01913,-2.66854 -1.1326,-3.73648 -0.44235,-4.16308 1.4382,-0.88885 -1.12835,-2.64346 -2.99849,-2.0499 -0.85471,0.27127 -1.78304,0.12264 -2.06296,-0.33028 -0.27993,-0.45293 -2.00132,-0.81751 -3.82533,-0.81017 l -3.31638,0.0133 2.52422,1.6169 c 5.72562,3.66756 7.52735,13.53991 3.82646,20.96661 -2.28689,4.58919 -5.3348,6.66841 -9.77515,6.66841 -3.86714,0 -7.51101,-2.75048 -8.96279,-6.76532 -1.18513,-3.27741 -2.01932,-3.44555 -3.09234,-0.6233 -0.57574,1.5143 -0.53756,2.34918 0.13567,2.96743 0.68731,0.63116 0.78808,0.59684 0.37837,-0.12886 -0.30715,-0.54403 -0.27037,-0.98105 0.0817,-0.97117 0.3521,0.01 1.20423,1.16718 1.89362,2.57177 0.86749,1.76747 1.90299,2.63089 3.36308,2.80418 1.5205,0.18047 2.10965,0.70499 2.10965,1.87825 0,0.89533 -3.02677,7.2373 -6.72616,14.09328 -6.5026,12.0511 -7.44052,14.24364 -6.09311,14.24364 1.13468,0 2.5322,-1.86498 2.5322,-3.3792 0,-1.62099 9.211,-18.79932 10.60787,-19.78348 0.47639,-0.33564 1.93444,-0.44349 3.24011,-0.23967 1.30567,0.20383 4.40703,0.60669 6.89192,0.89526 l 4.51799,0.52466 1.77049,-3.6442 c 2.05931,-4.23868 4.01182,-5.19052 6.46131,-3.14989 0.94806,0.78981 0.3884,0.006 -1.24368,-1.7425 -3.02497,-3.24016 -3.7523,-5.10475 -1.97828,-5.07157 0.54403,0.0102 7.75487,5.92578 16.02409,13.14579 22.60236,19.73454 29.60196,25.56005 26.77951,22.28759 z M 565.4239,225.74081 c -2.70994,-1.42019 -7.66328,-5.48103 -7.66328,-6.2825 0,-0.39865 2.53715,-0.72482 5.63811,-0.72482 l 5.6381,0 -0.49457,2.47286 c -0.27201,1.36006 -0.49457,3.14052 -0.49457,3.95656 0,1.73143 -0.29761,1.79697 -2.62379,0.5779 z m -46.43762,-10.96388 c 0,-0.43523 1.33534,-0.79914 2.96742,-0.80869 1.63208,-0.01 4.5197,-0.72175 6.41692,-1.58263 4.38648,-1.99041 4.33584,-2.00463 2.88101,0.80869 -1.18598,2.29344 -1.41475,2.37394 -6.74648,2.37394 -3.15171,0 -5.51887,-0.33941 -5.51887,-0.79131 z m 50.24838,23.73939 c -0.78774,-0.87044 -1.6103,-1.58263 -1.82791,-1.58263 -0.21761,0 0.24886,0.71219 1.0366,1.58263 0.78774,0.87044 1.6103,1.58263 1.82791,1.58263 0.21761,0 -0.24886,-0.71219 -1.0366,-1.58263 z m -6.3305,-5.53919 c -0.78774,-0.87045 -1.61031,-1.58263 -1.82792,-1.58263 -0.21761,0 0.24886,0.71218 1.0366,1.58263 0.78775,0.87044 1.61031,1.58262 1.82792,1.58262 0.21761,0 -0.24886,-0.71218 -1.0366,-1.58262 z m -5.14354,-4.25534 c 0,-0.16431 -0.62316,-0.78747 -1.3848,-1.38479 -1.25506,-0.98429 -1.28305,-0.95631 -0.29876,0.29876 1.03375,1.31813 1.68356,1.73732 1.68356,1.08603 z m -7.51747,-6.82305 c -0.78774,-0.87044 -1.61031,-1.58262 -1.82792,-1.58262 -0.21761,0 0.24886,0.71218 1.0366,1.58262 0.78774,0.87045 1.61031,1.58263 1.82792,1.58263 0.21761,0 -0.24886,-0.71218 -1.0366,-1.58263 z m -5.5392,-4.74787 c -0.78774,-0.87045 -1.6103,-1.58263 -1.82791,-1.58263 -0.21761,0 0.24886,0.71218 1.0366,1.58263 0.78774,0.87044 1.6103,1.58262 1.82792,1.58262 0.21761,0 -0.24886,-0.71218 -1.03661,-1.58262 z M 525.426,203.83148 c 4.85378,-4.33686 3.54327,-14.60969 -2.13938,-16.77024 -2.75754,-1.04841 -3.73548,-0.97467 -5.5339,0.41732 -1.28352,0.99346 -1.3081,1.10953 -0.14947,0.70598 6.06411,-2.11212 10.00661,7.12786 5.78826,13.56587 -1.52468,2.32697 -5.4783,2.65456 -7.70601,0.63852 -0.79591,-0.72029 -1.4471,-0.92418 -1.4471,-0.45309 0,1.50324 4.09,4.13664 6.42473,4.13664 1.35759,0 3.25272,-0.8917 4.76287,-2.241 z m -13.75937,-18.04759 c 2.05549,-2.31198 2.15602,-2.65949 0.76935,-2.65949 -1.4318,0 -4.00827,3.21095 -3.21212,4.00312 0.36427,0.36245 1.46352,-0.24217 2.44277,-1.34363 z M 454.0986,138.41521 c 0,-0.65283 -0.13996,-1.18697 -0.311,-1.18697 -0.17105,0 -0.51596,0.53414 -0.76648,1.18697 -0.25051,0.65283 -0.11056,1.18697 0.31099,1.18697 0.42157,0 0.76649,-0.53414 0.76649,-1.18697 z M 568.98738,107.4091 c -0.57123,-0.22859 -1.25374,-0.20048 -1.51669,0.0625 -0.26294,0.26295 0.20443,0.44997 1.0386,0.41561 0.92184,-0.038 1.10934,-0.22547 0.47809,-0.47808 z"
       id="path3032"
       inkscape:connector-curvature="0" />
  </g>
  <path
     style="fill:#333333"
     d="m 247.49344,335.66703 c -1.78474,-0.0354 -5.22913,-0.31927 -6.386,-0.52629 -1.40953,-0.25223 -2.50684,-0.64705 -2.6404,-0.95007 -0.0967,-0.21928 0.37338,-1.17746 1.93808,-3.95067 0.8449,-1.49748 1.12496,-2.15656 1.40893,-3.31578 0.87893,-3.58801 1.39773,-7.39119 1.91064,-14.00659 0.35538,-4.58345 0.65402,-7.58946 0.98202,-9.88424 0.22753,-1.59186 0.23276,-2.00123 0.0506,-3.96091 -0.13179,-1.41739 -0.38119,-2.94684 -0.70961,-4.35152 -1.25129,-5.35198 -1.46649,-7.08753 -1.40644,-11.3423 0.0239,-1.69455 0.0652,-3.24728 0.0918,-3.45054 0.0266,-0.20327 0.12914,-1.62805 0.22786,-3.16619 0.0987,-1.53813 0.20722,-3.0558 0.24111,-3.37262 l 0.0616,-0.57604 -0.60347,0.14043 c -0.33192,0.0772 -1.36158,0.10862 -2.28815,0.0697 -1.35126,-0.0567 -1.89689,-0.0198 -2.75702,0.18627 -2.42065,0.58001 -5.71737,1.86074 -11.35651,4.41182 -4.28016,1.93632 -8.13027,3.53304 -10.34667,4.29101 -2.57178,0.87949 -4.76278,1.10849 -8.36764,0.87456 -2.88494,-0.18721 -4.23726,-0.0666 -5.41476,0.48286 -0.94838,0.44255 -1.43808,1.02662 -2.15709,2.57278 -1.46607,3.15271 -1.48235,3.16908 -3.81377,3.83728 -2.19016,0.62771 -2.4782,0.86737 -3.14868,2.61977 -0.55897,1.46097 -0.64438,1.77476 -0.87378,3.21012 -0.36463,2.28142 -0.37012,4.07013 -0.0261,8.49065 0.58394,7.50292 1.86871,12.50693 4.98236,19.4056 1.61417,3.57639 1.51988,3.44965 4.3486,5.84543 1.17858,0.9982 2.64644,2.94195 2.79036,3.69501 0.2038,1.06644 -0.87364,2.69987 -2.29022,3.47203 -1.67462,0.91281 -3.43191,1.01635 -9.52304,0.56115 -1.72418,-0.12886 -4.18246,-0.2719 -5.46282,-0.31786 -1.28037,-0.046 -2.5427,-0.10269 -2.80518,-0.12604 l -0.47722,-0.0425 0.0371,-0.76236 c 0.1101,-2.26286 0.0508,-5.82328 -0.12484,-7.49035 -0.24555,-2.33106 -0.69943,-4.06808 -1.86458,-7.13587 -1.32218,-3.48126 -1.88647,-5.17977 -2.33716,-7.03487 -0.22176,-0.91278 -0.58382,-2.17562 -0.8046,-2.8063 -1.09063,-3.11567 -1.54981,-4.29724 -1.66704,-4.28966 -0.22082,0.0143 -1.16534,2.33897 -1.74307,4.29012 -0.82485,2.78579 -1.3968,4.6286 -1.67131,5.38484 -2.09008,5.7582 -3.23182,10.24833 -3.29746,12.96804 -0.023,0.95135 0.0342,1.26729 0.41465,2.2894 0.59598,1.60133 0.61031,2.06831 0.0816,2.66155 -0.66258,0.7435 -1.65582,1.04035 -3.51186,1.0496 -3.96745,0.0198 -5.47766,-0.0166 -6.73244,-0.16206 -1.7063,-0.1978 -6.03046,-0.99278 -6.19447,-1.13882 -0.12921,-0.11506 0.40548,-1.50961 1.34961,-3.51996 0.6104,-1.29978 3.81999,-9.08683 4.53927,-11.01314 1.54184,-4.12918 3.14159,-9.1664 4.06151,-12.7886 1.07218,-4.22176 2.24605,-10.50478 2.49602,-13.35973 0.0532,-0.60809 0.1359,-1.37197 0.1837,-1.69753 0.0755,-0.51398 0.26176,-3.86314 0.47868,-8.60581 0.0352,-0.76814 0.1387,-2.21092 0.23013,-3.20616 0.28604,-3.11341 0.0319,-4.69561 -1.10316,-6.86745 -0.26938,-0.51544 -0.58725,-1.38537 -0.70636,-1.93318 -0.444,-2.04197 -0.97397,-3.65877 -1.19462,-3.64452 -0.0486,0.003 -0.26095,-0.24698 -0.47177,-0.55584 -0.34945,-0.51193 -0.60804,-0.70613 -0.59233,-0.44482 0.003,0.0566 -0.0795,1.29867 -0.18434,2.76026 -0.18184,2.53616 -0.42239,7.02815 -0.70141,13.09758 -0.19194,4.17546 -0.58874,11.07722 -0.68515,11.91719 -0.0466,0.40609 -0.12766,1.26881 -0.18012,1.91716 -0.35294,4.36266 -0.80115,6.83732 -1.90203,10.50168 -0.93701,3.11891 -1.24366,4.2757 -1.44523,5.45196 l -0.14314,0.83531 -0.11045,-1.67851 c -0.28419,-4.3184 0.0937,-8.52718 1.2054,-13.42493 1.07775,-4.74828 1.47145,-9.83993 1.52002,-19.65818 0.0327,-6.61884 -0.024,-10.38034 -0.26302,-17.42592 -0.25146,-7.41328 -0.10127,-10.18354 0.84527,-15.59201 0.51157,-2.923 0.74091,-3.97432 1.45946,-6.69035 3.61564,-13.6668 10.42131,-23.02155 20.14336,-27.68812 4.55694,-2.1873 9.35464,-3.2893 15.2719,-3.50782 4.81978,-0.178 7.79604,0.065 15.27498,1.24713 5.35659,0.84666 7.02024,0.88894 12.32022,0.31303 9.82704,-1.06784 16.41477,-2.9876 22.14486,-6.45336 2.65255,-1.60434 3.2915,-1.90085 5.79659,-2.68985 2.89824,-0.91282 7.46395,-1.63584 9.59424,-1.51931 2.93882,0.16076 9.99134,2.39651 13.25425,4.20179 1.04775,0.57968 2.31446,1.00041 3.32524,1.10442 0.27388,0.0282 1.9893,0.0561 3.81206,0.062 3.7676,0.0123 4.34627,0.0878 7.0244,0.91737 5.41416,1.67702 8.13256,3.24573 11.90981,6.87281 2.46478,2.3668 5.60981,6.37728 8.00862,10.21244 1.00798,1.61155 3.33369,5.6581 3.34325,5.81698 0.002,0.035 0.3206,0.66007 0.70774,1.38897 1.32065,2.4863 2.8349,5.76575 5.05076,10.93849 0.78972,1.84351 1.60261,3.73683 1.80642,4.20738 0.20383,0.47053 0.69354,1.62113 1.08827,2.55687 0.85778,2.03344 1.13325,2.43151 2.06332,2.98146 1.16444,0.68854 2.95529,0.99369 6.72788,1.14638 3.01064,0.12186 4.04511,0.25523 4.06125,0.52364 0.0279,0.46337 -0.62835,1.512 -1.19061,1.90261 -0.83836,0.58243 -1.68261,0.90779 -3.52977,1.36029 -2.69596,0.66044 -3.26227,0.81877 -4.23826,1.18492 -0.51334,0.19258 -0.93079,0.39302 -0.92765,0.44543 0.003,0.0524 0.58524,2.39945 1.29356,5.21564 1.7728,7.04858 2.8313,11.5857 4.49746,19.27773 2.34604,10.83072 4.33841,24.67956 5.58904,38.8488 0.28446,3.22283 0.63243,5.27811 1.07778,6.36571 0.13981,0.34149 0.25508,0.63508 0.25612,0.6524 0.001,0.0173 -0.26715,0.0542 -0.596,0.082 -0.32885,0.0277 -1.3001,0.36477 -2.15834,0.74899 -1.48553,0.66501 -2.22157,0.84984 -2.72806,0.68502 -0.29686,-0.0966 -0.33884,-0.81209 -0.13191,-2.24776 0.2775,-1.92525 -0.15957,-5.4446 -1.54403,-12.43275 -1.05695,-5.33497 -3.34253,-13.74492 -5.20146,-19.13907 -0.32982,-0.95705 -0.66304,-1.93388 -0.74048,-2.17073 -0.48219,-1.47456 -4.09031,-12.5383 -4.6114,-14.14009 -4.01111,-12.33009 -6.90175,-18.68195 -10.65973,-23.42353 -1.97128,-2.48724 -3.2275,-3.20538 -7.02708,-4.01711 -1.90157,-0.40626 -2.88326,-0.72947 -5.7683,-1.89918 -3.18568,-1.29161 -4.56233,-1.71206 -5.64989,-1.72555 -0.94327,-0.0117 -0.95266,-0.008 -1.08463,0.41932 -0.10233,0.33148 -0.0577,0.8159 0.19326,2.0957 0.39186,1.99866 0.48064,3.19823 0.26213,3.54184 -0.25584,0.40233 -4.7717,1.59552 -6.92951,1.83094 -1.47052,0.16043 -2.06573,0.15466 -3.60768,-0.035 -2.52842,-0.31101 -6.79755,-0.0692 -7.92431,0.44879 -1.00268,0.46099 -1.58117,1.06982 -1.96561,2.06869 -0.4538,1.17908 -0.57904,2.58649 -0.54834,6.16218 0.0366,4.26541 0.24738,5.18541 2.61163,11.4004 0.78041,2.05149 1.7407,4.79755 2.13396,6.10235 1.5693,5.20674 2.30591,6.75709 7.70302,16.21231 2.52818,4.42913 3.52099,6.40711 4.56075,9.0864 1.14258,2.94419 1.55477,4.63994 1.80653,7.4321 0.12424,1.3779 0.30507,2.58348 0.44206,2.94724 0.33426,0.88757 1.0053,1.59152 2.6178,2.74614 1.86249,1.33364 3.32825,2.64963 5.73119,5.14564 l 1.96905,2.0453 -0.64482,0.77932 c -0.84672,1.02327 -2.60778,2.74567 -3.45768,3.38175 -2.70612,2.0253 -5.0511,2.58168 -9.93669,2.35761 -1.14803,-0.0526 -3.02176,-0.0821 -4.16386,-0.0655 -1.14209,0.0166 -2.1131,-0.003 -2.1578,-0.0441 -0.0447,-0.0409 -0.20984,-1.1573 -0.367,-2.48089 -0.64744,-5.45286 -1.67422,-9.28794 -3.65731,-13.66019 -1.10116,-2.42783 -1.72683,-3.52357 -3.12841,-5.47871 -1.32419,-1.84719 -2.39584,-3.52923 -3.69934,-5.80647 -1.1933,-2.08471 -2.81071,-4.44533 -4.27971,-6.24626 -1.00021,-1.22621 -2.18323,-2.39479 -2.28907,-2.26113 -0.0293,0.037 -0.39872,1.24384 -0.82101,2.68196 -0.7548,2.57043 -1.06259,3.74514 -2.73462,10.43722 -0.69528,2.78281 -1.06498,3.91454 -2.17671,6.66342 -1.9916,4.92441 -2.50406,6.82505 -2.16459,8.0281 0.15969,0.56598 0.82862,1.54932 1.24256,1.82661 0.24649,0.16511 3.18675,3.44733 3.76265,4.20025 0.30205,0.39487 1.32171,2.68106 1.34132,3.00736 0.008,0.12787 -0.72356,0.31791 -3.68934,0.9588 -1.35176,0.29209 -7.63769,0.86977 -9.14019,0.83997 z"
     id="path1368"
     inkscape:connector-curvature="0" />
  <rect
     style="fill:#333333;fill-opacity:1;fill-rule:nonzero;stroke:#333333;stroke-width:1;stroke-linecap:butt;stroke-linejoin:miter;stroke-miterlimit:4;stroke-opacity:1;stroke-dasharray:none;stroke-dashoffset:0;marker:none;visibility:visible;display:inline;overflow:visible;enable-background:accumulate"
     id="rect3288"
     width="595.211"
     height="94.872337"
     x="20.329794"
     y="333.79788" />
  <g
     id="g4861"
     transform="matrix(3.4381402e-2,0,0,3.4381402e-2,14.873752,276.71139)">
    <path
       d="M 1517.0576,3418.3751 C 1508.8429,3712.0652 1519.1217,4007.8016 1547.8584,4079.6761 C 1576.6129,4151.5506 1638.1493,4291.3494 1849.7573,4246.0171 C 2026.5432,4208.1166 2090.8672,4134.7712 2118.7796,3972.8786 C 2139.3372,3853.7679 2178.9695,3522.9721 2184.0526,3455.1961"
       id="path2493"
       style="fill:none;fill-rule:nonzero;stroke:#ffffff;stroke-width:73.93321228;stroke-linecap:round;stroke-linejoin:round;stroke-miterlimit:4" />
    <path
       d="M 1263.4269,1946.0809 C 1263.4269,1946.0809 305.41085,1554.5257 349.94835,2444.9497 C 359.42045,2634.3809 621.47355,3878.3113 934.01305,3502.5806 C 1048.2245,3365.178 1151.5167,3257.4137 1151.5167,3257.4137"
       id="path2495"
       style="fill:none;fill-rule:nonzero;stroke:#ffffff;stroke-width:73.93299866;stroke-linecap:round;stroke-linejoin:round;stroke-miterlimit:4;stroke-dasharray:none" />
    <path
       d="M 1780.8959,1874.6157 C 1747.7345,1885.0131 2313.8039,1667.6815 2635.5072,2078.7504 C 2749.1434,2223.9703 2617.4585,2817.2996 2302.4516,3284.7388"
       id="path2497"
       style="fill:none;fill-rule:nonzero;stroke:#ffffff;stroke-width:73.93321228;stroke-linecap:round;stroke-linejoin:round;stroke-miterlimit:4" />
    <path
       style="fill:none;fill-opacity:1;fill-rule:nonzero;stroke:#ffffff;stroke-width:73.93299866;stroke-linecap:round;stroke-linejoin:bevel;stroke-miterlimit:4;stroke-dasharray:none"
       d="M 2302.4456,3284.7388 C 2302.4456,3284.7388 2322.9736,3385.783 2621.3316,3324.1992 C 2752.0556,3297.2003 2673.3839,3399.9646 2540.8034,3461.5365 C 2431.9953,3512.0349 2188.0502,3524.9768 2184.0645,3455.1961 C 2173.8094,3275.154 2312.4575,3329.8517 2302.4516,3284.7388 C 2293.4064,3244.11 2231.4015,3204.2344 2190.3871,3104.7976 C 2154.5804,3018.0061 1699.3061,2352.4286 2316.645,2451.2783 C 2339.2607,2446.5985 2155.6361,1864.0759 1577.8941,1854.6038 C 1000.2825,1845.1316 1019.2328,2564.9382 1019.2328,2564.9382"
       id="path2499" />
    <path
       d="M 1355.3608,3346.3108 C 1274.8326,3436.2636 1298.516,3452.0585 1137.5487,3485.2021 C 974.68345,3518.7728 1070.3717,3578.5179 1132.8215,3594.1289 C 1208.5513,3613.0791 1383.7535,3639.906 1502.1346,3474.1463 C 1538.1846,3423.6776 1501.9211,3343.1494 1452.4014,3322.6215 C 1428.4749,3312.7104 1396.4819,3300.2905 1355.3608,3346.3108 L 1355.3608,3346.3108 z"
       id="path2501"
       style="fill:none;fill-rule:nonzero;stroke:#ffffff;stroke-width:73.93321228;stroke-linecap:round;stroke-linejoin:round;stroke-miterlimit:4" />
    <path
       d="M 1350.0879,3344.739 C 1341.974,3291.8503 1367.4664,3228.9142 1394.7856,3155.2841 C 1435.8414,3044.8092 1530.5689,2934.3166 1454.7917,2583.8766 C 1398.3087,2322.731 1019.4641,2529.5288 1019.2268,2564.9382 C 1018.9955,2600.3357 1036.3621,2744.4168 1012.8982,2912.1991 C 982.28135,3131.1381 1152.2106,3316.3048 1347.8874,3297.3605"
       id="path2503"
       style="fill:none;fill-rule:nonzero;stroke:#ffffff;stroke-width:73.93321228;stroke-linecap:round;stroke-linejoin:round;stroke-miterlimit:4;stroke-opacity:1" />
    <path
       style="fill:#ffffff;fill-rule:nonzero;stroke:#ffffff;stroke-width:24.644207;stroke-linecap:butt;stroke-linejoin:miter;stroke-miterlimit:4"
       d="M 1259.9453,2559.6297 C 1258.2371,2571.7235 1282.0865,2603.9953 1313.1839,2608.3072 C 1344.2279,2612.637 1370.7997,2587.4175 1372.4842,2575.3356 C 1374.1686,2563.2419 1350.3489,2549.9203 1319.2396,2545.5906 C 1288.1779,2541.2548 1261.5941,2547.5657 1259.9512,2559.6297 L 1259.9453,2559.6297 z"
       id="path2505" />
    <path
       style="fill:#ffffff;fill-rule:nonzero;stroke:#ffffff;stroke-width:12.3221035;stroke-linecap:butt;stroke-linejoin:miter;stroke-miterlimit:4"
       d="M 2205.5236,2534.9737 C 2207.2081,2547.0674 2183.3883,2579.3392 2152.285,2583.6512 C 2121.2173,2587.981 2094.6454,2562.7614 2092.9432,2550.6795 C 2091.3002,2538.5858 2115.1259,2525.2643 2146.1996,2520.9345 C 2177.2732,2516.6047 2203.8391,2522.9096 2205.5236,2534.9796 L 2205.5236,2534.9737 z"
       id="path2507" />
    <path
       d="M 2316.645,2451.2783 C 2321.7636,2546.1422 2296.2119,2610.7568 2292.9913,2711.7417 C 2288.2226,2858.5275 2362.9737,3026.5352 2250.3399,3194.7504"
       id="path2509"
       style="fill:none;fill-rule:nonzero;stroke:#ffffff;stroke-width:73.93321228;stroke-linecap:round;stroke-linejoin:round;stroke-miterlimit:4" />
  </g>
  <flowRoot
     xml:space="preserve"
     id="flowRoot3627"
     style="font-size:20px;font-style:normal;font-variant:normal;font-weight:normal;font-stretch:normal;text-align:center;line-height:100%;writing-mode:lr-tb;text-anchor:middle;fill:#333333;fill-opacity:1;stroke:none;font-family:suruma;-inkscape-font-specification:suruma"
     transform="translate(43.515027,-4.4164464)"><flowRegion
       id="flowRegion3629"><rect
         id="rect3631"
         width="493.56204"
         height="35.012413"
         x="32.753548"
         y="34.498226"
         style="font-size:20px;font-style:normal;font-variant:normal;font-weight:normal;font-stretch:normal;text-align:center;line-height:100%;writing-mode:lr-tb;text-anchor:middle;fill:#333333;font-family:suruma;-inkscape-font-specification:suruma" /></flowRegion><flowPara
       id="flowPara3633">PostgreSQL Europe presents :</flowPara></flowRoot>  <flowRoot
     xml:space="preserve"
     id="flowRoot3635"
     style="font-size:39.90292358px;font-style:normal;font-variant:normal;font-weight:normal;font-stretch:normal;text-align:start;line-height:100%;writing-mode:lr-tb;text-anchor:start;fill:#333333;fill-opacity:1;stroke:none;font-family:suruma;-inkscape-font-specification:suruma"
     transform="matrix(1.0427717,0,0,1.3475843,3.2225795,-20.275159)"><flowRegion
       id="flowRegion3637"><rect
         id="rect3639"
         width="591.85388"
         height="46.360184"
         x="31.624113"
         y="62.734043"
         style="font-size:39.90292358px;font-style:normal;font-variant:normal;font-weight:normal;font-stretch:normal;text-align:start;line-height:100%;writing-mode:lr-tb;text-anchor:start;fill:#333333;font-family:suruma;-inkscape-font-specification:suruma" /></flowRegion><flowPara
       id="flowPara3641"
       style="font-size:34.20250702px"><flowSpan
   style="font-size:34.20250702px;font-weight:bold;-inkscape-font-specification:suruma Bold"
   id="flowSpan3089">PostgreSQL Conference Europe</flowSpan> 2011</flowPara></flowRoot>  <flowRoot
     xml:space="preserve"
     id="flowRoot3643"
     style="font-size:32px;font-style:normal;font-variant:normal;font-weight:normal;font-stretch:normal;text-align:start;line-height:100%;writing-mode:lr-tb;text-anchor:start;fill:#333333;fill-opacity:1;stroke:none;font-family:suruma;-inkscape-font-specification:suruma"
     transform="matrix(1.2252486,0,0,1.2252486,-8.4951689,13.063217)"><flowRegion
       id="flowRegion3645"><rect
         id="rect3647"
         width="468.71454"
         height="50.824467"
         x="35.012413"
         y="96.61702"
         style="font-size:32px;font-style:normal;font-variant:normal;font-weight:normal;font-stretch:normal;text-align:start;line-height:100%;writing-mode:lr-tb;text-anchor:start;fill:#333333;font-family:suruma;-inkscape-font-specification:suruma" /></flowRegion><flowPara
       id="flowPara3649"
       style="font-size:31.13756752px">Amsterdam, October 18-21</flowPara></flowRoot>  <rect
     style="fill:#333333;fill-opacity:1;fill-rule:nonzero;stroke:#333333;stroke-width:0.15681568;stroke-linecap:butt;stroke-linejoin:miter;stroke-miterlimit:4;stroke-opacity:1;stroke-dasharray:none;stroke-dashoffset:0;marker:none;visibility:visible;display:inline;overflow:visible;enable-background:accumulate"
     id="rect3288-2"
     width="14.636929"
     height="94.872337"
     x="600.90387"
     y="281.84396" />
  <flowRoot
     xml:space="preserve"
     id="flowRoot3651"
     style="font-size:26px;font-style:normal;font-variant:normal;font-weight:normal;font-stretch:normal;text-align:start;line-height:100%;writing-mode:lr-tb;text-anchor:start;fill:#ffffff;fill-opacity:1;stroke:none;font-family:suruma;-inkscape-font-specification:suruma"
     transform="translate(0,-2)"><flowRegion
       id="flowRegion3653"><rect
         id="rect3655"
         width="487.91489"
         height="29.365248"
         x="123.10815"
         y="348.4805"
         style="font-size:26px;font-style:normal;font-variant:normal;font-weight:normal;font-stretch:normal;text-align:start;line-height:100%;writing-mode:lr-tb;text-anchor:start;fill:#ffffff;font-family:suruma;-inkscape-font-specification:suruma" /></flowRegion><flowPara
       id="flowPara3657">The annual European PostgreSQL meeting</flowPara><flowPara
       id="flowPara3097" /></flowRoot>  <flowRoot
     xml:space="preserve"
     id="flowRoot3659"
     style="font-size:26px;font-style:normal;font-variant:normal;font-weight:normal;font-stretch:normal;text-align:start;line-height:100%;writing-mode:lr-tb;text-anchor:start;fill:#ffffff;fill-opacity:1;stroke:none;font-family:suruma;-inkscape-font-specification:suruma"
     transform="translate(2.3958884,22.389036)"><flowRegion
       id="flowRegion3661"><rect
         id="rect3663"
         width="487.16397"
         height="42.327362"
         x="122.98894"
         y="379.51923"
         style="font-size:26px;font-style:normal;font-variant:normal;font-weight:normal;font-stretch:normal;text-align:start;line-height:100%;writing-mode:lr-tb;text-anchor:start;fill:#ffffff;font-family:suruma;-inkscape-font-specification:suruma" /></flowRegion><flowPara
       id="flowPara3665">More info at http://www.pgconf.eu</flowPara></flowRoot>  <flowRoot
     xml:space="preserve"
     id="flowRoot3659-6"
     style="font-size:26px;font-style:normal;font-variant:normal;font-weight:normal;font-stretch:normal;text-align:start;line-height:100%;writing-mode:lr-tb;text-anchor:start;fill:#ffffff;fill-opacity:1;stroke:none;font-family:suruma;-inkscape-font-specification:suruma"
     transform="matrix(0.75672731,0,0,0.69602094,31.368301,105.7072)"><flowRegion
       id="flowRegion3661-1"><rect
         id="rect3663-0"
         width="687.07355"
         height="28.209454"
         x="122.98894"
         y="379.51923"
         style="font-size:26px;font-style:normal;font-variant:normal;font-weight:normal;font-stretch:normal;text-align:start;line-height:100%;writing-mode:lr-tb;text-anchor:start;fill:#ffffff;font-family:suruma;-inkscape-font-specification:suruma" /></flowRegion><flowPara
       id="flowPara3126">Talks and workshops in English, Dutch, French &amp; German</flowPara></flowRoot></svg>
