<?xml version="1.0" encoding="utf-8"?>
<!-- Generator: Adobe Illustrator 19.2.1, SVG Export Plug-In . SVG Version: 6.00 Build 0)  -->
<svg version="1.1" id="Calque_1" xmlns="http://www.w3.org/2000/svg" xmlns:xlink="http://www.w3.org/1999/xlink" x="0px" y="0px"
	 viewBox="0 0 841.9 1190.6" style="enable-background:new 0 0 841.9 1190.6;" xml:space="preserve">
<style type="text/css">
	.st0{fill:#FAB63D;}
	.st1{fill:#FFFFFF;stroke:#FAB63D;stroke-width:20.3905;stroke-miterlimit:10;}
	.st2{fill:#FFFFFF;}
	.st3{fill:none;stroke:#FAB63D;stroke-width:1.5248;stroke-miterlimit:10;}
	.st4{fill:#346893;stroke:#346893;stroke-width:19.199;}
	.st5{fill:none;stroke:#FFFFFF;stroke-width:6.3997;stroke-linecap:round;stroke-linejoin:round;}
	.st6{fill:none;stroke:#FFFFFF;stroke-width:6.3997;stroke-linecap:round;stroke-linejoin:bevel;}
	.st7{fill:#FFFFFF;stroke:#FFFFFF;stroke-width:2.1332;}
	.st8{fill:#FFFFFF;stroke:#FFFFFF;stroke-width:1.0666;}
	.st9{fill:none;stroke:#FFFFFF;stroke-width:1.5402;stroke-linecap:round;stroke-linejoin:round;}
	.st10{fill:#346893;}
	.st11{fill:#356892;}
	.st12{font-family:'MerriweatherSans-ExtraBold';}
	.st13{font-size:70.4789px;}
	.st14{font-size:54.2977px;}
	.st15{font-family:'MerriweatherSans-Regular';}
	.st16{fill:none;stroke:#346893;stroke-width:22.1195;stroke-miterlimit:10;}
	.st17{fill:#346893;stroke:#346893;stroke-width:20.827;}
	.st18{fill:none;stroke:#FFFFFF;stroke-width:6.9423;stroke-linecap:round;stroke-linejoin:round;}
	.st19{fill:none;stroke:#FFFFFF;stroke-width:6.9423;stroke-linecap:round;stroke-linejoin:bevel;}
	.st20{fill:#FFFFFF;stroke:#FFFFFF;stroke-width:2.3141;}
	.st21{fill:#FFFFFF;stroke:#FFFFFF;stroke-width:1.157;}
	.st22{fill:none;stroke:#FFFFFF;stroke-width:1.6708;stroke-linecap:round;stroke-linejoin:round;}
	.st23{fill:#346893;stroke:#346893;stroke-width:4.5085;stroke-miterlimit:10;}
	.st24{stroke:#FFFFFF;stroke-width:18.9043;stroke-miterlimit:10;}
	.st25{stroke:#FFFFFF;stroke-width:17.9498;stroke-miterlimit:10;}
	.st26{fill:#FFFFFF;stroke:#FFFFFF;stroke-width:11.1821;stroke-miterlimit:10;}
</style>
<path class="st10" d="M629.8,717.9 M420.9,807.6c-57.3,0-66.7-31.7-103.7-27.9c-86.3,8.7-105.2-61.3-105.2-61.3
	c0-0.2,0.1-0.3,0.1-0.5l-0.1-7.3c45.6,32.6,129.3,56.5,208.9,56.5s163.3-23.9,208.9-56.5l-0.1,7.3c0,0.2,0.1,0.4,0.1,0.5
	c0,0-18.7,68.6-105.2,61.3C488.4,776.6,478.3,807.6,420.9,807.6z"/>
<path class="st10" d="M217.9,720.4c0,0-1.4,25.2-5.1,36.8c-5.2,16.3,16.9,15.3,13.3,0C223.3,745.5,217.9,720.4,217.9,720.4z"/>
<text transform="matrix(1 0 0 1 132.8181 130.041)"><tspan x="0" y="0" class="st11 st12 st13">Happy birthday </tspan><tspan x="54.4" y="78.3" class="st11 st12 st13">PostgreSQL !</tspan></text>
<text transform="matrix(1 0 0 1 241.9841 1155.5811)"><tspan x="0" y="0" class="st11 st12 st14">1996 </tspan><tspan x="161.8" y="0" class="st11 st15 st14">-</tspan><tspan x="197.6" y="0" class="st11 st12 st14"> 2016</tspan></text>
<g>
	<ellipse class="st16" cx="420.9" cy="645.7" rx="226.7" ry="102.9"/>
	<path class="st16" d="M647.7,759.1c0,56.8-101.5,102.9-226.7,102.9s-226.7-46.1-226.7-102.9"/>
	<path class="st16" d="M647.7,871.9c0,56.8-101.5,102.9-226.7,102.9s-226.7-46.1-226.7-102.9"/>
	<path class="st16" d="M194.2,645.7v329c0,56.8,101.5,102.9,226.7,102.9s226.7-46.1,226.7-102.9v-329"/>
</g>
<g id="Layer_x0020_3_4_">
	<g>
		<path class="st17" d="M489.3,988.2c1.6-13.1,1.2-14.7,11.3-15.3c0.9-0.2,1.7-0.3,2.6-0.5c7.8-1.8,17.9-6.6,23.7-11.4
			c12.6-10.3,19.9-23,7.6-15.4c-28.3,16.2-30.6,6.4-30.5,6.7c30.5-51.3,42.4-111.7,31.9-120c-29-22.3-82.4,2.4-83.3,1.9
			c-0.1,0-0.2,0-0.3,0.1c-5.9-0.6-12.4-0.8-19.8-0.7c-13.5,0.1-23.7,3-31.4,7.7c0.1,0-24-10.6-46.7-15.3c-22.9-4-44.4-2.2-42.2,39.1
			c0.9,17.5,25.5,140.7,56.4,112.5c11.2-10.2,22.2-19.6,22.2-19.6c5.4,3.9,12,6.2,18.8,5.9c0.2-0.1,0.4-0.3,0.5-0.4
			c-0.2,1.5-0.1,3,0.2,4.9c-8,7.6-5.7,9.5-21.7,10.7c-16.1,0.8-6.7,7.6-0.5,9.8c7.5,2.8,25,6.5,36.8-8.6c-0.2,0.6-0.3,1.1-0.5,1.7
			c3.2,2.3,2.9,16.4,3.4,26.5c0.4,10.1,1.2,19.5,3.5,25.1c2.3,5.3,5,20.2,26,14C474.9,1042.5,488.1,1034.4,489.3,988.2"/>
		<path class="st18" d="M426.2,975.1c-0.8,26.6,0.2,53.4,3.1,59.8c2.9,6.3,9,19.4,30.1,13c17.5-5.6,23.8-14,26.6-29.1
			c2-11.2,5.9-42,6.4-48.3"/>
		<path class="st18" d="M400.9,840.9c0.1,0-24-10.5-46.7-15.2c-22.9-4-44.4-2.1-42.3,39.2c0.9,17.5,25.5,140.8,56.4,112.5
			c11.2-10.2,21.5-18.9,21.5-18.9"/>
		<path class="st18" d="M452.5,834c-3.3,2.3,53.2-24.9,83.2-1.8c10.6,8.3-1.4,68.8-31.9,120"/>
		<path class="st19" d="M503.8,952.2c-0.1-0.3,2.2,9.5,30.5-6.7c12.3-7.6,5,5-7.6,15.4c-10.3,8.7-34,16.2-34.4,9.8
			C491.3,954.6,504.8,956.1,503.8,952.2c-0.9-3.4-6.9-5.4-10.9-13.5c-3.6-7.3-48.1-57.6,12.3-62.4c2.1-2.3-15.2-45.1-73-42.9
			c-57.7-1.7-55.5,59.3-55.6,60.6"/>
		<path class="st18" d="M410.1,968.3c-8,7.6-5.7,9.5-21.7,10.7c-16.1,0.8-6.7,7.6-0.5,9.8c7.5,2.8,25,6.6,36.8-8.6
			c3.6-4.6,0-11.8-5-13.8C417.4,965.5,414.2,964.3,410.1,968.3L410.1,968.3z"/>
		<path class="st18" d="M409.5,968.1c-0.8-4.8,1.7-10.4,4.5-17c4.1-9.8,13.6-19.8,6-51.6c-5.7-22.9-43.4-8.1-43.3-5.5
			c0,3.2,1.7,16.5-0.6,31.3c-3,19.3,13.7,39.2,33.3,38.5"/>
		<path class="st20" d="M400.6,896.4c-0.2,1.1,2.2,4.2,5.3,4.8c3.1,0.6,5.7-1.6,5.9-2.7c0.2-1.1-2.2-2.4-5.3-3
			C403.4,895,400.7,895.3,400.6,896.4C400.6,896.4,400.6,896.4,400.6,896.4z"/>
		<path class="st21" d="M494.4,886.8c0.2,1.1-2.2,4.6-5.2,5.6c-3,1.1-5.7-0.7-5.8-1.7c-0.2-1.1,2.2-2.7,5.2-3.8
			C491.6,885.8,494.2,885.7,494.4,886.8C494.4,886.8,494.4,886.8,494.4,886.8z"/>
		<path class="st18" d="M505.2,876.4c0.5,8.5-2,15-2.3,24.2c-0.5,13.4,6.8,26.7-4.1,44.8"/>
	</g>
</g>
<g id="Flame_4_">
	<g>
		<path class="st11" d="M351.2,234.4c-1.7-0.6-3.6-0.1-4.8,1.4c-1.1,1.5-1.2,3.5-0.1,5c0.2,0.3,18.8,28.3-4,56.1
			c-25.3,30.9-11.7,59.3,0.3,71.2c0.8,0.8,1.9,1.2,2.9,1.2c0,0,0,0,0,0c2.4-0.1,4.2-1.9,4.2-4.2c0-0.8-0.2-1.5-0.6-2.2
			c-0.8-2.6-1.5-10-1.5-14.1c0-8.6,3.5-14.6,7.2-18.5c-0.3,5.4,1.1,11.7,5.9,17.6c3.3,4,3.8,9.3,1.6,15.8c-0.6,1.8,0,3.7,1.5,4.8
			c1.5,1.1,3.5,1.1,5-0.1c7.2-5.7,30.9-26.7,30.9-60.1C399.9,253.5,351.7,234.6,351.2,234.4z M372.1,354.1c-0.4-4.3-2-8.3-4.8-11.7
			c-8.1-9.9-1.7-19.6-1.5-20c1-1.5,1-3.5-0.1-5c-0.8-1-2-1.6-3.3-1.6c-0.5,0-1,0.1-1.5,0.3c-0.9,0.3-21.4,8.4-21.6,32.5
			c-5.3-12.6-4.7-29.1,9.4-46.3c17-20.7,14.3-41.7,10-54.4c12.8,8.3,32.8,26.6,32.8,60.4C391.5,329.4,380.7,345.1,372.1,354.1z"/>
	</g>
</g>
<path class="st24" d="M353,653.2h53.6v35.6h-99.9v-35.6L370.1,450v-22.6c-0.5-9.9-4.9-14.5-12.9-13.8c-8.9,0.7-13.4,5.3-13.4,14
	v21.8h-37.6v-33.1c1.2-8.5,3.8-15.8,7.8-21.8c9.7-14.4,25.6-21.2,47.7-20.3c8.9,0.7,16.6,2.7,23,6c15.3,7.9,23,21.8,23,41.5
	l-0.4,42.2L353,653.2z"/>
<path class="st25" d="M518.8,395.8c2.5,4.6,4.6,9.8,6.2,15.8v217.1c0,19.8-7.5,33.4-22.6,41c-6.2,3.1-13.7,4.9-22.4,5.3
	c-16.4,0.1-29.1-6.4-38.2-19.5c-3.9-5.5-6.9-12-9-19.7V416.3c0-6.5,2.8-14.4,8.4-23.8c7.9-12.2,20.7-18.3,38.2-18.3
	c6.2,0,12.1,0.7,17.6,2.1C505.6,378.2,512.9,384.7,518.8,395.8z M490.9,627.2V418.6c-2.1-6.6-6-9.8-11.9-9.4
	c-7.4-0.8-11.6,2.3-12.7,9.4l-0.6,209.1c1.2,8.6,5.3,12.7,12.5,12.5C486.1,639.2,490.3,634.9,490.9,627.2z"/>
<g>
	<path class="st11" d="M354.5,345.1c0,0,0,0.1-0.1,0.4c0,0.3-0.1,0.6-0.2,1.1c-0.1,0.9-0.3,2.3-0.2,3.9c0,0.8,0.1,1.7,0.2,2.6
		c0.1,0.9,0.3,1.9,0.6,2.8c0.3,1,0.6,2,1,2.9c0.4,1,0.9,1.9,1.4,2.9l0.8,1.4c0.3,0.4,0.6,1.1,0.8,1.6c0.5,1.1,0.7,2.3,0.9,3.4
		c0.1,1.1,0.2,2.3,0,3.3c-0.1,1-0.3,2-0.5,2.9c-0.5,1.7-1,3.1-1.4,4.1c-0.4,0.9-0.7,1.5-0.7,1.5l0,0c-0.4,0.8-1.4,1.1-2.2,0.7
		s-1.1-1.4-0.7-2.2c0,0,0-0.1,0-0.1c0,0,0.3-0.5,0.7-1.3c0.4-0.8,1-2,1.5-3.5c0.2-0.7,0.4-1.5,0.6-2.4c0.1-0.9,0.2-1.8,0.1-2.7
		c-0.1-0.9-0.2-1.9-0.6-2.8c-0.2-0.5-0.3-0.9-0.6-1.4l-0.7-1.5c-0.5-1-0.9-2.1-1.3-3.2c-0.4-1.1-0.7-2.2-0.9-3.2
		c-0.2-1.1-0.4-2.1-0.4-3.1c-0.1-1-0.1-1.9-0.1-2.8c0-1.7,0.3-3.1,0.5-4.1c0.1-0.5,0.2-0.9,0.2-1.1c0.1-0.3,0.1-0.4,0.1-0.4
		c0.1-0.4,0.4-0.6,0.8-0.5C354.4,344.5,354.6,344.8,354.5,345.1z"/>
</g>
<g id="Flame_1_">
	<g>
		<path class="st11" d="M473.5,234.4c-1.7-0.6-3.6-0.1-4.8,1.4c-1.1,1.5-1.2,3.5-0.1,5c0.2,0.3,18.8,28.3-4,56.1
			c-25.3,30.9-11.7,59.3,0.3,71.2c0.8,0.8,1.9,1.2,2.9,1.2c0,0,0,0,0,0c2.4-0.1,4.2-1.9,4.2-4.2c0-0.8-0.2-1.5-0.6-2.2
			c-0.8-2.6-1.5-10-1.5-14.1c0-8.6,3.5-14.6,7.2-18.5c-0.3,5.4,1.1,11.7,5.9,17.6c3.3,4,3.8,9.3,1.6,15.8c-0.6,1.8,0,3.7,1.5,4.8
			c1.5,1.1,3.5,1.1,5-0.1c7.2-5.7,30.9-26.7,30.9-60.1C522.1,253.5,474,234.6,473.5,234.4z M494.4,354.1c-0.4-4.3-2-8.3-4.8-11.7
			c-8.1-9.9-1.7-19.6-1.5-20c1-1.5,1-3.5-0.1-5c-0.8-1-2-1.6-3.3-1.6c-0.5,0-1,0.1-1.5,0.3c-0.9,0.3-21.4,8.4-21.6,32.5
			c-5.3-12.6-4.7-29.1,9.4-46.3c17-20.7,14.3-41.7,10-54.4c12.8,8.3,32.8,26.6,32.8,60.4C513.8,329.4,502.9,345.1,494.4,354.1z"/>
	</g>
</g>
<g>
	<path class="st11" d="M476.8,345.1c0,0,0,0.1-0.1,0.4c0,0.3-0.1,0.6-0.2,1.1c-0.1,0.9-0.3,2.3-0.2,3.9c0,0.8,0.1,1.7,0.2,2.6
		c0.1,0.9,0.3,1.9,0.6,2.8c0.3,1,0.6,2,1,2.9c0.4,1,0.9,1.9,1.4,2.9l0.8,1.4c0.3,0.4,0.6,1.1,0.8,1.6c0.5,1.1,0.7,2.3,0.9,3.4
		c0.1,1.1,0.2,2.3,0,3.3c-0.1,1-0.3,2-0.5,2.9c-0.5,1.7-1,3.1-1.4,4.1c-0.4,0.9-0.7,1.5-0.7,1.5l0,0c-0.4,0.8-1.4,1.1-2.2,0.7
		c-0.8-0.4-1.1-1.4-0.7-2.2c0,0,0-0.1,0-0.1c0,0,0.3-0.5,0.7-1.3c0.4-0.8,1-2,1.5-3.5c0.2-0.7,0.4-1.5,0.6-2.4
		c0.1-0.9,0.2-1.8,0.1-2.7c-0.1-0.9-0.2-1.9-0.6-2.8c-0.2-0.5-0.3-0.9-0.6-1.4l-0.7-1.5c-0.5-1-0.9-2.1-1.3-3.2
		c-0.4-1.1-0.7-2.2-0.9-3.2c-0.2-1.1-0.4-2.1-0.4-3.1c-0.1-1-0.1-1.9-0.1-2.8c0-1.7,0.3-3.1,0.5-4.1c0.1-0.5,0.2-0.9,0.2-1.1
		c0.1-0.3,0.1-0.4,0.1-0.4c0.1-0.4,0.4-0.6,0.8-0.5C476.6,344.5,476.8,344.8,476.8,345.1z"/>
</g>
<path class="st11" d="M353,653.2h53.6v35.6h-99.9v-35.6L370.1,450v-22.6c-0.5-9.9-4.9-14.5-12.9-13.8c-8.9,0.7-13.4,5.3-13.4,14
	v21.8h-37.6v-33.1c1.2-8.5,3.8-15.8,7.8-21.8c9.7-14.4,25.6-21.2,47.7-20.3c8.9,0.7,16.6,2.7,23,6c15.3,7.9,23,21.8,23,41.5
	l-0.4,42.2L353,653.2z"/>
<path class="st11" d="M518.8,395.8c2.5,4.6,4.6,9.8,6.2,15.8v217.1c0,19.8-7.5,33.4-22.6,41c-6.2,3.1-13.7,4.9-22.4,5.3
	c-16.4,0.1-29.1-6.4-38.2-19.5c-3.9-5.5-6.9-12-9-19.7V416.3c0-6.5,2.8-14.4,8.4-23.8c7.9-12.2,20.7-18.3,38.2-18.3
	c6.2,0,12.1,0.7,17.6,2.1C505.6,378.2,512.9,384.7,518.8,395.8z M490.9,627.2V418.6c-2.1-6.6-6-9.8-11.9-9.4
	c-7.4-0.8-11.6,2.3-12.7,9.4l-0.6,209.1c1.2,8.6,5.3,12.7,12.5,12.5C486.1,639.2,490.3,634.9,490.9,627.2z"/>
</svg>
