<?xml version="1.0" encoding="utf-8"?>
<!-- Generator: Adobe Illustrator 19.2.1, SVG Export Plug-In . SVG Version: 6.00 Build 0)  -->
<svg version="1.1" id="Calque_1" xmlns="http://www.w3.org/2000/svg" xmlns:xlink="http://www.w3.org/1999/xlink" x="0px" y="0px"
	 viewBox="0 0 841.9 1190.6" style="enable-background:new 0 0 841.9 1190.6;" xml:space="preserve">
<style type="text/css">
	.st0{fill:#FAB63D;}
	.st1{fill:#FFFFFF;stroke:#FAB63D;stroke-width:20.3905;stroke-miterlimit:10;}
	.st2{fill:#FFFFFF;}
	.st3{fill:none;stroke:#FAB63D;stroke-width:1.5248;stroke-miterlimit:10;}
	.st4{fill:#346893;stroke:#346893;stroke-width:19.199;}
	.st5{fill:none;stroke:#FFFFFF;stroke-width:6.3997;stroke-linecap:round;stroke-linejoin:round;}
	.st6{fill:none;stroke:#FFFFFF;stroke-width:6.3997;stroke-linecap:round;stroke-linejoin:bevel;}
	.st7{fill:#FFFFFF;stroke:#FFFFFF;stroke-width:2.1332;}
	.st8{fill:#FFFFFF;stroke:#FFFFFF;stroke-width:1.0666;}
	.st9{fill:none;stroke:#FFFFFF;stroke-width:1.5402;stroke-linecap:round;stroke-linejoin:round;}
	.st10{fill:#346893;}
	.st11{fill:#356892;}
	.st12{fill:none;stroke:#346893;stroke-width:22.1195;stroke-miterlimit:10;}
	.st13{fill:#346893;stroke:#346893;stroke-width:20.827;}
	.st14{fill:none;stroke:#FFFFFF;stroke-width:6.9423;stroke-linecap:round;stroke-linejoin:round;}
	.st15{fill:none;stroke:#FFFFFF;stroke-width:6.9423;stroke-linecap:round;stroke-linejoin:bevel;}
	.st16{fill:#FFFFFF;stroke:#FFFFFF;stroke-width:2.3141;}
	.st17{fill:#FFFFFF;stroke:#FFFFFF;stroke-width:1.157;}
	.st18{fill:none;stroke:#FFFFFF;stroke-width:1.6708;stroke-linecap:round;stroke-linejoin:round;}
	.st19{font-family:'Knile-RegularItalic';}
	.st20{font-size:34.2738px;}
	.st21{fill:#346893;stroke:#346893;stroke-width:4.5085;stroke-miterlimit:10;}
	.st22{font-size:132.5458px;}
	.st23{letter-spacing:3;}
	.st24{stroke:#FFFFFF;stroke-width:18.9043;stroke-miterlimit:10;}
	.st25{stroke:#FFFFFF;stroke-width:17.9498;stroke-miterlimit:10;}
	.st26{fill:#FFFFFF;stroke:#FFFFFF;stroke-width:11.1821;stroke-miterlimit:10;}
</style>
<rect x="-14.2" y="-14" class="st0" width="870.2" height="1218.6"/>
<g>
	<path class="st1" d="M203.6,749.5v303.3c0,52.4,93.6,94.8,209,94.8s209-42.5,209-94.8V749.5"/>
	<ellipse class="st1" cx="412.6" cy="749.5" rx="209" ry="94.8"/>
	<path class="st1" d="M621.6,854c0,52.4-93.6,94.8-209,94.8s-209-42.5-209-94.8"/>
	<path class="st1" d="M621.6,958c0,52.4-93.6,94.8-209,94.8s-209-42.5-209-94.8"/>
</g>
<g>
	<g>
		<path class="st0" d="M282.9,743.7c-9.4,0-19-2.9-19-9.3c0-19.6,1.6-205.8,1.6-207.7l0-0.8l17.3-14.1l17.3,14.1l0,0.8
			c0,1.9,1.6,187.3,1.6,207.7C301.8,740.9,292.3,743.7,282.9,743.7z"/>
		<path class="st2" d="M282.9,514.1l15.5,12.7c0,0,1.6,187,1.6,207.6c0,5-8.6,7.5-17.2,7.5s-17.2-2.5-17.2-7.5
			c0-19.8,1.6-207.6,1.6-207.6L282.9,514.1 M282.9,509.5l-2.2,1.8L265.1,524l-1.3,1.1l0,1.7c0,1.9-1.6,188.1-1.6,207.7
			c0,8.2,11.2,11.1,20.7,11.1s20.7-2.9,20.7-11.1c0-20.4-1.6-205.8-1.6-207.7l0-1.7l-1.3-1.1l-15.5-12.7L282.9,509.5L282.9,509.5z"
			/>
	</g>
	<g>
		<path class="st0" d="M533.3,743.7c-9.4,0-19-2.9-19-9.3c0-19.6,1.6-205.8,1.6-207.7l0-0.8l17.3-14.1l17.3,14.1l0,0.8
			c0,1.9,1.6,187.3,1.6,207.7C552.3,740.9,542.8,743.7,533.3,743.7z"/>
		<path class="st2" d="M533.3,514.1l15.5,12.7c0,0,1.6,187,1.6,207.6c0,5-8.6,7.5-17.2,7.5s-17.2-2.5-17.2-7.5
			c0-19.8,1.6-207.6,1.6-207.6L533.3,514.1 M533.3,509.5l-2.2,1.8L515.5,524l-1.3,1.1l0,1.7c0,1.9-1.6,188.1-1.6,207.7
			c0,8.2,11.2,11.1,20.7,11.1s20.7-2.9,20.7-11.1c0-20.4-1.6-205.8-1.6-207.7l0-1.7l-1.3-1.1l-15.5-12.7L533.3,509.5L533.3,509.5z"
			/>
	</g>
</g>
<g id="Flame_17_">
	<g>
		<path class="st2" d="M279,421.7c-1.1-0.4-2.4-0.1-3.1,0.9c-0.7,0.9-0.8,2.3-0.1,3.2c0.1,0.2,12.2,18.3-2.6,36.3
			c-16.4,20-7.6,38.4,0.2,46.1c0.5,0.5,1.2,0.8,1.9,0.8c0,0,0,0,0,0c1.6,0,2.7-1.2,2.7-2.7c0-0.5-0.1-1-0.4-1.4
			c-0.5-1.7-1-6.5-1-9.1c0-5.6,2.3-9.4,4.7-12c-0.2,3.5,0.7,7.5,3.9,11.4c2.1,2.6,2.5,6,1,10.2c-0.4,1.1,0,2.4,1,3.1
			c1,0.7,2.3,0.7,3.2-0.1c4.7-3.7,20-17.3,20-38.9C310.5,434.1,279.3,421.8,279,421.7z M292.5,499.2c-0.3-2.8-1.3-5.4-3.1-7.6
			c-5.2-6.4-1.1-12.7-1-13c0.7-1,0.6-2.3-0.1-3.2c-0.5-0.7-1.3-1-2.1-1c-0.3,0-0.6,0.1-1,0.2c-0.6,0.2-13.9,5.5-14,21
			c-3.4-8.1-3.1-18.8,6.1-30c11-13.4,9.2-27,6.5-35.2c8.3,5.4,21.2,17.2,21.2,39.1C305.1,483.2,298.1,493.4,292.5,499.2z"/>
	</g>
	<g>
		<path class="st3" d="M279,421.7c-1.1-0.4-2.4-0.1-3.1,0.9c-0.7,0.9-0.8,2.3-0.1,3.2c0.1,0.2,12.2,18.3-2.6,36.3
			c-16.4,20-7.6,38.4,0.2,46.1c0.5,0.5,1.2,0.8,1.9,0.8c0,0,0,0,0,0c1.6,0,2.7-1.2,2.7-2.7c0-0.5-0.1-1-0.4-1.4
			c-0.5-1.7-1-6.5-1-9.1c0-5.6,2.3-9.4,4.7-12c-0.2,3.5,0.7,7.5,3.9,11.4c2.1,2.6,2.5,6,1,10.2c-0.4,1.1,0,2.4,1,3.1
			c1,0.7,2.3,0.7,3.2-0.1c4.7-3.7,20-17.3,20-38.9C310.5,434.1,279.3,421.8,279,421.7z M292.5,499.2c-0.3-2.8-1.3-5.4-3.1-7.6
			c-5.2-6.4-1.1-12.7-1-13c0.7-1,0.6-2.3-0.1-3.2c-0.5-0.7-1.3-1-2.1-1c-0.3,0-0.6,0.1-1,0.2c-0.6,0.2-13.9,5.5-14,21
			c-3.4-8.1-3.1-18.8,6.1-30c11-13.4,9.2-27,6.5-35.2c8.3,5.4,21.2,17.2,21.2,39.1C305.1,483.2,298.1,493.4,292.5,499.2z"/>
	</g>
</g>
<g id="Flame_13_">
	<g>
		<path class="st2" d="M531.1,421.7c-1.1-0.4-2.4-0.1-3.1,0.9c-0.7,0.9-0.8,2.3-0.1,3.2c0.1,0.2,12.2,18.3-2.6,36.3
			c-16.4,20-7.6,38.4,0.2,46.1c0.5,0.5,1.2,0.8,1.9,0.8c0,0,0,0,0,0c1.6,0,2.7-1.2,2.7-2.7c0-0.5-0.1-1-0.4-1.4
			c-0.5-1.7-1-6.5-1-9.1c0-5.6,2.3-9.4,4.7-12c-0.2,3.5,0.7,7.5,3.9,11.4c2.1,2.6,2.5,6,1,10.2c-0.4,1.1,0,2.4,1,3.1
			c1,0.7,2.3,0.7,3.2-0.1c4.7-3.7,20-17.3,20-38.9C562.6,434.1,531.5,421.8,531.1,421.7z M544.7,499.2c-0.3-2.8-1.3-5.4-3.1-7.6
			c-5.2-6.4-1.1-12.7-1-13c0.7-1,0.6-2.3-0.1-3.2c-0.5-0.7-1.3-1-2.1-1c-0.3,0-0.6,0.1-1,0.2c-0.6,0.2-13.9,5.5-14,21
			c-3.4-8.1-3.1-18.8,6.1-30c11-13.4,9.2-27,6.5-35.2c8.3,5.4,21.2,17.2,21.2,39.1C557.2,483.2,550.2,493.4,544.7,499.2z"/>
	</g>
	<g>
		<path class="st3" d="M531.1,421.7c-1.1-0.4-2.4-0.1-3.1,0.9c-0.7,0.9-0.8,2.3-0.1,3.2c0.1,0.2,12.2,18.3-2.6,36.3
			c-16.4,20-7.6,38.4,0.2,46.1c0.5,0.5,1.2,0.8,1.9,0.8c0,0,0,0,0,0c1.6,0,2.7-1.2,2.7-2.7c0-0.5-0.1-1-0.4-1.4
			c-0.5-1.7-1-6.5-1-9.1c0-5.6,2.3-9.4,4.7-12c-0.2,3.5,0.7,7.5,3.9,11.4c2.1,2.6,2.5,6,1,10.2c-0.4,1.1,0,2.4,1,3.1
			c1,0.7,2.3,0.7,3.2-0.1c4.7-3.7,20-17.3,20-38.9C562.6,434.1,531.5,421.8,531.1,421.7z M544.7,499.2c-0.3-2.8-1.3-5.4-3.1-7.6
			c-5.2-6.4-1.1-12.7-1-13c0.7-1,0.6-2.3-0.1-3.2c-0.5-0.7-1.3-1-2.1-1c-0.3,0-0.6,0.1-1,0.2c-0.6,0.2-13.9,5.5-14,21
			c-3.4-8.1-3.1-18.8,6.1-30c11-13.4,9.2-27,6.5-35.2c8.3,5.4,21.2,17.2,21.2,39.1C557.2,483.2,550.2,493.4,544.7,499.2z"/>
	</g>
</g>
<g id="Layer_x0020_3_6_">
	<g>
		<path class="st4" d="M475.6,1047.1c1.5-12.1,1.1-13.5,10.4-14.1c0.8-0.1,1.6-0.3,2.4-0.4c7.2-1.6,16.5-6.1,21.9-10.5
			c11.6-9.5,18.3-21.2,7-14.2c-26.1,15-28.2,5.9-28.1,6.2c28.1-47.3,39.1-103,29.4-110.7c-26.7-20.6-75.9,2.2-76.8,1.8
			c-0.1,0-0.2,0-0.3,0.1c-5.4-0.5-11.5-0.7-18.3-0.6c-12.4,0.1-21.8,2.8-29,7.1c0.1,0-22.1-9.8-43.1-14.1c-21.1-3.7-40.9-2-38.9,36
			c0.8,16.1,23.5,129.7,52,103.7c10.4-9.4,20.5-18,20.5-18c5,3.6,11,5.7,17.4,5.5c0.2-0.1,0.3-0.2,0.5-0.4c-0.2,1.4-0.1,2.8,0.2,4.5
			c-7.4,7-5.2,8.7-20,9.9c-14.9,0.8-6.1,7-0.4,9c6.9,2.6,23,6,33.9-8c-0.1,0.5-0.3,1.1-0.4,1.6c2.9,2.1,2.7,15.1,3.1,24.5
			c0.4,9.3,1.1,18,3.2,23.1c2.1,4.9,4.6,18.6,24,12.9C462.3,1097.1,474.5,1089.6,475.6,1047.1"/>
		<path class="st5" d="M417.4,1035c-0.8,24.5,0.2,49.2,2.8,55.2c2.6,5.8,8.3,17.9,27.7,12c16.2-5.2,22-12.9,24.5-26.8
			c1.9-10.3,5.4-38.8,5.9-44.5"/>
		<path class="st5" d="M394.1,911.3c0.1,0-22.1-9.7-43.1-14c-21.1-3.7-41-1.9-39,36.1c0.8,16.1,23.5,129.8,52,103.8
			c10.4-9.4,19.8-17.4,19.8-17.4"/>
		<path class="st5" d="M441.6,904.9c-3,2.1,49-23,76.7-1.7c9.8,7.7-1.3,63.4-29.4,110.6"/>
		<path class="st6" d="M489,1013.9c-0.1-0.3,2,8.8,28.2-6.2c11.3-7,4.6,4.7-7,14.2c-9.5,8.1-31.3,15-31.7,9
			C477.4,1016.1,489.9,1017.5,489,1013.9c-0.8-3.2-6.4-5-10.1-12.4c-3.3-6.7-44.4-53.1,11.3-57.5c1.9-2.1-14.1-41.6-67.2-39.6
			c-53.2-1.6-51.2,54.6-51.3,55.8"/>
		<path class="st5" d="M402.5,1028.7c-7.4,7-5.2,8.7-20,9.9c-14.9,0.8-6.1,7-0.4,9c6.9,2.6,23,6,33.9-7.9c3.3-4.2,0-10.9-4.6-12.7
			C409.2,1026.1,406.3,1025,402.5,1028.7L402.5,1028.7z"/>
		<path class="st5" d="M402,1028.5c-0.7-4.5,1.6-9.6,4.1-15.6c3.8-9.1,12.5-18.2,5.5-47.6c-5.2-21.1-40-7.4-39.9-5.1
			c0,2.9,1.6,15.2-0.6,28.9c-2.8,17.8,12.7,36.2,30.7,35.4"/>
		<path class="st7" d="M393.8,962.5c-0.2,1,2,3.9,4.9,4.4c2.9,0.5,5.3-1.5,5.5-2.5c0.2-1-2-2.2-4.9-2.7
			C396.3,961.1,393.9,961.5,393.8,962.5L393.8,962.5z"/>
		<path class="st8" d="M480.3,953.6c0.2,1-2,4.2-4.8,5.2c-2.8,1-5.2-0.6-5.4-1.6c-0.1-1,2-2.5,4.8-3.5
			C477.7,952.7,480.1,952.6,480.3,953.6C480.3,953.6,480.3,953.6,480.3,953.6z"/>
		<path class="st5" d="M490.2,944c0.5,7.8-1.8,13.8-2.1,22.3c-0.4,12.3,6.3,24.6-3.8,41.3"/>
	</g>
</g>
<text transform="matrix(0.9764 -0.216 0 1 606.7704 478.2608)" class="st10 st19 st20">1996 - 2016</text>
<text transform="matrix(0.9764 -0.216 0 1 59.686 258.4335)"><tspan x="0" y="0" class="st21 st19 st22 st23">happy</tspan><tspan x="0" y="137.6" class="st21 st19 st22 st23">birthday</tspan><tspan x="0" y="275.3" class="st21 st19 st22 st23">PostgreSQL</tspan></text>
<g id="Flame_15_">
	<g>
		<path class="st2" d="M410.1,434c-1.3-0.5-2.7-0.1-3.6,1c-0.8,1.1-0.9,2.6-0.1,3.8c0.1,0.2,14.2,21.3-3,42.3
			c-19.1,23.3-8.8,44.7,0.2,53.7c0.6,0.6,1.4,0.9,2.2,0.9c0,0,0,0,0,0c1.8,0,3.2-1.4,3.2-3.2c0-0.6-0.2-1.2-0.4-1.6
			c-0.6-2-1.1-7.6-1.1-10.7c0-6.5,2.6-11,5.4-14c-0.2,4.1,0.8,8.8,4.5,13.3c2.5,3,2.9,7,1.2,11.9c-0.5,1.3,0,2.8,1.1,3.6
			c1.1,0.8,2.7,0.8,3.8-0.1c5.5-4.3,23.3-20.1,23.3-45.3C446.8,448.5,410.5,434.2,410.1,434z M425.9,524.4c-0.3-3.3-1.5-6.2-3.6-8.8
			c-6.1-7.4-1.3-14.8-1.1-15.1c0.8-1.1,0.7-2.7-0.1-3.8c-0.6-0.8-1.5-1.2-2.5-1.2c-0.4,0-0.7,0.1-1.1,0.2
			c-0.7,0.3-16.2,6.4-16.3,24.5c-4-9.5-3.6-21.9,7.1-34.9c12.8-15.7,10.8-31.5,7.5-41c9.7,6.2,24.7,20.1,24.7,45.6
			C440.5,505.7,432.4,517.5,425.9,524.4z"/>
	</g>
</g>
<g id="Flame_19_">
	<g>
		<path class="st0" d="M415.8,444.2c3.2,9.5,5.3,25.4-7.5,41c-10.6,13-11,25.5-7.1,34.9c0.1-18.1,15.6-24.2,16.3-24.5
			c0.4-0.1,0.7-0.2,1.1-0.2c0.9,0,1.9,0.4,2.5,1.2c0.8,1.1,0.9,2.6,0.1,3.8c-0.2,0.3-5,7.7,1.1,15.1c2.1,2.6,3.3,5.5,3.6,8.8
			c6.4-6.8,14.6-18.6,14.6-34.6C440.6,464.2,425.5,450.4,415.8,444.2z"/>
	</g>
</g>
<path class="st26" d="M370.6,756.3h41.8V784h-77.9v-27.7l49.4-158.4v-17.6c-0.4-7.7-3.8-11.3-10.1-10.7c-6.9,0.5-10.4,4.2-10.4,10.9
	v17h-29.3v-25.8c1-6.6,3-12.3,6.1-17c7.6-11.2,20-16.5,37.2-15.9c6.9,0.5,12.9,2.1,17.9,4.6c12,6.2,17.9,17,17.9,32.4l-0.3,32.9
	L370.6,756.3z"/>
<path class="st26" d="M485.3,556.5c2,3.7,3.7,8.1,5.1,13v178.3c0,16.2-6.2,27.5-18.6,33.7c-5.1,2.6-11.3,4-18.4,4.3
	c-13.5,0.1-23.9-5.2-31.4-16c-3.2-4.5-5.7-9.9-7.4-16.2V573.3c0-5.3,2.3-11.9,6.9-19.5c6.5-10,17-15.1,31.4-15.1
	c5.1,0,9.9,0.6,14.4,1.8C474.4,542.1,480.4,547.4,485.3,556.5z M462.4,746.5V575.3c-1.7-5.4-5-8-9.8-7.7c-6.1-0.6-9.6,1.9-10.4,7.7
	L441.7,747c1,7.1,4.4,10.5,10.3,10.3C458.4,756.4,461.9,752.8,462.4,746.5z"/>
<polygon class="st2" points="449.4,727.4 373.9,727.4 373.9,714.2 389.3,714.2 404.3,714.2 413.7,714.2 449.4,714.2 "/>
<path class="st0" d="M370.6,756.3h41.8V784h-77.9v-27.7l49.4-158.4v-17.6c-0.4-7.7-3.8-11.3-10.1-10.7c-6.9,0.5-10.4,4.2-10.4,10.9
	v17h-29.3v-25.8c1-6.6,3-12.3,6.1-17c7.6-11.2,20-16.5,37.2-15.9c6.9,0.5,12.9,2.1,17.9,4.6c12,6.2,17.9,17,17.9,32.4l-0.3,32.9
	L370.6,756.3z"/>
<path class="st0" d="M485.3,556.5c2,3.7,3.7,8.1,5.1,13v178.3c0,16.2-6.2,27.5-18.6,33.7c-5.1,2.6-11.3,4-18.4,4.3
	c-13.5,0.1-23.9-5.2-31.4-16c-3.2-4.5-5.7-9.9-7.4-16.2V573.3c0-5.3,2.3-11.9,6.9-19.5c6.5-10,17-15.1,31.4-15.1
	c5.1,0,9.9,0.6,14.4,1.8C474.4,542.1,480.4,547.4,485.3,556.5z M462.4,746.5V575.3c-1.7-5.4-5-8-9.8-7.7c-6.1-0.6-9.6,1.9-10.4,7.7
	L441.7,747c1,7.1,4.4,10.5,10.3,10.3C458.4,756.4,461.9,752.8,462.4,746.5z"/>
</svg>
