<?xml version="1.0" encoding="UTF-8" standalone="no"?>
<!-- Created with Inkscape (http://www.inkscape.org/) -->
<svg
   xmlns:dc="http://purl.org/dc/elements/1.1/"
   xmlns:cc="http://web.resource.org/cc/"
   xmlns:rdf="http://www.w3.org/1999/02/22-rdf-syntax-ns#"
   xmlns:svg="http://www.w3.org/2000/svg"
   xmlns="http://www.w3.org/2000/svg"
   xmlns:xlink="http://www.w3.org/1999/xlink"
   xmlns:sodipodi="http://sodipodi.sourceforge.net/DTD/sodipodi-0.dtd"
   xmlns:inkscape="http://www.inkscape.org/namespaces/inkscape"
   width="1052.3622"
   height="744.09448"
   id="svg2"
   sodipodi:version="0.32"
   inkscape:version="0.45.1"
   version="1.0"
   sodipodi:docbase="C:\Nuevo_trabajo\bitnami"
   sodipodi:docname="bitnami_logo.svg"
   inkscape:output_extension="org.inkscape.output.svg.inkscape">
  <defs
     id="defs4">
    <linearGradient
       inkscape:collect="always"
       id="linearGradient3139">
      <stop
         style="stop-color:#c9cddf;stop-opacity:1"
         offset="0"
         id="stop3141" />
      <stop
         style="stop-color:#ffffff;stop-opacity:1"
         offset="1"
         id="stop3143" />
    </linearGradient>
    <linearGradient
       inkscape:collect="always"
       xlink:href="#linearGradient3139"
       id="linearGradient3145"
       x1="341.91425"
       y1="406.65948"
       x2="341.91425"
       y2="532.76154"
       gradientUnits="userSpaceOnUse"
       gradientTransform="translate(6,0)" />
  </defs>
  <sodipodi:namedview
     id="base"
     pagecolor="#ffffff"
     bordercolor="#666666"
     borderopacity="1.0"
     gridtolerance="10000"
     guidetolerance="10"
     objecttolerance="10"
     inkscape:pageopacity="0.0"
     inkscape:pageshadow="2"
     inkscape:zoom="0.35"
     inkscape:cx="1111.0309"
     inkscape:cy="175.2095"
     inkscape:document-units="px"
     inkscape:current-layer="layer1"
     width="1052.3622px"
     height="744.09449px"
     inkscape:window-width="1280"
     inkscape:window-height="975"
     inkscape:window-x="-4"
     inkscape:window-y="-4" />
  <metadata
     id="metadata7">
    <rdf:RDF>
      <cc:Work
         rdf:about="">
        <dc:format>image/svg+xml</dc:format>
        <dc:type
           rdf:resource="http://purl.org/dc/dcmitype/StillImage" />
      </cc:Work>
    </rdf:RDF>
  </metadata>
  <g
     inkscape:label="Layer 1"
     inkscape:groupmode="layer"
     id="layer1">
    <path
       style="font-size:230px;fill:url(#linearGradient3145);fill-opacity:1;font-family:Copperplate Gothic Bold"
       d="M 178.59933,486.95735 C 195.81922,480.4436 204.42923,468.38958 204.42941,450.79524 C 204.42923,436.79456 199.41296,425.82614 189.38058,417.88996 C 184.28928,413.92186 178.39329,411.05809 171.69259,409.29866 C 164.99161,407.53922 156.69979,406.6595 146.81711,406.6595 L 42.036833,406.6595 L 42.036833,410.25325 C 44.732129,411.00194 46.603872,411.97525 47.652067,413.17317 C 48.700224,414.37108 49.224312,416.13052 49.224333,418.45149 L 49.224333,548.1634 C 49.224312,550.48422 48.700224,552.24366 47.652067,553.44172 C 46.603872,554.63949 44.732129,555.61279 42.036833,556.36164 L 42.036833,559.95539 L 145.80636,559.95539 C 155.76392,559.95524 163.77498,559.20654 169.83957,557.7093 C 175.90387,556.21175 181.21962,553.66618 185.78683,550.07258 C 194.84591,542.95981 199.37553,532.70266 199.3757,519.30109 C 199.37553,504.32704 192.45008,493.5458 178.59933,486.95735 L 178.59933,486.95735 z M 82.69113,498.97395 L 141.42648,498.97395 C 150.33586,498.97386 156.55005,500.28408 160.06906,502.90461 C 164.03702,505.89931 166.02107,510.54123 166.02121,516.83039 C 166.02107,523.26908 164.14933,527.85485 160.40597,530.58771 C 156.66236,533.32033 150.33586,534.68671 141.42648,534.68684 L 82.69113,534.68684 L 82.69113,498.97395 z M 82.69113,431.92805 L 139.5173,431.92805 C 150.07382,431.92803 157.6731,433.38798 162.31515,436.30793 C 167.63077,439.67704 170.28864,445.17997 170.28879,452.81672 C 170.28864,460.37852 167.63077,465.88144 162.31515,469.32551 C 157.74797,472.24537 150.14869,473.70533 139.5173,473.70539 L 82.69113,473.70539 L 82.69113,431.92805 z M 262.04172,520.98566 L 262.04172,418.11457 C 262.04167,415.7936 262.56576,414.01545 263.61398,412.7801 C 264.66211,411.54474 266.53385,410.51529 269.22922,409.69172 L 269.22922,406.6595 L 224.75656,406.6595 L 224.75656,409.80403 C 227.37699,410.47785 229.23001,411.45116 230.31564,412.72395 C 231.40124,413.99673 231.94404,415.7936 231.94406,418.11457 L 231.94406,520.98566 C 231.94404,523.30651 231.41995,525.06595 230.37179,526.26398 C 229.3236,527.46178 227.45186,528.47252 224.75656,529.29621 L 224.75656,532.44074 L 269.22922,532.44074 L 269.22922,529.29621 C 266.53385,528.54739 264.66211,527.55537 263.61398,526.32014 C 262.56576,525.08467 262.04167,523.30651 262.04172,520.98566 L 262.04172,520.98566 z M 360.64523,509.64289 L 360.64523,418.11457 C 360.64515,415.7936 361.16924,414.01545 362.2175,412.7801 C 363.26559,411.54474 365.13733,410.51529 367.83273,409.69172 L 367.83273,406.6595 L 323.36007,406.6595 L 323.36007,409.80403 C 325.98047,410.47785 327.8335,411.45116 328.91916,412.72395 C 330.00472,413.99673 330.54752,415.7936 330.54757,418.11457 L 330.54757,509.64289 L 293.48703,509.64289 C 291.09118,509.64279 289.27559,509.09999 288.04025,508.01448 C 286.80489,506.92876 285.81287,505.0383 285.06418,502.34309 L 282.03195,502.34309 L 282.03195,539.62824 L 285.17648,539.62824 C 285.8503,537.00767 286.80489,535.15464 288.04025,534.06916 C 289.27559,532.98342 291.09118,532.44062 293.48703,532.44074 L 397.70578,532.44074 C 400.10149,532.44062 401.91708,532.9647 403.15256,534.01301 C 404.38778,535.06106 405.37981,536.9328 406.12863,539.62824 L 409.16086,539.62824 L 409.16086,502.34309 L 406.12863,502.34309 C 405.37981,505.0383 404.38778,506.92876 403.15256,508.01448 C 401.91708,509.09999 400.10149,509.64279 397.70578,509.64289 L 360.64523,509.64289 z M 462.61789,511.66438 L 462.61789,418.45149 C 462.61784,416.13052 463.14192,414.37108 464.19015,413.17317 C 465.23828,411.97525 467.11002,411.00194 469.80539,410.25325 L 469.80539,406.6595 L 424.77121,406.6595 L 424.77121,410.25325 C 427.4665,411.00194 429.33825,411.97525 430.38644,413.17317 C 431.4346,414.37108 431.95869,416.13052 431.95871,418.45149 L 431.95871,548.2757 C 431.95869,550.52165 431.4346,552.24366 430.38644,553.44172 C 429.33825,554.63949 427.4665,555.61279 424.77121,556.36164 L 424.77121,559.95539 L 476.88058,559.95539 L 476.88058,556.36164 C 473.66112,555.53792 472.05142,553.81592 472.05148,551.19562 C 472.05142,549.39861 473.0996,547.41456 475.19601,545.24348 L 559.76144,457.30891 L 559.76144,548.2757 C 559.76129,550.52165 559.23721,552.24366 558.18918,553.44172 C 557.14085,554.63949 555.26911,555.61279 552.57394,556.36164 L 552.57394,559.95539 L 597.60812,559.95539 L 597.60812,556.36164 C 594.91263,555.61279 593.04088,554.63949 591.99289,553.44172 C 590.94453,552.24366 590.42044,550.52165 590.42062,548.2757 L 590.42062,418.45149 C 590.42044,416.13052 590.94453,414.37108 591.99289,413.17317 C 593.04088,411.97525 594.91263,411.00194 597.60812,410.25325 L 597.60812,406.6595 L 549.31711,406.6595 L 549.31711,410.25325 C 552.4615,410.92707 554.03376,412.53677 554.0339,415.08235 C 554.03376,416.57973 552.19945,419.20017 548.53097,422.94368 L 462.61789,511.66438 z M 717.66183,438.10481 L 659.82492,438.10481 L 653.31125,424.40364 C 651.73894,421.10935 650.95281,418.52635 650.95285,416.65461 C 650.95281,413.06086 653.34864,410.77733 658.14035,409.80403 L 658.14035,406.6595 L 611.87082,406.6595 L 611.87082,409.80403 C 614.71587,410.25324 616.83094,411.11424 618.21603,412.38703 C 619.60111,413.65981 621.22953,416.16795 623.10129,419.91145 L 669.0339,512.89973 C 670.75585,516.4185 671.61685,519.48815 671.61691,522.10871 C 671.61685,525.17825 669.5205,527.57408 665.32785,529.29621 L 665.32785,532.44074 L 714.18039,532.44074 L 714.18039,529.29621 C 710.06245,527.64895 708.00353,525.10338 708.00363,521.65949 C 708.00353,519.18868 708.9394,516.15645 710.81125,512.56282 L 758.42843,422.38215 C 761.04873,417.44074 763.10764,414.24005 764.60519,412.7801 C 766.10243,411.32014 768.38596,410.29068 771.45578,409.69172 L 771.45578,406.6595 L 720.13254,406.6595 L 720.13254,409.69172 C 724.99896,410.51529 727.43222,412.79881 727.43234,416.54231 C 727.43222,418.86326 726.49635,421.74574 724.62472,425.18977 L 717.66183,438.10481 z M 708.56515,455.73664 L 688.0134,496.05403 L 668.47238,455.73664 L 708.56515,455.73664 z M 862.19797,410.59016 L 816.37765,489.31575 L 816.37765,418.11457 C 816.37761,415.7936 816.9017,414.01545 817.94992,412.7801 C 818.99805,411.54474 820.86979,410.51529 823.56515,409.69172 L 823.56515,406.6595 L 781.78781,406.6595 L 781.78781,409.80403 C 784.40824,410.47785 786.26126,411.45116 787.34689,412.72395 C 788.43249,413.99673 788.97529,415.7936 788.97531,418.11457 L 788.97531,520.98566 C 788.97529,523.30651 788.4512,525.08467 787.40304,526.32014 C 786.35485,527.55537 784.48311,528.54739 781.78781,529.29621 L 781.78781,532.44074 L 834.90793,532.44074 L 834.90793,529.29621 C 831.38899,528.17304 829.62955,526.03925 829.62961,522.89484 C 829.62955,519.82507 830.90233,516.08158 833.44797,511.66438 L 864.78097,458.76887 L 896.33859,510.87825 C 899.93221,516.79284 901.72908,520.98555 901.72922,523.45637 C 901.72908,526.52591 899.89478,528.47252 896.22629,529.29621 L 896.22629,532.44074 L 947.99875,532.44074 L 947.99875,529.29621 C 945.30326,528.54739 943.43152,527.55537 942.38351,526.32014 C 941.33516,525.08467 940.81108,523.30651 940.81125,520.98566 L 940.81125,418.11457 C 940.81108,415.7936 941.33516,413.99673 942.38351,412.72395 C 943.43152,411.45116 945.30326,410.44042 947.99875,409.69172 L 947.99875,406.6595 L 903.52609,406.6595 L 903.52609,409.80403 C 906.1464,410.47785 907.99942,411.45116 909.08517,412.72395 C 910.17065,413.99673 910.71345,415.7936 910.71359,418.11457 L 910.71359,489.31575 L 862.19797,410.59016 z M 1007.2956,520.98566 L 1007.2956,418.11457 C 1007.2956,415.7936 1007.8197,414.01545 1008.8679,412.7801 C 1009.916,411.54474 1011.7878,410.51529 1014.4831,409.69172 L 1014.4831,406.6595 L 970.01047,406.6595 L 970.01047,409.80403 C 972.63089,410.47785 974.48392,411.45116 975.56955,412.72395 C 976.65514,413.99673 977.19795,415.7936 977.19797,418.11457 L 977.19797,520.98566 C 977.19795,523.30651 976.67386,525.06595 975.6257,526.26398 C 974.57751,527.46178 972.70576,528.47252 970.01047,529.29621 L 970.01047,532.44074 L 1014.4831,532.44074 L 1014.4831,529.29621 C 1011.7878,528.54739 1009.916,527.55537 1008.8679,526.32014 C 1007.8197,525.08467 1007.2956,523.30651 1007.2956,520.98566 L 1007.2956,520.98566 z "
       id="path3137" />
    <path
       style="font-size:230px;fill:#001987;fill-opacity:1;font-family:Copperplate Gothic Bold"
       d="M 178.59933,326.39549 C 195.81922,332.90924 204.42923,344.96326 204.42941,362.5576 C 204.42923,376.55828 199.41296,387.5267 189.38058,395.46288 C 184.28928,399.43098 178.39329,402.29475 171.69259,404.05418 C 164.99161,405.81362 156.69979,406.69334 146.81711,406.69334 L 42.036833,406.69334 L 42.036833,403.09959 C 44.732129,402.3509 46.603872,401.37759 47.652067,400.17967 C 48.700224,398.98176 49.224312,397.22232 49.224333,394.90135 L 49.224333,265.18944 C 49.224312,262.86862 48.700224,261.10918 47.652067,259.91112 C 46.603872,258.71335 44.732129,257.74004 42.036833,256.9912 L 42.036833,253.39745 L 145.80636,253.39745 C 155.76392,253.3976 163.77498,254.1463 169.83957,255.64354 C 175.90387,257.14109 181.21962,259.68666 185.78683,263.28026 C 194.84591,270.39302 199.37553,280.65018 199.3757,294.05174 C 199.37553,309.0258 192.45008,319.80704 178.59933,326.39549 L 178.59933,326.39549 z M 82.69113,314.37889 L 141.42648,314.37889 C 150.33586,314.37898 156.55005,313.06876 160.06906,310.44823 C 164.03702,307.45353 166.02107,302.81161 166.02121,296.52245 C 166.02107,290.08376 164.14933,285.49799 160.40597,282.76512 C 156.66236,280.0325 150.33586,278.66613 141.42648,278.666 L 82.69113,278.666 L 82.69113,314.37889 z M 82.69113,381.42479 L 139.5173,381.42479 C 150.07382,381.42481 157.6731,379.96486 162.31515,377.04491 C 167.63077,373.6758 170.28864,368.17287 170.28879,360.53612 C 170.28864,352.97432 167.63077,347.4714 162.31515,344.02733 C 157.74797,341.10747 150.14869,339.64751 139.5173,339.64745 L 82.69113,339.64745 L 82.69113,381.42479 z M 262.04172,292.36717 L 262.04172,395.23827 C 262.04167,397.55924 262.56576,399.33739 263.61398,400.57274 C 264.66211,401.8081 266.53385,402.83755 269.22922,403.66112 L 269.22922,406.69334 L 224.75656,406.69334 L 224.75656,403.54881 C 227.37699,402.87499 229.23001,401.90168 230.31564,400.62889 C 231.40124,399.35611 231.94404,397.55924 231.94406,395.23827 L 231.94406,292.36717 C 231.94404,290.04633 231.41995,288.28689 230.37179,287.08885 C 229.3236,285.89106 227.45186,284.88032 224.75656,284.05663 L 224.75656,280.91209 L 269.22922,280.91209 L 269.22922,284.05663 C 266.53385,284.80545 264.66211,285.79747 263.61398,287.0327 C 262.56576,288.26817 262.04167,290.04633 262.04172,292.36717 L 262.04172,292.36717 z M 360.64523,303.70995 L 360.64523,395.23827 C 360.64515,397.55924 361.16924,399.33739 362.2175,400.57274 C 363.26559,401.8081 365.13733,402.83755 367.83273,403.66112 L 367.83273,406.69334 L 323.36007,406.69334 L 323.36007,403.54881 C 325.98047,402.87499 327.8335,401.90168 328.91916,400.62889 C 330.00472,399.35611 330.54752,397.55924 330.54757,395.23827 L 330.54757,303.70995 L 293.48703,303.70995 C 291.09118,303.71005 289.27559,304.25285 288.04025,305.33836 C 286.80489,306.42408 285.81287,308.31454 285.06418,311.00975 L 282.03195,311.00975 L 282.03195,273.72459 L 285.17648,273.72459 C 285.8503,276.34517 286.80489,278.19819 288.04025,279.28368 C 289.27559,280.36941 291.09118,280.91222 293.48703,280.91209 L 397.70578,280.91209 C 400.10149,280.91222 401.91708,280.38813 403.15256,279.33983 C 404.38778,278.29178 405.37981,276.42004 406.12863,273.72459 L 409.16086,273.72459 L 409.16086,311.00975 L 406.12863,311.00975 C 405.37981,308.31454 404.38778,306.42408 403.15256,305.33836 C 401.91708,304.25285 400.10149,303.71005 397.70578,303.70995 L 360.64523,303.70995 z M 462.61789,301.68846 L 462.61789,394.90135 C 462.61784,397.22232 463.14192,398.98176 464.19015,400.17967 C 465.23828,401.37759 467.11002,402.3509 469.80539,403.09959 L 469.80539,406.69334 L 424.77121,406.69334 L 424.77121,403.09959 C 427.4665,402.3509 429.33825,401.37759 430.38644,400.17967 C 431.4346,398.98176 431.95869,397.22232 431.95871,394.90135 L 431.95871,265.07713 C 431.95869,262.83118 431.4346,261.10918 430.38644,259.91112 C 429.33825,258.71335 427.4665,257.74004 424.77121,256.9912 L 424.77121,253.39745 L 476.88058,253.39745 L 476.88058,256.9912 C 473.66112,257.81491 472.05142,259.53692 472.05148,262.15721 C 472.05142,263.95423 473.0996,265.93828 475.19601,268.10936 L 559.76144,356.04393 L 559.76144,265.07713 C 559.76129,262.83118 559.23721,261.10918 558.18918,259.91112 C 557.14085,258.71335 555.26911,257.74004 552.57394,256.9912 L 552.57394,253.39745 L 597.60812,253.39745 L 597.60812,256.9912 C 594.91263,257.74004 593.04088,258.71335 591.99289,259.91112 C 590.94453,261.10918 590.42044,262.83118 590.42062,265.07713 L 590.42062,394.90135 C 590.42044,397.22232 590.94453,398.98176 591.99289,400.17967 C 593.04088,401.37759 594.91263,402.3509 597.60812,403.09959 L 597.60812,406.69334 L 549.31711,406.69334 L 549.31711,403.09959 C 552.4615,402.42577 554.03376,400.81607 554.0339,398.27049 C 554.03376,396.77311 552.19945,394.15267 548.53097,390.40916 L 462.61789,301.68846 z M 717.66183,375.24803 L 659.82492,375.24803 L 653.31125,388.9492 C 651.73894,392.24349 650.95281,394.82649 650.95285,396.69823 C 650.95281,400.29198 653.34864,402.57551 658.14035,403.54881 L 658.14035,406.69334 L 611.87082,406.69334 L 611.87082,403.54881 C 614.71587,403.0996 616.83094,402.2386 618.21603,400.96581 C 619.60111,399.69303 621.22953,397.18489 623.10129,393.44139 L 669.0339,300.45311 C 670.75585,296.93434 671.61685,293.86468 671.61691,291.24413 C 671.61685,288.17458 669.5205,285.77875 665.32785,284.05663 L 665.32785,280.91209 L 714.18039,280.91209 L 714.18039,284.05663 C 710.06245,285.70388 708.00353,288.24945 708.00363,291.69334 C 708.00353,294.16416 708.9394,297.19638 710.81125,300.79002 L 758.42843,390.97069 C 761.04873,395.9121 763.10764,399.11279 764.60519,400.57274 C 766.10243,402.0327 768.38596,403.06216 771.45578,403.66112 L 771.45578,406.69334 L 720.13254,406.69334 L 720.13254,403.66112 C 724.99896,402.83755 727.43222,400.55403 727.43234,396.81053 C 727.43222,394.48958 726.49635,391.6071 724.62472,388.16307 L 717.66183,375.24803 z M 708.56515,357.6162 L 688.0134,317.29881 L 668.47238,357.6162 L 708.56515,357.6162 z M 862.19797,402.76268 L 816.37765,324.03709 L 816.37765,395.23827 C 816.37761,397.55924 816.9017,399.33739 817.94992,400.57274 C 818.99805,401.8081 820.86979,402.83755 823.56515,403.66112 L 823.56515,406.69334 L 781.78781,406.69334 L 781.78781,403.54881 C 784.40824,402.87499 786.26126,401.90168 787.34689,400.62889 C 788.43249,399.35611 788.97529,397.55924 788.97531,395.23827 L 788.97531,292.36717 C 788.97529,290.04633 788.4512,288.26817 787.40304,287.0327 C 786.35485,285.79747 784.48311,284.80545 781.78781,284.05663 L 781.78781,280.91209 L 834.90793,280.91209 L 834.90793,284.05663 C 831.38899,285.17979 829.62955,287.31358 829.62961,290.45799 C 829.62955,293.52777 830.90233,297.27125 833.44797,301.68846 L 864.78097,354.58397 L 896.33859,302.47459 C 899.93221,296.55999 901.72908,292.36729 901.72922,289.89647 C 901.72908,286.82693 899.89478,284.88032 896.22629,284.05663 L 896.22629,280.91209 L 947.99875,280.91209 L 947.99875,284.05663 C 945.30326,284.80545 943.43152,285.79747 942.38351,287.0327 C 941.33516,288.26817 940.81108,290.04633 940.81125,292.36717 L 940.81125,395.23827 C 940.81108,397.55924 941.33516,399.35611 942.38351,400.62889 C 943.43152,401.90168 945.30326,402.91242 947.99875,403.66112 L 947.99875,406.69334 L 903.52609,406.69334 L 903.52609,403.54881 C 906.1464,402.87499 907.99942,401.90168 909.08517,400.62889 C 910.17065,399.35611 910.71345,397.55924 910.71359,395.23827 L 910.71359,324.03709 L 862.19797,402.76268 z M 1007.2956,292.36717 L 1007.2956,395.23827 C 1007.2956,397.55924 1007.8197,399.33739 1008.8679,400.57274 C 1009.916,401.8081 1011.7878,402.83755 1014.4831,403.66112 L 1014.4831,406.69334 L 970.01047,406.69334 L 970.01047,403.54881 C 972.63089,402.87499 974.48392,401.90168 975.56955,400.62889 C 976.65514,399.35611 977.19795,397.55924 977.19797,395.23827 L 977.19797,292.36717 C 977.19795,290.04633 976.67386,288.28689 975.6257,287.08885 C 974.57751,285.89106 972.70576,284.88032 970.01047,284.05663 L 970.01047,280.91209 L 1014.4831,280.91209 L 1014.4831,284.05663 C 1011.7878,284.80545 1009.916,285.79747 1008.8679,287.0327 C 1007.8197,288.26817 1007.2956,290.04633 1007.2956,292.36717 L 1007.2956,292.36717 z "
       id="text2358" />
  </g>
  <g
     inkscape:groupmode="layer"
     id="layer2" />
</svg>
