<?xml version="1.0" encoding="UTF-8"?>
<svg xmlns="http://www.w3.org/2000/svg" xmlns:xlink="http://www.w3.org/1999/xlink" width="595.275591pt" height="841.889764pt" viewBox="0 0 595.275591 841.889764" version="1.2">
<defs>
<clipPath id="clip1">
  <path d="M 0 841.886719 L 0 0.00390625 L 595.277344 0.00390625 L 595.277344 841.886719 Z M 0 841.886719 "/>
</clipPath>
</defs>
<g id="surface2028">
<g clip-path="url(#clip1)" clip-rule="nonzero">
<path style=" stroke:none;fill-rule:evenodd;fill:rgb(64.299011%,76.098633%,81.999207%);fill-opacity:1;" d="M 265.65625 269.070312 C 265.65625 269.070312 261.535156 268.378906 258.902344 268.667969 C 256.273438 268.957031 251.226562 269.714844 251.226562 269.714844 C 251.226562 269.714844 260.441406 262.292969 265.828125 261.164062 C 271.21875 260.039062 288.527344 259.484375 288.527344 259.484375 C 288.527344 259.484375 276.667969 269.171875 273.117188 272.332031 C 269.5625 275.492188 265.421875 277.867188 265.421875 277.867188 C 265.421875 277.867188 288.660156 269.503906 310.5 238.339844 C 332.335938 207.179688 345.265625 176.78125 345.265625 176.78125 C 345.265625 176.78125 343.535156 198.722656 331.074219 224.863281 C 318.617188 251 291.808594 275.878906 278.117188 287.355469 C 264.425781 298.828125 251.554688 308.953125 251.554688 308.953125 C 251.554688 308.953125 267.742188 304.472656 282.390625 295.53125 C 297.039062 286.589844 305.199219 277.945312 305.199219 277.945312 C 305.199219 277.945312 297.582031 296.472656 277.699219 304.71875 C 257.816406 312.964844 244.914062 311.632812 240.808594 311.070312 C 236.703125 310.503906 233.164062 309.171875 233.164062 309.171875 C 233.164062 309.171875 225.675781 307.699219 218.214844 301.097656 C 210.757812 294.5 208.886719 282.882812 208.886719 282.882812 C 208.886719 282.882812 214.085938 297.324219 226.171875 301.65625 C 238.261719 305.988281 249.21875 299.761719 251.546875 296.90625 C 253.875 294.042969 256.570312 278.769531 265.65625 269.070312 "/>
<path style=" stroke:none;fill-rule:evenodd;fill:rgb(64.299011%,76.098633%,81.999207%);fill-opacity:1;" d="M 293.839844 276.996094 C 293.839844 276.996094 318.574219 270.660156 318.609375 269.128906 C 318.640625 267.597656 309.960938 267.707031 311.128906 265.15625 C 312.292969 262.605469 319.644531 257.660156 337.945312 269.59375 C 356.246094 281.523438 366.6875 311.148438 367.5 314.289062 C 368.316406 317.429688 369.625 326.199219 369.625 326.199219 C 369.625 326.199219 368.824219 299.324219 349.890625 275.691406 C 330.953125 252.054688 319.378906 253.023438 317.140625 254.109375 C 314.902344 255.195312 304.085938 267.054688 293.839844 276.996094 "/>
<path style=" stroke:none;fill-rule:evenodd;fill:rgb(64.299011%,76.098633%,81.999207%);fill-opacity:1;" d="M 329.234375 237.277344 C 329.234375 237.277344 362.425781 250.339844 378.019531 287.324219 C 393.609375 324.308594 377.402344 365.855469 374.640625 363.933594 C 371.875 362.011719 374.304688 352.050781 368.101562 352.796875 C 361.894531 353.546875 356.722656 355.945312 357.875 352.621094 C 359.027344 349.292969 372.09375 348.84375 374.921875 322.164062 C 377.75 295.484375 358.878906 252.34375 329.234375 237.277344 "/>
<path style=" stroke:none;fill-rule:evenodd;fill:rgb(64.299011%,76.098633%,81.999207%);fill-opacity:1;" d="M 155.765625 297.859375 C 155.765625 297.859375 152.621094 271.453125 168.53125 251.503906 C 184.4375 231.554688 196.660156 228.871094 203.785156 228.59375 C 210.90625 228.3125 216.285156 228.914062 216.285156 228.914062 C 216.285156 228.914062 233.820312 220.109375 267.574219 220.71875 C 301.332031 221.328125 311.507812 231.152344 311.507812 231.152344 L 288.523438 225.640625 L 253 226.789062 C 253 226.789062 232.949219 227.886719 221.796875 233.394531 C 210.640625 238.902344 216.480469 236.402344 209.472656 234.527344 C 202.460938 232.648438 163.953125 252.117188 155.765625 297.859375 "/>
<path style=" stroke:none;fill-rule:evenodd;fill:rgb(64.299011%,76.098633%,81.999207%);fill-opacity:1;" d="M 212.792969 262.671875 C 212.792969 262.671875 213.433594 256.363281 217.414062 253.667969 C 221.394531 250.972656 228.195312 247.53125 226.515625 248.5625 C 224.835938 249.59375 224.835938 257.945312 221.738281 259.273438 C 218.640625 260.605469 212.792969 262.671875 212.792969 262.671875 "/>
<path style=" stroke:none;fill-rule:nonzero;fill:rgb(35.299683%,28.999329%,25.898743%);fill-opacity:1;" d="M 268.429688 623.28125 C 260.167969 625.082031 255.4375 631.914062 255.4375 639.722656 C 255.4375 653.914062 267.300781 659.921875 279.015625 659.921875 C 290.730469 659.921875 302.59375 653.914062 302.59375 639.722656 C 302.59375 629.8125 294.933594 623.503906 285.398438 622.527344 L 285.398438 617.421875 C 298.539062 618.847656 306.949219 627.183594 306.949219 639.722656 C 306.949219 656.617188 293.65625 665.027344 279.015625 665.027344 C 264.371094 665.027344 251.082031 656.617188 251.082031 639.722656 C 251.082031 629.585938 257.164062 619.527344 268.429688 618.171875 Z M 268.429688 623.28125 "/>
<path style=" stroke:none;fill-rule:nonzero;fill:rgb(35.299683%,28.999329%,25.898743%);fill-opacity:1;" d="M 283.746094 596.550781 L 252.207031 617.652344 L 252.207031 611.570312 L 279.390625 593.921875 L 252.207031 576.351562 L 252.207031 570.269531 L 283.746094 591.445312 L 305.820312 591.445312 L 305.820312 596.550781 Z M 283.746094 596.550781 "/>
<path style=" stroke:none;fill-rule:nonzero;fill:rgb(35.299683%,28.999329%,25.898743%);fill-opacity:1;" d="M 301.464844 562.390625 L 301.464844 544.820312 C 301.542969 537.234375 298.988281 530.703125 290.429688 530.703125 C 283.59375 530.703125 280.066406 535.886719 280.066406 544.820312 L 280.066406 562.390625 Z M 275.710938 562.390625 L 275.710938 544.820312 C 275.710938 536.636719 271.65625 532.730469 266.625 532.730469 C 259.945312 532.730469 256.566406 536.859375 256.566406 544.820312 L 256.566406 562.390625 Z M 252.207031 567.496094 L 252.207031 544.820312 C 252.207031 535.808594 255.363281 527.625 265.347656 527.625 C 270.980469 527.625 276.160156 531.378906 277.363281 536.9375 L 277.511719 536.9375 C 278.414062 530.027344 283.59375 525.597656 290.578125 525.597656 C 295.683594 525.597656 305.820312 527.398438 305.820312 544.820312 L 305.820312 567.496094 Z M 252.207031 567.496094 "/>
<path style=" stroke:none;fill-rule:nonzero;fill:rgb(35.299683%,28.999329%,25.898743%);fill-opacity:1;" d="M 252.207031 519.292969 L 252.207031 482.273438 L 256.5625 482.273438 L 256.5625 514.1875 L 275.9375 514.1875 L 275.9375 484.304688 L 280.292969 484.304688 L 280.292969 514.1875 L 301.464844 514.1875 L 301.464844 481.898438 L 305.820312 481.898438 L 305.820312 519.292969 Z M 252.207031 519.292969 "/>
<path style=" stroke:none;fill-rule:nonzero;fill:rgb(35.299683%,28.999329%,25.898743%);fill-opacity:1;" d="M 277.664062 471.542969 L 277.664062 452.46875 C 277.664062 446.238281 273.757812 440.90625 267.226562 440.90625 C 260.695312 440.90625 256.5625 444.808594 256.5625 452.46875 L 256.5625 471.542969 Z M 252.207031 476.648438 L 252.207031 452.09375 C 252.207031 443.234375 256.488281 435.800781 266.175781 435.800781 C 272.933594 435.800781 278.488281 439.328125 279.839844 446.238281 L 279.992188 446.238281 C 280.894531 439.253906 285.699219 437.226562 292.082031 436.851562 C 295.757812 436.625 303.117188 436.625 305.820312 434.375 L 305.820312 440.003906 C 303.71875 441.28125 299.738281 441.28125 297.488281 441.429688 C 289.976562 441.882812 281.644531 442.480469 282.019531 452.167969 L 282.019531 471.542969 L 305.820312 471.542969 L 305.820312 476.648438 Z M 252.207031 476.648438 "/>
<path style=" stroke:none;fill-rule:nonzero;fill:rgb(35.299683%,28.999329%,25.898743%);fill-opacity:1;" d="M 262.121094 416.804688 L 262.121094 432.875 L 252.207031 432.875 L 252.207031 388.949219 L 262.121094 388.949219 L 262.121094 405.015625 L 305.820312 405.015625 L 305.820312 416.804688 Z M 262.121094 416.804688 "/>
<path style=" stroke:none;fill-rule:nonzero;fill:rgb(35.299683%,28.999329%,25.898743%);fill-opacity:1;" d="M 252.207031 384.671875 L 252.207031 344.574219 L 262.121094 344.574219 L 262.121094 372.882812 L 273.609375 372.882812 L 273.609375 346.902344 L 282.769531 346.902344 L 282.769531 372.882812 L 295.910156 372.882812 L 295.910156 343.976562 L 305.820312 343.976562 L 305.820312 384.671875 Z M 252.207031 384.671875 "/>
<path style=" stroke:none;fill-rule:nonzero;fill:rgb(35.299683%,28.999329%,25.898743%);fill-opacity:1;" d="M 270.230469 302.15625 C 264.898438 302.90625 260.84375 308.007812 260.84375 313.867188 C 260.84375 324.457031 269.855469 328.433594 279.238281 328.433594 C 288.175781 328.433594 297.1875 324.457031 297.1875 313.867188 C 297.1875 306.660156 292.230469 302.601562 285.171875 301.703125 L 285.171875 290.289062 C 298.539062 291.492188 307.097656 300.726562 307.097656 313.867188 C 307.097656 330.460938 294.707031 340.222656 279.238281 340.222656 C 263.320312 340.222656 250.933594 330.460938 250.933594 313.867188 C 250.933594 302.078125 257.839844 292.167969 270.230469 290.742188 Z M 270.230469 302.15625 "/>
<path style=" stroke:none;fill-rule:nonzero;fill:rgb(35.299683%,28.999329%,25.898743%);fill-opacity:1;" d="M 313.191406 568.332031 L 313.191406 555.023438 L 314.558594 555.023438 L 314.558594 560.878906 L 329.980469 560.878906 L 329.980469 562.476562 L 314.558594 562.476562 L 314.558594 568.332031 Z M 313.191406 568.332031 "/>
<path style=" stroke:none;fill-rule:nonzero;fill:rgb(35.299683%,28.999329%,25.898743%);fill-opacity:1;" d="M 313.191406 554.34375 L 313.191406 552.859375 L 319.941406 552.859375 L 319.941406 552.8125 C 318.484375 552.273438 317.496094 550.648438 317.496094 548.933594 C 317.496094 545.523438 319.285156 544.488281 322.175781 544.488281 L 329.980469 544.488281 L 329.980469 545.972656 L 322.410156 545.972656 C 320.316406 545.972656 318.742188 546.652344 318.742188 549.050781 C 318.742188 551.402344 320.53125 552.8125 322.90625 552.859375 L 329.980469 552.859375 L 329.980469 554.34375 Z M 313.191406 554.34375 "/>
<path style=" stroke:none;fill-rule:nonzero;fill:rgb(35.299683%,28.999329%,25.898743%);fill-opacity:1;" d="M 323.070312 533.554688 C 320.835938 533.625 318.742188 535.015625 318.742188 537.414062 C 318.742188 539.835938 320.859375 541.175781 323.070312 541.410156 Z M 324.316406 541.410156 C 326.480469 541.386719 329.089844 540.257812 329.089844 537.414062 C 329.089844 535.25 327.820312 534.074219 325.984375 533.605469 L 325.984375 532.121094 C 328.734375 532.757812 330.335938 534.355469 330.335938 537.414062 C 330.335938 541.269531 327.371094 542.890625 323.914062 542.890625 C 320.71875 542.890625 317.496094 541.269531 317.496094 537.414062 C 317.496094 533.507812 320.90625 531.957031 324.316406 532.074219 Z M 324.316406 541.410156 "/>
<path style=" stroke:none;fill-rule:nonzero;fill:rgb(35.299683%,28.999329%,25.898743%);fill-opacity:1;" d="M 321.421875 522.835938 L 321.421875 517.332031 C 321.421875 515.121094 320.292969 513.59375 317.988281 513.59375 C 315.6875 513.59375 314.558594 515.121094 314.558594 517.332031 L 314.558594 522.835938 Z M 313.191406 524.433594 L 313.191406 516.980469 C 313.191406 513.96875 314.957031 511.996094 317.988281 511.996094 C 321.023438 511.996094 322.785156 513.96875 322.785156 516.980469 L 322.785156 522.835938 L 329.980469 522.835938 L 329.980469 524.433594 Z M 313.191406 524.433594 "/>
<path style=" stroke:none;fill-rule:nonzero;fill:rgb(35.299683%,28.999329%,25.898743%);fill-opacity:1;" d="M 323.914062 509.621094 C 326.503906 509.621094 329.089844 508.210938 329.089844 505.363281 C 329.089844 502.519531 326.503906 501.109375 323.914062 501.109375 C 321.328125 501.109375 318.742188 502.519531 318.742188 505.363281 C 318.742188 508.210938 321.328125 509.621094 323.914062 509.621094 M 323.914062 499.625 C 327.394531 499.625 330.335938 501.648438 330.335938 505.363281 C 330.335938 509.078125 327.394531 511.101562 323.914062 511.101562 C 320.4375 511.101562 317.496094 509.078125 317.496094 505.363281 C 317.496094 501.648438 320.4375 499.625 323.914062 499.625 "/>
<path style=" stroke:none;fill-rule:nonzero;fill:rgb(35.299683%,28.999329%,25.898743%);fill-opacity:1;" d="M 321.398438 490.738281 C 319.566406 490.808594 318.742188 492.21875 318.742188 493.914062 C 318.742188 495.230469 319.257812 496.78125 320.835938 496.78125 C 322.152344 496.78125 322.621094 495.277344 322.878906 494.265625 L 323.328125 492.289062 C 323.585938 490.597656 324.574219 488.835938 326.691406 488.835938 C 329.324219 488.835938 330.335938 491.445312 330.335938 493.703125 C 330.335938 496.523438 329.019531 498.453125 326.054688 498.6875 L 326.054688 497.203125 C 328.054688 497.089844 329.089844 495.605469 329.089844 493.632812 C 329.089844 492.242188 328.476562 490.316406 326.785156 490.316406 C 325.375 490.316406 324.902344 491.632812 324.574219 492.972656 L 324.152344 494.878906 C 323.632812 496.804688 322.976562 498.261719 320.90625 498.261719 C 318.4375 498.261719 317.496094 495.84375 317.496094 493.703125 C 317.496094 491.28125 318.765625 489.351562 321.398438 489.257812 Z M 321.398438 490.738281 "/>
<path style=" stroke:none;fill-rule:nonzero;fill:rgb(35.299683%,28.999329%,25.898743%);fill-opacity:1;" d="M 317.847656 484.933594 L 317.847656 482.464844 L 319.09375 482.464844 L 319.09375 484.933594 L 327.277344 484.933594 C 328.242188 484.933594 328.804688 484.789062 328.875 483.734375 C 328.875 483.308594 328.855469 482.886719 328.804688 482.464844 L 330.078125 482.464844 C 330.078125 482.910156 330.121094 483.332031 330.121094 483.78125 C 330.121094 485.753906 329.464844 486.4375 327.394531 486.414062 L 319.09375 486.414062 L 319.09375 488.53125 L 317.847656 488.53125 L 317.847656 486.414062 L 314.203125 486.414062 L 314.203125 484.933594 Z M 317.847656 484.933594 "/>
<path style=" stroke:none;fill-rule:nonzero;fill:rgb(35.299683%,28.999329%,25.898743%);fill-opacity:1;" d="M 323.773438 472.140625 C 321.398438 472.140625 318.742188 473.246094 318.742188 476.042969 C 318.742188 478.867188 321.257812 480.042969 323.773438 480.042969 C 326.21875 480.042969 328.59375 478.769531 328.59375 476.042969 C 328.59375 473.480469 326.242188 472.140625 323.773438 472.140625 M 328.996094 470.660156 C 332.617188 470.683594 334.824219 472.070312 334.824219 476.042969 C 334.824219 478.464844 333.746094 480.863281 331.15625 481.078125 L 331.15625 479.59375 C 332.945312 479.265625 333.578125 477.691406 333.578125 476.042969 C 333.578125 473.316406 331.957031 472.140625 328.996094 472.140625 L 327.347656 472.140625 L 327.347656 472.1875 C 328.828125 472.871094 329.839844 474.304688 329.839844 476.042969 C 329.839844 479.921875 327.066406 481.523438 323.609375 481.523438 C 320.269531 481.523438 317.496094 479.546875 317.496094 476.042969 C 317.496094 474.28125 318.601562 472.777344 319.941406 472.1875 L 319.941406 472.140625 L 317.847656 472.140625 L 317.847656 470.660156 Z M 328.996094 470.660156 "/>
<path style=" stroke:none;fill-rule:nonzero;fill:rgb(35.299683%,28.999329%,25.898743%);fill-opacity:1;" d="M 317.847656 468.425781 L 317.847656 467.0625 L 320.695312 467.0625 L 320.695312 467.015625 C 318.742188 466.261719 317.589844 464.617188 317.683594 462.429688 L 319.164062 462.429688 C 319.023438 465.109375 321 466.945312 323.515625 466.945312 L 329.980469 466.945312 L 329.980469 468.425781 Z M 317.847656 468.425781 "/>
<path style=" stroke:none;fill-rule:nonzero;fill:rgb(35.299683%,28.999329%,25.898743%);fill-opacity:1;" d="M 323.070312 453.308594 C 320.835938 453.375 318.742188 454.765625 318.742188 457.164062 C 318.742188 459.585938 320.859375 460.925781 323.070312 461.160156 Z M 324.316406 461.160156 C 326.480469 461.136719 329.089844 460.007812 329.089844 457.164062 C 329.089844 455 327.820312 453.824219 325.984375 453.355469 L 325.984375 451.871094 C 328.734375 452.507812 330.335938 454.105469 330.335938 457.164062 C 330.335938 461.019531 327.371094 462.640625 323.914062 462.640625 C 320.71875 462.640625 317.496094 461.019531 317.496094 457.164062 C 317.496094 453.257812 320.90625 451.707031 324.316406 451.824219 Z M 324.316406 461.160156 "/>
<path style=" stroke:none;fill-rule:nonzero;fill:rgb(35.299683%,28.999329%,25.898743%);fill-opacity:1;" d="M 324.457031 449.378906 C 327.914062 449.449219 328.972656 446.957031 328.972656 443.902344 C 328.972656 442.136719 328.007812 439.457031 325.5625 439.457031 C 323.65625 439.457031 322.90625 441.359375 322.527344 442.914062 L 321.609375 446.652344 C 321.117188 448.628906 320.175781 450.4375 317.566406 450.4375 C 315.921875 450.4375 312.839844 449.378906 312.839844 444.652344 C 312.839844 441.339844 314.628906 438.421875 318.058594 438.445312 L 318.058594 440.046875 C 315.496094 440.140625 314.203125 442.253906 314.203125 444.628906 C 314.203125 446.816406 315.050781 448.839844 317.542969 448.839844 C 319.117188 448.839844 319.777344 447.664062 320.105469 446.300781 L 321.117188 442.207031 C 321.753906 439.832031 322.785156 437.859375 325.539062 437.859375 C 326.691406 437.859375 330.335938 438.328125 330.335938 444.277344 C 330.335938 448.25 328.546875 451.167969 324.457031 450.980469 Z M 324.457031 449.378906 "/>
<path style=" stroke:none;fill-rule:nonzero;fill:rgb(35.299683%,28.999329%,25.898743%);fill-opacity:1;" d="M 327.324219 424.714844 C 325.914062 423.234375 323.75 422.574219 321.585938 422.574219 C 317.917969 422.574219 314.203125 424.457031 314.203125 428.875 C 314.203125 433.320312 317.917969 435.203125 321.585938 435.203125 C 325.257812 435.203125 328.972656 433.320312 328.972656 428.875 C 328.972656 427.652344 328.6875 426.621094 328.148438 425.773438 L 326.476562 427.984375 L 325.46875 427.160156 Z M 331.0625 421.917969 L 329.089844 424.527344 C 329.886719 425.679688 330.335938 427.136719 330.335938 428.875 C 330.335938 434.167969 326.171875 436.800781 321.585938 436.800781 C 317.003906 436.800781 312.839844 434.167969 312.839844 428.875 C 312.839844 423.609375 317.003906 420.976562 321.585938 420.976562 C 324.175781 420.976562 326.621094 421.824219 328.242188 423.515625 L 330.078125 421.117188 Z M 331.0625 421.917969 "/>
<path style=" stroke:none;fill-rule:nonzero;fill:rgb(35.299683%,28.999329%,25.898743%);fill-opacity:1;" d="M 313.191406 419.070312 L 313.191406 417.472656 L 328.617188 417.472656 L 328.617188 408.066406 L 329.980469 408.066406 L 329.980469 419.070312 Z M 313.191406 419.070312 "/>
<path style=" stroke:none;fill-rule:nonzero;fill:rgb(35.299683%,28.999329%,25.898743%);fill-opacity:1;" d="M 328.617188 399.484375 L 328.617188 396.074219 C 328.640625 391.253906 326.597656 389.164062 321.585938 389.164062 C 316.578125 389.164062 314.535156 391.253906 314.554688 396.074219 L 314.554688 399.484375 Z M 313.191406 401.085938 L 313.191406 395.277344 C 313.308594 390.222656 316.085938 387.5625 321.585938 387.5625 C 327.089844 387.5625 329.863281 390.222656 329.980469 395.277344 L 329.980469 401.085938 Z M 313.191406 401.085938 "/>
<path style=" stroke:none;fill-rule:nonzero;fill:rgb(35.299683%,28.999329%,25.898743%);fill-opacity:1;" d="M 323.351562 378.089844 L 323.351562 378.136719 C 323.703125 378.324219 323.820312 378.980469 323.890625 379.382812 C 324.339844 381.898438 324.316406 385.023438 326.691406 385.023438 C 328.171875 385.023438 329.089844 383.707031 329.089844 382.320312 C 329.089844 380.0625 327.65625 378.066406 325.28125 378.089844 Z M 321.5625 385.988281 C 318.71875 385.847656 317.496094 383.847656 317.496094 381.074219 C 317.496094 378.933594 318.15625 376.605469 321.398438 376.605469 L 327.84375 376.605469 C 328.40625 376.605469 328.734375 376.324219 328.734375 375.738281 C 328.734375 375.570312 328.6875 375.382812 328.640625 375.265625 L 329.886719 375.265625 C 329.957031 375.59375 329.980469 375.832031 329.980469 376.230469 C 329.980469 377.734375 329.136719 377.96875 327.867188 377.96875 L 327.867188 378.019531 C 329.441406 379.050781 330.335938 380.109375 330.335938 382.4375 C 330.335938 384.671875 329.230469 386.507812 326.785156 386.507812 C 323.375 386.507812 323.257812 383.191406 322.878906 379.992188 C 322.738281 378.769531 322.574219 378.089844 321.234375 378.089844 C 319.238281 378.089844 318.742188 379.523438 318.742188 381.261719 C 318.742188 383.097656 319.589844 384.460938 321.5625 384.507812 Z M 321.5625 385.988281 "/>
<path style=" stroke:none;fill-rule:nonzero;fill:rgb(35.299683%,28.999329%,25.898743%);fill-opacity:1;" d="M 317.847656 371.878906 L 317.847656 369.410156 L 319.09375 369.410156 L 319.09375 371.878906 L 327.277344 371.878906 C 328.242188 371.878906 328.804688 371.738281 328.875 370.679688 C 328.875 370.257812 328.855469 369.835938 328.804688 369.410156 L 330.078125 369.410156 C 330.078125 369.859375 330.121094 370.28125 330.121094 370.726562 C 330.121094 372.703125 329.464844 373.386719 327.394531 373.363281 L 319.09375 373.363281 L 319.09375 375.476562 L 317.847656 375.476562 L 317.847656 373.363281 L 314.203125 373.363281 L 314.203125 371.878906 Z M 317.847656 371.878906 "/>
<path style=" stroke:none;fill-rule:nonzero;fill:rgb(35.299683%,28.999329%,25.898743%);fill-opacity:1;" d="M 323.351562 360.101562 L 323.351562 360.148438 C 323.703125 360.335938 323.820312 360.996094 323.890625 361.394531 C 324.339844 363.910156 324.316406 367.039062 326.691406 367.039062 C 328.171875 367.039062 329.089844 365.71875 329.089844 364.332031 C 329.089844 362.078125 327.65625 360.078125 325.28125 360.101562 Z M 321.5625 368 C 318.71875 367.859375 317.496094 365.859375 317.496094 363.085938 C 317.496094 360.945312 318.15625 358.621094 321.398438 358.621094 L 327.84375 358.621094 C 328.40625 358.621094 328.734375 358.335938 328.734375 357.75 C 328.734375 357.585938 328.6875 357.394531 328.640625 357.277344 L 329.886719 357.277344 C 329.957031 357.609375 329.980469 357.84375 329.980469 358.246094 C 329.980469 359.746094 329.136719 359.984375 327.867188 359.984375 L 327.867188 360.03125 C 329.441406 361.0625 330.335938 362.121094 330.335938 364.453125 C 330.335938 366.683594 329.230469 368.519531 326.785156 368.519531 C 323.375 368.519531 323.257812 365.203125 322.878906 362.003906 C 322.738281 360.785156 322.574219 360.101562 321.234375 360.101562 C 319.238281 360.101562 318.742188 361.535156 318.742188 363.273438 C 318.742188 365.109375 319.589844 366.472656 321.5625 366.519531 Z M 321.5625 368 "/>
<path style=" stroke:none;fill-rule:nonzero;fill:rgb(35.299683%,28.999329%,25.898743%);fill-opacity:1;" d="M 318.742188 350.507812 C 318.742188 353.65625 321.398438 354.761719 323.914062 354.761719 C 326.429688 354.761719 329.089844 353.65625 329.089844 350.507812 C 329.089844 347.6875 326.429688 346.53125 323.914062 346.53125 C 321.398438 346.53125 318.742188 347.6875 318.742188 350.507812 M 313.191406 356.246094 L 313.191406 354.761719 L 320.152344 354.761719 L 320.152344 354.714844 C 318.414062 354.082031 317.496094 352.320312 317.496094 350.507812 C 317.496094 346.816406 320.484375 345.050781 323.914062 345.050781 C 327.347656 345.050781 330.335938 346.816406 330.335938 350.507812 C 330.335938 352.457031 329.324219 354.152344 327.679688 354.832031 L 327.679688 354.878906 L 329.980469 354.878906 L 329.980469 356.246094 Z M 313.191406 356.246094 "/>
<path style=" stroke:none;fill-rule:nonzero;fill:rgb(35.299683%,28.999329%,25.898743%);fill-opacity:1;" d="M 323.351562 335.578125 L 323.351562 335.625 C 323.703125 335.8125 323.820312 336.472656 323.890625 336.871094 C 324.339844 339.386719 324.316406 342.515625 326.691406 342.515625 C 328.171875 342.515625 329.089844 341.195312 329.089844 339.808594 C 329.089844 337.554688 327.65625 335.554688 325.28125 335.578125 Z M 321.5625 343.476562 C 318.71875 343.335938 317.496094 341.339844 317.496094 338.5625 C 317.496094 336.425781 318.15625 334.097656 321.398438 334.097656 L 327.84375 334.097656 C 328.40625 334.097656 328.734375 333.8125 328.734375 333.226562 C 328.734375 333.058594 328.6875 332.871094 328.640625 332.757812 L 329.886719 332.757812 C 329.957031 333.085938 329.980469 333.320312 329.980469 333.71875 C 329.980469 335.222656 329.136719 335.460938 327.867188 335.460938 L 327.867188 335.507812 C 329.441406 336.539062 330.335938 337.597656 330.335938 339.929688 C 330.335938 342.160156 329.230469 343.996094 326.785156 343.996094 C 323.375 343.996094 323.257812 340.679688 322.878906 337.480469 C 322.738281 336.261719 322.574219 335.578125 321.234375 335.578125 C 319.238281 335.578125 318.742188 337.011719 318.742188 338.753906 C 318.742188 340.585938 319.589844 341.949219 321.5625 341.996094 Z M 321.5625 343.476562 "/>
<path style=" stroke:none;fill-rule:nonzero;fill:rgb(35.299683%,28.999329%,25.898743%);fill-opacity:1;" d="M 321.398438 324.457031 C 319.566406 324.523438 318.742188 325.9375 318.742188 327.628906 C 318.742188 328.945312 319.257812 330.5 320.835938 330.5 C 322.152344 330.5 322.621094 328.992188 322.878906 327.980469 L 323.328125 326.007812 C 323.585938 324.3125 324.574219 322.550781 326.691406 322.550781 C 329.324219 322.550781 330.335938 325.160156 330.335938 327.417969 C 330.335938 330.238281 329.019531 332.167969 326.054688 332.402344 L 326.054688 330.921875 C 328.054688 330.804688 329.089844 329.320312 329.089844 327.347656 C 329.089844 325.960938 328.476562 324.03125 326.785156 324.03125 C 325.375 324.03125 324.902344 325.347656 324.574219 326.6875 L 324.152344 328.59375 C 323.632812 330.519531 322.976562 331.980469 320.90625 331.980469 C 318.4375 331.980469 317.496094 329.558594 317.496094 327.417969 C 317.496094 324.996094 318.765625 323.066406 321.398438 322.976562 Z M 321.398438 324.457031 "/>
<path style=" stroke:none;fill-rule:nonzero;fill:rgb(35.299683%,28.999329%,25.898743%);fill-opacity:1;" d="M 323.070312 312.277344 C 320.835938 312.34375 318.742188 313.734375 318.742188 316.128906 C 318.742188 318.550781 320.859375 319.894531 323.070312 320.128906 Z M 324.316406 320.128906 C 326.480469 320.105469 329.089844 318.976562 329.089844 316.128906 C 329.089844 313.96875 327.820312 312.792969 325.984375 312.324219 L 325.984375 310.839844 C 328.734375 311.476562 330.335938 313.074219 330.335938 316.128906 C 330.335938 319.988281 327.371094 321.609375 323.914062 321.609375 C 320.71875 321.609375 317.496094 319.988281 317.496094 316.128906 C 317.496094 312.226562 320.90625 310.675781 324.316406 310.792969 Z M 324.316406 320.128906 "/>
<path style=" stroke:none;fill-rule:nonzero;fill:rgb(35.299683%,28.999329%,25.898743%);fill-opacity:1;" d="M 318.273438 290.878906 C 315.6875 291.441406 314.203125 293.582031 314.203125 296.027344 C 314.203125 300.472656 317.917969 302.351562 321.585938 302.351562 C 325.253906 302.351562 328.96875 300.472656 328.96875 296.027344 C 328.96875 292.925781 326.574219 290.949219 323.585938 290.644531 L 323.585938 289.042969 C 327.703125 289.488281 330.335938 292.101562 330.335938 296.027344 C 330.335938 301.316406 326.171875 303.949219 321.585938 303.949219 C 317.003906 303.949219 312.839844 301.316406 312.839844 296.027344 C 312.839844 292.855469 314.746094 289.703125 318.273438 289.277344 Z M 318.273438 290.878906 "/>
<path style=" stroke:none;fill-rule:nonzero;fill:rgb(35.299683%,28.999329%,25.898743%);fill-opacity:1;" d="M 323.914062 286.601562 C 326.503906 286.601562 329.089844 285.1875 329.089844 282.34375 C 329.089844 279.496094 326.503906 278.085938 323.914062 278.085938 C 321.328125 278.085938 318.742188 279.496094 318.742188 282.34375 C 318.742188 285.1875 321.328125 286.601562 323.914062 286.601562 M 323.914062 276.605469 C 327.394531 276.605469 330.335938 278.628906 330.335938 282.34375 C 330.335938 286.058594 327.394531 288.078125 323.914062 288.078125 C 320.4375 288.078125 317.496094 286.058594 317.496094 282.34375 C 317.496094 278.628906 320.4375 276.605469 323.914062 276.605469 "/>
<path style=" stroke:none;fill-rule:nonzero;fill:rgb(35.299683%,28.999329%,25.898743%);fill-opacity:1;" d="M 317.847656 274.984375 L 317.847656 273.621094 L 319.894531 273.621094 L 319.894531 273.546875 C 318.4375 272.773438 317.496094 271.503906 317.496094 269.574219 C 317.496094 267.976562 318.273438 266.542969 319.871094 266.097656 C 318.273438 265.367188 317.496094 263.835938 317.496094 262.238281 C 317.496094 259.582031 318.882812 258.21875 321.75 258.21875 L 329.980469 258.21875 L 329.980469 259.699219 L 321.824219 259.699219 C 319.824219 259.699219 318.742188 260.453125 318.742188 262.570312 C 318.742188 265.128906 320.859375 265.859375 323.117188 265.859375 L 329.980469 265.859375 L 329.980469 267.34375 L 321.75 267.34375 C 320.105469 267.320312 318.742188 268 318.742188 269.878906 C 318.742188 272.445312 320.671875 273.480469 323.210938 273.503906 L 329.980469 273.503906 L 329.980469 274.984375 Z M 317.847656 274.984375 "/>
<path style=" stroke:none;fill-rule:nonzero;fill:rgb(35.299683%,28.999329%,25.898743%);fill-opacity:1;" d="M 318.742188 250.25 C 318.742188 253.515625 321.164062 254.503906 323.914062 254.503906 C 326.429688 254.503906 329.089844 253.398438 329.089844 250.25 C 329.089844 247.425781 326.429688 246.273438 323.914062 246.273438 C 321.398438 246.273438 318.742188 247.425781 318.742188 250.25 M 317.847656 255.984375 L 317.847656 254.621094 L 320.152344 254.621094 L 320.152344 254.574219 C 318.507812 253.894531 317.496094 252.199219 317.496094 250.25 C 317.496094 246.554688 320.484375 244.792969 323.914062 244.792969 C 327.347656 244.792969 330.335938 246.554688 330.335938 250.25 C 330.335938 252.058594 329.417969 253.820312 327.679688 254.457031 L 327.679688 254.503906 L 334.472656 254.503906 L 334.472656 255.984375 Z M 317.847656 255.984375 "/>
<path style=" stroke:none;fill-rule:nonzero;fill:rgb(35.299683%,28.999329%,25.898743%);fill-opacity:1;" d="M 323.351562 235.316406 L 323.351562 235.363281 C 323.703125 235.550781 323.820312 236.210938 323.890625 236.609375 C 324.339844 239.125 324.316406 242.253906 326.691406 242.253906 C 328.171875 242.253906 329.089844 240.9375 329.089844 239.550781 C 329.089844 237.292969 327.65625 235.292969 325.28125 235.316406 Z M 321.5625 243.21875 C 318.71875 243.078125 317.496094 241.078125 317.496094 238.304688 C 317.496094 236.164062 318.15625 233.835938 321.398438 233.835938 L 327.84375 233.835938 C 328.40625 233.835938 328.734375 233.554688 328.734375 232.964844 C 328.734375 232.800781 328.6875 232.613281 328.640625 232.496094 L 329.886719 232.496094 C 329.957031 232.824219 329.980469 233.058594 329.980469 233.460938 C 329.980469 234.964844 329.136719 235.199219 327.867188 235.199219 L 327.867188 235.246094 C 329.441406 236.28125 330.335938 237.339844 330.335938 239.667969 C 330.335938 241.902344 329.230469 243.734375 326.785156 243.734375 C 323.375 243.734375 323.257812 240.417969 322.878906 237.222656 C 322.738281 236 322.574219 235.316406 321.234375 235.316406 C 319.238281 235.316406 318.742188 236.75 318.742188 238.492188 C 318.742188 240.324219 319.589844 241.691406 321.5625 241.738281 Z M 321.5625 243.21875 "/>
<path style=" stroke:none;fill-rule:nonzero;fill:rgb(35.299683%,28.999329%,25.898743%);fill-opacity:1;" d="M 317.847656 231.484375 L 317.847656 230.003906 L 319.941406 230.003906 L 319.941406 229.957031 C 318.484375 229.417969 317.496094 227.792969 317.496094 226.078125 C 317.496094 222.667969 319.285156 221.632812 322.175781 221.632812 L 329.980469 221.632812 L 329.980469 223.113281 L 322.410156 223.113281 C 320.316406 223.113281 318.742188 223.796875 318.742188 226.195312 C 318.742188 228.546875 320.53125 229.957031 322.90625 230.003906 L 329.980469 230.003906 L 329.980469 231.484375 Z M 317.847656 231.484375 "/>
<path style=" stroke:none;fill-rule:nonzero;fill:rgb(35.299683%,28.999329%,25.898743%);fill-opacity:1;" d="M 317.847656 220.785156 L 317.847656 219.210938 L 328.195312 215.214844 L 317.847656 211.476562 L 317.847656 209.992188 L 331.839844 215.261719 C 333.886719 216.105469 334.472656 216.601562 334.472656 218.457031 C 334.449219 219.046875 334.449219 219.351562 334.355469 219.585938 L 333.109375 219.585938 C 333.179688 219.234375 333.226562 218.90625 333.226562 218.578125 C 333.226562 217.257812 332.449219 216.953125 331.324219 216.460938 L 329.933594 215.941406 Z M 317.847656 220.785156 "/>
</g>
</g>
</svg>
