<?xml version="1.0" encoding="UTF-8" standalone="no"?>
<!-- Generator: Adobe Illustrator 9.0, SVG Export Plug-In  -->
<svg
   xmlns:dc="http://purl.org/dc/elements/1.1/"
   xmlns:cc="http://web.resource.org/cc/"
   xmlns:rdf="http://www.w3.org/1999/02/22-rdf-syntax-ns#"
   xmlns:svg="http://www.w3.org/2000/svg"
   xmlns="http://www.w3.org/2000/svg"
   xmlns:sodipodi="http://inkscape.sourceforge.net/DTD/sodipodi-0.dtd"
   xmlns:inkscape="http://www.inkscape.org/namespaces/inkscape"
   width="3.0000000cm"
   height="3.0000000cm"
   viewBox="0 0 432.071 445.383"
   xml:space="preserve"
   id="svg1358"
   sodipodi:version="0.32"
   inkscape:version="0.42"
   sodipodi:docname="pgfr_logo_sans.svg"
   sodipodi:docbase="/opt/diskD/Perso/pgfr/Graphiques"
   inkscape:export-filename="/opt/diskD/Perso/pgfr/Graphiques/pgfr_logo_page.jpg"
   inkscape:export-xdpi="600"
   inkscape:export-ydpi="600"
   version="1.0"
   x="0.0000000"
   y="0.0000000"><metadata
   id="metadata1389"><rdf:RDF><cc:Work
       rdf:about=""><dc:format>image/svg+xml</dc:format><dc:type
         rdf:resource="http://purl.org/dc/dcmitype/StillImage" /></cc:Work></rdf:RDF></metadata><defs
   id="defs1387"><marker
   inkscape:stockid="Arrow1Lstart"
   orient="auto"
   refY="0.0"
   refX="0.0"
   id="Arrow1Lstart"
   style="overflow:visible"><path
     id="path2388"
     d="M 0.0,0.0 L 5.0,-5.0 L -12.5,0.0 L 5.0,5.0 L 0.0,0.0 z "
     style="fill-rule:evenodd;stroke:#000000;stroke-width:1.0pt;marker-start:none"
     transform="scale(0.8)" /></marker><marker
   inkscape:stockid="Tail"
   orient="auto"
   refY="0.0"
   refX="0.0"
   id="Tail"
   style="overflow:visible"><g
     id="g2340"
     transform="scale(-1.2)"><path
       id="path2342"
       d="M -3.8048674,-3.9585227 L 0.54352094,-0.00068114835"
       style="fill:none;fill-rule:evenodd;stroke:#000000;stroke-width:0.8;marker-start:none;marker-end:none;stroke-linecap:round" /><path
       id="path2344"
       d="M -1.2866832,-3.9585227 L 3.0617053,-0.00068114835"
       style="fill:none;fill-rule:evenodd;stroke:#000000;stroke-width:0.8;marker-start:none;marker-end:none;stroke-linecap:round" /><path
       id="path2346"
       d="M 1.3053582,-3.9585227 L 5.6537466,-0.00068114835"
       style="fill:none;fill-rule:evenodd;stroke:#000000;stroke-width:0.8;marker-start:none;marker-end:none;stroke-linecap:round" /><path
       id="path2348"
       d="M -3.8048674,4.1775838 L 0.54352094,0.21974226"
       style="fill:none;fill-rule:evenodd;stroke:#000000;stroke-width:0.8;marker-start:none;marker-end:none;stroke-linecap:round" /><path
       id="path2350"
       d="M -1.2866832,4.1775838 L 3.0617053,0.21974226"
       style="fill:none;fill-rule:evenodd;stroke:#000000;stroke-width:0.8;marker-start:none;marker-end:none;stroke-linecap:round" /><path
       id="path2352"
       d="M 1.3053582,4.1775838 L 5.6537466,0.21974226"
       style="fill:none;fill-rule:evenodd;stroke:#000000;stroke-width:0.8;marker-start:none;marker-end:none;stroke-linecap:round" /></g></marker><marker
   inkscape:stockid="Torso"
   orient="auto"
   refY="0.0"
   refX="0.0"
   id="Torso"
   style="overflow:visible"><g
     id="g2221"
     transform="scale(0.7)"><path
       id="path2223"
       d="M -4.7792281,-3.2395420 C -2.4288541,-2.8736027 0.52103922,-1.3019943 0.25792722,0.38794346 C -0.0051877922,2.0778819 -2.2126741,2.6176539 -4.5630471,2.2517169 C -6.9134221,1.8857769 -8.5210350,0.75201414 -8.2579220,-0.93792336 C -7.9948090,-2.6278615 -7.1296041,-3.6054813 -4.7792281,-3.2395420 z "
       style="fill:none;fill-opacity:0.75000000;fill-rule:evenodd;stroke:#000000;stroke-width:1.2500000;marker-start:none;marker-mid:none;marker-end:none" /><path
       id="path2225"
       d="M 4.4598789,0.088665736 C -2.5564571,-4.3783320 5.2248769,-3.9061806 -0.84829578,-8.7197331"
       style="fill:none;fill-opacity:0.75000000;fill-rule:evenodd;stroke:#000000;stroke-width:1.0000000pt;marker-end:none" /><path
       id="path2227"
       d="M 4.9298719,0.057520736 C -1.3872731,1.7494689 1.8027579,5.4782079 -4.9448731,7.5462725"
       style="fill:none;fill-opacity:0.75000000;fill-rule:evenodd;stroke:#000000;stroke-width:1.0000000pt;marker-start:none;marker-end:none" /><rect
       id="rect2229"
       transform="matrix(0.527536,-0.849533,0.887668,0.460484,0.000000,0.000000)"
       y="-1.7408575"
       x="-10.391706"
       height="2.7608147"
       width="2.6366582"
       style="fill-rule:evenodd;stroke-width:1.0000000pt;marker-end:none" /><rect
       id="rect2231"
       transform="matrix(0.671205,-0.741272,0.790802,0.612072,0.000000,0.000000)"
       y="-7.9629307"
       x="4.9587269"
       height="2.8614161"
       width="2.7327356"
       style="fill-rule:evenodd;stroke-width:1.0000000pt;marker-end:none" /><path
       id="path2233"
       transform="matrix(6.793608e-17,-1.109517,1.109517,6.793608e-17,25.96648,19.71619)"
       d="M 16.779951 -28.685045 A 0.60731727 0.60731727 0 1 0 15.565317,-28.685045 A 0.60731727 0.60731727 0 1 0 16.779951 -28.685045 z"
       sodipodi:ry="0.60731727"
       sodipodi:rx="0.60731727"
       sodipodi:cy="-28.685045"
       sodipodi:cx="16.172634"
       style="fill:#ff0000;fill-opacity:0.75000000;fill-rule:evenodd;stroke:#000000;stroke-width:1.0000000pt;marker-start:none;marker-end:none"
       sodipodi:type="arc" /><path
       id="path2235"
       transform="matrix(6.793608e-17,-1.109517,1.109517,6.793608e-17,26.82450,16.99126)"
       d="M 16.779951 -28.685045 A 0.60731727 0.60731727 0 1 0 15.565317,-28.685045 A 0.60731727 0.60731727 0 1 0 16.779951 -28.685045 z"
       sodipodi:ry="0.60731727"
       sodipodi:rx="0.60731727"
       sodipodi:cy="-28.685045"
       sodipodi:cx="16.172634"
       style="fill:#ff0000;fill-opacity:0.75000000;fill-rule:evenodd;stroke:#000000;stroke-width:1.0000000pt;marker-start:none;marker-end:none"
       sodipodi:type="arc" /></g></marker>
		
		
		
		
		
		
		
		
		
		
		
		
	

	

		
		
		
		
		
		
		
		
		
		
		
		
	


	









</defs><sodipodi:namedview
   inkscape:window-height="717"
   inkscape:window-width="876"
   inkscape:pageshadow="2"
   inkscape:pageopacity="0.0"
   borderopacity="1.0"
   bordercolor="#666666"
   pagecolor="#ffffff"
   id="base"
   inkscape:zoom="3.9017222"
   inkscape:cx="37.991280"
   inkscape:cy="63.540401"
   inkscape:window-x="0"
   inkscape:window-y="0"
   inkscape:current-layer="svg1358"
   inkscape:document-units="cm" />
	
	
<g
   inkscape:groupmode="layer"
   id="layer1"
   inkscape:label="francophonie" /><g
   id="orginal"
   style="fill-rule:nonzero;stroke:#000000;stroke-miterlimit:4.0000000"
   transform="matrix(0.100000,0.000000,0.000000,0.100000,194.4320,200.7485)">
	</g><path
   d=""
   id="path28"
   style="fill:none;fill-rule:nonzero;stroke:#ffffff;stroke-width:0.22770230;stroke-linecap:round;stroke-linejoin:round;stroke-miterlimit:4.0000000" /><g
   id="g1734"
   inkscape:label="calc1"
   transform="matrix(0.100000,0.000000,0.000000,0.100000,245.4492,201.0562)" /><g
   id="g1736"
   style="fill-rule:nonzero;stroke:#000000;stroke-miterlimit:4.0000000"
   transform="matrix(0.100000,0.000000,0.000000,0.100000,245.4492,201.0562)">
	</g><path
   sodipodi:type="arc"
   style="fill:#ff0000;fill-opacity:0.75000000;fill-rule:evenodd;stroke:#000000;stroke-width:1.0000000px;stroke-linecap:butt;stroke-linejoin:miter;stroke-opacity:1.0000000"
   id="path1526"
   sodipodi:cx="200.06509"
   sodipodi:cy="398.93933"
   sodipodi:rx="0.0000000"
   sodipodi:ry="0.0000000"
   d="M 200.06509,398.93933 A 0.0000000,0.0000000 0 0 0 200.06509,398.93933 L 200.06509,398.93933 z"
   sodipodi:start="0.0000000"
   sodipodi:end="-1.0000000"
   transform="matrix(0.100000,0.000000,0.000000,0.100000,245.4492,201.0562)" /><path
   d=""
   id="path1897"
   style="fill:none;fill-rule:nonzero;stroke:#ffffff;stroke-width:0.22770230;stroke-linecap:round;stroke-linejoin:round;stroke-miterlimit:4.0000000" /><path
   sodipodi:type="arc"
   style="fill:#ff0000;fill-opacity:0.75000000;fill-rule:evenodd;stroke:#000000;stroke-width:1.0000000px;stroke-linecap:butt;stroke-linejoin:miter;stroke-opacity:1.0000000"
   id="path1905"
   sodipodi:cx="200.06509"
   sodipodi:cy="398.93933"
   sodipodi:rx="0.0000000"
   sodipodi:ry="0.0000000"
   d="M 200.06509,398.93933 A 0.0000000,0.0000000 0 0 0 200.06509,398.93933 L 200.06509,398.93933 z"
   sodipodi:start="0.0000000"
   sodipodi:end="-1.0000000"
   transform="matrix(0.100000,0.000000,0.000000,0.100000,295.4616,200.1772)" /><g
   id="g2214"
   transform="matrix(8.210430e-2,0.000000,0.000000,8.654980e-2,243.5427,203.2265)"
   inkscape:export-filename="D:\Documentation\Images\francophant3.png"
   inkscape:export-xdpi="84"
   inkscape:export-ydpi="84" />





<path
   sodipodi:type="arc"
   style="fill:#ff0000;fill-opacity:0.75000000;fill-rule:evenodd;stroke:#000000;stroke-width:1.0000000px;stroke-linecap:butt;stroke-linejoin:miter;stroke-opacity:1.0000000"
   id="path2247"
   sodipodi:cx="200.06509"
   sodipodi:cy="398.93933"
   sodipodi:rx="0.0000000"
   sodipodi:ry="0.0000000"
   d="M 200.06509,398.93933 A 0.0000000,0.0000000 0 0 0 200.06509,398.93933 L 200.06509,398.93933 z"
   sodipodi:start="0.0000000"
   sodipodi:end="-1.0000000"
   transform="matrix(0.100000,0.000000,0.000000,0.100000,242.0534,199.1274)" /><g
   id="g2167"
   transform="translate(0.764755,25.13940)"
   inkscape:export-filename="/opt/diskD/Perso/pgfr/Graphiques/logo_pgfr_sans_48.png"
   inkscape:export-xdpi="48.867416"
   inkscape:export-ydpi="48.867416"><path
     inkscape:export-ydpi="203.61424"
     inkscape:export-xdpi="203.61424"
     inkscape:export-filename="/opt/diskD/Perso/pgfr/Graphiques/logo_pgfr_big.png"
     sodipodi:open="true"
     inkscape:label="#path1347"
     sodipodi:end="1.5030004"
     sodipodi:start="0.20711023"
     transform="matrix(2.647417,-0.730865,0.662731,2.664274,610.0412,19.21318)"
     d="M -91.316922,24.679295 A 60.998566,60.998566 0 0 1 -146.87961,72.994428"
     sodipodi:ry="60.998566"
     sodipodi:rx="60.998566"
     sodipodi:cy="12.135992"
     sodipodi:cx="-151.01190"
     id="path2400"
     style="fill:none;fill-opacity:1.0000000;fill-rule:evenodd;stroke:#9e0075;stroke-width:7.4024000;stroke-linecap:butt;stroke-linejoin:miter;stroke-miterlimit:4.0000000;stroke-dasharray:none;stroke-dashoffset:0.0000000;stroke-opacity:1.0000000"
     sodipodi:type="arc" /><path
     inkscape:export-ydpi="203.61424"
     inkscape:export-xdpi="203.61424"
     inkscape:export-filename="/opt/diskD/Perso/pgfr/Graphiques/logo_pgfr_big.png"
     sodipodi:open="true"
     inkscape:label="#path1347"
     sodipodi:end="1.5030004"
     sodipodi:start="0.20711023"
     transform="matrix(1.600607,2.231824,-2.271185,1.542493,491.7421,500.2313)"
     d="M -91.316922,24.679295 A 60.998566,60.998566 0 0 1 -146.87961,72.994428"
     sodipodi:ry="60.998566"
     sodipodi:rx="60.998566"
     sodipodi:cy="12.135992"
     sodipodi:cx="-151.01190"
     id="path2402"
     style="fill:none;fill-opacity:1.0000000;fill-rule:evenodd;stroke:#ff0000;stroke-width:7.4024000;stroke-linecap:butt;stroke-linejoin:miter;stroke-miterlimit:4.0000000;stroke-dasharray:none;stroke-dashoffset:0.0000000;stroke-opacity:1.0000000"
     sodipodi:type="arc" /><path
     inkscape:export-ydpi="203.61424"
     inkscape:export-xdpi="203.61424"
     inkscape:export-filename="/opt/diskD/Perso/pgfr/Graphiques/logo_pgfr_big.png"
     sodipodi:open="true"
     inkscape:label="#path1347"
     sodipodi:end="1.5030004"
     sodipodi:start="0.20711023"
     transform="matrix(-2.575043,-0.955057,1.020186,-2.548880,-208.2616,77.86310)"
     d="M -91.316922,24.679295 A 60.998566,60.998566 0 0 1 -146.87961,72.994428"
     sodipodi:ry="60.998566"
     sodipodi:rx="60.998566"
     sodipodi:cy="12.135992"
     sodipodi:cx="-151.01190"
     id="path2406"
     style="fill:none;fill-opacity:1.0000000;fill-rule:evenodd;stroke:#ffcc00;stroke-width:7.4024000;stroke-linecap:butt;stroke-linejoin:miter;stroke-miterlimit:4.0000000;stroke-dasharray:none;stroke-dashoffset:0.0000000;stroke-opacity:1.0000000"
     sodipodi:type="arc" /><path
     inkscape:export-ydpi="203.61424"
     inkscape:export-xdpi="203.61424"
     inkscape:export-filename="/opt/diskD/Perso/pgfr/Graphiques/logo_pgfr_big.png"
     sodipodi:open="true"
     inkscape:label="#path1347"
     sodipodi:end="1.5030004"
     sodipodi:start="0.20711023"
     transform="matrix(5.564834e-2,-2.745886,2.742582,0.125760,172.4211,-246.4873)"
     d="M -91.316922,24.679295 A 60.998566,60.998566 0 0 1 -146.87961,72.994428"
     sodipodi:ry="60.998566"
     sodipodi:rx="60.998566"
     sodipodi:cy="12.135992"
     sodipodi:cx="-151.01190"
     id="path2410"
     style="fill:none;fill-opacity:1.0000000;fill-rule:evenodd;stroke:#009920;stroke-width:7.4024000;stroke-linecap:butt;stroke-linejoin:miter;stroke-miterlimit:4.0000000;stroke-dasharray:none;stroke-dashoffset:0.0000000;stroke-opacity:1.0000000"
     sodipodi:type="arc" /><path
     inkscape:export-ydpi="203.61424"
     inkscape:export-xdpi="203.61424"
     inkscape:export-filename="/opt/diskD/Perso/pgfr/Graphiques/logo_pgfr_big.png"
     sodipodi:open="true"
     inkscape:label="#path1347"
     sodipodi:end="1.5030004"
     sodipodi:start="0.20711023"
     transform="matrix(-1.843516,-2.035787,-1.987295,1.894261,-42.58690,-129.2740)"
     d="M -91.316922,24.679295 A 60.998566,60.998566 0 0 1 -146.87961,72.994428"
     sodipodi:ry="60.998566"
     sodipodi:rx="60.998566"
     sodipodi:cy="12.135992"
     sodipodi:cx="-151.01190"
     id="path2404"
     style="fill:none;fill-opacity:1.0000000;fill-rule:evenodd;stroke:#0099cc;stroke-width:7.4024000;stroke-linecap:butt;stroke-linejoin:miter;stroke-miterlimit:4.0000000;stroke-dasharray:none;stroke-dashoffset:0.0000000;stroke-opacity:1.0000000"
     sodipodi:type="arc" /><g
     inkscape:export-ydpi="203.61424"
     inkscape:export-xdpi="203.61424"
     inkscape:export-filename="/opt/diskD/Perso/pgfr/Graphiques/logo_pgfr_big.png"
     transform="matrix(0.647432,0.000000,0.000000,0.684238,67.00540,45.45835)"
     style="fill:none;fill-rule:nonzero;stroke:#ffffff;stroke-width:12.465100;stroke-linecap:round;stroke-linejoin:round;stroke-miterlimit:4.0000000"
     id="g2226">
		<path
   id="path6"
   d="M 323.20500,324.22700 C 326.03800,300.62600 325.18900,297.16500 342.76800,300.98800 L 347.23100,301.38000 C 360.74800,301.99500 378.43000,299.20600 388.81800,294.38000 C 411.18000,284.00400 424.44000,266.68000 402.39000,271.23200 C 352.09300,281.60800 348.63500,264.57700 348.63500,264.57700 C 401.74600,185.77400 423.94800,85.741000 404.78400,61.255000 C 352.51400,-5.5340000 262.03600,26.049000 260.52200,26.869000 L 260.04000,26.958000 C 250.10200,24.896000 238.98000,23.664000 226.48600,23.462000 C 203.72500,23.088000 186.45400,29.429000 173.35300,39.366000 C 173.35300,39.366000 11.945000,-27.132000 19.454000,122.99400 C 21.051000,154.93000 65.231000,364.64900 117.92400,301.30400 C 137.18300,278.14100 155.79500,258.55600 155.79500,258.55600 C 165.03700,264.69600 176.10200,267.82800 187.70700,266.70300 L 188.60400,265.93800 C 188.32300,268.81400 188.44700,271.62700 188.96300,274.95700 C 175.39100,290.12400 179.37900,292.78700 152.24000,298.37300 C 124.78300,304.03200 140.91400,314.10700 151.44300,316.74000 C 164.21100,319.93300 193.74800,324.45600 213.71100,296.51600 L 212.91600,299.70400 C 218.24100,303.96400 217.88100,330.32300 218.63600,349.15600 C 219.39200,367.99000 220.65300,385.56500 224.49200,395.92700 C 228.33100,406.28700 232.86100,432.97700 268.52800,425.33300 C 298.33700,418.94500 321.12800,409.75100 323.20500,324.22600"
   style="fill:#000000;stroke:#000000;stroke-width:37.395302;stroke-linecap:butt;stroke-linejoin:miter" />
		<path
   id="path8"
   d="M 402.39500,271.23000 C 352.09300,281.60600 348.63500,264.57500 348.63500,264.57500 C 401.74600,185.76700 423.94800,85.732000 404.78800,61.249000 C 352.51800,-5.5360000 262.03600,26.049000 260.52600,26.869000 L 260.04000,26.956000 C 250.10200,24.893000 238.98000,23.664000 226.48000,23.460000 C 203.71900,23.087000 186.45400,29.427000 173.35300,39.362000 C 173.35300,39.362000 11.942000,-27.133000 19.449000,122.99200 C 21.046000,154.93000 65.225000,364.64900 117.92000,301.30400 C 137.18000,278.14100 155.78900,258.55600 155.78900,258.55600 C 165.03200,264.69600 176.09700,267.82800 187.69700,266.70300 L 188.59800,265.93800 C 188.31800,268.81400 188.44600,271.62700 188.95900,274.95700 C 175.38400,290.12400 179.37300,292.78700 152.23600,298.37300 C 124.77700,304.03200 140.90800,314.10700 151.44000,316.74000 C 164.20800,319.93300 193.74700,324.45600 213.70600,296.51600 L 212.91000,299.70400 C 218.22900,303.96400 221.96400,327.41500 221.33800,348.67300 C 220.71200,369.93200 220.29400,384.52700 224.48500,395.92700 C 228.67600,407.32700 232.85300,432.97700 268.52700,425.33300 C 298.33600,418.94500 313.78300,402.39100 315.93200,374.77800 C 317.45700,355.14700 320.90800,358.04900 321.12600,340.49800 L 323.89400,332.18900 C 327.08600,305.57800 324.40100,296.99300 342.76600,300.98600 L 347.22900,301.37800 C 360.74600,301.99300 378.43700,299.20400 388.82000,294.37800 C 411.17800,284.00200 424.43800,266.67800 402.39300,271.23000 L 402.39500,271.23000 z "
   style="fill:#336791;stroke:none" />
		<path
   id="path10"
   d="M 215.86600,286.48400 C 214.48100,336.00000 216.21400,385.86100 221.05900,397.97900 C 225.90700,410.09700 236.28200,433.66700 271.95900,426.02400 C 301.76500,419.63400 312.61000,407.26800 317.31600,379.97300 C 320.78200,359.89100 327.46400,304.11900 328.32100,292.69200" />
		<path
   id="path12"
   d="M 173.10400,38.256000 C 173.10400,38.256000 11.583000,-27.760000 19.092000,122.36500 C 20.689000,154.30300 64.871000,364.02900 117.56500,300.68100 C 136.82100,277.51500 154.23600,259.34600 154.23600,259.34600" />
		<path
   id="path14"
   d="M 260.34900,26.207000 C 254.75800,27.960000 350.19700,-8.6820000 404.43600,60.624000 C 423.59500,85.108000 401.39300,185.14300 348.28300,263.95300" />
		<path
   id="path16"
   d="M 348.28200,263.95300 C 348.28200,263.95300 351.74300,280.98900 402.04600,270.60600 C 424.08600,266.05400 410.82200,283.38000 388.46900,293.76100 C 370.12400,302.27500 328.99500,304.45700 328.32300,292.69200 C 326.59400,262.33700 349.97000,271.55900 348.28300,263.95300 C 346.75800,257.10300 336.30400,250.38000 329.38900,233.61500 C 323.35200,218.98200 246.59300,106.76600 350.67600,123.43200 C 354.48900,122.64300 323.53000,24.430000 226.12300,22.833000 C 128.73800,21.236000 131.93300,142.59500 131.93300,142.59500"
   style="stroke-linejoin:bevel" />
		<path
   id="path18"
   d="M 188.60400,274.33400 C 175.02700,289.50000 179.02000,292.16300 151.88100,297.75100 C 124.42200,303.41100 140.55500,313.48400 151.08400,316.11600 C 163.85200,319.31100 193.39100,323.83400 213.35000,295.88700 C 219.42800,287.37800 213.31400,273.80100 204.96500,270.34000 C 200.93100,268.66900 195.53700,266.57500 188.60400,274.33400 L 188.60400,274.33400 z " />
		<path
   id="path20"
   d="M 187.71500,274.06900 C 186.34700,265.15200 190.64500,254.54100 195.25100,242.12700 C 202.17300,223.50100 218.14400,204.87200 205.36800,145.78800 C 195.84500,101.75900 131.97200,136.62500 131.93200,142.59500 C 131.89300,148.56300 134.82100,172.85500 130.86500,201.14300 C 125.70300,238.05600 154.35300,269.27500 187.34400,266.08100" />
		<path
   id="path22"
   d="M 172.51700,141.70000 C 172.22900,143.73900 176.25000,149.18000 181.49300,149.90700 C 186.72700,150.63700 191.20700,146.38500 191.49100,144.34800 C 191.77500,142.30900 187.75900,140.06300 182.51400,139.33300 C 177.27700,138.60200 172.79500,139.66600 172.51800,141.70000 L 172.51700,141.70000 z "
   style="fill:#ffffff;stroke-width:4.1550002;stroke-linecap:butt;stroke-linejoin:miter" />
		<path
   id="path24"
   d="M 331.94100,137.54300 C 332.22500,139.58200 328.20900,145.02300 322.96500,145.75000 C 317.72700,146.48000 313.24700,142.22800 312.96000,140.19100 C 312.68300,138.15200 316.70000,135.90600 321.93900,135.17600 C 327.17800,134.44600 331.65700,135.50900 331.94100,137.54400 L 331.94100,137.54300 z "
   style="fill:#ffffff;stroke-width:2.0775001;stroke-linecap:butt;stroke-linejoin:miter" />
		<path
   id="path26"
   d="M 350.67600,123.43200 C 351.53900,139.42600 347.23100,150.32000 346.68800,167.34600 C 345.88400,192.09400 358.48700,220.42000 339.49700,248.78100" />
		<path
   d=""
   id="path2239"
   style="stroke-width:3.0000000" />
	</g></g></svg>