<?xml version="1.0" encoding="UTF-8" standalone="no"?>
<!-- Created with Inkscape (http://www.inkscape.org/) -->
<svg
   xmlns:dc="http://purl.org/dc/elements/1.1/"
   xmlns:cc="http://creativecommons.org/ns#"
   xmlns:rdf="http://www.w3.org/1999/02/22-rdf-syntax-ns#"
   xmlns:svg="http://www.w3.org/2000/svg"
   xmlns="http://www.w3.org/2000/svg"
   xmlns:sodipodi="http://sodipodi.sourceforge.net/DTD/sodipodi-0.dtd"
   xmlns:inkscape="http://www.inkscape.org/namespaces/inkscape"
   id="svg2457"
   sodipodi:version="0.32"
   inkscape:version="0.46"
   width="637"
   height="449"
   version="1.0"
   sodipodi:docname="eiffelephant_v2.fr.svg"
   inkscape:output_extension="org.inkscape.output.svg.inkscape"
   inkscape:export-filename="/media/sda5/damien/dev/pgfr/materials/events/trunk/pgday.eu_2009/flyers/eiffelephant_v2.png"
   inkscape:export-xdpi="113.05122"
   inkscape:export-ydpi="113.05122">
  <metadata
     id="metadata2462">
    <rdf:RDF>
      <cc:Work
         rdf:about="">
        <dc:format>image/svg+xml</dc:format>
        <dc:type
           rdf:resource="http://purl.org/dc/dcmitype/StillImage" />
      </cc:Work>
    </rdf:RDF>
  </metadata>
  <defs
     id="defs2460">
    <inkscape:perspective
       sodipodi:type="inkscape:persp3d"
       inkscape:vp_x="0 : 526.18109 : 1"
       inkscape:vp_y="0 : 1000 : 0"
       inkscape:vp_z="744.09448 : 526.18109 : 1"
       inkscape:persp3d-origin="372.04724 : 350.78739 : 1"
       id="perspective2464" />
  </defs>
  <sodipodi:namedview
     inkscape:window-height="748"
     inkscape:window-width="1280"
     inkscape:pageshadow="2"
     inkscape:pageopacity="0.0"
     guidetolerance="10.0"
     gridtolerance="10.0"
     objecttolerance="10.0"
     borderopacity="1.0"
     bordercolor="#666666"
     pagecolor="#ffffff"
     id="base"
     showgrid="false"
     showguides="true"
     inkscape:guide-bbox="true"
     units="mm"
     inkscape:zoom="1.2521451"
     inkscape:cx="290.18634"
     inkscape:cy="215.41111"
     inkscape:window-x="0"
     inkscape:window-y="0"
     inkscape:current-layer="svg2457">
    <sodipodi:guide
       orientation="1,0"
       position="20.329787,298.17021"
       id="guide2506" />
    <sodipodi:guide
       orientation="1,0"
       position="615.54078,387.39539"
       id="guide2508" />
    <sodipodi:guide
       orientation="0,1"
       position="-55.342199,428.05496"
       id="guide2510" />
    <sodipodi:guide
       orientation="0,1"
       position="-18.070922,20.329787"
       id="guide2514" />
    <sodipodi:guide
       orientation="1,0"
       position="47.917768,220.42173"
       id="guide3826" />
    <sodipodi:guide
       orientation="1,0"
       position="559.04063,164.51767"
       id="guide3828" />
  </sodipodi:namedview>
  <rect
     style="opacity:1;fill:#ffffff;fill-opacity:1;fill-rule:nonzero;stroke:#333333;stroke-width:7;stroke-linecap:butt;stroke-linejoin:round;marker:none;marker-start:none;marker-mid:none;marker-end:none;stroke-miterlimit:15;stroke-dasharray:none;stroke-dashoffset:0;stroke-opacity:1;visibility:visible;display:inline;overflow:visible;enable-background:accumulate"
     id="rect2516"
     width="595.211"
     height="407.72516"
     x="20.329786"
     y="20.94504" />
  <g
     id="g3806"
     transform="translate(17.27003,2.3958884)">
    <path
       id="path3326"
       d="M 485.58622,332.81113 L 507.89326,333.12262 L 507.87778,334.23088 L 485.57074,333.91939 L 485.58622,332.81113 z"
       style="fill:#333333;fill-rule:evenodd;stroke:#4a6270;stroke-width:0;stroke-miterlimit:4;stroke-dasharray:none" />
    <path
       id="path3324"
       d="M 486.63507,328.9896 L 508.0166,329.28816 L 507.97577,332.21213 L 486.59424,331.91357 L 486.63507,328.9896 z"
       style="fill:#333333;fill-rule:evenodd;stroke:#4a6270;stroke-width:0;stroke-miterlimit:4;stroke-dasharray:none" />
    <path
       id="path3316"
       d="M 598.25527,332.89365 L 575.94823,333.20514 L 575.96371,334.31339 L 598.27075,334.00191 L 598.25527,332.89365 z"
       style="fill:#333333;fill-rule:evenodd;stroke:#4a6270;stroke-width:0;stroke-miterlimit:4;stroke-dasharray:none" />
    <path
       id="path3314"
       d="M 597.19578,328.96505 L 575.81425,329.26362 L 575.85508,332.18759 L 597.23661,331.88903 L 597.19578,328.96505 z"
       style="fill:#333333;fill-rule:evenodd;stroke:#4a6270;stroke-width:0;stroke-miterlimit:4;stroke-dasharray:none" />
    <path
       id="path4091"
       d="M 485.74049,331.42582 C 485.45005,333.68137 485.90768,334.99062 486.60724,334.34689 C 493.6128,334.43501 500.61693,335.00012 507.62271,335.02038 C 507.9659,334.39491 507.80796,331.95075 507.31601,332.30307 C 500.16514,332.02503 493.01378,331.7332 485.86383,331.24396 L 485.76689,331.38689 L 485.74049,331.42582 z"
       style="fill:#333333;fill-opacity:1;fill-rule:evenodd;stroke:#4a6270;stroke-width:0.10119385;stroke-miterlimit:4;stroke-dasharray:none" />
    <path
       id="path3328"
       d="M 487.0226,329.405 C 486.97049,330.06757 486.73556,331.05127 487.16279,331.56923 C 493.89436,331.68779 500.6454,331.79752 507.3852,331.85239 C 507.95011,331.45878 507.6009,330.42911 507.61778,329.80864 C 507.00092,329.43002 506.06509,329.72101 505.32583,329.60714 C 499.29496,329.49674 493.26377,329.40507 487.23261,329.31211 L 487.11442,329.3644 L 487.0226,329.405 z"
       style="fill:#333333;fill-rule:evenodd;stroke:#4a6270;stroke-width:0;stroke-miterlimit:4;stroke-dasharray:none" />
    <path
       id="path3330"
       d="M 589.54639,329.39693 C 585.16129,329.44746 580.77623,329.51337 576.39268,329.64328 C 575.84412,330.06649 576.18922,331.0898 576.17221,331.72338 C 576.79341,332.09546 577.72963,331.75585 578.47208,331.84456 C 584.50246,331.70546 590.53416,331.64094 596.56545,331.55757 C 597.12036,331.14039 596.77232,330.1105 596.78996,329.47748 C 596.16876,329.1043 595.23233,329.43156 594.48977,329.33713 C 592.84197,329.35706 591.19417,329.377 589.54639,329.39693 z"
       style="fill:#333333;fill-rule:evenodd;stroke:#4a6270;stroke-width:0;stroke-miterlimit:4;stroke-dasharray:none" />
    <path
       id="path3332"
       d="M 531.73792,199.17646 C 531.08561,201.95186 530.76478,204.82776 530.25632,207.64533 C 529.30975,213.40278 528.42627,219.17031 527.49741,224.93058 C 526.6603,225.09192 525.59901,224.83527 525.15514,225.77424 C 524.80976,226.29394 524.03617,226.78311 524.16556,227.47085 C 525.051,228.91537 526.09655,230.28913 526.86739,231.78812 C 524.66239,241.16218 522.5883,250.55892 519.95495,259.82334 C 518.55394,264.85515 517.07564,269.86497 515.61585,274.87993 C 514.23689,274.97847 512.81313,274.84523 511.46418,275.14243 C 511.23895,275.49389 511.6048,275.94327 511.49649,276.37017 C 511.50853,277.53372 511.42619,278.68521 511.34302,279.8474 C 510.81246,280.12266 509.98224,280.53153 510.29298,281.27302 C 510.49025,281.90651 510.23706,282.81222 510.74302,283.24746 C 511.24788,283.3151 511.87143,283.1755 512.31632,283.33271 C 511.86465,285.28005 511.40013,287.24656 510.7671,289.14105 C 503.66568,302.18425 496.56394,315.22729 489.46191,328.27016 C 489.56612,329.09125 490.89307,328.53049 491.51328,328.71556 C 496.54015,328.76333 501.5739,328.93292 506.59767,328.81132 C 507.49226,328.78342 507.26587,327.58969 507.54405,327.01185 C 508.342,323.91879 509.3522,320.85869 510.65091,317.93353 C 511.64808,316.05571 512.72303,314.19426 513.83818,312.38061 C 516.44898,309.91057 518.77246,307.1291 521.91543,305.31309 C 525.02457,303.22044 528.31831,301.2987 531.96408,300.32712 C 537.38543,298.66396 543.22591,298.25492 548.77917,299.50458 C 552.69212,300.33507 556.52597,301.74072 559.87049,303.97917 C 562.29274,305.5035 564.75644,307.0508 566.72985,309.13772 C 567.85133,310.30748 569.18361,311.31386 570.16188,312.59649 C 571.78973,315.42481 573.5952,318.16955 574.53201,321.3279 C 575.40189,323.74435 576.14409,326.18724 576.70365,328.69018 C 577.26395,329.17396 578.2098,328.75995 578.92074,328.8842 C 583.82473,328.78312 588.74384,328.89424 593.63748,328.60941 C 594.39635,328.44891 593.66311,327.66099 593.50672,327.27721 C 586.66638,314.4671 579.79073,301.67588 572.93564,288.87366 C 572.43708,287.00598 571.93646,285.13883 571.44944,283.26809 C 572.03753,283.15292 572.88225,283.51698 573.28699,283.0177 C 573.27647,282.15943 573.86101,281.15301 573.36373,280.3603 C 573.00909,279.97938 572.16908,280.01719 572.41911,279.31438 C 572.37843,277.88873 572.59438,276.41025 572.39044,275.01724 C 571.014,274.81499 569.57311,275.02856 568.18625,274.77492 C 564.88428,263.51282 561.60677,252.2369 559.07947,240.77661 C 558.36723,237.74758 557.63877,234.72238 556.91857,231.69523 C 557.79162,230.14601 559.00642,228.76795 559.72943,227.14777 C 559.34696,226.38514 558.66564,225.73951 558.08423,225.12927 C 557.53653,224.95531 556.83706,225.08784 556.32489,224.85385 C 554.95711,216.34997 553.643,207.81637 552.19341,199.31781 C 551.66948,198.78751 550.68291,199.21896 549.97622,199.07953 C 543.9668,199.07953 537.95736,199.07953 531.94793,199.07953 L 531.8306,199.13369 L 531.73792,199.17646 z M 542.07269,241.00015 C 544.45815,241.00015 546.84362,241.00015 549.22908,241.00015 C 550.37669,251.89318 552.63995,262.61554 555.0528,273.28881 C 555.0461,273.77195 555.74395,274.79948 554.85094,274.62316 C 546.4573,274.72218 538.04287,274.70353 529.64199,274.62906 C 529.19322,274.55504 528.22129,274.84633 528.6072,274.09535 C 531.08915,263.14937 533.26852,252.1527 534.87592,241.05265 C 537.18662,240.93068 539.69554,241.03479 542.07269,241.00015 z"
       style="fill:#333333;fill-rule:evenodd;stroke:#4a6270;stroke-width:0;stroke-miterlimit:4;stroke-dasharray:none" />
    <path
       id="path3334"
       d="M 541.87481,59.485307 C 541.16385,59.408003 540.48881,59.882549 540.5138,60.640347 C 539.96574,61.706848 538.90145,62.408076 538.26429,63.439091 C 537.46213,64.591066 536.44788,65.674939 535.92595,66.984977 C 535.93396,67.588303 536.96379,67.134096 536.68708,67.78436 C 536.62765,68.430565 536.88109,69.262638 536.02692,69.436406 C 535.64568,69.666824 534.81572,70.130502 535.33631,70.62779 C 535.85189,70.875378 536.26992,71.032115 536.05519,71.730328 C 536.05519,72.814021 536.05519,73.897708 536.05519,74.981396 C 535.26923,75.008922 534.57164,75.304638 534.71437,76.225287 C 534.37194,76.999725 534.85474,77.575813 535.42993,78.04292 C 536.49084,79.268648 536.73376,80.970328 537.39897,82.413674 C 537.75682,83.624969 537.40128,84.954977 537.46477,86.215256 C 537.09626,100.21689 536.50889,114.19829 535.79481,128.18515 C 535.18,141.15028 534.72086,154.12494 533.76775,167.07136 C 533.42295,173.40391 533.21481,179.73677 532.73883,186.06922 C 532.40333,190.26502 532.4204,194.49636 531.79043,198.66337 C 532.06349,199.26759 532.94493,198.90073 533.46635,199.04622 C 539.52943,199.11448 545.60097,199.20236 551.66032,199.0632 C 552.46072,198.96793 551.84335,198.00058 551.8784,197.5043 C 551.34249,191.50059 551.10087,185.47342 550.66621,179.46142 C 550.3553,172.88919 550.09651,166.31049 549.57112,159.7415 C 548.66194,144.07491 548.11117,128.39008 547.29564,112.71855 C 546.84169,102.76352 546.56345,92.791189 546.2688,82.82435 C 546.93405,81.307512 547.25716,79.603909 548.20328,78.228428 C 548.66452,77.648995 549.56035,77.181008 549.1506,76.318974 C 549.13606,75.672683 548.79681,74.877035 548.02154,74.97736 C 547.63947,74.96295 547.8592,74.286154 547.75683,74.020363 C 547.72563,73.007048 547.73739,71.975278 547.73481,70.95492 C 548.25088,70.933319 548.9328,70.35283 548.40924,69.872576 C 548.06808,69.374096 546.99731,69.356055 547.22191,68.576188 C 547.20826,68.182595 547.19255,67.783115 547.11689,67.396917 C 548.0746,67.656914 548.1375,66.829763 547.56759,66.272264 C 546.39658,64.315486 544.95138,62.545411 543.45389,60.838238 C 543.2061,60.330702 543.14522,59.564323 542.42001,59.509538 C 542.2399,59.48017 542.05698,59.476304 541.87481,59.485307 z"
       style="fill:#333333;fill-rule:evenodd;stroke:#4a6270;stroke-width:0;stroke-miterlimit:4;stroke-dasharray:none" />
    <path
       id="path3336"
       d="M 541.76979,48.294183 C 541.34387,48.792806 541.29444,49.703387 540.58649,49.88943 C 540.19513,50.270271 540.71979,50.799588 541.16401,50.685033 C 540.98453,51.426408 541.07645,52.310371 540.78437,52.982991 C 540.31608,53.270775 540.31967,54.133164 540.69957,54.493428 C 541.27452,54.490422 541.03814,55.244202 541.15663,55.631466 C 541.24656,56.208799 541.35387,56.714956 540.64708,56.633881 C 540.09019,56.751052 540.38025,57.508905 540.88535,57.397177 C 541.35677,57.329078 541.17557,58.103655 541.35468,58.379227 C 541.47824,58.745393 541.50176,59.719469 542.08482,59.400322 C 542.49541,58.835982 542.41496,57.951453 542.75521,57.405253 C 543.22941,57.562737 543.79433,56.90143 543.19947,56.654076 C 542.46007,56.717891 542.54838,56.250779 542.67776,55.639826 C 542.81059,55.286272 542.64409,54.634934 542.941,54.420732 C 543.45287,54.288746 543.35002,53.632869 543.41754,53.237425 C 543.32052,52.921558 542.83146,53.056785 542.92888,52.619518 C 542.86923,51.990019 542.673,51.252078 542.74714,50.680992 C 543.45498,50.824223 543.56992,49.537507 542.84003,49.63096 C 542.43716,49.238006 542.42604,48.212052 541.76979,48.294183 z"
       style="fill:#333333;fill-rule:evenodd;stroke:#4a6270;stroke-width:0;stroke-miterlimit:4;stroke-dasharray:none" />
    <path
       id="path4065"
       d="M 531.45031,198.80859 C 530.52174,201.66086 530.37426,204.76663 529.77667,207.72358 C 528.85126,213.32341 527.99874,218.95131 526.99476,224.52807 C 525.36999,224.47027 523.75807,226.00279 523.67637,227.53112 C 524.4434,229.07457 525.76669,230.48755 526.31216,232.0528 C 523.3691,244.90737 520.20251,257.68585 516.41615,270.31755 C 516.01586,271.69098 515.63624,273.10123 515.22223,274.45295 C 513.94268,274.64586 512.56556,274.32 511.3603,274.81313 C 510.69252,276.34073 511.284,278.28561 510.6266,279.7756 C 509.38589,280.5668 509.66565,282.47706 510.53323,283.41742 C 510.83561,283.87127 512.10061,283.33914 511.61607,284.14482 C 511.05685,286.54348 510.41488,288.93017 509.06582,291.03455 C 502.54534,303.40031 495.70665,315.63826 489.10922,327.97963 C 488.86078,329.61643 490.92333,329.05423 491.91723,329.17504 C 496.97259,329.1932 502.06535,329.3035 507.09742,329.13728 C 508.08508,328.55681 507.86131,327.03392 508.35335,326.04957 C 509.41438,322.08829 510.86458,318.2691 513.0383,314.7619 C 514.9061,311.41215 518.00891,309.01819 520.94241,306.64099 C 528.1601,301.01166 537.6616,298.33293 546.71125,299.67219 C 554.97489,300.74362 562.26941,305.43276 568.12248,311.15231 C 570.68565,313.62087 572.09312,317.0234 573.56724,320.21244 C 574.83408,323.00413 575.36972,326.0639 576.38603,328.9601 C 577.35538,330.00021 579.06342,329.19423 580.34743,329.40604 C 584.78239,329.2611 589.24517,329.37426 593.66132,328.97347 C 594.93705,328.08643 593.37482,326.71235 593.06453,325.68788 C 586.65557,313.20437 579.82772,300.9208 573.34231,288.48063 C 572.94358,286.91778 572.42598,285.25447 572.13726,283.75092 C 573.11327,283.93024 574.08233,283.21061 573.90479,282.16346 C 574.2627,281.14817 573.85419,280.11834 573.03771,279.48213 C 572.70976,277.9571 573.21232,276.30506 572.69087,274.83314 C 571.42936,274.29956 569.94772,274.54551 568.6155,274.29954 C 564.58032,260.98638 561.0601,247.51285 557.95115,233.93935 C 557.58161,232.68776 557.14542,231.42403 558.30369,230.45102 C 558.88912,229.22012 560.50718,227.97087 559.86447,226.48905 C 559.19892,225.44176 558.14162,224.41681 556.87632,224.44803 C 555.80699,219.482 555.24128,214.39497 554.33538,209.38798 C 553.76247,206.03626 553.276,202.66477 552.62754,199.32885 C 551.78759,198.23042 550.12065,198.97909 548.92569,198.72188 C 543.22108,198.71891 537.47939,198.53098 531.7976,198.6773 L 531.59795,198.75278 L 531.45031,198.80859 z M 542.08896,241.48986 C 544.33007,241.48986 546.57119,241.48986 548.81231,241.48986 C 550.02074,252.42321 552.33982,263.21387 554.66854,273.96604 C 546.53087,274.39774 538.36813,274.21843 530.22304,274.08611 C 528.91934,274.38236 529.25645,273.36429 529.48483,272.48373 C 531.72147,262.2106 533.73894,251.8881 535.30557,241.48986 C 537.56671,241.48986 539.82782,241.48986 542.08896,241.48986 z"
       style="fill:#333333;fill-opacity:1;fill-rule:evenodd;stroke:#4a6270;stroke-width:0;stroke-miterlimit:4;stroke-dasharray:none" />
    <path
       id="path4067"
       d="M 486.72802,328.83173 C 486.13186,330.46355 486.37194,333.82364 487.94197,333.52901 C 494.45721,333.69005 501.00539,334.00084 507.50052,334.05447 C 508.4774,333.35291 508.42345,329.85988 507.5339,329.06075 C 500.81023,328.59409 494.01985,328.51151 487.2683,328.49773 C 487.0882,328.60909 486.90812,328.72041 486.72802,328.83173 z"
       style="fill:#333333;fill-opacity:1;fill-rule:evenodd;stroke:#4a6270;stroke-width:0;stroke-miterlimit:4;stroke-dasharray:none" />
    <path
       id="path4069"
       d="M 590.20625,328.51931 C 585.56466,328.65594 580.8822,328.61456 576.26876,329.08171 C 575.36986,329.87726 575.39349,333.20577 576.28381,333.98952 C 583.01992,334.08852 589.82532,333.80392 596.58276,333.39973 C 597.69534,332.90087 597.55724,329.81479 596.94403,328.7577 C 594.78705,328.16031 592.42939,328.64131 590.20625,328.51931 z"
       style="fill:#333333;fill-opacity:1;fill-rule:evenodd;stroke:#4a6270;stroke-width:0;stroke-miterlimit:4;stroke-dasharray:none" />
    <path
       id="path4071"
       d="M 541.55536,59.045608 C 540.04986,59.211391 539.98585,61.015878 538.96826,61.828707 C 537.7391,63.381196 536.3444,64.907527 535.57237,66.742777 C 535.41077,67.568897 536.56753,67.782789 536.17267,68.630384 C 535.8683,69.368097 534.24947,69.46666 534.72529,70.598036 C 535.56573,71.03368 535.64135,71.836932 535.56569,72.685743 C 535.41442,73.436875 536.01218,74.664026 534.96541,74.773449 C 534.13032,75.264009 534.10561,76.485594 534.33175,77.301372 C 535.54436,79.202602 536.74025,81.235631 537.07848,83.477537 C 536.09786,113.75997 534.69184,144.02837 532.91673,174.27412 C 532.45883,182.16392 532.19697,190.08053 531.34274,197.93754 C 530.92185,199.67137 533.14686,199.17233 534.1849,199.24258 C 540.09942,199.24631 546.04829,199.46746 551.94087,199.36891 C 553.13094,198.80522 552.13102,197.21443 552.28275,196.18136 C 551.17182,181.53912 550.52896,166.86671 549.68607,152.20757 C 548.50656,129.15532 547.4149,106.09726 546.73127,83.024225 C 547.40871,80.984449 548.15075,79.033122 549.49262,77.368074 C 550.00027,76.275951 549.36992,74.894591 548.36541,74.453287 C 548.30543,73.381126 548.25715,72.30549 548.28537,71.23168 C 549.44023,70.893842 549.09543,69.591108 548.13195,69.097285 C 547.53669,68.824951 547.315,67.805946 548.14531,67.716596 C 549.05663,66.61787 547.4639,65.520716 547.00913,64.575187 C 545.83032,62.880888 544.36753,61.334085 543.37626,59.552527 C 542.8891,59.117707 542.19111,58.977308 541.55536,59.045608 z"
       style="fill:#333333;fill-opacity:1;fill-rule:evenodd;stroke:#4a6270;stroke-width:0;stroke-miterlimit:4;stroke-dasharray:none" />
    <path
       id="path4073"
       d="M 541.38191,48.406977 C 540.71374,48.905737 539.94901,50.025913 540.62156,50.83485 C 540.699,52.227487 539.48879,53.828951 540.56152,55.056961 C 541.04415,56.046765 540.01044,56.987535 540.7016,57.931721 C 540.96893,59.058321 542.64211,59.385214 543.00274,58.138491 C 543.23338,57.601795 544.09967,57.229726 543.49631,56.531028 C 542.59071,55.853337 543.62028,54.60511 543.7898,53.776321 C 543.97824,52.90692 543.07507,52.293246 543.30956,51.368453 C 543.288,50.684975 544.01245,50.010795 543.34957,49.374125 C 542.8713,48.861759 542.19781,47.854159 541.38191,48.406977 z"
       style="fill:#333333;fill-opacity:1;fill-rule:evenodd;stroke:#4a6270;stroke-width:0;stroke-miterlimit:4;stroke-dasharray:none" />
    <path
       id="path4085"
       d="M 541.87017,37.506388 C 541.40403,37.633334 541.82597,38.44601 542.14364,38.009975 C 542.27721,37.811916 542.14787,37.438232 541.87017,37.506388 z"
       style="fill:#333333;fill-opacity:1;fill-rule:evenodd;stroke:#4a6270;stroke-width:0;stroke-miterlimit:4;stroke-dasharray:none" />
    <path
       id="path4087"
       d="M 541.87684,38.260095 C 541.42791,38.515381 541.72064,39.215558 541.60259,39.640605 C 541.56298,42.390076 541.4331,45.157402 541.56335,47.898231 C 541.59748,48.319445 542.47354,48.418347 542.30705,47.871555 C 542.30063,44.709487 542.29614,41.539974 542.14697,38.383489 C 542.10754,38.276284 541.97962,38.234957 541.87684,38.260095 z"
       style="fill:#333333;fill-opacity:1;fill-rule:evenodd;stroke:#4a6270;stroke-width:0;stroke-miterlimit:4;stroke-dasharray:none" />
    <path
       id="path4089"
       d="M 596.16567,331.65047 C 589.50488,332.00409 582.82712,332.18369 576.17698,332.68818 C 575.82609,333.54548 576.03478,335.79498 576.54035,335.36272 C 583.50116,335.18631 590.46425,334.97065 597.42248,334.39989 C 597.82666,334.60854 598.27329,333.60191 598.05587,332.19607 C 597.66139,330.9322 596.96121,331.95203 596.46577,331.6382 C 596.36574,331.6423 596.26571,331.64638 596.16567,331.65047 z"
       style="fill:#333333;fill-opacity:1;fill-rule:evenodd;stroke:#4a6270;stroke-width:0.10119385;stroke-miterlimit:4;stroke-dasharray:none" />
  </g>
  <path
     style="fill:#333333"
     d="M 276.07375,335.25686 C 273.74203,335.21222 269.24203,334.8545 267.73061,334.59359 C 265.88909,334.27572 264.45549,333.77814 264.28099,333.39625 C 264.15469,333.1199 264.76881,331.91233 266.81305,328.41734 C 267.91689,326.53011 268.28277,325.69949 268.65378,324.23855 C 269.80208,319.71669 270.47988,314.92365 271.14998,306.58646 C 271.61427,300.81007 272.00444,297.02168 272.43296,294.12964 C 272.73023,292.12346 272.73706,291.60755 272.499,289.13782 C 272.32683,287.35152 272.00099,285.42401 271.57192,283.65373 C 269.93714,276.90878 269.65598,274.72152 269.73444,269.35936 C 269.76568,267.22377 269.81969,265.26691 269.85444,265.01074 C 269.8892,264.75457 270.02316,262.95896 270.15213,261.02049 C 270.2811,259.08203 270.42286,257.16935 270.46713,256.77007 L 270.54763,256.0441 L 269.75921,256.22108 C 269.32557,256.31842 267.98034,256.35797 266.7698,256.30897 C 265.00441,256.23753 264.29156,256.28398 263.16782,256.54372 C 260.0053,257.2747 255.69822,258.88876 248.33083,262.10382 C 242.73891,264.5441 237.70884,266.5564 234.81318,267.51165 C 231.45321,268.62005 228.59072,268.90865 223.88107,268.61383 C 220.11197,268.3779 218.34519,268.52987 216.80682,269.22236 C 215.56779,269.7801 214.928,270.51619 213.98864,272.46477 C 212.07325,276.43803 212.05199,276.45867 209.00604,277.30078 C 206.14466,278.09186 205.76834,278.3939 204.89238,280.6024 C 204.1621,282.44361 204.05051,282.83908 203.7508,284.64802 C 203.27442,287.52323 203.26725,289.77748 203.71672,295.34854 C 204.47962,304.80425 206.15814,311.11065 210.22605,319.80485 C 212.33492,324.31207 212.21173,324.15234 215.90738,327.17167 C 217.44716,328.42967 219.36489,330.87933 219.55291,331.82838 C 219.81917,333.17239 218.41152,335.23095 216.5608,336.20408 C 214.37295,337.35447 212.0771,337.48496 204.11919,336.91128 C 201.86659,336.74889 198.65491,336.56862 196.98215,336.5107 C 195.30938,336.45275 193.66018,336.38128 193.31726,336.35185 L 192.69378,336.29832 L 192.74224,335.33754 C 192.88609,332.48572 192.80857,327.99862 192.57914,325.89767 C 192.25834,322.9599 191.66536,320.77078 190.14312,316.90453 C 188.41572,312.51721 187.67849,310.37662 187.08968,308.0387 C 186.79995,306.88835 186.32693,305.29683 186.03849,304.502 C 184.61361,300.57541 184.0137,299.08631 183.86054,299.09586 C 183.57205,299.11384 182.33805,302.0436 181.58327,304.50258 C 180.50562,308.01342 179.75838,310.33587 179.39974,311.28893 C 176.6691,318.54583 175.17745,324.20461 175.09169,327.63217 C 175.06168,328.83113 175.13644,329.22931 175.63343,330.51744 C 176.41206,332.53555 176.43078,333.12407 175.7401,333.87171 C 174.87445,334.80873 173.57681,335.18283 171.15194,335.19449 C 165.96857,335.21939 163.99552,335.17359 162.35618,334.99026 C 160.12695,334.74097 154.47754,333.73908 154.26326,333.55503 C 154.09446,333.41003 154.79302,331.65252 156.0265,329.11893 C 156.82397,327.48086 161.01722,317.66706 161.95694,315.23939 C 163.97131,310.0355 166.06134,303.68725 167.26319,299.12229 C 168.66397,293.80173 170.1976,285.88342 170.52418,282.28541 C 170.59373,281.51906 170.70173,280.55636 170.76418,280.14606 C 170.86277,279.49831 171.10616,275.27746 171.38957,269.30041 C 171.43548,268.33235 171.57077,266.51405 171.69022,265.25979 C 172.06393,261.33604 171.73187,259.34204 170.24897,256.60494 C 169.89703,255.95534 169.48174,254.85899 169.32613,254.16861 C 168.74605,251.59517 168.05366,249.55756 167.76539,249.57552 C 167.70183,249.57948 167.42446,249.26426 167.14904,248.87502 C 166.69249,248.22984 166.35464,247.9851 166.37517,248.31442 C 166.37961,248.38569 166.27124,249.9511 166.13434,251.7931 C 165.89676,254.98935 165.58249,260.65047 165.21796,268.2996 C 164.9672,273.5618 164.44879,282.25989 164.32283,283.31848 C 164.26194,283.83027 164.15605,284.91753 164.08751,285.73462 C 163.6264,291.23276 163.04083,294.3515 161.60255,298.96959 C 160.37837,302.90025 159.97775,304.35812 159.7144,305.84053 L 159.52739,306.89325 L 159.38309,304.77787 C 159.0118,299.33552 159.50553,294.03131 160.95791,287.85882 C 162.36597,281.8747 162.88033,275.45784 162.94378,263.08419 C 162.98654,254.74266 162.91237,250.00215 162.60015,241.12281 C 162.27163,231.78007 162.46784,228.2888 163.70448,221.47266 C 164.37283,217.78889 164.67246,216.46394 165.61122,213.041 C 170.33496,195.81713 179.2264,184.02762 191.92801,178.14648 C 197.88153,175.38988 204.14961,174.00107 211.88035,173.72567 C 218.17727,173.50134 222.06568,173.80759 231.83672,175.29739 C 238.83497,176.36442 241.00849,176.4177 247.93278,175.69189 C 260.77155,174.34613 269.37825,171.92671 276.86447,167.55892 C 280.32996,165.53701 281.16473,165.16333 284.43757,164.16898 C 288.22405,163.01857 294.18903,162.10737 296.97219,162.25423 C 300.81169,162.45683 310.02562,165.27448 314.28854,167.54962 C 315.65739,168.28018 317.31232,168.81041 318.63287,168.9415 C 318.99069,168.97703 321.23184,169.0122 323.61323,169.01967 C 328.53551,169.03512 329.29153,169.13035 332.79043,170.1758 C 339.86389,172.2893 343.41542,174.2663 348.3503,178.83741 C 351.57047,181.82022 355.67937,186.87451 358.81335,191.70784 C 360.13025,193.73884 363.16874,198.83858 363.18122,199.03882 C 363.18398,199.08298 363.60008,199.87068 364.10587,200.78929 C 365.83126,203.9227 367.80959,208.0557 370.70456,214.57476 C 371.7363,216.89808 372.79832,219.28417 373.0646,219.87719 C 373.3309,220.47019 373.97069,221.92026 374.4864,223.09954 C 375.60706,225.66223 375.96696,226.1639 377.18207,226.85699 C 378.70338,227.72473 381.04308,228.10931 385.97187,228.30174 C 389.9052,228.45531 391.2567,228.6234 391.27779,228.96167 C 391.31419,229.54564 390.45687,230.86719 389.72229,231.35947 C 388.62699,232.09349 387.524,232.50353 385.11074,233.0738 C 381.58854,233.90614 380.84866,234.10567 379.57356,234.56712 C 378.90289,234.80982 378.35751,235.06243 378.36161,235.12849 C 378.36573,235.19453 379.12621,238.15244 380.05161,241.7016 C 382.36773,250.58472 383.75063,256.30272 385.92743,265.99676 C 388.99247,279.6464 391.59545,297.0997 393.22936,314.95678 C 393.601,319.01841 394.05562,321.60862 394.63746,322.97929 C 394.82012,323.40966 394.97071,323.77966 394.97207,323.8015 C 394.97343,323.82335 394.62304,323.86981 394.19341,323.90477 C 393.76378,323.93972 392.49487,324.36448 391.37359,324.8487 C 389.43279,325.6868 388.47117,325.91973 387.80945,325.71202 C 387.42161,325.59029 387.36677,324.68856 387.63712,322.87923 C 387.99966,320.45289 387.42864,316.01756 385.61988,307.21059 C 384.23901,300.48709 381.25295,289.88827 378.82431,283.09018 C 378.39341,281.88404 377.95806,280.65297 377.85689,280.35448 C 377.22692,278.49613 372.513,264.55282 371.83222,262.53413 C 366.5918,246.99488 362.81525,238.98982 357.90555,233.01414 C 355.33012,229.87955 353.6889,228.97449 348.72485,227.95149 C 346.24049,227.4395 344.95794,227.03216 341.18871,225.55801 C 337.0267,223.93023 335.22815,223.40036 333.80727,223.38336 C 332.57492,223.36861 332.56265,223.37319 332.39024,223.91181 C 332.25654,224.32956 332.31489,224.94006 332.64272,226.55296 C 333.15468,229.07181 333.27067,230.58359 332.98519,231.01664 C 332.65094,231.52368 326.75108,233.02743 323.93196,233.32412 C 322.01077,233.5263 321.23314,233.51903 319.21862,233.27997 C 315.9153,232.88801 310.3378,233.19272 308.86571,233.84557 C 307.55574,234.42654 306.79996,235.19383 306.29769,236.45268 C 305.70482,237.93864 305.54119,239.71236 305.5813,244.21869 C 305.62913,249.59426 305.9045,250.75371 308.99333,258.58628 C 310.01292,261.17172 311.26751,264.6325 311.78129,266.2769 C 313.83154,272.8388 314.79391,274.79266 321.84509,286.7088 C 325.14809,292.2907 326.44518,294.78349 327.8036,298.16012 C 329.29635,301.8706 329.83486,304.00771 330.16378,307.52658 C 330.32609,309.26311 330.56234,310.78247 330.74132,311.2409 C 331.17802,312.35948 332.05472,313.24665 334.16141,314.70178 C 336.59471,316.38253 338.50968,318.04104 341.64906,321.18668 L 344.22157,323.76432 L 343.37914,324.74647 C 342.27292,326.03607 339.97214,328.20676 338.86177,329.00839 C 335.32629,331.56082 332.26263,332.26201 325.87973,331.97962 C 324.37986,331.91326 321.93188,331.87612 320.43976,331.89708 C 318.94764,331.91804 317.67905,331.89301 317.62065,331.84148 C 317.56226,331.78993 317.34649,330.38297 317.14117,328.71489 C 316.2953,321.84281 314.95384,317.00957 312.36299,311.49935 C 310.92435,308.43962 310.10693,307.0587 308.2758,304.59469 C 306.54578,302.26673 305.1457,300.1469 303.44271,297.27696 C 301.88369,294.64967 299.77058,291.67464 297.85137,289.40499 C 296.54462,287.85963 294.99904,286.3869 294.86077,286.55535 C 294.82254,286.60194 294.33985,288.12293 293.78813,289.93534 C 292.80201,293.17478 292.39989,294.65523 290.21543,303.08907 C 289.30706,306.59616 288.82406,308.02245 287.37161,311.48678 C 284.76964,317.69287 284.10012,320.08819 284.54363,321.60436 C 284.75226,322.31765 285.6262,323.55693 286.167,323.90638 C 286.48903,324.11447 290.33041,328.25095 291.08281,329.19984 C 291.47742,329.69748 292.80958,332.5787 292.83521,332.98993 C 292.84525,333.15108 291.88989,333.39058 288.01518,334.19827 C 286.24914,334.56639 278.03673,335.29442 276.07375,335.25686 z"
     id="path1368" />
  <rect
     style="opacity:1;fill:#333333;fill-opacity:1;fill-rule:nonzero;stroke:#333333;stroke-width:1;stroke-linecap:butt;stroke-linejoin:miter;marker:none;marker-start:none;marker-mid:none;marker-end:none;stroke-miterlimit:4;stroke-dasharray:none;stroke-dashoffset:0;stroke-opacity:1;visibility:visible;display:inline;overflow:visible;enable-background:accumulate"
     id="rect3288"
     width="595.211"
     height="94.872337"
     x="20.329786"
     y="333.79788" />
  <g
     id="g4861"
     transform="matrix(3.4381402e-2,0,0,3.4381402e-2,14.873752,276.71139)">
    <path
       d="M 1517.0576,3418.3751 C 1508.8429,3712.0652 1519.1217,4007.8016 1547.8584,4079.6761 C 1576.6129,4151.5506 1638.1493,4291.3494 1849.7573,4246.0171 C 2026.5432,4208.1166 2090.8672,4134.7712 2118.7796,3972.8786 C 2139.3372,3853.7679 2178.9695,3522.9721 2184.0526,3455.1961"
       id="path2493"
       style="fill:none;fill-rule:nonzero;stroke:#ffffff;stroke-width:73.93321228;stroke-linecap:round;stroke-linejoin:round;stroke-miterlimit:4" />
    <path
       d="M 1263.4269,1946.0809 C 1263.4269,1946.0809 305.41085,1554.5257 349.94835,2444.9497 C 359.42045,2634.3809 621.47355,3878.3113 934.01305,3502.5806 C 1048.2245,3365.178 1151.5167,3257.4137 1151.5167,3257.4137"
       id="path2495"
       style="fill:none;fill-rule:nonzero;stroke:#ffffff;stroke-width:73.93299866;stroke-linecap:round;stroke-linejoin:round;stroke-miterlimit:4;stroke-dasharray:none" />
    <path
       d="M 1780.8959,1874.6157 C 1747.7345,1885.0131 2313.8039,1667.6815 2635.5072,2078.7504 C 2749.1434,2223.9703 2617.4585,2817.2996 2302.4516,3284.7388"
       id="path2497"
       style="fill:none;fill-rule:nonzero;stroke:#ffffff;stroke-width:73.93321228;stroke-linecap:round;stroke-linejoin:round;stroke-miterlimit:4" />
    <path
       style="fill:none;fill-opacity:1;fill-rule:nonzero;stroke:#ffffff;stroke-width:73.93299866;stroke-linecap:round;stroke-linejoin:bevel;stroke-miterlimit:4;stroke-dasharray:none"
       d="M 2302.4456,3284.7388 C 2302.4456,3284.7388 2322.9736,3385.783 2621.3316,3324.1992 C 2752.0556,3297.2003 2673.3839,3399.9646 2540.8034,3461.5365 C 2431.9953,3512.0349 2188.0502,3524.9768 2184.0645,3455.1961 C 2173.8094,3275.154 2312.4575,3329.8517 2302.4516,3284.7388 C 2293.4064,3244.11 2231.4015,3204.2344 2190.3871,3104.7976 C 2154.5804,3018.0061 1699.3061,2352.4286 2316.645,2451.2783 C 2339.2607,2446.5985 2155.6361,1864.0759 1577.8941,1854.6038 C 1000.2825,1845.1316 1019.2328,2564.9382 1019.2328,2564.9382"
       id="path2499" />
    <path
       d="M 1355.3608,3346.3108 C 1274.8326,3436.2636 1298.516,3452.0585 1137.5487,3485.2021 C 974.68345,3518.7728 1070.3717,3578.5179 1132.8215,3594.1289 C 1208.5513,3613.0791 1383.7535,3639.906 1502.1346,3474.1463 C 1538.1846,3423.6776 1501.9211,3343.1494 1452.4014,3322.6215 C 1428.4749,3312.7104 1396.4819,3300.2905 1355.3608,3346.3108 L 1355.3608,3346.3108 z"
       id="path2501"
       style="fill:none;fill-rule:nonzero;stroke:#ffffff;stroke-width:73.93321228;stroke-linecap:round;stroke-linejoin:round;stroke-miterlimit:4" />
    <path
       d="M 1350.0879,3344.739 C 1341.974,3291.8503 1367.4664,3228.9142 1394.7856,3155.2841 C 1435.8414,3044.8092 1530.5689,2934.3166 1454.7917,2583.8766 C 1398.3087,2322.731 1019.4641,2529.5288 1019.2268,2564.9382 C 1018.9955,2600.3357 1036.3621,2744.4168 1012.8982,2912.1991 C 982.28135,3131.1381 1152.2106,3316.3048 1347.8874,3297.3605"
       id="path2503"
       style="fill:none;fill-rule:nonzero;stroke:#ffffff;stroke-width:73.93321228;stroke-linecap:round;stroke-linejoin:round;stroke-miterlimit:4;stroke-opacity:1" />
    <path
       style="fill:#ffffff;fill-rule:nonzero;stroke:#ffffff;stroke-width:24.644207;stroke-linecap:butt;stroke-linejoin:miter;stroke-miterlimit:4"
       d="M 1259.9453,2559.6297 C 1258.2371,2571.7235 1282.0865,2603.9953 1313.1839,2608.3072 C 1344.2279,2612.637 1370.7997,2587.4175 1372.4842,2575.3356 C 1374.1686,2563.2419 1350.3489,2549.9203 1319.2396,2545.5906 C 1288.1779,2541.2548 1261.5941,2547.5657 1259.9512,2559.6297 L 1259.9453,2559.6297 z"
       id="path2505" />
    <path
       style="fill:#ffffff;fill-rule:nonzero;stroke:#ffffff;stroke-width:12.3221035;stroke-linecap:butt;stroke-linejoin:miter;stroke-miterlimit:4"
       d="M 2205.5236,2534.9737 C 2207.2081,2547.0674 2183.3883,2579.3392 2152.285,2583.6512 C 2121.2173,2587.981 2094.6454,2562.7614 2092.9432,2550.6795 C 2091.3002,2538.5858 2115.1259,2525.2643 2146.1996,2520.9345 C 2177.2732,2516.6047 2203.8391,2522.9096 2205.5236,2534.9796 L 2205.5236,2534.9737 z"
       id="path2507" />
    <path
       d="M 2316.645,2451.2783 C 2321.7636,2546.1422 2296.2119,2610.7568 2292.9913,2711.7417 C 2288.2226,2858.5275 2362.9737,3026.5352 2250.3399,3194.7504"
       id="path2509"
       style="fill:none;fill-rule:nonzero;stroke:#ffffff;stroke-width:73.93321228;stroke-linecap:round;stroke-linejoin:round;stroke-miterlimit:4" />
  </g>
  <flowRoot
     xml:space="preserve"
     id="flowRoot3627"
     style="font-size:20px;font-style:normal;font-variant:normal;font-weight:normal;font-stretch:normal;text-align:center;line-height:100%;writing-mode:lr-tb;text-anchor:middle;fill:#333333;fill-opacity:1;stroke:none;stroke-width:1px;stroke-linecap:butt;stroke-linejoin:miter;stroke-opacity:1;font-family:suruma;-inkscape-font-specification:suruma"
     transform="translate(43.515027,-4.4164464)"><flowRegion
       id="flowRegion3629"><rect
         id="rect3631"
         width="493.56204"
         height="35.012413"
         x="32.753548"
         y="34.498226"
         style="font-size:20px;font-style:normal;font-variant:normal;font-weight:normal;font-stretch:normal;text-align:center;line-height:100%;writing-mode:lr-tb;text-anchor:middle;fill:#333333;font-family:suruma;-inkscape-font-specification:suruma" /></flowRegion><flowPara
       id="flowPara3633"><flowSpan
   style="-inkscape-font-specification:Trebuchet MS;font-family:Trebuchet MS;font-weight:normal;font-style:normal;font-stretch:normal;font-variant:normal;font-size:20px;text-anchor:middle;text-align:center;writing-mode:lr;line-height:100%"
   id="flowSpan2446">PostgreSQL Europe et PostgreSQLFR présentent</flowSpan> :</flowPara></flowRoot>  <flowRoot
     xml:space="preserve"
     id="flowRoot3635"
     style="font-size:42px;font-style:normal;font-variant:normal;font-weight:normal;font-stretch:normal;text-align:start;line-height:100%;writing-mode:lr-tb;text-anchor:start;fill:#333333;fill-opacity:1;stroke:none;stroke-width:1px;stroke-linecap:butt;stroke-linejoin:miter;stroke-opacity:1;font-family:suruma;-inkscape-font-specification:suruma"
     transform="matrix(1.0403547,0,0,1.0403547,13.309719,8.9558156)"><flowRegion
       id="flowRegion3637"><rect
         id="rect3639"
         width="487.91489"
         height="75.671989"
         x="31.624113"
         y="62.734043"
         style="font-size:42px;font-style:normal;font-variant:normal;font-weight:normal;font-stretch:normal;text-align:start;line-height:100%;writing-mode:lr-tb;text-anchor:start;fill:#333333;font-family:suruma;-inkscape-font-specification:suruma" /></flowRegion><flowPara
       id="flowPara3641"
       style="font-size:40px;font-style:normal;font-variant:normal;font-weight:normal;font-stretch:normal;text-align:start;line-height:100%;writing-mode:lr;text-anchor:start;font-family:Trebuchet MS;-inkscape-font-specification:Trebuchet MS">Le PGDay européen 2009</flowPara></flowRoot>  <flowRoot
     xml:space="preserve"
     id="flowRoot3643"
     style="font-size:32px;font-style:normal;font-variant:normal;font-weight:normal;font-stretch:normal;text-align:start;line-height:100%;writing-mode:lr-tb;text-anchor:start;fill:#333333;fill-opacity:1;stroke:none;stroke-width:1px;stroke-linecap:butt;stroke-linejoin:miter;stroke-opacity:1;font-family:suruma;-inkscape-font-specification:suruma"
     transform="matrix(1.1561597,0,0,1.1561597,6.0069772,11.354747)"><flowRegion
       id="flowRegion3645"><rect
         id="rect3647"
         width="468.71454"
         height="50.824467"
         x="35.012413"
         y="96.61702"
         style="font-size:32px;font-style:normal;font-variant:normal;font-weight:normal;font-stretch:normal;text-align:start;line-height:100%;writing-mode:lr-tb;text-anchor:start;fill:#333333;font-family:suruma;-inkscape-font-specification:suruma" /></flowRegion><flowPara
       id="flowPara3649"
       style="font-size:28px;font-style:normal;font-variant:normal;font-weight:normal;font-stretch:normal;text-align:start;line-height:100%;writing-mode:lr;text-anchor:start;font-family:Trebuchet MS;-inkscape-font-specification:Trebuchet MS">Paris, 6-7 novembre</flowPara></flowRoot>  <flowRoot
     xml:space="preserve"
     id="flowRoot3651"
     style="font-size:26px;font-style:normal;font-variant:normal;font-weight:normal;font-stretch:normal;text-align:start;line-height:100%;writing-mode:lr-tb;text-anchor:start;fill:#ffffff;fill-opacity:1;stroke:none;stroke-width:1px;stroke-linecap:butt;stroke-linejoin:miter;stroke-opacity:1;font-family:suruma;-inkscape-font-specification:suruma"><flowRegion
       id="flowRegion3653"><rect
         id="rect3655"
         width="487.91489"
         height="29.365248"
         x="123.10815"
         y="348.4805"
         style="font-size:26px;font-style:normal;font-variant:normal;font-weight:normal;font-stretch:normal;text-align:start;line-height:100%;writing-mode:lr-tb;text-anchor:start;fill:#ffffff;font-family:suruma;-inkscape-font-specification:suruma" /></flowRegion><flowPara
       id="flowPara3657"
       style="font-size:26px;font-style:normal;font-variant:normal;font-weight:normal;font-stretch:normal;text-align:start;line-height:100%;writing-mode:lr-tb;text-anchor:start;font-family:Trebuchet MS;-inkscape-font-specification:Trebuchet MS">2 jours de conférences sur PostgreSQL conference</flowPara></flowRoot>  <flowRoot
     xml:space="preserve"
     id="flowRoot3659"
     style="font-size:26px;font-style:normal;font-variant:normal;font-weight:normal;font-stretch:normal;text-align:start;line-height:100%;writing-mode:lr-tb;text-anchor:start;fill:#ffffff;fill-opacity:1;stroke:none;stroke-width:1px;stroke-linecap:butt;stroke-linejoin:miter;stroke-opacity:1;font-family:suruma;-inkscape-font-specification:suruma"
     transform="translate(2.3958884,6.3890357)"><flowRegion
       id="flowRegion3661"><rect
         id="rect3663"
         width="487.16397"
         height="42.327362"
         x="122.98894"
         y="379.51923"
         style="font-size:26px;font-style:normal;font-variant:normal;font-weight:normal;font-stretch:normal;text-align:start;line-height:100%;writing-mode:lr-tb;text-anchor:start;fill:#ffffff;font-family:suruma;-inkscape-font-specification:suruma" /></flowRegion><flowPara
       id="flowPara3665"
       style="-inkscape-font-specification:Trebuchet MS;font-family:Trebuchet MS;font-weight:normal;font-style:normal;font-stretch:normal;font-variant:normal;font-size:26px;text-anchor:start;text-align:start;writing-mode:lr;line-height:100%">Plus d'infos : http://2009.pgday.eu</flowPara></flowRoot></svg>
