<?xml version="1.0" encoding="UTF-8" standalone="no"?>
<!-- Created with Inkscape (http://www.inkscape.org/) -->
<svg xmlns:rdf="http://www.w3.org/1999/02/22-rdf-syntax-ns#" xmlns="http://www.w3.org/2000/svg" xml:space="preserve" height="582.46" viewBox="0 0 3386.7661 582.46344" width="3386.8" version="1.1" xmlns:cc="http://creativecommons.org/ns#" xmlns:dc="http://purl.org/dc/elements/1.1/"><metadata><rdf:RDF><cc:Work rdf:about=""><dc:format>image/svg+xml</dc:format><dc:type rdf:resource="http://purl.org/dc/dcmitype/StillImage"/><dc:title/></cc:Work></rdf:RDF></metadata><g transform="matrix(1.3333 0 0 -1.3333 9.1861 573.39)"><g transform="scale(.1)"><g stroke="#4169e1" stroke-linecap="round" stroke-width="124.65" fill="none"><g stroke-linejoin="round"><path d="m3904 1631.5c-503.01-103.75-537.58 66.56-537.58 66.56 531.09 788.08 753.12 1788.4 561.52 2033.2-522.69 667.85-1427.5 351.99-1442.6 343.83l-4.88-0.9c-99.37 20.62-210.59 32.93-335.59 34.96-227.61 3.75-400.27-59.65-531.28-159.02 0 0-1614.1 664.96-1539-836.29 15.969-319.3 457.77-2416.4 984.7-1783 192.58 231.64 378.67 427.5 378.67 427.5 92.42-61.4 203.09-92.73 319.06-81.48l9.03 7.65c-2.82-28.75-1.53-56.91 3.63-90.19-135.78-151.68-95.9-178.28-367.27-234.14-274.57-56.6-113.28-157.34-7.93-183.67 127.66-31.96 423.05-77.19 622.66 202.22l-7.97-31.87c53.2-42.62 90.55-277.11 84.3-489.69-6.29-212.62-10.47-358.55 31.44-472.54 41.92-114.02 83.68-370.51 440.43-294.06 298.09 63.867 452.54 229.41 474.07 505.55 15.23 196.29 49.72 167.26 51.91 342.81l27.7 83.079c31.91 266.1 5.07 351.96 188.71 312.04l44.64-3.95c135.16-6.13 312.08 21.76 415.9 70 223.6 103.75 356.18 276.99 135.75 231.49z"/><path d="m2038.7 1479c-13.87-495.16 3.48-993.75 51.92-1115 48.47-121.17 152.22-356.87 509.02-280.42 298.05 63.898 406.48 187.53 453.55 460.5 34.65 200.82 101.49 758.56 110.04 872.82"/><path d="m1611 3961.2s-1615.2 660.2-1540.1-841.05c15.979-319.4 457.81-2416.6 984.8-1783.2 192.54 231.64 366.68 413.32 366.68 413.32"/><path d="m2483.5 4081.8c-55.9-17.54 898.47 348.91 1440.9-344.18 191.56-244.84-30.43-1245.2-561.57-2033.3"/></g><path stroke-linejoin="bevel" d="m3362.8 1704.3s34.61-170.35 537.66-66.52c220.39 45.5 87.73-127.74-135.78-231.57-183.44-85.11-594.73-106.95-601.45 10.71-17.3 303.55 216.45 211.32 199.57 287.38-15.23 68.51-119.76 135.74-188.9 303.4-60.39 146.33-827.97 1268.5 212.85 1101.8 38.12 7.89-271.45 990.04-1245.6 1006-973.83 15.98-941.87-1197.6-941.87-1197.6"/><path stroke-linejoin="round" d="m1766 1600.5c-135.78-151.64-95.85-178.28-367.22-234.14-274.61-56.6-113.28-157.34-7.97-183.67 127.66-31.96 423.05-77.19 622.66 202.3 60.78 85.08-0.4 220.86-83.87 255.47-40.35 16.72-94.3 37.66-163.6-39.96z"/><path stroke-linejoin="round" d="m1757.2 1603.1c-13.67 89.18 29.3 195.31 75.35 319.41 69.22 186.29 228.95 372.58 101.17 963.4-95.23 440.31-733.94 91.64-734.33 31.95s28.86-302.61-10.71-585.51c-51.6-369.1 234.89-681.28 564.81-649.37"/></g><path d="m1605.2 2926.8c-2.86-20.39 37.34-74.81 89.76-82.07 52.35-7.31 97.15 35.19 100 55.58 2.81 20.39-37.34 42.85-89.76 50.16-52.39 7.3-97.19-3.32-99.96-23.67z" fill="#4169e1"/><path d="m1605.2 2926.8c-2.86-20.39 37.34-74.81 89.76-82.07 52.35-7.31 97.15 35.19 100 55.58 2.81 20.39-37.34 42.85-89.76 50.16-52.39 7.3-97.19-3.32-99.96-23.67z" stroke="#4169e1" stroke-width="41.55" fill="none"/><path d="m3199.4 2968.4c2.86-20.39-37.3-74.8-89.76-82.07-52.38-7.3-97.19 35.23-100.04 55.59-2.77 20.39 37.38 42.85 89.77 50.15 52.42 7.31 97.18-3.32 100.03-23.67z" fill="#4169e1"/><path d="m3199.4 2968.4c2.86-20.39-37.3-74.8-89.76-82.07-52.38-7.3-97.19 35.23-100.04 55.59-2.77 20.39 37.38 42.85 89.77 50.15 52.42 7.31 97.18-3.32 100.03-23.67z" stroke="#4169e1" stroke-width="20.775" fill="none"/><path stroke-linejoin="round" d="m3386.8 3109.5c8.63-159.92-34.46-268.86-39.88-439.14-8.05-247.46 118-530.74-71.92-814.33" stroke="#4169e1" stroke-linecap="round" stroke-width="124.65" fill="none"/></g><flowRoot style="word-spacing:0px;letter-spacing:0px" xml:space="preserve" font-size="40px" transform="matrix(.78419 0 0 -.78419 -21.552 426.52)" line-height="1.25" font-family="&apos;DejaVu Sans&apos;" fill="#4169e1"><flowRegion font-family="&apos;DejaVu Sans&apos;"><rect height="793.36" width="3210.3" y="7.1738" x="584.49" fill="#4169e1"/></flowRegion><flowPara font-size="466.67px">PostgreSQL</flowPara></flowRoot></g></svg>
