<?xml version="1.0" encoding="utf-8"?>
<!-- Generator: Adobe Illustrator 14.0.0, SVG Export Plug-In . SVG Version: 6.00 Build 43363)  -->
<!DOCTYPE svg PUBLIC "-//W3C//DTD SVG 1.1//EN" "http://www.w3.org/Graphics/SVG/1.1/DTD/svg11.dtd">
<svg version="1.1" id="Layer_1" xmlns="http://www.w3.org/2000/svg" xmlns:xlink="http://www.w3.org/1999/xlink" x="0px" y="0px"
	 width="604px" height="850px" viewBox="0 0 604 850" enable-background="new 0 0 604 850" xml:space="preserve">
<rect x="-1" y="0" fill="#D00000" stroke="#D00000" stroke-width="0.0938" width="604" height="850"/>
<g>
	<path fill="#FFFFFF" stroke="#FFFFFF" stroke-width="0.0938" d="M293.494,50.553c4.597-0.35,9.096-0.299,13.602,0.054
		c-1.762,3.719-3.924,7.242-5.681,10.962c2.687-1.131,5.173-2.358,7.759-3.686c0.141,3.799,0.084,7.699-0.174,11.502
		c-2.412-1.074-4.625-2.45-6.939-3.725c0.018,1.799,0.039,3.599,0.059,5.499c3.418,1.765,6.949,4.426,7.096,8.624
		c0.574,6.895-7.971,11.988-13.807,8.651c-4.92-1.946-6.793-8.427-3.941-12.757c1.473-2.617,4.463-3.549,6.947-4.978
		c-0.021-1.899-0.043-3.898-0.164-5.798c-2.284,1.425-4.668,2.85-7.154,4.178c-0.246-4.197-0.291-8.297,0.063-12.4
		c2.619,1.672,5.136,3.343,7.851,4.714C297.373,57.711,295.334,54.134,293.494,50.553z"/>
	<path fill="#D00000" stroke="#D00000" stroke-width="0.0938" d="M293.383,76.957c1.587-1.217,3.172-2.334,4.861-3.453
		c0.021,1.8,0.039,3.6-0.041,5.3C296.597,78.221,294.99,77.639,293.383,76.957z"/>
	<path fill="#D00000" stroke="#D00000" stroke-width="0.0938" d="M302.152,74.06c1.311,1.187,2.627,2.473,3.84,3.759
		c-1.297,0.414-2.592,0.828-3.885,1.342C302.088,77.462,302.07,75.761,302.152,74.06z"/>
	<path fill="#FFFFFF" stroke="#FFFFFF" stroke-width="0.0938" d="M280.252,83.3c2.181-1.824,6.299-0.169,6.23,2.732
		c0.332,2.697-2.75,4.631-5.16,3.756C278.118,89.424,277.367,84.732,280.252,83.3z"/>
	<path fill="#D00000" stroke="#D00000" stroke-width="0.0938" d="M293.256,83.758c3.894-0.643,8.486-1.293,11.523,1.974
		C300.795,87.277,296.195,87.226,293.256,83.758z"/>
	<path fill="#FFFFFF" stroke="#FFFFFF" stroke-width="0.0938" d="M312.246,82.85c2.775-2.33,7.52,1.319,5.652,4.54
		c-1.07,2.812-5.869,3.064-6.902,0.076C309.779,85.877,310.857,83.867,312.246,82.85z"/>
	<path fill="#FFFFFF" stroke="#FFFFFF" stroke-width="0.0938" d="M269.275,85.42c2.48-1.728,6.507,0.628,5.938,3.636
		c-0.472,2.405-3.649,4.439-5.767,2.863C266.633,90.85,266.686,86.649,269.275,85.42z"/>
	<path fill="#FFFFFF" stroke="#FFFFFF" stroke-width="0.0938" d="M324.281,85.82c3.383-1.339,7.24,3.521,3.865,5.958
		c-1.578,2.018-4.785,1.554-6.008-0.533C320.517,89.362,322.086,86.443,324.281,85.82z"/>
	<path fill="#FFFFFF" stroke="#FFFFFF" stroke-width="0.0938" d="M257.351,92.551c0.359-3.704,7.154-4.277,7.298-0.18
		c0.528,2.493-2.062,3.522-3.648,4.74C259.487,95.828,256.976,94.855,257.351,92.551z"/>
	<path fill="#FFFFFF" stroke="#FFFFFF" stroke-width="0.0938" d="M334.426,90.009c1.988-1.021,5.303,0.143,5.229,2.544
		c0.738,3.29-3.74,5.54-6.062,3.265C331.277,94.544,332.236,90.833,334.426,90.009z"/>
	<path fill="#FFFFFF" stroke="#FFFFFF" stroke-width="0.0938" d="M240.54,109.937c14.094-9.758,30.526-16.136,47.397-18.82
		c2.572,6.573,5.045,13.246,6.222,20.233c-1.299,0.214-2.596,0.328-3.794,0.542c-1.162-5.688-2.825-11.372-5.083-16.646
		c-19.157,3.909-37.67,12.212-52.225,25.472c-1.007-0.59-2.015-1.278-3.021-1.867C233.098,115.318,236.767,112.578,240.54,109.937z"
		/>
	<path fill="#FFFFFF" stroke="#FFFFFF" stroke-width="0.0938" d="M297.542,91.513c4.376-2.148,7.556,5.115,2.872,6.666
		C296.135,100.027,293.26,93.36,297.542,91.513z"/>
	<path fill="#FFFFFF" stroke="#FFFFFF" stroke-width="0.0938" d="M310.345,91.773c20.838,3.371,40.445,12.958,56.297,26.786
		c-0.795,0.908-1.582,1.816-2.471,2.827c-14.641-12.841-32.539-21.646-51.584-25.538c-2.141,5.423-3.977,10.943-5.219,16.558
		c-1.201-0.188-2.504-0.373-3.705-0.559C305.09,104.932,307.513,98.204,310.345,91.773z"/>
	<path fill="#FFFFFF" stroke="#FFFFFF" stroke-width="0.0938" d="M248.695,96.545c-0.022-1.998,2.677-2.229,4.065-3.144
		c1.013,1.089,1.923,2.178,2.937,3.267c-1.086,1.213-1.661,3.618-3.663,3.44C250.136,100.229,248.016,98.553,248.695,96.545z"/>
	<path fill="#FFFFFF" stroke="#FFFFFF" stroke-width="0.0938" d="M343.687,95.508c1.793-0.322,4.191-0.746,5.113,1.243
		c1.316,1.486-0.053,4.302-1.951,4.422c-1.994,0.622-3.217-1.265-4.527-2.251C342.713,98.12,343.295,96.412,343.687,95.508z"/>
	<path fill="#FFFFFF" stroke="#FFFFFF" stroke-width="0.0938" d="M239.059,102.551c1.374-2.517,3.864-3.243,6.572-2.673
		c0.119,1.699,0.039,3.501-0.044,5.202C242.893,105.709,240.486,105.035,239.059,102.551z"/>
	<path fill="#FFFFFF" stroke="#FFFFFF" stroke-width="0.0938" d="M295.067,102.939c1.372-2.716,3.862-3.342,6.669-2.674
		c0.02,1.702,0.037,3.401-0.043,5.203C298.999,106.096,296.495,105.524,295.067,102.939z"/>
	<path fill="#FFFFFF" stroke="#FFFFFF" stroke-width="0.0938" d="M353.344,100.602c4.279-2.046,6.357,5.232,1.76,5.582
		C351.517,107.222,350.052,101.539,353.344,100.602z"/>
	<path fill="#FFFFFF" stroke="#FFFFFF" stroke-width="0.0938" d="M232.892,105.72c1.901-0.021,3.809,0.656,5.42,1.739
		c-0.788,1.108-1.475,2.318-2.364,3.326c-1.4-0.084-2.705-0.569-4.01-0.856C232.223,108.526,232.509,107.124,232.892,105.72z"/>
	<path fill="#FFFFFF" stroke="#FFFFFF" stroke-width="0.0938" d="M255.597,105.971c6.158,5.233,9.645,13.195,9.033,21.303
		c1.886-1.421,3.769-3.041,6.162-3.567c5.785-1.264,11.849,4.471,11.213,10.277c0.348,4.396-2.713,7.931-5.683,10.764
		c-1.131-2.888-0.877-7.092-4.194-8.556c-3.618-1.661-7.983,1.588-8.24,5.391c-0.749,4.809,2.505,9.674,6.924,11.426
		c6.633,3.127,15.119,1.734,20.162-3.622c2.965-3.132,4.318-7.246,4.975-11.454c-3.489,1.238-6.466,3.271-9.647,5.006
		c-0.374-6.696-0.045-13.501,0.581-20.206c2.826,2.368,5.451,4.94,8.378,7.208c-1.454-4.984-3.607-9.761-5.062-14.746
		c5.599-0.16,11.2-0.122,16.703,0.217c-1.447,4.718-3.398,9.339-4.945,14.056c3.178-1.935,6.152-4.368,9.533-6.005
		c0.273,6.697,0.148,13.5-0.479,20.206c-2.723-1.869-5.342-3.841-8.158-5.312c0.031,2.901,0.064,6,1.594,8.583
		c2.76,5.473,9.191,8.401,15.189,8.136c6.701-0.073,12.525-6.837,11.254-13.523c-0.531-3.095-3.869-6.159-7.254-4.922
		c-3.09,1.034-3.549,4.839-4.92,7.454c-3.641-3.66-4.701-9.249-3.254-14.065c1.551-4.517,6.924-6.774,11.338-5.823
		c2.607,0.771,4.334,3.054,6.055,5.034c-1.395-8.585,2.709-17.431,9.348-22.904c3.887,7.759,3.688,17.062-0.129,24.803
		c3.58-2.139,7.754-4.583,12.068-2.832c6.326,2.031,7.518,10.22,5.076,15.646c-1.758,4.119-5.83,6.264-9.611,8.205
		c0.463-3.305,2.422-7.027,0.289-10.103c-1.43-2.687-5.531-2.843-7.51-0.819c-3.369,3.036-4.109,8.446-1.768,12.222
		c3.467,6.061,11.395,8.573,17.773,6.405c7.676-2.185,12.496-9.438,14.617-16.762c-3.686,1.341-7.268,2.979-11.059,3.922
		c1.436-6.017,3.771-11.843,6.008-17.567c2.33,2.575,4.557,5.151,6.979,7.523c-0.447-4.595-1.893-8.978-3.342-13.263
		c4.111,0.955,8.225,2.109,12.24,3.368c-1.17,3.011-2.637,5.926-3.605,9.038c-0.176,2.202,0.65,4.493,0.275,6.697
		c-0.865,3.209-4.148,4.946-5.113,8.057c-1.457,4.016-3.01,8.132-4.166,12.245c0.348,4.396,1.992,8.579,2.84,12.872
		c-3.551,4.338-7.305,8.479-10.959,12.819c-24.504-9.233-51.148-13.242-77.221-10.658c-14.989,1.064-29.971,2.729-44.427,6.886
		c-2.692,0.73-5.277,2.158-8.174,2.39c-3.933-2.957-7.373-6.521-10.809-9.981c-0.158-5.2,2.889-10.232,1.23-15.516
		c-0.941-3.689-1.883-7.479-2.924-11.269c-0.64-3.692-5.155-5.045-5.396-8.841c0.068-2.901,1.237-5.814,0.503-8.708
		c-0.628-2.691-1.658-5.38-2.287-8.072c4.686-1.254,9.47-2.704,14.362-3.458c-2.25,4.524-5.206,8.757-7.154,13.377
		c3.684-1.54,6.552-4.371,9.323-7.102c1.974,6.878,4.051,13.857,5.127,20.945c-3.727-2.459-7.355-5.221-11.772-6.571
		c1.792,8.481,8.183,16.711,17.193,17.512c7.606,0.718,17.351-4.588,16.457-13.279c0.143-5.101-5.601-9.14-10.172-6.589
		c-4.578,2.05-3.815,7.842-3.769,11.941c-8.043-3.913-10.285-16.589-2.744-22.172c3.86-3.542,9.467-3.102,13.989-1.153
		C250.965,121.322,251.571,112.714,255.597,105.971z"/>
	<path fill="#FFFFFF" stroke="#FFFFFF" stroke-width="0.0938" d="M361.613,106.612c1.494-0.315,2.9,0.47,4.307,0.854
		c-0.385,1.404-0.867,2.91-1.352,4.316c-1.004-0.09-2.904-0.17-3.807-0.259C360.646,109.825,359.92,107.731,361.613,106.612z"/>
	<path fill="#FFFFFF" stroke="#FFFFFF" stroke-width="0.0938" d="M297.427,108.415c1.096-0.212,2.196-0.324,3.196-0.335
		c0.116,1.399,0.229,2.797,0.246,4.197c-1.4,0.114-2.699,0.33-4.094,0.545C296.759,111.322,295.534,109.135,297.427,108.415z"/>
	<path fill="#FFFFFF" stroke="#FFFFFF" stroke-width="0.0938" d="M224.992,114.807c1.173-2.314,3.162-3.537,5.769-2.864
		c0.016,1.501-0.069,2.9-0.151,4.401C228.611,116.567,226.605,115.988,224.992,114.807z"/>
	<path fill="#FFFFFF" stroke="#FFFFFF" stroke-width="0.0938" d="M367.279,112.751c1.695-0.219,3.297-0.236,4.996-0.154
		c0.012,0.899,0.033,2.9,0.041,3.901c-1.496,0.216-2.994,0.332-4.492,0.447C367.607,115.548,367.39,114.151,367.279,112.751z"/>
	<path fill="#D00000" stroke="#D00000" stroke-width="0.0938" d="M297.587,132.213c1.281-1.514,3.51,0.861,2.123,2.177
		C298.325,135.805,296.101,133.53,297.587,132.213z"/>
	<path fill="#D00000" stroke="#D00000" stroke-width="0.0938" d="M220.224,145.161c-2.422-1.974-2.956-4.97-1.987-7.881
		C220.063,139.56,220.594,142.356,220.224,145.161z"/>
	<path fill="#D00000" stroke="#D00000" stroke-width="0.0938" d="M376.853,138.049c0.916,1.589,1.236,3.386,1.455,5.183
		c-1.09,0.713-2.285,1.427-3.375,2.138C375.103,142.768,375.777,140.36,376.853,138.049z"/>
	<path fill="#D00000" stroke="#D00000" stroke-width="0.0938" d="M293.936,164.157c1.273-2.416,2.545-4.729,3.822-7.144
		c1.323,2.285,2.649,4.57,3.975,6.857c-1.273,2.514-2.648,4.928-4.019,7.444C296.386,168.928,295.16,166.542,293.936,164.157z"/>
	<path fill="#D00000" stroke="#D00000" stroke-width="0.0938" d="M279.479,159.213c1.505,0.383,3.011,0.867,4.418,1.451
		c-0.69,1.108-1.377,2.214-2.063,3.324c-1.004-0.39-1.91-0.78-2.913-1.169C279.108,161.616,279.295,160.417,279.479,159.213z"/>
	<path fill="#D00000" stroke="#D00000" stroke-width="0.0938" d="M311.48,159.263c1.203-0.013,2.402,0.075,3.701,0.06
		c0.016,1.301,0.129,2.6,0.145,3.9c-1.303,0.013-2.6,0.128-3.898,0.241C311.41,162.064,311.398,160.665,311.48,159.263z"/>
	<path fill="#D00000" stroke="#D00000" stroke-width="0.0938" d="M259.095,160.736c5.172-2.657,14.901-0.062,13.378,7.153
		c-2.422,7.029-14.11,8.256-17.98,1.797C252.752,165.906,255.711,162.172,259.095,160.736z"/>
	<path fill="#D00000" stroke="#D00000" stroke-width="0.0938" d="M327.099,160.892c5.48-1.959,14.121,1.548,13.293,8.256
		c-2.52,7.527-15.127,6.767-18.201,0.099C320.752,165.463,323.308,161.734,327.099,160.892z"/>
	<path fill="#D00000" stroke="#D00000" stroke-width="0.0938" d="M241.547,165.529c2.003,0.377,3.118,1.664,3.738,3.558
		c-1.094,0.413-2.189,0.925-3.283,1.437c-0.406-0.496-1.415-1.385-1.92-1.878C240.472,167.839,241.156,166.333,241.547,165.529z"/>
	<path fill="#D00000" stroke="#D00000" stroke-width="0.0938" d="M350.455,165.64c1.4,0.083,2.801,0.067,4.102,0.154
		c0.123,1.998-0.662,3.707-2.551,4.527c-0.506-0.595-1.52-1.684-1.926-2.181C350.174,167.542,350.361,166.339,350.455,165.64z"/>
	<path fill="#D00000" stroke="#D00000" stroke-width="0.0938" d="M280.282,168.705c1-0.111,2.101-0.123,3.2-0.236
		c0.41,0.897,0.819,1.692,1.227,2.589c-0.592,0.606-1.285,1.213-1.878,1.82c-0.905-0.29-1.908-0.68-2.813-0.97
		C280.105,170.807,280.197,169.807,280.282,168.705z"/>
	<path fill="#D00000" stroke="#D00000" stroke-width="0.0938" d="M226.357,175.796c0.279-2.005,0.756-4.011,1.235-5.917
		c1.318,1.486,2.933,2.969,3.952,4.758c0.022,1.899-0.358,3.805-0.537,5.709C229.293,178.963,227.477,177.583,226.357,175.796z"/>
	<path fill="#D00000" stroke="#D00000" stroke-width="0.0938" d="M309.424,172.287c0.688-1.007,1.379-2.114,2.066-3.123
		c0.803,0.392,2.412,1.274,3.219,1.665c-0.785,1.309-1.574,2.519-2.361,3.728C311.543,173.964,310.129,172.879,309.424,172.287z"/>
	<path fill="#D00000" stroke="#D00000" stroke-width="0.0938" d="M363.459,175.198c1.479-1.918,2.957-3.735,4.541-5.552
		c0.822,2.092,1.547,4.284,2.369,6.376c-1.479,1.815-3.061,3.633-4.639,5.451C365.006,179.381,364.283,177.288,363.459,175.198z"/>
	<path fill="#D00000" stroke="#D00000" stroke-width="0.0938" d="M241.654,175.328c0.997-0.31,1.992-0.722,2.989-1.032
		c0.506,0.595,1.622,1.882,2.129,2.576c-1.288,1.013-2.68,1.831-4.275,2.348C242.284,178.221,241.865,176.325,241.654,175.328z"/>
	<path fill="#D00000" stroke="#D00000" stroke-width="0.0938" d="M348.849,174.256c0.902,0.391,1.809,0.881,2.713,1.271
		c0.01,0.7,0.021,2,0.029,2.6c-0.797,0.41-1.594,0.719-2.488,1.128c-0.506-0.494-1.516-1.384-2.121-1.877
		C347.57,176.271,348.158,175.264,348.849,174.256z"/>
	<path fill="#FFFFFF" stroke="#FFFFFF" stroke-width="0.0938" d="M247.967,185.66c13.467-3.148,27.258-3.998,40.949-4.947
		c19.393-0.712,39.1-0.128,57.953,4.768c5.018,1.345,10.434,2.986,14.08,6.946c-3.557,4.238-9.25,4.902-14.238,5.956
		c-10.086,1.61-20.377,2.223-30.572,2.634c-20.497,0.423-41.2,0.25-61.534-2.929c-6.414-1.129-13.325-2.154-18.571-6.397
		C238.689,187.66,243.677,186.706,247.967,185.66z"/>
	<path fill="#FFFFFF" stroke="#FFFFFF" stroke-width="0.0938" d="M143.81,236c5.4-0.06,10.9-0.12,16.399-0.18
		c-0.06,12.903-0.119,25.804,0.023,38.803c10.574-11.716,21.146-23.432,31.62-35.247c1.585-1.316,2.658-3.729,4.958-3.755
		c5.898-0.265,11.901-0.13,17.9-0.195c-12.746,14.34-25.487,28.681-38.435,42.922c13.561,14.552,27.319,29.004,40.582,43.76
		c-7.101,0.077-14.198,0.354-21.301,0.134c-3.117-1.466-4.951-4.647-7.277-7.021c-9.51-9.997-18.725-20.397-28.432-30.091
		c-0.164,12.401-0.129,24.703-0.194,37.103c-5.5,0.061-10.999,0.12-16.597,0.182C143.541,293.606,143.324,264.807,143.81,236z"/>
	<path fill="#FFFFFF" stroke="#FFFFFF" stroke-width="0.0938" d="M231.309,235.444c19.397-0.412,38.905,0.074,58.402-0.237
		c0.045,4.199-0.209,8.301-0.265,12.404c-13.998,0.252-28,0.105-41.899,0.257c-0.12,7.401,0.06,14.801,0.041,22.201
		c14.002-0.054,27.901-0.205,41.902-0.259c0.047,4.301-0.008,8.602,0.038,12.801c-13.999,0.053-27.998,0.205-41.998,0.259
		c0.195,8.598,0.088,17.201,0.08,25.801c14.001-0.054,28.002-0.205,42.101-0.259c-0.052,4.4-0.003,8.899-0.054,13.301
		c-19.399,0.312-38.9,0.225-58.4,0.438C231.64,293.244,231.324,264.346,231.309,235.444z"/>
	<path fill="#FFFFFF" stroke="#FFFFFF" stroke-width="0.0938" d="M314.31,235.238c19.303,0.089,38.598-0.422,58.008,0.166
		c-0.059,4.001-0.014,8.1,0.031,12.201c-13.998,0.151-28.002,0.005-41.896,0.157c0.078,7.398,0.059,14.801,0.139,22.199
		c13.998-0.153,27.9-0.104,41.9-0.157c-0.053,4.201-0.01,8.4,0.037,12.6c-13.898,0.053-27.898,0.405-41.799,0.057
		c0.094,8.6,0.086,17.2,0.182,25.801c13.994-0.354,27.9,0.095,41.898,0.043c0.049,4.498,0.1,8.897,0.049,13.4
		c-19.402,0.01-38.701,0.022-58.1,0.135C314.543,292.938,314.326,264.04,314.31,235.238z"/>
	<path fill="#FFFFFF" stroke="#FFFFFF" stroke-width="0.0938" d="M396.416,235.341c10.398-0.113,20.699-0.025,31.104,0.061
		c7.9-0.087,15.732,3.027,21.496,8.465c11.014,10.48,11.531,30.177,0.547,40.897c-3.564,3.438-7.941,5.886-12.623,7.537
		c-7.17,2.579-14.984,1.464-22.482,1.745c0.303,9.299,0.305,18.499,0.305,27.8c-5.799,0.162-11.6-0.174-17.504-0.21
		C396.844,292.941,396.83,264.139,396.416,235.341z"/>
	<path fill="#D00000" stroke="#D00000" stroke-width="0.0938" d="M413.847,247.451c7.1-0.077,14.998-0.663,20.85,3.973
		c9.277,6.899,7.055,23.625-3.799,27.844c-5.283,1.758-11.096,0.62-16.59,0.979C414.189,269.349,414.168,258.449,413.847,247.451z"
		/>
	<path fill="#FFFFFF" stroke="#FFFFFF" stroke-width="0.0938" d="M136.362,377.989c11.689-10.326,28.445-14.312,43.486-10.675
		c10.224,2.188,19.386,7.789,26.269,15.514c-3.958,3.742-8.018,7.388-11.976,11.332c-6.671-6.529-15.428-11.733-25.027-11.43
		c-13.304-0.354-26.506,8.592-30.064,21.631c-2.891,10.031,0.635,21.496,8.508,28.309c9.9,9.091,25.717,10.621,37.245,3.694
		c3.975-2.245,7.239-5.481,10.203-8.911c3.844,3.957,7.29,8.22,11.033,12.278c-9.498,9.202-21.618,16.639-35.114,17.185
		c-15.089,0.965-30.561-5.468-40.09-17.263c-6.588-8.028-10.203-18.39-9.916-28.793C120.881,398.259,126.75,385.996,136.362,377.989
		z"/>
	<path fill="#FFFFFF" stroke="#FFFFFF" stroke-width="0.0938" d="M250.06,368.047c4.397-0.147,8.799-0.096,13.198-0.145
		c14.214,28.746,28.431,57.593,42.444,86.542c-5.895,0.264-11.797,0.126-17.695,0.192c-3.263-5.665-6.325-11.433-9.291-17.3
		c-13.998,0.153-27.904-0.296-41.902-0.043c-2.737,5.93-5.672,11.863-8.708,17.695c-6.3-0.028-12.599,0.038-19.001,0.006
		C222.589,425.85,236.575,397.097,250.06,368.047z"/>
	<path fill="#FFFFFF" stroke="#FFFFFF" stroke-width="0.0938" d="M318.656,367.497c5.998-0.165,12.006,0.271,18.006,0.304
		c0.055,23.501,0.414,47,0.365,70.401c13.701-0.25,27.307,0.203,41.002,0.054c-0.037,5.399,0.02,10.699,0.078,16.098
		c-19.693,0.416-39.303,0.027-59.002,0.144C318.89,425.497,318.871,396.497,318.656,367.497z"/>
	<path fill="#FFFFFF" stroke="#FFFFFF" stroke-width="0.0938" d="M395.66,367.558c6.301,0.03,12.598-0.239,18.902,0.191
		c7.855,13.915,15.805,27.829,23.658,41.746c7.748-13.986,15.9-27.878,23.846-41.764c6.102-0.067,12.203-0.034,18.404-0.101
		c0.312,28.698,0.428,57.396,0.637,86.096c-5.297,0.161-10.701,0.021-15.998,0.177c-0.102-18.402-0.004-36.805-0.404-55.1
		c-9.043,14.3-17.381,28.992-26.227,43.389c-9.055-14-17.113-28.616-25.77-42.919c0.096,18.297,0.299,36.597,0.396,54.797
		c-5.598,0.161-11.295,0.224-16.896,0.184C396.094,425.354,395.779,396.457,395.66,367.558z"/>
	<path fill="#D00000" stroke="#D00000" stroke-width="0.0938" d="M243.458,422.821c4.491-9.951,9.186-19.7,13.776-29.651
		c4.906,9.746,9.417,19.697,14.225,29.446C262.158,422.819,252.757,422.721,243.458,422.821z"/>
	<path fill="#FFFFFF" stroke="#FFFFFF" stroke-width="0.0938" d="M254.722,492.702c2.096-0.321,4.097-0.245,6.197-0.165
		c6.448,13.429,13.193,26.856,19.641,40.385c-2.8,0.031-5.597,0.061-8.5,0.094c-1.427-2.684-2.957-5.365-4.386-8.053
		c-6.399,0.072-12.7,0.14-19.1,0.108c-1.371,2.717-2.741,5.433-4.113,8.044c-2.998,0.136-6.1,0.07-9.099,0.104
		c4.984-10.654,9.968-21.212,14.954-31.867C251.784,498.434,252.85,495.324,254.722,492.702z"/>
	<path fill="#FFFFFF" stroke="#FFFFFF" stroke-width="0.0938" d="M285.921,492.363c2.899-0.032,5.8-0.065,8.798,0.004
		c5.19,8.343,10.88,16.384,16.371,24.72c0.012-8.098-0.277-16.196-0.062-24.201c2.383-1.225,5.395-0.455,7.992-0.784
		c0.045,13.599,0.094,27.2,0.146,40.9c-2.402,0.028-4.9,0.054-7.4,0.082c-5.799-8.839-11.796-17.674-17.592-26.61
		c-0.103,8.9-0.006,17.799-0.009,26.701c-2.699,0.03-5.398,0.059-8.1,0.087C285.916,519.664,285.867,505.965,285.921,492.363z"/>
	<path fill="#FFFFFF" stroke="#FFFFFF" stroke-width="0.0938" d="M330.517,492.077c6,0.032,11.9-0.131,17.902-0.099
		c10-0.007,19.598,8.889,19.01,19.198c0.812,10.389-7.787,19.683-17.77,21.294c-6.293,0.869-12.799,0.24-19.193,0.512
		C330.215,519.382,330.767,505.776,330.517,492.077z"/>
	<path fill="#D00000" stroke="#D00000" stroke-width="0.0938" d="M340,499.673c4.705,0.25,10.592-1.115,14.133,2.946
		c5.857,5.035,4.67,15.348-1.787,19.321c-3.572,2.637-8.178,2.187-12.277,2.234C340.08,515.971,339.99,507.873,340,499.673z"/>
	<path fill="#D00000" stroke="#D00000" stroke-width="0.0938" d="M257.754,504.869c2.348,4.278,4.397,8.754,6.746,13.129
		c-4.301,0.046-8.602-0.007-12.9,0.038C253.751,513.718,255.803,509.294,257.754,504.869z"/>
	<path fill="#FFFFFF" stroke="#FFFFFF" stroke-width="0.0938" d="M105.443,587.039c11.061-12.821,29.189-19.321,45.928-15.801
		c12.622,1.864,23.109,9.848,31.412,19.056c-3.959,3.743-8.122,7.189-12.284,10.836c-6.886-7.925-16.355-14.224-27.055-14.407
		c-14.713-0.938-29.088,10.621-31.03,25.242c-1.19,9.915,3.022,20.27,10.693,26.684c10.296,8.589,26.104,9.418,37.429,2.391
		c3.08-1.832,5.55-4.459,8.124-6.986c3.051,4.767,6.503,9.327,9.653,13.995c-7.524,7.081-16.968,12.185-27.151,13.796
		c-14.977,2.162-30.929-2.561-42.144-12.841C92.248,633.389,90.632,604.501,105.443,587.039z"/>
	<path fill="#FFFFFF" stroke="#FFFFFF" stroke-width="0.0938" d="M220.396,572.986c4.799-0.154,9.699-0.108,14.5-0.062
		c13.42,29.253,26.943,58.609,40.064,88.065c-6.5,0.071-12.897,0.14-19.298,0.213c-2.566-6.072-5.332-11.943-7.796-17.918
		c-13.3,0.049-26.601,0.093-39.902,0.139c-2.735,5.929-5.069,11.957-8.106,17.686c-6.191,0.87-12.499,0.137-18.797,0.407
		C194.138,631.974,207.317,602.524,220.396,572.986z"/>
	<path fill="#FFFFFF" stroke="#FFFFFF" stroke-width="0.0938" d="M281.795,572.613c10.8-0.219,21.6-0.037,32.398-0.254
		c9.697-0.505,19.059,5.394,23.75,13.644c3.979,7.053,3.172,15.664,0.148,22.896c-2.236,5.424-6.793,9.477-11.762,12.329
		c3.021,1.869,6.137,3.735,7.773,6.918c5.115,10.543,7.939,21.913,12.756,32.46c-6.102-0.134-12.289,0.834-18.305-0.199
		c-4.299-9.152-5.416-19.742-11.207-28.181c-2.232-2.774-5.062-5.544-8.766-5.806c-3.502-0.258-6.898-0.024-10.398-0.081
		c0.225,11.597,0.152,23.198,0.178,34.796c-5.498,0.059-10.898,0.118-16.398,0.18C282.24,631.711,281.818,602.21,281.795,572.613z"
		/>
	<path fill="#FFFFFF" stroke="#FFFFFF" stroke-width="0.0938" d="M356.693,572.193c10.9-0.316,21.699-0.336,32.5-0.353
		c9.994-0.312,19.766,5.984,23.963,14.938c5.232,12.243-0.293,28.105-12.43,33.841c2.918,1.767,6.037,3.432,7.67,6.515
		c5.316,10.541,7.939,22.113,13.062,32.755c-6.205,0.269-12.404,0.137-18.502,0.303c-3.396-8.859-5.199-18.239-9.693-26.695
		c-2.439-3.973-6.387-7.929-11.383-7.773c-3.002-0.065-5.902,0.064-8.9,0.099c0.426,11.495,0.053,23.1-0.123,34.6
		c-5.398,0.158-10.697,0.119-16.098,0.175C356.537,631.1,356.916,601.594,356.693,572.193z"/>
	<path fill="#FFFFFF" stroke="#FFFFFF" stroke-width="0.0938" d="M416.994,571.936c6.9-0.174,13.701-0.25,20.598-0.224
		c7.934,12.112,16.066,24.125,24,36.34c7.965-12.29,16.234-24.479,24.199-36.767c7-0.076,13.9-0.152,20.9-0.229
		c-12.018,17.032-24.135,33.868-36.25,50.797c-1.184,1.415-0.863,3.411-0.943,5.114c0.219,10.796,0.137,21.6,0.252,32.296
		c-5.795,0.265-11.498,0.227-17.293,0.389c-0.135-12.099,0.33-24.2-0.295-36.297C440.67,606.081,428.679,589.107,416.994,571.936z"
		/>
	<path fill="#D00000" stroke="#D00000" stroke-width="0.0938" d="M298.048,586.535c6.804,0.327,14.681-1.759,20.53,2.876
		c7.262,5.321,5.402,18.243-2.965,21.33c-5.578,1.964-11.689,1.031-17.487,1.294C298.134,603.535,298.141,595.036,298.048,586.535z"
		/>
	<path fill="#D00000" stroke="#D00000" stroke-width="0.0938" d="M372.844,586.021c6.801,0.024,14.588-1.559,20.438,2.974
		c7.254,5.221,5.098,18.347-3.27,21.235c-5.482,1.961-11.391,0.928-17.088,1.189C372.933,602.921,372.935,594.521,372.844,586.021z"
		/>
	<path fill="#D00000" stroke="#D00000" stroke-width="0.0938" d="M226.662,597.415c4.813,10.35,9.429,20.898,14.145,31.351
		c-9.001,0.095-18,0.295-27.102-0.105C218.09,618.211,222.477,607.861,226.662,597.415z"/>
	<path fill="#FFFFFF" stroke="#FFFFFF" stroke-width="0.0938" d="M249.052,706.18c11.881-1.83,24.604,0.133,34.678,6.92
		c12.589,8.16,21.247,22.568,21.214,37.77c0.635,12.397-4.229,24.848-12.832,33.741c-8.499,9.296-20.939,14.631-33.438,15.067
		c-13.2,0.246-26.554-4.812-35.659-14.412c-11.225-11.376-15.916-28.827-11.784-44.276
		C215.536,723.247,231.081,709.074,249.052,706.18z"/>
	<path fill="#FFFFFF" stroke="#FFFFFF" stroke-width="0.0938" d="M321.263,706.893c6.1-0.069,12.199-0.136,18.299-0.201
		c12.502,18.262,24.703,36.731,37.102,54.995c0.256-13.201-0.186-26.399,0.068-39.602c0.342-5.302,0.188-10.504,0.127-15.8
		c5.701,0.136,11.4,0.073,17.1-0.09c-0.275,29.701-0.051,59.305,0.074,89.005c-5.199,0.256-10.4,0.113-15.6,0.271
		c-13.416-19.758-26.434-39.713-39.85-59.47c-0.186,20.005,0.434,39.897-0.051,59.803c-5.797,0.164-11.494,0.227-17.195,0.29
		C321.312,766.291,321.486,736.59,321.263,706.893z"/>
	<path fill="#D00000" stroke="#D00000" stroke-width="0.0938" d="M251.236,723.056c9.382-1.702,19.608,0.586,26.582,7.209
		c10.499,9.084,12.982,25.86,5.309,37.546c-6.874,11.573-22.111,17.136-34.862,12.78c-9.836-3.191-17.83-11.808-19.939-21.884
		c-1.784-7.68-0.377-16.097,3.949-22.746C236.504,729.315,243.553,724.741,251.236,723.056z"/>
</g>
</svg>
