<?xml version="1.0" encoding="UTF-8" standalone="no"?>
<svg
   xmlns:dc="http://purl.org/dc/elements/1.1/"
   xmlns:cc="http://creativecommons.org/ns#"
   xmlns:rdf="http://www.w3.org/1999/02/22-rdf-syntax-ns#"
   xmlns:svg="http://www.w3.org/2000/svg"
   xmlns="http://www.w3.org/2000/svg"
   viewBox="0 0 642.52002 377.94666"
   height="377.94666"
   width="642.52002"
   xml:space="preserve"
   id="svg2"
   version="1.1"><metadata
     id="metadata8"><rdf:RDF><cc:Work
         rdf:about=""><dc:format>image/svg+xml</dc:format><dc:type
           rdf:resource="http://purl.org/dc/dcmitype/StillImage" /></cc:Work></rdf:RDF></metadata><defs
     id="defs6" /><g
     transform="matrix(1.3333333,0,0,-1.3333333,0,377.94667)"
     id="g10"><g
       transform="scale(0.1)"
       id="g12"><path
         id="path14"
         style="fill:#ffffff;fill-opacity:1;fill-rule:nonzero;stroke:none"
         d="m 3620.97,1445.7 c -61.11,0 -103.44,-33.87 -114.72,-93.11 0,0 -3.02,-18.83 -2.65,-39.77 l 140.89,39.77 14.71,4.14 63.63,17.97 c -13.43,41.95 -45.5,71 -101.86,71" /><path
         id="path16"
         style="fill:#ffffff;fill-opacity:1;fill-rule:nonzero;stroke:none"
         d="m 4352.82,2215.28 14.19,5.67 61.41,24.51 c -17.75,40.32 -52.68,65.86 -108.73,59.97 -60.77,-6.38 -99.33,-44.5 -104.35,-104.59 0,0 -1.04,-19.04 1.51,-39.83 l 135.97,54.27" /><path
         id="path18"
         style="fill:#ffffff;fill-opacity:1;fill-rule:nonzero;stroke:none"
         d="m 2214.6,830.461 c -70.15,7.367 -120.36,-38.41 -127.93,-110.43 -7.57,-72.011 31.92,-128.179 102.08,-135.562 70.16,-7.367 119.52,39.461 127.09,111.472 7.56,72.02 -31.08,127.149 -101.24,134.52" /><path
         id="path20"
         style="fill:#ffffff;fill-opacity:1;fill-rule:nonzero;stroke:none"
         d="m 2620.81,2033.76 14.19,5.67 61.41,24.51 c -17.75,40.31 -52.67,65.86 -108.73,59.97 -60.77,-6.39 -99.33,-44.5 -104.35,-104.6 0,0 -1.04,-19.04 1.51,-39.83 l 135.97,54.28" /><path
         id="path22"
         style="fill:#ffffff;fill-opacity:1;fill-rule:nonzero;stroke:none"
         d="m 4638.8,1720.52 h -653.91 v 50.98 l 644.8,67.77 c 11.74,1.23 22.49,7.07 29.91,16.24 7.43,9.17 10.91,20.9 9.67,32.63 l -72.95,694.08 c -2.57,24.42 -24.37,42.16 -48.87,39.58 L 175.461,2160.89 c -24.438,-2.56 -42.156,-24.44 -39.586,-48.87 l 13.035,-502.05 v -567.49 l -5.441,-429.761 c -1.239,-11.731 2.246,-23.469 9.66,-32.641 7.434,-9.168 18.187,-15.008 29.922,-16.238 L 3509.31,212.852 c 1.57,-0.172 3.15,-0.25 4.7,-0.25 22.47,0 41.78,16.98 44.17,39.828 l 73.52,699.519 h 1007.1 c 24.56,0 44.48,19.91 44.48,44.473 v 679.628 c 0,24.56 -19.92,44.47 -44.48,44.47 z m -293.16,823.7 8.2,-74.67 -118.1,-52.08 -5.51,50.22 z m -35.12,-160.36 c 93.68,9.85 163.9,-32.06 200.35,-105.48 9.97,-20.09 17.37,-42.55 22.05,-66.96 l -147.56,-58.9 -142.74,-56.99 c 23.49,-30.4 61.39,-46.11 113.81,-40.61 51.45,5.41 86.7,29.9 106.89,53.77 l 61.26,-52.21 c -32.63,-40.29 -80.28,-72.74 -158.85,-81 -93.23,-9.8 -167.94,24.54 -209.23,85.67 -12.86,19.04 -22.3,40.78 -28.22,64.5 -2.53,10.14 -4.62,20.53 -5.76,31.4 -12.28,116.88 70.14,214.43 188,226.81 z m -243.36,-33.02 8.15,-77.54 -90.56,-9.52 33.48,-318.61 -87.31,-9.18 -33.49,318.61 -89.93,-9.45 -8.15,77.54 z m -478.52,-50.98 86.94,9.14 51.64,5.43 8.12,-77.25 -51.61,-5.42 25.22,-239.99 51.61,5.43 8.12,-77.24 -51.61,-5.43 -86.97,-9.14 -51.64,-5.43 -8.12,77.24 51.64,5.43 -25.22,239.99 -51.64,-5.42 -8.12,77.23 z m 83.45,-683.43 -0.23,-50.53 -122.9,39.45 0.35,75.12 z m -362.51,423.54 c -59.67,9.77 -120.53,30.82 -128.69,108.47 -8.25,78.53 50.48,122.52 128.13,130.69 62.66,6.58 109.37,-14.97 142.72,-44.54 l -49.46,-60.08 c -20.97,19.58 -49.84,33.53 -85.4,29.8 -35.55,-3.74 -53.82,-18.9 -51.36,-42.27 3.14,-29.91 28.17,-33.9 91.56,-43.35 63.38,-9.38 133.3,-26.61 142.05,-109.87 7.07,-67.35 -28.28,-126.87 -139.59,-138.57 -89.77,-9.44 -153.76,23.57 -184.38,62.91 l 59.83,51.66 c 27.94,-32.02 66.11,-44.12 110.98,-39.4 47.71,5.01 67.54,23.21 64.78,49.4 -3.34,31.78 -32.83,33.42 -101.17,45.15 z m -168.25,-840.68 h 51.89 v 241.29 h -51.89 v 77.7 h 51.89 87.45 51.92 v -77.7 h -51.89 v -241.29 h 51.89 v -77.66 h -51.89 -87.45 -51.92 z m -1093.27,938.84 97.77,-165.66 c 18.42,-31.14 33.19,-54.77 33.19,-54.77 0,0 8.6,26.09 19.2,60.28 l 61.22,182.36 96.32,10.12 -157.04,-422.22 -12.16,-1.28 -243.26,380.16 z m 112.42,-943.68 c 49.07,0 72.95,26.09 72.95,79.72 v 244.78 h 87.51 v -247.03 c 0,-96.66 -61.2,-156.72 -159.7,-156.72 -101.42,0 -161.95,58.57 -161.95,156.72 v 247.03 h 87.48 v -244.78 c 0,-53.63 24.09,-79.72 73.71,-79.72 z m -216.62,3.63 v -75.76 H 1709.9 v 397.07 h 86.82 v -321.31 z m -192.71,909.17 86.97,9.14 51.64,5.43 8.12,-77.24 -51.62,-5.43 25.23,-239.98 51.61,5.42 8.12,-77.24 -51.61,-5.42 -86.97,-9.15 -51.64,-5.42 -8.12,77.24 51.61,5.43 -25.23,239.98 -51.6,-5.42 -8.12,77.24 z m -415.93,-44.05 5.82,-73.18 c 18.9,54 65.31,89.13 124.23,95.32 87,9.14 153.35,-46.29 164.55,-152.9 l 24.48,-232.89 -94.47,-9.93 -23.68,225.39 c -5.9,56.12 -35.54,86.12 -90.71,80.31 -61.75,-6.49 -98.03,-48.12 -91.34,-111.73 l 22.41,-213.24 -94.46,-9.92 -41.29,392.84 z m 168.85,-728.83 v -83.28 H 292.559 l 0.132,83.28 z m -593.55,683.51 25.585,-243.44 c 5.606,-53.35 32.293,-76.76 81.635,-71.58 48.81,5.13 69.82,33.56 64.22,86.92 l -25.59,243.43 87,9.15 25.82,-245.69 c 10.11,-96.12 -44.45,-162.23 -142.41,-172.53 -100.858,-10.6 -167.186,41.33 -177.444,138.91 l -25.82,245.69 z m -214.04,-207.16 8.708,-82.81 -405.137,-42.59 -9.321,82.76 z m 480.97,-1033.142 -886.751,93.203 7.367,82.969 888.094,-93.352 z m 422.22,-205.367 -232.67,24.461 41.5,394.887 86.34,-9.079 -33.58,-319.539 146.33,-15.382 z m 208.88,-21.352 -86.43,9.09 13.22,125.821 -118.41,281.531 98.24,-10.332 53.79,-132.547 c 9.17,-22.07 16.1,-43.313 19.92,-55.801 6.45,11.668 17.72,31.438 30.39,50.481 l 79.35,118.589 92.99,-9.769 -169.67,-249.723 z m 604.56,134.86 c -12.29,-116.91 -113.19,-195.188 -232.91,-182.61 -118.78,12.481 -203.09,110.231 -190.8,227.153 12.29,116.91 115.08,195 233.85,182.508 119.72,-12.579 202.15,-110.129 189.86,-227.051 z m -16.84,1258.411 c -2.52,10.14 -4.61,20.53 -5.75,31.39 -12.29,116.89 70.13,214.44 187.99,226.82 93.69,9.86 163.91,-32.07 200.36,-105.48 9.96,-20.09 17.36,-42.55 22.04,-66.97 L 2653.35,1971 2510.61,1914.01 c 23.49,-30.4 61.4,-46.12 113.81,-40.61 51.45,5.41 86.7,29.9 106.89,53.77 l 61.26,-52.2 c -32.63,-40.3 -80.28,-72.75 -158.84,-81.01 -93.24,-9.8 -167.94,24.54 -209.23,85.67 -12.87,19.04 -22.31,40.77 -28.23,64.5 z m 492.87,-1271.571 -24.48,-232.887 -94.46,9.93 23.69,225.386 c 5.9,56.141 -16.86,91.614 -72.03,97.41 -61.75,6.493 -105.89,-26.687 -112.58,-90.289 l -22.41,-213.238 -94.47,9.93 41.29,392.808 94.46,-9.929 -9.52,-72.758 c 29.71,48.887 82.42,73.629 141.34,67.437 87,-9.148 140.37,-77.179 129.17,-183.8 z m 146.9,449.761 h -94.99 v 231.35 c 0,54.56 -19.72,84.64 -74.27,84.64 -55.51,0 -88.4,-33.85 -88.4,-99.71 v -216.28 h -94.99 v 231.35 c 0,54.56 -18.81,84.64 -73.36,84.64 -56.42,0 -89.35,-33.85 -89.35,-99.71 v -216.28 h -94.98 v 394.98 h 94.98 l -1.87,-67.69 c 26.32,49.83 66.78,76.18 117.53,76.18 57.38,0 95.02,-27.3 115.7,-75.23 31.03,46.98 78.04,75.23 135.41,75.23 93.12,0 148.59,-62.09 148.59,-162.71 z m 17.56,1039.2 c -56.12,-5.9 -91.03,-42.65 -81.79,-130.57 l 20.06,-190.82 -94.47,-9.92 -41.29,392.84 94.47,9.93 6.82,-74 c 19.71,64.47 62.55,88.84 105.56,93.36 28.06,2.95 48.39,-1.54 66.32,-10.06 l -22.86,-88.42 c -15.77,5.88 -31.32,9.92 -52.82,7.66 z M 3462.12,653.91 c -4.98,-47.39 -38.89,-94.449 -100.79,-139.922 l -38.72,-28.629 c -8.24,-5.949 -19.85,-12.808 -29.26,-18.129 10.16,-0.3 22.18,-0.769 29.2,-1.511 l 125.29,-13.16 -7.9,-75.2 -319.08,33.539 1.52,14.383 1.59,1.27 166.97,133.129 c 52.78,42.05 78.27,63.82 81.98,99.019 3.34,31.84 -16.08,53.871 -50.69,57.512 -34.98,3.68 -60.61,-14.801 -80.64,-58.191 l -1.91,-4.192 -78.78,31.363 1.61,4.411 c 27.07,74.296 89.61,113.789 167.29,105.628 87.07,-9.148 140.25,-65.968 132.32,-141.32 z m 169.2,538.82 c 51.74,0 89.35,20.67 111.92,42.3 l 55.48,-58.32 c -36.67,-36.66 -87.46,-63.96 -166.45,-63.96 -93.74,0 -164.45,41.96 -199.13,107.07 -10.8,20.28 -17.92,42.88 -21.32,67.1 -1.46,10.35 -2.44,20.9 -2.44,31.82 0,117.53 92.16,205.93 210.67,205.93 94.2,0 159.65,-49.03 188.23,-125.85 7.81,-21.02 12.82,-44.13 14.92,-68.91 l -152.9,-43.15 -147.92,-41.75 c 20.18,-32.69 56.24,-52.28 108.94,-52.28 z m 455.67,242.75 c -56.42,0 -94.99,-32.92 -94.99,-121.32 v -191.84 h -94.98 V 1517.3 H 3992 l -0.95,-74.28 c 26.34,62.06 71.49,81.82 114.74,81.82 28.21,0 47.97,-6.59 64.91,-16.91 l -31.98,-85.61 c -15.07,7.53 -30.11,13.16 -51.73,13.16 z m 305.23,-242.75 c 51.73,0 89.34,20.67 111.92,42.3 l 55.47,-58.32 c -36.67,-36.66 -87.45,-63.96 -166.45,-63.96 -93.74,0 -164.45,41.96 -199.13,107.07 -10.8,20.28 -17.92,42.88 -21.32,67.1 -1.46,10.35 -2.45,20.9 -2.45,31.82 0,117.53 92.17,205.93 210.68,205.93 94.2,0 159.66,-49.03 188.23,-125.85 7.81,-21.02 12.82,-44.13 14.92,-68.91 l -152.9,-43.15 -147.92,-41.75 c 20.19,-32.69 56.24,-52.28 108.95,-52.28" /><path
         id="path24"
         style="fill:#ffffff;fill-opacity:1;fill-rule:nonzero;stroke:none"
         d="m 4381.86,1445.7 c -61.11,0 -103.44,-33.87 -114.71,-93.11 0,0 -3.02,-18.83 -2.66,-39.77 l 140.9,39.77 14.7,4.14 63.63,17.97 c -13.43,41.95 -45.49,71 -101.86,71" /><path
         id="path26"
         style="fill:#ef3645;fill-opacity:1;fill-rule:nonzero;stroke:none"
         d="m 1026.78,1624.14 c 97.96,10.3 152.52,76.41 142.41,172.53 l -25.82,245.69 -87,-9.15 25.59,-243.43 c 5.6,-53.36 -15.41,-81.79 -64.22,-86.92 -49.342,-5.18 -76.029,18.23 -81.635,71.58 l -25.585,243.44 -87.004,-9.14 25.82,-245.69 c 10.258,-97.58 76.586,-149.51 177.444,-138.91" /><path
         id="path28"
         style="fill:#ef3645;fill-opacity:1;fill-rule:nonzero;stroke:none"
         d="m 1376.51,1670.35 -22.41,213.24 c -6.69,63.61 29.59,105.24 91.34,111.73 55.17,5.81 84.81,-24.19 90.71,-80.31 l 23.68,-225.39 94.47,9.93 -24.48,232.89 c -11.2,106.61 -77.55,162.04 -164.55,152.9 -58.92,-6.19 -105.33,-41.32 -124.23,-95.32 l -5.82,73.18 -94.46,-9.93 41.29,-392.84 94.46,9.92" /><path
         id="path30"
         style="fill:#ef3645;fill-opacity:1;fill-rule:nonzero;stroke:none"
         d="m 2198.72,1748.24 157.04,422.22 -96.32,-10.12 -61.22,-182.36 c -10.6,-34.19 -19.2,-60.28 -19.2,-60.28 0,0 -14.77,23.63 -33.19,54.77 l -97.77,165.66 -104.76,-11.01 243.26,-380.16 12.16,1.28" /><path
         id="path32"
         style="fill:#ef3645;fill-opacity:1;fill-rule:nonzero;stroke:none"
         d="m 3062.96,2252.34 c -43.01,-4.52 -85.85,-28.89 -105.56,-93.36 l -6.82,74 -94.47,-9.93 41.29,-392.84 94.47,9.92 -20.06,190.82 c -9.24,87.92 25.67,124.67 81.79,130.57 21.5,2.26 37.05,-1.78 52.82,-7.66 l 22.86,88.42 c -17.93,8.52 -38.26,13.01 -66.32,10.06" /><path
         id="path34"
         style="fill:#ef3645;fill-opacity:1;fill-rule:nonzero;stroke:none"
         d="m 3345.97,1945.42 c -44.87,-4.72 -83.04,7.38 -110.98,39.4 l -59.83,-51.66 c 30.62,-39.34 94.61,-72.35 184.38,-62.91 111.31,11.7 146.66,71.22 139.59,138.57 -8.75,83.26 -78.67,100.49 -142.05,109.87 -63.39,9.45 -88.42,13.44 -91.56,43.35 -2.46,23.37 15.81,38.53 51.36,42.27 35.56,3.73 64.43,-10.22 85.4,-29.8 l 49.46,60.08 c -33.35,29.57 -80.06,51.12 -142.72,44.54 -77.65,-8.17 -136.38,-52.16 -128.13,-130.69 8.16,-77.65 69.02,-98.7 128.69,-108.47 68.34,-11.73 97.83,-13.37 101.17,-45.15 2.76,-26.19 -17.07,-44.39 -64.78,-49.4" /><path
         id="path36"
         style="fill:#ef3645;fill-opacity:1;fill-rule:nonzero;stroke:none"
         d="m 1759.26,2030.01 25.23,-239.98 -51.61,-5.43 8.12,-77.24 51.64,5.42 86.97,9.15 51.61,5.42 -8.12,77.24 -51.61,-5.42 -25.23,239.98 51.62,5.43 -8.12,77.24 -51.64,-5.43 -86.97,-9.14 -51.61,-5.42 8.12,-77.24 51.6,5.42" /><path
         id="path38"
         style="fill:#ef3645;fill-opacity:1;fill-rule:nonzero;stroke:none"
         d="m 2633.73,1793.96 c 78.56,8.26 126.21,40.71 158.84,81.01 l -61.26,52.2 c -20.19,-23.87 -55.44,-48.36 -106.89,-53.77 -52.41,-5.51 -90.32,10.21 -113.81,40.61 l 142.74,56.99 147.56,58.89 c -4.68,24.42 -12.08,46.88 -22.04,66.97 -36.45,73.41 -106.67,115.34 -200.36,105.48 -117.86,-12.38 -200.28,-109.93 -187.99,-226.82 1.14,-10.86 3.23,-21.25 5.75,-31.39 5.92,-23.73 15.36,-45.46 28.23,-64.5 41.29,-61.13 115.99,-95.47 209.23,-85.67 z m -150.4,225.35 c 5.02,60.1 43.58,98.21 104.35,104.6 56.06,5.89 90.98,-19.66 108.73,-59.97 l -61.41,-24.51 -14.19,-5.67 -135.97,-54.28 c -2.55,20.79 -1.51,39.83 -1.51,39.83" /><path
         id="path40"
         style="fill:#ef3645;fill-opacity:1;fill-rule:nonzero;stroke:none"
         d="m 3897.43,2254.6 33.49,-318.61 87.31,9.18 -33.48,318.61 90.56,9.52 -8.15,77.54 -267.81,-28.15 8.15,-77.54 89.93,9.45" /><path
         id="path42"
         style="fill:#ef3645;fill-opacity:1;fill-rule:nonzero;stroke:none"
         d="m 3596.76,2222.62 25.22,-239.99 -51.64,-5.43 8.12,-77.24 51.64,5.43 86.97,9.14 51.61,5.43 -8.12,77.24 -51.61,-5.43 -25.22,239.99 51.61,5.42 -8.12,77.25 -51.64,-5.43 -86.94,-9.14 -51.64,-5.43 8.12,-77.23 51.64,5.42" /><path
         id="path44"
         style="fill:#ef3645;fill-opacity:1;fill-rule:nonzero;stroke:none"
         d="m 4353.84,2469.55 -8.2,74.67 -115.41,-76.53 5.51,-50.22 118.1,52.08" /><path
         id="path46"
         style="fill:#ef3645;fill-opacity:1;fill-rule:nonzero;stroke:none"
         d="m 4128.28,2125.65 c 5.92,-23.72 15.36,-45.46 28.22,-64.5 41.29,-61.13 116,-95.47 209.23,-85.67 78.57,8.26 126.22,40.71 158.85,81 l -61.26,52.21 c -20.19,-23.87 -55.44,-48.36 -106.89,-53.77 -52.42,-5.5 -90.32,10.21 -113.81,40.61 l 142.74,56.99 147.56,58.9 c -4.68,24.41 -12.08,46.87 -22.05,66.96 -36.45,73.42 -106.67,115.33 -200.35,105.48 -117.86,-12.38 -200.28,-109.93 -188,-226.81 1.14,-10.87 3.23,-21.26 5.76,-31.4 z m 87.06,75.19 c 5.02,60.09 43.58,98.21 104.35,104.59 56.05,5.89 90.98,-19.65 108.73,-59.97 l -61.41,-24.51 -14.19,-5.67 -135.97,-54.27 c -2.55,20.79 -1.51,39.83 -1.51,39.83" /><path
         id="path48"
         style="fill:#ef3645;fill-opacity:1;fill-rule:nonzero;stroke:none"
         d="m 1898.62,937.691 -79.35,-118.589 c -12.67,-19.043 -23.94,-38.813 -30.39,-50.481 -3.82,12.488 -10.75,33.731 -19.92,55.801 l -53.79,132.547 -98.24,10.332 118.41,-281.531 -13.22,-125.821 86.43,-9.09 13.39,127.34 169.67,249.723 -92.99,9.769" /><path
         id="path50"
         style="fill:#ef3645;fill-opacity:1;fill-rule:nonzero;stroke:none"
         d="m 2223.25,912.77 c -118.77,12.492 -221.56,-65.598 -233.85,-182.508 -12.29,-116.922 72.02,-214.672 190.8,-227.153 119.72,-12.578 220.62,65.7 232.91,182.61 12.29,116.922 -70.14,214.472 -189.86,227.051 z m 92.59,-216.829 c -7.57,-72.011 -56.93,-118.839 -127.09,-111.472 -70.16,7.383 -109.65,63.551 -102.08,135.562 7.57,72.02 57.78,117.797 127.93,110.43 70.16,-7.371 108.8,-62.5 101.24,-134.52" /><path
         id="path52"
         style="fill:#ef3645;fill-opacity:1;fill-rule:nonzero;stroke:none"
         d="m 2759.97,856.359 c -58.92,6.192 -111.63,-18.55 -141.34,-67.437 l 9.52,72.758 -94.46,9.929 -41.29,-392.808 94.47,-9.93 22.41,213.238 c 6.69,63.602 50.83,96.782 112.58,90.289 55.17,-5.796 77.93,-41.269 72.03,-97.41 l -23.69,-225.386 94.46,-9.93 24.48,232.887 c 11.2,106.621 -42.17,174.652 -129.17,183.8" /><path
         id="path54"
         style="fill:#ef3645;fill-opacity:1;fill-rule:nonzero;stroke:none"
         d="m 3329.8,795.23 c -77.68,8.161 -140.22,-31.332 -167.29,-105.628 l -1.61,-4.411 78.78,-31.363 1.91,4.192 c 20.03,43.39 45.66,61.871 80.64,58.191 34.61,-3.641 54.03,-25.672 50.69,-57.512 -3.71,-35.199 -29.2,-56.969 -81.98,-99.019 l -166.97,-133.129 -1.59,-1.27 -1.52,-14.383 319.08,-33.539 7.9,75.2 -125.29,13.16 c -7.02,0.742 -19.04,1.211 -29.2,1.511 9.41,5.321 21.02,12.18 29.26,18.129 l 38.72,28.629 c 61.9,45.473 95.81,92.532 100.79,139.922 7.93,75.352 -45.25,132.172 -132.32,141.32" /><path
         id="path56"
         style="fill:#ef3645;fill-opacity:1;fill-rule:nonzero;stroke:none"
         d="m 1494.84,982.48 -86.34,9.079 -41.5,-394.887 232.67,-24.461 7.92,75.348 -146.33,15.382 33.58,319.539" /><path
         id="path58"
         style="fill:#ef3645;fill-opacity:1;fill-rule:nonzero;stroke:none"
         d="m 1709.9,1519.39 v -397.07 h 233.96 v 75.76 h -147.14 v 321.31 h -86.82" /><path
         id="path60"
         style="fill:#ef3645;fill-opacity:1;fill-rule:nonzero;stroke:none"
         d="m 2887.45,1525.79 c -57.37,0 -104.38,-28.25 -135.41,-75.23 -20.68,47.93 -58.32,75.23 -115.7,75.23 -50.75,0 -91.21,-26.35 -117.53,-76.18 l 1.87,67.69 h -94.98 v -394.98 h 94.98 v 216.28 c 0,65.86 32.93,99.71 89.35,99.71 54.55,0 73.36,-30.08 73.36,-84.64 v -231.35 h 94.99 v 216.28 c 0,65.86 32.89,99.71 88.4,99.71 54.55,0 74.27,-30.08 74.27,-84.64 v -231.35 h 94.99 v 240.76 c 0,100.62 -55.47,162.71 -148.59,162.71" /><path
         id="path62"
         style="fill:#ef3645;fill-opacity:1;fill-rule:nonzero;stroke:none"
         d="m 4105.79,1524.84 c -43.25,0 -88.4,-19.76 -114.74,-81.82 l 0.95,74.28 h -94.98 V 1122.32 H 3992 v 191.84 c 0,88.4 38.57,121.32 94.99,121.32 21.62,0 36.66,-5.63 51.73,-13.16 l 31.98,85.61 c -16.94,10.32 -36.7,16.91 -64.91,16.91" /><path
         id="path64"
         style="fill:#ef3645;fill-opacity:1;fill-rule:nonzero;stroke:none"
         d="m 3280.7,1121.63 h 51.89 v 77.66 h -51.89 v 241.29 h 51.89 v 77.7 h -51.92 -87.45 -51.89 v -77.7 h 51.89 v -241.29 h -51.89 v -77.66 h 51.92 87.45" /><path
         id="path66"
         style="fill:#ef3645;fill-opacity:1;fill-rule:nonzero;stroke:none"
         d="m 1999.29,1518.95 v -247.03 c 0,-98.15 60.53,-156.72 161.95,-156.72 98.5,0 159.7,60.06 159.7,156.72 v 247.03 h -87.51 v -244.78 c 0,-53.63 -23.88,-79.72 -72.95,-79.72 -49.62,0 -73.71,26.09 -73.71,79.72 v 244.78 h -87.48" /><path
         id="path68"
         style="fill:#ef3645;fill-opacity:1;fill-rule:nonzero;stroke:none"
         d="m 3548.96,1605.35 122.9,-39.45 0.23,50.53 -122.78,64.04 -0.35,-75.12" /><path
         id="path70"
         style="fill:#ef3645;fill-opacity:1;fill-rule:nonzero;stroke:none"
         d="m 3823.2,1329.91 c -2.1,24.78 -7.11,47.89 -14.92,68.91 -28.58,76.82 -94.03,125.85 -188.23,125.85 -118.51,0 -210.67,-88.4 -210.67,-205.93 0,-10.92 0.98,-21.47 2.44,-31.82 3.4,-24.22 10.52,-46.82 21.32,-67.1 34.68,-65.11 105.39,-107.07 199.13,-107.07 78.99,0 129.78,27.3 166.45,63.96 l -55.48,58.32 c -22.57,-21.63 -60.18,-42.3 -111.92,-42.3 -52.7,0 -88.76,19.59 -108.94,52.28 l 147.92,41.75 z m -178.71,22.68 -140.89,-39.77 c -0.37,20.94 2.65,39.77 2.65,39.77 11.28,59.24 53.61,93.11 114.72,93.11 56.36,0 88.43,-29.05 101.86,-71 l -63.63,-17.97 -14.71,-4.14" /><path
         id="path72"
         style="fill:#ef3645;fill-opacity:1;fill-rule:nonzero;stroke:none"
         d="m 4584.09,1329.91 c -2.1,24.78 -7.11,47.89 -14.92,68.91 -28.57,76.82 -94.03,125.85 -188.23,125.85 -118.51,0 -210.68,-88.4 -210.68,-205.93 0,-10.92 0.99,-21.47 2.45,-31.82 3.4,-24.22 10.52,-46.82 21.32,-67.1 34.68,-65.11 105.39,-107.07 199.13,-107.07 79,0 129.78,27.3 166.45,63.96 l -55.47,58.32 c -22.58,-21.63 -60.19,-42.3 -111.92,-42.3 -52.71,0 -88.76,19.59 -108.95,52.28 l 147.92,41.75 z m -178.7,22.68 -140.9,-39.77 c -0.36,20.94 2.66,39.77 2.66,39.77 11.27,59.24 53.6,93.11 114.71,93.11 56.37,0 88.43,-29.05 101.86,-71 l -63.63,-17.97 -14.7,-4.14" /><path
         id="path74"
         style="fill:#231f20;fill-opacity:1;fill-rule:nonzero;stroke:none"
         d="M 292.559,1251.09 H 1504.07 v 83.28 H 292.691 l -0.132,-83.28" /><path
         id="path76"
         style="fill:#231f20;fill-opacity:1;fill-rule:nonzero;stroke:none"
         d="m 705.188,1727.91 -8.708,82.81 -405.75,-42.64 9.321,-82.76 405.137,42.59" /><path
         id="path78"
         style="fill:#231f20;fill-opacity:1;fill-rule:nonzero;stroke:none"
         d="m 290.699,870.781 886.751,-93.203 8.71,82.82 -888.094,93.352 -7.367,-82.969" /></g></g></svg>