<?xml version="1.0" encoding="UTF-8" standalone="no"?>
<!-- Created with Inkscape (http://www.inkscape.org/) -->
<svg
   xmlns:dc="http://purl.org/dc/elements/1.1/"
   xmlns:cc="http://creativecommons.org/ns#"
   xmlns:rdf="http://www.w3.org/1999/02/22-rdf-syntax-ns#"
   xmlns:svg="http://www.w3.org/2000/svg"
   xmlns="http://www.w3.org/2000/svg"
   xmlns:xlink="http://www.w3.org/1999/xlink"
   xmlns:sodipodi="http://sodipodi.sourceforge.net/DTD/sodipodi-0.dtd"
   xmlns:inkscape="http://www.inkscape.org/namespaces/inkscape"
   width="120"
   height="300"
   id="svg5789"
   sodipodi:version="0.32"
   inkscape:version="0.46"
   version="1.0"
   sodipodi:docname="pgdayeu09.120x300.en.svg"
   inkscape:output_extension="org.inkscape.output.svg.inkscape"
   inkscape:export-filename="/home/damien/dev/pg-eu/pgday/pgdayeu09.medium_banner.en.png"
   inkscape:export-xdpi="90"
   inkscape:export-ydpi="90">
  <defs
     id="defs5791">
    <linearGradient
       id="linearGradient3155">
      <stop
         id="stop3674"
         offset="0"
         style="stop-color:#006e93;stop-opacity:1;" />
      <stop
         style="stop-color:#008bb9;stop-opacity:1;"
         offset="1"
         id="stop3159" />
    </linearGradient>
    <radialGradient
       inkscape:collect="always"
       xlink:href="#linearGradient3155"
       id="radialGradient5767"
       cx="60.60915"
       cy="30.07423"
       fx="60.60915"
       fy="30.07423"
       r="61.056614"
       gradientTransform="matrix(1.4697442,0,0,1.486599,0.3843377,45.648827)"
       gradientUnits="userSpaceOnUse" />
    <inkscape:perspective
       sodipodi:type="inkscape:persp3d"
       inkscape:vp_x="0 : 526.18109 : 1"
       inkscape:vp_y="0 : 1000 : 0"
       inkscape:vp_z="744.09448 : 526.18109 : 1"
       inkscape:persp3d-origin="372.04724 : 350.78739 : 1"
       id="perspective5797" />
    <radialGradient
       inkscape:collect="always"
       xlink:href="#linearGradient3155"
       id="radialGradient3799"
       gradientUnits="userSpaceOnUse"
       gradientTransform="matrix(0.9717039,0,0,2.4994608,0.5701354,75.68779)"
       cx="60.60915"
       cy="30.07423"
       fx="60.60915"
       fy="30.07423"
       r="61.056614" />
  </defs>
  <sodipodi:namedview
     id="base"
     pagecolor="#ffffff"
     bordercolor="#666666"
     borderopacity="1.0"
     inkscape:pageopacity="0.0"
     inkscape:pageshadow="2"
     inkscape:zoom="2"
     inkscape:cx="57.843066"
     inkscape:cy="151.40527"
     inkscape:document-units="px"
     inkscape:current-layer="layer1"
     showgrid="false"
     showguides="true"
     inkscape:guide-bbox="true"
     inkscape:window-width="1272"
     inkscape:window-height="763"
     inkscape:window-x="0"
     inkscape:window-y="0">
    <sodipodi:guide
       orientation="0,1"
       position="311,27"
       id="guide5820" />
  </sodipodi:namedview>
  <metadata
     id="metadata5794">
    <rdf:RDF>
      <cc:Work
         rdf:about="">
        <dc:format>image/svg+xml</dc:format>
        <dc:type
           rdf:resource="http://purl.org/dc/dcmitype/StillImage" />
      </cc:Work>
    </rdf:RDF>
  </metadata>
  <g
     inkscape:label="Calque 1"
     inkscape:groupmode="layer"
     id="layer1">
    <rect
       style="fill:url(#radialGradient3799);fill-opacity:1;fill-rule:nonzero;stroke:#424242;stroke-width:2.32999992;stroke-linecap:butt;stroke-linejoin:miter;marker:none;marker-start:none;marker-mid:none;marker-end:none;stroke-miterlimit:1;stroke-dasharray:none;stroke-dashoffset:0;stroke-opacity:1;visibility:visible;display:inline;overflow:visible;enable-background:accumulate"
       id="rect2383"
       width="117.29751"
       height="298.29803"
       x="0.81552804"
       y="1.7081188"
       ry="64.901665" />
    <g
       id="g4861"
       transform="matrix(2.3117941e-2,0,0,2.4479757e-2,24.892086,39.582836)">
      <path
         d="M 1517.0576,3418.3751 C 1508.8429,3712.0652 1519.1217,4007.8016 1547.8584,4079.6761 C 1576.6129,4151.5506 1638.1493,4291.3494 1849.7573,4246.0171 C 2026.5432,4208.1166 2090.8672,4134.7712 2118.7796,3972.8786 C 2139.3372,3853.7679 2178.9695,3522.9721 2184.0526,3455.1961"
         id="path2493"
         style="fill:none;fill-rule:nonzero;stroke:#ffffff;stroke-width:73.93321228;stroke-linecap:round;stroke-linejoin:round;stroke-miterlimit:4" />
      <path
         d="M 1263.4269,1946.0809 C 1263.4269,1946.0809 305.41085,1554.5257 349.94835,2444.9497 C 359.42045,2634.3809 621.47355,3878.3113 934.01305,3502.5806 C 1048.2245,3365.178 1151.5167,3257.4137 1151.5167,3257.4137"
         id="path2495"
         style="fill:none;fill-rule:nonzero;stroke:#ffffff;stroke-width:73.93299866;stroke-linecap:round;stroke-linejoin:round;stroke-miterlimit:4;stroke-dasharray:none" />
      <path
         d="M 1780.8959,1874.6157 C 1747.7345,1885.0131 2313.8039,1667.6815 2635.5072,2078.7504 C 2749.1434,2223.9703 2617.4585,2817.2996 2302.4516,3284.7388"
         id="path2497"
         style="fill:none;fill-rule:nonzero;stroke:#ffffff;stroke-width:73.93321228;stroke-linecap:round;stroke-linejoin:round;stroke-miterlimit:4" />
      <path
         style="fill:none;fill-opacity:1;fill-rule:nonzero;stroke:#ffffff;stroke-width:73.93299866;stroke-linecap:round;stroke-linejoin:bevel;stroke-miterlimit:4;stroke-dasharray:none"
         d="M 2302.4456,3284.7388 C 2302.4456,3284.7388 2322.9736,3385.783 2621.3316,3324.1992 C 2752.0556,3297.2003 2673.3839,3399.9646 2540.8034,3461.5365 C 2431.9953,3512.0349 2188.0502,3524.9768 2184.0645,3455.1961 C 2173.8094,3275.154 2312.4575,3329.8517 2302.4516,3284.7388 C 2293.4064,3244.11 2231.4015,3204.2344 2190.3871,3104.7976 C 2154.5804,3018.0061 1699.3061,2352.4286 2316.645,2451.2783 C 2339.2607,2446.5985 2155.6361,1864.0759 1577.8941,1854.6038 C 1000.2825,1845.1316 1019.2328,2564.9382 1019.2328,2564.9382"
         id="path2499" />
      <path
         d="M 1355.3608,3346.3108 C 1274.8326,3436.2636 1298.516,3452.0585 1137.5487,3485.2021 C 974.68345,3518.7728 1070.3717,3578.5179 1132.8215,3594.1289 C 1208.5513,3613.0791 1383.7535,3639.906 1502.1346,3474.1463 C 1538.1846,3423.6776 1501.9211,3343.1494 1452.4014,3322.6215 C 1428.4749,3312.7104 1396.4819,3300.2905 1355.3608,3346.3108 L 1355.3608,3346.3108 z"
         id="path2501"
         style="fill:none;fill-rule:nonzero;stroke:#ffffff;stroke-width:73.93321228;stroke-linecap:round;stroke-linejoin:round;stroke-miterlimit:4" />
      <path
         d="M 1350.0879,3344.739 C 1341.974,3291.8503 1367.4664,3228.9142 1394.7856,3155.2841 C 1435.8414,3044.8092 1530.5689,2934.3166 1454.7917,2583.8766 C 1398.3087,2322.731 1019.4641,2529.5288 1019.2268,2564.9382 C 1018.9955,2600.3357 1036.3621,2744.4168 1012.8982,2912.1991 C 982.28135,3131.1381 1152.2106,3316.3048 1347.8874,3297.3605"
         id="path2503"
         style="fill:none;fill-rule:nonzero;stroke:#ffffff;stroke-width:73.93321228;stroke-linecap:round;stroke-linejoin:round;stroke-miterlimit:4;stroke-opacity:1" />
      <path
         style="fill:#ffffff;fill-rule:nonzero;stroke:#ffffff;stroke-width:24.644207;stroke-linecap:butt;stroke-linejoin:miter;stroke-miterlimit:4"
         d="M 1259.9453,2559.6297 C 1258.2371,2571.7235 1282.0865,2603.9953 1313.1839,2608.3072 C 1344.2279,2612.637 1370.7997,2587.4175 1372.4842,2575.3356 C 1374.1686,2563.2419 1350.3489,2549.9203 1319.2396,2545.5906 C 1288.1779,2541.2548 1261.5941,2547.5657 1259.9512,2559.6297 L 1259.9453,2559.6297 z"
         id="path2505" />
      <path
         style="fill:#ffffff;fill-rule:nonzero;stroke:#ffffff;stroke-width:12.3221035;stroke-linecap:butt;stroke-linejoin:miter;stroke-miterlimit:4"
         d="M 2205.5236,2534.9737 C 2207.2081,2547.0674 2183.3883,2579.3392 2152.285,2583.6512 C 2121.2173,2587.981 2094.6454,2562.7614 2092.9432,2550.6795 C 2091.3002,2538.5858 2115.1259,2525.2643 2146.1996,2520.9345 C 2177.2732,2516.6047 2203.8391,2522.9096 2205.5236,2534.9796 L 2205.5236,2534.9737 z"
         id="path2507" />
      <path
         d="M 2316.645,2451.2783 C 2321.7636,2546.1422 2296.2119,2610.7568 2292.9913,2711.7417 C 2288.2226,2858.5275 2362.9737,3026.5352 2250.3399,3194.7504"
         id="path2509"
         style="fill:none;fill-rule:nonzero;stroke:#ffffff;stroke-width:73.93321228;stroke-linecap:round;stroke-linejoin:round;stroke-miterlimit:4" />
    </g>
    <text
       xml:space="preserve"
       style="font-size:21.75332451px;font-style:normal;font-variant:normal;font-weight:normal;font-stretch:normal;text-align:center;line-height:125%;writing-mode:lr-tb;text-anchor:middle;fill:#ffffff;fill-opacity:1;stroke:none;stroke-width:1px;stroke-linecap:butt;stroke-linejoin:miter;stroke-opacity:1;font-family:Trebuchet MS;-inkscape-font-specification:Trebuchet MS"
       x="57.235958"
       y="36.628761"
       id="text4297"
       sodipodi:linespacing="125%"><tspan
         sodipodi:role="line"
         id="tspan4299"
         x="57.235958"
         y="36.628761">PGDay</tspan><tspan
         sodipodi:role="line"
         x="57.235958"
         y="63.820419"
         id="tspan3177">Europe 09</tspan></text>
    <text
       xml:space="preserve"
       style="font-size:14px;font-style:normal;font-variant:normal;font-weight:normal;font-stretch:normal;text-align:start;line-height:125%;writing-mode:lr-tb;text-anchor:start;fill:#ffffff;fill-opacity:1;stroke:none;stroke-width:1px;stroke-linecap:butt;stroke-linejoin:miter;stroke-opacity:1;font-family:Trebuchet MS;-inkscape-font-specification:Trebuchet MS"
       x="45.633789"
       y="277.70169"
       id="text4301"
       sodipodi:linespacing="125%"><tspan
         sodipodi:role="line"
         id="tspan4303"
         x="45.633789"
         y="277.70169">Paris</tspan></text>
    <text
       xml:space="preserve"
       style="font-size:14px;font-style:normal;font-variant:normal;font-weight:normal;font-stretch:normal;text-align:start;line-height:125%;writing-mode:lr-tb;text-anchor:start;fill:#ffffff;fill-opacity:1;stroke:none;stroke-width:1px;stroke-linecap:butt;stroke-linejoin:miter;stroke-opacity:1;font-family:Trebuchet MS;-inkscape-font-specification:Trebuchet MS"
       x="19.445318"
       y="247.69302"
       id="text4309"
       sodipodi:linespacing="125%"><tspan
         sodipodi:role="line"
         id="tspan4311"
         x="19.445318"
         y="247.69302">November 6-7</tspan></text>
    <text
       xml:space="preserve"
       style="font-size:12px;font-style:normal;font-variant:normal;font-weight:normal;font-stretch:normal;text-align:center;line-height:125%;writing-mode:lr-tb;text-anchor:middle;fill:#ffffff;fill-opacity:1;stroke:none;stroke-width:1px;stroke-linecap:butt;stroke-linejoin:miter;stroke-opacity:1;font-family:Trebuchet MS;-inkscape-font-specification:Trebuchet MS"
       x="61.826447"
       y="167.77916"
       id="text5822"
       sodipodi:linespacing="125%"><tspan
         sodipodi:role="line"
         id="tspan5824"
         x="63.631134"
         y="167.77916">The European </tspan><tspan
         sodipodi:role="line"
         x="63.631134"
         y="182.77916"
         id="tspan5826">conference for </tspan><tspan
         sodipodi:role="line"
         x="61.826447"
         y="197.77916"
         id="tspan5828">PostgreSQL users</tspan><tspan
         sodipodi:role="line"
         x="61.826447"
         y="212.77916"
         id="tspan5830">and developers</tspan></text>
  </g>
</svg>
